<svg width="143" height="50" viewBox="0 0 143 50" fill="none" xmlns="http://www.w3.org/2000/svg">
<path fill-rule="evenodd" clip-rule="evenodd" d="M14.0597 0.624619C17.2045 0.624619 19.148 2.76969 20.5729 5.06818C23.0679 9.09277 23.3558 16.4278 22.2074 20.9393C22.0321 21.6279 21.8178 22.482 21.5122 23.0807C21.1917 23.7085 20.8699 24.3331 20.5487 24.9596C19.8208 26.3794 19.5946 27.1552 18.295 28.2802C15.1326 31.0179 10.9818 30.2028 8.50773 26.6292C5.95045 22.9353 5.55133 19.7029 5.28404 15.2C5.24718 14.5792 5.36213 14.3686 5.40129 13.9028C5.55626 12.0575 5.2915 12.6634 5.83764 9.97998C6.17658 8.31479 6.66892 6.97027 7.33026 5.67966C8.63083 3.14134 10.919 0.624619 14.0597 0.624619V0.624619ZM58.0412 41.8883V49.4122C58.0412 49.7741 58.2077 49.7648 58.5219 49.7648C59.1204 49.7648 58.8824 47.9337 58.8824 46.8258C58.8824 45.6895 58.8824 44.553 58.8824 43.4166C59.1294 43.6946 59.3656 43.9169 59.6323 44.2113L61.0755 45.8559C61.7565 46.5554 64.3618 49.8304 65.0109 50V41.5356H64.4101V47.2961C63.9824 47.1844 63.2662 46.2115 62.9859 45.8679C62.7537 45.5831 62.5317 45.4224 62.2757 45.1521C61.7418 44.5884 59.181 41.5356 58.7622 41.5356C58.2753 41.5356 58.0412 41.4703 58.0412 41.8883V41.8883ZM105.147 42.1235H108.151V49.4122C108.151 49.903 108.568 49.7648 109.593 49.7648V42.1235H112.357C112.69 42.1235 112.646 42.0327 112.718 41.7708C112.577 41.5726 112.7 41.5356 112.357 41.5356H105.147V42.1235ZM83.7572 49.7648H89.2849C89.794 49.7648 89.794 49.0595 89.2849 49.0595H85.1991V45.8854C85.1991 45.272 86.4714 45.5327 88.2033 45.5327C88.1846 44.7065 88.1701 44.9449 85.1991 44.9449V42.1235H89.6454V41.5356H83.7572V49.7648V49.7648ZM70.2983 45.0625C70.2983 46.6059 70.1703 47.3766 71.5265 48.6809C74.2534 51.3033 78.4533 49.2548 78.5899 47.6488C78.0316 47.5029 78.4837 47.4637 77.8689 47.4136C77.545 48.7738 74.7864 50.336 72.7905 48.1496C71.6525 46.903 71.6615 44.3 72.9073 43.0299C73.9613 41.9554 75.6892 41.5939 76.9305 42.5712C77.2604 42.831 77.7532 43.4629 77.8689 43.8868C78.2364 43.8031 78.3308 43.704 78.5899 43.5341C78.3813 42.6584 76.7148 41.418 75.5857 41.418C73.8984 41.418 72.8302 41.3355 71.5252 42.6183C71.0085 43.1263 70.2983 44.1041 70.2983 45.0625V45.0625ZM30.6429 45.2975C30.6429 46.5943 30.6583 47.5436 31.8102 48.6228C33.6315 50.3291 36.6104 50.3595 38.1887 48.8002C38.5095 48.4832 38.8937 48.1274 38.9345 47.6488C38.3762 47.5029 38.8282 47.4637 38.2135 47.4136C38.0756 47.9925 37.4345 48.5804 36.9353 48.8671C36.287 49.2395 35.5936 49.3742 34.7751 49.1331C31.0049 48.0222 31.6596 42.0059 35.8101 42.0059C36.9292 42.0059 38.0077 43.0227 38.2135 43.8868C38.5864 43.8018 38.5615 43.7367 38.9345 43.6517C38.8503 42.6618 37.0663 41.418 35.9303 41.418C34.2827 41.418 33.1237 41.3855 31.8697 42.6183C31.2448 43.2327 30.6429 44.1111 30.6429 45.2975V45.2975ZM47.8269 41.8883C49.0386 41.8883 49.8725 41.7463 50.7097 43.1827C51.7041 44.8884 51.6858 49.4122 48.1874 49.4122C45.3516 49.4122 45.0151 45.0336 45.9826 43.2582C46.2894 42.6953 47.0502 41.8883 47.8269 41.8883V41.8883ZM43.7412 45.5327C43.7412 47.8679 45.7424 49.8824 47.9471 49.8824H48.7882C50.944 49.8824 52.9941 47.8855 52.9941 45.7678C52.9941 41.2585 47.5624 40.197 45.1513 42.5624C44.7679 42.9386 44.432 43.2211 44.1855 43.7336C43.9824 44.1558 43.7412 44.9599 43.7412 45.5327ZM96.7353 45.4151H96.0143V42.1235C97.5154 42.1235 98.8983 41.9567 98.8983 43.8868C98.8983 44.8985 97.818 45.4151 96.7353 45.4151ZM94.5722 49.7648C96.4554 49.7648 96.0143 50.3856 96.0143 46.0029H97.0958L99.6442 49.5054C100.025 49.9123 100.672 49.7648 101.422 49.7648C101.377 49.2414 101.396 49.491 100.804 48.7237L98.5379 45.7678C99.2471 45.7101 100.461 44.8691 100.461 44.0044V43.299C100.461 41.0694 96.0783 41.5356 94.5722 41.5356V49.7648V49.7648ZM99.379 5.91483L104.306 18.3762H94.332C94.3442 17.8369 98.3514 7.97732 98.9368 6.65781C99.0868 6.31973 99.1135 6.10513 99.379 5.91483V5.91483ZM96.9757 2.85831V3.09338C97.7783 3.2763 98.9325 4.12513 98.6866 4.98727L96.1851 11.4898C94.7943 14.7079 93.1717 19.1089 91.757 22.5581C91.5009 23.1827 91.2956 23.8313 91.0078 24.4116C90.1899 26.061 89.5494 27.9555 87.7015 28.936C86.1288 29.7705 85.8 28.7058 85.8 30.0147H95.8941C96.3536 30.0147 95.9378 30.0508 96.2546 29.8971C96.1554 28.7303 95.2167 29.8481 93.4014 28.5738C90.546 26.5696 92.5058 22.847 93.44 20.4427C93.6015 20.0273 93.7923 19.0816 94.2118 19.0816H104.306C104.798 19.0816 105.891 22.3041 106.094 22.8573C106.801 24.7774 108.567 27.4965 106.716 28.8461C105.542 29.7021 104.787 28.9292 104.787 29.662C104.787 29.9329 104.87 30.0147 105.147 30.0147H115.361C115.361 28.0778 114.688 31.1537 112.597 27.0758C111.458 24.8538 104.647 7.66733 103.327 4.16903L101.782 0.271956C101.116 0.708402 99.1228 2.81149 96.9757 2.85831V2.85831ZM40.016 5.79725L41.2165 8.97263C41.6389 10.0126 42.0678 10.9946 42.4888 12.0776L44.9429 18.3762H34.9689C35.0103 17.8895 37.1854 12.6586 37.4241 12.0787L39.309 7.33929C39.4748 6.8889 39.6955 6.15803 40.016 5.79725V5.79725ZM37.6126 3.09338C37.8769 3.16243 38.1332 3.32824 38.4179 3.48115C39.6376 4.13604 39.4031 4.88482 38.9698 5.94939C36.4942 12.0317 34.2431 18.1752 31.6213 24.3886C30.8799 26.1455 29.5951 28.9647 27.3641 29.276C26.9039 29.3401 26.437 29.1593 26.437 29.662C26.437 29.9329 26.5206 30.0147 26.7975 30.0147H36.5311C36.808 30.0147 36.8916 29.9329 36.8916 29.662C36.8916 29.1365 36.0055 29.3377 35.4432 29.198C33.9341 28.8232 32.5656 27.5627 32.5656 26.0177C32.5656 23.5168 33.2422 22.7409 34.0216 20.6236C34.1875 20.1731 34.5018 19.5293 34.6084 19.0816H45.3034C45.3465 19.5881 47.2443 24.1287 47.5867 24.9595C48.0889 26.178 48.4555 26.9718 47.9041 28.2092C47.2423 29.6943 45.4528 28.7313 45.4235 30.0147H55.9983C55.9983 28.3208 54.6884 30.673 53.2171 27.0927C52.9786 26.5124 52.6996 25.9429 52.4278 25.2786L43.1853 2.22649C42.9515 1.58214 42.5598 0.861602 42.4194 0.271956C42.0575 0.508994 41.7986 0.819672 41.3726 1.12891C40.307 1.90251 39.6075 2.37202 38.2519 2.77827C37.6827 2.94879 37.9015 2.70774 37.6126 3.09338V3.09338ZM60.5647 9.089H61.6463C61.8961 6.15171 63.4607 2.93033 66.1691 1.64003C68.5326 0.51412 74.4468 0.859718 77.6286 0.859718C77.5885 1.33071 76.8235 2.27838 76.5227 2.71685L59.0266 28.9802C58.769 29.349 58.5657 29.4983 58.5219 30.0147H80.9933L81.131 27.7982C81.3386 25.9521 81.5941 22.8373 81.5941 21.0802C80.0949 21.0802 80.87 21.1599 80.1968 23.3574C78.4885 28.9325 75.6054 29.3122 70.5428 29.3053C68.3789 29.3024 66.2138 29.3094 64.0496 29.3094L68.8803 22.0441C73.3488 15.4862 77.7121 8.75153 82.2194 2.17676C82.4891 1.78328 83.3106 0.633355 83.3967 0.271956L61.634 0.259982C61.1285 0.313121 61.1552 0.308762 61.0531 1.69022C61.0046 2.34711 60.928 2.87156 60.9232 3.44411C60.9117 4.83505 60.5647 7.82646 60.5647 9.089V9.089ZM129.061 29.8971C126.621 29.8971 124.562 28.4521 123.435 26.8184C119.99 21.8223 119.523 15.2988 120.798 9.35209C121.112 7.88435 121.711 6.54617 122.33 5.32609C123.952 2.13105 127.232 -0.361344 131.208 1.10985C131.938 1.37995 132.431 1.73707 133.028 2.15132C136.017 4.22607 137.713 10.5306 137.713 14.4967C137.713 17.1566 137.659 18.1395 137.061 20.7959C136.56 23.0246 135.699 24.9647 134.494 26.7482C133.483 28.2435 131.326 29.8971 129.061 29.8971ZM114.881 14.7319C114.881 21.2191 118.152 27.228 124.201 29.5961C124.66 29.7759 124.979 29.8956 125.454 30.0161C126.425 30.2624 126.49 30.1007 126.777 30.485C126.16 30.5353 123.213 31.8402 122.932 32.6011C124.193 33.2536 124.318 31.7782 126.657 31.7782C129.224 31.7782 130.097 38.4791 135.189 38.4791C137.089 38.4791 139.914 37.4187 140.717 36.2454C140.643 35.9363 140.608 35.9 140.476 35.6576C139.271 35.7558 137.701 38.3603 134.844 34.8195C133.989 33.7596 132.841 32.2307 131.917 31.3349C131.558 30.9876 130.976 30.6789 130.743 30.3674C132.114 30.3674 134.447 29.4306 135.532 28.587C137.305 27.2091 137.477 27.4899 139.128 25.6388C141.152 23.37 143 19.4925 143 16.3777C143 13.0065 142.793 10.5457 141.008 7.62864C140.162 6.24633 140.203 5.9368 138.764 4.53351C138.115 3.9002 137.682 3.46089 136.964 2.88518C136.331 2.37781 135.559 1.86292 134.79 1.48503C132.887 0.550184 131.133 0.0367807 128.58 0.0367807C124.798 0.0367807 120.608 2.53914 118.965 4.62066C117.59 6.36371 117.131 6.75342 116.167 8.93694C115.509 10.4289 114.881 12.6525 114.881 14.7319ZM0 15.4372C0 18.9449 1.20039 22.044 3.12345 24.7254C4.11193 26.1038 4.95087 26.6103 6.15533 27.6373C6.47503 27.9099 6.7434 28.1331 7.07149 28.3869C8.20679 29.265 9.74914 29.7787 11.14 30.1672C11.697 30.3228 11.5037 30.1207 11.7765 30.485C10.8565 30.6946 9.13243 31.5893 8.45163 32.1697C8.17671 32.4041 8.20741 32.2961 8.17147 32.7186C9.46798 33.0141 11.5516 30.6856 12.9812 32.3629L15.5364 35.6237C16.8071 37.29 17.7094 38.4791 20.5488 38.4791C22.3967 38.4791 25.8362 36.9912 25.8362 36.1278C25.8362 34.938 24.5548 36.6196 22.9343 36.6427C21.6356 36.6612 20.9088 35.7151 20.1564 34.9833C19.4813 34.3267 18.4447 32.7205 17.0957 31.3943L15.8622 30.3674C16.5698 30.3674 17.9568 29.9226 18.5422 29.6975C19.4196 29.36 20.1238 29.0429 20.862 28.5578C23.8335 26.6049 25.7165 24.5429 27.1067 21.1475C32.1156 8.91384 19.7115 -4.79256 7.89249 1.64492C2.87237 4.37919 0 9.81626 0 15.4372V15.4372Z" fill="#F4A959"/>
</svg>
