<svg width="225" height="50" viewBox="0 0 225 50" fill="none" xmlns="http://www.w3.org/2000/svg">
<g clip-path="url(#clip0_1_3)">
<path d="M215.959 24.3153C215.959 22.4983 217.478 21.2164 219.594 21.2164C221.531 21.2164 222.633 22.1097 222.633 23.6592C222.633 25.0589 221.442 25.8345 219.594 26.6386L215.959 28.1881V24.3153ZM219.236 35.4291C221.322 35.4291 223.139 34.6248 224.062 32.9863C224.361 32.4798 224.302 31.8842 223.855 31.5864C223.406 31.2887 222.811 31.3778 222.514 31.8253C221.709 32.9878 220.697 33.5531 219.236 33.5531C217.091 33.5531 215.959 32.4512 215.959 30.4542V30.1867L220.219 28.3698C223.495 26.97 224.717 26.0464 224.717 23.4842C224.717 20.9219 222.72 19.3422 219.562 19.3422C216.405 19.3422 213.931 21.4283 213.931 24.317V30.4542C213.931 33.4641 215.987 35.4291 219.234 35.4291H219.236ZM210.656 19.4886C207.677 19.4886 205.591 21.6639 205.591 24.9411V34.2666C205.591 34.8317 206.008 35.2792 206.603 35.2792C207.198 35.2792 207.616 34.8317 207.616 34.2666V24.9411C207.616 22.9442 208.659 21.4553 210.684 21.4553C211.012 21.4553 211.519 21.5747 211.786 21.5747C212.323 21.5747 212.741 21.2164 212.741 20.6208C212.741 20.1733 212.473 19.7864 211.906 19.6383C211.489 19.5189 211.072 19.4886 210.655 19.4886H210.656ZM193.592 31.1087C193.592 29.7089 194.783 28.9334 196.63 28.1292L200.266 26.5797V30.4525C200.266 32.2695 198.747 33.5514 196.63 33.5514C194.694 33.5514 193.592 32.6581 193.592 31.1087ZM196.989 19.3405C194.903 19.3405 193.086 20.1447 192.162 21.7833C191.864 22.2897 191.923 22.8853 192.37 23.183C192.817 23.4808 193.414 23.3917 193.711 22.9442C194.516 21.7816 195.528 21.2164 196.989 21.2164C199.133 21.2164 200.266 22.3183 200.266 24.3153V24.5828L196.006 26.3997C192.728 27.7995 191.508 28.7231 191.508 31.2853C191.508 33.8475 193.505 35.4273 196.662 35.4273C199.82 35.4273 202.294 33.3412 202.294 30.4525V24.3153C202.294 21.3055 200.236 19.3405 196.989 19.3405ZM178.605 28.427V21.5747C178.605 18.7147 180.72 16.5091 183.431 16.5091C185.487 16.5091 187.008 17.4023 187.872 19.0714C188.111 19.5475 188.677 19.7561 189.183 19.5189C189.658 19.28 189.839 18.7147 189.6 18.2369C188.467 15.8833 186.264 14.5727 183.431 14.5727C179.53 14.5727 176.491 17.6111 176.491 21.5747V28.427C176.491 32.3889 179.53 35.4291 183.431 35.4291C186.262 35.4291 188.467 34.1184 189.6 31.7648C189.839 31.2887 189.658 30.7217 189.183 30.4828C188.677 30.2439 188.109 30.4525 187.872 30.9303C187.008 32.5992 185.487 33.4927 183.431 33.4927C180.72 33.4927 178.605 31.2887 178.605 28.427ZM162.209 34.4195C162.209 34.8334 162.627 35.2792 163.222 35.2792C163.817 35.2792 164.234 34.8317 164.234 34.2666V24.9747C164.234 22.9778 165.842 21.3694 167.839 21.3694C169.837 21.3694 171.445 22.9778 171.445 24.9747V34.2666C171.445 34.8317 171.862 35.2792 172.458 35.2792C173.053 35.2792 173.47 34.8317 173.47 34.2666V24.9747C173.47 21.965 171.087 19.4919 168.108 19.4919C166.587 19.4919 165.217 20.1481 164.234 21.1894V15.7334C164.234 15.1682 163.817 14.7207 163.222 14.7207C162.627 14.7207 162.209 15.1682 162.209 15.8866V34.4195ZM155.596 19.6383V15.7352C155.596 15.1699 155.178 14.7224 154.583 14.7224C153.987 14.7224 153.57 15.1699 153.57 15.7352V19.6383H151.097C150.56 19.6383 150.173 20.0253 150.173 20.5922C150.173 21.1289 150.56 21.5158 151.097 21.5158H153.57V29.8284C153.57 31.3475 154.076 32.7491 155 33.7617C156.013 34.8638 157.295 35.2809 158.873 35.2809C159.53 35.2809 159.947 34.7745 159.916 34.2378C159.886 33.7013 159.439 33.3445 158.903 33.3445C156.669 33.3445 155.596 31.8556 155.596 29.8284V21.5158H158.992C159.53 21.5158 159.916 21.1289 159.916 20.5619C159.916 20.0252 159.53 19.6383 158.992 19.6383H155.596ZM150.829 34.5053C150.86 33.9688 150.442 33.5514 149.906 33.4927C148.684 33.3731 148 32.6278 148 31.2281V15.7352C148 15.1699 147.582 14.7224 146.987 14.7224C146.391 14.7224 145.974 15.1699 145.974 15.7352V31.2281C145.974 32.3603 146.302 33.3428 146.898 34.0578C147.582 34.9227 148.567 35.4291 149.788 35.4291C150.384 35.4291 150.801 35.0117 150.831 34.5053H150.829ZM133.792 31.1087C133.792 29.7089 134.983 28.9334 136.83 28.1292L140.466 26.5797V30.4525C140.466 32.2695 138.947 33.5514 136.83 33.5514C134.894 33.5514 133.792 32.6581 133.792 31.1087ZM137.189 19.3405C135.103 19.3405 133.286 20.1447 132.362 21.7833C132.064 22.2897 132.123 22.8853 132.571 23.183C133.018 23.4808 133.614 23.3917 133.912 22.9442C134.716 21.7816 135.728 21.2164 137.189 21.2164C139.334 21.2164 140.466 22.3183 140.466 24.3153V24.5828L136.206 26.3997C132.929 27.7995 131.708 28.7231 131.708 31.2853C131.708 33.8475 133.705 35.4273 136.862 35.4273C140.02 35.4273 142.493 33.3412 142.493 30.4525V24.3153C142.493 21.3055 140.437 19.3405 137.19 19.3405H137.189ZM120.861 24.3153C120.861 22.4983 122.38 21.2164 124.497 21.2164C126.433 21.2164 127.535 22.1097 127.535 23.6592C127.535 25.0589 126.344 25.8345 124.497 26.6386L120.861 28.1881V24.3153ZM124.139 35.4291C126.225 35.4291 128.042 34.6248 128.965 32.9863C129.263 32.4798 129.204 31.8842 128.757 31.5864C128.309 31.2887 127.714 31.3778 127.416 31.8253C126.612 32.9878 125.599 33.5531 124.139 33.5531C121.994 33.5531 120.861 32.4512 120.861 30.4542V30.1867L125.121 28.3698C128.398 26.97 129.62 26.0464 129.62 23.4842C129.62 20.9219 127.623 19.3422 124.465 19.3422C121.307 19.3422 118.834 21.4283 118.834 24.317V30.4542C118.834 33.4641 120.89 35.4291 124.137 35.4291H124.139ZM115.264 34.2077V15.7958C115.264 15.1699 114.847 14.7224 114.191 14.7224C113.535 14.7224 113.117 15.1699 113.117 15.7958V23.75H103.713V15.7958C103.713 15.1699 103.296 14.7224 102.64 14.7224C101.983 14.7224 101.566 15.1699 101.566 15.7958V34.2077C101.566 34.8031 102.014 35.2809 102.64 35.2809C103.265 35.2809 103.713 34.8334 103.713 34.2077V25.6275H113.117V34.2077C113.117 34.8334 113.535 35.2809 114.191 35.2809C114.847 35.2809 115.264 34.8334 115.264 34.2077ZM92.6178 35.1312C93.1544 35.1312 93.5414 34.7442 93.5414 34.2077C93.5414 33.6423 93.1544 33.2537 92.6178 33.2537H83.8728V25.6258H91.9028C92.4394 25.6258 92.8264 25.2389 92.8264 24.7022C92.8264 24.1369 92.4394 23.7483 91.9028 23.7483H83.8728V16.7463H92.6178C93.1544 16.7463 93.5414 16.3594 93.5414 15.7923C93.5414 15.2557 93.1544 14.8688 92.6178 14.8688H82.8297C82.2039 14.8688 81.7867 15.3163 81.7867 15.9119V34.0864C81.7867 34.682 82.2039 35.1295 82.8297 35.1295H92.6178V35.1312ZM78.0636 28.427V25.2086C78.0636 24.6131 77.6464 24.1655 77.0205 24.1655H71.3897C70.853 24.1655 70.4659 24.5525 70.4659 25.0892C70.4659 25.6544 70.853 26.0431 71.3897 26.0431H75.9775V28.427C75.9775 31.2281 73.8325 33.4927 71.2398 33.4927C68.6473 33.4927 66.5326 31.2584 66.5326 28.427V21.5747C66.5326 18.7147 68.5581 16.5091 71.1809 16.5091C73.178 16.5091 74.608 17.4023 75.4711 19.0714C75.71 19.5475 76.2752 19.7561 76.7816 19.5189C77.2578 19.28 77.4378 18.7147 77.1989 18.2369C76.0666 15.8833 73.9519 14.5727 71.1809 14.5727C67.367 14.5727 64.418 17.6111 64.418 21.5747V28.427C64.418 32.3603 67.3973 35.4291 71.2398 35.4291C75.0825 35.4291 78.0619 32.2409 78.0619 28.427H78.0636ZM30.6106 18.4909C30.6106 15.6511 32.532 12.8903 33.5834 13.4152C34.778 14.0141 32.6884 16.6908 30.6106 18.4909ZM17.5202 19.5289C17.5202 17.2442 19.7762 12.8987 21.1558 13.3563C22.7827 13.898 19.8066 18.2806 17.5202 19.5289ZM15.2355 35.8731C14.1975 35.9203 13.5061 35.2558 13.5061 34.1488C13.5061 31.1709 17.633 28.3294 20.7503 26.8034C20.1969 30.9589 18.7937 35.71 15.2355 35.8731ZM34.28 26.1777C31.928 26.1777 30.1245 27.9105 30.1245 29.9866C30.1245 31.7194 31.1625 33.1023 32.5487 33.1023C33.035 33.1023 33.5161 32.8264 33.5161 32.2022C33.5161 31.3022 32.3233 31.0834 32.4159 29.7359C32.4747 28.8477 33.3109 28.2537 34.1403 28.2537C35.8025 28.2537 36.5797 29.8637 36.5797 31.5259C36.5091 34.0881 34.6248 35.8714 32.4092 35.8714C29.5003 35.8714 27.633 33.1006 27.633 30.1211C27.633 25.6898 30.54 23.9586 32.0627 23.5431C32.0777 23.5431 36.0464 24.2514 35.9219 22.5017C35.8681 21.7345 34.7241 21.4402 33.8947 21.4048C32.9744 21.3678 32.0508 21.6992 32.0508 21.6992C31.5662 21.4553 31.2316 20.9791 31.0262 20.4273C33.8644 18.2789 35.8731 16.203 35.8731 13.8476C35.8731 12.6009 35.042 11.4923 33.4489 11.4923C30.6106 11.4923 28.4623 15.0925 28.4623 18.348C28.4623 18.9014 28.4623 19.4566 28.6019 19.9411C26.8019 21.2567 25.4627 22.0727 23.0383 23.528C23.0383 23.2234 23.1023 22.4445 23.3058 21.4283C24.1369 20.5283 25.2777 19.1806 25.2777 18.1409C25.2777 17.6564 25.0017 17.2409 24.4466 17.2409C23.0619 17.2409 22.0239 19.317 21.7462 20.7722C21.1222 21.5344 19.8772 22.505 18.8375 22.505C18.0064 22.505 17.7305 21.7412 17.6598 21.4653C20.2927 20.5636 23.5464 16.9633 23.5464 13.7079C23.5464 13.0148 23.2689 11.4906 21.1928 11.4906C18.0753 11.4906 15.4441 16.1306 15.4441 19.7325C14.3355 19.7325 13.9216 18.5548 13.9216 17.6548C13.9216 16.7547 14.2682 15.853 14.2682 15.577C14.2682 15.3011 14.1285 14.9529 13.713 14.9529C12.6733 14.9529 12.0508 16.3375 12.0508 17.9306C12.1215 20.1464 13.575 21.5327 15.5148 21.6706C15.7923 22.9862 16.97 24.2328 18.4236 24.2328C19.3253 24.2328 20.4323 23.9569 21.1945 23.2638C21.1237 23.75 21.0566 24.1639 20.9859 24.5794C17.9391 26.1727 15.7234 27.2812 13.7147 29.0797C12.1232 30.535 11.2214 32.4731 11.2214 33.9991C11.2214 36.0767 12.537 38.0131 15.2372 38.0131C18.4236 38.0131 20.8462 35.4525 22.0239 31.9195C22.5791 30.2573 22.8011 27.8398 22.9391 25.6225C26.1255 23.8223 27.6362 22.7792 29.2952 21.6016C29.5037 21.9481 29.7141 22.2258 29.9883 22.4327C28.5347 23.1948 25.0723 25.3416 25.0723 30.3953C25.0723 33.9973 27.4966 38.0131 32.2745 38.0131C36.2214 38.0131 38.9233 34.7611 38.9233 31.6438C38.9233 28.8039 37.33 26.1727 34.2816 26.1727L34.28 26.1777ZM46.1861 32.1248C46.1742 32.1467 46.1339 32.1786 46.0581 32.1517C45.9994 32.1298 45.9808 32.0995 45.9825 32.0627C45.9859 32.0222 46.8203 29.5592 46.8153 26.7311C46.8052 23.6827 45.5669 21.8136 43.9772 21.8136C43.0064 21.8136 42.315 22.5067 42.315 23.5447C42.315 25.4155 44.5995 25.5534 44.5995 29.64C44.5995 31.3022 44.253 32.892 43.6995 34.6266C41.1373 43.2823 32.9644 47.2981 25.0017 47.2981C21.3308 47.2981 18.7214 46.5444 17.9442 46.1961C17.9122 46.1811 17.8869 46.1188 17.9105 46.0583C17.9291 46.0094 17.9828 45.9741 18.0114 45.9875C18.3277 46.112 20.567 46.8153 23.3361 46.8153C26.383 46.8153 28.1847 45.5703 28.1847 44.0427C28.1847 43.0753 27.4227 42.3133 26.4519 42.3133C24.5828 42.3133 24.4431 44.6669 20.4273 44.6669C18.6961 44.6669 17.1736 44.322 15.3718 43.7669C6.78498 41.1356 2.69178 33.0316 2.69852 24.9983C2.70189 21.0869 3.79711 17.9711 3.81561 17.9408C3.82906 17.9206 3.87786 17.8988 3.93842 17.9206C4.00067 17.9408 4.0175 17.9947 4.01077 18.0097C3.90983 18.3345 3.18305 20.567 3.18305 23.3361C3.18305 26.3845 4.42967 28.1847 6.0212 28.1847C6.92127 28.1847 7.68337 27.4916 7.68337 26.5242C7.68337 24.6534 5.39872 24.4466 5.39872 20.4291C5.39872 18.6961 5.7453 17.1736 6.29878 15.3735C8.93001 6.78667 17.0323 2.76077 24.9983 2.7002C28.6995 2.67161 31.9398 3.77859 32.0609 3.87617C32.0828 3.89469 32.1063 3.94347 32.0828 4.00067C32.0575 4.06461 32.0137 4.07302 31.9919 4.06966C31.9533 4.06461 29.8469 3.18472 26.6587 3.18472C23.6827 3.18472 21.8136 4.42967 21.8136 6.02456C21.8136 6.92462 22.505 7.68506 23.5431 7.68506C25.4139 7.68506 25.5534 5.40041 29.5677 5.40041C31.3005 5.40041 32.8212 5.74697 34.6231 6.30047C43.2823 8.93169 47.2223 17.1047 47.2964 24.9983C47.3352 29.0427 46.1945 32.1047 46.1844 32.1248H46.1861ZM25.0017 1.17429C11.8439 1.17429 1.17597 11.8405 1.17597 24.9966C1.17597 38.1528 11.8422 48.8189 25.0017 48.8189C38.1611 48.8189 48.8223 38.1561 48.8223 24.9966C48.8223 11.8371 38.1595 1.17429 25.0017 1.17429ZM25.0017 49.9983C11.2197 49.9983 0 38.8492 0 24.9983C0 11.1474 11.2163 0 24.9983 0C38.7803 0 49.9983 11.218 49.9983 25C49.9983 38.782 38.7769 50 24.9983 50L25.0017 49.9983Z" fill="#640ACD"/>
</g>
<defs>
<clipPath id="clip0_1_3">
<rect width="225" height="50" fill="white"/>
</clipPath>
</defs>
</svg>
