<svg width="38" height="36" viewBox="0 0 38 36" fill="none" xmlns="http://www.w3.org/2000/svg">
<path d="M36.8607 13.0053L24.6329 11.8712L19.7756 0.592317C19.4356 -0.197439 18.3158 -0.197439 17.9757 0.592317L13.1186 11.8713L0.890718 13.0053C0.0345279 13.0847 -0.311502 14.1496 0.334475 14.7171L9.56042 22.822L6.86045 34.8019C6.6714 35.6407 7.57729 36.2988 8.31661 35.8598L18.8757 29.59L29.4348 35.8598C30.1742 36.2988 31.0801 35.6407 30.8911 34.8019L28.191 22.822L37.417 14.7171C38.0629 14.1496 37.7169 13.0847 36.8607 13.0053Z" fill="#FFDC64"/>
<path d="M19.7756 0.592317C19.4356 -0.197439 18.3158 -0.197439 17.9757 0.592317L13.1186 11.8713L0.890718 13.0053C0.0345279 13.0847 -0.311502 14.1496 0.334475 14.7171L9.56042 22.822L6.86045 34.8019C6.6714 35.6407 7.57729 36.2988 8.31661 35.8598L10.6733 34.4604C10.9995 21.0335 17.2381 11.5782 22.1774 6.1692L19.7756 0.592317Z" fill="#FFC850"/>
</svg>
