<svg width="98" height="24" viewBox="0 0 98 24" fill="none" xmlns="http://www.w3.org/2000/svg">
<path d="M2.81792 11.9504H0L7.15595 0H9.93678L17.2225 11.9504H14.0153L12.4952 9.41978H4.28248L2.81792 11.9504ZM5.52461 7.2406H11.2717L8.39807 2.46036L5.52461 7.2406Z" fill="white"/>
<path d="M20.9811 6.90664C19.362 6.90664 18.5526 6.12747 18.5526 4.56924V2.26699C18.5526 1.79835 18.6329 1.41764 18.7936 1.12474C18.9542 0.831836 19.1706 0.603316 19.4424 0.439292C19.7267 0.263552 20.0604 0.146392 20.4435 0.0878118C20.839 0.0292318 21.2592 0 21.7041 0H29.1011C29.5707 0 29.9971 0.0351485 30.3803 0.105444C30.7634 0.164024 31.0847 0.281184 31.3443 0.456924C31.6162 0.632664 31.8263 0.884501 31.9746 1.21255C32.1229 1.52888 32.1971 1.94486 32.1971 2.46036C32.1971 2.51894 32.1909 2.57752 32.1785 2.6361C32.1785 2.69468 32.1785 2.74154 32.1785 2.77669V2.89977L29.7499 3.32154V2.03858H21.1851V4.76261H25.4582H29.7315C30.5841 4.76261 31.2269 4.92664 31.6595 5.25468C32.1044 5.58273 32.3268 6.17433 32.3268 7.0296V9.63067C32.3268 10.1345 32.2403 10.5386 32.0673 10.8432C31.9067 11.1478 31.6719 11.3823 31.3628 11.5463C31.0662 11.7103 30.7016 11.8216 30.2691 11.8801C29.8488 11.927 29.3792 11.9504 28.8601 11.9504H20.5177C19.6525 11.9504 19.0223 11.7337 18.6267 11.3001C18.2436 10.8666 18.052 10.234 18.052 9.40215C18.052 9.34357 18.052 9.27327 18.052 9.19126C18.0644 9.10925 18.0767 9.03315 18.0891 8.96286C18.1014 8.88084 18.1138 8.79883 18.1261 8.71682L20.462 8.34771V9.84156H29.6944V6.90664H20.9811Z" fill="white"/>
<path d="M42.2244 11.9504H39.3139V2.03858H33.437V0H47.9899V2.03858H42.2244V11.9504Z" fill="white"/>
<path d="M48.957 11.9504H46.1392L53.2951 0H56.0762L63.3615 11.9504H60.1542L58.6343 9.41978H50.4216L48.957 11.9504ZM51.6632 7.2406H57.4101L54.5367 2.46036L51.6632 7.2406Z" fill="white"/>
<path d="M64.469 0H66.4532L76.7979 8.17197V0H79.393V11.9504H77.4088L67.0641 3.74332V11.9504H64.469V0Z" fill="white"/>
<path d="M83.3312 11.9504H80.5132L87.6691 0H90.4502L97.7355 11.9504H94.5283L93.0084 9.41978H84.7957L83.3312 11.9504ZM86.0372 7.2406H91.7841L88.9107 2.46036L86.0372 7.2406Z" fill="white"/>
<path d="M5.86739 23.4864C5.18725 23.7627 4.47478 23.9008 3.72962 23.9008C2.52976 23.9008 1.60709 23.5502 0.961713 22.8489C0.320611 22.1435 0 21.1021 0 19.7252C0 19.058 0.0888158 18.4544 0.266444 17.9147C0.444072 17.3749 0.697463 16.9181 1.02662 16.544C1.35589 16.1659 1.75446 15.8747 2.2222 15.6707C2.69007 15.4667 3.21417 15.3648 3.79464 15.3648C4.18882 15.3648 4.55481 15.3988 4.89274 15.4667C5.23056 15.5304 5.55545 15.6303 5.86739 15.7664V16.8819C5.55983 16.7162 5.24142 16.5908 4.91227 16.5059C4.583 16.4165 4.22346 16.372 3.83367 16.372C3.43511 16.372 3.07339 16.4464 2.7485 16.5951C2.42801 16.7396 2.1551 16.9521 1.92989 17.2326C1.70456 17.5088 1.53132 17.8488 1.41006 18.2526C1.28879 18.6521 1.22804 19.1089 1.22804 19.6231C1.22804 20.7026 1.45117 21.5166 1.89732 22.0648C2.34347 22.613 2.99762 22.8871 3.85966 22.8871C4.22346 22.8871 4.57214 22.8468 4.90568 22.766C5.23922 22.681 5.55983 22.5642 5.86739 22.4154V23.4864Z" fill="white"/>
<path d="M19.4023 23.7988H18.0963L16.8292 21.134C16.7339 20.9301 16.6364 20.7621 16.5369 20.6305C16.4372 20.4944 16.3289 20.3882 16.212 20.3117C16.0994 20.231 15.9738 20.1736 15.8352 20.1396C15.7008 20.1056 15.5492 20.0885 15.3803 20.0885H14.8345V23.7988H13.678V15.4667H15.952C16.4459 15.4667 16.8704 15.5199 17.2256 15.6261C17.5808 15.7324 17.8711 15.8811 18.0963 16.0724C18.3259 16.2635 18.4927 16.4952 18.5966 16.7672C18.7049 17.0349 18.7591 17.3325 18.7591 17.6597C18.7591 17.919 18.7201 18.1655 18.6421 18.3992C18.5641 18.6287 18.4471 18.8391 18.2912 19.0303C18.1396 19.2174 17.949 19.3809 17.7194 19.5212C17.4942 19.6572 17.2342 19.7592 16.9397 19.8272C17.178 19.9079 17.3794 20.0504 17.544 20.2543C17.713 20.454 17.884 20.7218 18.0574 21.0576L19.4023 23.7988ZM17.5505 17.7553C17.5505 17.309 17.4076 16.9754 17.1216 16.7545C16.8401 16.5335 16.4416 16.4229 15.9261 16.4229H14.8345V19.1769H15.7701C16.043 19.1769 16.2878 19.1472 16.5043 19.0877C16.7253 19.024 16.9115 18.9326 17.0632 18.8136C17.2191 18.6903 17.3382 18.5415 17.4205 18.3673C17.5071 18.1888 17.5505 17.9849 17.5505 17.7553Z" fill="white"/>
<path d="M31.8787 23.7988H27.051V15.4667H31.8787V16.4229H28.2077V19.0049H31.7359V19.961H28.2077V22.8298H31.8787V23.7988Z" fill="white"/>
<path d="M46.1678 23.7988H44.9073L44.3159 21.9819H40.7813L40.1835 23.7988H38.9814L41.8013 15.4667H43.3868L46.1678 23.7988ZM43.9846 20.9683L42.5486 16.5122L41.1126 20.9683H43.9846Z" fill="white"/>
<path d="M58.8457 16.4357H56.3302V23.7988H55.1614V16.4357H52.646V15.4667H58.8457V16.4357Z" fill="white"/>
<path d="M68.3322 16.4229H66.377V15.4667H71.4575V16.4229H69.5022V22.8298H71.4575V23.7988H66.377V22.8298H68.3322V16.4229Z" fill="white"/>
<path d="M85.7208 15.4667L82.8358 23.7988H81.2766L78.4563 15.4667H79.7625L81.5942 21.083L82.1151 22.7278L82.6475 21.083L84.4862 15.4667H85.7208Z" fill="white"/>
<path d="M97.7356 23.7988H92.908V15.4667H97.7356V16.4229H94.064V19.0049H97.5924V19.961H94.064V22.8298H97.7356V23.7988Z" fill="white"/>
</svg>
