<svg width="207" height="73" viewBox="0 0 207 73" fill="none" xmlns="http://www.w3.org/2000/svg">
<g clip-path="url(#clip0_50_1077)">
<g opacity="0.95">
<path opacity="0.95" d="M25.2167 1.60925L37.3075 34.4611L8.17206 41.7046L22.3608 2.62518C23.2907 2.24933 24.243 1.90998 25.2167 1.60925Z" fill="#056A74"/>
<path opacity="0.95" d="M26.3427 1.28143L38.4497 34.1773L70.2825 26.2634C65.1493 7.70375 46.1923 -3.55291 27.3672 1.01691C27.0233 1.10039 26.6817 1.1886 26.3427 1.28143Z" fill="#056A74"/>
<path opacity="0.95" d="M70.5764 27.3972L68.365 27.9469L70.5794 27.4093C70.5784 27.4052 70.5774 27.4011 70.5764 27.3972Z" fill="#5E7478"/>
<path opacity="0.95" d="M0.838162 43.5279C-2.82688 26.8161 5.83077 10.1497 20.8857 3.2605L6.80407 42.0446L0.838162 43.5279Z" fill="#056A74"/>
<path opacity="0.95" d="M1.10898 44.6681C1.69219 46.9724 2.48687 49.1683 3.46716 51.2399L6.32393 43.3716L1.10898 44.6681Z" fill="#FF8A00"/>
<path opacity="0.95" d="M4.1889 52.6799C11.6719 66.8049 27.9997 74.6285 44.2294 70.6887C46.2163 70.2064 48.1239 69.5667 49.9421 68.786L37.7163 35.5672L7.69199 43.0316L4.1889 52.6799Z" fill="#FF8A00"/>
<path opacity="0.95" d="M51.0116 68.3057C66.11 61.2255 74.6599 44.2647 70.581 27.4096L68.3759 27.9448L38.858 35.2832L51.0116 68.3057Z" fill="#FF8A00"/>
</g>
<path d="M87.1952 35.4542H83.6385L92.6707 20.4131H96.1806L105.377 35.4542H101.329L99.4098 32.2691H89.0438L87.1952 35.4542ZM90.6116 29.5263H97.8655L94.2385 23.5098L90.6116 29.5263Z" fill="white"/>
<path d="M110.121 29.106C108.077 29.106 107.055 28.1253 107.055 26.1641V23.2664C107.055 22.6766 107.157 22.1974 107.36 21.8288C107.562 21.4601 107.835 21.1725 108.179 20.966C108.537 20.7449 108.959 20.5974 109.442 20.5237C109.941 20.4499 110.472 20.4131 111.033 20.4131H120.37C120.962 20.4131 121.501 20.4574 121.984 20.5459C122.468 20.6196 122.873 20.7671 123.201 20.9882C123.544 21.2094 123.809 21.5264 123.997 21.9393C124.184 22.3374 124.278 22.861 124.278 23.5098C124.278 23.5835 124.27 23.6573 124.254 23.731C124.254 23.8047 124.254 23.8637 124.254 23.9079V24.0629L121.189 24.5937V22.979H110.378V26.4075H115.772H121.165C122.242 26.4075 123.053 26.6139 123.599 27.0268C124.16 27.4397 124.441 28.1843 124.441 29.2607V32.5345C124.441 33.1686 124.332 33.6772 124.114 34.0606C123.911 34.444 123.615 34.7391 123.224 34.9456C122.85 35.152 122.39 35.292 121.844 35.3657C121.314 35.4247 120.721 35.4542 120.066 35.4542H109.536C108.444 35.4542 107.648 35.1815 107.149 34.6357C106.665 34.0901 106.424 33.2939 106.424 32.2469C106.424 32.1732 106.424 32.0847 106.424 31.9815C106.439 31.8782 106.455 31.7825 106.47 31.694C106.486 31.5908 106.502 31.4875 106.517 31.3843L109.466 30.9197V32.7999H121.119V29.106H110.121Z" fill="white"/>
<path d="M136.934 35.4542H133.26V22.979H125.843V20.4131H144.211V22.979H136.934V35.4542Z" fill="white"/>
<path d="M145.432 35.4542H141.875L150.907 20.4131H154.418L163.613 35.4542H159.565L157.647 32.2691H147.28L145.432 35.4542ZM148.848 29.5263H156.101L152.474 23.5098L148.848 29.5263Z" fill="white"/>
<path d="M165.011 20.4131H167.515L180.573 30.6986V20.4131H183.848V35.4542H181.344L168.287 25.1246V35.4542H165.011V20.4131Z" fill="white"/>
<path d="M188.819 35.4542H185.262L194.294 20.4131H197.805L207 35.4542H202.952L201.033 32.2691H190.667L188.819 35.4542ZM192.234 29.5263H199.488L195.861 23.5098L192.234 29.5263Z" fill="white"/>
<path d="M91.0443 49.9736C90.1858 50.3214 89.2865 50.4951 88.346 50.4951C86.8315 50.4951 85.6669 50.0539 84.8524 49.1712C84.0432 48.2834 83.6385 46.9727 83.6385 45.2397C83.6385 44.3999 83.7506 43.6403 83.9748 42.9609C84.199 42.2816 84.5188 41.7067 84.9343 41.2358C85.3499 40.7598 85.853 40.3934 86.4433 40.1366C87.0339 39.8799 87.6954 39.7516 88.4281 39.7516C88.9256 39.7516 89.3876 39.7943 89.8141 39.8799C90.2405 39.9601 90.6505 40.0858 91.0443 40.257V41.6611C90.6561 41.4525 90.2542 41.2946 89.8387 41.1878C89.4231 41.0754 88.9693 41.0193 88.4773 41.0193C87.9743 41.0193 87.5177 41.1129 87.1076 41.3C86.7031 41.482 86.3586 41.7494 86.0744 42.1025C85.79 42.4501 85.5713 42.878 85.4183 43.3862C85.2652 43.8891 85.1885 44.464 85.1885 45.1112C85.1885 46.4699 85.4702 47.4944 86.0333 48.1844C86.5964 48.8744 87.4221 49.2194 88.5101 49.2194C88.9693 49.2194 89.4094 49.1686 89.8304 49.067C90.2514 48.9599 90.6561 48.8129 91.0443 48.6256V49.9736Z" fill="white"/>
<path d="M108.128 50.3668H106.48L104.88 47.0129C104.76 46.7562 104.637 46.5448 104.512 46.3791C104.386 46.2078 104.249 46.0741 104.101 45.9779C103.959 45.8763 103.801 45.804 103.626 45.7612C103.456 45.7184 103.265 45.697 103.052 45.697H102.363V50.3668H100.903V39.8799H103.773C104.397 39.8799 104.933 39.9468 105.381 40.0805C105.829 40.2142 106.196 40.4014 106.48 40.6422C106.77 40.8828 106.98 41.1743 107.111 41.5167C107.248 41.8537 107.316 42.2282 107.316 42.64C107.316 42.9663 107.267 43.2766 107.169 43.5708C107.07 43.8596 106.923 44.1244 106.726 44.365C106.534 44.6005 106.294 44.8064 106.004 44.9829C105.72 45.1541 105.392 45.2825 105.02 45.368C105.321 45.4697 105.575 45.6489 105.783 45.9056C105.996 46.157 106.212 46.494 106.431 46.9167L108.128 50.3668ZM105.791 42.7603C105.791 42.1987 105.611 41.7788 105.25 41.5006C104.894 41.2225 104.391 41.0834 103.741 41.0834H102.363V44.5496H103.544C103.888 44.5496 104.197 44.5122 104.47 44.4373C104.749 44.3571 104.984 44.2421 105.176 44.0923C105.373 43.9371 105.523 43.7499 105.627 43.5306C105.736 43.3059 105.791 43.0493 105.791 42.7603Z" fill="white"/>
<path d="M123.876 50.3668H117.782V39.8799H123.876V41.0834H119.242V44.333H123.695V45.5365H119.242V49.1472H123.876V50.3668Z" fill="white"/>
<path d="M141.911 50.3668H140.32L139.574 48.08H135.112L134.358 50.3668H132.841L136.4 39.8799H138.401L141.911 50.3668ZM139.156 46.8042L137.343 41.1958L135.531 46.8042H139.156Z" fill="white"/>
<path d="M157.913 41.0994H154.738V50.3668H153.263V41.0994H150.088V39.8799H157.913V41.0994Z" fill="white"/>
<path d="M169.887 41.0834H167.419V39.8799H173.832V41.0834H171.364V49.1472H173.832V50.3668H167.419V49.1472H169.887V41.0834Z" fill="white"/>
<path d="M191.835 39.8799L188.194 50.3668H186.226L182.666 39.8799H184.315L186.627 46.9486L187.284 49.0188L187.956 46.9486L190.277 39.8799H191.835Z" fill="white"/>
<path d="M207 50.3668H200.907V39.8799H207V41.0834H202.366V44.333H206.819V45.5365H202.366V49.1472H207V50.3668Z" fill="white"/>
</g>
<defs>
<clipPath id="clip0_50_1077">
<rect width="207" height="73" fill="white"/>
</clipPath>
</defs>
</svg>
