<svg width="120" height="120" viewBox="0 0 120 120" fill="none" xmlns="http://www.w3.org/2000/svg">
<path d="M107.733 24.8352C107.279 24.7883 106.821 24.7883 106.367 24.8352H13.0333C12.4351 24.8444 11.8409 24.9341 11.2666 25.1018L59.4333 73.0685L107.733 24.8352Z" fill="url(#paint0_linear_12_127)" fill-opacity="0.5"/>
<path d="M112.667 29.4685L64.1332 77.8018C62.8842 79.0435 61.1945 79.7405 59.4332 79.7405C57.672 79.7405 55.9823 79.0435 54.7332 77.8018L6.63324 29.8352C6.48537 30.3786 6.40696 30.9387 6.3999 31.5018V98.1685C6.3999 99.9366 7.10228 101.632 8.35252 102.883C9.60277 104.133 11.2985 104.835 13.0666 104.835H106.4C108.168 104.835 109.864 104.133 111.114 102.883C112.364 101.632 113.067 99.9366 113.067 98.1685V31.5018C113.04 30.8074 112.905 30.1213 112.667 29.4685ZM17.6332 98.1685H12.9999V93.4018L37.2332 69.3685L41.9332 74.0685L17.6332 98.1685ZM106.333 98.1685H101.667L77.3666 74.0685L82.0666 69.3685L106.3 93.4018L106.333 98.1685Z" fill="url(#paint1_linear_12_127)" fill-opacity="0.5"/>
<defs>
<linearGradient id="paint0_linear_12_127" x1="59.4999" y1="24.8" x2="59.4999" y2="73.0685" gradientUnits="userSpaceOnUse">
<stop stop-color="white"/>
<stop offset="1" stop-color="white" stop-opacity="0"/>
</linearGradient>
<linearGradient id="paint1_linear_12_127" x1="59.7332" y1="29.4685" x2="59.7332" y2="104.835" gradientUnits="userSpaceOnUse">
<stop stop-color="white"/>
<stop offset="1" stop-color="white" stop-opacity="0"/>
</linearGradient>
</defs>
</svg>
