<svg width="50" height="50" viewBox="0 0 50 50" fill="none" xmlns="http://www.w3.org/2000/svg">
<g clip-path="url(#clip0_35_86)">
<path d="M36.2933 0H13.7067C6.14883 0 0 6.14883 0 13.7068V36.2933C0 43.8513 6.14883 50 13.7067 50H36.2933C43.8513 50 50 43.8513 50 36.2933V13.7068C50 6.14883 43.8513 0 36.2933 0ZM47.0473 36.2933C47.0473 42.223 42.2231 47.0473 36.2933 47.0473H13.7067C7.77695 47.0473 2.95273 42.2231 2.95273 36.2933V13.7068C2.95273 7.77695 7.77695 2.95273 13.7067 2.95273H36.2933C42.2231 2.95273 47.0473 7.77695 47.0473 13.7068V36.2933Z" fill="#010101"/>
<path d="M25 11.2861C17.4381 11.2861 11.286 17.4382 11.286 25.0001C11.286 32.562 17.438 38.7141 25 38.7141C32.5619 38.7141 38.714 32.5619 38.714 25C38.714 17.4381 32.5619 11.2861 25 11.2861ZM25 35.7614C19.0662 35.7614 14.2386 30.9338 14.2386 25C14.2386 19.0662 19.0662 14.2387 25 14.2387C30.9339 14.2387 35.7614 19.0663 35.7614 25.0001C35.7614 30.9339 30.9339 35.7614 25 35.7614Z" fill="#010101"/>
<path d="M39.5343 6.29932C37.2368 6.29932 35.3677 8.16855 35.3677 10.466C35.3677 12.7635 37.2368 14.6326 39.5343 14.6326C41.8317 14.6326 43.7009 12.7634 43.7009 10.4659C43.7009 8.16846 41.8317 6.29932 39.5343 6.29932ZM39.5343 11.6798C38.865 11.6798 38.3204 11.1353 38.3204 10.4659C38.3204 9.79658 38.865 9.25205 39.5343 9.25205C40.2036 9.25205 40.7481 9.79668 40.7481 10.4659C40.7481 11.1352 40.2036 11.6798 39.5343 11.6798Z" fill="#010101"/>
</g>
<defs>
<clipPath id="clip0_35_86">
<rect width="50" height="50" fill="white"/>
</clipPath>
</defs>
</svg>
