<svg width="164" height="90" viewBox="0 0 164 90" fill="none" xmlns="http://www.w3.org/2000/svg">
<path d="M29.6138 61.6835C29.6138 63.479 29.0991 64.7984 28.0755 65.6415C27.049 66.4846 25.5163 66.9076 23.4801 66.9076H23.1584L27.8237 71.9945H26.8812L21.5949 66.2634C23.6647 66.2634 25.1694 66.1289 26.112 65.86C27.0546 65.5911 27.7594 65.1205 28.2265 64.4454C28.6936 63.7704 28.9285 62.8488 28.9285 61.6835C28.9285 60.0729 28.481 58.8096 27.5832 57.8964C26.6882 56.9832 25.3428 56.5267 23.55 56.5267H19.1364V71.9945H18.4232V55.86H23.5472C27.5916 55.86 29.6138 57.8012 29.6138 61.6835Z" fill="white" stroke="white" stroke-miterlimit="10"/>
<path d="M41.2658 55.8823V56.619H31.4989V66.2409H39.6128V66.9551H31.4989V71.2829H41.2658V71.9972H30.7633V55.8851H41.2658V55.8823Z" fill="white" stroke="white" stroke-miterlimit="10"/>
<path d="M56.593 71.9944H55.7427L48.9405 57.8627L43.2879 71.9944H42.4153L48.9433 55.8823L56.593 71.9944Z" fill="white" stroke="white" stroke-miterlimit="10"/>
<path d="M67.873 58.3361L69.4169 55.6666L78.2888 72.1736H77.3043L69.4197 57.5574L68.4352 59.2829L75.201 72.1764H74.1885L67.8758 60.2269L62.6287 72.1764H61.6442L67.3192 59.2829L66.3347 57.5574L59.5157 72.1736H58.5564L66.3347 55.6666L67.873 58.3361Z" fill="white" stroke="white" stroke-miterlimit="10"/>
<path d="M117.678 55.8823V56.619H107.911V66.2409H116.025V66.9551H107.911V71.2829H117.678V71.9972H107.176V55.8851H117.678V55.8823Z" fill="white" stroke="white" stroke-miterlimit="10"/>
<path d="M132.661 60.0028C132.001 58.9888 131.168 58.1932 130.155 57.6078C129.143 57.0252 128.063 56.7339 126.914 56.7339C125.658 56.7339 124.466 57.0252 123.339 57.6078C122.212 58.1904 121.32 59.07 120.663 60.2437C120.002 61.4173 119.675 62.549 119.675 63.6386C119.675 63.7451 119.675 63.8459 119.675 63.9384C119.751 65.3949 120.1 66.6414 120.721 67.6778C121.342 68.7143 122.198 69.5546 123.294 70.1989C124.391 70.8431 125.566 71.1652 126.821 71.1652C127.94 71.1512 129.028 70.8571 130.085 70.2913C131.143 69.7227 132.001 68.9412 132.659 67.944V69.3025C131.954 70.1456 131.103 70.8095 130.108 71.2941C129.112 71.7787 128.041 72.0196 126.891 72.0196C125.434 72.0196 124.089 71.6582 122.847 70.9384C121.605 70.2185 120.626 69.2353 119.905 67.9916C119.183 66.7479 118.825 65.3977 118.825 63.9412C118.825 62.4846 119.186 61.14 119.905 59.9131C120.623 58.6863 121.597 57.7087 122.825 56.9776C124.05 56.2493 125.389 55.8851 126.847 55.8851C128.027 55.8851 129.115 56.1204 130.111 56.5882C131.106 57.056 131.957 57.7199 132.661 58.5798V60.0028Z" fill="white" stroke="white" stroke-miterlimit="10"/>
<path d="M133.811 63.8907C133.811 62.4341 134.172 61.0896 134.891 59.8627C135.609 58.6358 136.588 57.6638 137.822 56.9524C139.055 56.2381 140.406 55.8823 141.877 55.8823C143.348 55.8823 144.699 56.2381 145.933 56.9524C147.166 57.6666 148.148 58.6358 148.875 59.8627C149.602 61.0896 149.966 62.4341 149.966 63.8907C149.966 65.3473 149.602 66.6974 148.875 67.9411C148.148 69.1848 147.164 70.1708 145.922 70.8991C144.68 71.6274 143.332 71.9916 141.877 71.9916C140.42 71.9916 139.075 71.6274 137.833 70.8991C136.591 70.1708 135.612 69.1848 134.891 67.9411C134.172 66.7002 133.811 65.3501 133.811 63.8907ZM134.616 63.8683C134.616 65.1876 134.946 66.4033 135.604 67.5154C136.261 68.6274 137.148 69.5154 138.258 70.1736C139.368 70.8347 140.582 71.1624 141.9 71.1624C143.203 71.1624 144.409 70.8319 145.519 70.1736C146.629 69.5154 147.513 68.6274 148.173 67.5154C148.83 66.4033 149.161 65.1876 149.161 63.8683C149.161 62.563 148.83 61.3585 148.173 60.2549C147.513 59.1512 146.629 58.2745 145.519 57.6302C144.409 56.986 143.2 56.6638 141.9 56.6638C140.582 56.6638 139.368 56.986 138.258 57.6302C137.148 58.2745 136.264 59.1484 135.604 60.2549C134.946 61.3613 134.616 62.5658 134.616 63.8683Z" fill="white" stroke="white" stroke-miterlimit="10"/>
<path d="M162.309 61.6835C162.309 63.479 161.794 64.7984 160.768 65.6415C159.741 66.4846 158.209 66.9076 156.172 66.9076H155.851L160.516 71.9945H159.573L154.287 66.2634C156.357 66.2634 157.862 66.1289 158.804 65.86C159.747 65.5911 160.452 65.1205 160.919 64.4454C161.386 63.7704 161.621 62.8488 161.621 61.6835C161.621 60.0729 161.173 58.8096 160.275 57.8964C159.378 56.9832 158.035 56.5267 156.242 56.5267H151.829V71.9945H151.115V55.86H156.239C160.287 55.86 162.309 57.8012 162.309 61.6835Z" fill="white" stroke="white" stroke-miterlimit="10"/>
<path d="M90.6989 55.549L90.6681 72.3473C98.7261 72.4257 105.442 73.0112 105.377 63.9299C105.221 55.084 99.4365 55.3501 90.6989 55.549ZM91.3002 71.6862L91.3282 56.3361C99.3134 56.154 104.6 55.9131 104.742 63.9972C104.801 72.2913 98.6617 71.7563 91.3002 71.6862Z" fill="white" stroke="white" stroke-miterlimit="10"/>
<path d="M1.6947 55.2437L1.66394 72.042C9.72192 72.1204 16.4374 72.7059 16.373 63.6246C16.2164 54.7787 10.4323 55.0448 1.6947 55.2437ZM2.29605 71.3781L2.32401 56.028C10.3093 55.8459 15.5955 55.605 15.7381 63.6891C15.7969 71.9832 9.65759 71.451 2.29605 71.3781Z" fill="white" stroke="white" stroke-miterlimit="10"/>
<path d="M58.0642 84.7563V87.6275H61.9184L61.84 87.9804H57.5104V82.3165H61.84L61.9184 82.6583H58.0642V84.4174H60.2738V84.7591H58.0642V84.7563Z" fill="white" stroke="white" stroke-miterlimit="10"/>
<path d="M67.7863 86.5266C67.7947 86.5491 67.7975 86.5715 67.7975 86.5939C67.7975 86.8824 67.6996 87.1513 67.5038 87.4006C67.308 87.6443 67.0339 87.8404 66.6871 87.9916C66.3319 88.1345 65.9347 88.2073 65.4984 88.2073C64.9306 88.2073 64.4859 88.1513 64.1615 88.0421C63.837 87.9328 63.535 87.7844 63.2553 87.5939L63.2329 87.5827V86.8684H63.3811L63.3923 86.8908C63.535 87.0729 63.672 87.2325 63.8007 87.367C63.8902 87.451 64.0188 87.5379 64.1867 87.6275C64.195 87.6359 64.2062 87.6415 64.2202 87.6499C64.4775 87.7703 64.7488 87.8404 65.0369 87.8544C65.2859 87.8768 65.5096 87.8796 65.7054 87.8656H65.7613C65.7753 87.8656 65.7921 87.8656 65.8061 87.8656C65.8201 87.8572 65.8425 87.8544 65.8732 87.8544C65.9403 87.846 66.0019 87.8404 66.055 87.832C66.2284 87.8096 66.3962 87.7563 66.5529 87.6723C66.771 87.5659 66.9444 87.4342 67.0731 87.2746C67.2157 87.0925 67.2885 86.8992 67.2885 86.6947C67.2885 86.6863 67.2857 86.6723 67.2773 86.6499C67.2773 86.6191 67.2773 86.5939 67.2773 86.5715C67.2549 86.4286 67.2046 86.2998 67.129 86.1849C67.0843 86.1177 67.0283 86.0533 66.9584 85.9916C66.7542 85.818 66.5137 85.6807 66.234 85.5827C66.1277 85.5463 65.9124 85.4762 65.5879 85.3782C65.4677 85.3418 65.3614 85.311 65.2719 85.2886C64.8859 85.1681 64.5195 85.0225 64.1727 84.8572C64.1056 84.8208 64.0552 84.79 64.0244 84.7676C63.8734 84.6695 63.7364 84.5519 63.6161 84.4146C63.4511 84.2325 63.3504 84.0169 63.3224 83.7676C63.314 83.7311 63.3112 83.6947 63.3112 83.6667C63.3112 83.6359 63.3112 83.6135 63.3112 83.5995C63.3112 83.3054 63.3979 83.0477 63.5713 82.8292C63.7531 82.6023 63.9993 82.4286 64.3069 82.3082C64.623 82.1877 64.9838 82.1261 65.3838 82.1261C65.6495 82.1261 65.9403 82.1597 66.2564 82.2269C66.399 82.2577 66.5445 82.2914 66.6871 82.3278C66.8521 82.381 67.0032 82.437 67.1402 82.4987L67.1738 82.5099V83.2241H67.0256L67.0144 83.2017C66.8773 83.0056 66.6843 82.832 66.4354 82.6807C66.427 82.6723 66.4158 82.6667 66.4018 82.6583C66.0774 82.521 65.7418 82.4538 65.3921 82.4538C65.2943 82.4538 65.1964 82.4566 65.0985 82.465C64.7433 82.4874 64.4272 82.6135 64.1475 82.8404C64.1251 82.8544 64.1055 82.8712 64.0916 82.8852C64.0692 82.916 64.0412 82.9468 64.0132 82.9748V82.986C63.893 83.1373 63.8315 83.3082 63.8315 83.4959C63.8315 83.5099 63.8315 83.5267 63.8315 83.5407C63.8315 83.5715 63.8342 83.5939 63.8426 83.6079C63.851 83.6751 63.8622 83.7367 63.8762 83.79C63.921 83.9272 64.0049 84.0449 64.1251 84.1429L64.1587 84.1653C64.2118 84.2101 64.265 84.2521 64.3181 84.2914C64.3321 84.2998 64.3545 84.311 64.3852 84.325C64.4915 84.3922 64.6034 84.4538 64.7265 84.5071C64.9307 84.5827 65.2187 84.6807 65.5879 84.8012C65.9515 84.916 66.2592 85.0197 66.5165 85.1177C66.592 85.1541 66.6592 85.1849 66.7207 85.2073C67.0144 85.3446 67.2689 85.5239 67.4787 85.7507C67.6437 85.9328 67.7472 86.1513 67.7835 86.409C67.7863 86.451 67.7863 86.4874 67.7863 86.5266Z" fill="white" stroke="white" stroke-miterlimit="10"/>
<path d="M74.429 82.3165L74.5185 82.6583H71.7188V87.9804H71.1622V82.6583H68.3737L68.4632 82.3165H74.429Z" fill="white" stroke="white" stroke-miterlimit="10"/>
<path d="M80.6159 82.6947C81.0466 82.9496 81.3711 83.2913 81.5892 83.7227C81.8074 84.1541 81.9165 84.6274 81.9165 85.1401C81.9165 85.6527 81.8046 86.126 81.5809 86.5518C81.3571 86.9804 81.0271 87.3221 80.5907 87.5798C80.3782 87.7087 80.146 87.8039 79.8887 87.8683C79.6314 87.9328 79.3573 87.9692 79.0608 87.9748H75.808V82.3109H79.0608C79.6678 82.3165 80.1852 82.4426 80.6159 82.6947ZM81.1026 86.4006C81.276 86.0224 81.3627 85.605 81.3627 85.1456C81.3627 84.6891 81.276 84.2689 81.1026 83.8907C80.9376 83.521 80.683 83.2241 80.3446 83C80.0062 82.7759 79.6006 82.6611 79.1307 82.6527H76.3646V87.6246H79.1196C79.595 87.6246 80.0006 87.5154 80.339 87.2969C80.6747 87.0784 80.9292 86.7787 81.1026 86.4006Z" fill="white" stroke="white" stroke-miterlimit="10"/>
<path d="M88.6598 87.4229H92.0134L91.8987 87.9803H87.7508V87.8207L87.762 87.8095C88.5088 87.0308 89.2136 86.3193 89.8709 85.675L89.9492 85.6078C90.531 85.0336 90.8666 84.6806 90.9589 84.5518C91.1547 84.2857 91.2526 83.9887 91.2526 83.6554C91.2526 83.4817 91.2022 83.3249 91.1044 83.1904C91.0288 83.084 90.931 82.986 90.8107 82.8963C90.7268 82.8431 90.6373 82.7927 90.5394 82.7479C90.38 82.6806 90.2037 82.6358 90.008 82.6106C89.9241 82.5966 89.8457 82.5882 89.7702 82.5882H89.7367H89.7031H89.6695C89.3227 82.5882 89.0206 82.6498 88.7633 82.7703C88.657 82.8095 88.5591 82.8571 88.4696 82.9187C88.4389 82.9411 88.4053 82.9636 88.369 82.986C88.2543 83.0756 88.1648 83.1736 88.0976 83.2801C88.0529 83.3473 88.0193 83.4229 87.9942 83.507L87.983 83.5406H87.7117L87.7229 83.4846C87.7676 83.1512 87.969 82.8683 88.3242 82.633C88.7326 82.3753 89.2332 82.2465 89.8318 82.2465C90.2765 82.2465 90.6708 82.3193 91.0093 82.4622C91.1379 82.5238 91.2582 82.591 91.3729 82.6666C91.5379 82.7871 91.6749 82.9215 91.7812 83.0644C91.9239 83.2689 91.9966 83.4958 91.9966 83.7451C91.9966 83.9495 91.9462 84.1456 91.8484 84.3361C91.7505 84.5322 91.5826 84.7423 91.3505 84.9607L91.2946 85.0168C90.9841 85.3193 90.7016 85.5854 90.4443 85.8123C89.9632 86.2352 89.3703 86.7731 88.6598 87.4229Z" fill="white" stroke="white" stroke-miterlimit="10"/>
<path d="M97.3081 82.7115C97.7248 82.9692 98.052 83.3137 98.2954 83.7451C98.5359 84.1765 98.659 84.6443 98.659 85.1513C98.659 85.6583 98.5387 86.1261 98.2954 86.5575C98.052 86.9888 97.7248 87.3334 97.3081 87.5911C96.8913 87.8488 96.427 87.9776 95.9152 87.9776C95.4033 87.9776 94.9363 87.8488 94.5223 87.5911C94.1056 87.3334 93.7783 86.9888 93.535 86.5575C93.2944 86.1261 93.1714 85.6583 93.1714 85.1513C93.1714 84.6443 93.2917 84.1765 93.535 83.7451C93.7755 83.3137 94.1056 82.9692 94.5223 82.7115C94.9391 82.4538 95.4033 82.325 95.9152 82.325C96.427 82.325 96.8913 82.4566 97.3081 82.7115ZM98.0548 85.1513C98.0548 84.7059 97.9653 84.2885 97.7835 83.902C97.6101 83.5238 97.3584 83.2241 97.0312 83C96.7039 82.7759 96.3291 82.6639 95.9152 82.6639C95.5012 82.6639 95.1264 82.7759 94.7992 83C94.472 83.2241 94.2174 83.5238 94.0412 83.902C93.8622 84.2801 93.7755 84.6975 93.7755 85.1513C93.7755 85.6051 93.865 86.0224 94.0412 86.4006C94.2174 86.7787 94.4692 87.0785 94.7936 87.3025C95.1181 87.5266 95.4928 87.6387 95.9152 87.6387C96.3375 87.6387 96.7123 87.5266 97.0368 87.3025C97.3612 87.0785 97.6101 86.7787 97.7835 86.4006C97.9653 86.0224 98.0548 85.6079 98.0548 85.1513Z" fill="white" stroke="white" stroke-miterlimit="10"/>
<path d="M103.926 82.7115C104.342 82.9692 104.669 83.3137 104.91 83.7451C105.151 84.1765 105.274 84.6443 105.274 85.1513C105.274 85.6583 105.153 86.1261 104.91 86.5575C104.669 86.9888 104.339 87.3334 103.926 87.5911C103.509 87.8488 103.044 87.9776 102.533 87.9776C102.018 87.9776 101.554 87.8488 101.14 87.5911C100.723 87.3334 100.396 86.9888 100.155 86.5575C99.9119 86.1261 99.7916 85.6583 99.7916 85.1513C99.7916 84.6443 99.9119 84.1765 100.155 83.7451C100.396 83.3137 100.726 82.9692 101.14 82.7115C101.556 82.4538 102.021 82.325 102.533 82.325C103.044 82.3278 103.509 82.4566 103.926 82.7115ZM104.672 85.1513C104.672 84.7059 104.583 84.2885 104.401 83.902C104.228 83.5238 103.976 83.2241 103.649 83C103.321 82.7759 102.947 82.6639 102.533 82.6639C102.116 82.6639 101.744 82.7759 101.417 83C101.089 83.2241 100.835 83.5238 100.659 83.902C100.482 84.2801 100.393 84.6975 100.393 85.1513C100.393 85.6051 100.482 86.0224 100.659 86.4006C100.835 86.7787 101.087 87.0785 101.411 87.3025C101.736 87.5266 102.11 87.6387 102.533 87.6387C102.955 87.6387 103.33 87.5266 103.654 87.3025C103.979 87.0785 104.228 86.7787 104.401 86.4006C104.583 86.0224 104.672 85.6079 104.672 85.1513Z" fill="white" stroke="white" stroke-miterlimit="10"/>
<path d="M110.476 85.8459H111.326L111.2 86.4034H110.476V87.9804H109.886V86.4034H106.395V86.2213L106.406 86.1989L110.031 82H110.473V85.8459H110.476ZM109.886 82.6891L107.212 85.8431H109.886V82.6891Z" fill="white" stroke="white" stroke-miterlimit="10"/>
<path d="M105.651 26.3446C91.2023 45.8124 73.5536 30.9552 56.1622 53.6247C58.2739 34.8236 85.3595 32.8432 94.7544 26.5098C95.9375 25.7115 95.9766 23.9748 94.8775 23.0645L80.5459 11.1905L67.9289 22.888L67.8003 33.2605L61.2778 38.7675L61.1492 27.2409L54.6267 27.1121L81.2256 2.6499L105.693 24.8488L105.651 26.3446Z" stroke="white" stroke-width="3" stroke-miterlimit="10"/>
</svg>
