<svg width="75" height="75" viewBox="0 0 75 75" fill="none" xmlns="http://www.w3.org/2000/svg">
<path d="M70.2984 74.9999C30.3094 75.0562 -0.0421435 44.3437 4.39251e-05 4.70156C4.39251e-05 2.10937 2.10004 0 4.68754 0H17.0625C19.3828 0 21.3563 1.70625 21.6985 4.00312C22.5146 9.51118 24.1168 14.8736 26.4563 19.9265L26.9391 20.9672C27.2634 21.6674 27.3332 22.4589 27.1363 23.2051C26.9395 23.9513 26.4885 24.6055 25.861 25.0547C22.0266 27.7922 20.5641 33.3 23.55 37.5937C27.3093 42.9999 32.0013 47.6935 37.4063 51.4546C41.7047 54.4359 47.2125 52.9734 49.9453 49.1437C50.3941 48.5143 51.0487 48.0616 51.796 47.8638C52.5433 47.6661 53.3362 47.7358 54.0375 48.0609L55.0734 48.539C60.1265 50.8828 65.489 52.4859 70.9968 53.3015C73.2937 53.6437 75 55.6171 75 57.9421V70.3124C75 70.9284 74.8786 71.5383 74.6427 72.1073C74.4068 72.6764 74.0611 73.1933 73.6254 73.6286C73.1896 74.064 72.6723 74.4092 72.1031 74.6445C71.5338 74.8798 70.9238 75.0005 70.3078 74.9999H70.2984Z" fill="url(#paint0_linear_14_242)"/>
<defs>
<linearGradient id="paint0_linear_14_242" x1="38" y1="-32.5" x2="38" y2="75" gradientUnits="userSpaceOnUse">
<stop stop-color="white"/>
<stop offset="1" stop-color="white" stop-opacity="0"/>
</linearGradient>
</defs>
</svg>
