<svg width="24" height="25" viewBox="0 0 24 25" fill="none" xmlns="http://www.w3.org/2000/svg">
<path d="M22.4955 24.5C9.699 24.518 -0.0134859 14.69 1.4056e-05 2.0045C1.4056e-05 1.175 0.672013 0.5 1.50001 0.5H5.46001C6.20251 0.5 6.83401 1.046 6.94351 1.781C7.20466 3.54358 7.71739 5.25957 8.46601 6.87649L8.62051 7.20949C8.72429 7.43358 8.74661 7.68686 8.68363 7.92564C8.62065 8.16443 8.47631 8.37374 8.27551 8.51749C7.04851 9.39349 6.58051 11.156 7.53601 12.53C8.73898 14.26 10.2404 15.7619 11.97 16.9655C13.3455 17.9195 15.108 17.4515 15.9825 16.226C16.1261 16.0246 16.3356 15.8797 16.5747 15.8164C16.8138 15.7531 17.0676 15.7755 17.292 15.8795L17.6235 16.0325C19.2405 16.7825 20.9565 17.2955 22.719 17.5565C23.454 17.666 24 18.2975 24 19.0415V23C24 23.1971 23.9611 23.3923 23.8857 23.5744C23.8102 23.7564 23.6996 23.9219 23.5601 24.0612C23.4207 24.2005 23.2551 24.3109 23.073 24.3862C22.8908 24.4615 22.6956 24.5002 22.4985 24.5H22.4955Z" fill="#D9D9D9"/>
</svg>
