<svg width="378" height="52" viewBox="0 0 378 52" fill="none" xmlns="http://www.w3.org/2000/svg">
<path d="M16.2413 25C16.2413 30.4806 18.0461 35.8093 21.3779 40.1662C24.7097 44.5232 29.3839 47.6668 34.6812 49.1134C39.9785 50.56 45.6055 50.2294 50.6961 48.1726C55.7868 46.1157 60.059 42.4465 62.8555 37.7295C65.652 33.0126 66.8177 27.5094 66.1733 22.0666C65.5289 16.6239 63.11 11.5433 59.289 7.60659C55.4679 3.6699 50.4564 1.09528 45.0255 0.27893C39.5947 -0.537425 34.0455 0.449716 29.2318 3.08845L31.2981 6.8419L31.671 8.44374C34.7127 8.44374 40.1768 8.21169 43.747 8.74837C47.3173 9.28504 50.6119 10.9776 53.1238 13.5656C55.6358 16.1535 57.226 19.4935 57.6496 23.0716C58.0733 26.6497 57.3069 30.2675 55.4685 33.3684C53.6301 36.4693 50.8215 38.8815 47.4749 40.2336C44.1283 41.5858 40.4292 41.8032 36.9467 40.8522C33.4642 39.9012 30.3914 37.8345 28.2011 34.9703C26.0108 32.1061 24.8243 28.603 24.8243 25H16.2413Z" fill="white"/>
<path d="M16.2523 17.4392H24.8244V25.0551H16.2523V17.4392Z" fill="#3F42EA"/>
<path d="M10.9324 0H40.9069V8.49889H10.9324V0Z" fill="#3F42EA"/>
<path d="M26.4497 0H34.4915L30.9174 8.49889H23.099L26.4497 0Z" fill="#6466F4"/>
<path d="M18.5968 0H26.6386L23.0645 8.49889H15.2461L18.5968 0Z" fill="#8A8CFA"/>
<path d="M10.8543 0H18.8961L15.3219 8.49889H7.50354L10.8543 0Z" fill="#A1A3FB"/>
<path d="M3.35074 0H11.3925L7.8184 8.49889H0L3.35074 0Z" fill="#CBCCFF"/>
<path d="M34.3029 0H42.3447L38.7706 8.49889H30.9521L34.3029 0Z" fill="#4D50F1"/>
<path d="M97.4699 1.8H94.4099L81.8459 27H87.2819L95.9579 9.72L104.598 27H110.07L97.4699 1.8ZM130.773 1.8V14.4C130.773 18.684 127.317 22.14 123.033 22.14C118.785 22.14 115.329 18.684 115.329 14.4V1.8H110.469V14.4C110.469 21.348 116.121 27 123.033 27C129.981 27 135.633 21.348 135.633 14.4V1.8H130.773ZM138.665 1.8V6.696H148.817V27H153.677V6.696H163.865V1.8H138.665ZM183.176 1.8H175.076C170.36 1.8 166.544 5.652 166.544 10.368V18.468C166.544 23.184 170.36 27 175.076 27H183.176C187.892 27 191.708 23.184 191.708 18.468V10.368C191.708 5.652 187.892 1.8 183.176 1.8ZM186.848 18.468C186.848 20.484 185.192 22.14 183.176 22.14H175.076C173.06 22.14 171.404 20.484 171.404 18.468V10.368C171.404 8.352 173.06 6.696 175.076 6.696H183.176C185.192 6.696 186.848 8.352 186.848 10.368V18.468ZM223.905 10.368C223.905 5.652 220.053 1.8 215.337 1.8H197.769L194.385 6.696H215.337C217.353 6.696 219.009 8.352 219.009 10.368C219.009 12.348 217.353 14.004 215.337 14.004H198.705V27H203.565V18.9H215.337C217.353 18.9 219.009 20.52 219.009 22.536V27.036H223.905V22.536C223.905 20.16 222.897 18 221.313 16.452C222.897 14.904 223.905 12.744 223.905 10.368ZM238.101 16.848H252.609V11.988H233.241V27H255.993V22.14H238.101V16.848ZM229.857 1.8L226.473 6.696H255.993V1.8H229.857ZM279.111 1.8H261.543L258.159 6.696H279.111C281.127 6.696 282.783 8.352 282.783 10.368C282.783 12.348 281.127 14.004 279.111 14.004H262.479V27H267.339V18.9H279.111C283.827 18.9 287.679 15.048 287.679 10.368C287.679 5.652 283.827 1.8 279.111 1.8ZM307.91 1.8H299.81C295.094 1.8 291.278 5.652 291.278 10.368V18.468C291.278 23.184 295.094 27 299.81 27H307.91C312.626 27 316.442 23.184 316.442 18.468V10.368C316.442 5.652 312.626 1.8 307.91 1.8ZM311.582 18.468C311.582 20.484 309.926 22.14 307.91 22.14H299.81C297.794 22.14 296.138 20.484 296.138 18.468V10.368C296.138 8.352 297.794 6.696 299.81 6.696H307.91C309.926 6.696 311.582 8.352 311.582 10.368V18.468ZM348.64 10.368C348.64 5.652 344.788 1.8 340.072 1.8H322.504L319.12 6.696H340.072C342.088 6.696 343.744 8.352 343.744 10.368C343.744 12.348 342.088 14.004 340.072 14.004H323.44V27H328.3V18.9H340.072C342.088 18.9 343.744 20.52 343.744 22.536V27.036H348.64V22.536C348.64 20.16 347.632 18 346.048 16.452C347.632 14.904 348.64 12.744 348.64 10.368ZM351.36 1.8V6.696H361.512V27H366.372V6.696H376.56V1.8H351.36Z" fill="white"/>
<path d="M82.6519 38.718H83.7439V43.814C83.7439 44.0307 83.7396 44.269 83.7309 44.529C83.7309 44.7803 83.7266 45.0317 83.7179 45.283C83.7093 45.5343 83.6963 45.7597 83.6789 45.959C83.6703 46.1497 83.6616 46.297 83.6529 46.401H83.7049L88.8139 38.718H90.1139V48H89.0219V42.956C89.0219 42.722 89.0263 42.4707 89.0349 42.202C89.0436 41.9247 89.0523 41.6603 89.0609 41.409C89.0783 41.149 89.0913 40.9193 89.0999 40.72C89.1086 40.5207 89.1173 40.3733 89.1259 40.278H89.0739L83.9519 48H82.6519V38.718ZM93.6054 41.032V43.931H97.3884V41.032H98.5324V48H97.3884V44.893H93.6054V48H92.4614V41.032H93.6054ZM104.899 40.928C105.592 40.9887 106.194 41.1707 106.706 41.474C107.226 41.7773 107.629 42.1847 107.915 42.696C108.201 43.2073 108.344 43.814 108.344 44.516C108.344 45.218 108.205 45.829 107.928 46.349C107.65 46.8603 107.256 47.2677 106.745 47.571C106.233 47.8657 105.618 48.0433 104.899 48.104V51.12H103.781V48.104C103.096 48.0433 102.494 47.8657 101.974 47.571C101.454 47.2677 101.051 46.8603 100.765 46.349C100.479 45.829 100.336 45.218 100.336 44.516C100.336 43.8053 100.474 43.1943 100.752 42.683C101.029 42.163 101.428 41.7557 101.948 41.461C102.468 41.1577 103.092 40.98 103.82 40.928V38.12H104.899V40.928ZM103.82 41.877C103.291 41.929 102.858 42.0633 102.52 42.28C102.182 42.4967 101.93 42.7913 101.766 43.164C101.61 43.5367 101.532 43.9873 101.532 44.516C101.532 45.036 101.61 45.4867 101.766 45.868C101.93 46.2407 102.182 46.5397 102.52 46.765C102.858 46.9817 103.291 47.116 103.82 47.168V41.877ZM104.899 47.168C105.419 47.1073 105.843 46.9687 106.173 46.752C106.511 46.5353 106.758 46.2407 106.914 45.868C107.078 45.4867 107.161 45.036 107.161 44.516C107.161 43.996 107.078 43.5497 106.914 43.177C106.749 42.8043 106.498 42.5097 106.16 42.293C105.83 42.0763 105.41 41.942 104.899 41.89V47.168ZM116.217 44.503C116.217 45.0837 116.139 45.5993 115.983 46.05C115.835 46.492 115.619 46.869 115.333 47.181C115.055 47.493 114.713 47.7313 114.306 47.896C113.907 48.052 113.461 48.13 112.967 48.13C112.507 48.13 112.083 48.052 111.693 47.896C111.303 47.7313 110.965 47.493 110.679 47.181C110.393 46.869 110.167 46.492 110.003 46.05C109.847 45.5993 109.769 45.0837 109.769 44.503C109.769 43.7317 109.899 43.0817 110.159 42.553C110.419 42.0157 110.791 41.6083 111.277 41.331C111.762 41.045 112.338 40.902 113.006 40.902C113.638 40.902 114.193 41.045 114.67 41.331C115.155 41.6083 115.532 42.0157 115.801 42.553C116.078 43.0817 116.217 43.7317 116.217 44.503ZM110.952 44.503C110.952 45.049 111.021 45.5257 111.16 45.933C111.307 46.3317 111.532 46.6393 111.836 46.856C112.139 47.0727 112.525 47.181 112.993 47.181C113.461 47.181 113.846 47.0727 114.15 46.856C114.453 46.6393 114.674 46.3317 114.813 45.933C114.96 45.5257 115.034 45.049 115.034 44.503C115.034 43.9483 114.96 43.476 114.813 43.086C114.665 42.696 114.44 42.397 114.137 42.189C113.842 41.9723 113.456 41.864 112.98 41.864C112.269 41.864 111.753 42.098 111.433 42.566C111.112 43.034 110.952 43.6797 110.952 44.503ZM121.345 40.902C122.203 40.902 122.892 41.201 123.412 41.799C123.94 42.397 124.205 43.2983 124.205 44.503C124.205 45.2917 124.083 45.959 123.841 46.505C123.607 47.0423 123.273 47.4497 122.84 47.727C122.415 47.9957 121.912 48.13 121.332 48.13C120.976 48.13 120.66 48.0823 120.383 47.987C120.105 47.8917 119.867 47.7703 119.668 47.623C119.477 47.467 119.312 47.298 119.174 47.116H119.096C119.113 47.2633 119.13 47.4497 119.148 47.675C119.165 47.9003 119.174 48.0953 119.174 48.26V51.12H118.03V41.032H118.966L119.122 41.981H119.174C119.312 41.7817 119.477 41.5997 119.668 41.435C119.867 41.2703 120.101 41.1403 120.37 41.045C120.647 40.9497 120.972 40.902 121.345 40.902ZM121.137 41.864C120.669 41.864 120.292 41.955 120.006 42.137C119.72 42.3103 119.512 42.5747 119.382 42.93C119.252 43.2853 119.182 43.736 119.174 44.282V44.503C119.174 45.075 119.234 45.5603 119.356 45.959C119.477 46.3577 119.681 46.661 119.967 46.869C120.261 47.077 120.66 47.181 121.163 47.181C121.587 47.181 121.934 47.064 122.203 46.83C122.48 46.596 122.684 46.2797 122.814 45.881C122.952 45.4737 123.022 45.01 123.022 44.49C123.022 43.6927 122.866 43.0557 122.554 42.579C122.25 42.1023 121.778 41.864 121.137 41.864ZM133.503 41.032V48H132.476V43.554C132.476 43.372 132.48 43.1813 132.489 42.982C132.506 42.7827 132.524 42.5877 132.541 42.397H132.502L130.227 48H129.265L127.055 42.397H127.016C127.033 42.5877 127.042 42.7827 127.042 42.982C127.051 43.1813 127.055 43.385 127.055 43.593V48H126.028V41.032H127.549L129.746 46.635L131.982 41.032H133.503ZM138.366 40.915C139.215 40.915 139.844 41.1013 140.251 41.474C140.658 41.8467 140.862 42.4403 140.862 43.255V48H140.03L139.809 47.012H139.757C139.558 47.2633 139.35 47.4757 139.133 47.649C138.925 47.8137 138.682 47.935 138.405 48.013C138.136 48.091 137.807 48.13 137.417 48.13C137.001 48.13 136.624 48.0563 136.286 47.909C135.957 47.7617 135.697 47.5363 135.506 47.233C135.315 46.921 135.22 46.531 135.22 46.063C135.22 45.3697 135.493 44.8367 136.039 44.464C136.585 44.0827 137.426 43.8747 138.561 43.84L139.744 43.801V43.385C139.744 42.8043 139.618 42.4013 139.367 42.176C139.116 41.9507 138.76 41.838 138.301 41.838C137.937 41.838 137.59 41.8943 137.261 42.007C136.932 42.111 136.624 42.2323 136.338 42.371L135.987 41.513C136.29 41.3483 136.65 41.2097 137.066 41.097C137.482 40.9757 137.915 40.915 138.366 40.915ZM138.704 44.633C137.837 44.6677 137.235 44.8063 136.897 45.049C136.568 45.2917 136.403 45.634 136.403 46.076C136.403 46.466 136.52 46.752 136.754 46.934C136.997 47.116 137.304 47.207 137.677 47.207C138.266 47.207 138.756 47.0467 139.146 46.726C139.536 46.3967 139.731 45.894 139.731 45.218V44.594L138.704 44.633ZM149.891 50.418H148.773V48H143.014V41.032H144.158V47.038H147.759V41.032H148.903V47.051H149.891V50.418ZM152.307 45.283C152.307 45.361 152.303 45.4737 152.294 45.621C152.294 45.7597 152.29 45.9113 152.281 46.076C152.272 46.232 152.264 46.3837 152.255 46.531C152.246 46.6697 152.238 46.7823 152.229 46.869L155.96 41.032H157.364V48H156.298V43.892C156.298 43.7533 156.298 43.5713 156.298 43.346C156.307 43.1207 156.315 42.8997 156.324 42.683C156.333 42.4577 156.341 42.2887 156.35 42.176L152.645 48H151.228V41.032H152.307V45.283ZM165.64 44.503C165.64 45.0837 165.562 45.5993 165.406 46.05C165.258 46.492 165.042 46.869 164.756 47.181C164.478 47.493 164.136 47.7313 163.729 47.896C163.33 48.052 162.884 48.13 162.39 48.13C161.93 48.13 161.506 48.052 161.116 47.896C160.726 47.7313 160.388 47.493 160.102 47.181C159.816 46.869 159.59 46.492 159.426 46.05C159.27 45.5993 159.192 45.0837 159.192 44.503C159.192 43.7317 159.322 43.0817 159.582 42.553C159.842 42.0157 160.214 41.6083 160.7 41.331C161.185 41.045 161.761 40.902 162.429 40.902C163.061 40.902 163.616 41.045 164.093 41.331C164.578 41.6083 164.955 42.0157 165.224 42.553C165.501 43.0817 165.64 43.7317 165.64 44.503ZM160.375 44.503C160.375 45.049 160.444 45.5257 160.583 45.933C160.73 46.3317 160.955 46.6393 161.259 46.856C161.562 47.0727 161.948 47.181 162.416 47.181C162.884 47.181 163.269 47.0727 163.573 46.856C163.876 46.6393 164.097 46.3317 164.236 45.933C164.383 45.5257 164.457 45.049 164.457 44.503C164.457 43.9483 164.383 43.476 164.236 43.086C164.088 42.696 163.863 42.397 163.56 42.189C163.265 41.9723 162.879 41.864 162.403 41.864C161.692 41.864 161.176 42.098 160.856 42.566C160.535 43.034 160.375 43.6797 160.375 44.503ZM168.597 41.032V43.931H172.38V41.032H173.524V48H172.38V44.893H168.597V48H167.453V41.032H168.597ZM176.874 41.032V43.931H180.657V41.032H181.801V48H180.657V44.893H176.874V48H175.73V41.032H176.874ZM190.065 44.503C190.065 45.0837 189.987 45.5993 189.831 46.05C189.684 46.492 189.467 46.869 189.181 47.181C188.904 47.493 188.562 47.7313 188.154 47.896C187.756 48.052 187.309 48.13 186.815 48.13C186.356 48.13 185.931 48.052 185.541 47.896C185.151 47.7313 184.813 47.493 184.527 47.181C184.241 46.869 184.016 46.492 183.851 46.05C183.695 45.5993 183.617 45.0837 183.617 44.503C183.617 43.7317 183.747 43.0817 184.007 42.553C184.267 42.0157 184.64 41.6083 185.125 41.331C185.611 41.045 186.187 40.902 186.854 40.902C187.487 40.902 188.042 41.045 188.518 41.331C189.004 41.6083 189.381 42.0157 189.649 42.553C189.927 43.0817 190.065 43.7317 190.065 44.503ZM184.8 44.503C184.8 45.049 184.87 45.5257 185.008 45.933C185.156 46.3317 185.381 46.6393 185.684 46.856C185.988 47.0727 186.373 47.181 186.841 47.181C187.309 47.181 187.695 47.0727 187.998 46.856C188.302 46.6393 188.523 46.3317 188.661 45.933C188.809 45.5257 188.882 45.049 188.882 44.503C188.882 43.9483 188.809 43.476 188.661 43.086C188.514 42.696 188.289 42.397 187.985 42.189C187.691 41.9723 187.305 41.864 186.828 41.864C186.118 41.864 185.602 42.098 185.281 42.566C184.961 43.034 184.8 43.6797 184.8 44.503ZM196.35 44.334V42.579H191.462V44.334H196.35ZM200.802 40.915C201.651 40.915 202.279 41.1013 202.687 41.474C203.094 41.8467 203.298 42.4403 203.298 43.255V48H202.466L202.245 47.012H202.193C201.993 47.2633 201.785 47.4757 201.569 47.649C201.361 47.8137 201.118 47.935 200.841 48.013C200.572 48.091 200.243 48.13 199.853 48.13C199.437 48.13 199.06 48.0563 198.722 47.909C198.392 47.7617 198.132 47.5363 197.942 47.233C197.751 46.921 197.656 46.531 197.656 46.063C197.656 45.3697 197.929 44.8367 198.475 44.464C199.021 44.0827 199.861 43.8747 200.997 43.84L202.18 43.801V43.385C202.18 42.8043 202.054 42.4013 201.803 42.176C201.551 41.9507 201.196 41.838 200.737 41.838C200.373 41.838 200.026 41.8943 199.697 42.007C199.367 42.111 199.06 42.2323 198.774 42.371L198.423 41.513C198.726 41.3483 199.086 41.2097 199.502 41.097C199.918 40.9757 200.351 40.915 200.802 40.915ZM201.14 44.633C200.273 44.6677 199.671 44.8063 199.333 45.049C199.003 45.2917 198.839 45.634 198.839 46.076C198.839 46.466 198.956 46.752 199.19 46.934C199.432 47.116 199.74 47.207 200.113 47.207C200.702 47.207 201.192 47.0467 201.582 46.726C201.972 46.3967 202.167 45.894 202.167 45.218V44.594L201.14 44.633ZM206.594 41.032V43.931H210.377V41.032H211.521V48H210.377V44.893H206.594V48H205.45V41.032H206.594ZM216.366 40.915C217.215 40.915 217.844 41.1013 218.251 41.474C218.658 41.8467 218.862 42.4403 218.862 43.255V48H218.03L217.809 47.012H217.757C217.558 47.2633 217.35 47.4757 217.133 47.649C216.925 47.8137 216.682 47.935 216.405 48.013C216.136 48.091 215.807 48.13 215.417 48.13C215.001 48.13 214.624 48.0563 214.286 47.909C213.957 47.7617 213.697 47.5363 213.506 47.233C213.315 46.921 213.22 46.531 213.22 46.063C213.22 45.3697 213.493 44.8367 214.039 44.464C214.585 44.0827 215.426 43.8747 216.561 43.84L217.744 43.801V43.385C217.744 42.8043 217.618 42.4013 217.367 42.176C217.116 41.9507 216.76 41.838 216.301 41.838C215.937 41.838 215.59 41.8943 215.261 42.007C214.932 42.111 214.624 42.2323 214.338 42.371L213.987 41.513C214.29 41.3483 214.65 41.2097 215.066 41.097C215.482 40.9757 215.915 40.915 216.366 40.915ZM216.704 44.633C215.837 44.6677 215.235 44.8063 214.897 45.049C214.568 45.2917 214.403 45.634 214.403 46.076C214.403 46.466 214.52 46.752 214.754 46.934C214.997 47.116 215.304 47.207 215.677 47.207C216.266 47.207 216.756 47.0467 217.146 46.726C217.536 46.3967 217.731 45.894 217.731 45.218V44.594L216.704 44.633ZM226.318 48H225.161V41.981H223.107C223.021 43.0817 222.912 44.022 222.782 44.802C222.652 45.5733 222.488 46.2017 222.288 46.687C222.089 47.1723 221.851 47.5277 221.573 47.753C221.296 47.9783 220.971 48.091 220.598 48.091C220.486 48.091 220.373 48.0823 220.26 48.065C220.156 48.0563 220.07 48.0347 220 48V47.142C220.052 47.1593 220.109 47.1723 220.169 47.181C220.23 47.1897 220.291 47.194 220.351 47.194C220.542 47.194 220.715 47.116 220.871 46.96C221.027 46.804 221.166 46.5657 221.287 46.245C221.417 45.9243 221.534 45.5213 221.638 45.036C221.742 44.542 221.833 43.9613 221.911 43.294C221.989 42.6267 222.059 41.8727 222.119 41.032H226.318V48ZM229.609 45.283C229.609 45.361 229.604 45.4737 229.596 45.621C229.596 45.7597 229.591 45.9113 229.583 46.076C229.574 46.232 229.565 46.3837 229.557 46.531C229.548 46.6697 229.539 46.7823 229.531 46.869L233.262 41.032H234.666V48H233.6V43.892C233.6 43.7533 233.6 43.5713 233.6 43.346C233.608 43.1207 233.617 42.8997 233.626 42.683C233.634 42.4577 233.643 42.2887 233.652 42.176L229.947 48H228.53V41.032H229.609V45.283ZM241.693 41.994H239.418V48H238.287V41.994H236.038V41.032H241.693V41.994ZM244.145 45.283C244.145 45.361 244.141 45.4737 244.132 45.621C244.132 45.7597 244.128 45.9113 244.119 46.076C244.11 46.232 244.102 46.3837 244.093 46.531C244.084 46.6697 244.076 46.7823 244.067 46.869L247.798 41.032H249.202V48H248.136V43.892C248.136 43.7533 248.136 43.5713 248.136 43.346C248.145 43.1207 248.153 42.8997 248.162 42.683C248.171 42.4577 248.179 42.2887 248.188 42.176L244.483 48H243.066V41.032H244.145V45.283ZM252.42 43.567C252.42 43.9743 252.533 44.2777 252.758 44.477C252.992 44.6677 253.326 44.763 253.759 44.763C254.193 44.763 254.587 44.698 254.942 44.568C255.298 44.4293 255.662 44.2473 256.034 44.022V41.032H257.178V48H256.034V44.893C255.644 45.1443 255.259 45.3437 254.877 45.491C254.505 45.6297 254.054 45.699 253.525 45.699C252.815 45.699 252.26 45.5127 251.861 45.14C251.471 44.7673 251.276 44.269 251.276 43.645V41.032H252.42V43.567ZM262.083 40.902C262.681 40.902 263.192 41.032 263.617 41.292C264.05 41.552 264.38 41.9203 264.605 42.397C264.839 42.865 264.956 43.4153 264.956 44.048V44.737H260.185C260.202 45.5257 260.402 46.128 260.783 46.544C261.173 46.9513 261.715 47.155 262.408 47.155C262.85 47.155 263.24 47.116 263.578 47.038C263.925 46.9513 264.28 46.83 264.644 46.674V47.675C264.289 47.831 263.938 47.9437 263.591 48.013C263.244 48.091 262.833 48.13 262.356 48.13C261.697 48.13 261.112 47.9957 260.601 47.727C260.098 47.4583 259.704 47.0597 259.418 46.531C259.141 45.9937 259.002 45.3393 259.002 44.568C259.002 43.8053 259.128 43.151 259.379 42.605C259.639 42.059 259.999 41.6387 260.458 41.344C260.926 41.0493 261.468 40.902 262.083 40.902ZM262.07 41.838C261.524 41.838 261.091 42.0157 260.77 42.371C260.458 42.7177 260.272 43.203 260.211 43.827H263.76C263.76 43.4283 263.699 43.0817 263.578 42.787C263.457 42.4923 263.27 42.2627 263.019 42.098C262.776 41.9247 262.46 41.838 262.07 41.838ZM269.525 48.13C268.91 48.13 268.359 48.0043 267.874 47.753C267.397 47.5017 267.02 47.1117 266.743 46.583C266.474 46.0543 266.34 45.3783 266.34 44.555C266.34 43.697 266.483 42.9993 266.769 42.462C267.055 41.9247 267.441 41.5303 267.926 41.279C268.42 41.0277 268.979 40.902 269.603 40.902C269.958 40.902 270.301 40.941 270.63 41.019C270.959 41.0883 271.228 41.175 271.436 41.279L271.085 42.228C270.877 42.15 270.634 42.0763 270.357 42.007C270.08 41.9377 269.82 41.903 269.577 41.903C269.109 41.903 268.723 42.0027 268.42 42.202C268.117 42.4013 267.891 42.696 267.744 43.086C267.597 43.476 267.523 43.9613 267.523 44.542C267.523 45.0967 267.597 45.569 267.744 45.959C267.891 46.349 268.112 46.6437 268.407 46.843C268.702 47.0423 269.07 47.142 269.512 47.142C269.893 47.142 270.227 47.103 270.513 47.025C270.808 46.947 271.076 46.8517 271.319 46.739V47.753C271.085 47.8743 270.825 47.9653 270.539 48.026C270.262 48.0953 269.924 48.13 269.525 48.13ZM277.097 41.032H278.345L275.368 44.386L278.592 48H277.266L274.12 44.464V48H272.976V41.032H274.12V44.412L277.097 41.032ZM285.661 44.503C285.661 45.0837 285.583 45.5993 285.427 46.05C285.28 46.492 285.063 46.869 284.777 47.181C284.5 47.493 284.157 47.7313 283.75 47.896C283.351 48.052 282.905 48.13 282.411 48.13C281.952 48.13 281.527 48.052 281.137 47.896C280.747 47.7313 280.409 47.493 280.123 47.181C279.837 46.869 279.612 46.492 279.447 46.05C279.291 45.5993 279.213 45.0837 279.213 44.503C279.213 43.7317 279.343 43.0817 279.603 42.553C279.863 42.0157 280.236 41.6083 280.721 41.331C281.206 41.045 281.783 40.902 282.45 40.902C283.083 40.902 283.637 41.045 284.114 41.331C284.599 41.6083 284.976 42.0157 285.245 42.553C285.522 43.0817 285.661 43.7317 285.661 44.503ZM280.396 44.503C280.396 45.049 280.465 45.5257 280.604 45.933C280.751 46.3317 280.977 46.6393 281.28 46.856C281.583 47.0727 281.969 47.181 282.437 47.181C282.905 47.181 283.291 47.0727 283.594 46.856C283.897 46.6393 284.118 46.3317 284.257 45.933C284.404 45.5257 284.478 45.049 284.478 44.503C284.478 43.9483 284.404 43.476 284.257 43.086C284.11 42.696 283.884 42.397 283.581 42.189C283.286 41.9723 282.901 41.864 282.424 41.864C281.713 41.864 281.198 42.098 280.877 42.566C280.556 43.034 280.396 43.6797 280.396 44.503ZM290.165 40.902C290.763 40.902 291.274 41.032 291.699 41.292C292.132 41.552 292.462 41.9203 292.687 42.397C292.921 42.865 293.038 43.4153 293.038 44.048V44.737H288.267C288.284 45.5257 288.484 46.128 288.865 46.544C289.255 46.9513 289.797 47.155 290.49 47.155C290.932 47.155 291.322 47.116 291.66 47.038C292.007 46.9513 292.362 46.83 292.726 46.674V47.675C292.371 47.831 292.02 47.9437 291.673 48.013C291.326 48.091 290.915 48.13 290.438 48.13C289.779 48.13 289.194 47.9957 288.683 47.727C288.18 47.4583 287.786 47.0597 287.5 46.531C287.223 45.9937 287.084 45.3393 287.084 44.568C287.084 43.8053 287.21 43.151 287.461 42.605C287.721 42.059 288.081 41.6387 288.54 41.344C289.008 41.0493 289.55 40.902 290.165 40.902ZM290.152 41.838C289.606 41.838 289.173 42.0157 288.852 42.371C288.54 42.7177 288.354 43.203 288.293 43.827H291.842C291.842 43.4283 291.781 43.0817 291.66 42.787C291.539 42.4923 291.352 42.2627 291.101 42.098C290.858 41.9247 290.542 41.838 290.152 41.838ZM302.77 40.915C303.62 40.915 304.248 41.1013 304.655 41.474C305.063 41.8467 305.266 42.4403 305.266 43.255V48H304.434L304.213 47.012H304.161C303.962 47.2633 303.754 47.4757 303.537 47.649C303.329 47.8137 303.087 47.935 302.809 48.013C302.541 48.091 302.211 48.13 301.821 48.13C301.405 48.13 301.028 48.0563 300.69 47.909C300.361 47.7617 300.101 47.5363 299.91 47.233C299.72 46.921 299.624 46.531 299.624 46.063C299.624 45.3697 299.897 44.8367 300.443 44.464C300.989 44.0827 301.83 43.8747 302.965 43.84L304.148 43.801V43.385C304.148 42.8043 304.023 42.4013 303.771 42.176C303.52 41.9507 303.165 41.838 302.705 41.838C302.341 41.838 301.995 41.8943 301.665 42.007C301.336 42.111 301.028 42.2323 300.742 42.371L300.391 41.513C300.695 41.3483 301.054 41.2097 301.47 41.097C301.886 40.9757 302.32 40.915 302.77 40.915ZM303.108 44.633C302.242 44.6677 301.639 44.8063 301.301 45.049C300.972 45.2917 300.807 45.634 300.807 46.076C300.807 46.466 300.924 46.752 301.158 46.934C301.401 47.116 301.709 47.207 302.081 47.207C302.671 47.207 303.16 47.0467 303.55 46.726C303.94 46.3967 304.135 45.894 304.135 45.218V44.594L303.108 44.633ZM311.669 41.032V41.994H308.562V48H307.418V41.032H311.669ZM315.607 40.902C316.205 40.902 316.716 41.032 317.141 41.292C317.574 41.552 317.903 41.9203 318.129 42.397C318.363 42.865 318.48 43.4153 318.48 44.048V44.737H313.709C313.726 45.5257 313.925 46.128 314.307 46.544C314.697 46.9513 315.238 47.155 315.932 47.155C316.374 47.155 316.764 47.116 317.102 47.038C317.448 46.9513 317.804 46.83 318.168 46.674V47.675C317.812 47.831 317.461 47.9437 317.115 48.013C316.768 48.091 316.356 48.13 315.88 48.13C315.221 48.13 314.636 47.9957 314.125 47.727C313.622 47.4583 313.228 47.0597 312.942 46.531C312.664 45.9937 312.526 45.3393 312.526 44.568C312.526 43.8053 312.651 43.151 312.903 42.605C313.163 42.059 313.522 41.6387 313.982 41.344C314.45 41.0493 314.991 40.902 315.607 40.902ZM315.594 41.838C315.048 41.838 314.614 42.0157 314.294 42.371C313.982 42.7177 313.795 43.203 313.735 43.827H317.284C317.284 43.4283 317.223 43.0817 317.102 42.787C316.98 42.4923 316.794 42.2627 316.543 42.098C316.3 41.9247 315.984 41.838 315.594 41.838ZM321.397 41.032V43.931H325.18V41.032H326.324V48H325.18V44.893H321.397V48H320.253V41.032H321.397ZM333.341 41.994H331.066V48H329.935V41.994H327.686V41.032H333.341V41.994ZM337.381 48.13C336.766 48.13 336.216 48.0043 335.73 47.753C335.254 47.5017 334.877 47.1117 334.599 46.583C334.331 46.0543 334.196 45.3783 334.196 44.555C334.196 43.697 334.339 42.9993 334.625 42.462C334.911 41.9247 335.297 41.5303 335.782 41.279C336.276 41.0277 336.835 40.902 337.459 40.902C337.815 40.902 338.157 40.941 338.486 41.019C338.816 41.0883 339.084 41.175 339.292 41.279L338.941 42.228C338.733 42.15 338.491 42.0763 338.213 42.007C337.936 41.9377 337.676 41.903 337.433 41.903C336.965 41.903 336.58 42.0027 336.276 42.202C335.973 42.4013 335.748 42.696 335.6 43.086C335.453 43.476 335.379 43.9613 335.379 44.542C335.379 45.0967 335.453 45.569 335.6 45.959C335.748 46.349 335.969 46.6437 336.263 46.843C336.558 47.0423 336.926 47.142 337.368 47.142C337.75 47.142 338.083 47.103 338.369 47.025C338.664 46.947 338.933 46.8517 339.175 46.739V47.753C338.941 47.8743 338.681 47.9653 338.395 48.026C338.118 48.0953 337.78 48.13 337.381 48.13ZM345.643 41.994H343.368V48H342.237V41.994H339.988V41.032H345.643V41.994ZM352.618 42.787C352.618 43.2203 352.488 43.5583 352.228 43.801C351.968 44.0437 351.634 44.2083 351.227 44.295V44.347C351.66 44.4077 352.037 44.5637 352.358 44.815C352.679 45.0577 352.839 45.439 352.839 45.959C352.839 46.2537 352.783 46.5267 352.67 46.778C352.566 47.0293 352.401 47.246 352.176 47.428C351.951 47.61 351.66 47.753 351.305 47.857C350.95 47.9523 350.521 48 350.018 48H347.015V41.032H350.005C350.499 41.032 350.941 41.0883 351.331 41.201C351.73 41.305 352.042 41.487 352.267 41.747C352.501 41.9983 352.618 42.345 352.618 42.787ZM351.656 45.959C351.656 45.5603 351.504 45.2743 351.201 45.101C350.898 44.9277 350.451 44.841 349.862 44.841H348.159V47.077H349.888C350.46 47.077 350.898 46.9947 351.201 46.83C351.504 46.6567 351.656 46.3663 351.656 45.959ZM351.461 42.93C351.461 42.6007 351.34 42.3623 351.097 42.215C350.863 42.059 350.477 41.981 349.94 41.981H348.159V43.892H349.732C350.295 43.892 350.724 43.814 351.019 43.658C351.314 43.502 351.461 43.2593 351.461 42.93ZM360.563 44.503C360.563 45.0837 360.485 45.5993 360.329 46.05C360.182 46.492 359.965 46.869 359.679 47.181C359.402 47.493 359.06 47.7313 358.652 47.896C358.254 48.052 357.807 48.13 357.313 48.13C356.854 48.13 356.429 48.052 356.039 47.896C355.649 47.7313 355.311 47.493 355.025 47.181C354.739 46.869 354.514 46.492 354.349 46.05C354.193 45.5993 354.115 45.0837 354.115 44.503C354.115 43.7317 354.245 43.0817 354.505 42.553C354.765 42.0157 355.138 41.6083 355.623 41.331C356.109 41.045 356.685 40.902 357.352 40.902C357.985 40.902 358.54 41.045 359.016 41.331C359.502 41.6083 359.879 42.0157 360.147 42.553C360.425 43.0817 360.563 43.7317 360.563 44.503ZM355.298 44.503C355.298 45.049 355.368 45.5257 355.506 45.933C355.654 46.3317 355.879 46.6393 356.182 46.856C356.486 47.0727 356.871 47.181 357.339 47.181C357.807 47.181 358.193 47.0727 358.496 46.856C358.8 46.6393 359.021 46.3317 359.159 45.933C359.307 45.5257 359.38 45.049 359.38 44.503C359.38 43.9483 359.307 43.476 359.159 43.086C359.012 42.696 358.787 42.397 358.483 42.189C358.189 41.9723 357.803 41.864 357.326 41.864C356.616 41.864 356.1 42.098 355.779 42.566C355.459 43.034 355.298 43.6797 355.298 44.503Z" fill="white"/>
</svg>
