<svg width="378" height="52" viewBox="0 0 378 52" fill="none" xmlns="http://www.w3.org/2000/svg">
<path d="M16.6027 25C16.6027 30.4806 18.4037 35.8093 21.7285 40.1662C25.0533 44.5232 29.7177 47.6668 35.0039 49.1134C40.2901 50.56 45.9052 50.2294 50.9852 48.1726C56.0652 46.1157 60.3285 42.4465 63.1191 37.7295C65.9097 33.0126 67.073 27.5094 66.43 22.0666C65.7869 16.6239 63.3731 11.5433 59.5601 7.60659C55.747 3.6699 50.746 1.09528 45.3265 0.27893C39.9071 -0.537425 34.3695 0.449716 29.566 3.08845L31.6278 6.8419L32 8.44374C35.0353 8.44374 40.488 8.21169 44.0507 8.74837C47.6135 9.28504 50.9012 10.9776 53.4079 13.5656C55.9146 16.1535 57.5014 19.4935 57.9241 23.0716C58.3469 26.6497 57.5821 30.2675 55.7476 33.3684C53.913 36.4693 51.1103 38.8815 47.7708 40.2336C44.4312 41.5858 40.7398 41.8032 37.2646 40.8522C33.7895 39.9012 30.7231 37.8345 28.5374 34.9703C26.3516 32.1061 25.1677 28.603 25.1677 25H16.6027Z" fill="#3F42EA"/>
<path d="M16.6135 17.4393H25.1676V25.0552H16.6135V17.4393Z" fill="#3F42EA"/>
<path d="M11.3047 5.34058e-05H41.2164V8.49894H11.3047V5.34058e-05Z" fill="#3F42EA"/>
<path d="M26.7897 5.34058e-05H34.8146L31.248 8.49894H23.446L26.7897 5.34058e-05Z" fill="#6466F4"/>
<path d="M18.9531 5.34058e-05H26.978L23.4114 8.49894H15.6094L18.9531 5.34058e-05Z" fill="#8A8CFA"/>
<path d="M11.2269 5.34058e-05H19.2518L15.6851 8.49894H7.88313L11.2269 5.34058e-05Z" fill="#A1A3FB"/>
<path d="M3.73904 0H11.764L8.19733 8.49889H0.395325L3.73904 0Z" fill="#CBCCFF"/>
<path d="M34.6263 5.34058e-05H42.6512L39.0846 8.49894H31.2826L34.6263 5.34058e-05Z" fill="#4D50F1"/>
<path d="M97.6946 1.8H94.6346L82.0706 27H87.5066L96.1826 9.72L104.823 27H110.295L97.6946 1.8ZM130.998 1.8V14.4C130.998 18.684 127.542 22.14 123.258 22.14C119.01 22.14 115.554 18.684 115.554 14.4V1.8H110.694V14.4C110.694 21.348 116.346 27 123.258 27C130.206 27 135.858 21.348 135.858 14.4V1.8H130.998ZM138.89 1.8V6.696H149.042V27H153.902V6.696H164.09V1.8H138.89ZM183.4 1.8H175.3C170.584 1.8 166.768 5.652 166.768 10.368V18.468C166.768 23.184 170.584 27 175.3 27H183.4C188.116 27 191.932 23.184 191.932 18.468V10.368C191.932 5.652 188.116 1.8 183.4 1.8ZM187.072 18.468C187.072 20.484 185.416 22.14 183.4 22.14H175.3C173.284 22.14 171.628 20.484 171.628 18.468V10.368C171.628 8.352 173.284 6.696 175.3 6.696H183.4C185.416 6.696 187.072 8.352 187.072 10.368V18.468ZM224.13 10.368C224.13 5.652 220.278 1.8 215.562 1.8H197.994L194.61 6.696H215.562C217.578 6.696 219.234 8.352 219.234 10.368C219.234 12.348 217.578 14.004 215.562 14.004H198.93V27H203.79V18.9H215.562C217.578 18.9 219.234 20.52 219.234 22.536V27.036H224.13V22.536C224.13 20.16 223.122 18 221.538 16.452C223.122 14.904 224.13 12.744 224.13 10.368ZM238.326 16.848H252.834V11.988H233.466V27H256.218V22.14H238.326V16.848ZM230.082 1.8L226.698 6.696H256.218V1.8H230.082ZM279.335 1.8H261.767L258.383 6.696H279.335C281.351 6.696 283.007 8.352 283.007 10.368C283.007 12.348 281.351 14.004 279.335 14.004H262.703V27H267.563V18.9H279.335C284.051 18.9 287.903 15.048 287.903 10.368C287.903 5.652 284.051 1.8 279.335 1.8ZM308.135 1.8H300.035C295.319 1.8 291.503 5.652 291.503 10.368V18.468C291.503 23.184 295.319 27 300.035 27H308.135C312.851 27 316.667 23.184 316.667 18.468V10.368C316.667 5.652 312.851 1.8 308.135 1.8ZM311.807 18.468C311.807 20.484 310.151 22.14 308.135 22.14H300.035C298.019 22.14 296.363 20.484 296.363 18.468V10.368C296.363 8.352 298.019 6.696 300.035 6.696H308.135C310.151 6.696 311.807 8.352 311.807 10.368V18.468ZM348.864 10.368C348.864 5.652 345.012 1.8 340.296 1.8H322.728L319.344 6.696H340.296C342.312 6.696 343.968 8.352 343.968 10.368C343.968 12.348 342.312 14.004 340.296 14.004H323.664V27H328.524V18.9H340.296C342.312 18.9 343.968 20.52 343.968 22.536V27.036H348.864V22.536C348.864 20.16 347.856 18 346.272 16.452C347.856 14.904 348.864 12.744 348.864 10.368ZM351.585 1.8V6.696H361.737V27H366.597V6.696H376.785V1.8H351.585Z" fill="#3F42EA"/>
<path d="M82.8766 38.718H83.9686V43.814C83.9686 44.0307 83.9643 44.269 83.9556 44.529C83.9556 44.7803 83.9513 45.0317 83.9426 45.283C83.934 45.5343 83.921 45.7597 83.9036 45.959C83.895 46.1497 83.8863 46.297 83.8776 46.401H83.9296L89.0386 38.718H90.3386V48H89.2466V42.956C89.2466 42.722 89.251 42.4707 89.2596 42.202C89.2683 41.9247 89.277 41.6603 89.2856 41.409C89.303 41.149 89.316 40.9193 89.3246 40.72C89.3333 40.5207 89.342 40.3733 89.3506 40.278H89.2986L84.1766 48H82.8766V38.718ZM93.8301 41.032V43.931H97.6131V41.032H98.7571V48H97.6131V44.893H93.8301V48H92.6861V41.032H93.8301ZM105.123 40.928C105.817 40.9887 106.419 41.1707 106.93 41.474C107.45 41.7773 107.853 42.1847 108.139 42.696C108.425 43.2073 108.568 43.814 108.568 44.516C108.568 45.218 108.43 45.829 108.152 46.349C107.875 46.8603 107.481 47.2677 106.969 47.571C106.458 47.8657 105.843 48.0433 105.123 48.104V51.12H104.005V48.104C103.321 48.0433 102.718 47.8657 102.198 47.571C101.678 47.2677 101.275 46.8603 100.989 46.349C100.703 45.829 100.56 45.218 100.56 44.516C100.56 43.8053 100.699 43.1943 100.976 42.683C101.254 42.163 101.652 41.7557 102.172 41.461C102.692 41.1577 103.316 40.98 104.044 40.928V38.12H105.123V40.928ZM104.044 41.877C103.516 41.929 103.082 42.0633 102.744 42.28C102.406 42.4967 102.155 42.7913 101.99 43.164C101.834 43.5367 101.756 43.9873 101.756 44.516C101.756 45.036 101.834 45.4867 101.99 45.868C102.155 46.2407 102.406 46.5397 102.744 46.765C103.082 46.9817 103.516 47.116 104.044 47.168V41.877ZM105.123 47.168C105.643 47.1073 106.068 46.9687 106.397 46.752C106.735 46.5353 106.982 46.2407 107.138 45.868C107.303 45.4867 107.385 45.036 107.385 44.516C107.385 43.996 107.303 43.5497 107.138 43.177C106.974 42.8043 106.722 42.5097 106.384 42.293C106.055 42.0763 105.635 41.942 105.123 41.89V47.168ZM116.441 44.503C116.441 45.0837 116.363 45.5993 116.207 46.05C116.06 46.492 115.843 46.869 115.557 47.181C115.28 47.493 114.938 47.7313 114.53 47.896C114.132 48.052 113.685 48.13 113.191 48.13C112.732 48.13 112.307 48.052 111.917 47.896C111.527 47.7313 111.189 47.493 110.903 47.181C110.617 46.869 110.392 46.492 110.227 46.05C110.071 45.5993 109.993 45.0837 109.993 44.503C109.993 43.7317 110.123 43.0817 110.383 42.553C110.643 42.0157 111.016 41.6083 111.501 41.331C111.987 41.045 112.563 40.902 113.23 40.902C113.863 40.902 114.418 41.045 114.894 41.331C115.38 41.6083 115.757 42.0157 116.025 42.553C116.303 43.0817 116.441 43.7317 116.441 44.503ZM111.176 44.503C111.176 45.049 111.246 45.5257 111.384 45.933C111.532 46.3317 111.757 46.6393 112.06 46.856C112.364 47.0727 112.749 47.181 113.217 47.181C113.685 47.181 114.071 47.0727 114.374 46.856C114.678 46.6393 114.899 46.3317 115.037 45.933C115.185 45.5257 115.258 45.049 115.258 44.503C115.258 43.9483 115.185 43.476 115.037 43.086C114.89 42.696 114.665 42.397 114.361 42.189C114.067 41.9723 113.681 41.864 113.204 41.864C112.494 41.864 111.978 42.098 111.657 42.566C111.337 43.034 111.176 43.6797 111.176 44.503ZM121.57 40.902C122.428 40.902 123.117 41.201 123.637 41.799C124.165 42.397 124.43 43.2983 124.43 44.503C124.43 45.2917 124.308 45.959 124.066 46.505C123.832 47.0423 123.498 47.4497 123.065 47.727C122.64 47.9957 122.137 48.13 121.557 48.13C121.201 48.13 120.885 48.0823 120.608 47.987C120.33 47.8917 120.092 47.7703 119.893 47.623C119.702 47.467 119.537 47.298 119.399 47.116H119.321C119.338 47.2633 119.355 47.4497 119.373 47.675C119.39 47.9003 119.399 48.0953 119.399 48.26V51.12H118.255V41.032H119.191L119.347 41.981H119.399C119.537 41.7817 119.702 41.5997 119.893 41.435C120.092 41.2703 120.326 41.1403 120.595 41.045C120.872 40.9497 121.197 40.902 121.57 40.902ZM121.362 41.864C120.894 41.864 120.517 41.955 120.231 42.137C119.945 42.3103 119.737 42.5747 119.607 42.93C119.477 43.2853 119.407 43.736 119.399 44.282V44.503C119.399 45.075 119.459 45.5603 119.581 45.959C119.702 46.3577 119.906 46.661 120.192 46.869C120.486 47.077 120.885 47.181 121.388 47.181C121.812 47.181 122.159 47.064 122.428 46.83C122.705 46.596 122.909 46.2797 123.039 45.881C123.177 45.4737 123.247 45.01 123.247 44.49C123.247 43.6927 123.091 43.0557 122.779 42.579C122.475 42.1023 122.003 41.864 121.362 41.864ZM133.728 41.032V48H132.701V43.554C132.701 43.372 132.705 43.1813 132.714 42.982C132.731 42.7827 132.748 42.5877 132.766 42.397H132.727L130.452 48H129.49L127.28 42.397H127.241C127.258 42.5877 127.267 42.7827 127.267 42.982C127.275 43.1813 127.28 43.385 127.28 43.593V48H126.253V41.032H127.774L129.971 46.635L132.207 41.032H133.728ZM138.591 40.915C139.44 40.915 140.068 41.1013 140.476 41.474C140.883 41.8467 141.087 42.4403 141.087 43.255V48H140.255L140.034 47.012H139.982C139.782 47.2633 139.574 47.4757 139.358 47.649C139.15 47.8137 138.907 47.935 138.63 48.013C138.361 48.091 138.032 48.13 137.642 48.13C137.226 48.13 136.849 48.0563 136.511 47.909C136.181 47.7617 135.921 47.5363 135.731 47.233C135.54 46.921 135.445 46.531 135.445 46.063C135.445 45.3697 135.718 44.8367 136.264 44.464C136.81 44.0827 137.65 43.8747 138.786 43.84L139.969 43.801V43.385C139.969 42.8043 139.843 42.4013 139.592 42.176C139.34 41.9507 138.985 41.838 138.526 41.838C138.162 41.838 137.815 41.8943 137.486 42.007C137.156 42.111 136.849 42.2323 136.563 42.371L136.212 41.513C136.515 41.3483 136.875 41.2097 137.291 41.097C137.707 40.9757 138.14 40.915 138.591 40.915ZM138.929 44.633C138.062 44.6677 137.46 44.8063 137.122 45.049C136.792 45.2917 136.628 45.634 136.628 46.076C136.628 46.466 136.745 46.752 136.979 46.934C137.221 47.116 137.529 47.207 137.902 47.207C138.491 47.207 138.981 47.0467 139.371 46.726C139.761 46.3967 139.956 45.894 139.956 45.218V44.594L138.929 44.633ZM150.116 50.418H148.998V48H143.239V41.032H144.383V47.038H147.984V41.032H149.128V47.051H150.116V50.418ZM152.532 45.283C152.532 45.361 152.527 45.4737 152.519 45.621C152.519 45.7597 152.514 45.9113 152.506 46.076C152.497 46.232 152.488 46.3837 152.48 46.531C152.471 46.6697 152.462 46.7823 152.454 46.869L156.185 41.032H157.589V48H156.523V43.892C156.523 43.7533 156.523 43.5713 156.523 43.346C156.531 43.1207 156.54 42.8997 156.549 42.683C156.557 42.4577 156.566 42.2887 156.575 42.176L152.87 48H151.453V41.032H152.532V45.283ZM165.864 44.503C165.864 45.0837 165.786 45.5993 165.63 46.05C165.483 46.492 165.266 46.869 164.98 47.181C164.703 47.493 164.361 47.7313 163.953 47.896C163.555 48.052 163.108 48.13 162.614 48.13C162.155 48.13 161.73 48.052 161.34 47.896C160.95 47.7313 160.612 47.493 160.326 47.181C160.04 46.869 159.815 46.492 159.65 46.05C159.494 45.5993 159.416 45.0837 159.416 44.503C159.416 43.7317 159.546 43.0817 159.806 42.553C160.066 42.0157 160.439 41.6083 160.924 41.331C161.41 41.045 161.986 40.902 162.653 40.902C163.286 40.902 163.841 41.045 164.317 41.331C164.803 41.6083 165.18 42.0157 165.448 42.553C165.726 43.0817 165.864 43.7317 165.864 44.503ZM160.599 44.503C160.599 45.049 160.669 45.5257 160.807 45.933C160.955 46.3317 161.18 46.6393 161.483 46.856C161.787 47.0727 162.172 47.181 162.64 47.181C163.108 47.181 163.494 47.0727 163.797 46.856C164.101 46.6393 164.322 46.3317 164.46 45.933C164.608 45.5257 164.681 45.049 164.681 44.503C164.681 43.9483 164.608 43.476 164.46 43.086C164.313 42.696 164.088 42.397 163.784 42.189C163.49 41.9723 163.104 41.864 162.627 41.864C161.917 41.864 161.401 42.098 161.08 42.566C160.76 43.034 160.599 43.6797 160.599 44.503ZM168.821 41.032V43.931H172.604V41.032H173.748V48H172.604V44.893H168.821V48H167.677V41.032H168.821ZM177.099 41.032V43.931H180.882V41.032H182.026V48H180.882V44.893H177.099V48H175.955V41.032H177.099ZM190.29 44.503C190.29 45.0837 190.212 45.5993 190.056 46.05C189.909 46.492 189.692 46.869 189.406 47.181C189.129 47.493 188.786 47.7313 188.379 47.896C187.98 48.052 187.534 48.13 187.04 48.13C186.581 48.13 186.156 48.052 185.766 47.896C185.376 47.7313 185.038 47.493 184.752 47.181C184.466 46.869 184.241 46.492 184.076 46.05C183.92 45.5993 183.842 45.0837 183.842 44.503C183.842 43.7317 183.972 43.0817 184.232 42.553C184.492 42.0157 184.865 41.6083 185.35 41.331C185.835 41.045 186.412 40.902 187.079 40.902C187.712 40.902 188.266 41.045 188.743 41.331C189.228 41.6083 189.605 42.0157 189.874 42.553C190.151 43.0817 190.29 43.7317 190.29 44.503ZM185.025 44.503C185.025 45.049 185.094 45.5257 185.233 45.933C185.38 46.3317 185.606 46.6393 185.909 46.856C186.212 47.0727 186.598 47.181 187.066 47.181C187.534 47.181 187.92 47.0727 188.223 46.856C188.526 46.6393 188.747 46.3317 188.886 45.933C189.033 45.5257 189.107 45.049 189.107 44.503C189.107 43.9483 189.033 43.476 188.886 43.086C188.739 42.696 188.513 42.397 188.21 42.189C187.915 41.9723 187.53 41.864 187.053 41.864C186.342 41.864 185.827 42.098 185.506 42.566C185.185 43.034 185.025 43.6797 185.025 44.503ZM196.575 44.334V42.579H191.687V44.334H196.575ZM201.026 40.915C201.876 40.915 202.504 41.1013 202.911 41.474C203.319 41.8467 203.522 42.4403 203.522 43.255V48H202.69L202.469 47.012H202.417C202.218 47.2633 202.01 47.4757 201.793 47.649C201.585 47.8137 201.343 47.935 201.065 48.013C200.797 48.091 200.467 48.13 200.077 48.13C199.661 48.13 199.284 48.0563 198.946 47.909C198.617 47.7617 198.357 47.5363 198.166 47.233C197.976 46.921 197.88 46.531 197.88 46.063C197.88 45.3697 198.153 44.8367 198.699 44.464C199.245 44.0827 200.086 43.8747 201.221 43.84L202.404 43.801V43.385C202.404 42.8043 202.279 42.4013 202.027 42.176C201.776 41.9507 201.421 41.838 200.961 41.838C200.597 41.838 200.251 41.8943 199.921 42.007C199.592 42.111 199.284 42.2323 198.998 42.371L198.647 41.513C198.951 41.3483 199.31 41.2097 199.726 41.097C200.142 40.9757 200.576 40.915 201.026 40.915ZM201.364 44.633C200.498 44.6677 199.895 44.8063 199.557 45.049C199.228 45.2917 199.063 45.634 199.063 46.076C199.063 46.466 199.18 46.752 199.414 46.934C199.657 47.116 199.965 47.207 200.337 47.207C200.927 47.207 201.416 47.0467 201.806 46.726C202.196 46.3967 202.391 45.894 202.391 45.218V44.594L201.364 44.633ZM206.818 41.032V43.931H210.601V41.032H211.745V48H210.601V44.893H206.818V48H205.674V41.032H206.818ZM216.591 40.915C217.44 40.915 218.068 41.1013 218.476 41.474C218.883 41.8467 219.087 42.4403 219.087 43.255V48H218.255L218.034 47.012H217.982C217.782 47.2633 217.574 47.4757 217.358 47.649C217.15 47.8137 216.907 47.935 216.63 48.013C216.361 48.091 216.032 48.13 215.642 48.13C215.226 48.13 214.849 48.0563 214.511 47.909C214.181 47.7617 213.921 47.5363 213.731 47.233C213.54 46.921 213.445 46.531 213.445 46.063C213.445 45.3697 213.718 44.8367 214.264 44.464C214.81 44.0827 215.65 43.8747 216.786 43.84L217.969 43.801V43.385C217.969 42.8043 217.843 42.4013 217.592 42.176C217.34 41.9507 216.985 41.838 216.526 41.838C216.162 41.838 215.815 41.8943 215.486 42.007C215.156 42.111 214.849 42.2323 214.563 42.371L214.212 41.513C214.515 41.3483 214.875 41.2097 215.291 41.097C215.707 40.9757 216.14 40.915 216.591 40.915ZM216.929 44.633C216.062 44.6677 215.46 44.8063 215.122 45.049C214.792 45.2917 214.628 45.634 214.628 46.076C214.628 46.466 214.745 46.752 214.979 46.934C215.221 47.116 215.529 47.207 215.902 47.207C216.491 47.207 216.981 47.0467 217.371 46.726C217.761 46.3967 217.956 45.894 217.956 45.218V44.594L216.929 44.633ZM226.543 48H225.386V41.981H223.332C223.245 43.0817 223.137 44.022 223.007 44.802C222.877 45.5733 222.712 46.2017 222.513 46.687C222.314 47.1723 222.075 47.5277 221.798 47.753C221.521 47.9783 221.196 48.091 220.823 48.091C220.71 48.091 220.598 48.0823 220.485 48.065C220.381 48.0563 220.294 48.0347 220.225 48V47.142C220.277 47.1593 220.333 47.1723 220.394 47.181C220.455 47.1897 220.515 47.194 220.576 47.194C220.767 47.194 220.94 47.116 221.096 46.96C221.252 46.804 221.391 46.5657 221.512 46.245C221.642 45.9243 221.759 45.5213 221.863 45.036C221.967 44.542 222.058 43.9613 222.136 43.294C222.214 42.6267 222.283 41.8727 222.344 41.032H226.543V48ZM229.834 45.283C229.834 45.361 229.829 45.4737 229.821 45.621C229.821 45.7597 229.816 45.9113 229.808 46.076C229.799 46.232 229.79 46.3837 229.782 46.531C229.773 46.6697 229.764 46.7823 229.756 46.869L233.487 41.032H234.891V48H233.825V43.892C233.825 43.7533 233.825 43.5713 233.825 43.346C233.833 43.1207 233.842 42.8997 233.851 42.683C233.859 42.4577 233.868 42.2887 233.877 42.176L230.172 48H228.755V41.032H229.834V45.283ZM241.918 41.994H239.643V48H238.512V41.994H236.263V41.032H241.918V41.994ZM244.37 45.283C244.37 45.361 244.365 45.4737 244.357 45.621C244.357 45.7597 244.352 45.9113 244.344 46.076C244.335 46.232 244.326 46.3837 244.318 46.531C244.309 46.6697 244.3 46.7823 244.292 46.869L248.023 41.032H249.427V48H248.361V43.892C248.361 43.7533 248.361 43.5713 248.361 43.346C248.369 43.1207 248.378 42.8997 248.387 42.683C248.395 42.4577 248.404 42.2887 248.413 42.176L244.708 48H243.291V41.032H244.37V45.283ZM252.645 43.567C252.645 43.9743 252.758 44.2777 252.983 44.477C253.217 44.6677 253.551 44.763 253.984 44.763C254.417 44.763 254.812 44.698 255.167 44.568C255.522 44.4293 255.886 44.2473 256.259 44.022V41.032H257.403V48H256.259V44.893C255.869 45.1443 255.483 45.3437 255.102 45.491C254.729 45.6297 254.279 45.699 253.75 45.699C253.039 45.699 252.485 45.5127 252.086 45.14C251.696 44.7673 251.501 44.269 251.501 43.645V41.032H252.645V43.567ZM262.308 40.902C262.906 40.902 263.417 41.032 263.842 41.292C264.275 41.552 264.604 41.9203 264.83 42.397C265.064 42.865 265.181 43.4153 265.181 44.048V44.737H260.41C260.427 45.5257 260.626 46.128 261.008 46.544C261.398 46.9513 261.939 47.155 262.633 47.155C263.075 47.155 263.465 47.116 263.803 47.038C264.149 46.9513 264.505 46.83 264.869 46.674V47.675C264.513 47.831 264.162 47.9437 263.816 48.013C263.469 48.091 263.057 48.13 262.581 48.13C261.922 48.13 261.337 47.9957 260.826 47.727C260.323 47.4583 259.929 47.0597 259.643 46.531C259.365 45.9937 259.227 45.3393 259.227 44.568C259.227 43.8053 259.352 43.151 259.604 42.605C259.864 42.059 260.223 41.6387 260.683 41.344C261.151 41.0493 261.692 40.902 262.308 40.902ZM262.295 41.838C261.749 41.838 261.315 42.0157 260.995 42.371C260.683 42.7177 260.496 43.203 260.436 43.827H263.985C263.985 43.4283 263.924 43.0817 263.803 42.787C263.681 42.4923 263.495 42.2627 263.244 42.098C263.001 41.9247 262.685 41.838 262.295 41.838ZM269.75 48.13C269.134 48.13 268.584 48.0043 268.099 47.753C267.622 47.5017 267.245 47.1117 266.968 46.583C266.699 46.0543 266.565 45.3783 266.565 44.555C266.565 43.697 266.708 42.9993 266.994 42.462C267.28 41.9247 267.665 41.5303 268.151 41.279C268.645 41.0277 269.204 40.902 269.828 40.902C270.183 40.902 270.525 40.941 270.855 41.019C271.184 41.0883 271.453 41.175 271.661 41.279L271.31 42.228C271.102 42.15 270.859 42.0763 270.582 42.007C270.304 41.9377 270.044 41.903 269.802 41.903C269.334 41.903 268.948 42.0027 268.645 42.202C268.341 42.4013 268.116 42.696 267.969 43.086C267.821 43.476 267.748 43.9613 267.748 44.542C267.748 45.0967 267.821 45.569 267.969 45.959C268.116 46.349 268.337 46.6437 268.632 46.843C268.926 47.0423 269.295 47.142 269.737 47.142C270.118 47.142 270.452 47.103 270.738 47.025C271.032 46.947 271.301 46.8517 271.544 46.739V47.753C271.31 47.8743 271.05 47.9653 270.764 48.026C270.486 48.0953 270.148 48.13 269.75 48.13ZM277.322 41.032H278.57L275.593 44.386L278.817 48H277.491L274.345 44.464V48H273.201V41.032H274.345V44.412L277.322 41.032ZM285.886 44.503C285.886 45.0837 285.808 45.5993 285.652 46.05C285.504 46.492 285.288 46.869 285.002 47.181C284.724 47.493 284.382 47.7313 283.975 47.896C283.576 48.052 283.13 48.13 282.636 48.13C282.176 48.13 281.752 48.052 281.362 47.896C280.972 47.7313 280.634 47.493 280.348 47.181C280.062 46.869 279.836 46.492 279.672 46.05C279.516 45.5993 279.438 45.0837 279.438 44.503C279.438 43.7317 279.568 43.0817 279.828 42.553C280.088 42.0157 280.46 41.6083 280.946 41.331C281.431 41.045 282.007 40.902 282.675 40.902C283.307 40.902 283.862 41.045 284.339 41.331C284.824 41.6083 285.201 42.0157 285.47 42.553C285.747 43.0817 285.886 43.7317 285.886 44.503ZM280.621 44.503C280.621 45.049 280.69 45.5257 280.829 45.933C280.976 46.3317 281.201 46.6393 281.505 46.856C281.808 47.0727 282.194 47.181 282.662 47.181C283.13 47.181 283.515 47.0727 283.819 46.856C284.122 46.6393 284.343 46.3317 284.482 45.933C284.629 45.5257 284.703 45.049 284.703 44.503C284.703 43.9483 284.629 43.476 284.482 43.086C284.334 42.696 284.109 42.397 283.806 42.189C283.511 41.9723 283.125 41.864 282.649 41.864C281.938 41.864 281.422 42.098 281.102 42.566C280.781 43.034 280.621 43.6797 280.621 44.503ZM290.39 40.902C290.988 40.902 291.499 41.032 291.924 41.292C292.357 41.552 292.687 41.9203 292.912 42.397C293.146 42.865 293.263 43.4153 293.263 44.048V44.737H288.492C288.509 45.5257 288.709 46.128 289.09 46.544C289.48 46.9513 290.022 47.155 290.715 47.155C291.157 47.155 291.547 47.116 291.885 47.038C292.232 46.9513 292.587 46.83 292.951 46.674V47.675C292.596 47.831 292.245 47.9437 291.898 48.013C291.551 48.091 291.14 48.13 290.663 48.13C290.004 48.13 289.419 47.9957 288.908 47.727C288.405 47.4583 288.011 47.0597 287.725 46.531C287.448 45.9937 287.309 45.3393 287.309 44.568C287.309 43.8053 287.435 43.151 287.686 42.605C287.946 42.059 288.306 41.6387 288.765 41.344C289.233 41.0493 289.775 40.902 290.39 40.902ZM290.377 41.838C289.831 41.838 289.398 42.0157 289.077 42.371C288.765 42.7177 288.579 43.203 288.518 43.827H292.067C292.067 43.4283 292.006 43.0817 291.885 42.787C291.764 42.4923 291.577 42.2627 291.326 42.098C291.083 41.9247 290.767 41.838 290.377 41.838ZM302.995 40.915C303.844 40.915 304.473 41.1013 304.88 41.474C305.287 41.8467 305.491 42.4403 305.491 43.255V48H304.659L304.438 47.012H304.386C304.187 47.2633 303.979 47.4757 303.762 47.649C303.554 47.8137 303.311 47.935 303.034 48.013C302.765 48.091 302.436 48.13 302.046 48.13C301.63 48.13 301.253 48.0563 300.915 47.909C300.586 47.7617 300.326 47.5363 300.135 47.233C299.944 46.921 299.849 46.531 299.849 46.063C299.849 45.3697 300.122 44.8367 300.668 44.464C301.214 44.0827 302.055 43.8747 303.19 43.84L304.373 43.801V43.385C304.373 42.8043 304.247 42.4013 303.996 42.176C303.745 41.9507 303.389 41.838 302.93 41.838C302.566 41.838 302.219 41.8943 301.89 42.007C301.561 42.111 301.253 42.2323 300.967 42.371L300.616 41.513C300.919 41.3483 301.279 41.2097 301.695 41.097C302.111 40.9757 302.544 40.915 302.995 40.915ZM303.333 44.633C302.466 44.6677 301.864 44.8063 301.526 45.049C301.197 45.2917 301.032 45.634 301.032 46.076C301.032 46.466 301.149 46.752 301.383 46.934C301.626 47.116 301.933 47.207 302.306 47.207C302.895 47.207 303.385 47.0467 303.775 46.726C304.165 46.3967 304.36 45.894 304.36 45.218V44.594L303.333 44.633ZM311.894 41.032V41.994H308.787V48H307.643V41.032H311.894ZM315.831 40.902C316.429 40.902 316.941 41.032 317.365 41.292C317.799 41.552 318.128 41.9203 318.353 42.397C318.587 42.865 318.704 43.4153 318.704 44.048V44.737H313.933C313.951 45.5257 314.15 46.128 314.531 46.544C314.921 46.9513 315.463 47.155 316.156 47.155C316.598 47.155 316.988 47.116 317.326 47.038C317.673 46.9513 318.028 46.83 318.392 46.674V47.675C318.037 47.831 317.686 47.9437 317.339 48.013C316.993 48.091 316.581 48.13 316.104 48.13C315.446 48.13 314.861 47.9957 314.349 47.727C313.847 47.4583 313.452 47.0597 313.166 46.531C312.889 45.9937 312.75 45.3393 312.75 44.568C312.75 43.8053 312.876 43.151 313.127 42.605C313.387 42.059 313.747 41.6387 314.206 41.344C314.674 41.0493 315.216 40.902 315.831 40.902ZM315.818 41.838C315.272 41.838 314.839 42.0157 314.518 42.371C314.206 42.7177 314.02 43.203 313.959 43.827H317.508C317.508 43.4283 317.448 43.0817 317.326 42.787C317.205 42.4923 317.019 42.2627 316.767 42.098C316.525 41.9247 316.208 41.838 315.818 41.838ZM321.622 41.032V43.931H325.405V41.032H326.549V48H325.405V44.893H321.622V48H320.478V41.032H321.622ZM333.565 41.994H331.29V48H330.159V41.994H327.91V41.032H333.565V41.994ZM337.606 48.13C336.991 48.13 336.44 48.0043 335.955 47.753C335.478 47.5017 335.101 47.1117 334.824 46.583C334.555 46.0543 334.421 45.3783 334.421 44.555C334.421 43.697 334.564 42.9993 334.85 42.462C335.136 41.9247 335.522 41.5303 336.007 41.279C336.501 41.0277 337.06 40.902 337.684 40.902C338.039 40.902 338.382 40.941 338.711 41.019C339.04 41.0883 339.309 41.175 339.517 41.279L339.166 42.228C338.958 42.15 338.715 42.0763 338.438 42.007C338.161 41.9377 337.901 41.903 337.658 41.903C337.19 41.903 336.804 42.0027 336.501 42.202C336.198 42.4013 335.972 42.696 335.825 43.086C335.678 43.476 335.604 43.9613 335.604 44.542C335.604 45.0967 335.678 45.569 335.825 45.959C335.972 46.349 336.193 46.6437 336.488 46.843C336.783 47.0423 337.151 47.142 337.593 47.142C337.974 47.142 338.308 47.103 338.594 47.025C338.889 46.947 339.157 46.8517 339.4 46.739V47.753C339.166 47.8743 338.906 47.9653 338.62 48.026C338.343 48.0953 338.005 48.13 337.606 48.13ZM345.867 41.994H343.592V48H342.461V41.994H340.212V41.032H345.867V41.994ZM352.843 42.787C352.843 43.2203 352.713 43.5583 352.453 43.801C352.193 44.0437 351.859 44.2083 351.452 44.295V44.347C351.885 44.4077 352.262 44.5637 352.583 44.815C352.904 45.0577 353.064 45.439 353.064 45.959C353.064 46.2537 353.008 46.5267 352.895 46.778C352.791 47.0293 352.626 47.246 352.401 47.428C352.176 47.61 351.885 47.753 351.53 47.857C351.175 47.9523 350.746 48 350.243 48H347.24V41.032H350.23C350.724 41.032 351.166 41.0883 351.556 41.201C351.955 41.305 352.267 41.487 352.492 41.747C352.726 41.9983 352.843 42.345 352.843 42.787ZM351.881 45.959C351.881 45.5603 351.729 45.2743 351.426 45.101C351.123 44.9277 350.676 44.841 350.087 44.841H348.384V47.077H350.113C350.685 47.077 351.123 46.9947 351.426 46.83C351.729 46.6567 351.881 46.3663 351.881 45.959ZM351.686 42.93C351.686 42.6007 351.565 42.3623 351.322 42.215C351.088 42.059 350.702 41.981 350.165 41.981H348.384V43.892H349.957C350.52 43.892 350.949 43.814 351.244 43.658C351.539 43.502 351.686 43.2593 351.686 42.93ZM360.788 44.503C360.788 45.0837 360.71 45.5993 360.554 46.05C360.407 46.492 360.19 46.869 359.904 47.181C359.627 47.493 359.284 47.7313 358.877 47.896C358.478 48.052 358.032 48.13 357.538 48.13C357.079 48.13 356.654 48.052 356.264 47.896C355.874 47.7313 355.536 47.493 355.25 47.181C354.964 46.869 354.739 46.492 354.574 46.05C354.418 45.5993 354.34 45.0837 354.34 44.503C354.34 43.7317 354.47 43.0817 354.73 42.553C354.99 42.0157 355.363 41.6083 355.848 41.331C356.333 41.045 356.91 40.902 357.577 40.902C358.21 40.902 358.764 41.045 359.241 41.331C359.726 41.6083 360.103 42.0157 360.372 42.553C360.649 43.0817 360.788 43.7317 360.788 44.503ZM355.523 44.503C355.523 45.049 355.592 45.5257 355.731 45.933C355.878 46.3317 356.104 46.6393 356.407 46.856C356.71 47.0727 357.096 47.181 357.564 47.181C358.032 47.181 358.418 47.0727 358.721 46.856C359.024 46.6393 359.245 46.3317 359.384 45.933C359.531 45.5257 359.605 45.049 359.605 44.503C359.605 43.9483 359.531 43.476 359.384 43.086C359.237 42.696 359.011 42.397 358.708 42.189C358.413 41.9723 358.028 41.864 357.551 41.864C356.84 41.864 356.325 42.098 356.004 42.566C355.683 43.034 355.523 43.6797 355.523 44.503Z" fill="#3F42EA"/>
</svg>
