<svg width="50" height="31" viewBox="0 0 50 31" fill="none" xmlns="http://www.w3.org/2000/svg">
<path d="M17.3634 15.0357H13.4252C13.1695 15.0357 12.9242 15.1373 12.7434 15.3182C12.5625 15.499 12.4609 15.7443 12.4609 16C12.4609 16.2558 12.5625 16.501 12.7434 16.6819C12.9242 16.8627 13.1695 16.9643 13.4252 16.9643H17.3634C17.9548 16.9648 18.5223 16.7305 18.9411 16.3128C19.3598 15.8951 19.5956 15.3283 19.5967 14.7368V6.86053C19.5961 6.26974 19.3614 5.70327 18.9438 5.28533C18.5262 4.8674 17.9599 4.63212 17.3692 4.6311H13.4252C13.1695 4.6311 12.9242 4.7327 12.7434 4.91354C12.5625 5.09438 12.4609 5.33964 12.4609 5.59539C12.4609 5.85113 12.5625 6.0964 12.7434 6.27724C12.9242 6.45808 13.1695 6.55967 13.4252 6.55967H17.3634C17.4428 6.56018 17.5189 6.59211 17.5749 6.64847C17.6309 6.70484 17.6623 6.78107 17.6623 6.86053V9.8286H13.4252C13.1695 9.8286 12.9242 9.9302 12.7434 10.111C12.5625 10.2919 12.4609 10.5371 12.4609 10.7929C12.4609 11.0486 12.5625 11.2939 12.7434 11.4747C12.9242 11.6556 13.1695 11.7572 13.4252 11.7572H17.6681V14.731C17.6689 14.7713 17.6615 14.8112 17.6465 14.8486C17.6315 14.8859 17.609 14.9198 17.5806 14.9482C17.5521 14.9767 17.5182 14.9991 17.4809 15.0142C17.4436 15.0292 17.4036 15.0365 17.3634 15.0357Z" fill="black"/>
<path d="M28.6944 14.7368V12.0619C28.6949 11.4704 28.4605 10.903 28.0429 10.4842C27.6252 10.0654 27.0583 9.82963 26.4669 9.8286H23.4911V6.86053C23.4911 6.78074 23.5228 6.70422 23.5792 6.64779C23.6356 6.59137 23.7121 6.55967 23.7919 6.55967H27.7301C27.9858 6.55967 28.2311 6.45808 28.4119 6.27724C28.5928 6.0964 28.6944 5.85113 28.6944 5.59539C28.6944 5.33964 28.5928 5.09438 28.4119 4.91354C28.2311 4.7327 27.9858 4.6311 27.7301 4.6311H23.7919C23.201 4.63212 22.6345 4.86734 22.2166 5.28522C21.7987 5.70309 21.5635 6.26956 21.5625 6.86053V14.7368C21.564 15.3275 21.7995 15.8934 22.2173 16.3109C22.6351 16.7284 23.2013 16.9633 23.7919 16.9643H26.4669C27.0573 16.9633 27.6233 16.7283 28.0408 16.3108C28.4583 15.8933 28.6933 15.3273 28.6944 14.7368ZM26.7658 14.7368C26.7658 14.8161 26.7343 14.8921 26.6782 14.9482C26.6222 15.0043 26.5461 15.0357 26.4669 15.0357H23.7919C23.7525 15.036 23.7134 15.0285 23.6769 15.0135C23.6404 14.9986 23.6073 14.9767 23.5793 14.9489C23.5513 14.9211 23.5292 14.8881 23.514 14.8517C23.4989 14.8153 23.4911 14.7762 23.4911 14.7368V11.7572H26.4669C26.5461 11.7572 26.6222 11.7887 26.6782 11.8447C26.7343 11.9008 26.7658 11.9768 26.7658 12.0561V14.7368Z" fill="black"/>
<path d="M33.5085 16.9642H34.9607C35.7138 16.9642 36.4361 16.6652 36.9688 16.1328C37.5015 15.6005 37.801 14.8784 37.8015 14.1253V7.46984C37.8005 6.71691 37.5008 5.99513 36.9682 5.46291C36.4356 4.93069 35.7137 4.63149 34.9607 4.63098H33.5085C32.7557 4.632 32.0341 4.93136 31.5016 5.46347C30.9691 5.99559 30.6693 6.71706 30.6677 7.46984V14.1253C30.6687 14.8783 30.9684 15.6 31.501 16.1323C32.0336 16.6645 32.7556 16.9637 33.5085 16.9642ZM32.5963 7.46984C32.5968 7.22824 32.6931 6.99671 32.8642 6.82605C33.0352 6.6554 33.2669 6.55955 33.5085 6.55955H34.9607C35.2023 6.55955 35.4341 6.6554 35.6051 6.82605C35.7761 6.99671 35.8724 7.22824 35.8729 7.46984V14.1253C35.8724 14.3669 35.7761 14.5985 35.6051 14.7691C35.4341 14.9398 35.2023 15.0356 34.9607 15.0356H33.5085C33.2669 15.0356 33.0352 14.9398 32.8642 14.7691C32.6931 14.5985 32.5968 14.3669 32.5963 14.1253V7.46984Z" fill="black"/>
<path d="M40.707 6.01764C41.2244 6.01802 41.7302 5.86492 42.1606 5.57771C42.5909 5.2905 42.9264 4.88209 43.1246 4.40416C43.3228 3.92623 43.3747 3.40025 43.2739 2.89278C43.173 2.38531 42.9239 1.91916 42.5581 1.55331C42.1922 1.18746 41.7261 0.938354 41.2186 0.83751C40.7111 0.736665 40.1852 0.788617 39.7072 0.98679C39.2293 1.18496 38.8209 1.52045 38.5337 1.9508C38.2465 2.38116 38.0934 2.88703 38.0938 3.40443C38.0948 4.09718 38.3704 4.76127 38.8603 5.25112C39.3501 5.74097 40.0142 6.01662 40.707 6.01764ZM40.707 2.71785C40.8428 2.71747 40.9758 2.75741 41.0889 2.83262C41.2021 2.90783 41.2904 3.01493 41.3426 3.14035C41.3949 3.26577 41.4088 3.40387 41.3825 3.53718C41.3562 3.67049 41.291 3.79301 41.1951 3.88922C41.0991 3.98543 40.9768 4.05101 40.8435 4.07766C40.7103 4.10431 40.5722 4.09082 40.4466 4.03892C40.321 3.98701 40.2137 3.89901 40.1382 3.78606C40.0626 3.67312 40.0223 3.5403 40.0223 3.40443C40.0221 3.31435 40.0396 3.22512 40.0739 3.14183C40.1082 3.05854 40.1586 2.98284 40.2222 2.91906C40.2858 2.85528 40.3613 2.80468 40.4445 2.77015C40.5277 2.73563 40.6169 2.71785 40.707 2.71785Z" fill="black"/>
<path d="M22.3826 22.2253C22.2937 22.1332 22.1873 22.0598 22.0696 22.0092C21.952 21.9587 21.8254 21.9321 21.6974 21.931C21.5694 21.9299 21.4424 21.9543 21.3239 22.0027C21.2054 22.0512 21.0977 22.1228 21.0072 22.2134C20.9166 22.3039 20.845 22.4116 20.7965 22.5301C20.7481 22.6486 20.7237 22.7756 20.7248 22.9036C20.7259 23.0316 20.7525 23.1582 20.803 23.2758C20.8536 23.3935 20.927 23.4999 21.0191 23.5888L22.6295 25.1973C10.9346 24.8443 2.8192 21.9148 2.8192 19.452C2.8192 18.5553 4.1692 17.1532 7.94341 15.9035C8.06371 15.8637 8.175 15.8006 8.27093 15.7179C8.36685 15.6351 8.44554 15.5342 8.50249 15.4211C8.55944 15.3079 8.59353 15.1846 8.60284 15.0582C8.61214 14.9319 8.59646 14.8049 8.5567 14.6846C8.51693 14.5643 8.45387 14.453 8.37109 14.3571C8.28832 14.2612 8.18747 14.1825 8.07428 14.1255C7.9611 14.0686 7.83781 14.0345 7.71145 14.0252C7.58509 14.0159 7.45814 14.0316 7.33784 14.0713C3.12005 15.4676 0.890625 17.3268 0.890625 19.452C0.890625 24.3178 12.1323 26.8288 22.7047 27.1316L21.0191 28.8172C20.8381 28.998 20.7362 29.2433 20.7361 29.4992C20.7359 29.7551 20.8373 30.0006 21.0182 30.1816C21.199 30.3627 21.4443 30.4645 21.7002 30.4647C21.9561 30.4649 22.2016 30.3634 22.3826 30.1826L25.6805 26.8848C25.8613 26.7039 25.9628 26.4587 25.9628 26.203C25.9628 25.9473 25.8613 25.7021 25.6805 25.5213L22.3826 22.2253Z" fill="black"/>
<path d="M42.6577 14.0713C42.5365 14.0274 42.4077 14.0082 42.2789 14.0148C42.1502 14.0215 42.0241 14.054 41.9081 14.1103C41.7921 14.1665 41.6885 14.2455 41.6036 14.3425C41.5186 14.4395 41.454 14.5525 41.4135 14.6749C41.373 14.7973 41.3574 14.9266 41.3678 15.0551C41.3781 15.1836 41.4141 15.3088 41.4736 15.4232C41.5332 15.5375 41.6151 15.6388 41.7144 15.7209C41.8138 15.8031 41.9286 15.8645 42.0521 15.9015C45.8263 17.157 47.1763 18.5552 47.1763 19.452C47.1763 21.7663 40.1525 24.5897 28.8086 25.1471C28.682 25.1501 28.5572 25.1781 28.4414 25.2294C28.3255 25.2806 28.2209 25.3542 28.1335 25.4459C27.957 25.6311 27.8613 25.8788 27.8675 26.1345C27.8736 26.3903 27.9811 26.6331 28.1663 26.8096C28.3514 26.9861 28.5991 27.0818 28.8549 27.0757H28.9012C38.9568 26.58 49.1049 24.0324 49.1049 19.452C49.1049 17.3267 46.8755 15.4676 42.6577 14.0713Z" fill="black"/>
</svg>
