<svg width="786" height="678" viewBox="0 0 786 678" fill="none" xmlns="http://www.w3.org/2000/svg">
<g filter="url(#filter0_ii_2010_3436)">
<path d="M328.411 186.294C328.939 187.884 330.657 188.745 332.247 188.216L359.482 179.161C361.072 178.632 362.789 179.493 363.318 181.083L382.298 238.169C382.826 239.759 381.966 241.476 380.376 242.005L353.141 251.06C351.551 251.589 350.69 253.306 351.219 254.896L361.005 284.331C361.534 285.921 360.674 287.638 359.084 288.167L281.573 313.937C279.983 314.466 278.266 313.606 277.737 312.016L267.951 282.581C267.422 280.991 265.705 280.131 264.115 280.659L104.593 333.696C103.003 334.225 101.285 333.365 100.757 331.775L81.275 273.179C80.987 272.312 81.1043 271.363 81.5945 270.592L200.807 83.2817C201.182 82.6933 201.747 82.2518 202.409 82.0318L281.775 55.6445C283.365 55.1158 285.083 55.9762 285.611 57.5662L328.411 186.294ZM226.361 157.49C225.558 155.076 222.32 154.663 220.936 156.797L169.106 236.763C167.547 239.169 169.888 242.196 172.61 241.292L243.221 217.815C244.81 217.287 245.671 215.569 245.142 213.979L226.361 157.49Z" fill="#121010"/>
</g>
<path fill-rule="evenodd" clip-rule="evenodd" d="M264.114 280.659C265.704 280.131 267.422 280.991 267.95 282.581L278.694 314.895L316.307 289.515C317.353 288.81 317.853 287.53 317.563 286.302L301.264 217.377L264.506 111.871C264.232 111.085 263.647 110.446 262.888 110.104L201.386 82.372L81.594 270.592C81.1039 271.363 80.9865 272.312 81.2745 273.179L100.756 331.775C101.285 333.365 103.002 334.225 104.592 333.696L264.114 280.659ZM172.609 241.292C169.888 242.197 167.546 239.169 169.106 236.763L220.936 156.797C222.319 154.663 225.558 155.076 226.361 157.49L245.142 213.979C245.67 215.569 244.81 217.287 243.22 217.815L172.609 241.292Z" fill="#121010"/>
<g filter="url(#filter1_ii_2010_3436)">
<path d="M328.411 186.294C328.939 187.884 330.657 188.745 332.247 188.216L359.482 179.161C361.072 178.632 362.789 179.493 363.318 181.083L382.298 238.169C382.826 239.759 381.966 241.476 380.376 242.005L353.141 251.06C351.551 251.589 350.69 253.306 351.219 254.896L361.005 284.331C361.534 285.921 360.674 287.638 359.084 288.167L281.573 313.937C279.983 314.466 278.266 313.606 277.737 312.016L267.951 282.581C267.422 280.991 265.705 280.131 264.115 280.659L104.593 333.696C103.003 334.225 101.285 333.365 100.757 331.775L81.275 273.179C80.987 272.312 81.1043 271.363 81.5945 270.592L200.807 83.2817C201.182 82.6933 201.747 82.2518 202.409 82.0318L281.775 55.6445C283.365 55.1158 285.083 55.9762 285.611 57.5662L328.411 186.294ZM226.361 157.49C225.558 155.076 222.32 154.663 220.936 156.797L169.106 236.763C167.547 239.169 169.888 242.196 172.61 241.292L243.221 217.815C244.81 217.287 245.671 215.569 245.142 213.979L226.361 157.49Z" fill="#121010"/>
</g>
<path fill-rule="evenodd" clip-rule="evenodd" d="M264.114 280.659C265.704 280.131 267.422 280.991 267.95 282.581L278.694 314.895L316.307 289.515C317.353 288.81 317.853 287.53 317.563 286.302L301.264 217.377L264.506 111.871C264.232 111.085 263.647 110.446 262.888 110.104L201.386 82.372L81.594 270.592C81.1039 271.363 80.9865 272.312 81.2745 273.179L100.756 331.775C101.285 333.365 103.002 334.225 104.592 333.696L264.114 280.659ZM172.609 241.292C169.888 242.197 167.546 239.169 169.106 236.763L220.936 156.797C222.319 154.663 225.558 155.076 226.361 157.49L245.142 213.979C245.67 215.569 244.81 217.287 243.22 217.815L172.609 241.292Z" fill="#121010"/>
<g filter="url(#filter2_ddd_2010_3436)">
<path fill-rule="evenodd" clip-rule="evenodd" d="M691.071 445.023L665.551 458.59L601.144 492.832L537.953 526.427L487.8 526.427L473.303 560.798L499.146 609.407L626.987 541.441L641.459 568.662L705.866 534.42L691.394 507.199L716.913 493.632L691.071 445.023Z" fill="#AC262F"/>
</g>
<path d="M665.551 458.59L691.071 445.023L716.913 493.632L691.394 507.199L705.866 534.42L641.459 568.662L626.987 541.441L499.146 609.407L473.303 560.798L545.841 388.809L610.248 354.568L665.551 458.59ZM574.268 442.279L537.953 526.427L601.144 492.832L574.268 442.279Z" fill="#AC262F"/>
<path d="M665.551 458.59L691.071 445.023L716.913 493.632L691.394 507.199L705.866 534.42L641.459 568.662L626.987 541.441L499.146 609.407L473.303 560.798L545.841 388.809L610.248 354.568L665.551 458.59ZM574.268 442.279L537.953 526.427L601.144 492.832L574.268 442.279Z" fill="url(#paint0_radial_2010_3436)"/>
<path d="M665.551 458.59L691.071 445.023L716.913 493.632L691.394 507.199L705.866 534.42L641.459 568.662L626.987 541.441L499.146 609.407L473.303 560.798L545.841 388.809L610.248 354.568L665.551 458.59ZM574.268 442.279L537.953 526.427L601.144 492.832L574.268 442.279Z" fill="url(#paint1_diamond_2010_3436)"/>
<path d="M665.551 458.59L691.071 445.023L716.913 493.632L691.394 507.199L705.866 534.42L641.459 568.662L626.987 541.441L499.146 609.407L473.303 560.798L545.841 388.809L610.248 354.568L665.551 458.59ZM574.268 442.279L537.953 526.427L601.144 492.832L574.268 442.279Z" fill="url(#paint2_diamond_2010_3436)"/>
<path fill-rule="evenodd" clip-rule="evenodd" d="M601.144 492.832L537.953 526.427L524.776 560.798L615.358 516.647L601.144 492.832Z" fill="url(#paint3_linear_2010_3436)"/>
<g filter="url(#filter3_dddd_2010_3436)">
<path fill-rule="evenodd" clip-rule="evenodd" d="M537.381 429.891C560.711 417.298 577.617 399.021 588.102 375.059L527.072 348.355C522.186 360.397 513.813 368.804 501.953 373.578C490.323 378.261 475.583 376.698 457.733 368.888C440.043 361.147 428.972 351.417 424.519 339.698C420.137 327.817 420.711 315.997 426.239 304.237L359.902 275.211C353.58 288.348 350.252 303.179 349.92 319.703C349.588 336.227 355.819 353.515 368.613 371.568C381.569 389.691 403.806 405.648 435.326 419.439C480.194 439.071 514.213 442.555 537.381 429.891Z" fill="url(#paint4_linear_2010_3436)"/>
</g>
<path d="M515.061 234.438C546.8 247.72 568.899 262.821 581.358 279.742C593.885 296.502 599.807 312.651 599.124 328.188C598.509 343.564 595.012 358.766 588.633 373.793C578.413 397.869 561.709 416.332 538.52 429.181C515.492 442.099 481.438 438.991 436.356 419.855C404.686 406.411 382.274 390.7 369.119 372.721C356.127 354.811 349.705 337.592 349.856 321.066C350.006 304.539 353.17 289.672 359.347 276.467C365.246 262.571 373.869 250.117 385.217 239.106C396.796 228.003 413.356 221.111 434.897 218.432C456.669 215.66 483.391 220.995 515.061 234.438ZM458.204 369.059C476.139 376.672 490.896 378.073 502.473 373.262C514.28 368.357 522.56 359.858 527.312 347.764C532.437 336.59 532.559 325.296 527.679 313.88C522.961 302.533 511.634 293.053 493.698 285.44C475.924 277.895 461.317 276.367 449.877 280.855C438.437 285.343 430.478 293.311 426 304.759C420.601 316.579 420.158 328.405 424.671 340.237C429.252 351.907 440.43 361.514 458.204 369.059Z" fill="#FFFFF6"/>
<path d="M515.061 234.438C546.8 247.72 568.899 262.821 581.358 279.742C593.885 296.502 599.807 312.651 599.124 328.188C598.509 343.564 595.012 358.766 588.633 373.793C578.413 397.869 561.709 416.332 538.52 429.181C515.492 442.099 481.438 438.991 436.356 419.855C404.686 406.411 382.274 390.7 369.119 372.721C356.127 354.811 349.705 337.592 349.856 321.066C350.006 304.539 353.17 289.672 359.347 276.467C365.246 262.571 373.869 250.117 385.217 239.106C396.796 228.003 413.356 221.111 434.897 218.432C456.669 215.66 483.391 220.995 515.061 234.438ZM458.204 369.059C476.139 376.672 490.896 378.073 502.473 373.262C514.28 368.357 522.56 359.858 527.312 347.764C532.437 336.59 532.559 325.296 527.679 313.88C522.961 302.533 511.634 293.053 493.698 285.44C475.924 277.895 461.317 276.367 449.877 280.855C438.437 285.343 430.478 293.311 426 304.759C420.601 316.579 420.158 328.405 424.671 340.237C429.252 351.907 440.43 361.514 458.204 369.059Z" fill="url(#paint5_linear_2010_3436)"/>
<path d="M515.061 234.438C546.8 247.72 568.899 262.821 581.358 279.742C593.885 296.502 599.807 312.651 599.124 328.188C598.509 343.564 595.012 358.766 588.633 373.793C578.413 397.869 561.709 416.332 538.52 429.181C515.492 442.099 481.438 438.991 436.356 419.855C404.686 406.411 382.274 390.7 369.119 372.721C356.127 354.811 349.705 337.592 349.856 321.066C350.006 304.539 353.17 289.672 359.347 276.467C365.246 262.571 373.869 250.117 385.217 239.106C396.796 228.003 413.356 221.111 434.897 218.432C456.669 215.66 483.391 220.995 515.061 234.438ZM458.204 369.059C476.139 376.672 490.896 378.073 502.473 373.262C514.28 368.357 522.56 359.858 527.312 347.764C532.437 336.59 532.559 325.296 527.679 313.88C522.961 302.533 511.634 293.053 493.698 285.44C475.924 277.895 461.317 276.367 449.877 280.855C438.437 285.343 430.478 293.311 426 304.759C420.601 316.579 420.158 328.405 424.671 340.237C429.252 351.907 440.43 361.514 458.204 369.059Z" fill="url(#paint6_radial_2010_3436)"/>
<path d="M515.061 234.438C546.8 247.72 568.899 262.821 581.358 279.742C593.885 296.502 599.807 312.651 599.124 328.188C598.509 343.564 595.012 358.766 588.633 373.793C578.413 397.869 561.709 416.332 538.52 429.181C515.492 442.099 481.438 438.991 436.356 419.855C404.686 406.411 382.274 390.7 369.119 372.721C356.127 354.811 349.705 337.592 349.856 321.066C350.006 304.539 353.17 289.672 359.347 276.467C365.246 262.571 373.869 250.117 385.217 239.106C396.796 228.003 413.356 221.111 434.897 218.432C456.669 215.66 483.391 220.995 515.061 234.438ZM458.204 369.059C476.139 376.672 490.896 378.073 502.473 373.262C514.28 368.357 522.56 359.858 527.312 347.764C532.437 336.59 532.559 325.296 527.679 313.88C522.961 302.533 511.634 293.053 493.698 285.44C475.924 277.895 461.317 276.367 449.877 280.855C438.437 285.343 430.478 293.311 426 304.759C420.601 316.579 420.158 328.405 424.671 340.237C429.252 351.907 440.43 361.514 458.204 369.059Z" fill="url(#paint7_radial_2010_3436)"/>
<path d="M515.061 234.438C546.8 247.72 568.899 262.821 581.358 279.742C593.885 296.502 599.807 312.651 599.124 328.188C598.509 343.564 595.012 358.766 588.633 373.793C578.413 397.869 561.709 416.332 538.52 429.181C515.492 442.099 481.438 438.991 436.356 419.855C404.686 406.411 382.274 390.7 369.119 372.721C356.127 354.811 349.705 337.592 349.856 321.066C350.006 304.539 353.17 289.672 359.347 276.467C365.246 262.571 373.869 250.117 385.217 239.106C396.796 228.003 413.356 221.111 434.897 218.432C456.669 215.66 483.391 220.995 515.061 234.438ZM458.204 369.059C476.139 376.672 490.896 378.073 502.473 373.262C514.28 368.357 522.56 359.858 527.312 347.764C532.437 336.59 532.559 325.296 527.679 313.88C522.961 302.533 511.634 293.053 493.698 285.44C475.924 277.895 461.317 276.367 449.877 280.855C438.437 285.343 430.478 293.311 426 304.759C420.601 316.579 420.158 328.405 424.671 340.237C429.252 351.907 440.43 361.514 458.204 369.059Z" fill="url(#paint8_radial_2010_3436)"/>
<g filter="url(#filter4_d_2010_3436)">
<path d="M446.134 322.817L434.42 317.845L440.38 303.805L452.093 308.777L450.97 311.425L442.084 307.653L440.756 310.782L448.638 314.128L447.583 316.615L439.7 313.269L438.372 316.398L447.257 320.17L446.134 322.817Z" fill="white"/>
<path d="M451.351 325.032L448.523 323.832L454.483 309.791L462.004 312.984C463.729 313.716 464.838 314.581 465.329 315.579C465.84 316.569 465.783 317.8 465.159 319.271C464.416 321.022 463.343 321.987 461.942 322.166C462.742 323.105 462.847 324.27 462.257 325.661L460.818 329.051L458.01 327.859L459.398 324.589C459.636 324.028 459.636 323.546 459.396 323.145C459.169 322.749 458.682 322.392 457.933 322.074L453.42 320.158L451.351 325.032ZM454.535 317.531L459.048 319.446C459.864 319.792 460.518 319.888 461.009 319.734C461.506 319.566 461.9 319.142 462.189 318.46C462.479 317.778 462.505 317.213 462.269 316.766C462.039 316.305 461.516 315.901 460.7 315.555L456.187 313.639L454.535 317.531Z" fill="white"/>
<path d="M466.414 331.426L463.586 330.225L469.546 316.185L477.067 319.378C478.792 320.11 479.901 320.975 480.392 321.973C480.903 322.963 480.846 324.193 480.222 325.664C479.478 327.416 478.406 328.381 477.005 328.56C477.805 329.499 477.91 330.664 477.32 332.055L475.881 335.445L473.073 334.253L474.461 330.983C474.699 330.422 474.699 329.94 474.459 329.538C474.232 329.142 473.745 328.785 472.996 328.468L468.483 326.552L466.414 331.426ZM469.598 323.924L474.111 325.84C474.927 326.186 475.58 326.282 476.072 326.128C476.569 325.96 476.963 325.535 477.252 324.853C477.542 324.172 477.568 323.607 477.332 323.159C477.102 322.699 476.579 322.295 475.763 321.949L471.25 320.033L469.598 323.924Z" fill="white"/>
<path d="M491.111 325.126C493.625 326.193 495.209 327.536 495.864 329.155C496.531 330.78 496.328 332.856 495.256 335.383C494.189 337.897 492.836 339.485 491.198 340.147C489.579 340.801 487.512 340.595 484.998 339.528C482.471 338.455 480.88 337.109 480.226 335.49C479.578 333.857 479.787 331.784 480.854 329.27C481.927 326.743 483.273 325.152 484.892 324.498C486.511 323.844 488.584 324.053 491.111 325.126ZM486.178 327.435C485.176 327.862 484.338 328.871 483.662 330.462C482.987 332.054 482.844 333.358 483.232 334.375C483.621 335.392 484.585 336.227 486.122 336.88C487.66 337.533 488.93 337.646 489.932 337.219C490.934 336.792 491.772 335.783 492.448 334.192C493.123 332.6 493.266 331.296 492.878 330.279C492.494 329.248 491.534 328.407 489.996 327.754C488.458 327.101 487.186 326.995 486.178 327.435Z" fill="white"/>
<path d="M497.382 344.571L494.554 343.371L500.514 329.33L508.035 332.523C509.76 333.255 510.868 334.12 511.36 335.118C511.871 336.108 511.814 337.339 511.19 338.809C510.446 340.561 509.374 341.526 507.973 341.705C508.773 342.644 508.878 343.809 508.288 345.2L506.849 348.59L504.041 347.398L505.429 344.128C505.667 343.567 505.666 343.085 505.427 342.683C505.2 342.287 504.713 341.931 503.964 341.613L499.451 339.697L497.382 344.571ZM500.566 337.069L505.079 338.985C505.895 339.331 506.548 339.427 507.04 339.273C507.537 339.105 507.931 338.681 508.22 337.999C508.51 337.317 508.536 336.752 508.3 336.305C508.07 335.844 507.546 335.44 506.731 335.094L502.218 333.178L500.566 337.069Z" fill="white"/>
</g>
<defs>
<filter id="filter0_ii_2010_3436" x="79.3865" y="55.4888" width="303.067" height="281.397" filterUnits="userSpaceOnUse" color-interpolation-filters="sRGB">
<feFlood flood-opacity="0" result="BackgroundImageFix"/>
<feBlend mode="normal" in="SourceGraphic" in2="BackgroundImageFix" result="shape"/>
<feColorMatrix in="SourceAlpha" type="matrix" values="0 0 0 0 0 0 0 0 0 0 0 0 0 0 0 0 0 0 127 0" result="hardAlpha"/>
<feOffset dx="-1.73365" dy="3.03388"/>
<feGaussianBlur stdDeviation="8.19148"/>
<feComposite in2="hardAlpha" operator="arithmetic" k2="-1" k3="1"/>
<feColorMatrix type="matrix" values="0 0 0 0 0.67451 0 0 0 0 0.14902 0 0 0 0 0.184314 0 0 0 1 0"/>
<feBlend mode="normal" in2="shape" result="effect1_innerShadow_2010_3436"/>
<feColorMatrix in="SourceAlpha" type="matrix" values="0 0 0 0 0 0 0 0 0 0 0 0 0 0 0 0 0 0 127 0" result="hardAlpha"/>
<feOffset dy="1.73365"/>
<feGaussianBlur stdDeviation="2.14539"/>
<feComposite in2="hardAlpha" operator="arithmetic" k2="-1" k3="1"/>
<feColorMatrix type="matrix" values="0 0 0 0 0.960784 0 0 0 0 0 0 0 0 0 0 0 0 0 1 0"/>
<feBlend mode="normal" in2="effect1_innerShadow_2010_3436" result="effect2_innerShadow_2010_3436"/>
</filter>
<filter id="filter1_ii_2010_3436" x="79.3865" y="55.4888" width="303.067" height="281.397" filterUnits="userSpaceOnUse" color-interpolation-filters="sRGB">
<feFlood flood-opacity="0" result="BackgroundImageFix"/>
<feBlend mode="normal" in="SourceGraphic" in2="BackgroundImageFix" result="shape"/>
<feColorMatrix in="SourceAlpha" type="matrix" values="0 0 0 0 0 0 0 0 0 0 0 0 0 0 0 0 0 0 127 0" result="hardAlpha"/>
<feOffset dx="-1.73365" dy="3.03388"/>
<feGaussianBlur stdDeviation="8.19148"/>
<feComposite in2="hardAlpha" operator="arithmetic" k2="-1" k3="1"/>
<feColorMatrix type="matrix" values="0 0 0 0 0.67451 0 0 0 0 0.14902 0 0 0 0 0.184314 0 0 0 1 0"/>
<feBlend mode="normal" in2="shape" result="effect1_innerShadow_2010_3436"/>
<feColorMatrix in="SourceAlpha" type="matrix" values="0 0 0 0 0 0 0 0 0 0 0 0 0 0 0 0 0 0 127 0" result="hardAlpha"/>
<feOffset dy="1.73365"/>
<feGaussianBlur stdDeviation="2.14539"/>
<feComposite in2="hardAlpha" operator="arithmetic" k2="-1" k3="1"/>
<feColorMatrix type="matrix" values="0 0 0 0 0.960784 0 0 0 0 0 0 0 0 0 0 0 0 0 1 0"/>
<feBlend mode="normal" in2="effect1_innerShadow_2010_3436" result="effect2_innerShadow_2010_3436"/>
</filter>
<filter id="filter2_ddd_2010_3436" x="405.025" y="376.745" width="380.167" height="300.941" filterUnits="userSpaceOnUse" color-interpolation-filters="sRGB">
<feFlood flood-opacity="0" result="BackgroundImageFix"/>
<feColorMatrix in="SourceAlpha" type="matrix" values="0 0 0 0 0 0 0 0 0 0 0 0 0 0 0 0 0 0 127 0" result="hardAlpha"/>
<feOffset/>
<feGaussianBlur stdDeviation="9.95726"/>
<feColorMatrix type="matrix" values="0 0 0 0 0.921569 0 0 0 0 0 0 0 0 0 0 0 0 0 1 0"/>
<feBlend mode="normal" in2="BackgroundImageFix" result="effect1_dropShadow_2010_3436"/>
<feColorMatrix in="SourceAlpha" type="matrix" values="0 0 0 0 0 0 0 0 0 0 0 0 0 0 0 0 0 0 127 0" result="hardAlpha"/>
<feOffset/>
<feGaussianBlur stdDeviation="19.9145"/>
<feColorMatrix type="matrix" values="0 0 0 0 0.921569 0 0 0 0 0 0 0 0 0 0 0 0 0 1 0"/>
<feBlend mode="normal" in2="effect1_dropShadow_2010_3436" result="effect2_dropShadow_2010_3436"/>
<feColorMatrix in="SourceAlpha" type="matrix" values="0 0 0 0 0 0 0 0 0 0 0 0 0 0 0 0 0 0 127 0" result="hardAlpha"/>
<feOffset/>
<feGaussianBlur stdDeviation="34.1392"/>
<feColorMatrix type="matrix" values="0 0 0 0 0.921569 0 0 0 0 0 0 0 0 0 0 0 0 0 1 0"/>
<feBlend mode="normal" in2="effect2_dropShadow_2010_3436" result="effect3_dropShadow_2010_3436"/>
<feBlend mode="normal" in="SourceGraphic" in2="effect3_dropShadow_2010_3436" result="shape"/>
</filter>
<filter id="filter3_dddd_2010_3436" x="313.511" y="268.096" width="289.911" height="207.717" filterUnits="userSpaceOnUse" color-interpolation-filters="sRGB">
<feFlood flood-opacity="0" result="BackgroundImageFix"/>
<feColorMatrix in="SourceAlpha" type="matrix" values="0 0 0 0 0 0 0 0 0 0 0 0 0 0 0 0 0 0 127 0" result="hardAlpha"/>
<feOffset dx="-1.36187" dy="3.40466"/>
<feGaussianBlur stdDeviation="2.24233"/>
<feColorMatrix type="matrix" values="0 0 0 0 0.933333 0 0 0 0 0.00392157 0 0 0 0 0 0 0 0 1 0"/>
<feBlend mode="normal" in2="BackgroundImageFix" result="effect1_dropShadow_2010_3436"/>
<feColorMatrix in="SourceAlpha" type="matrix" values="0 0 0 0 0 0 0 0 0 0 0 0 0 0 0 0 0 0 127 0" result="hardAlpha"/>
<feOffset dx="-5.107" dy="9.19259"/>
<feGaussianBlur stdDeviation="3.7962"/>
<feColorMatrix type="matrix" values="0 0 0 0 0.933333 0 0 0 0 0.00392157 0 0 0 0 0 0 0 0 1 0"/>
<feBlend mode="normal" in2="effect1_dropShadow_2010_3436" result="effect2_dropShadow_2010_3436"/>
<feColorMatrix in="SourceAlpha" type="matrix" values="0 0 0 0 0 0 0 0 0 0 0 0 0 0 0 0 0 0 127 0" result="hardAlpha"/>
<feOffset dx="-19.4066" dy="9.87353"/>
<feGaussianBlur stdDeviation="8.49464"/>
<feColorMatrix type="matrix" values="0 0 0 0 0.933333 0 0 0 0 0.00392157 0 0 0 0 0 0 0 0 0.21 0"/>
<feBlend mode="normal" in2="effect2_dropShadow_2010_3436" result="effect3_dropShadow_2010_3436"/>
<feColorMatrix in="SourceAlpha" type="matrix" values="0 0 0 0 0 0 0 0 0 0 0 0 0 0 0 0 0 0 127 0" result="hardAlpha"/>
<feOffset dx="-4.76653" dy="18.3852"/>
<feGaussianBlur stdDeviation="10.0438"/>
<feColorMatrix type="matrix" values="0 0 0 0 0.933333 0 0 0 0 0.00392157 0 0 0 0 0 0 0 0 1 0"/>
<feBlend mode="normal" in2="effect3_dropShadow_2010_3436" result="effect4_dropShadow_2010_3436"/>
<feBlend mode="normal" in="SourceGraphic" in2="effect4_dropShadow_2010_3436" result="shape"/>
</filter>
<filter id="filter4_d_2010_3436" x="431.424" y="301.149" width="83.2774" height="50.7769" filterUnits="userSpaceOnUse" color-interpolation-filters="sRGB">
<feFlood flood-opacity="0" result="BackgroundImageFix"/>
<feColorMatrix in="SourceAlpha" type="matrix" values="0 0 0 0 0 0 0 0 0 0 0 0 0 0 0 0 0 0 127 0" result="hardAlpha"/>
<feOffset dy="0.340466"/>
<feGaussianBlur stdDeviation="1.49805"/>
<feComposite in2="hardAlpha" operator="out"/>
<feColorMatrix type="matrix" values="0 0 0 0 1 0 0 0 0 0.00392157 0 0 0 0 0.00392157 0 0 0 1 0"/>
<feBlend mode="normal" in2="BackgroundImageFix" result="effect1_dropShadow_2010_3436"/>
<feBlend mode="normal" in="SourceGraphic" in2="effect1_dropShadow_2010_3436" result="shape"/>
</filter>
<radialGradient id="paint0_radial_2010_3436" cx="0" cy="0" r="1" gradientUnits="userSpaceOnUse" gradientTransform="translate(627.993 381.041) rotate(61.344) scale(89.4348 135.49)">
<stop stop-color="#E60201" stop-opacity="0.892997"/>
<stop offset="0.522272" stop-color="#E60201"/>
<stop offset="1" stop-color="#E60201" stop-opacity="0"/>
</radialGradient>
<radialGradient id="paint1_diamond_2010_3436" cx="0" cy="0" r="1" gradientUnits="userSpaceOnUse" gradientTransform="translate(608.951 359.686) rotate(61.3402) scale(346.192 85.6998)">
<stop stop-color="#FFCD01"/>
<stop offset="0.302543" stop-color="#FFCD01" stop-opacity="0"/>
</radialGradient>
<radialGradient id="paint2_diamond_2010_3436" cx="0" cy="0" r="1" gradientUnits="userSpaceOnUse" gradientTransform="translate(608.951 359.686) rotate(155.269) scale(308.395 115.538)">
<stop stop-color="#FFCD01"/>
<stop offset="0.294226" stop-color="#FFCD01" stop-opacity="0"/>
</radialGradient>
<linearGradient id="paint3_linear_2010_3436" x1="574.605" y1="509.172" x2="584.571" y2="531.417" gradientUnits="userSpaceOnUse">
<stop stop-color="#FFCC01"/>
<stop offset="0.412184" stop-color="#D37419"/>
<stop offset="0.704038" stop-color="#BF4B25"/>
<stop offset="0.972636" stop-color="#AC262F"/>
</linearGradient>
<linearGradient id="paint4_linear_2010_3436" x1="531.962" y1="238.134" x2="433.128" y2="418.477" gradientUnits="userSpaceOnUse">
<stop offset="0.12398" stop-color="#FFFFF6"/>
<stop offset="0.484258" stop-color="#FDD500"/>
<stop offset="0.769768" stop-color="#AC262F"/>
<stop offset="0.923879" stop-color="#3B0B0E"/>
</linearGradient>
<linearGradient id="paint5_linear_2010_3436" x1="512.853" y1="233.497" x2="426.221" y2="447.709" gradientUnits="userSpaceOnUse">
<stop offset="0.216908" stop-color="white"/>
<stop offset="0.299486" stop-color="#FED300"/>
<stop offset="0.422109" stop-color="#FED300"/>
<stop offset="0.518058" stop-color="white"/>
</linearGradient>
<radialGradient id="paint6_radial_2010_3436" cx="0" cy="0" r="1" gradientUnits="userSpaceOnUse" gradientTransform="translate(526.457 413.407) rotate(-139.024) scale(93.5735 72.0311)">
<stop offset="0.721331" stop-color="#AC262F"/>
<stop offset="1" stop-color="#AC262F" stop-opacity="0"/>
</radialGradient>
<radialGradient id="paint7_radial_2010_3436" cx="0" cy="0" r="1" gradientUnits="userSpaceOnUse" gradientTransform="translate(445.816 402.889) rotate(22.9788) scale(205.293 69.7465)">
<stop offset="0.594154" stop-color="#5B1318"/>
<stop offset="1" stop-color="#5B1318" stop-opacity="0"/>
</radialGradient>
<radialGradient id="paint8_radial_2010_3436" cx="0" cy="0" r="1" gradientUnits="userSpaceOnUse" gradientTransform="translate(381.067 320.524) rotate(23.3887) scale(120.024 45.4839)">
<stop offset="0.302733" stop-color="#FF0100"/>
<stop offset="1" stop-color="#AC262F" stop-opacity="0"/>
</radialGradient>
</defs>
</svg>
