<svg width="2158" height="946" viewBox="0 0 2158 946" fill="none" xmlns="http://www.w3.org/2000/svg">
<g filter="url(#filter0_dddd_2009_2181)">
<path fill-rule="evenodd" clip-rule="evenodd" d="M1358.95 722.219C1427.48 685.231 1477.13 631.547 1507.93 561.168L1328.67 482.736C1314.32 518.103 1289.73 542.797 1254.9 556.819C1220.74 570.575 1177.44 565.982 1125.01 543.042C1073.06 520.308 1040.54 491.73 1027.46 457.306C1014.59 422.411 1016.28 387.693 1032.51 353.153L837.673 267.901C819.103 306.486 809.329 350.045 808.353 398.579C807.377 447.113 825.679 497.892 863.258 550.914C901.31 604.144 966.626 651.012 1059.2 691.52C1190.99 749.181 1290.91 759.414 1358.95 722.219Z" fill="url(#paint0_linear_2009_2181)"/>
</g>
<path d="M1293.4 148.144C1386.62 187.155 1451.53 231.509 1488.12 281.209C1524.92 330.434 1542.31 377.865 1540.3 423.501C1538.5 468.663 1528.22 513.312 1509.49 557.449C1479.47 628.163 1430.41 682.391 1362.3 720.133C1294.66 758.076 1194.64 748.944 1062.23 692.739C969.21 653.254 903.382 607.109 864.746 554.302C826.584 501.696 807.724 451.123 808.165 402.581C808.606 354.039 817.899 310.375 836.043 271.588C853.368 230.773 878.696 194.196 912.028 161.855C946.035 129.242 994.674 109 1057.95 101.131C1121.89 92.9886 1200.38 108.66 1293.4 148.144ZM1126.4 543.545C1179.08 565.906 1222.42 570.021 1256.42 555.889C1291.1 541.484 1315.42 516.521 1329.38 480.998C1344.43 448.179 1344.79 415.006 1330.46 381.476C1316.6 348.149 1283.33 320.304 1230.65 297.943C1178.45 275.783 1135.54 271.295 1101.94 284.477C1068.34 297.66 1044.97 321.063 1031.81 354.687C1015.96 389.404 1014.65 424.138 1027.91 458.89C1041.36 493.167 1074.19 521.385 1126.4 543.545Z" fill="#FFFFF6"/>
<path d="M1293.4 148.144C1386.62 187.155 1451.53 231.509 1488.12 281.209C1524.92 330.434 1542.31 377.865 1540.3 423.501C1538.5 468.663 1528.22 513.312 1509.49 557.449C1479.47 628.163 1430.41 682.391 1362.3 720.133C1294.66 758.076 1194.64 748.944 1062.23 692.739C969.21 653.254 903.382 607.109 864.746 554.302C826.584 501.696 807.724 451.123 808.165 402.581C808.606 354.039 817.899 310.375 836.043 271.588C853.368 230.773 878.696 194.196 912.028 161.855C946.035 129.242 994.674 109 1057.95 101.131C1121.89 92.9886 1200.38 108.66 1293.4 148.144ZM1126.4 543.545C1179.08 565.906 1222.42 570.021 1256.42 555.889C1291.1 541.484 1315.42 516.521 1329.38 480.998C1344.43 448.179 1344.79 415.006 1330.46 381.476C1316.6 348.149 1283.33 320.304 1230.65 297.943C1178.45 275.783 1135.54 271.295 1101.94 284.477C1068.34 297.66 1044.97 321.063 1031.81 354.687C1015.96 389.404 1014.65 424.138 1027.91 458.89C1041.36 493.167 1074.19 521.385 1126.4 543.545Z" fill="url(#paint1_linear_2009_2181)"/>
<path d="M1293.4 148.144C1386.62 187.155 1451.53 231.509 1488.12 281.209C1524.92 330.434 1542.31 377.865 1540.3 423.501C1538.5 468.663 1528.22 513.312 1509.49 557.449C1479.47 628.163 1430.41 682.391 1362.3 720.133C1294.66 758.076 1194.64 748.944 1062.23 692.739C969.21 653.254 903.382 607.109 864.746 554.302C826.584 501.696 807.724 451.123 808.165 402.581C808.606 354.039 817.899 310.375 836.043 271.588C853.368 230.773 878.696 194.196 912.028 161.855C946.035 129.242 994.674 109 1057.95 101.131C1121.89 92.9886 1200.38 108.66 1293.4 148.144ZM1126.4 543.545C1179.08 565.906 1222.42 570.021 1256.42 555.889C1291.1 541.484 1315.42 516.521 1329.38 480.998C1344.43 448.179 1344.79 415.006 1330.46 381.476C1316.6 348.149 1283.33 320.304 1230.65 297.943C1178.45 275.783 1135.54 271.295 1101.94 284.477C1068.34 297.66 1044.97 321.063 1031.81 354.687C1015.96 389.404 1014.65 424.138 1027.91 458.89C1041.36 493.167 1074.19 521.385 1126.4 543.545Z" fill="url(#paint2_radial_2009_2181)"/>
<path d="M1293.4 148.144C1386.62 187.155 1451.53 231.509 1488.12 281.209C1524.92 330.434 1542.31 377.865 1540.3 423.501C1538.5 468.663 1528.22 513.312 1509.49 557.449C1479.47 628.163 1430.41 682.391 1362.3 720.133C1294.66 758.076 1194.64 748.944 1062.23 692.739C969.21 653.254 903.382 607.109 864.746 554.302C826.584 501.696 807.724 451.123 808.165 402.581C808.606 354.039 817.899 310.375 836.043 271.588C853.368 230.773 878.696 194.196 912.028 161.855C946.035 129.242 994.674 109 1057.95 101.131C1121.89 92.9886 1200.38 108.66 1293.4 148.144ZM1126.4 543.545C1179.08 565.906 1222.42 570.021 1256.42 555.889C1291.1 541.484 1315.42 516.521 1329.38 480.998C1344.43 448.179 1344.79 415.006 1330.46 381.476C1316.6 348.149 1283.33 320.304 1230.65 297.943C1178.45 275.783 1135.54 271.295 1101.94 284.477C1068.34 297.66 1044.97 321.063 1031.81 354.687C1015.96 389.404 1014.65 424.138 1027.91 458.89C1041.36 493.167 1074.19 521.385 1126.4 543.545Z" fill="url(#paint3_radial_2009_2181)"/>
<path d="M1293.4 148.144C1386.62 187.155 1451.53 231.509 1488.12 281.209C1524.92 330.434 1542.31 377.865 1540.3 423.501C1538.5 468.663 1528.22 513.312 1509.49 557.449C1479.47 628.163 1430.41 682.391 1362.3 720.133C1294.66 758.076 1194.64 748.944 1062.23 692.739C969.21 653.254 903.382 607.109 864.746 554.302C826.584 501.696 807.724 451.123 808.165 402.581C808.606 354.039 817.899 310.375 836.043 271.588C853.368 230.773 878.696 194.196 912.028 161.855C946.035 129.242 994.674 109 1057.95 101.131C1121.89 92.9886 1200.38 108.66 1293.4 148.144ZM1126.4 543.545C1179.08 565.906 1222.42 570.021 1256.42 555.889C1291.1 541.484 1315.42 516.521 1329.38 480.998C1344.43 448.179 1344.79 415.006 1330.46 381.476C1316.6 348.149 1283.33 320.304 1230.65 297.943C1178.45 275.783 1135.54 271.295 1101.94 284.477C1068.34 297.66 1044.97 321.063 1031.81 354.687C1015.96 389.404 1014.65 424.138 1027.91 458.89C1041.36 493.167 1074.19 521.385 1126.4 543.545Z" fill="url(#paint4_radial_2009_2181)"/>
<g filter="url(#filter1_ddd_2009_2181)">
<path fill-rule="evenodd" clip-rule="evenodd" d="M2004.76 343.264L1933.06 381.384L1752.1 477.59L1574.56 571.98L1433.65 571.98L1392.92 668.549L1465.53 805.121L1824.71 614.162L1865.37 690.642L2046.33 594.436L2005.67 517.956L2077.37 479.837L2004.76 343.264Z" fill="#AC262F"/>
</g>
<path d="M1933.06 381.384L2004.76 343.264L2077.37 479.837L2005.67 517.956L2046.33 594.436L1865.37 690.642L1824.71 614.162L1465.53 805.121L1392.92 668.549L1596.72 185.325L1777.68 89.1194L1933.06 381.384ZM1676.59 335.555L1574.56 571.98L1752.1 477.59L1676.59 335.555Z" fill="#AC262F"/>
<path d="M1933.06 381.384L2004.76 343.264L2077.37 479.837L2005.67 517.956L2046.33 594.436L1865.37 690.642L1824.71 614.162L1465.53 805.121L1392.92 668.549L1596.72 185.325L1777.68 89.1194L1933.06 381.384ZM1676.59 335.555L1574.56 571.98L1752.1 477.59L1676.59 335.555Z" fill="url(#paint5_radial_2009_2181)"/>
<path d="M1933.06 381.384L2004.76 343.264L2077.37 479.837L2005.67 517.956L2046.33 594.436L1865.37 690.642L1824.71 614.162L1465.53 805.121L1392.92 668.549L1596.72 185.325L1777.68 89.1194L1933.06 381.384ZM1676.59 335.555L1574.56 571.98L1752.1 477.59L1676.59 335.555Z" fill="url(#paint6_diamond_2009_2181)"/>
<path d="M1933.06 381.384L2004.76 343.264L2077.37 479.837L2005.67 517.956L2046.33 594.436L1865.37 690.642L1824.71 614.162L1465.53 805.121L1392.92 668.549L1596.72 185.325L1777.68 89.1194L1933.06 381.384ZM1676.59 335.555L1574.56 571.98L1752.1 477.59L1676.59 335.555Z" fill="url(#paint7_diamond_2009_2181)"/>
<path fill-rule="evenodd" clip-rule="evenodd" d="M1752.1 477.59L1574.56 571.98L1537.54 668.549L1792.04 544.5L1752.1 477.59Z" fill="url(#paint8_linear_2009_2181)"/>
<g filter="url(#filter2_ii_2009_2181)">
<path d="M683.824 445.338C685.639 448.751 689.877 450.047 693.291 448.233L751.762 417.146C755.176 415.332 759.414 416.628 761.229 420.041L826.387 542.6C828.202 546.013 826.906 550.252 823.492 552.066L765.021 583.152C761.607 584.967 760.311 589.206 762.126 592.619L795.723 655.813C797.537 659.226 796.241 663.465 792.828 665.28L626.42 753.75C623.007 755.564 618.769 754.268 616.954 750.855L583.357 687.661C581.542 684.248 577.304 682.952 573.89 684.766L231.412 866.844C227.999 868.659 223.76 867.363 221.946 863.949L155.064 738.149C154.076 736.289 153.977 734.083 154.795 732.143L353.873 260.124C354.498 258.641 355.615 257.419 357.036 256.664L527.428 166.076C530.841 164.261 535.08 165.557 536.894 168.971L683.824 445.338ZM440.579 419.104C437.824 413.921 430.297 414.227 427.971 419.616L340.852 621.487C338.23 627.562 344.723 633.548 350.565 630.442L502.16 549.846C505.574 548.032 506.87 543.793 505.055 540.38L440.579 419.104Z" fill="#121010"/>
</g>
<path fill-rule="evenodd" clip-rule="evenodd" d="M573.89 684.766C577.304 682.952 581.542 684.248 583.357 687.661L620.24 757.036L696.035 684.817C698.142 682.809 698.787 679.706 697.654 677.025L634.037 526.5L509.791 300.636C508.866 298.953 507.289 297.725 505.43 297.238L354.839 257.832L154.795 732.143C153.977 734.083 154.076 736.289 155.064 738.149L221.946 863.949C223.76 867.363 227.999 868.659 231.412 866.844L573.89 684.766ZM350.565 630.442C344.723 633.548 338.23 627.562 340.852 621.487L427.971 419.616C430.297 414.227 437.824 413.921 440.579 419.104L505.055 540.38C506.87 543.793 505.574 548.032 502.16 549.846L350.565 630.442Z" fill="#121010"/>
<g filter="url(#filter3_d_2009_2181)">
<path d="M1090.95 407.727L1056.54 393.123L1074.05 351.885L1108.45 366.489L1105.15 374.265L1079.05 363.187L1075.15 372.377L1098.3 382.205L1095.2 389.51L1072.05 379.682L1068.15 388.873L1094.25 399.951L1090.95 407.727ZM1106.27 414.232L1097.96 410.706L1115.47 369.467L1137.56 378.845C1142.63 380.996 1145.88 383.536 1147.33 386.467C1148.83 389.375 1148.66 392.989 1146.83 397.309C1144.64 402.454 1141.49 405.289 1137.38 405.813C1139.73 408.572 1140.04 411.994 1138.3 416.079L1134.08 426.035L1125.83 422.534L1129.91 412.932C1130.61 411.282 1130.6 409.867 1129.9 408.688C1129.24 407.525 1127.8 406.476 1125.6 405.543L1112.35 399.916L1106.27 414.232ZM1115.62 392.199L1128.88 397.825C1131.28 398.842 1133.2 399.124 1134.64 398.671C1136.1 398.179 1137.25 396.931 1138.11 394.928C1138.96 392.925 1139.03 391.266 1138.34 389.952C1137.66 388.599 1136.13 387.413 1133.73 386.396L1120.48 380.77L1115.62 392.199ZM1150.51 433.012L1142.21 429.486L1159.71 388.247L1181.8 397.625C1186.87 399.775 1190.13 402.316 1191.57 405.246C1193.07 408.154 1192.9 411.769 1191.07 416.089C1188.89 421.234 1185.74 424.068 1181.62 424.593C1183.97 427.352 1184.28 430.774 1182.55 434.859L1178.32 444.815L1170.07 441.314L1174.15 431.711C1174.85 430.062 1174.85 428.647 1174.14 427.467C1173.48 426.304 1172.04 425.256 1169.85 424.322L1156.59 418.696L1150.51 433.012ZM1159.87 410.978L1173.12 416.605C1175.52 417.622 1177.44 417.904 1178.88 417.45C1180.34 416.958 1181.5 415.71 1182.35 413.707C1183.2 411.704 1183.28 410.046 1182.58 408.731C1181.9 407.378 1180.37 406.193 1177.97 405.176L1164.72 399.549L1159.87 410.978ZM1223.05 414.508C1230.44 417.643 1235.09 421.587 1237.01 426.343C1238.97 431.115 1238.38 437.212 1235.23 444.635C1232.09 452.019 1228.12 456.683 1223.31 458.627C1218.55 460.548 1212.48 459.942 1205.1 456.807C1197.68 453.657 1193 449.703 1191.08 444.948C1189.18 440.153 1189.79 434.064 1192.93 426.68C1196.08 419.258 1200.03 414.585 1204.79 412.664C1209.54 410.743 1215.63 411.358 1223.05 414.508ZM1208.56 421.29C1205.62 422.544 1203.16 425.508 1201.17 430.181C1199.19 434.855 1198.77 438.686 1199.91 441.674C1201.05 444.661 1203.88 447.114 1208.4 449.031C1212.92 450.948 1216.65 451.28 1219.59 450.026C1222.53 448.772 1224.99 445.808 1226.98 441.134C1228.96 436.461 1229.38 432.63 1228.24 429.642C1227.12 426.615 1224.29 424.143 1219.78 422.226C1215.26 420.309 1211.52 419.997 1208.56 421.29ZM1241.47 471.621L1233.16 468.095L1250.67 426.856L1272.76 436.234C1277.83 438.384 1281.08 440.925 1282.53 443.856C1284.03 446.764 1283.86 450.378 1282.03 454.698C1279.84 459.843 1276.69 462.678 1272.58 463.202C1274.93 465.961 1275.24 469.383 1273.5 473.468L1269.28 483.424L1261.03 479.923L1265.11 470.32C1265.81 468.671 1265.8 467.256 1265.1 466.076C1264.43 464.913 1263 463.865 1260.8 462.932L1247.55 457.305L1241.47 471.621ZM1250.82 449.587L1264.08 455.214C1266.47 456.231 1268.39 456.513 1269.84 456.06C1271.3 455.567 1272.45 454.319 1273.3 452.316C1274.15 450.313 1274.23 448.655 1273.54 447.341C1272.86 445.987 1271.33 444.802 1268.93 443.785L1255.67 438.158L1250.82 449.587Z" fill="white"/>
</g>
<defs>
<filter id="filter0_dddd_2009_2181" x="701.416" y="247.002" width="851.511" height="610.095" filterUnits="userSpaceOnUse" color-interpolation-filters="sRGB">
<feFlood flood-opacity="0" result="BackgroundImageFix"/>
<feColorMatrix in="SourceAlpha" type="matrix" values="0 0 0 0 0 0 0 0 0 0 0 0 0 0 0 0 0 0 127 0" result="hardAlpha"/>
<feOffset dx="-4" dy="10"/>
<feGaussianBlur stdDeviation="6.58606"/>
<feColorMatrix type="matrix" values="0 0 0 0 0.933333 0 0 0 0 0.00392157 0 0 0 0 0 0 0 0 1 0"/>
<feBlend mode="normal" in2="BackgroundImageFix" result="effect1_dropShadow_2009_2181"/>
<feColorMatrix in="SourceAlpha" type="matrix" values="0 0 0 0 0 0 0 0 0 0 0 0 0 0 0 0 0 0 127 0" result="hardAlpha"/>
<feOffset dx="-15" dy="27"/>
<feGaussianBlur stdDeviation="11.15"/>
<feColorMatrix type="matrix" values="0 0 0 0 0.933333 0 0 0 0 0.00392157 0 0 0 0 0 0 0 0 1 0"/>
<feBlend mode="normal" in2="effect1_dropShadow_2009_2181" result="effect2_dropShadow_2009_2181"/>
<feColorMatrix in="SourceAlpha" type="matrix" values="0 0 0 0 0 0 0 0 0 0 0 0 0 0 0 0 0 0 127 0" result="hardAlpha"/>
<feOffset dx="-57" dy="29"/>
<feGaussianBlur stdDeviation="24.95"/>
<feColorMatrix type="matrix" values="0 0 0 0 0.933333 0 0 0 0 0.00392157 0 0 0 0 0 0 0 0 0.21 0"/>
<feBlend mode="normal" in2="effect2_dropShadow_2009_2181" result="effect3_dropShadow_2009_2181"/>
<feColorMatrix in="SourceAlpha" type="matrix" values="0 0 0 0 0 0 0 0 0 0 0 0 0 0 0 0 0 0 127 0" result="hardAlpha"/>
<feOffset dx="-14" dy="54"/>
<feGaussianBlur stdDeviation="29.5"/>
<feColorMatrix type="matrix" values="0 0 0 0 0.933333 0 0 0 0 0.00392157 0 0 0 0 0 0 0 0 1 0"/>
<feBlend mode="normal" in2="effect3_dropShadow_2009_2181" result="effect4_dropShadow_2009_2181"/>
<feBlend mode="normal" in="SourceGraphic" in2="effect4_dropShadow_2009_2181" result="shape"/>
</filter>
<filter id="filter1_ddd_2009_2181" x="1313.09" y="263.438" width="844.104" height="621.509" filterUnits="userSpaceOnUse" color-interpolation-filters="sRGB">
<feFlood flood-opacity="0" result="BackgroundImageFix"/>
<feColorMatrix in="SourceAlpha" type="matrix" values="0 0 0 0 0 0 0 0 0 0 0 0 0 0 0 0 0 0 127 0" result="hardAlpha"/>
<feOffset/>
<feGaussianBlur stdDeviation="11.6413"/>
<feColorMatrix type="matrix" values="0 0 0 0 0.921569 0 0 0 0 0 0 0 0 0 0 0 0 0 1 0"/>
<feBlend mode="normal" in2="BackgroundImageFix" result="effect1_dropShadow_2009_2181"/>
<feColorMatrix in="SourceAlpha" type="matrix" values="0 0 0 0 0 0 0 0 0 0 0 0 0 0 0 0 0 0 127 0" result="hardAlpha"/>
<feOffset/>
<feGaussianBlur stdDeviation="23.2827"/>
<feColorMatrix type="matrix" values="0 0 0 0 0.921569 0 0 0 0 0 0 0 0 0 0 0 0 0 1 0"/>
<feBlend mode="normal" in2="effect1_dropShadow_2009_2181" result="effect2_dropShadow_2009_2181"/>
<feColorMatrix in="SourceAlpha" type="matrix" values="0 0 0 0 0 0 0 0 0 0 0 0 0 0 0 0 0 0 127 0" result="hardAlpha"/>
<feOffset/>
<feGaussianBlur stdDeviation="39.9132"/>
<feColorMatrix type="matrix" values="0 0 0 0 0.921569 0 0 0 0 0 0 0 0 0 0 0 0 0 1 0"/>
<feBlend mode="normal" in2="effect2_dropShadow_2009_2181" result="effect3_dropShadow_2009_2181"/>
<feBlend mode="normal" in="SourceGraphic" in2="effect3_dropShadow_2009_2181" result="shape"/>
</filter>
<filter id="filter2_ii_2009_2181" x="150.246" y="165.255" width="676.961" height="709.409" filterUnits="userSpaceOnUse" color-interpolation-filters="sRGB">
<feFlood flood-opacity="0" result="BackgroundImageFix"/>
<feBlend mode="normal" in="SourceGraphic" in2="BackgroundImageFix" result="shape"/>
<feColorMatrix in="SourceAlpha" type="matrix" values="0 0 0 0 0 0 0 0 0 0 0 0 0 0 0 0 0 0 127 0" result="hardAlpha"/>
<feOffset dx="-4" dy="7"/>
<feGaussianBlur stdDeviation="18.9"/>
<feComposite in2="hardAlpha" operator="arithmetic" k2="-1" k3="1"/>
<feColorMatrix type="matrix" values="0 0 0 0 0.67451 0 0 0 0 0.14902 0 0 0 0 0.184314 0 0 0 1 0"/>
<feBlend mode="normal" in2="shape" result="effect1_innerShadow_2009_2181"/>
<feColorMatrix in="SourceAlpha" type="matrix" values="0 0 0 0 0 0 0 0 0 0 0 0 0 0 0 0 0 0 127 0" result="hardAlpha"/>
<feOffset dy="4"/>
<feGaussianBlur stdDeviation="4.95"/>
<feComposite in2="hardAlpha" operator="arithmetic" k2="-1" k3="1"/>
<feColorMatrix type="matrix" values="0 0 0 0 0.960784 0 0 0 0 0 0 0 0 0 0 0 0 0 1 0"/>
<feBlend mode="normal" in2="effect1_innerShadow_2009_2181" result="effect2_innerShadow_2009_2181"/>
</filter>
<filter id="filter3_d_2009_2181" x="1047.52" y="343.554" width="248.762" height="150.4" filterUnits="userSpaceOnUse" color-interpolation-filters="sRGB">
<feFlood flood-opacity="0" result="BackgroundImageFix"/>
<feColorMatrix in="SourceAlpha" type="matrix" values="0 0 0 0 0 0 0 0 0 0 0 0 0 0 0 0 0 0 127 0" result="hardAlpha"/>
<feOffset dy="1"/>
<feGaussianBlur stdDeviation="4.4"/>
<feComposite in2="hardAlpha" operator="out"/>
<feColorMatrix type="matrix" values="0 0 0 0 1 0 0 0 0 0.00392157 0 0 0 0 0.00392157 0 0 0 1 0"/>
<feBlend mode="normal" in2="BackgroundImageFix" result="effect1_dropShadow_2009_2181"/>
<feBlend mode="normal" in="SourceGraphic" in2="effect1_dropShadow_2009_2181" result="shape"/>
</filter>
<linearGradient id="paint0_linear_2009_2181" x1="1343.04" y1="159" x2="1052.75" y2="688.694" gradientUnits="userSpaceOnUse">
<stop offset="0.12398" stop-color="#FFFFF6"/>
<stop offset="0.484258" stop-color="#FDD500"/>
<stop offset="0.769768" stop-color="#AC262F"/>
<stop offset="0.923879" stop-color="#3B0B0E"/>
</linearGradient>
<linearGradient id="paint1_linear_2009_2181" x1="1286.91" y1="145.378" x2="1032.46" y2="774.552" gradientUnits="userSpaceOnUse">
<stop offset="0.216908" stop-color="white"/>
<stop offset="0.299486" stop-color="#FED300"/>
<stop offset="0.422109" stop-color="#FED300"/>
<stop offset="0.518058" stop-color="white"/>
</linearGradient>
<radialGradient id="paint2_radial_2009_2181" cx="0" cy="0" r="1" gradientUnits="userSpaceOnUse" gradientTransform="translate(1326.87 673.801) rotate(-139.024) scale(274.839 211.566)">
<stop offset="0.721331" stop-color="#AC262F"/>
<stop offset="1" stop-color="#AC262F" stop-opacity="0"/>
</radialGradient>
<radialGradient id="paint3_radial_2009_2181" cx="0" cy="0" r="1" gradientUnits="userSpaceOnUse" gradientTransform="translate(1090.02 642.91) rotate(22.9788) scale(602.975 204.856)">
<stop offset="0.594154" stop-color="#5B1318"/>
<stop offset="1" stop-color="#5B1318" stop-opacity="0"/>
</radialGradient>
<radialGradient id="paint4_radial_2009_2181" cx="0" cy="0" r="1" gradientUnits="userSpaceOnUse" gradientTransform="translate(899.837 400.991) rotate(23.3887) scale(352.528 133.593)">
<stop offset="0.302733" stop-color="#FF0100"/>
<stop offset="1" stop-color="#AC262F" stop-opacity="0"/>
</radialGradient>
<radialGradient id="paint5_radial_2009_2181" cx="0" cy="0" r="1" gradientUnits="userSpaceOnUse" gradientTransform="translate(1827.54 163.5) rotate(61.344) scale(251.278 380.675)">
<stop stop-color="#E60201" stop-opacity="0.892997"/>
<stop offset="0.522272" stop-color="#E60201"/>
<stop offset="1" stop-color="#E60201" stop-opacity="0"/>
</radialGradient>
<radialGradient id="paint6_diamond_2009_2181" cx="0" cy="0" r="1" gradientUnits="userSpaceOnUse" gradientTransform="translate(1774.04 103.5) rotate(61.3402) scale(972.669 240.784)">
<stop stop-color="#FFCD01"/>
<stop offset="0.302543" stop-color="#FFCD01" stop-opacity="0"/>
</radialGradient>
<radialGradient id="paint7_diamond_2009_2181" cx="0" cy="0" r="1" gradientUnits="userSpaceOnUse" gradientTransform="translate(1774.04 103.5) rotate(155.269) scale(866.473 324.619)">
<stop stop-color="#FFCD01"/>
<stop offset="0.294226" stop-color="#FFCD01" stop-opacity="0"/>
</radialGradient>
<linearGradient id="paint8_linear_2009_2181" x1="1677.54" y1="523.5" x2="1705.54" y2="586" gradientUnits="userSpaceOnUse">
<stop stop-color="#FFCC01"/>
<stop offset="0.412184" stop-color="#D37419"/>
<stop offset="0.704038" stop-color="#BF4B25"/>
<stop offset="0.972636" stop-color="#AC262F"/>
</linearGradient>
</defs>
</svg>
