<svg width="26" height="30" viewBox="0 0 26 30" fill="none" xmlns="http://www.w3.org/2000/svg">
<path d="M13.0175 0.601605L12.9825 0.601562C11.2387 0.644302 10.9633 3.85705 10.9633 3.85705L10.274 9.50529L6.25771 12.2426C6.03642 11.0669 5.47641 10.2316 4.82016 10.2316C3.97017 10.2316 3.28113 11.6321 3.28113 13.3596C3.28091 13.6507 3.30123 13.9415 3.34195 14.2298L0.258136 16.3316L0 19.483L10.3766 15.7296L11.3265 25.5494L7.95393 27.7998L7.9529 29.2016L18.0472 29.2014L18.0461 27.7998L14.6735 25.5494L15.6235 15.7295L26 19.4829L25.7419 16.3315L22.658 14.2297C22.6988 13.9413 22.7191 13.6505 22.7189 13.3594C22.7189 11.632 22.0299 10.2315 21.18 10.2315C20.5236 10.2316 19.9636 11.0669 19.7423 12.2425L15.7261 9.50529L15.0367 3.857C15.0367 3.857 14.7614 0.644214 13.0175 0.601605Z" fill="#848F96"/>
</svg>
