<svg width="35" height="16" viewBox="0 0 35 16" fill="none" xmlns="http://www.w3.org/2000/svg">
<path d="M-3.55234e-07 8.6268C0.601066 6.36207 1.87666 6.45183 3.01201 6.43802C8.15447 6.36207 13.2969 6.33445 18.4394 6.29992C20.443 6.29992 22.4999 6.29992 24.7306 6.29992C24.3165 5.00875 23.1144 4.91899 22.3129 4.35971C21.5115 3.80043 20.443 3.26187 19.6415 2.5714C19.4899 2.38208 19.3861 2.15679 19.3395 1.91577C19.2929 1.67474 19.3049 1.42552 19.3744 1.19047C19.523 0.9785 19.7176 0.805582 19.9426 0.685649C20.1677 0.565716 20.4168 0.502125 20.67 0.499999C21.3037 0.596663 21.9162 0.806961 22.4799 1.12142C26.093 2.79235 29.6994 4.4909 33.3192 6.16183C34.2408 6.58992 35.2225 7.10087 34.9554 8.27466C34.7155 9.08843 34.2075 9.7896 33.5195 10.2563C32.5829 10.7942 31.5933 11.2271 30.5676 11.5475C27.8962 12.6177 25.1647 13.6672 22.4732 14.7443C21.2978 15.2139 19.8619 16.2081 19.0471 14.6891C18.1255 12.9284 19.8152 12.2379 20.9438 11.437C21.4715 11.0711 22.0258 10.7465 23.0877 10.0561C15.1936 8.83394 7.67362 9.64869 -3.55234e-07 8.6268Z" fill="white"/>
</svg>
