<svg width="46" height="65" viewBox="0 0 46 65" fill="none" xmlns="http://www.w3.org/2000/svg">
<path d="M21.9393 63.0607C22.5251 63.6464 23.4749 63.6464 24.0607 63.0607L33.6066 53.5147C34.1924 52.9289 34.1924 51.9792 33.6066 51.3934C33.0208 50.8076 32.0711 50.8076 31.4853 51.3934L23 59.8787L14.5147 51.3934C13.9289 50.8076 12.9792 50.8076 12.3934 51.3934C11.8076 51.9792 11.8076 52.9289 12.3934 53.5147L21.9393 63.0607ZM21.5 -6.55671e-08L21.5 3.1L24.5 3.1L24.5 6.55671e-08L21.5 -6.55671e-08ZM21.5 9.3L21.5 15.5L24.5 15.5L24.5 9.3L21.5 9.3ZM21.5 21.7L21.5 27.9L24.5 27.9L24.5 21.7L21.5 21.7ZM21.5 34.1L21.5 40.3L24.5 40.3L24.5 34.1L21.5 34.1ZM21.5 46.5L21.5 52.7L24.5 52.7L24.5 46.5L21.5 46.5ZM21.5 58.9L21.5 62L24.5 62L24.5 58.9L21.5 58.9ZM20.8787 64.1213C22.0502 65.2929 23.9497 65.2929 25.1213 64.1213L44.2132 45.0294C45.3848 43.8579 45.3848 41.9584 44.2132 40.7868C43.0416 39.6152 41.1421 39.6152 39.9706 40.7868L23 57.7574L6.02944 40.7868C4.85786 39.6152 2.95837 39.6152 1.78679 40.7868C0.615221 41.9584 0.615221 43.8579 1.78679 45.0294L20.8787 64.1213ZM20 -1.31134e-07L20 3.1L26 3.1L26 1.31134e-07L20 -1.31134e-07ZM20 9.3L20 15.5L26 15.5L26 9.3L20 9.3ZM20 21.7L20 27.9L26 27.9L26 21.7L20 21.7ZM20 34.1L20 40.3L26 40.3L26 34.1L20 34.1ZM20 46.5L20 52.7L26 52.7L26 46.5L20 46.5ZM20 58.9L20 62L26 62L26 58.9L20 58.9Z" fill="#FF9F50"/>
</svg>
