<svg width="88" height="24" viewBox="0 0 88 24" fill="none" xmlns="http://www.w3.org/2000/svg">
<path d="M0 23.6806V0.319392H4.26674V20.1331H14.6403V23.6806H0Z" fill="#3B2720"/>
<path d="M38.4725 12C38.4725 14.5171 37.9971 16.673 37.0464 18.4677C36.1034 20.2548 34.8153 21.6236 33.1822 22.5741C31.5568 23.5247 29.7129 24 27.6504 24C25.588 24 23.7402 23.5247 22.1071 22.5741C20.4817 21.616 19.1936 20.2433 18.2429 18.4563C17.2998 16.6616 16.8283 14.5095 16.8283 12C16.8283 9.48289 17.2998 7.3308 18.2429 5.54373C19.1936 3.74905 20.4817 2.37643 22.1071 1.42585C23.7402 0.475285 25.588 0 27.6504 0C29.7129 0 31.5568 0.475285 33.1822 1.42585C34.8153 2.37643 36.1034 3.74905 37.0464 5.54373C37.9971 7.3308 38.4725 9.48289 38.4725 12ZM34.1828 12C34.1828 10.2281 33.9029 8.73384 33.3432 7.51711C32.7912 6.29278 32.0245 5.36882 31.0431 4.74525C30.0617 4.11407 28.9308 3.79848 27.6504 3.79848C26.37 3.79848 25.2391 4.11407 24.2577 4.74525C23.2763 5.36882 22.5058 6.29278 21.9461 7.51711C21.3941 8.73384 21.118 10.2281 21.118 12C21.118 13.7719 21.3941 15.27 21.9461 16.4943C22.5058 17.711 23.2763 18.635 24.2577 19.2662C25.2391 19.8897 26.37 20.2015 27.6504 20.2015C28.9308 20.2015 30.0617 19.8897 31.0431 19.2662C32.0245 18.635 32.7912 17.711 33.3432 16.4943C33.9029 15.27 34.1828 13.7719 34.1828 12Z" fill="#3B2720"/>
<path d="M58.2852 7.77947C58.0935 7.1635 57.829 6.61217 57.4917 6.12548C57.162 5.63118 56.7633 5.20913 56.2956 4.85932C55.8356 4.50951 55.3066 4.24715 54.7085 4.07224C54.1105 3.88973 53.4588 3.79848 52.7534 3.79848C51.4883 3.79848 50.3613 4.11407 49.3722 4.74525C48.3832 5.37643 47.605 6.30418 47.0376 7.52852C46.4779 8.74525 46.1981 10.2281 46.1981 11.9772C46.1981 13.7414 46.4779 15.2357 47.0376 16.4601C47.5973 17.6844 48.3755 18.616 49.3722 19.2548C50.369 19.8859 51.5267 20.2015 52.8454 20.2015C54.0415 20.2015 55.0765 19.9734 55.9506 19.5171C56.8323 19.0608 57.5108 18.4144 57.9862 17.5779C58.4616 16.7338 58.6992 15.7452 58.6992 14.6122L59.6653 14.7605H53.2709V11.4525H62.828V14.2586C62.828 16.2586 62.3986 17.9886 61.5399 19.4487C60.6812 20.9087 59.5005 22.0342 57.9977 22.8251C56.495 23.6084 54.7699 24 52.8224 24C50.6526 24 48.7474 23.5171 47.1066 22.5513C45.4735 21.5779 44.1969 20.1977 43.2769 18.4106C42.3645 16.616 41.9083 14.4867 41.9083 12.0228C41.9083 10.1369 42.1767 8.45247 42.7134 6.96958C43.2577 5.48669 44.0168 4.22814 44.9905 3.19392C45.9642 2.15209 47.1066 1.36122 48.4177 0.821293C49.7288 0.273764 51.1548 0 52.6959 0C53.9993 0 55.2146 0.190114 56.3416 0.570342C57.4687 0.942966 58.4692 1.47529 59.3433 2.1673C60.225 2.85932 60.9495 3.68061 61.5169 4.63118C62.0843 5.58175 62.4561 6.63118 62.6325 7.77947H58.2852Z" fill="#3B2720"/>
<path d="M88 12C88 14.5171 87.5246 16.673 86.5739 18.4677C85.6309 20.2548 84.3428 21.6236 82.7097 22.5741C81.0843 23.5247 79.2403 24 77.1779 24C75.1154 24 73.2677 23.5247 71.6346 22.5741C70.0092 21.616 68.7211 20.2433 67.7704 18.4563C66.8273 16.6616 66.3558 14.5095 66.3558 12C66.3558 9.48289 66.8273 7.3308 67.7704 5.54373C68.7211 3.74905 70.0092 2.37643 71.6346 1.42585C73.2677 0.475285 75.1154 0 77.1779 0C79.2403 0 81.0843 0.475285 82.7097 1.42585C84.3428 2.37643 85.6309 3.74905 86.5739 5.54373C87.5246 7.3308 88 9.48289 88 12ZM83.7103 12C83.7103 10.2281 83.4304 8.73384 82.8707 7.51711C82.3187 6.29278 81.552 5.36882 80.5706 4.74525C79.5892 4.11407 78.4583 3.79848 77.1779 3.79848C75.8975 3.79848 74.7666 4.11407 73.7852 4.74525C72.8038 5.36882 72.0333 6.29278 71.4736 7.51711C70.9216 8.73384 70.6455 10.2281 70.6455 12C70.6455 13.7719 70.9216 15.27 71.4736 16.4943C72.0333 17.711 72.8038 18.635 73.7852 19.2662C74.7666 19.8897 75.8975 20.2015 77.1779 20.2015C78.4583 20.2015 79.5892 19.8897 80.5706 19.2662C81.552 18.635 82.3187 17.711 82.8707 16.4943C83.4304 15.27 83.7103 13.7719 83.7103 12Z" fill="#3B2720"/>
</svg>
