<svg width="18" height="18" viewBox="0 0 18 18" fill="none" xmlns="http://www.w3.org/2000/svg">
<path d="M12.8201 4.80952H5.17991M12.8201 4.80952H13.82C15.4135 4.80952 16.2102 4.80952 16.6658 5.31707C17.1213 5.82462 17.0333 6.61431 16.8573 8.1937L16.6313 10.2223C16.2721 13.4462 16.0925 15.0581 15.0047 16.0291C13.9169 17 12.2779 17 9 17C5.72206 17 4.08309 17 2.99529 16.0291C1.90748 15.0581 1.72788 13.4462 1.36868 10.2223L1.14265 8.1937C0.966681 6.61431 0.878694 5.82462 1.33423 5.31707C1.78977 4.80952 2.58652 4.80952 4.18003 4.80952H5.17991M12.8201 4.80952C12.8201 2.70558 11.1098 1 9 1C6.94232 1 5.26463 2.62239 5.18302 4.65441C5.18096 4.70586 5.17991 4.75757 5.17991 4.80952" stroke="#111111" stroke-width="1.5"/>
<path d="M13.5841 7.85712C13.5841 8.27791 13.242 8.61902 12.8201 8.61902C12.3981 8.61902 12.0561 8.27791 12.0561 7.85712C12.0561 7.43633 12.3981 7.09521 12.8201 7.09521C13.242 7.09521 13.5841 7.43633 13.5841 7.85712Z" fill="#111111"/>
<path d="M5.94393 7.85712C5.94393 8.27791 5.60187 8.61902 5.17991 8.61902C4.75796 8.61902 4.41589 8.27791 4.41589 7.85712C4.41589 7.43633 4.75796 7.09521 5.17991 7.09521C5.60187 7.09521 5.94393 7.43633 5.94393 7.85712Z" fill="#111111"/>
</svg>
