<svg width="36" height="36" viewBox="0 0 36 36" fill="none" xmlns="http://www.w3.org/2000/svg">
<path fill-rule="evenodd" clip-rule="evenodd" d="M18 6C14.8934 6 12.375 8.5184 12.375 11.625C12.375 14.7316 14.8934 17.25 18 17.25C21.1066 17.25 23.625 14.7316 23.625 11.625C23.625 8.5184 21.1066 6 18 6ZM14.625 11.625C14.625 9.76104 16.136 8.25 18 8.25C19.864 8.25 21.375 9.76104 21.375 11.625C21.375 13.489 19.864 15 18 15C16.136 15 14.625 13.489 14.625 11.625Z" fill="#DE9B3D"/>
<path fill-rule="evenodd" clip-rule="evenodd" d="M13.5 19.5C10.3934 19.5 7.875 22.0184 7.875 25.125C7.875 28.2316 10.3934 30.75 13.5 30.75H22.5C25.6066 30.75 28.125 28.2316 28.125 25.125C28.125 22.0184 25.6066 19.5 22.5 19.5H13.5ZM10.125 25.125C10.125 23.261 11.636 21.75 13.5 21.75H22.5C24.364 21.75 25.875 23.261 25.875 25.125C25.875 26.989 24.364 28.5 22.5 28.5H13.5C11.636 28.5 10.125 26.989 10.125 25.125Z" fill="#DE9B3D"/>
<path d="M11.6282 15.583C11.3916 15.2029 10.9477 15 10.5 15C8.63604 15 7.125 13.489 7.125 11.625C7.125 9.76104 8.63604 8.25 10.5 8.25C10.9477 8.25 11.3916 8.04709 11.6282 7.66702C11.6387 7.65021 11.6492 7.63345 11.6598 7.61673C12.0537 6.99496 11.8541 6.1146 11.1225 6.03405C10.9181 6.01155 10.7104 6 10.5 6C7.3934 6 4.875 8.5184 4.875 11.625C4.875 14.7316 7.3934 17.25 10.5 17.25C10.7104 17.25 10.9181 17.2384 11.1225 17.2159C11.8541 17.1354 12.0537 16.255 11.6598 15.6333C11.6492 15.6166 11.6387 15.5998 11.6282 15.583Z" fill="#DE9B3D"/>
<path d="M7.06243 27.4753C6.89215 27.1912 6.59159 27 6.26038 27H6C4.13604 27 2.625 25.489 2.625 23.625C2.625 21.761 4.13604 20.25 6 20.25H6.26038C6.59159 20.25 6.89215 20.0588 7.06243 19.7747C7.47809 19.0812 7.02703 18 6.21854 18H6C2.8934 18 0.375 20.5184 0.375 23.625C0.375 26.7316 2.8934 29.25 6 29.25H6.21854C7.02703 29.25 7.47809 28.1688 7.06243 27.4753Z" fill="#DE9B3D"/>
<path d="M24.3402 15.6333C23.9463 16.255 24.1459 17.1354 24.8775 17.2159C25.0819 17.2384 25.2896 17.25 25.5 17.25C28.6066 17.25 31.125 14.7316 31.125 11.625C31.125 8.5184 28.6066 6 25.5 6C25.2896 6 25.0819 6.01155 24.8775 6.03406C24.1459 6.1146 23.9463 6.99496 24.3402 7.61672C24.3508 7.63344 24.3613 7.65021 24.3718 7.66701C24.6084 8.04709 25.0523 8.25 25.5 8.25C27.364 8.25 28.875 9.76104 28.875 11.625C28.875 13.489 27.364 15 25.5 15C25.0523 15 24.6084 15.2029 24.3718 15.583C24.3613 15.5998 24.3508 15.6166 24.3402 15.6333Z" fill="#DE9B3D"/>
<path d="M28.9376 27.4753C28.5219 28.1688 28.973 29.25 29.7815 29.25H30C33.1066 29.25 35.625 26.7316 35.625 23.625C35.625 20.5184 33.1066 18 30 18H29.7815C28.973 18 28.5219 19.0812 28.9376 19.7747C29.1078 20.0588 29.4084 20.25 29.7396 20.25H30C31.864 20.25 33.375 21.761 33.375 23.625C33.375 25.489 31.864 27 30 27H29.7396C29.4084 27 29.1078 27.1912 28.9376 27.4753Z" fill="#DE9B3D"/>
</svg>
