<svg width="21" height="20" viewBox="0 0 21 20" fill="none" xmlns="http://www.w3.org/2000/svg">
<path d="M6.36844 19C6.86674 19 7.2707 18.5961 7.2707 18.0978C7.2707 17.5994 6.86674 17.1955 6.36844 17.1955C5.87014 17.1955 5.46619 17.5994 5.46619 18.0978C5.46619 18.5961 5.87014 19 6.36844 19Z" stroke="#333333" stroke-width="2" stroke-linecap="round" stroke-linejoin="round"/>
<path d="M16.2932 19C16.7915 19 17.1955 18.5961 17.1955 18.0978C17.1955 17.5994 16.7915 17.1955 16.2932 17.1955C15.7949 17.1955 15.391 17.5994 15.391 18.0978C15.391 18.5961 15.7949 19 16.2932 19Z" stroke="#333333" stroke-width="2" stroke-linecap="round" stroke-linejoin="round"/>
<path d="M1 1H2.80451L5.20451 12.206C5.29255 12.6164 5.52091 12.9833 5.85027 13.2435C6.17963 13.5037 6.58939 13.6409 7.00902 13.6316H15.8331C16.2438 13.6309 16.6419 13.4902 16.9618 13.2326C17.2817 12.9751 17.5042 12.6161 17.5925 12.215L19.0812 5.51128H3.76993" stroke="#333333" stroke-width="2" stroke-linecap="round" stroke-linejoin="round"/>
</svg>
