<svg width="36" height="36" viewBox="0 0 36 36" fill="none" xmlns="http://www.w3.org/2000/svg">
<path d="M19.5 24.375C18.8787 24.375 18.375 24.8787 18.375 25.5C18.375 26.1213 18.8787 26.625 19.5 26.625H25.5C26.1213 26.625 26.625 26.1213 26.625 25.5C26.625 24.8787 26.1213 24.375 25.5 24.375H19.5Z" fill="#DE9B3D"/>
<path fill-rule="evenodd" clip-rule="evenodd" d="M24.5176 4.98092C23.2211 4.87499 21.6079 4.87499 19.5503 4.875H16.4497C14.3921 4.87499 12.7789 4.87499 11.4824 4.98092C10.1622 5.08878 9.07153 5.31207 8.08433 5.81507C6.46143 6.64198 5.14198 7.96143 4.31507 9.58433C3.59091 11.0056 3.4359 12.6741 3.39178 14.9785C3.375 15.8548 3.375 16.8529 3.375 17.9913V18.0503C3.37499 20.1079 3.37499 21.7211 3.48092 23.0176C3.58878 24.3378 3.81207 25.4285 4.31507 26.4157C5.14198 28.0386 6.46143 29.358 8.08433 30.1849C9.07153 30.6879 10.1622 30.9112 11.4824 31.0191C12.7789 31.125 14.392 31.125 16.4496 31.125H19.5504C21.6079 31.125 23.2211 31.125 24.5176 31.0191C25.8378 30.9112 26.9285 30.6879 27.9157 30.1849C29.5386 29.358 30.858 28.0386 31.6849 26.4157C32.1879 25.4285 32.4112 24.3378 32.5191 23.0176C32.625 21.7211 32.625 20.108 32.625 18.0504V17.9913C32.625 16.8529 32.625 15.8548 32.6082 14.9785C32.5641 12.6741 32.4091 11.0056 31.6849 9.58433C30.858 7.96143 29.5386 6.64198 27.9157 5.81507C26.9285 5.31207 25.8378 5.08878 24.5176 4.98092ZM9.10581 7.81983C9.72295 7.50538 10.4846 7.31994 11.6656 7.22345C12.8598 7.12588 14.3812 7.125 16.5 7.125H19.5C21.6188 7.125 23.1402 7.12588 24.3344 7.22345C25.5154 7.31994 26.277 7.50538 26.8942 7.81983C28.0937 8.43103 29.069 9.40628 29.6802 10.6058C30.0613 11.3538 30.2437 12.2882 30.3215 13.875H5.6785C5.75628 12.2882 5.9387 11.3538 6.31983 10.6058C6.93103 9.40628 7.90628 8.43103 9.10581 7.81983ZM5.625 18C5.625 17.3179 5.62502 16.6961 5.62845 16.125H30.3716C30.375 16.6961 30.375 17.3179 30.375 18C30.375 20.1188 30.3741 21.6402 30.2766 22.8344C30.1801 24.0154 29.9946 24.777 29.6802 25.3942C29.069 26.5937 28.0937 27.569 26.8942 28.1802C26.277 28.4946 25.5154 28.6801 24.3344 28.7766C23.1402 28.8741 21.6188 28.875 19.5 28.875H16.5C14.3812 28.875 12.8598 28.8741 11.6656 28.7766C10.4846 28.6801 9.72295 28.4946 9.10581 28.1802C7.90628 27.569 6.93103 26.5937 6.31983 25.3942C6.00538 24.777 5.81994 24.0154 5.72345 22.8344C5.62588 21.6402 5.625 20.1188 5.625 18Z" fill="#DE9B3D"/>
</svg>
