<svg width="24" height="24" viewBox="0 0 24 24" fill="none" xmlns="http://www.w3.org/2000/svg">
<path fill-rule="evenodd" clip-rule="evenodd" d="M12 13.1523L16.6091 17.7613C16.9273 18.0795 17.4432 18.0795 17.7614 17.7613C18.0795 17.4432 18.0795 16.9273 17.7614 16.6091L13.1523 12L17.7614 7.39092C18.0795 7.07273 18.0795 6.55684 17.7614 6.23865C17.4432 5.92046 16.9273 5.92046 16.6091 6.23865L12 10.8477L7.39091 6.23864C7.07272 5.92045 6.55683 5.92045 6.23864 6.23864C5.92045 6.55683 5.92045 7.07272 6.23864 7.39091L10.8477 12L6.23864 16.6091C5.92045 16.9273 5.92045 17.4432 6.23864 17.7614C6.55683 18.0795 7.07272 18.0795 7.39091 17.7614L12 13.1523Z" fill="#111111"/>
</svg>
