<svg width="155" height="54" viewBox="0 0 155 54" fill="none" xmlns="http://www.w3.org/2000/svg">
<path d="M98.9567 7.79661C98.9567 7.79661 89.9809 0.610886 79.2102 0.610886C68.4376 0.610886 57.6669 7.79659 59.4618 22.1689C59.4618 22.1689 45.0993 14.9832 39.7135 27.5585C39.7135 27.5585 30.7377 23.9652 25.3519 31.1518C25.3519 31.1518 7.39945 23.9652 2.01362 34.7442C-3.3722 45.5233 9.19532 50.9128 9.19532 50.9128C9.19532 50.9128 0.218653 36.5404 12.7853 38.3375C25.3519 40.1337 21.762 49.1157 39.7135 52.709C57.6669 56.3023 63.0527 45.5232 63.0527 45.5232C63.0527 45.5232 70.2335 54.5052 79.2102 52.709C88.1859 50.9128 91.7768 45.5232 91.7768 45.5232C91.7768 45.5232 97.1617 52.709 107.933 50.9128C118.705 49.1157 122.295 41.9299 122.295 41.9299C122.295 41.9299 129.477 45.5232 138.452 45.5232C147.429 45.5232 154.61 41.9299 154.61 32.9471C154.61 32.9471 148.327 42.8285 141.145 37.439C133.965 32.0495 133.965 28.4561 124.988 30.2532C124.988 30.2532 123.193 21.2704 116.012 21.2704C116.012 21.2704 114.217 3.30564 98.9567 7.79661Z" fill="#221E1F"/>
<path d="M72.5855 15.5299C73.0206 14.2291 73.7037 13.3422 74.5139 12.7634C75.3259 12.1865 76.2802 11.9133 77.2874 11.9124C78.8648 11.9097 80.5586 12.6031 81.8397 13.8492C83.1217 15.0972 83.9973 16.871 84 19.0748C83.9991 20.1973 83.7708 21.4354 83.2345 22.7783C82.1987 25.362 80.6866 27.0337 78.9373 28.089C77.1871 29.1425 75.1764 29.5761 73.1513 29.5761C71.2391 29.5761 69.3215 29.1864 67.6491 28.5862C65.9777 27.9887 64.5507 27.1752 63.6321 26.3761C61.539 24.5745 59.8954 20.9776 59.9034 17.0609C59.9043 14.4969 60.591 11.8013 62.2588 9.33317C63.9285 6.86685 66.5865 4.61374 70.5954 2.96356C73.4083 1.807 76.2149 1.34383 78.9185 1.34383C84.3223 1.34114 89.3178 3.20725 92.9552 5.08678C94.7743 6.02564 96.2524 6.96451 97.2721 7.66777C97.7823 8.01895 98.1781 8.31099 98.4439 8.51346C98.5773 8.61469 98.6785 8.69441 98.7447 8.74727L98.8191 8.80728L98.8414 8.82522C99.0572 9.0035 99.3589 9.02947 99.6024 8.89062L99.5952 8.87806L99.6015 8.89062H99.6024L99.5952 8.87806L99.6015 8.89062C99.657 8.85747 101.439 7.88544 103.895 7.88902C105.882 7.8944 108.305 8.49462 110.777 10.7522C114.627 14.2918 115.198 17.8224 115.205 19.7261C115.205 20.1767 115.172 20.5341 115.139 20.7733C115.122 20.8934 115.106 20.983 115.096 21.0412L115.082 21.1022L115.079 21.1138L115.187 21.1398L115.08 21.1129L115.079 21.1138L115.187 21.1398L115.08 21.1129L115.066 21.1864L115.064 21.1962C115.045 21.3449 114.771 22.9897 113.768 24.5279C113.267 25.2993 112.593 26.0419 111.684 26.5938C110.773 27.1438 109.624 27.5147 108.114 27.5165C106.66 27.5165 104.868 27.1653 102.677 26.2623C100.983 25.5644 99.8728 24.7232 99.1915 23.8587C98.5111 22.9924 98.2398 22.1037 98.238 21.2114C98.2336 19.8264 98.9354 18.4056 99.9892 17.3467C101.037 16.2824 102.416 15.6158 103.61 15.6221C104.228 15.6239 104.798 15.7861 105.319 16.1543C105.84 16.5243 106.324 17.1155 106.705 18.0293C106.848 18.3715 107.241 18.5337 107.583 18.3912C107.926 18.2488 108.087 17.8546 107.944 17.5124C107.489 16.415 106.855 15.5962 106.097 15.0587C105.34 14.5193 104.471 14.2774 103.61 14.2792C101.935 14.2855 100.293 15.1384 99.0357 16.3997C97.7841 17.6656 96.8996 19.3749 96.8952 21.2114C96.8925 22.3877 97.2765 23.6043 98.1378 24.6919C98.9972 25.7812 100.314 26.7425 102.166 27.5049C104.48 28.4581 106.442 28.8603 108.114 28.8603C109.903 28.8621 111.355 28.3927 112.487 27.6769C114.189 26.6018 115.156 25.018 115.705 23.7252C116.254 22.4289 116.391 21.404 116.397 21.3646L115.731 21.2759L116.383 21.4381C116.394 21.396 116.548 20.7617 116.548 19.7261C116.556 17.55 115.838 13.5607 111.684 9.76137C108.975 7.27266 106.159 6.53985 103.895 6.54523C100.996 6.54881 98.9954 7.69282 98.9363 7.72328L99.2694 8.30738L99.6973 7.78868C99.6713 7.76807 97.3294 5.83302 93.5711 3.89258C89.8128 1.95393 84.6329 0.00182343 78.9185 3.05176e-05C76.0618 3.05176e-05 73.0734 0.490961 70.0851 1.72098C65.8712 3.4518 62.9759 5.87424 61.1469 8.58065C59.317 11.2853 58.5605 14.2586 58.5605 17.0609C58.5695 21.3458 60.2938 25.2455 62.7521 27.3911C63.8425 28.3344 65.3922 29.2026 67.1961 29.8521C69.0001 30.498 71.0573 30.919 73.1513 30.9199C75.3644 30.9199 77.6258 30.446 79.6294 29.2411C81.6329 28.0379 83.3563 26.0993 84.4807 23.2773C85.0743 21.7928 85.3428 20.3809 85.3428 19.0748C85.3446 16.5045 84.2999 14.3608 82.7753 12.8853C81.2498 11.408 79.2516 10.5713 77.2874 10.5686C76.0358 10.5677 74.7932 10.9152 73.7359 11.6687C72.6777 12.4203 71.821 13.5724 71.3116 15.1052C71.1943 15.4573 71.385 15.8372 71.7368 15.9545C72.0878 16.0719 72.4683 15.8819 72.5855 15.5299Z" fill="white"/>
<path d="M116.08 21.9389L116.054 21.6854L116.078 21.9398L116.08 21.9389L116.054 21.6854L116.078 21.9398C116.081 21.9389 116.161 21.9317 116.301 21.9317C116.868 21.9317 118.398 22.0491 119.987 23.1537C121.574 24.2601 123.282 26.3582 124.181 30.5294C124.224 30.7309 124.36 30.9038 124.545 30.9934C124.73 31.0839 124.95 31.0821 125.135 30.9907L125.038 30.7963L125.133 30.9916L125.135 30.9907L125.038 30.7963L125.133 30.9916C125.154 30.9809 126.398 30.3887 128.28 30.3896C130.396 30.3977 133.321 31.1054 136.417 34.3001C137.984 35.9234 139.487 37.2027 140.989 38.0887C142.488 38.9738 144.001 39.4656 145.539 39.4647C147.072 39.4665 148.601 38.9747 150.122 38.0017C151.646 37.0279 153.175 35.5776 154.778 33.6183L154.259 33.1928L153.595 33.2931L153.597 33.3038C153.607 33.3755 153.656 33.7724 153.656 34.3744C153.658 35.8347 153.359 38.4703 151.597 40.6947C150.714 41.8101 149.467 42.8394 147.659 43.6036C145.85 44.3669 143.475 44.8605 140.358 44.8605C136.101 44.8614 130.465 43.9369 123.058 41.5494C122.797 41.4661 122.514 41.5476 122.339 41.7573L122.321 41.7769C122.119 42.0143 120.179 44.2289 117.094 46.3664C114.007 48.5067 109.79 50.5546 105.035 50.5519C101.846 50.5502 98.4 49.6462 94.7993 47.1987C92.7931 45.8325 91.5003 43.6018 91.503 41.2278L91.5057 41.0558V41.054C91.5281 40.202 91.7045 39.3554 92.1279 38.5957C92.5541 37.8369 93.221 37.1471 94.3141 36.5979C95.9032 35.8024 97.4752 35.4315 98.9005 35.4315C100.579 35.4333 102.048 35.9404 103.156 36.8712C104.26 37.8038 105.027 39.1655 105.257 40.9868C105.277 41.1534 105.287 41.3129 105.287 41.4634C105.279 42.4784 104.875 43.1548 104.217 43.661C103.558 44.1618 102.611 44.4395 101.632 44.4377C100.581 44.4395 99.5119 44.1196 98.7474 43.5257C97.9837 42.9263 97.4949 42.1048 97.4869 40.9035C97.4869 40.5326 97.187 40.2316 96.8164 40.2316C96.4448 40.2316 96.1449 40.5326 96.1449 40.9035C96.1369 42.5062 96.8736 43.7881 97.9273 44.5899C98.9802 45.3989 100.319 45.7797 101.632 45.7815C102.855 45.7797 104.071 45.45 105.025 44.7351C105.98 44.0265 106.639 42.8797 106.63 41.4634C106.63 41.2546 106.617 41.0405 106.59 40.8201C106.328 38.7077 105.396 36.9975 104.02 35.8418C102.644 34.6844 100.849 34.0868 98.9005 34.0877C97.2425 34.0886 95.4699 34.5168 93.7134 35.3957C92.4054 36.0479 91.5075 36.9464 90.9551 37.9409C90.4019 38.9353 90.1897 40.0076 90.1628 41.019V41.0182L90.1602 41.2278C90.1628 44.0963 91.7036 46.7158 94.0446 48.3096C97.8468 50.8995 101.589 51.8984 105.035 51.8957C110.35 51.8931 114.924 49.5584 118.166 47.2543C121.412 44.9465 123.342 42.6504 123.367 42.6218L122.853 42.189L122.647 42.8287C130.146 45.2448 135.907 46.2034 140.358 46.2043C143.616 46.2043 146.173 45.6892 148.18 44.8417C151.193 43.5758 152.934 41.5467 153.875 39.5498C154.82 37.5512 154.998 35.5973 154.999 34.3744C154.999 33.6022 154.927 33.1184 154.923 33.0924C154.883 32.8299 154.692 32.6149 154.436 32.5451C154.18 32.4743 153.907 32.5621 153.739 32.7672C152.197 34.6548 150.755 36.0049 149.4 36.8694C148.042 37.7348 146.785 38.12 145.539 38.1209C144.29 38.1209 143.024 37.7276 141.67 36.9312C140.319 36.1357 138.896 34.9343 137.382 33.3666C134.065 29.9211 130.708 29.0386 128.28 29.0458C126.046 29.0476 124.6 29.758 124.54 29.7867L124.837 30.3887L125.494 30.2481C124.551 25.8243 122.646 23.358 120.753 22.0491C118.861 20.7376 117.043 20.5879 116.301 20.5879C116.089 20.5879 115.962 20.6005 115.942 20.6023C115.573 20.6408 115.305 20.9714 115.344 21.3405C115.382 21.7096 115.711 21.9774 116.08 21.9389Z" fill="white"/>
<path d="M60.0803 22.1305C60.0221 22.0974 56.1823 19.3318 50.9962 19.322C49.1493 19.3211 47.1323 19.6812 45.0902 20.6532L45.3785 21.2597L45.0973 20.6496C45.0651 20.6649 43.8717 21.2149 42.4841 22.3195C41.0992 23.4241 39.502 25.0887 38.7375 27.3722L39.3749 27.5845L39.6327 26.9646C39.5835 26.9458 37.4125 26.0392 34.4707 26.0365C33.0007 26.0365 31.3338 26.2658 29.6596 26.9646C27.9846 27.6616 26.3087 28.8316 24.8396 30.6699L25.3642 31.0901L25.5898 30.4567C25.5513 30.4468 19.7627 28.3702 13.6624 28.3657C10.3948 28.3684 7.00534 28.9597 4.3751 30.8992C3.06356 31.8677 1.95702 33.1774 1.19248 34.8769C0.426145 36.5763 0 38.6548 0 41.1748L0.00179225 41.3799L0.0196929 41.5305C0.0322264 41.5806 0.444941 43.2819 1.76991 45.3558C3.0922 47.428 5.34554 49.879 9.00264 51.342C9.27032 51.4486 9.57739 51.3724 9.76361 51.153C9.95071 50.9335 9.97578 50.6181 9.82806 50.3717L9.79853 50.3225C9.64813 50.0654 8.93819 48.8282 8.27302 47.2506C7.60606 45.6756 6.9964 43.7468 7.00177 42.1916C7.00267 41.1891 7.23989 40.3891 7.7663 39.8355C8.03308 39.5551 8.38313 39.3204 8.87104 39.1457C9.35716 38.9719 9.98204 38.8626 10.7681 38.8554L10.871 38.8545C12.9749 38.8554 14.8853 39.4521 16.726 40.4124C19.4833 41.8521 22.0518 44.1222 24.6919 46.3027C27.3356 48.4797 30.058 50.576 33.2192 51.5901C36.9058 52.7664 41.8351 53.9991 46.8986 54C49.9541 54 53.0624 53.5494 55.9648 52.3462C58.8663 51.1458 61.5556 49.1829 63.7338 46.2078C63.8036 46.1137 63.8466 46.0017 63.86 45.8852C63.8618 45.8646 63.8869 45.6317 63.8869 45.2528C63.8851 44.4008 63.7669 42.7981 62.9307 41.2035C62.1017 39.607 60.493 38.0473 57.7338 37.4435C56.9397 37.267 56.1796 37.1837 55.4617 37.1837C53.399 37.1819 51.6739 37.8798 50.4724 39.0041C49.271 40.1266 48.5987 41.6702 48.6005 43.2944C48.5996 44.2306 48.8225 45.1919 49.2817 46.111C50.2934 48.1563 52.1367 49.0871 53.852 49.0763C54.972 49.0754 56.0516 48.7028 56.877 48.0174C57.7016 47.3375 58.2638 46.3099 58.2602 45.1095C58.2602 44.7386 57.9594 44.4376 57.5888 44.4376C57.2172 44.4376 56.9173 44.7386 56.9173 45.1095C56.9137 45.8933 56.5771 46.5133 56.0185 46.9845C55.4599 47.4512 54.6711 47.7343 53.852 47.7325C52.5933 47.7218 51.2952 47.1144 50.4832 45.5099C50.1134 44.7699 49.9433 44.0183 49.9433 43.2944C49.9442 42.0393 50.4536 40.8631 51.3892 39.986C52.3265 39.1117 53.6971 38.5293 55.4617 38.5275C56.0758 38.5275 56.7374 38.5983 57.4429 38.756C59.8421 39.2989 61.0471 40.5289 61.7427 41.8297C62.4303 43.1305 62.5458 44.5316 62.544 45.2528C62.544 45.4131 62.5386 45.5386 62.5341 45.6228L62.527 45.715L62.5252 45.7366L63.1921 45.8109L62.6514 45.4131C60.6147 48.1894 58.1474 49.9856 55.4509 51.1055C52.7544 52.2235 49.8234 52.6562 46.8986 52.6562C42.0535 52.658 37.2397 51.4647 33.6283 50.3099C29.8208 49.1041 26.4538 45.982 22.9148 43.0848C21.1431 41.6398 19.3222 40.2547 17.3473 39.2218C15.3741 38.1889 13.2345 37.5098 10.871 37.5107L10.7555 37.5116C9.85403 37.5197 9.08053 37.6442 8.41894 37.8798C7.4279 38.2301 6.69559 38.8563 6.25871 39.6295C5.81914 40.4017 5.6589 41.2868 5.6589 42.1916C5.66516 44.1992 6.4306 46.3807 7.17634 48.0989C7.92477 49.8127 8.66783 51.0481 8.67678 51.0642L9.25242 50.7175L9.5013 50.094C6.15396 48.7529 4.11727 46.5312 2.90152 44.632C2.29454 43.6832 1.89703 42.8178 1.65352 42.1943C1.53177 41.8826 1.44763 41.6317 1.3957 41.4624C1.36974 41.3773 1.35093 41.3128 1.34019 41.2707L1.32766 41.2259L1.32587 41.216L0.672334 41.3737L1.34377 41.3674L1.34288 41.1748C1.34377 38.8053 1.74305 36.9221 2.41628 35.4296C3.42881 33.1926 5.04475 31.796 7.02057 30.9136C8.99459 30.0365 11.3312 29.7077 13.6624 29.7095C16.5612 29.7086 19.4431 30.2121 21.5917 30.7174C22.666 30.97 23.5567 31.2226 24.1771 31.4117C24.4878 31.5066 24.7304 31.5846 24.8942 31.6392C24.9757 31.6661 25.0384 31.6876 25.0796 31.7019L25.1386 31.7225C25.4081 31.8184 25.7098 31.7333 25.8889 31.5093C27.2219 29.843 28.6981 28.8226 30.1762 28.2045C31.6534 27.589 33.1395 27.3803 34.4707 27.3803C35.802 27.3803 36.9756 27.589 37.8109 27.7987C38.2281 27.9026 38.5611 28.0065 38.7858 28.0835C38.8986 28.122 38.9846 28.1534 39.0401 28.1749L39.1018 28.1991L39.1162 28.2045C39.289 28.277 39.4832 28.2735 39.6533 28.1964C39.8234 28.1185 39.9524 27.9743 40.0114 27.7969C40.6489 25.8743 42.0535 24.3773 43.3203 23.3704C43.9514 22.8678 44.5441 22.488 44.9747 22.2371C45.1905 22.1117 45.3659 22.0177 45.485 21.9567L45.6193 21.8886L45.6515 21.8734L45.6587 21.8698L45.6658 21.8662C47.5154 20.9883 49.3211 20.6658 50.9962 20.6658C53.3435 20.6649 55.4321 21.3063 56.9299 21.9522C57.6783 22.2756 58.2781 22.5982 58.6863 22.8383C58.8914 22.9574 59.048 23.0568 59.1519 23.1249L59.2674 23.202L59.2942 23.2208L59.2996 23.2244C59.6013 23.4403 60.0203 23.3704 60.236 23.0685C60.4518 22.7666 60.382 22.3464 60.0803 22.1305Z" fill="white"/>
<path d="M91.6339 45.4152L91.5569 45.4869C91.1585 45.8533 89.2337 47.568 86.5291 49.1769C83.8255 50.7895 80.3456 52.2793 76.8783 52.2749L76.6859 52.2731C72.9491 52.2175 69.6984 50.5118 67.3797 48.7917C66.2213 47.9335 65.2992 47.0762 64.6698 46.4365C64.3556 46.1176 64.1148 45.8524 63.9536 45.6687C63.873 45.5773 63.8122 45.5057 63.7728 45.4582L63.7289 45.4053L63.7173 45.391C63.4854 45.1016 63.0629 45.0542 62.7737 45.2862C62.4836 45.5182 62.4371 45.9411 62.6689 46.2304C62.6931 46.26 64.1255 48.0517 66.5803 49.8712C69.0333 51.6872 72.5239 53.5488 76.6653 53.6169L76.8783 53.6187C80.9857 53.6133 84.881 51.7884 87.7691 49.9949C90.6554 48.1969 92.5363 46.4096 92.5587 46.3899C92.8272 46.1346 92.838 45.709 92.5828 45.4394C92.3277 45.1706 91.9024 45.1599 91.6339 45.4152Z" fill="white"/>
<path d="M24.7022 30.9791C24.6977 31.0096 24.6699 31.1842 24.6699 31.4611C24.669 32.0774 24.8087 33.2375 25.7013 34.3305C26.5929 35.4252 28.199 36.3695 30.8946 36.6643C31.2178 36.7001 31.5231 36.718 31.8104 36.718C33.0029 36.7189 33.9295 36.4116 34.5606 35.8365C35.1927 35.2622 35.4541 34.4649 35.4496 33.7079C35.4452 32.735 35.0674 31.7791 34.4828 31.0203C34.1882 30.6423 33.8382 30.3125 33.4335 30.068C33.0307 29.8252 32.566 29.6675 32.0701 29.6675C31.8829 29.6675 31.6941 29.6899 31.5061 29.7374C30.643 29.9524 30.0038 30.3072 29.575 30.7829C29.1453 31.2568 28.9662 31.8409 28.9707 32.3632C28.9707 32.7878 29.0746 33.1784 29.2241 33.5162C29.3745 33.8548 29.5678 34.1415 29.7934 34.369C30.0557 34.6315 30.481 34.6315 30.7433 34.369C31.0056 34.1066 31.0056 33.681 30.7433 33.4185C30.6556 33.3325 30.5356 33.165 30.4515 32.9724C30.3655 32.7789 30.3127 32.5612 30.3136 32.3632C30.3172 32.1141 30.378 31.9045 30.5741 31.6814C30.7719 31.4602 31.1471 31.212 31.8319 31.0409L32.0701 31.0113C32.2787 31.0113 32.5043 31.0776 32.7415 31.2201C33.096 31.4306 33.4532 31.8167 33.7057 32.2754C33.9599 32.7323 34.1085 33.2555 34.1068 33.7079C34.1023 34.1863 33.9644 34.558 33.6547 34.8438C33.344 35.1287 32.7872 35.3724 31.8104 35.3742C31.5777 35.3742 31.3216 35.3599 31.0432 35.3285C28.5795 35.0508 27.3727 34.2481 26.7407 33.4794C26.1086 32.7081 26.0137 31.8875 26.0128 31.4611C26.0128 31.367 26.0173 31.2944 26.0218 31.2497L26.0271 31.2021V31.2004C26.088 30.8348 25.8409 30.4882 25.4748 30.4272C25.1095 30.3663 24.763 30.6136 24.7022 30.9791Z" fill="white"/>
</svg>
