<svg width="301" height="104" viewBox="0 0 301 104" fill="none" xmlns="http://www.w3.org/2000/svg">
<path d="M192.169 15.0159C192.169 15.0159 174.739 1.17673 153.823 1.17673C132.903 1.17673 111.987 15.0158 115.473 42.6959C115.473 42.6959 87.5819 28.8568 77.123 53.0758C77.123 53.0758 59.6926 46.1553 49.2337 59.9962C49.2337 59.9962 14.3712 46.1553 3.91223 66.915C-6.5467 87.6746 17.8586 98.0544 17.8586 98.0544C17.8586 98.0544 0.426513 70.3743 24.8301 73.8354C49.2337 77.2948 42.2622 94.5934 77.123 101.514C111.987 108.434 122.446 87.6746 122.446 87.6746C122.446 87.6746 136.391 104.973 153.823 101.514C171.253 98.0545 178.227 87.6746 178.227 87.6746C178.227 87.6746 188.684 101.514 209.602 98.0544C230.519 94.5933 237.491 80.7541 237.491 80.7541C237.491 80.7541 251.437 87.6746 268.868 87.6746C286.3 87.6746 300.244 80.7541 300.244 63.4539C300.244 63.4539 288.044 82.4847 274.097 72.1049C260.152 61.7251 260.152 54.8046 242.72 58.2657C242.72 58.2657 239.235 40.9654 225.29 40.9654C225.29 40.9654 221.804 6.36662 192.169 15.0159Z" fill="#221E1F"/>
<path d="M140.956 29.9092C141.801 27.404 143.128 25.6959 144.701 24.5813C146.278 23.4701 148.131 22.9439 150.087 22.9422C153.15 22.937 156.44 24.2724 158.927 26.6724C161.417 29.0759 163.117 32.492 163.122 36.7364C163.121 38.8983 162.677 41.2829 161.636 43.8692C159.625 48.8451 156.688 52.0646 153.291 54.0971C149.892 56.1262 145.988 56.9613 142.055 56.9613C138.342 56.9613 134.618 56.2108 131.37 55.0548C128.124 53.9039 125.353 52.3372 123.569 50.7982C119.505 47.3285 116.313 40.4011 116.328 32.8578C116.33 27.9198 117.664 22.7282 120.903 17.9748C124.145 13.2249 129.307 8.88556 137.092 5.70743C142.554 3.47998 148.004 2.58795 153.255 2.58795C163.748 2.58278 173.449 6.17677 180.513 9.79659C184.046 11.6048 186.916 13.413 188.896 14.7674C189.887 15.4437 190.655 16.0062 191.172 16.3961C191.431 16.5911 191.627 16.7446 191.756 16.8464L191.9 16.962L191.944 16.9966C192.363 17.3399 192.948 17.3899 193.421 17.1225L193.407 17.0983L193.42 17.1225H193.421L193.407 17.0983L193.42 17.1225C193.527 17.0587 196.987 15.1866 201.758 15.1935C205.615 15.2039 210.321 16.3599 215.122 20.7078C222.599 27.5247 223.706 34.3244 223.72 37.9908C223.72 38.8587 223.656 39.5471 223.592 40.0077C223.56 40.2389 223.529 40.4115 223.508 40.5237L223.482 40.641L223.477 40.6634L223.685 40.7135L223.479 40.6617L223.477 40.6634L223.685 40.7135L223.479 40.6617L223.451 40.8032L223.447 40.8222C223.411 41.1086 222.877 44.2763 220.93 47.2388C219.958 48.7243 218.649 50.1547 216.883 51.2175C215.115 52.2769 212.882 52.9911 209.949 52.9946C207.126 52.9946 203.647 52.3183 199.391 50.5791C196.102 49.235 193.946 47.615 192.623 45.95C191.302 44.2816 190.775 42.5699 190.772 40.8515C190.763 38.184 192.126 35.4476 194.172 33.4082C196.208 31.3585 198.885 30.0748 201.203 30.0869C202.404 30.0903 203.512 30.4027 204.524 31.1118C205.534 31.8244 206.474 32.9631 207.215 34.723C207.491 35.382 208.254 35.6943 208.919 35.42C209.584 35.1457 209.897 34.3865 209.621 33.7274C208.736 31.6138 207.505 30.0369 206.033 29.0017C204.564 27.963 202.875 27.4971 201.203 27.5006C197.952 27.5127 194.762 29.1552 192.321 31.5845C189.89 34.0225 188.173 37.3145 188.164 40.8515C188.159 43.1169 188.905 45.4599 190.577 47.5545C192.246 49.6526 194.803 51.5039 198.399 52.9722C202.893 54.808 206.704 55.5827 209.949 55.5827C213.425 55.5861 216.245 54.682 218.442 53.3034C221.747 51.233 223.626 48.1826 224.692 45.6929C225.758 43.1963 226.024 41.2224 226.036 41.1465L224.742 40.9757L226.008 41.288C226.029 41.2069 226.328 39.9853 226.328 37.9908C226.344 33.7999 224.949 26.1168 216.883 18.7995C211.622 14.0064 206.154 12.5951 201.758 12.6055C196.128 12.6124 192.243 14.8156 192.128 14.8743L192.775 15.9992L193.606 15.0002C193.555 14.9606 189.007 11.2338 181.709 7.49666C174.411 3.76296 164.352 0.0033493 153.255 -0.000102997C147.707 -0.000102997 141.904 0.945393 136.101 3.31433C127.917 6.64774 122.295 11.3132 118.743 16.5255C115.19 21.7344 113.721 27.4609 113.721 32.8578C113.738 41.1103 117.086 48.6208 121.86 52.7531C123.978 54.5699 126.987 56.2418 130.49 57.4927C133.994 58.7367 137.989 59.5476 142.055 59.5493C146.353 59.5493 150.744 58.6366 154.635 56.3159C158.526 53.9988 161.872 50.2651 164.056 44.8302C165.209 41.9712 165.73 39.252 165.73 36.7364C165.734 31.7864 163.705 27.6576 160.744 24.8159C157.782 21.9708 153.901 20.3593 150.087 20.3541C147.657 20.3524 145.244 21.0218 143.19 22.4728C141.135 23.9204 139.472 26.1393 138.482 29.0914C138.255 29.7695 138.625 30.501 139.308 30.7271C139.99 30.9531 140.729 30.5873 140.956 29.9092Z" fill="white"/>
<path d="M225.423 42.2526L225.373 41.7643L225.418 42.2543L225.423 42.2526L225.373 41.7643L225.418 42.2543C225.425 42.2526 225.58 42.2388 225.851 42.2388C226.953 42.2388 229.924 42.4648 233.01 44.5922C236.092 46.7231 239.408 50.7639 241.153 58.7972C241.237 59.1854 241.501 59.5183 241.861 59.6909C242.221 59.8651 242.647 59.8617 243.007 59.6857L242.819 59.3114L243.003 59.6874L243.007 59.6857L242.819 59.3114L243.003 59.6874C243.043 59.6667 245.46 58.5263 249.114 58.528C253.224 58.5436 258.904 59.9066 264.915 66.0592C267.96 69.1856 270.877 71.6495 273.794 73.3558C276.704 75.0605 279.642 76.0077 282.631 76.006C285.607 76.0094 288.577 75.0622 291.53 73.1884C294.489 71.313 297.459 68.5197 300.572 64.7463L299.564 63.9267L298.274 64.1199L298.278 64.1406C298.297 64.2786 298.392 65.043 298.392 66.2025C298.396 69.0148 297.817 74.0908 294.394 78.3749C292.68 80.523 290.258 82.5055 286.746 83.9772C283.234 85.4472 278.622 86.3979 272.568 86.3979C264.302 86.3996 253.358 84.619 238.973 80.0209C238.467 79.8605 237.918 80.0175 237.577 80.4213L237.542 80.4592C237.15 80.9164 233.382 85.1815 227.391 89.2982C221.397 93.4201 213.208 97.3644 203.973 97.3592C197.781 97.3558 191.089 95.6148 184.097 90.9011C180.201 88.2699 177.69 83.9738 177.696 79.4015L177.701 79.0703V79.0668C177.744 77.426 178.087 75.7955 178.909 74.3324C179.737 72.871 181.032 71.5425 183.155 70.4848C186.24 68.9527 189.293 68.2384 192.061 68.2384C195.321 68.2418 198.174 69.2184 200.324 71.0111C202.47 72.8072 203.958 75.4298 204.405 78.9374C204.444 79.2583 204.464 79.5654 204.464 79.8553C204.448 81.8101 203.664 83.1128 202.386 84.0877C201.107 85.0522 199.267 85.587 197.365 85.5836C195.324 85.587 193.248 84.971 191.764 83.8271C190.281 82.6728 189.332 81.0907 189.316 78.7769C189.316 78.0626 188.734 77.4829 188.014 77.4829C187.292 77.4829 186.71 78.0626 186.71 78.7769C186.694 81.8636 188.125 84.3326 190.171 85.8768C192.216 87.4348 194.817 88.1682 197.365 88.1716C199.74 88.1682 202.101 87.5332 203.954 86.1563C205.809 84.7916 207.089 82.5831 207.071 79.8553C207.071 79.4533 207.045 79.0409 206.993 78.6165C206.486 74.548 204.676 71.2543 202.002 69.0286C199.332 66.7994 195.844 65.6486 192.061 65.6503C188.841 65.652 185.399 66.4768 181.988 68.1694C179.448 69.4254 177.704 71.156 176.632 73.0712C175.557 74.9863 175.145 77.0516 175.093 78.9995V78.9978L175.088 79.4015C175.093 84.9262 178.085 89.9711 182.631 93.0406C190.015 98.0286 197.282 99.9524 203.973 99.9473C214.295 99.9421 223.177 95.4458 229.474 91.0081C235.776 86.5636 239.524 82.1414 239.573 82.0862L238.575 81.2529L238.175 82.4848C252.739 87.1381 263.926 88.9842 272.568 88.9859C278.895 88.9859 283.862 87.9939 287.76 86.3617C293.61 83.9237 296.991 80.0158 298.818 76.1699C300.654 72.3206 300.998 68.5576 301 66.2025C301 64.7152 300.861 63.7835 300.852 63.7335C300.776 63.2279 300.406 62.8139 299.908 62.6793C299.411 62.543 298.881 62.7121 298.554 63.1072C295.559 66.7425 292.759 69.3427 290.127 71.0076C287.49 72.6743 285.049 73.4162 282.631 73.4179C280.204 73.4179 277.746 72.6605 275.117 71.1267C272.494 69.5946 269.729 67.2808 266.79 64.2614C260.348 57.6257 253.829 55.9262 249.114 55.94C244.776 55.9434 241.969 57.3116 241.85 57.3669L242.428 58.5263L243.704 58.2554C241.873 49.7355 238.174 44.9856 234.497 42.4648C230.823 39.9389 227.292 39.6507 225.851 39.6507C225.441 39.6507 225.194 39.6749 225.155 39.6784C224.437 39.7526 223.918 40.3892 223.992 41.1C224.067 41.8109 224.707 42.3268 225.423 42.2526Z" fill="white"/>
<path d="M116.672 42.6218C116.559 42.5579 109.102 37.2317 99.0312 37.2127C95.4447 37.211 91.5278 37.9046 87.5622 39.7766L88.122 40.9447L87.5761 39.7697C87.5135 39.799 85.1961 40.8584 82.5014 42.9858C79.8119 45.1132 76.7104 48.3189 75.2257 52.7169L76.4635 53.1258L76.9642 51.9318C76.8686 51.8956 72.6527 50.1495 66.9399 50.1443C64.0853 50.1443 60.8482 50.5861 57.5971 51.9318C54.3444 53.2742 51.0899 55.5275 48.237 59.0679L49.2557 59.8771L49.6938 58.6573C49.6191 58.6383 38.3778 54.6389 26.5315 54.6303C20.186 54.6354 13.6039 55.7742 8.49616 59.5096C5.94923 61.3748 3.80041 63.8972 2.31572 67.1703C0.827547 70.4433 0 74.4462 0 79.2997L0.00348043 79.6947L0.0382423 79.9846C0.0625816 80.0812 0.864047 83.3577 3.43705 87.352C6.00485 91.3427 10.3807 96.0633 17.4826 98.8808C18.0024 99.0862 18.5987 98.9395 18.9603 98.5168C19.3236 98.0941 19.3723 97.4867 19.0855 97.0123L19.0281 96.9174C18.736 96.4222 17.3574 94.0395 16.0657 91.0011C14.7705 87.9679 13.5866 84.2531 13.597 81.2579C13.5987 79.3272 14.0594 77.7865 15.0816 76.7202C15.5997 76.1802 16.2795 75.7281 17.227 75.3916C18.171 75.0569 19.3845 74.8465 20.9109 74.8327L21.1109 74.8309C25.1964 74.8326 28.9064 75.9817 32.4808 77.8313C37.8354 80.604 42.8232 84.9761 47.9501 89.1756C53.0839 93.3683 58.3708 97.4057 64.5095 99.3588C71.6687 101.624 81.241 103.998 91.0741 104C97.0076 104 103.044 103.132 108.68 100.815C114.315 98.503 119.537 94.7227 123.767 88.9927C123.903 88.8116 123.986 88.5959 124.012 88.3716C124.015 88.3319 124.064 87.8833 124.064 87.1535C124.061 85.5126 123.831 82.426 122.207 79.3549C120.598 76.2802 117.473 73.2763 112.115 72.1134C110.573 71.7735 109.097 71.6131 107.703 71.6131C103.697 71.6096 100.347 72.9537 98.0142 75.119C95.6811 77.2809 94.3755 80.2537 94.379 83.3818C94.3772 85.1848 94.8101 87.0362 95.702 88.8064C97.6665 92.7454 101.246 94.5381 104.577 94.5174C106.752 94.5157 108.849 93.7979 110.452 92.478C112.053 91.1685 113.145 89.1895 113.138 86.8775C113.138 86.1632 112.553 85.5835 111.834 85.5835C111.112 85.5835 110.53 86.1632 110.53 86.8775C110.523 88.3872 109.869 89.5811 108.784 90.4886C107.699 91.3875 106.168 91.9328 104.577 91.9293C102.133 91.9086 99.6119 90.7388 98.0351 87.6487C97.3171 86.2235 96.9867 84.7759 96.9867 83.3818C96.9885 80.9646 97.9777 78.6992 99.7944 77.0101C101.615 75.3261 104.276 74.2046 107.703 74.2012C108.896 74.2012 110.18 74.3375 111.55 74.6412C116.21 75.6867 118.55 78.0556 119.9 80.5608C121.236 83.0661 121.46 85.7645 121.456 87.1535C121.456 87.4623 121.446 87.7039 121.437 87.8661L121.423 88.0438L121.42 88.0852L122.715 88.2285L121.665 87.4623C117.71 92.8092 112.919 96.2686 107.682 98.4253C102.446 100.579 96.7538 101.412 91.0741 101.412C81.6652 101.415 72.3172 99.1172 65.304 96.8932C57.9101 94.5709 51.3715 88.558 44.4992 82.9781C41.0586 80.1951 37.5224 77.5277 33.6873 75.5383C29.8556 73.549 25.7006 72.2411 21.1109 72.2428L20.8866 72.2446C19.1359 72.2601 17.6338 72.4999 16.349 72.9537C14.4245 73.6283 13.0024 74.8344 12.154 76.3234C11.3004 77.8107 10.9892 79.5153 10.9892 81.2579C11.0014 85.1244 12.4878 89.3257 13.936 92.635C15.3894 95.9356 16.8324 98.3149 16.8498 98.346L17.9676 97.6782L18.4509 96.4774C11.9506 93.8945 7.99547 89.6156 5.63457 85.9578C4.45585 84.1307 3.68392 82.464 3.21104 81.2631C2.9746 80.6627 2.8112 80.1796 2.71037 79.8535C2.65995 79.6896 2.62342 79.5653 2.60256 79.4843L2.57824 79.398L2.57476 79.379L1.30563 79.6827L2.60952 79.6706L2.60778 79.2997C2.60952 74.7361 3.38489 71.1093 4.69226 68.2348C6.65852 63.9266 9.79658 61.2368 13.6335 59.5373C17.4669 57.8481 22.0044 57.2149 26.5315 57.2183C32.1609 57.2166 37.7572 58.1862 41.9296 59.1594C44.0158 59.6459 45.7456 60.1325 46.9504 60.4965C47.5537 60.6794 48.0248 60.8295 48.343 60.9348C48.5012 60.9865 48.6229 61.028 48.7029 61.0556L48.8176 61.0953C49.3409 61.2799 49.9268 61.116 50.2745 60.6846C52.8632 57.4754 55.73 55.5102 58.6003 54.3197C61.4688 53.1344 64.3547 52.7323 66.9399 52.7323C69.5251 52.7323 71.8043 53.1344 73.4263 53.5382C74.2365 53.7383 74.8832 53.9384 75.3196 54.0868C75.5386 54.161 75.7055 54.2214 75.8133 54.2628L75.9333 54.3094L75.9611 54.3197C76.2967 54.4595 76.6739 54.4526 77.0042 54.3042C77.3345 54.1541 77.5849 53.8763 77.6996 53.5347C78.9375 49.8321 81.6652 46.949 84.1252 45.0096C85.3509 44.0417 86.5017 43.3102 87.338 42.8271C87.757 42.5855 88.0977 42.4044 88.3289 42.287L88.5897 42.1559L88.6523 42.1266L88.6662 42.1196L88.6801 42.1127C92.2719 40.4219 95.7785 39.8008 99.0312 39.8008C103.59 39.799 107.646 41.0344 110.554 42.2784C112.008 42.9012 113.172 43.5224 113.965 43.9848C114.363 44.2143 114.667 44.4057 114.869 44.5368L115.093 44.6853L115.146 44.7215L115.156 44.7284C115.742 45.1442 116.556 45.0096 116.974 44.4282C117.393 43.8467 117.258 43.0376 116.672 42.6218Z" fill="white"/>
<path d="M177.946 87.4659L177.797 87.604C177.023 88.3096 173.285 91.612 168.033 94.7107C162.783 97.8164 156.025 100.686 149.292 100.677L148.918 100.674C141.662 100.567 135.349 97.2815 130.847 93.9688C128.597 92.3159 126.806 90.6648 125.584 89.4329C124.974 88.8186 124.506 88.3079 124.193 87.9542C124.037 87.7782 123.919 87.6401 123.842 87.5487L123.757 87.4469L123.734 87.4193C123.284 86.862 122.463 86.7706 121.902 87.2174C121.339 87.6643 121.248 88.4787 121.698 89.036C121.745 89.0929 124.527 92.5437 129.294 96.0479C134.058 99.5452 140.836 103.131 148.878 103.262L149.292 103.265C157.269 103.255 164.833 99.7402 170.441 96.286C176.046 92.8232 179.699 89.3811 179.742 89.3431C180.264 88.8514 180.285 88.0318 179.789 87.5125C179.294 86.9949 178.468 86.9741 177.946 87.4659Z" fill="white"/>
<path d="M47.9708 59.6636C47.9621 59.7222 47.9082 60.0587 47.9082 60.5918C47.9065 61.7789 48.1777 64.0132 49.911 66.1181C51.6426 68.2265 54.7615 70.0451 59.9961 70.6128C60.6237 70.6818 61.2166 70.7163 61.7746 70.7163C64.0903 70.718 65.8897 70.1262 67.1154 69.0185C68.3428 67.9125 68.8504 66.377 68.8417 64.919C68.833 63.0453 68.0994 61.2043 66.9641 59.7429C66.3922 59.0148 65.7124 58.3798 64.9266 57.9088C64.1443 57.4412 63.2419 57.1376 62.2788 57.1376C61.9154 57.1376 61.5486 57.1807 61.1836 57.2722C59.5076 57.6862 58.2663 58.3696 57.4336 59.2857C56.5991 60.1985 56.2514 61.3233 56.2601 62.3292C56.2601 63.147 56.4617 63.8993 56.7521 64.5498C57.0441 65.202 57.4196 65.7541 57.8577 66.1923C58.3671 66.6979 59.1929 66.6979 59.7023 66.1923C60.2117 65.6868 60.2117 64.8673 59.7023 64.3618C59.532 64.1961 59.299 63.8735 59.1356 63.5025C58.9687 63.1298 58.8661 62.7105 58.8678 62.3292C58.8748 61.8496 58.993 61.4459 59.3737 61.0162C59.7579 60.5901 60.4864 60.1122 61.8164 59.7826L62.2788 59.7257C62.6839 59.7257 63.122 59.8534 63.5827 60.1277C64.2711 60.5332 64.9648 61.2768 65.4551 62.1601C65.9488 63.0401 66.2374 64.0477 66.2339 64.919C66.2252 65.8404 65.9575 66.5564 65.356 67.1068C64.7527 67.6554 63.6714 68.1248 61.7746 68.1283C61.3226 68.1283 60.8254 68.1006 60.2847 68.0402C55.5003 67.5053 53.1568 65.9594 51.9294 64.479C50.702 62.9935 50.5177 61.4131 50.516 60.5918C50.516 60.4106 50.5247 60.2709 50.5334 60.1846L50.5438 60.0932V60.0897C50.662 59.3857 50.1822 58.718 49.4711 58.6007C48.7618 58.4834 48.089 58.9596 47.9708 59.6636Z" fill="white"/>
</svg>
