<svg width="1030" height="1019" viewBox="0 0 1030 1019" fill="none" xmlns="http://www.w3.org/2000/svg">
<path d="M666.5 269.5C666.5 339.301 601.425 396 521 396C440.575 396 375.5 339.301 375.5 269.5C375.5 199.699 440.575 143 521 143C601.425 143 666.5 199.699 666.5 269.5Z" stroke="#22898E"/>
<path d="M797.5 298.5C797.5 431.261 673.774 539 521 539C368.226 539 244.5 431.261 244.5 298.5C244.5 165.739 368.226 58 521 58C673.774 58 797.5 165.739 797.5 298.5Z" stroke="#22898E"/>
<path d="M908.5 346.5C908.5 532.28 735.079 683 521 683C306.921 683 133.5 532.28 133.5 346.5C133.5 160.72 306.921 10 521 10C735.079 10 908.5 160.72 908.5 346.5Z" stroke="#22898E"/>
<path d="M987.5 411C987.5 637.378 778.703 821 521 821C263.297 821 54.5 637.378 54.5 411C54.5 184.622 263.297 1 521 1C778.703 1 987.5 184.622 987.5 411Z" stroke="#22898E"/>
<path d="M1029.5 465.5C1029.5 721.995 801.88 930 521 930C240.12 930 12.5 721.995 12.5 465.5C12.5 209.005 240.12 1 521 1C801.88 1 1029.5 209.005 1029.5 465.5Z" stroke="#22898E"/>
<path d="M1029.5 508.5C1029.5 788.778 799.157 1016 515 1016C230.843 1016 0.5 788.778 0.5 508.5C0.5 228.222 230.843 1 515 1C799.157 1 1029.5 228.222 1029.5 508.5Z" stroke="#22898E"/>
<path d="M799.5 75.501C745 42.0005 432.5 200.5 171.5 895.001" stroke="#22898E"/>
<path d="M244 75.6787C298.5 42.1783 611 200.678 872 895.179" stroke="#22898E"/>
<path d="M40.5 317.5C83.1667 265.333 239.3 180 522.5 256C876.5 351 1016 568 1004 657.5" stroke="#22898E"/>
<path d="M1004.71 317.5C962.042 265.333 805.909 180 522.709 256C168.709 351 14 577.5 26 667" stroke="#22898E"/>
<path d="M521.5 0V1019" stroke="#22898E"/>
</svg>
