<svg width="1072" height="688" viewBox="0 0 1072 688" fill="none" xmlns="http://www.w3.org/2000/svg">
<g clip-path="url(#clip0_801_106)">
<g opacity="0.2">
<path d="M476.87 464.201L515.151 471.24M476.819 464.201L452.257 459.679V485.884L481.289 490.509L366.241 513.94M481.34 490.509L484.886 489.79V503.766M518.748 470.418L515.151 471.189M518.748 470.418L526.198 468.774L487.815 461.58M518.748 470.418L559.906 478.023M487.815 461.58L476.87 464.149M487.815 461.58V435.631L504.309 439.125M459.04 443.339L446.194 440.77V415.386M470.55 440.256L452.668 416.825M504.257 439.125L530.874 432.24M507.906 400.228L530.874 432.291L586.471 444.777M507.906 400.176L452.72 416.825L446.245 415.386L355.142 443.236M507.289 443.236L552.199 452.639M641.401 617.735L538.222 612.751V641.32L641.401 643.427L631.638 643.632M631.638 643.632L528.459 641.577M631.638 643.632L634.104 643.684M528.459 641.577L538.222 641.372M528.459 641.577L505.593 641.115M528.665 610.85L662.725 617.53L641.401 618.454M528.665 610.85V581.15M528.665 610.85L325.185 622.565L346.509 623.233M662.725 591.735L653.373 591.016L681.737 589.012L542.024 577.347M528.665 581.15L653.373 590.964M528.665 581.15L325.185 599.648L311.363 598.929M507.752 527.865L626.808 543.126M507.752 527.865V499.45M507.752 527.865L334.229 554.687L358.019 556.794L517.823 533.414M446.245 440.77L355.142 465.742L367.474 467.746M362.233 482.082V469.133L367.423 467.746L459.04 443.287M261.829 690.854L423.38 698.356M423.38 698.356V669.89M423.38 698.356L587.91 693.064M423.38 669.89L261.829 668.245L302.936 668.04M423.38 669.89L462.739 669.633L505.542 670.044M302.936 668.143L462.791 669.633M320.972 556.743L334.28 554.687M346.509 623.233L538.171 612.751M346.509 623.233L333.15 623.953M505.593 669.992V641.063M526.352 484.754L543.463 487.683V503.612M526.352 484.754L559.906 478.023M526.352 484.754L525.119 484.548M366.292 517.691L327.395 512.964L452.309 485.884M552.25 452.639L559.906 454.232V478.023M517.823 549.343V533.363L599.317 543.486M358.019 559.877L320.972 556.691M325.185 603.502L284.13 601.549L311.363 598.98L542.024 577.347M626.859 543.126L599.317 546.466M542.024 577.347V546.209M981.715 428.283V417.082L981.15 417.184M947.596 402.437L981.766 417.03M921.545 407.833V404.184M879.204 396.888V412.663L921.545 404.133L941.687 412.354V396.58L879.204 396.888ZM879.204 396.888L784.915 417.082M981.201 417.184V428.078M947.596 402.797L981.201 417.133M981.715 590.964V579.763L981.15 579.814M947.596 574.881L981.766 579.763M941.687 586.442L921.545 583.976M921.545 583.976L879.204 586.545V570.77L838.303 573.802M921.545 583.976V587.624M941.687 586.391V570.616L879.204 570.719M983.719 576.885L941.739 570.616M981.201 590.913V579.814L947.596 574.984M981.715 627.138V615.937H981.15M947.596 613.162L981.766 615.885M941.687 625.134L921.545 623.901M921.545 623.901L879.204 625.134M921.545 623.901V627.549M941.687 625.083V609.308L879.204 609.36M983.719 612.956L941.739 609.36M879.204 625.186V609.411L838.303 611.158M981.201 615.937V627.087M947.596 613.265L981.201 615.988M981.715 609.051V597.85L981.15 597.901M947.596 594.047L981.766 597.85M879.204 605.814L921.545 603.913L941.687 605.763V589.988L879.204 590.091M983.719 594.921L941.739 589.988M921.545 607.613V603.964M879.204 590.091V605.865M879.204 590.091L838.303 592.454M981.201 609V597.85L947.596 594.099M981.715 518.667V507.466L981.15 507.517M947.596 498.217L981.766 507.414M941.687 493.284V509.059L921.545 504.023L879.204 509.264V493.489M941.687 493.284L983.719 504.845M941.687 493.284L879.204 493.489M921.545 507.723V504.074M879.204 493.489L838.303 499.039M981.201 518.513V507.517L947.596 498.473M981.715 554.79V543.588L981.15 543.64M947.596 536.549L981.766 543.588M921.545 543.999L941.687 547.75V531.976L879.204 532.13M921.545 543.999L879.204 547.905V532.13M921.545 543.999V547.648M983.719 540.865L941.739 531.976M879.204 532.13L838.303 536.395M981.201 554.687V543.64L947.596 536.703M981.715 536.754V525.553L981.15 525.604M947.596 517.383L981.766 525.501M941.687 528.43L921.545 524.011M921.545 524.011L879.204 528.584V512.81M921.545 524.011V527.659M941.687 528.379V512.604L879.204 512.81M983.719 522.829L941.739 512.604M879.204 512.81L838.303 517.742M981.201 536.652V525.604L947.596 517.588M981.715 464.406V453.204L981.15 453.307M947.596 440.77L981.766 453.204M921.545 444.11L941.687 451.046V435.271L879.204 435.528M921.545 444.11L879.204 451.303V435.528M921.545 444.11V447.758M983.719 450.789L941.739 435.271M879.204 435.528L838.303 443.03M981.201 464.252V453.307L947.596 441.078M981.715 663.261V652.059H981.15M981.715 663.312L947.545 663.415M981.766 652.059L947.596 651.494L981.201 652.059M921.545 663.878L941.687 663.826H879.204M921.545 663.878L879.204 663.826M921.545 663.878V667.526M879.204 663.826V648.052L838.303 648.514M941.687 663.775V648H879.204M983.719 648.976L941.739 648M981.201 652.111V663.312L947.596 663.415" stroke="#019CA5" stroke-miterlimit="10" stroke-linecap="round"/>
<path d="M981.715 663.312H981.149M981.715 645.225V634.024H981.149M947.596 632.328L981.766 633.972M921.544 643.889L941.687 644.455V628.68L879.204 628.731M921.544 643.889L879.204 644.506V628.731M921.544 643.889V647.538M983.719 630.941L941.738 628.68M879.204 628.731L838.303 629.81M981.201 645.225V634.024L947.596 632.379M981.715 572.877V561.675L981.149 561.727M947.596 555.715L981.766 561.675M921.544 563.936L941.687 567.071V551.296L879.204 551.45M983.719 558.901L941.738 551.296M921.544 567.636V563.988L879.204 567.225V551.45M879.204 551.45L838.303 555.098M981.201 572.826V561.727L947.596 555.869M981.715 500.58V489.378L981.149 489.43M947.596 479.102L981.766 489.378M941.687 489.738L921.544 484.086V487.734M921.544 484.035L879.204 489.892M941.687 489.687V473.912L879.204 474.117M983.719 486.809L941.738 473.912M879.204 489.944V474.169L838.303 480.386M981.201 500.426V489.43L947.596 479.307M981.715 482.493V471.291L981.149 471.394M947.596 459.936L981.766 471.291M921.544 464.046L941.687 470.366V454.592L879.204 454.849M983.719 468.825L941.738 454.592M921.544 467.746V464.098L879.204 470.623V454.849M879.204 454.849L838.303 461.683M981.201 471.394V482.339M947.596 460.192L981.201 471.343M981.715 446.319V435.117L981.149 435.22M947.596 421.603L981.766 435.117M941.687 431.726L921.544 424.173M941.687 431.675V415.9L879.204 416.208M983.719 432.754L941.738 415.9M921.544 427.769V424.121L879.204 431.983V416.208M879.204 416.208L819.445 428.078M981.201 435.22V446.113M947.596 421.963L981.201 435.271M981.715 670.146V681.348M981.715 681.348L947.544 682.53M981.715 681.348H981.149M941.687 683.146L921.544 683.866M941.687 683.146L879.204 683.095V667.32L838.303 667.166M941.687 683.146V667.372M921.544 683.866L879.204 683.146M921.544 683.866V687.514M983.719 684.996L921.544 687.514M921.544 687.514L838.303 685.87M983.719 666.961L941.738 667.32M981.201 670.146V681.348L947.596 682.479M693.092 691.882L838.251 686.846M693.092 691.882L587.91 688.901M693.092 691.882V668.502M634.104 668.091L693.092 668.451M693.092 668.451L838.251 667.372M693.092 668.451V645.071M693.092 645.071L838.251 647.897M693.092 645.071V621.692M634.104 646.047L693.092 645.123M641.4 623.696L693.092 621.743M693.092 621.692L838.251 628.474M693.092 621.692V598.312M662.724 600.162L693.092 598.312M693.092 598.312L838.251 609.051M693.092 598.312V574.932M681.736 575.857L693.092 574.932M693.092 574.932L838.251 589.628M693.092 574.932V551.553M638.574 557.256L693.144 551.553M693.092 551.553L838.251 570.154M693.092 551.553V528.173M626.859 536.6L693.144 528.173M693.092 528.173L838.251 550.731M693.092 528.173V504.794M616.017 516.304L693.144 504.794M693.092 504.794L838.251 531.308M693.092 504.794V481.414M693.092 481.414L575.218 501.608V480.849M693.092 481.414L838.251 511.833M693.092 481.414V458.034L575.218 480.849M575.218 509.932V501.556M575.218 480.849V460.09M838.251 492.359L693.092 457.983V434.603M693.092 434.603L575.218 460.038V447.295M693.092 434.603L838.251 472.936M693.092 434.603V411.224M586.471 436.607L693.092 411.224M693.092 411.224L838.251 453.461M693.092 411.224V387.844L578.147 417.75M983.719 683.712L1059.25 684.945M1059.25 684.945L1072.2 684.328V666.858M1059.25 684.945V666.961M1059.25 666.961L983.719 666.704M1059.25 666.961L1072.2 666.806V649.336V631.866L1059.25 631.043M1059.25 666.961V649.028M1059.25 649.028L983.719 649.696M1059.25 649.028L1072.2 649.387M1059.25 649.028V631.095M1017.17 405.417V399.817M1017.17 399.817L969.999 408.809M1017.17 399.817L1025.49 403.876M983.719 581.664L1059.25 577.142M1059.25 577.193L1072.2 579.403V596.873M1059.25 577.193V595.126M1059.25 577.193V559.26L983.719 564.707M1072.2 596.873L1059.25 595.126M1072.2 596.873V614.344V631.814M1059.25 595.126L983.719 598.672M1059.25 613.11V595.178M1059.25 613.11L1072.2 614.395M1059.25 613.11V631.043M983.719 615.68L1059.25 613.059M1059.25 631.043L983.719 632.688M1059.25 415.54L1072.2 421.963V404.493M1059.25 415.54V397.607L1072.2 404.544M1059.25 415.54L983.719 428.643M1072.2 422.014V439.485M1072.2 439.485L1059.25 433.524M1072.2 439.485V456.955M1059.25 433.524V415.591M1059.25 433.524V451.457M983.719 445.651L1059.25 433.473M1059.25 451.457L1072.2 456.955M1059.25 451.457L983.719 462.659M1072.2 456.955V474.426M1072.2 544.41V526.94L1059.25 523.292M1072.2 544.41L1059.25 541.276M1072.2 544.41V561.881M1059.25 541.276V523.343M1059.25 541.276L983.719 547.699M1059.25 541.276V559.209L1072.2 561.881M1059.25 523.292L983.719 530.691M1059.25 523.292V505.359M1072.2 561.881V579.351M1072.2 491.948V509.418V526.889M1072.2 491.948L1059.25 487.374M1072.2 491.948V474.477L1059.25 469.442M983.719 496.675L1059.25 487.374M1059.25 487.374V469.442M1059.25 505.359L1072.2 509.469M1059.25 505.359V487.426M1059.25 505.359L983.719 513.683M1059.25 469.442L983.719 479.667M1059.25 469.442V451.509M261.829 689.775L176.48 691.625M302.936 667.834L176.48 668.451M302.936 646.767L176.48 645.225M325.185 605.608L176.429 598.774M333.149 626.573L176.48 622.051M284.129 582.332L176.48 575.6M320.971 543.126L176.48 529.201" stroke="#019CA5" stroke-miterlimit="10" stroke-linecap="round"/>
<path d="M358.019 566.865L176.429 552.426M361.257 526.889L176.481 505.976M327.395 502.43L176.481 482.801M350.158 485.114L176.481 459.627M139.073 439.382L154.077 432.702V443.955M139.073 406.754L162.967 394.524M162.967 394.524L243.793 410.042M162.967 394.524V371.71M162.967 394.524V417.339L243.793 431.521M243.793 388.615V410.093V431.572V447.398M162.967 371.71L243.793 388.564V367.085M162.967 371.71V348.895M162.967 371.71L139.073 384.967M243.793 367.085L162.967 348.895M243.793 367.085V345.607M162.967 348.895V326.081M139.073 428.54L162.967 417.39V434.192M139.073 363.232L162.967 348.947M139.073 341.445L162.967 326.081M162.967 326.081L243.793 345.607M162.967 326.081V303.267M243.793 345.607V324.129V302.65V281.172M139.073 319.658L162.967 303.267M162.967 303.267L243.793 324.077M162.967 303.267V280.452M139.073 297.871L162.967 280.452M162.967 280.452L243.793 302.599M162.967 280.452V257.638L243.793 281.12M139.073 276.136L162.967 257.689M11.7445 608.435L-72.5762 620.561M11.7445 608.435V577.348M11.7445 608.435L176.481 614.138M11.7445 608.435V639.522M-72.5762 620.561V596.514V572.466M-72.5762 620.561V644.609M11.7445 577.296L-72.5762 596.462M11.7445 577.296L176.481 586.34M11.7445 577.296V546.209M176.481 558.592L11.7445 546.209M11.7445 546.209V515.122M11.7445 546.209L-72.5762 572.466M11.7445 701.747L-72.5762 692.755M11.7445 701.747L176.481 697.483M11.7445 701.747V670.66M-72.5762 644.609L11.7445 639.522M-72.5762 644.609V668.656M11.7445 639.522L176.481 641.937M11.7445 639.522V670.609M176.481 530.794L11.7445 515.122M11.7445 515.122L-72.5762 548.419M11.7445 515.122V484.035M176.481 502.995L11.7445 483.983M11.7445 484.035L-72.5762 524.371M11.7445 484.035V452.948L176.481 475.248M-72.5762 524.371V548.419M-72.5762 524.371V500.323M-72.5762 572.466V548.419M11.7445 421.809V452.896L-72.5762 500.272V476.224M-72.5762 668.656L11.7445 670.609M-72.5762 668.656V692.704M11.7445 670.609L176.481 669.684M121.706 372.326V345.299M121.706 372.326L114.461 376.694M121.706 372.326V399.354L114.461 403.311M121.706 345.299L114.461 350.077M121.706 345.299V318.271M114.461 350.077V376.694M114.461 350.077L30.4482 331.887M114.461 350.077V323.461M114.461 376.694V403.311M114.461 376.694L30.4482 360.046M-57.9318 287.235V311.077L9.2267 233.077M-57.9318 287.235L9.2267 203.942M-57.9318 287.235V263.393M114.461 403.311L30.4482 388.204M139.073 375.872L121.654 372.378M30.4482 353.88L9.2267 349.615M9.2267 349.615L-57.9318 406.394M9.2267 349.615V378.749L-57.9318 430.236V406.394M9.2267 349.615V320.48M-57.9318 406.394V382.552V358.71V334.868V311.026M139.073 242.428V269.097L121.654 264.267M139.073 242.428L121.654 237.29M139.073 242.428V215.76M30.4482 382.603L9.2267 378.698M139.073 402.54L121.654 399.354M9.2267 233.077V203.942M9.2267 233.077V262.211M9.2267 203.942L30.4482 210.211M9.2267 203.942V174.807M114.461 323.461L30.4482 303.729M114.461 323.461L121.706 318.322V291.294M114.461 323.461V296.844M139.073 349.152L121.654 345.299M30.4482 325.156L9.2267 320.48M9.2267 320.48L-57.9318 382.603M9.2267 320.48V291.346M121.706 156.207V129.179M121.706 156.207L114.461 163.811M121.706 156.207V183.234M121.706 264.267V237.239M121.706 264.267L114.461 270.227V296.844M121.706 264.267V291.294M114.461 243.662L121.706 237.29V210.262M114.461 243.662V270.278L30.4482 247.413M114.461 243.662L30.4482 219.254M114.461 243.662V217.045M30.4482 238.934L9.2267 233.025M30.4482 37.8184L9.2267 29.1345M9.2267 29.1345V0M9.2267 29.1345L-57.9318 144.234M30.4482 9.09489L9.2267 0M9.2267 0L-57.9318 120.392M139.073 215.76L121.654 210.262M139.073 215.76V189.092M121.706 210.262L114.461 217.045M121.706 210.262V183.234M114.461 217.045L30.4482 191.096M114.461 217.045V190.428M30.4482 181.487L9.2267 174.807M9.2267 174.807L-57.9318 263.393M9.2267 174.807V145.673M-57.9318 263.393V239.551M121.654 48.198L139.073 55.6486V82.3167L121.654 75.1744M121.706 48.1465V75.1744L114.461 84.0124L30.4482 50.3047M-57.9318 144.183V120.341M121.654 183.234L139.073 189.041V162.373M121.706 183.234L114.461 190.428M114.461 190.428L30.4482 162.938M114.461 190.428V163.811M30.4482 152.764L9.2267 145.673M9.2267 145.673L-57.9318 239.551M9.2267 145.673V116.538M-57.9318 239.551V215.709M139.073 162.373L121.654 156.258M139.073 162.373V135.704M114.461 163.811L30.4482 134.728M114.461 163.811V137.195M30.4482 123.989L9.2267 116.487M9.2267 116.538L-57.9318 215.709M9.2267 116.538V87.4037M-57.9318 215.709V191.867M114.461 137.246L121.706 129.23V102.202L114.461 110.629M114.461 137.246L30.4482 106.621M114.461 137.246V110.629M30.4482 296.433L9.2267 291.346M9.2267 291.346L-57.9318 358.761M9.2267 291.346V262.211M139.073 322.484L121.654 318.322M121.706 291.294L114.461 296.844M114.461 296.844L30.4482 275.519M121.706 48.198L114.461 57.3956L30.4482 22.095M139.073 295.816L121.654 291.294M9.2267 262.211L-57.9318 334.919M9.2267 262.211L30.4482 267.709M139.073 135.704L121.654 129.23M139.073 135.704V109.036M9.2267 87.4037L-57.9318 191.867M9.2267 87.4037V58.2692L-57.9318 168.025V191.867M30.4482 95.2654L9.2267 87.3523M114.461 110.629L30.4482 78.4629" stroke="#019CA5" stroke-miterlimit="10" stroke-linecap="round"/>
<path d="M121.654 102.202L139.073 108.985V82.3169M30.4479 66.5421L9.22639 58.2694V29.1348M114.46 110.629V84.0126V57.3958M121.705 102.202V75.1746M-57.9321 168.025V144.183M114.46 437.79V429.876M114.46 429.928L30.4479 416.363M114.46 429.928L121.705 426.382V399.354M114.46 429.928V403.311M121.705 438.92V426.331M9.22639 423.453V407.884M9.22639 407.884L-57.9321 454.078M9.22639 407.884L30.4479 411.378M9.22639 407.884V378.75M-57.9321 466.821V454.078M-57.9321 454.078V430.236M139.073 429.208L121.654 426.331M535.087 497.857L525.119 484.549L515.151 471.24M535.087 497.857L484.886 489.79M535.087 497.857L539.763 498.628L543.463 503.612L544.645 505.205L507.751 499.501M575.218 447.296L586.471 444.726V436.608V419.857M575.218 447.347L552.198 452.639M641.4 618.455V617.735M662.725 617.53V600.162V591.735M626.859 543.126V536.549M626.859 536.6V517.948M355.142 465.742V465.64V443.236M325.185 603.502V599.7M261.829 690.854V689.775V668.246M320.971 556.743V543.126V534.442M459.04 443.339L470.549 440.256L487.814 435.631M333.149 645.277V626.573V624.004M333.149 645.277L302.936 645.996M333.149 645.277L505.593 641.115M302.936 668.143V668.091M366.241 525.964V517.64V513.94M350.157 485.114L327.394 490.766V502.43V512.964M587.91 693.064V688.85M587.91 688.902V669.427M358.019 559.877V556.743M284.129 601.549V582.383M284.129 582.332V579.3L358.019 569.794M681.737 589.012V575.858V562.189M542.024 546.209L599.317 552.735M599.317 552.786V546.466V543.486M505.593 669.993L587.91 669.376L634.104 669.016V668.091M507.905 400.177L578.147 417.75L586.471 419.805M526.198 468.825L507.289 443.236L504.257 439.125M981.715 428.284L981.15 428.078M981.201 428.027L947.596 414.307M947.596 414.359V402.849M947.596 402.797V402.437M983.719 414.718V428.643V432.754V445.651V450.79V462.659M941.687 415.9L921.544 407.781M969.999 408.809L941.738 396.58M921.544 407.833L879.204 416.208M981.715 590.964L981.15 590.913M981.201 590.913L947.596 586.751V574.984V574.881M941.687 589.988L921.544 587.624L879.204 590.091M981.715 627.139L981.15 627.087M981.201 627.087L947.596 625.032V613.214V613.265M983.719 612.905V615.68V630.941V632.688V648.977M941.687 628.68L921.544 627.601M921.544 627.55L879.204 628.68M981.715 609.051L981.15 609M981.201 609L947.596 605.917V594.15M947.596 594.099V593.996M983.719 612.957V598.723M983.719 598.672V594.921V581.664V576.885V564.707V558.901V547.699V540.865V530.691V522.881M941.687 609.308L921.544 607.561M921.544 607.613L879.204 609.411M981.715 518.668L981.15 518.513M981.201 518.513L947.596 510.086M947.596 510.138V498.474V498.268M983.719 522.83V513.632M983.719 513.683V504.845V496.675V486.81V479.667V468.825V462.711M941.687 512.604L921.544 507.671M921.544 507.723L879.204 512.81M981.715 554.842L981.15 554.739M981.201 554.739L947.596 548.47M947.596 548.419V536.703V536.549M941.687 551.296L921.544 547.648L879.204 551.399M981.715 536.755L981.15 536.652M981.201 536.6L947.596 529.253V517.588V517.383M941.687 531.976L921.544 527.711M921.544 527.66L879.204 532.079M981.715 464.406L981.15 464.201M981.201 464.252L947.596 452.639V441.078V440.77M941.687 454.592L921.544 447.758L879.204 454.849M983.719 666.961V666.704M941.687 667.372L921.544 667.526L879.204 667.321M981.715 645.226H981.15M981.201 645.174L947.596 644.198V632.38M941.687 648L921.544 647.538L879.204 648M981.715 572.877L981.15 572.775M981.201 572.826L947.596 567.585V555.869V555.715M941.687 570.616L921.544 567.636L879.204 570.771M981.715 500.58L981.15 500.426M981.201 500.426L947.596 490.972V479.359M947.596 479.308V479.051M941.687 493.284L921.544 487.735L879.204 493.489M981.715 482.493L981.15 482.339M981.201 482.339L947.596 471.806V460.193V459.936M941.687 473.912L921.544 467.746L879.204 474.169M981.715 446.371L981.15 446.165M981.201 446.165L947.596 433.525M947.596 433.473V421.912M947.596 421.963V421.655M941.687 435.272L921.544 427.821M921.544 427.77L879.204 435.529" stroke="#019CA5" stroke-miterlimit="10" stroke-linecap="round"/>
<path d="M947.596 682.479V670.609M947.596 670.66L981.201 670.198M981.201 670.147H981.766M983.719 684.996V683.712V666.961M838.303 686.846V685.87V667.423M838.303 647.949V629.81V628.474V611.107V609.051V592.454V589.628M838.303 667.372V667.166V648.463V647.897M838.303 589.577V573.751V570.154V555.098V550.731V536.395V531.256V517.691M838.303 517.742V511.833V499.039V492.359V480.335V472.936V461.683V453.513V443.03M838.303 434.09L819.445 428.078L784.915 417.082M838.303 442.979V434.038M1017.12 405.469L978.683 412.611L969.948 408.809M355.142 465.639L243.845 447.398M176.481 586.391V598.826V614.138V622M176.481 586.34V575.6V558.592V552.426V530.794V529.201V505.976V502.995V482.75M176.481 622.051V641.937V645.225V668.451M176.481 482.801V475.248V459.576V447.449L154.129 443.955M-72.5249 476.224L-57.9319 466.821L9.2266 423.453L11.7444 421.809L30.4481 424.738V416.362V411.378V388.204V382.603V360.046V353.88V331.888V325.156V303.729V296.433V275.571V267.709V247.413M176.481 668.4V669.684V691.625V697.483M139.073 349.152V341.445V322.484V319.658V297.871V295.765M139.073 375.821V384.967V402.54V406.754V428.54M139.073 375.872V363.232V349.204M30.4481 238.986V219.254V210.211V191.096V181.487V162.938V152.764V134.78M30.4481 9.09497V22.1464M30.4481 22.0951V37.7671M30.4481 123.989V134.728M30.4481 95.2655V106.57M30.4481 106.621V124.04M30.4481 238.934V247.361M139.073 295.816V276.136V269.148M30.4481 66.542V78.4116M30.4481 78.463V95.3169M30.4481 37.8185V50.3048V66.5934M139.073 441.643V439.434V429.26M139.073 441.643L154.077 443.955M139.073 441.643L121.654 438.92M641.401 643.427V623.696V618.454M616.017 516.304L626.859 517.999M325.185 622.565V605.66M325.185 605.609V603.45M320.972 534.442L361.257 526.889L366.292 525.964M366.241 525.964L484.834 503.766M484.886 503.766L507.803 499.501M302.936 668.04V667.834V646.767V645.996M350.158 485.114L362.233 482.082L452.257 459.679M358.019 559.928V566.865V569.845L517.823 549.343L542.024 546.26M599.317 552.786L638.574 557.256L681.788 562.189M634.104 668.091V645.996M634.104 646.048V643.684M983.719 414.769L978.735 412.611M947.596 663.364V651.494M983.719 666.704V649.696V648.976M693.093 387.844L784.864 417.082M1017.17 405.418L1025.49 403.876M1025.44 403.876L1059.2 397.607M243.793 447.398L162.967 434.192L154.077 432.754M139.073 429.208V428.489M544.645 505.205L575.27 509.932M575.218 509.932L615.966 516.252M121.706 438.92L114.46 437.789L30.4481 424.686" stroke="#019CA5" stroke-miterlimit="10" stroke-linecap="round"/>
</g>
</g>
<defs>
<clipPath id="clip0_801_106">
<rect width="1072" height="688" fill="white"/>
</clipPath>
</defs>
</svg>
