<svg width="792" height="381" viewBox="0 0 792 381" fill="none" xmlns="http://www.w3.org/2000/svg">
<g opacity="0.2" clip-path="url(#clip0_531_7705)">
<path d="M791.163 378.824H792V380.498H791.163C777.437 380.554 764.101 380.554 754.504 380.498C746.58 380.442 741.168 380.386 740.052 380.219C738.992 380.051 738.322 379.661 737.876 378.935C737.485 378.265 737.374 377.428 737.374 376.312C737.374 375.643 737.374 374.024 737.429 371.959C737.597 363.253 737.876 345.73 736.76 335.014C735.253 334.177 733.635 333.117 731.905 331.945C723.647 326.476 712.209 318.886 694.911 322.458C679.12 325.695 672.369 330.829 667.291 334.68C663.553 337.526 660.763 339.646 656.076 339.87C655.183 339.926 654.848 340.372 654.904 341.209C654.96 342.381 655.573 344.111 656.466 346.176C659.033 348.241 661.488 350.752 663.441 353.71C666.063 357.617 667.961 362.193 669.3 366.267C671.308 372.573 671.643 378.042 670.862 378.712C670.248 379.214 669.69 378.991 669.021 378.21C667.458 376.312 664.222 368.499 660.818 360.407C659.981 358.398 659.144 356.389 658.586 355.049C657.861 353.375 657.136 351.757 656.41 350.194C655.908 349.134 655.462 348.185 655.071 347.236C654.402 346.678 653.676 346.176 653.007 345.73C648.989 343.051 644.972 341.544 642.182 341.265C638.332 340.93 635.542 341.209 633.589 341.823C632.305 342.269 631.413 342.828 630.855 343.441C630.297 344.055 630.018 344.725 629.962 345.395C629.906 345.897 629.962 346.399 630.129 346.846C630.632 348.408 631.469 354.882 632.138 361.691C632.808 368.164 633.31 374.973 633.198 377.931C633.198 378.433 633.031 378.879 632.863 379.214C632.473 379.828 631.803 380.163 631.58 380.163C631.413 380.163 629.906 380.163 627.005 380.107C615.957 379.996 588.671 379.772 585.323 379.884C584.821 379.884 584.319 379.772 583.873 379.549C583.426 379.326 583.091 378.935 582.924 378.433C582.366 376.87 582.254 368.22 582.031 356.277C581.585 331.833 580.915 293.493 576.396 275.412C573.606 264.306 570.537 255.656 567.58 249.015C565.069 243.378 562.669 239.192 560.605 236.346C560.214 236.681 559.824 236.96 559.433 237.128C559.21 237.239 559.042 237.295 558.819 237.351C557.815 237.518 555.75 238.02 552.96 238.634C542.861 240.867 523.945 245.108 519.872 244.662C519.203 244.606 518.589 244.383 517.975 244.103C516.189 243.211 514.962 241.369 514.236 239.471C513.511 237.574 513.288 235.509 513.455 234.058C513.511 233.444 513.678 232.942 513.846 232.551C513.902 232.44 513.957 232.328 514.069 232.272C515.241 231.044 524.503 229.761 534.212 229.259C543.865 228.756 554.132 228.924 557.48 230.598C557.815 230.765 558.15 230.989 558.373 231.212C559.042 231.882 559.879 232.719 560.772 233.891C562.056 232.216 563.451 229.538 564.566 226.189C566.296 220.887 567.245 214.023 565.85 206.824C565.627 205.596 565.348 204.424 564.957 203.196C560.214 205.317 555.081 207.103 549.892 208.61C533.822 213.242 517.64 214.749 513.176 213.967C512.841 213.911 512.562 213.856 512.339 213.744C510.777 213.186 509.549 211.456 508.489 209.112C503.746 211.679 490.02 211.233 479.753 209.614C476.517 209.112 473.615 208.498 471.495 207.884C469.151 207.159 467.533 206.377 467.087 205.484C466.752 204.871 466.864 204.257 467.422 203.699C467.812 203.308 468.426 202.917 469.151 202.582C466.362 202.192 463.739 201.801 461.675 201.299C458.661 200.573 456.541 199.68 456.039 198.564C455.76 197.895 455.871 197.281 456.485 196.667C458.996 194.155 466.752 194.155 473.615 194.155C478.358 194.155 482.655 194.156 484.161 193.43C484.329 193.318 484.384 193.263 484.384 193.151C483.547 191.477 477.298 189.747 470.937 187.961C465.915 186.566 460.838 185.17 458.048 183.608C455.927 182.436 454.923 181.096 455.816 179.478C457.713 176.13 468.482 179.255 477.465 181.822C482.376 183.273 486.672 184.501 488.179 184.445C487.063 182.882 483.324 181.766 479.753 180.706C476.907 179.869 474.229 179.087 472.778 177.971C471.439 176.967 470.993 175.795 472.165 174.288C472.22 174.232 472.276 174.176 472.276 174.12C474.229 171.832 479.139 171.832 484.496 173.172C489.629 174.455 495.209 176.911 498.836 179.59C499.171 179.813 499.45 180.092 499.729 180.315C503.188 183.217 505.03 190.584 506.815 197.616C507.541 200.462 508.21 203.196 508.991 205.54C509.605 202.359 508.657 197.616 507.764 193.374C506.815 188.854 505.978 184.891 507.206 183.05C508.489 181.152 516.692 179.813 525.619 178.306C526.903 178.083 528.186 177.86 529.637 177.636C542.191 175.516 547.548 168.93 549.278 161.787C548.887 160.559 548.497 159.387 548.106 158.215C544.646 147.444 542.749 138.962 544.479 137.901C545.204 137.455 546.097 137.845 546.934 138.906C548.106 140.357 549.501 143.37 550.505 147.165C551.454 150.904 552.012 155.369 551.342 159.834C551.231 160.448 551.119 161.061 551.008 161.675C555.248 174.4 560.995 189.412 565.013 198.564C565.348 199.346 565.627 200.071 565.906 200.852C574.945 196.555 582.254 190.974 584.821 183.887C585.156 182.994 585.379 182.045 585.547 181.096C587.834 167.87 587.388 149.398 584.989 133.604C582.757 118.871 578.795 106.537 573.829 103.133C569.309 100.008 561.442 96.7709 553.909 93.6456C548.441 91.3575 543.196 89.181 539.401 87.1161C539.178 87.5068 538.843 87.9532 538.453 88.3997C537.002 90.0739 535.663 92.5853 534.435 94.985C532.259 99.1706 530.195 103.021 527.461 102.128C526.624 101.849 525.34 101.347 523.834 100.733C520.263 99.2822 515.297 97.2731 511.67 96.5476C511.949 96.9383 512.228 97.3848 512.451 97.8312C512.953 98.8358 512.618 100.175 511.893 101.515C510.944 103.245 509.438 105.086 508.378 106.091C508.266 106.202 508.154 106.258 507.987 106.258C507.931 106.593 507.82 106.928 507.652 107.263C506.257 109.942 504.695 115.187 503.356 121.661C502.017 127.967 500.901 135.39 500.231 142.645C499.227 153.639 500.119 164.577 500.566 170.326C500.733 172.614 500.845 174.12 500.789 174.679C500.733 174.958 500.622 175.181 500.51 175.404C499.896 176.241 498.557 176.464 496.827 176.185C495.321 175.962 493.48 175.46 491.582 174.79C487.119 173.228 482.264 170.828 481.148 169.767C480.423 169.042 481.204 162.345 483.324 153.36C484.887 146.663 487.174 138.571 489.908 130.758C492.922 122.163 496.548 113.848 499.841 107.43C503.188 100.789 506.257 96.1012 507.931 94.9292C507.15 94.2037 506.313 93.534 505.476 92.8085C504.862 92.3062 504.249 91.804 503.635 91.3017C503.523 91.3017 503.412 91.2459 503.3 91.2459C503.077 92.9201 501.347 98.2777 497.106 102.686C494.54 105.421 491.024 107.765 486.393 108.825C481.148 109.997 476.015 115.355 471.886 121.884C466.641 130.144 463.125 140.134 463.014 145.882C462.958 149.621 463.572 154.197 464.576 158.438C465.246 159.164 465.859 159.945 466.417 160.615C469.319 164.131 471.383 167.2 471.941 169.098C472.276 170.158 472.165 170.939 471.551 171.498C471.216 171.777 470.881 171.944 470.491 172C469.375 172.223 468.315 171.553 467.366 170.214C466.529 169.098 465.748 167.479 464.967 165.526C464.241 163.684 463.572 161.508 463.014 159.22C460.614 156.429 457.769 153.416 454.923 150.514C446.776 142.31 438.239 134.888 436.565 135.669C436.007 135.948 434.389 137.622 431.878 140.245C419.547 153.472 385.845 188.631 338.249 190.305C305.328 191.421 277.261 180.985 258.625 172.837C257.118 175.46 255.388 178.306 253.603 181.32C250.925 185.896 247.912 190.863 244.843 196.165C248.693 204.257 253.324 212.126 258.123 217.483C266.604 227.026 295.284 258.781 316.99 281.439C329.768 294.777 340.034 304.99 342.155 305.604C343.829 306.05 359.564 305.883 379.595 300.693C390.755 297.846 403.198 293.382 415.25 286.685C430.93 277.923 448.283 271.952 463.962 267.487C466.92 244.494 488.29 218.823 492.754 213.409C493.145 212.907 493.424 212.572 493.535 212.46C493.759 212.126 494.038 211.958 494.372 211.847C495.377 211.512 496.66 212.349 498.167 213.967C499.45 215.362 500.901 217.427 502.463 219.939C508.266 229.147 515.185 244.048 515.576 250.8C515.855 255.879 503.858 258.948 486.393 263.301C480.032 264.92 473.002 266.706 465.525 268.771C465.19 272.063 465.301 275.356 465.915 278.425C468.37 290.703 466.752 324.802 465.58 348.911C464.911 362.863 464.409 373.41 464.799 374.024C464.911 374.192 465.078 374.359 465.301 374.471C465.58 374.638 466.027 374.75 466.529 374.805C468.538 375.084 481.818 375.363 494.651 375.531C506.146 375.643 517.25 375.643 519.593 375.419C519.705 375.419 519.816 375.363 519.872 375.363C519.984 375.308 520.151 375.252 520.207 375.14C520.263 375.029 520.318 374.861 520.318 374.582C520.318 374.415 520.263 374.192 520.207 374.024C519.76 372.796 518.812 368.332 517.473 362.193C516.357 357.059 514.962 350.752 513.399 344.167C508.099 333.284 502.24 320.728 499.394 312.301C497.441 306.497 497.051 302.478 499.283 301.697C501.738 300.86 504.416 305.939 506.983 313.752C509.661 321.844 512.507 333.061 514.962 343.609C516.189 346.12 517.417 348.576 518.533 350.864C522.048 358.063 524.782 363.644 525.285 365.374C525.619 366.49 525.842 367.606 526.066 368.722C526.512 371.234 526.568 373.745 526.233 375.754C525.842 377.986 524.95 379.605 523.332 380.051C523.22 380.107 523.108 380.107 522.997 380.107C521.602 380.33 503.021 380.275 482.208 380.107C454.867 379.884 423.509 379.437 421.835 379.214C421.444 379.158 421.053 379.103 420.719 378.935C420.44 378.824 420.272 378.656 420.105 378.489C419.77 378.824 419.379 378.991 419.045 379.047C414.692 379.94 405.207 380.665 397.004 380.833C389.974 381 383.78 380.665 382.218 379.716C380.767 378.768 380.6 371.736 380.432 362.863C380.209 353.375 379.986 341.656 378.479 333.563C378.089 334.68 377.698 335.907 377.363 337.135C375.355 344.948 376.359 356.445 377.084 365.318C377.698 372.852 378.2 378.6 376.247 379.27C374.35 379.94 361.349 380.944 351.027 380.888C344.219 380.833 338.472 380.275 337.412 378.656C336.631 377.484 334.343 369.95 332.055 360.072C330.437 353.096 328.819 344.837 327.703 336.8C326.531 328.317 326.252 320.114 326.029 313.64C325.862 308.394 325.694 304.32 325.192 302.423C323.574 296.563 319.947 290.089 316.99 286.573C316.209 285.625 315.483 284.955 314.869 284.564C314.479 284.341 314.256 284.229 314.2 284.285C314.144 284.341 314.088 284.397 314.032 284.564C313.865 285.066 313.865 285.848 313.921 286.796C314.535 287.299 315.148 287.968 315.762 288.861C316.767 290.312 317.883 292.21 318.998 294.386C322.625 301.641 326.085 311.798 325.359 315.482C324.801 318.328 324.132 323.183 323.518 328.373C322.849 333.787 322.291 339.423 322.012 343.441C321.733 347.125 318.44 352.315 314.535 356.947C309.624 362.639 303.654 367.495 301.255 367.495C300.194 367.495 299.748 366.825 299.748 365.709C299.748 364.872 300.083 363.532 300.697 361.97C300.25 362.249 299.804 362.472 299.357 362.583C298.297 362.918 297.405 362.863 296.735 362.193C294.168 359.793 296.177 357.282 298.688 354.156C300.139 352.315 301.868 350.194 302.705 347.85C303.766 345.004 304.156 341.711 304.045 338.586C303.933 335.182 303.263 331.945 302.147 329.434C301.645 328.262 300.864 327.759 300.027 327.48C299.357 330.773 299.413 334.121 299.413 336.8C299.413 338.475 299.413 339.926 299.302 341.042C299.079 343.051 298.353 344.167 296.679 343.944C294.391 343.665 290.876 339.367 287.528 334.066C283.455 327.648 279.549 319.611 278.545 315.817C278.322 314.924 278.043 313.138 277.764 310.571C277.596 310.738 277.485 310.85 277.317 310.961C275.922 311.966 272.742 312.356 268.389 312.356C258.792 312.356 243.28 310.347 229.721 307.724C216.051 305.101 204.333 301.809 202.548 299.242C202.324 298.907 202.213 298.572 202.213 298.181C202.213 269.496 224.699 227.305 242.945 195.941C241.885 193.653 240.881 191.421 239.988 189.133C234.966 176.799 232.344 165.359 234.464 162.624C236.027 160.559 241.551 163.071 250.422 167.145C252.71 168.205 255.221 169.321 257.955 170.549C262.419 162.959 265.321 157.601 265.6 155.536C265.655 155.146 265.655 154.699 265.6 154.197C263.926 153.527 262.419 152.914 261.136 152.523C249.251 148.561 247.577 146.217 248.191 144.375C248.358 143.817 248.748 143.37 249.139 142.924C249.418 142.645 249.641 142.31 249.753 142.087C249.976 141.417 249.195 140.524 244.229 138.627C241.774 137.678 239.04 138.236 235.636 138.906C229.498 140.134 221.352 141.696 208.351 136.283C199.925 132.767 190.83 127.688 182.628 123.056C171.189 116.638 161.48 111.225 158.188 112.453C155.342 113.513 153.11 118.368 150.99 122.945C149.372 126.405 147.865 129.697 146.024 131.372C146.526 132.265 147.307 132.99 148.479 133.66C151.66 135.446 157.016 139.464 163.21 144.207C176.88 154.588 194.792 168.149 202.38 167.2C204.11 166.977 205.784 166.586 207.29 165.973C208.574 163.35 210.136 160.727 211.643 158.606C213.763 155.76 215.939 153.806 217.613 153.918C217.836 153.918 218.059 153.974 218.227 154.085C218.785 154.309 219.175 154.699 219.399 155.257C219.733 156.039 219.566 157.099 219.064 158.271C218.617 159.331 217.78 160.503 216.72 161.675C214.823 163.74 211.977 165.861 208.518 167.312C208.295 167.814 208.072 168.316 207.848 168.819C206.9 171.051 206.286 173.228 206.119 174.846C205.84 178.194 204.835 189.077 202.548 202.359C200.204 215.642 196.577 231.435 190.942 244.717C185.362 257.888 180.172 271.282 177.438 281.885C174.816 292.154 174.425 299.632 178.164 301.418C180.842 302.646 184.134 304.488 187.426 306.329C194.401 310.18 201.599 314.198 202.715 313.082C203.496 312.301 204.556 310.85 205.561 309.343C207.458 306.608 209.411 303.874 210.917 304.488C212.033 304.934 211.977 308.338 211.922 312.412C211.922 314.31 211.866 316.43 211.922 318.272C212.647 314.7 213.372 312.189 214.042 311.464C214.6 310.794 220.459 310.403 226.15 311.352C228.047 311.687 229.889 312.133 231.563 312.691C233.292 313.305 234.799 314.086 235.971 315.091C237.589 316.486 238.426 318.216 238.035 320.393C237.868 321.397 237.533 322.29 237.087 323.072C235.413 325.862 232.065 327.201 228.326 327.759C224.699 328.262 220.738 327.983 217.613 327.425C215.102 326.978 213.093 326.42 212.256 325.918C211.531 330.94 210.806 336.912 210.248 342.939C209.132 355.328 208.685 367.885 209.969 372.964C210.08 373.41 210.415 374.024 210.861 374.471C211.196 374.75 211.531 374.973 211.922 374.973C212.87 374.973 215.66 375.084 219.399 375.196C229.442 375.587 246.461 376.312 251.762 375.419C252.041 375.363 252.208 375.196 252.32 374.973C252.487 374.638 252.487 374.192 252.487 373.745C252.487 369.001 256.281 359.347 259.908 349.971C260.41 348.687 260.913 347.404 261.415 346.12C261.47 344.669 261.526 343.274 261.582 341.935C261.805 337.916 262.196 334.289 262.81 331.61C263.479 328.652 264.484 326.755 265.879 326.587C266.102 326.532 266.381 326.587 266.604 326.643C268.501 327.146 268.501 329.824 267.497 333.731C266.604 337.135 264.93 341.656 263.089 346.455C262.865 356.835 263.591 368.499 264.986 373.187C265.097 373.578 265.879 373.968 267.162 374.303C272.016 375.698 282.618 375.866 292.383 375.587C299.636 375.363 306.444 374.917 309.903 374.526C309.848 373.187 309.736 371.68 309.68 370.285C309.457 367.439 309.345 365.039 310.071 364.537C310.294 364.425 310.461 364.369 310.74 364.369C311.243 364.425 311.689 364.816 312.079 365.486C312.358 365.932 312.637 366.602 312.916 367.327C313.642 369.504 314.2 372.685 313.474 375.084C313.363 375.419 313.14 375.643 312.749 375.754C312.526 375.81 312.191 375.866 311.633 375.977C311.633 377.038 311.521 378.042 311.354 378.712C311.131 379.437 310.685 379.828 310.127 379.996C309.68 380.163 309.234 380.163 308.787 380.107C307.95 380.051 270.454 380.107 221.24 380.219C145.075 380.33 40.9001 380.554 0.892772 380.665H0V378.991H0.836973C40.8443 378.879 145.075 378.712 221.184 378.545C270.454 378.489 307.95 378.433 308.787 378.433C309.066 378.433 309.345 378.433 309.513 378.377C309.569 378.377 309.624 378.321 309.624 378.265C309.736 377.763 309.848 377.038 309.848 376.201C306.165 376.591 299.469 377.038 292.327 377.261C282.451 377.54 271.626 377.373 266.604 375.922C264.763 375.419 263.591 374.638 263.312 373.633C262.084 369.504 261.359 360.072 261.303 350.808C257.732 359.961 254.049 369.336 254.049 373.689C254.049 374.303 253.994 375.029 253.715 375.587C253.38 376.312 252.822 376.87 251.873 376.982C246.405 377.875 229.331 377.205 219.175 376.814C215.437 376.647 212.703 376.535 211.81 376.591C210.973 376.591 210.192 376.201 209.578 375.643C208.909 374.973 208.351 374.08 208.183 373.354C206.9 368.108 207.29 355.328 208.462 342.772C209.076 336.019 209.913 329.322 210.806 323.797C210.025 321.062 210.08 316.375 210.136 312.356C210.192 308.896 210.248 305.994 210.192 305.994C209.913 305.883 208.406 308.115 206.844 310.292C205.784 311.798 204.724 313.305 203.831 314.254C201.822 316.263 194.066 311.966 186.533 307.78C183.186 305.939 179.949 304.153 177.327 302.925C172.64 300.748 172.863 292.545 175.653 281.495C178.387 270.78 183.632 257.274 189.212 244.048C194.792 230.933 198.419 215.307 200.706 202.08C202.994 188.854 203.998 178.083 204.277 174.734C204.445 172.949 205.114 170.605 206.119 168.205L206.174 168.093C205.003 168.428 203.719 168.707 202.436 168.875C194.178 169.879 175.932 156.039 162.038 145.547C155.9 140.859 150.599 136.841 147.475 135.111C145.968 134.274 144.964 133.325 144.35 132.265C144.071 132.376 143.736 132.432 143.401 132.432C140.891 132.432 133.581 127.354 125.323 121.661C115.112 114.629 103.394 106.537 98.4839 106.091C93.7968 105.644 90.0583 105.086 86.822 103.97C83.5299 102.854 80.6842 101.18 77.7827 98.5567C75.216 96.2128 72.7609 95.4315 71.2543 95.5431C70.9195 95.5431 70.6406 95.6547 70.4174 95.7663C70.3058 95.8221 70.25 95.8779 70.25 95.9337C70.1942 96.1012 70.3616 96.436 70.7522 96.8267C72.0355 98.1103 72.5935 99.7287 72.4819 101.012C72.4261 101.57 72.2587 102.073 71.9239 102.463C71.5891 102.91 71.1427 103.189 70.529 103.3C69.5246 103.468 68.0738 103.077 66.2883 101.682C63.9448 99.8403 62.0476 96.8825 61.1549 93.9805C60.7643 92.6411 60.5411 91.3017 60.6527 90.1297C60.7085 88.8462 61.0991 87.6742 61.8244 86.7813C62.4382 86 63.2752 85.4419 64.3354 85.107C66.9579 84.3257 68.6876 83.6002 69.0782 82.8747C69.3014 82.4283 68.576 81.7586 66.4557 80.754C65.5629 80.3634 65.2839 80.1959 65.0607 80.0843C59.6483 77.5172 53.0083 74.4477 53.3431 71.9922C53.3989 71.6015 53.5663 71.2667 53.9011 70.9318C54.4033 70.4296 55.296 70.0389 56.412 69.8715C57.4164 69.7041 58.5881 69.7041 59.8715 69.8715C62.1034 70.2063 64.5028 71.0993 66.2883 72.9409C66.7347 73.3874 68.018 74.1129 70.0826 75.0058C71.7007 75.7313 73.8211 76.4568 76.332 77.1823C82.5814 78.9682 89.8909 82.4283 95.0244 86.0558C98.2049 86.7255 101.888 88.1207 106.463 90.6878C108.862 92.0272 115.893 94.985 123.76 98.2777C136.873 103.747 152.162 110.109 152.608 112.341C152.831 113.513 151.604 115.355 150.041 117.755C149.149 119.094 148.2 120.601 147.363 122.108C145.968 124.619 144.852 127.354 145.243 129.642C146.582 128.135 147.865 125.289 149.26 122.275C151.492 117.42 153.892 112.174 157.407 110.89C161.424 109.439 171.468 115.02 183.241 121.605C191.444 126.182 200.483 131.26 208.797 134.72C221.296 139.91 229.219 138.403 235.134 137.232C238.761 136.506 241.718 135.948 244.675 137.064C250.925 139.464 251.762 141.138 251.148 142.701C250.925 143.203 250.59 143.594 250.255 144.04C249.976 144.375 249.697 144.71 249.641 144.989C249.306 145.993 250.925 147.5 261.526 151.016C262.586 151.351 263.758 151.797 264.986 152.3C264.707 151.351 264.316 150.402 263.981 149.398C262.977 146.663 261.917 143.873 262.307 141.529C261.582 141.361 260.913 141.138 260.299 140.803C252.766 136.729 255.444 122.61 257.565 111.56C258.29 107.877 258.904 104.528 259.015 102.128C259.071 101.57 259.127 100.956 259.294 100.343C259.797 98.4451 260.913 96.2686 262.865 94.6502C264.818 92.9759 267.552 91.8598 271.235 92.083C272.351 92.1388 273.579 92.3621 274.918 92.6969C279.717 93.9805 284.794 96.3244 289.649 98.5567C290.876 99.1148 292.104 99.7287 293.331 100.231C293.443 99.7845 293.554 99.3938 293.554 99.1706C293.443 97.8312 292.494 95.7663 289.481 93.7572C287.249 92.2504 283.901 90.8552 279.047 89.8507C269.84 87.8974 266.437 90.4088 263.814 92.3062C263.089 92.8643 262.419 93.3108 261.638 93.7014C261.191 93.9247 260.801 94.0363 260.355 94.0921C258.792 94.3153 257.118 93.7014 255.667 92.6411C254.273 91.6365 252.989 90.1855 252.264 88.6787C251.873 87.8974 251.594 87.1161 251.483 86.3348C251.259 84.7164 252.041 84.0467 253.547 83.8234C254.663 83.656 256.225 83.8793 257.955 84.0467C260.913 84.4373 264.484 84.8838 267.106 83.7676C268.947 82.9863 270.063 81.2005 271.403 79.0798C274.025 74.8942 277.317 69.7041 288.086 67.974C293.554 67.1369 298.465 68.1973 302.705 70.2063C308.118 72.8293 312.358 77.1265 314.758 80.8656C319.78 88.6787 318.552 96.4918 316.99 106.37C316.878 107.095 316.767 107.877 316.543 109.272C316.209 111.448 315.539 113.346 314.814 114.853C314.925 115.299 314.981 115.746 315.037 116.192C315.204 117.42 315.204 118.592 314.925 119.54C314.535 121.159 313.53 122.219 311.8 122.275C309.736 122.387 308.899 122.052 308.843 121.047C308.787 120.378 309.345 119.708 310.127 118.759C310.908 117.81 312.024 116.415 312.972 114.629C312.805 114.071 312.637 113.513 312.414 112.955C310.964 109.16 308.174 105.477 304.993 105.477C302.036 105.477 298.353 104.193 294.28 102.407C294.112 102.91 293.889 103.412 293.666 103.97C292.104 107.932 290.095 113.067 292.383 113.96C294.224 114.685 296.065 114.35 297.739 114.127H297.907C298.353 113.178 299.078 112.453 300.362 112.285C301.534 112.062 303.04 112.285 304.324 112.955C305.216 113.402 306.053 114.071 306.611 114.964C307.169 115.857 307.448 116.973 307.169 118.313C306.89 119.819 306.053 121.55 304.212 123.503C300.864 127.13 297.963 131.26 296.065 135.111C294.391 138.515 293.554 141.585 294.057 143.817C294.336 145.1 295.898 147.221 298.186 149.509C300.418 151.742 303.263 154.03 306.276 155.927C308.899 157.546 311.8 158.718 314.311 159.666C316.655 160.615 318.719 161.396 320.059 162.401C320.17 162.457 320.226 162.568 320.338 162.624C322.737 161.34 325.248 158.829 327.703 156.374C330.828 153.304 333.897 150.291 336.742 149.621C338.639 149.174 341.987 148.784 345.67 148.281C349.13 147.835 352.868 147.389 355.993 146.83C356.774 145.882 357.834 144.821 358.894 144.04C359.508 143.594 360.178 143.203 360.847 143.036C361.573 142.812 362.298 142.812 362.967 143.147C363.358 143.315 363.693 143.649 364.028 144.04C364.697 144.933 364.418 145.714 363.525 146.384C362.465 147.165 360.01 147.835 356.997 148.393C356.662 148.84 356.383 149.23 356.272 149.453C356.16 149.732 356.551 150.346 357.053 151.128C357.443 151.742 357.89 152.411 358.225 153.248C358.615 154.197 358.448 154.755 357.778 155.09C357.276 155.313 356.606 155.146 355.714 154.923C354.486 154.644 352.645 154.197 350.58 154.42C350.413 154.42 350.357 154.476 350.301 154.532C350.078 154.867 350.134 155.536 350.357 156.485C350.636 157.546 351.194 158.885 351.919 160.28C354.319 164.912 358.559 170.326 361.405 171.163C361.517 171.218 361.684 171.218 361.796 171.274C363.47 164.745 364.92 153.806 365.869 146.607C366.092 144.877 366.315 143.37 366.427 142.31C367.208 136.841 365.59 135.669 363.079 135.278C362.354 135.167 361.517 135.111 360.624 135.055C358.838 134.943 356.885 134.832 354.932 134.218C350.859 132.934 351.25 130.367 351.696 127.912C351.864 126.851 352.031 125.847 351.696 125.177C350.469 122.945 352.98 121.438 355.1 120.21C356.048 119.652 356.885 119.15 356.885 119.094C356.885 119.094 355.937 118.927 354.932 118.815C353.37 118.592 351.808 118.313 351.306 117.197C351.027 116.527 351.082 115.69 351.082 114.853C351.138 113.848 351.138 112.844 350.58 112.564C350.19 112.341 349.409 112.285 348.572 112.23C347.735 112.174 346.842 112.118 346.172 111.839C345.056 111.393 344.498 110.555 345.112 108.993C345.558 107.877 346.73 106.593 347.958 105.254C350.022 103.021 352.31 100.454 351.361 98.7799C349.353 95.3757 349.799 93.3666 351.696 92.2504C354.319 90.7436 360.01 91.4133 365.813 92.083C371.226 92.7527 376.75 93.3666 379.205 92.2504C394.326 85.2745 397.283 88.7903 401.412 93.6456C402.305 94.706 403.254 95.8221 404.426 96.9383C404.258 94.706 403.365 92.5295 401.357 90.5762C398.902 88.1207 395.888 87.0603 392.764 86.9487C388.802 86.7813 384.617 88.1207 380.99 89.9065C376.471 92.1388 368.157 91.0785 359.675 89.9623C356.941 89.6275 354.207 89.2368 351.64 89.0136C350.859 89.46 349.911 89.7391 348.962 90.0739C348.069 90.353 347.177 90.632 346.619 90.9669C346.284 91.1901 346.172 91.5249 346.507 92.0272C346.898 92.5853 347.288 93.1434 347.623 93.6456C348.46 94.7618 349.018 95.5431 349.018 96.2686C349.018 97.3848 348.125 97.8312 345.837 97.8312C343.382 97.8312 339.532 96.8267 337.133 95.3757C336.463 94.985 335.85 94.4827 335.459 94.0363C334.957 93.4782 334.678 92.8643 334.678 92.1946C334.678 91.804 334.789 91.3575 335.013 90.9669C337.412 87.0045 343.773 86.6696 351.194 87.2835C351.306 87.1719 351.417 87.0603 351.473 86.8929C352.031 85.2745 354.375 79.0798 357.89 73.1084C359.954 69.6483 362.409 66.244 365.144 63.7884C369.998 59.4912 376.694 57.9844 383.557 58.7657C387.574 59.268 391.704 60.5516 395.498 62.5607C399.348 64.5698 402.863 67.3043 405.876 70.6528C411.735 77.2939 415.25 86.279 413.967 96.9941C413.744 98.9474 413.297 100.454 412.74 101.682C413.465 102.184 413.8 102.798 413.967 103.356C414.19 104.361 413.8 105.254 412.963 106.091C412.293 106.76 411.345 107.374 410.34 107.765C408.331 108.602 406.044 108.658 405.207 107.486C404.481 106.537 404.649 105.979 405.318 105.421C405.653 105.198 406.044 105.03 406.546 104.863C407.55 104.528 409.113 103.97 410.396 102.24C410.284 102.184 410.173 102.128 410.061 102.128C408.443 101.57 407.048 100.845 405.876 100.064C405.486 102.296 404.649 104.528 403.589 106.705C403.812 108.211 403.979 109.774 404.035 111.337C404.37 118.368 403.142 125.456 401.524 128.135C401.078 128.805 400.631 129.195 400.129 129.251C399.348 129.363 398.79 128.86 398.455 127.856C398.232 127.186 398.065 126.293 398.009 125.177C397.674 120.657 398.511 112.676 400.631 108.77C401.022 107.988 401.468 107.207 401.859 106.426C401.301 103.133 400.296 100.175 398.734 98.1661C397.73 96.8267 395.721 97.3848 393.266 98.0544C391.425 98.5567 389.304 99.1148 387.072 99.059C383.78 99.059 380.711 98.5009 378.145 98.0544C374.518 97.4406 371.895 96.9941 371.281 98.2777C370.723 99.5054 372.063 102.854 373.569 106.481C375.355 110.834 377.308 115.578 376.582 118.703C377.363 119.429 378.145 120.433 378.982 121.605C381.492 124.954 384.729 129.363 391.09 128.023C392.373 127.744 393.601 129.363 395.275 131.539C396.67 133.325 398.399 135.557 400.464 137.455C401.357 138.236 402.249 139.017 403.198 139.743C404.426 139.743 405.765 139.91 407.16 140.189C408.722 140.524 410.34 141.026 411.791 141.64C414.692 142.868 416.813 144.598 416.645 146.384C416.59 146.719 416.534 146.942 416.422 147.221C415.976 148.002 415.139 148.226 414.023 148.058C413.186 147.947 412.126 147.556 410.898 146.942C408.555 145.77 405.597 143.817 402.696 141.529C401.524 141.64 400.631 141.919 400.464 142.589C400.129 143.873 399.962 145.714 399.794 147.668C399.404 152.021 399.013 157.099 396.335 159.778C394.27 161.843 385.398 166.084 376.973 169.154C371.505 171.163 366.148 172.669 362.856 172.893C362.354 174.567 361.851 175.906 361.349 176.743C359.787 179.199 354.486 181.599 348.962 182.994C343.55 184.333 337.914 184.724 335.459 183.217C335.013 182.938 334.622 182.547 334.231 182.101C333.841 182.771 333.115 183.329 332.167 183.775C329.768 184.836 325.75 185.282 321.733 185.226C317.715 185.17 313.698 184.612 311.41 183.719C310.238 183.273 309.401 182.715 309.066 182.045C308.229 180.259 310.908 176.967 313.753 173.451C314.814 172.167 315.874 170.884 316.767 169.6C318.106 167.758 319.166 166.028 319.277 164.912C318.106 165.303 316.934 165.414 315.818 165.135C313.307 164.522 310.964 163.461 308.787 162.512C305.495 161.061 302.873 159.889 302.147 161.34C301.701 162.289 301.366 163.405 301.087 164.354C300.808 165.414 300.529 166.363 300.139 167.033C299.358 168.205 298.297 168.484 296.456 167.256C294.949 166.252 293.22 164.019 291.49 161.731C289.258 158.829 287.026 155.927 285.91 156.15C285.352 156.262 284.627 157.378 283.846 159.052C284.292 159.555 284.627 160.169 284.794 160.838C285.129 161.954 285.073 163.294 284.85 164.689C284.627 166.028 284.18 167.479 283.622 168.875C282.06 172.837 279.493 176.353 278.433 176.353C277.987 176.353 277.652 176.13 277.429 175.683C277.206 175.237 277.261 174.344 277.429 173.172C277.596 172.167 277.931 170.828 278.322 169.377C279.159 166.307 280.442 162.68 281.781 159.722C281.558 159.61 281.335 159.555 281.056 159.499C276.257 158.773 271.235 156.82 266.939 155.09C266.939 155.369 266.939 155.704 266.883 155.983C266.548 158.271 263.591 163.74 259.127 171.442C277.987 179.478 305.774 189.747 338.193 188.631C385.064 187.012 418.431 152.188 430.818 139.241C433.441 136.506 435.17 134.72 436.007 134.33C438.407 133.213 447.669 140.859 456.262 149.509C458.382 151.686 460.503 153.862 462.456 156.039C461.786 152.579 461.396 149.063 461.451 146.049C461.563 139.966 465.19 129.642 470.546 121.159C474.899 114.295 480.367 108.658 486.114 107.374C490.411 106.426 493.647 104.193 495.99 101.682C500.175 97.2731 501.738 92.083 501.738 91.0785C501.738 90.5204 501.905 90.1855 502.184 89.9623C501.18 88.9578 500.343 87.8416 499.785 86.6696C499.171 85.3303 499.059 83.4886 499.227 81.3679C497.051 81.9818 495.042 82.205 493.424 81.8144C485.612 79.9727 485.835 76.0662 486.114 72.2712C486.17 71.1551 486.282 70.0389 486.058 69.0902C485.445 66.0208 488.011 64.7372 490.187 63.6768C491.303 63.1187 492.252 62.6723 492.196 62.3374C492.196 62.17 491.248 62.2258 490.132 62.3932C489.518 62.4491 488.96 62.5607 488.346 62.6723C486.003 63.0629 483.715 63.4536 483.213 61.9468C482.766 60.6632 483.38 59.3238 483.938 57.9286C484.273 57.0915 484.608 56.3102 484.608 55.7521C484.608 55.6963 483.826 55.4731 482.934 55.194C480.702 54.5243 478.079 53.743 478.749 50.7852C479.084 49.39 479.753 48.1623 480.534 46.7671C481.818 44.4231 483.324 41.8002 482.934 37.8378C482.878 37.1123 482.878 36.3868 482.934 35.6613C483.157 33.2058 484.161 30.7502 486.058 28.8527C485.779 29.076 485.5 29.2992 485.166 29.5224C482.766 31.4199 480.534 33.1499 478.079 33.8196C475.959 34.3777 474.062 33.7638 472.946 32.4803C472.388 31.8664 471.997 31.0293 471.886 30.1921C471.774 29.355 471.83 28.4063 472.22 27.4017C473.225 24.6672 476.517 21.6535 483.268 19.8677C485.054 19.4212 487.342 18.9748 489.964 18.5841C489.518 18.1935 489.127 17.747 488.904 17.2447C488.179 15.9611 488.067 14.4543 488.569 12.8917C489.016 11.4407 489.964 9.9339 491.248 8.4829C494.54 4.79958 500.175 1.50692 505.867 0.725609C527.907 -2.39963 538.955 6.08316 543.865 14.2311C545.428 16.7983 546.32 19.3096 546.823 21.4303C547.325 23.6068 547.325 25.4485 547.046 26.5088C546.767 27.4576 546.209 28.0156 545.428 27.904C543.754 27.7366 541.801 26.8437 539.346 25.6159C535.942 23.9975 531.422 21.821 525.117 20.5932C518.812 19.3654 511.502 18.9748 504.583 19.0864C501.961 19.1422 499.394 19.2538 496.995 19.477C501.235 20.3142 506.425 20.7606 511.893 21.2629C521.49 22.1 531.869 22.9929 539.122 26.3414C551.565 31.978 552.179 41.7444 552.514 46.3206V46.7113C552.681 49.2226 550.617 50.0597 548.162 50.4504C547.771 51.3991 547.102 52.1804 546.265 52.7943C544.535 54.0221 543.084 54.5243 542.08 54.5243C541.522 54.5243 541.075 54.3569 540.741 54.1337C540.35 53.8547 540.071 53.464 540.015 52.9617C539.904 52.3478 540.071 51.6223 540.573 50.841C541.354 49.5574 543.475 49.3342 545.707 49.111C546.097 49.0552 546.488 48.9994 546.878 48.9994C547.102 47.9948 547.157 46.8229 546.934 45.5393C546.432 42.414 544.758 38.6749 542.247 34.6568C539.904 30.9734 536.779 29.6899 533.71 29.5224C530.585 29.2992 527.461 30.2479 525.285 31.0851C522.941 31.978 519.984 31.2525 516.134 30.1363C516.468 31.1409 516.58 32.2012 516.524 33.429C516.468 34.9916 516.301 36.3868 516.134 37.6704C515.966 39.1772 515.799 40.5166 515.855 41.5211C515.91 42.8605 516.468 43.586 518.087 43.4744C519.872 43.3628 521.323 41.9676 522.718 40.6282C524.838 38.6191 526.791 36.7217 529.972 38.2285C532.594 39.4562 534.212 41.1305 534.826 43.4186C535.105 44.4789 535.161 45.7067 534.938 47.1019C535.942 49.4458 536.723 52.5153 536.891 56.0312C536.891 56.5334 536.667 57.6496 536.388 59.1564C535.886 61.5003 535.161 64.9046 534.938 68.1973C534.77 70.318 534.938 71.8806 535.049 73.1642C535.217 74.95 535.328 76.122 534.547 77.2939C533.375 79.0798 529.19 82.3166 524.671 85.3303C520.318 88.1765 515.576 90.7994 512.786 91.6924C510.61 92.362 508.601 92.3062 506.927 92.1388C507.987 93.0317 509.047 93.9247 509.996 94.8734C513.902 95.1524 520.151 97.6638 524.448 99.3938C525.954 100.008 527.237 100.51 527.963 100.733C529.358 101.18 531.032 97.9428 532.929 94.4269C534.212 91.9156 535.607 89.2926 537.17 87.5068C537.504 87.1719 537.727 86.7813 537.951 86.5022C535.551 84.9954 534.045 83.6002 533.877 82.2608C533.822 81.4237 534.212 80.9214 534.826 80.6424C535.496 80.3634 536.556 80.475 537.504 80.9214C538.397 81.3679 539.29 82.0934 539.792 83.0979C540.183 83.8793 540.294 84.828 540.015 85.8883C543.586 87.8416 548.943 90.0181 554.523 92.362C562.111 95.4873 570.09 98.8358 574.722 102.017C580.078 105.7 584.263 118.48 586.551 133.66C589.006 149.621 589.452 168.316 587.109 181.71C586.942 182.771 586.663 183.775 586.272 184.78C583.538 192.37 575.782 198.285 566.296 202.75C566.687 204.089 567.022 205.429 567.301 206.768C568.751 214.246 567.747 221.446 565.961 226.915C564.734 230.598 563.172 233.556 561.609 235.397C563.729 238.355 566.296 242.708 568.919 248.624C571.876 255.321 575.001 264.083 577.791 275.3C582.366 293.549 583.036 332.057 583.482 356.556C583.705 368.332 583.873 376.814 584.319 378.21C584.319 378.266 584.375 378.321 584.486 378.377C584.654 378.489 584.877 378.489 585.1 378.489C588.448 378.377 615.789 378.656 626.837 378.712C629.292 378.712 630.855 378.768 631.413 378.768C631.469 378.768 631.245 378.712 631.245 378.656C631.301 378.545 631.357 378.377 631.357 378.154C631.413 375.252 630.911 368.555 630.297 362.081C629.627 355.384 628.846 349.022 628.344 347.571C628.121 346.901 628.009 346.176 628.065 345.451C628.176 344.446 628.567 343.441 629.348 342.548C630.129 341.711 631.245 340.986 632.808 340.428C634.984 339.702 637.997 339.367 642.07 339.758C645.139 340.037 649.436 341.656 653.62 344.446C653.23 343.274 652.951 342.269 652.895 341.432C652.783 339.591 653.565 338.475 655.685 338.363C659.814 338.14 662.492 336.131 665.952 333.508C671.141 329.601 678.116 324.299 694.242 321.007C712.209 317.323 724.038 325.136 732.519 330.773C733.802 331.666 735.03 332.447 736.202 333.173C735.923 330.885 735.532 329.043 735.03 327.871C733.356 323.685 728.669 319.444 720.857 316.877C714.44 314.756 705.959 313.863 695.357 315.091C689.275 315.817 684.142 317.044 679.622 318.551C679.288 319.556 678.674 320.56 677.893 321.565C675.94 324.076 672.871 326.476 669.69 327.313C667.626 327.871 665.673 327.146 663.943 325.806C663.385 326.755 662.381 327.369 660.818 327.369C655.741 330.159 650.663 332.894 644.525 335.182C636.546 338.084 630.353 339.312 625.889 339.312C623.545 339.312 621.648 338.977 620.253 338.363C618.747 337.693 617.742 336.689 617.296 335.461C617.128 334.959 617.017 334.401 617.017 333.842V333.173C617.017 328.597 617.017 305.325 617.519 278.425C617.24 278.537 616.961 278.593 616.626 278.537H616.57H616.515C615.343 278.146 612.441 258.055 610.823 234.058C609.205 210.284 608.535 182.547 611.437 166.307C611.828 163.963 612.33 161.843 612.944 160.001C618.747 141.417 627.06 130.032 632.082 123.838C631.58 124.117 631.078 124.396 630.576 124.619C628.288 125.847 626.335 126.851 625.889 127.409C625.386 127.967 624.549 129.474 623.657 131.148C621.871 134.33 619.807 138.124 618.189 138.571C617.965 138.627 617.798 138.627 617.575 138.627C616.849 138.459 616.515 137.79 616.403 136.729C616.347 136.004 616.403 135.055 616.459 133.995C616.849 130.367 618.021 125.233 618.523 124.005C618.97 123.001 621.927 120.545 625.219 118.089C629.516 114.908 634.482 111.616 635.374 111.448C635.709 111.393 635.988 111.448 636.267 111.56C636.714 111.783 637.16 112.23 637.439 112.788C637.718 113.29 637.885 113.904 638.053 114.574C637.718 112.453 637.048 109.551 636.1 106.76C635.151 103.858 633.868 101.068 632.361 99.338C631.692 98.6125 631.301 97.2731 631.134 95.6547C625.498 98.1102 620.588 99.1706 618.97 97.7754C615.789 94.9292 616.347 93.0317 616.961 90.8552C617.296 89.6275 617.686 88.3439 617.073 86.7813C615.957 83.8234 618.244 82.4283 620.588 81.5911C621.09 81.4237 621.592 81.2563 622.039 81.0889C622.318 80.9773 622.597 80.9214 622.82 80.8098C621.983 80.754 620.699 80.754 619.416 80.754C617.184 80.8098 615.12 80.8098 614.785 79.6379C614.673 79.1356 614.729 78.3543 614.785 77.4614C614.896 76.122 615.064 74.5035 614.562 74.2245C614.283 74.0571 613.781 73.8897 613.223 73.7222C612.776 73.6106 612.33 73.4432 611.883 73.2758C610.321 72.6619 609.149 71.6573 610.042 69.5367C610.433 68.5321 611.381 67.4718 612.386 66.3556C614.339 64.1233 616.738 61.3887 615.901 57.9844C614.952 54.2453 614.729 51.1201 615.008 48.4971C615.51 44.1999 617.575 41.2421 620.588 39.4562C622.652 38.2285 625.219 37.503 628.065 37.2239C625.442 37.0565 622.429 37.0565 619.026 37.3355C614.617 37.6704 613.39 41.4095 612.386 44.4231C611.883 46.0416 611.381 47.4368 610.544 48.2739C609.54 49.2784 606.862 49.1668 604.016 48.1623C602.453 47.6042 600.724 46.8229 599.273 45.8183C597.766 44.8138 596.427 43.586 595.646 42.1908C594.586 40.405 594.363 38.3959 595.479 36.331C595.981 35.3823 597.766 33.708 600.445 32.3128C602.286 31.3641 604.63 30.5828 607.308 30.2479C614.004 29.4666 622.876 31.0851 631.301 32.6477C632.194 32.8151 633.031 32.9825 633.366 33.0383C642.963 34.8242 653.174 37.3355 661.711 39.7353C663.608 40.2375 665.394 40.7956 667.124 41.2979C666.733 41.1305 666.398 40.963 666.008 40.7956C657.973 37.503 645.251 35.1032 634.928 33.15C625.721 31.4199 618.356 30.0247 617.407 28.4063C617.352 28.2947 617.296 28.2389 617.24 28.1272C616.515 26.5088 617.128 23.0487 619.193 19.2538C621.202 15.6263 624.55 11.6081 629.46 8.65032C630.464 8.03643 631.524 7.47835 632.64 6.97608C638.945 4.18569 647.762 4.18569 656.243 6.30639C664.501 8.37128 672.424 12.5569 677.279 18.2493C683.473 25.5601 685.314 36.61 685.146 42.9721C685.091 44.4231 684.923 45.6509 684.7 46.5996C684.421 47.7716 683.919 48.4971 683.249 48.6645C682.747 48.8319 682.245 48.6645 681.799 48.2181C681.52 47.939 680.348 47.3809 678.451 46.7113C679.455 47.7716 680.236 48.832 680.85 49.8365C683.138 53.5756 683.472 57.2589 683.751 60.44C684.03 63.3978 683.584 65.965 682.635 67.6392C682.245 68.3089 681.799 68.8111 681.296 69.2018C680.738 69.5925 680.125 69.8715 679.399 69.9273C678.451 70.0389 677.446 69.7599 676.33 69.146C674.377 68.0298 674.545 66.1882 674.712 63.7884C675.159 58.7657 675.884 50.6736 651.5 42.5815C648.822 41.6885 646.088 40.9072 643.354 40.2934C649.101 44.758 649.715 51.2875 650.161 55.6405C650.273 56.9241 650.384 57.9286 650.607 58.6541C650.719 59.1006 650.942 59.3238 651.221 59.2122C653.118 58.6541 655.071 57.4264 656.968 56.2544C660.707 53.9105 664.166 51.7898 667.179 54.3569C668.798 55.7521 669.244 58.5983 668.853 61.6677C668.798 62.0026 668.742 62.3932 668.686 62.7281C670.025 66.244 670.918 70.4854 671.42 73.3316C671.532 74.0571 671.643 74.8384 671.811 75.6755C672.257 78.6333 672.815 82.5399 674.154 84.828C674.991 86.2232 676.107 87.1719 677.111 88.009C677.669 88.5113 678.227 88.9578 678.674 89.46C680.85 90.2972 683.305 91.3575 685.928 92.4737C696.641 97.2173 709.809 103.747 713.659 105.812C714.552 106.258 715.389 107.207 716.282 108.435C722.754 111.839 727.776 121.047 730.287 128.581C731.068 130.814 731.571 132.879 731.85 134.609C732.129 136.394 732.184 137.901 731.961 138.794C731.682 139.687 731.18 140.189 730.343 140.189C727.888 140.189 725.265 133.325 722.308 125.735C719.965 119.764 717.509 113.29 715.11 109.718C713.994 109.216 712.878 108.881 711.706 108.77C710.311 108.658 708.805 108.714 707.131 108.937C701.216 109.83 694.13 113.011 688.327 118.48C682.524 123.949 678.004 131.762 677.167 141.808C676.888 144.933 677 148.281 677.558 151.853C678.897 161.006 679.79 168.707 680.459 174.958C681.296 182.492 681.91 187.849 682.859 190.974C683.528 193.263 684.365 194.211 685.649 193.821C685.76 193.765 685.872 193.765 685.928 193.709C687.323 183.217 688.662 174.455 690.838 174.679C691.396 174.734 691.842 175.125 692.121 175.739C692.568 176.688 692.735 178.418 692.679 180.427C692.568 182.38 692.289 184.668 691.675 186.9C690.838 190.193 689.443 193.263 687.434 194.714C687.323 195.718 687.155 196.778 687.044 197.783C686.151 204.536 685.258 211.623 684.254 217.148C682.747 225.296 675.995 246.503 669.356 264.697C663.497 280.825 657.694 294.61 655.573 295.223C653.62 295.782 650.998 298.293 649.157 301.474C647.65 304.097 646.757 307.166 647.204 309.957C647.762 313.194 648.599 316.096 649.603 318.439C650.607 320.783 651.835 322.513 653.062 323.462C653.118 323.518 653.062 323.574 653.118 323.574C653.23 323.518 653.397 323.183 653.509 322.737C653.565 322.625 653.565 322.458 653.62 322.29C653.007 321.286 652.56 320.17 652.225 319.221C651.946 318.328 651.779 317.491 651.667 316.765C651.612 315.928 651.667 315.258 651.946 314.868C652.281 314.366 652.728 314.142 653.341 314.31C654.681 314.7 655.462 317.826 655.406 320.56C655.406 321.062 655.35 321.509 655.294 321.955C656.466 323.741 658.14 325.248 660.316 325.527L660.539 325.415C661.153 325.081 661.767 324.746 662.381 324.411C661.823 323.797 661.265 323.127 660.763 322.458C660.037 321.397 659.368 320.281 658.921 319.277C658.475 318.216 658.14 317.268 658.084 316.486C657.973 315.426 658.252 314.7 658.977 314.366C659.981 313.919 661.265 314.979 662.325 316.709C663.05 317.937 663.72 319.5 664.11 321.007C664.278 321.788 664.39 322.569 664.445 323.295C668.686 321.007 673.094 318.83 678.227 316.988C678.339 316.542 678.339 316.151 678.227 315.817C678.172 315.538 678.004 315.258 677.725 315.035C676.609 314.198 674.601 315.817 672.927 317.212C671.755 318.16 670.75 318.998 669.914 319.109C668.965 319.221 668.295 318.774 668.128 317.435C667.737 314.533 669.802 312.915 671.532 311.575C672.034 311.184 672.48 310.794 672.815 310.515C671.253 309.845 669.634 309.064 668.016 308.227C663.106 305.715 658.363 302.59 656.466 300.079C655.741 299.074 655.406 298.181 655.518 297.288C655.685 296.284 656.243 295.726 657.08 295.614C657.861 295.503 658.865 295.726 659.981 296.284C661.042 296.786 662.213 297.512 663.441 298.405C668.128 301.753 673.596 307.278 674.656 309.51C677.223 310.571 679.511 311.352 680.962 311.575C681.52 311.687 681.854 311.687 681.91 311.631C683.696 310.292 709.977 259.953 722.866 235.23C724.819 231.491 726.437 228.366 727.665 226.078C730.343 220.999 731.85 212.237 732.575 202.471C730.399 188.686 729.06 169.991 728.836 158.327C728.781 154.978 728.836 152.188 728.948 150.291C729.115 147.835 729.618 146.496 730.51 146.496C730.734 146.496 730.957 146.607 731.124 146.719C732.798 148.002 735.309 171.33 734.695 193.151C734.584 196.276 734.472 199.401 734.249 202.415C734.918 206.656 735.7 210.451 736.481 213.353C737.597 217.372 739.047 225.519 740.498 235.844C743.009 253.87 745.576 278.481 746.692 298.795C747.864 319.5 747.361 335.852 743.623 336.912C743.567 336.912 743.456 336.968 743.344 336.968C741.726 337.191 740.052 336.744 738.211 335.907C739.215 346.846 738.936 363.532 738.768 371.959C738.713 373.801 738.713 375.196 738.713 376.256C738.713 377.094 738.769 377.707 738.992 378.042C739.159 378.321 739.438 378.433 739.996 378.545C741 378.712 746.357 378.768 754.169 378.824C764.101 378.879 777.437 378.879 791.163 378.824ZM736.871 326.978C737.485 328.485 737.932 330.94 738.266 333.954C740.219 334.959 741.893 335.573 743.344 335.349C743.344 335.349 743.344 335.349 743.4 335.349C746.19 334.568 746.357 318.886 745.241 298.963C744.125 278.704 741.558 254.149 739.047 236.123C737.597 225.854 736.202 217.762 735.086 213.856C734.639 212.349 734.249 210.619 733.858 208.666C732.965 216.2 731.571 222.673 729.339 226.915C728.111 229.203 726.493 232.384 724.54 236.067C711.595 260.902 685.202 311.464 683.082 313.026C682.635 313.361 681.854 313.417 680.85 313.249C679.343 313.026 677.112 312.301 674.545 311.24C674.098 311.854 673.429 312.356 672.703 312.97C671.308 314.031 669.635 315.37 669.914 317.268C669.914 317.435 669.746 317.547 669.802 317.547C670.193 317.491 671.029 316.765 671.978 315.984C674.098 314.198 676.665 312.077 678.897 313.752C679.455 314.198 679.846 314.756 680.013 315.426C680.125 315.761 680.125 316.096 680.125 316.486C684.533 315.035 689.499 313.919 695.302 313.249C706.182 311.966 714.943 312.915 721.527 315.091C730.008 317.77 735.03 322.402 736.871 326.978ZM677.669 319.109C673.317 320.728 669.467 322.681 665.729 324.69C666.956 325.471 668.24 325.918 669.579 325.527C672.369 324.746 675.159 322.625 676.888 320.337C677.167 319.946 677.446 319.556 677.669 319.109ZM644.246 333.396C649.547 331.443 654.178 329.099 658.586 326.643C657.247 326.085 656.076 325.136 655.183 324.02C654.96 324.467 654.681 324.802 654.346 325.025C653.788 325.36 653.118 325.304 652.449 324.802C650.998 323.685 649.603 321.732 648.487 319.109C647.427 316.654 646.534 313.64 645.976 310.236C645.418 306.999 646.478 303.539 648.152 300.637C650.161 297.065 653.23 294.275 655.573 293.605C657.136 293.159 662.548 279.765 668.24 264.083C674.824 245.945 681.575 224.85 683.026 216.813C684.03 211.288 684.979 204.257 685.816 197.504C685.928 196.834 685.983 196.109 686.095 195.439C683.919 195.886 682.58 194.546 681.631 191.365C680.627 188.072 680.069 182.659 679.176 175.069C678.506 168.875 677.614 161.229 676.275 152.021C675.717 148.337 675.605 144.877 675.884 141.585C676.777 131.093 681.52 122.945 687.602 117.197C693.684 111.448 701.105 108.1 707.298 107.207C709.084 106.928 710.702 106.872 712.264 106.984C712.543 106.984 712.822 107.039 713.046 107.095C709.084 104.975 696.194 98.5567 685.593 93.8689C683.696 93.0317 681.854 92.2504 680.18 91.5807C680.18 91.6366 680.18 91.6924 680.18 91.7482C680.236 92.083 680.18 92.4737 680.125 92.8643C679.567 95.6547 675.828 99.4496 671.755 102.575C667.737 105.7 663.274 108.211 661.376 108.435C661.097 108.491 660.874 108.435 660.651 108.435C658.586 108.044 656.634 107.932 655.071 108.211C653.844 108.435 652.839 108.881 652.17 109.551C651.5 110.221 651.165 111.225 651.221 112.564C651.277 113.848 651.723 115.466 652.56 117.364C653.174 118.759 653.23 119.764 652.895 120.378C652.449 121.215 651.556 121.494 650.496 121.159C649.715 120.936 648.822 120.378 647.985 119.596C646.088 117.755 644.581 114.518 645.976 110.667C647.036 107.653 650.886 104.417 654.904 101.012C656.41 99.7287 657.917 98.4451 659.368 97.1057C660.986 95.5989 662.437 94.0921 663.776 92.7527C666.9 89.5717 669.3 87.0603 671.42 87.0603C672.145 87.0603 673.261 87.3393 674.712 87.7858C674.098 87.1719 673.429 86.4464 672.927 85.4977C671.42 82.8747 670.806 78.8566 670.36 75.7313C670.248 74.8384 670.137 74.0571 670.025 73.4432C669.635 71.2109 669.021 68.2531 668.128 65.4069C667.961 65.965 667.737 66.4672 667.458 66.9695C666.621 68.6995 665.505 70.2063 664.222 71.1551C662.827 72.1596 661.265 72.4945 659.535 71.9364C657.917 71.3783 657.582 70.597 657.917 69.5367C658.14 68.8111 658.754 68.1414 659.479 67.3601C660.372 66.4114 661.376 65.2953 661.544 64.1791C661.655 63.3978 660.874 62.5607 660.093 61.8352C659.479 61.2213 658.921 60.6632 658.642 59.9935C658.084 58.7099 658.531 57.4263 661.488 56.1986C663.999 55.1382 666.008 56.7567 667.514 59.547C667.514 57.7054 667.179 56.1986 666.287 55.4731C664.222 53.6872 661.265 55.5289 658.084 57.538C656.131 58.7657 654.067 60.0493 651.946 60.6632C650.44 61.1097 649.659 60.44 649.212 58.989C648.933 58.1519 648.822 56.9799 648.71 55.6405C648.208 50.7294 647.483 42.8605 638.164 39.0656C636.044 38.7307 633.924 38.5633 631.971 38.5633C627.953 38.5075 624.382 39.1214 621.704 40.7398C619.137 42.3024 617.407 44.8138 616.961 48.5529C616.682 50.9526 616.905 53.9105 617.798 57.4264C618.858 61.6677 616.124 64.793 613.892 67.3043C612.999 68.3089 612.162 69.2576 611.883 69.9831C611.549 70.8202 612.107 71.2667 612.776 71.5457C613.167 71.7132 613.557 71.8248 614.004 71.9364C614.673 72.1038 615.287 72.327 615.733 72.6061C617.128 73.4432 616.905 75.6197 616.738 77.4055C616.682 78.1311 616.626 78.7449 616.682 79.024C616.738 79.1356 618.077 78.8566 619.639 78.8566C621.983 78.8008 624.605 78.7449 625.275 79.9169C625.721 80.6982 625.442 81.2005 624.717 81.6469C624.271 81.926 623.601 82.1492 622.82 82.3725C622.373 82.5399 621.871 82.6515 621.425 82.8747C619.862 83.4886 618.3 84.3257 618.914 85.9441C619.695 88.0648 619.249 89.6275 618.858 91.0785C618.412 92.6969 617.965 94.1479 620.365 96.2686C621.648 97.3848 626.112 96.157 631.357 93.7572C631.301 91.1343 631.748 87.9532 632.64 84.828C633.422 81.8702 634.649 78.9124 636.156 76.401C637.718 73.8338 639.671 71.769 642.014 70.7086C644.414 69.5925 647.204 69.5925 650.273 71.1551C653.007 72.6061 654.011 74.5594 653.676 76.7917C653.397 78.8566 651.946 81.1447 649.77 83.377C647.706 85.5535 644.916 87.73 641.903 89.7391C639.057 91.6365 635.988 93.3666 633.031 94.706C633.142 96.2128 633.421 97.3848 633.979 97.9986C635.653 99.8961 636.993 102.91 638.053 105.979C639.559 110.5 640.396 115.355 640.396 117.085C640.396 118.368 638.778 119.764 636.602 121.159C636.323 121.438 636.1 121.773 635.765 122.163C631.357 127.409 621.425 139.129 614.841 160.224C614.283 162.01 613.836 164.019 613.39 166.363C610.544 182.492 611.214 210.061 612.832 233.723C614.394 256.66 616.57 275.747 617.296 276.695C617.463 276.584 617.686 275.747 617.91 274.296V274.184C618.579 241.536 620.03 204.703 623.266 189.523C625.721 177.971 629.795 165.526 633.979 154.644C640.508 137.566 647.538 124.34 648.822 124.34C649.436 124.34 649.715 124.675 649.715 125.289C649.715 126.014 648.487 129.586 646.422 135.501C642.461 146.998 635.43 167.368 628.846 191.086C622.373 214.47 621.369 240.364 620.699 257.665C620.42 265.143 620.197 271.003 619.583 274.463C619.026 302.925 619.026 328.206 619.026 333.061V333.731C619.026 334.121 619.081 334.456 619.193 334.791C619.472 335.573 620.197 336.242 621.257 336.744C622.429 337.247 624.103 337.582 626.224 337.582C630.464 337.47 636.435 336.242 644.246 333.396ZM624.884 189.914C623.489 196.499 622.429 207.215 621.592 219.939C622.764 210.284 624.494 200.239 627.172 190.64C633.7 166.921 640.787 146.496 644.749 134.943C645.53 132.655 646.199 130.758 646.701 129.195C644.246 133.995 639.894 143.705 635.43 155.257C631.357 166.14 627.284 178.473 624.884 189.914ZM635.319 119.987C635.932 119.261 636.379 118.703 636.49 118.424C636.937 117.364 636.937 115.913 636.714 114.685C636.602 114.127 636.435 113.681 636.267 113.29C636.156 113.067 636.044 112.899 635.932 112.844C635.095 113.123 630.52 116.192 626.503 119.15C623.378 121.494 620.644 123.67 620.309 124.396C619.807 125.568 618.691 130.423 618.356 133.939C618.244 134.888 618.244 135.781 618.3 136.339C618.3 136.45 618.244 136.506 618.189 136.562C619.193 135.836 620.923 132.711 622.373 130.088C623.378 128.302 624.215 126.74 624.829 126.07C625.498 125.289 627.618 124.173 630.018 122.889C631.747 121.996 633.7 120.936 635.319 119.987ZM638.499 115.243C638.555 116.025 638.555 116.806 638.443 117.587C638.555 117.42 638.667 117.197 638.667 117.085C638.611 116.638 638.555 116.025 638.499 115.243ZM634.258 85.2186C633.533 87.9532 633.087 90.6878 633.031 92.9201C635.653 91.5807 638.443 90.0181 641.01 88.2881C643.912 86.3348 646.59 84.2141 648.599 82.1492C650.496 80.1401 651.779 78.1869 652.058 76.5126C652.281 75.0058 651.556 73.6664 649.547 72.6061C646.98 71.2667 644.749 71.2667 642.796 72.1596C640.787 73.0525 639.113 74.8942 637.662 77.1823C636.1 79.5821 634.984 82.4283 634.258 85.2186ZM639.057 37.503C643.465 38.1727 648.041 39.4004 652.337 40.8514C678.004 49.3342 677.167 58.2635 676.721 63.8443C676.554 65.6301 676.442 66.9695 677.502 67.5834C678.283 68.0298 678.953 68.1973 679.567 68.1414C679.957 68.0856 680.292 67.974 680.627 67.7508C680.962 67.5276 681.241 67.1369 681.52 66.6905C682.301 65.2953 682.691 63.1188 682.412 60.4958C682.133 57.4822 681.799 54.0221 679.734 50.6178C678.618 48.7761 677 46.9345 674.545 45.1486C671.085 44.0325 666.621 42.6373 661.655 41.2421C653.118 38.8424 642.963 36.331 633.421 34.601C632.361 34.3777 631.859 34.3219 631.357 34.2103C623.099 32.6477 614.339 31.0293 607.866 31.8106C605.411 32.0896 603.235 32.8151 601.561 33.708C599.217 34.88 597.711 36.2752 597.32 37.0007C596.483 38.5075 596.706 39.9585 597.432 41.2421C598.101 42.4141 599.217 43.4186 600.556 44.3115C601.896 45.2044 603.458 45.9299 604.909 46.4322C607.196 47.2135 609.149 47.4926 609.707 46.9345C610.265 46.3764 610.656 45.1486 611.102 43.7534C612.218 40.2934 613.613 35.8845 619.193 35.4939C628.232 34.7684 634.593 35.6613 639.057 37.503ZM667.012 39.1772C670.471 40.5724 673.261 42.135 675.438 43.6976C679.567 45.0928 682.412 46.209 683.193 46.8229C683.249 46.6554 683.305 46.4322 683.417 46.0974C683.64 45.3161 683.751 44.1999 683.807 42.8605C684.03 36.7775 682.245 26.2298 676.386 19.2538C671.811 13.8404 664.222 9.87809 656.243 7.86901C648.096 5.80412 639.615 5.80412 633.7 8.42709C632.64 8.87355 631.636 9.43163 630.687 9.98971C626.112 12.7243 622.931 16.5192 621.034 19.9235C619.249 23.2162 618.635 26.1182 619.137 27.2901C619.137 27.3459 619.193 27.3459 619.193 27.4017C619.807 28.4063 626.837 29.6899 635.598 31.3641C645.976 33.3732 658.81 35.8287 667.012 39.1772ZM666.008 66.244C666.566 65.1278 666.956 63.9001 667.235 62.6723C667.179 62.5607 667.124 62.4491 667.124 62.3374C665.84 59.2122 664.166 56.9241 662.269 57.7054C660.539 58.4309 660.149 58.9332 660.316 59.3238C660.484 59.7145 660.93 60.1609 661.432 60.6632C662.492 61.7236 663.608 62.8955 663.329 64.5139C663.05 66.0766 661.879 67.416 660.874 68.5321C660.316 69.146 659.758 69.7599 659.647 70.0947C659.647 70.1505 659.758 70.2621 660.205 70.3738C661.376 70.7644 662.437 70.4854 663.385 69.8157C664.39 69.0344 665.282 67.7508 666.008 66.244ZM678.451 91.9156C678.395 91.4691 678.227 91.0785 677.893 90.6878C674.824 89.5158 672.48 88.7345 671.42 88.7345C670.025 88.7345 667.793 91.0227 665.003 93.9247C663.664 95.3199 662.158 96.8267 660.484 98.3335C659.089 99.6171 657.471 100.956 655.964 102.296C652.114 105.533 648.487 108.602 647.538 111.225C646.422 114.295 647.65 116.917 649.157 118.368C649.77 118.982 650.44 119.373 650.942 119.54C651.221 119.596 651.388 119.652 651.388 119.596C651.5 119.373 651.388 118.871 650.998 118.034C650.049 115.913 649.547 114.071 649.491 112.62C649.436 110.834 649.938 109.439 650.886 108.435C651.835 107.43 653.118 106.816 654.681 106.537C656.466 106.202 658.642 106.314 660.874 106.816C660.93 106.816 660.986 106.816 661.042 106.816C662.66 106.649 666.733 104.249 670.583 101.291C674.377 98.3893 677.893 94.9292 678.339 92.5853C678.451 92.3062 678.506 92.083 678.451 91.9156ZM718.514 111.672C720.467 115.466 722.364 120.378 724.205 125.065C726.939 132.097 729.394 138.403 730.678 138.403C730.734 138.403 730.622 138.348 730.678 138.236C730.845 137.566 730.789 136.339 730.566 134.776C730.287 133.158 729.785 131.148 729.06 128.972C726.883 122.889 723.201 115.69 718.514 111.672ZM688.215 191.867C689.164 190.472 689.889 188.519 690.447 186.398C691.005 184.333 691.284 182.157 691.396 180.259C691.452 178.473 691.34 177.022 691.005 176.353C690.949 176.297 691.061 176.241 691.005 176.241C690.336 176.185 689.331 183.106 688.215 191.867ZM654.011 318.272C653.955 317.602 653.844 317.044 653.676 316.598V316.654C653.732 317.1 653.844 317.658 654.011 318.272ZM662.939 322.067C662.883 321.844 662.827 321.621 662.827 321.453C662.492 320.114 661.879 318.719 661.265 317.602C660.651 316.598 660.149 315.872 660.037 315.928C659.981 315.928 660.149 316.04 660.205 316.319C660.26 316.933 660.539 317.714 660.93 318.607C661.321 319.556 661.934 320.56 662.604 321.509C662.66 321.676 662.827 321.844 662.939 322.067ZM672.536 308.506C670.695 306.329 666.454 302.478 662.771 299.8C661.6 298.963 660.539 298.293 659.591 297.846C658.754 297.456 658.084 297.233 657.694 297.288C657.582 297.288 657.526 297.4 657.471 297.567C657.415 297.958 657.638 298.46 658.084 299.074C659.814 301.362 664.334 304.32 669.077 306.72C670.193 307.39 671.364 307.948 672.536 308.506ZM733.3 193.486V193.095C733.858 173.73 732.184 153.416 730.789 148.895C730.845 149.286 730.901 149.732 730.845 150.346C730.734 152.244 730.678 154.978 730.734 158.271C730.957 167.591 731.849 181.376 733.3 193.486ZM658.196 349.859C658.865 351.255 659.535 352.761 660.205 354.324C661.097 356.5 661.767 358.063 662.437 359.681C665.45 366.936 668.407 373.912 669.969 376.424C669.913 374.805 669.132 371.066 667.737 366.657C666.51 362.695 664.613 358.342 662.102 354.547C660.93 352.873 659.591 351.31 658.196 349.859ZM559.656 235.118C558.763 233.946 557.982 233.054 557.257 232.44C557.145 232.328 556.978 232.216 556.811 232.161C553.742 230.654 543.81 230.486 534.38 230.989C525.117 231.491 516.468 232.495 515.408 233.444C515.297 233.667 515.241 233.946 515.185 234.337C515.073 235.565 515.241 237.351 515.855 238.969C516.468 240.588 517.417 242.039 518.756 242.708C519.147 242.932 519.593 243.043 520.039 243.099C523.834 243.545 542.582 239.36 552.57 237.128C555.416 236.514 557.592 236.011 558.484 235.844C558.54 235.844 558.652 235.788 558.763 235.732C559.042 235.565 559.377 235.397 559.656 235.118ZM564.455 201.634C564.176 200.852 563.897 200.071 563.562 199.346C559.768 190.695 554.467 176.855 550.282 164.633C547.883 171.386 542.024 177.357 529.972 179.366C528.744 179.59 527.349 179.813 525.898 180.036C517.361 181.431 509.494 182.771 508.657 184.054C507.82 185.282 508.601 189.021 509.438 193.095C510.498 198.285 511.726 204.145 510.107 207.773C510.052 207.884 509.996 207.996 509.884 208.107C510.777 210.284 511.781 211.791 512.953 212.237C513.065 212.293 513.288 212.349 513.511 212.349C517.808 213.074 533.654 211.568 549.445 206.991C554.634 205.54 559.712 203.754 564.455 201.634ZM549.724 157.713L549.892 158.215C550.226 154.476 549.724 150.793 548.943 147.668C548.05 144.152 546.711 141.361 545.707 140.022C545.428 139.687 545.483 139.352 545.428 139.408C544.479 139.966 546.544 147.723 549.724 157.713ZM480.088 208.052C490.578 209.67 504.695 210.34 507.987 207.773C506.927 204.982 506.09 201.578 505.197 198.118C503.467 191.365 501.682 184.278 498.669 181.71C498.39 181.487 498.111 181.264 497.832 181.041C494.428 178.473 489.071 176.13 484.105 174.902C479.363 173.73 475.066 173.562 473.56 175.292C473.504 175.348 473.504 175.348 473.504 175.404C473.113 175.906 473.281 176.353 473.783 176.743C475.01 177.636 477.521 178.418 480.2 179.199C484.273 180.427 488.625 181.71 489.797 184.054C490.243 184.947 490.02 185.561 489.295 185.952C487.844 186.677 482.822 185.226 476.963 183.496C468.594 181.041 458.494 178.139 457.266 180.315C456.987 180.873 457.601 181.487 458.885 182.157C461.563 183.608 466.529 185.003 471.439 186.398C478.135 188.24 484.775 190.082 485.947 192.425C486.505 193.597 486.114 194.379 484.998 194.937C483.157 195.886 478.637 195.886 473.671 195.886C467.087 195.886 459.722 195.886 457.713 197.895C457.657 197.95 457.601 197.895 457.601 197.895C457.824 198.453 459.554 199.067 462.065 199.625C464.799 200.294 468.426 200.797 472.276 201.243C472.555 201.299 472.834 201.299 473.169 201.355C477.354 200.462 482.934 200.015 487.453 200.071C489.574 200.071 491.415 200.183 492.81 200.406C494.428 200.629 495.544 201.02 495.935 201.634C496.102 201.913 496.158 202.192 496.102 202.527C495.711 204.033 483.771 204.145 473.113 203.029C471.104 203.475 469.542 204.089 468.761 204.815C469.096 205.261 470.323 205.708 472.053 206.266C474.173 206.935 476.963 207.549 480.088 208.052ZM487.453 201.801C485.221 201.801 482.71 201.857 480.255 202.08C486.784 202.582 492.475 202.75 494.038 202.415C493.703 202.359 493.201 202.248 492.587 202.136C491.303 201.913 489.462 201.801 487.453 201.801ZM535.719 81.9818C535.83 82.7631 536.891 83.7676 538.62 84.828C538.676 84.3815 538.564 83.9909 538.453 83.656C538.174 83.0421 537.56 82.5399 537.002 82.2608C536.444 81.9818 535.942 81.8702 535.719 81.9818ZM509.382 96.3244C509.215 96.3244 508.991 96.3244 508.824 96.3802C507.875 96.4918 504.974 101.235 501.403 108.267C498.167 114.629 494.595 122.889 491.582 131.372C488.848 139.129 486.616 147.165 485.054 153.806C483.101 162.233 482.041 168.261 482.431 168.651C483.38 169.6 487.955 171.777 492.196 173.283C494.037 173.897 495.767 174.4 497.106 174.567C498.222 174.734 499.004 174.734 499.171 174.455C499.227 174.12 499.115 172.725 498.948 170.549C498.501 164.689 497.609 153.695 498.613 142.533C499.283 135.222 500.454 127.744 501.793 121.382C503.188 114.797 504.807 109.383 506.257 106.593C506.369 106.426 506.425 106.258 506.425 106.035C506.09 105.868 505.699 105.644 505.365 105.421C504.974 105.142 504.639 104.863 504.416 104.528C504.081 104.026 504.025 103.468 504.36 102.91C504.751 102.296 505.253 102.073 505.867 102.128C506.202 102.184 506.536 102.352 506.815 102.575C507.038 102.798 507.317 103.021 507.485 103.356C507.652 103.635 507.82 103.97 507.931 104.305C508.824 103.356 509.828 102.017 510.498 100.789C511 99.8961 511.279 99.059 511.056 98.6683C510.665 97.8312 510.107 97.1057 509.382 96.3244ZM501.347 85.8883C501.961 87.2277 503.133 88.5113 504.528 89.7949C504.695 89.8507 504.862 89.8507 505.03 89.9065C506.815 90.2414 509.494 90.7994 512.451 89.9065C515.129 89.1252 519.705 86.558 523.89 83.7676C528.242 80.8656 532.203 77.7962 533.319 76.2336C533.766 75.5639 533.71 74.5594 533.543 73.1642C533.431 71.8248 533.264 70.2063 533.431 67.974C533.654 64.6256 534.38 61.1655 534.882 58.7099C535.161 57.3147 535.384 56.2544 535.384 55.9753C535.272 53.743 534.882 51.734 534.38 49.9481C534.156 50.6178 533.933 51.2875 533.654 52.013C532.873 53.9663 531.98 55.3615 530.976 56.3102C529.916 57.3705 528.8 57.9286 527.795 58.096C526.735 58.3193 525.731 58.1519 524.95 57.817C524.392 57.5938 523.945 57.2589 523.555 56.9241C522.606 55.9753 523.164 54.915 524.224 53.8547C524.503 53.5756 524.894 53.2408 525.229 52.9059C526.4 51.8456 527.684 50.6736 527.516 49.8365C527.405 49.2226 527.126 48.6087 526.903 48.0506C526.121 46.209 525.452 44.5347 527.405 42.135C527.795 41.6885 528.186 41.3537 528.688 41.2421C529.525 40.963 530.474 41.1863 531.422 41.856C532.092 42.3024 532.761 42.9721 533.375 43.8651C533.375 43.8092 533.319 43.7534 533.319 43.6418C532.873 41.856 531.534 40.5166 529.414 39.512C527.293 38.5075 525.675 40.0143 524.001 41.6327C522.383 43.1954 520.709 44.758 518.31 44.9254C515.352 45.0928 514.404 43.7534 514.292 41.3537C514.236 40.1817 514.404 38.7865 514.571 37.2239C514.739 35.9403 514.85 34.5451 514.906 33.0941C514.962 31.5873 514.683 30.3596 514.013 29.2434C510.219 28.1272 505.644 26.8437 500.231 26.3972C498.613 26.2298 497.051 26.2298 495.711 26.3414C492.029 26.6762 489.35 27.904 487.509 29.5782C485.724 31.2525 484.775 33.429 484.608 35.6613C484.552 36.2752 484.552 36.8891 484.608 37.5588C484.998 42.0234 483.38 44.9254 481.985 47.4368C481.315 48.6645 480.646 49.8365 480.367 51.0085C480.032 52.4595 481.873 52.9617 483.38 53.464C484.942 53.9105 486.282 54.3011 486.282 55.6405C486.282 56.5334 485.891 57.4822 485.5 58.4309C485.054 59.4912 484.608 60.6074 484.831 61.2771C484.887 61.3887 486.449 61.1097 488.067 60.8306C488.681 60.719 489.35 60.6074 489.908 60.5516C491.973 60.2726 493.647 60.44 493.814 62.0026C493.982 63.5094 492.531 64.2349 490.857 65.072C489.183 65.9091 487.23 66.8579 487.621 68.6995C487.844 69.8715 487.788 71.0993 487.677 72.327C487.453 75.3965 487.286 78.6333 493.703 80.1401C495.265 80.5308 497.218 80.2518 499.338 79.5821C499.729 77.1265 500.51 74.4477 501.57 71.8248C502.965 68.4205 504.807 65.072 506.871 62.4491C508.991 59.7703 511.391 57.8728 513.79 57.4264C515.185 57.1473 516.524 57.3705 517.808 58.2077C519.314 59.1564 520.039 60.44 520.151 61.9468C520.263 63.6768 519.482 65.5743 518.142 67.5834C516.859 69.4808 515.018 71.4899 512.897 73.3316C509.326 76.4568 504.918 79.2472 500.845 80.754C500.677 82.8189 500.789 84.6606 501.347 85.8883ZM503.244 72.3828C502.351 74.5593 501.682 76.7917 501.235 78.8007C504.807 77.2939 508.712 74.7826 511.893 71.9922C513.902 70.2063 515.631 68.3647 516.859 66.5788C517.975 64.8488 518.645 63.2862 518.589 61.9468C518.533 60.9981 518.087 60.1609 517.082 59.547C516.134 58.989 515.185 58.8215 514.236 58.989C512.284 59.3238 510.219 61.0539 508.322 63.3978C506.313 65.9091 504.583 69.0902 503.244 72.3828ZM489.462 26.3414C491.136 25.5043 493.201 24.9462 495.6 24.723C497.051 24.6114 498.669 24.6114 500.454 24.7788C504.695 25.1694 508.433 26.0065 511.614 26.8995C511.502 26.8437 511.447 26.7879 511.335 26.7321C508.712 25.1694 504.751 24.2207 499.673 23.6626C495.656 23.2162 492.364 24.5555 489.462 26.3414ZM515.185 27.904L515.352 27.9598C519.537 29.1876 522.718 30.1363 524.782 29.355C527.126 28.4621 530.418 27.4576 533.877 27.6808C537.393 27.904 541.02 29.4108 543.698 33.5964C546.376 37.7262 548.106 41.7444 548.664 45.0928C548.831 46.3206 548.887 47.4926 548.72 48.4971C550.003 48.2181 550.952 47.66 550.84 46.7113V46.3206C550.561 42.0792 550.003 32.9825 538.453 27.7924C531.422 24.6114 521.267 23.7184 511.781 22.8813C504.807 22.2674 498.222 21.7093 493.424 20.2583C493.033 20.1467 492.698 20.0351 492.364 19.8677C488.96 20.2583 486.003 20.8164 483.771 21.3745C477.633 22.9929 474.731 25.5601 473.839 27.8482C473.56 28.5179 473.504 29.1876 473.615 29.8015C473.727 30.3596 473.95 30.8618 474.285 31.2525C475.01 32.0896 476.238 32.4803 477.744 32.0896C479.865 31.5315 481.929 29.8573 484.217 28.1272C488.346 24.8904 493.033 21.2629 499.952 21.9884C505.253 22.5465 509.438 23.551 512.284 25.281C513.455 26.0065 514.46 26.8995 515.185 27.904ZM545.316 51.2875C545.595 51.0643 545.874 50.841 546.041 50.6178H545.93C544.089 50.841 542.415 51.0085 542.024 51.5665C541.745 51.9572 541.689 52.292 541.689 52.5153C541.689 52.5711 541.689 52.5711 541.745 52.6269C541.801 52.6827 541.968 52.6827 542.136 52.6827C542.805 52.7385 543.921 52.3478 545.316 51.2875ZM490.355 16.3518C490.745 17.0773 491.471 17.6912 492.587 18.1935C496.214 17.8028 500.343 17.468 504.583 17.4121C511.614 17.2447 519.091 17.6912 525.508 18.919C531.98 20.2025 536.612 22.4348 540.127 24.1091C542.47 25.2252 544.256 26.0624 545.651 26.2298C545.762 26.2298 545.483 26.174 545.483 26.0624C545.707 25.281 545.651 23.7184 545.204 21.821C544.758 19.8677 543.865 17.5238 542.415 15.124C537.727 7.36674 527.237 -0.669587 506.09 2.34404C500.845 3.06954 495.544 6.19478 492.531 9.59905C491.415 10.8826 490.578 12.1662 490.187 13.3382C489.853 14.4543 489.853 15.4589 490.355 16.3518ZM532.092 51.3991C532.706 49.8365 533.152 48.4413 533.375 47.2135C533.096 46.5438 532.761 45.9857 532.427 45.4835C531.813 44.4789 531.143 43.7534 530.53 43.307C530.027 42.9721 529.581 42.8047 529.246 42.9163C529.079 42.9721 528.911 43.0837 528.8 43.2512C527.461 44.9254 527.963 46.1532 528.521 47.4926C528.8 48.1064 529.079 48.7761 529.246 49.5575C529.637 51.3433 527.963 52.8501 526.456 54.2453C526.121 54.5243 525.787 54.8592 525.508 55.1382C525.117 55.5289 524.838 55.8079 524.838 55.8079C525.005 55.9753 525.284 56.1986 525.619 56.3102C526.121 56.5334 526.791 56.5892 527.516 56.4776C528.242 56.3102 529.079 55.9195 529.86 55.1382C530.641 54.3569 531.422 53.1292 532.092 51.3991ZM465.804 162.457C466.083 163.35 466.417 164.243 466.696 165.024C467.422 166.81 468.147 168.316 468.872 169.321C469.43 170.102 469.988 170.549 470.323 170.437C470.435 170.437 470.491 170.381 470.602 170.27C470.658 170.27 470.602 170.047 470.491 169.656C470.044 168.149 468.315 165.582 465.804 162.457ZM257.062 172.111C254.384 170.939 251.929 169.823 249.697 168.763C241.551 165.024 236.529 162.736 235.748 163.74C233.962 166.028 236.64 176.799 241.495 188.631C242.276 190.528 243.057 192.37 243.95 194.267C246.851 189.3 249.585 184.668 252.152 180.427C253.938 177.469 255.556 174.679 257.062 172.111ZM256.839 218.655C252.152 213.409 247.633 205.819 243.838 197.95C225.815 228.98 203.943 270.333 203.943 298.349C203.943 298.349 203.943 298.405 203.998 298.405C205.505 300.581 216.832 303.65 230.112 306.218C243.559 308.785 258.96 310.794 268.445 310.794C272.407 310.794 275.308 310.459 276.424 309.678C276.815 309.399 277.206 308.841 277.54 308.059C276.313 296.172 274.695 274.296 274.192 259.618C274.025 255.265 274.025 251.526 274.081 248.847C274.193 245.722 274.639 243.88 275.587 243.824C275.755 243.824 275.866 243.824 276.034 243.88C276.257 243.992 276.48 244.159 276.648 244.383C278.043 246.392 279.884 259.395 280.777 273.403C281.669 287.299 281.614 302.199 279.214 308.227C279.605 311.743 279.94 314.31 280.219 315.37C281.111 319.053 284.962 326.811 288.979 333.173C292.104 338.084 295.173 342.046 296.902 342.269C297.349 342.325 297.516 341.767 297.628 340.818C297.739 339.758 297.739 338.419 297.739 336.8C297.739 334.01 297.739 330.661 298.353 327.257C298.186 327.257 298.074 327.257 297.907 327.257C296.791 327.257 295.675 327.257 294.67 326.699C292.606 325.583 292.215 324.299 292.941 322.848C294.168 320.56 299.023 318.216 303.542 316.096C303.933 315.928 304.379 315.705 304.77 315.538C309.457 309.845 309.569 301.083 309.68 294.777C309.736 290.368 309.792 287.076 311.521 286.238C311.745 286.127 311.968 286.071 312.191 286.071C312.191 285.29 312.247 284.62 312.414 284.062C312.582 283.504 312.861 283.113 313.195 282.834C313.921 282.332 314.758 282.443 315.762 283.057C316.488 283.56 317.324 284.341 318.217 285.401C321.286 289.029 325.025 295.782 326.754 301.865C327.368 303.985 327.48 308.115 327.647 313.473C327.87 319.891 328.149 328.038 329.265 336.465C330.381 344.446 331.999 352.594 333.562 359.57C335.794 369.28 337.97 376.591 338.639 377.652C339.365 378.712 344.554 379.103 350.859 379.103C361.015 379.158 373.737 378.21 375.522 377.596C376.247 377.317 375.801 372.182 375.243 365.374C374.462 356.389 373.513 344.725 375.522 336.633C376.08 334.401 376.805 332.391 377.587 330.606C374.629 329.657 371.784 327.313 370.556 325.415C370.165 324.802 369.886 324.188 369.831 323.685C369.719 322.904 369.998 322.346 370.668 322.011C371.337 321.676 372.397 321.732 374.071 322.29C376.08 322.96 377.531 325.248 378.647 328.541C380.265 325.527 382.05 323.406 383.501 322.234C384.338 321.565 385.064 321.174 385.677 321.062C386.626 320.895 387.296 321.286 387.519 322.29C387.686 323.072 387.351 324.411 386.347 326.253C385.51 327.815 384.171 329.155 382.664 329.992C381.604 330.55 380.488 330.885 379.316 330.885C381.437 339.367 381.716 352.315 381.883 362.639C382.05 371.066 382.218 377.652 382.943 378.154C384.227 378.935 390.03 379.158 396.781 379.047C404.928 378.879 414.246 378.154 418.542 377.317C418.877 377.261 419.268 376.982 419.603 376.48C419.714 372.406 421.444 360.686 423.397 347.292C423.843 344.111 424.346 340.818 424.792 337.526C425.573 332.057 426.354 326.308 427.08 320.783C428.475 310.403 429.758 300.86 430.651 296.507C431.097 294.386 431.655 293.214 432.436 293.382C433.05 293.493 433.496 294.163 433.664 295.223C434.333 298.628 433.831 308.785 432.548 320.839C431.264 332.838 429.256 346.79 426.968 358.007C425.182 366.546 423.23 373.466 421.109 376.814C421.109 377.038 421.109 377.261 421.165 377.373C421.277 377.428 421.5 377.484 421.723 377.484C423.397 377.652 454.644 378.098 481.929 378.377C502.686 378.545 521.1 378.656 522.439 378.433C522.495 378.433 522.55 378.433 522.606 378.377C523.499 378.098 524.057 376.982 524.336 375.419C524.671 373.633 524.559 371.289 524.169 368.946C524.001 367.885 523.722 366.769 523.443 365.765C522.997 364.146 520.263 358.621 516.803 351.534L516.413 350.752C517.305 354.77 518.142 358.51 518.868 361.746C520.207 367.829 521.155 372.238 521.602 373.41C521.713 373.745 521.769 374.08 521.825 374.359C521.937 375.14 521.713 375.698 521.434 376.089C521.1 376.535 520.709 376.759 520.263 376.926C520.039 376.982 519.816 377.038 519.593 377.094C517.194 377.373 505.978 377.373 494.428 377.261C481.539 377.094 468.147 376.814 466.083 376.535C465.357 376.424 464.743 376.256 464.297 376.033C463.795 375.754 463.404 375.419 463.125 374.973C462.4 373.857 462.902 363.086 463.627 348.855C464.799 324.857 466.417 290.87 463.962 278.816C463.348 275.747 463.237 272.565 463.516 269.329C448.06 273.793 431.153 279.653 415.808 288.192C403.644 295 391.034 299.465 379.763 302.367C359.452 307.613 343.215 307.724 341.485 307.278C339.03 306.608 328.484 296.228 315.539 282.667C294.001 259.897 265.265 228.142 256.839 218.655ZM465.692 267.04C472.89 265.031 479.753 263.301 485.947 261.739C502.575 257.553 514.069 254.651 513.846 250.968C513.455 244.494 506.704 229.928 501.012 220.887C499.506 218.488 498.055 216.479 496.883 215.139C495.935 214.079 495.209 213.465 494.874 213.465C494.763 213.577 494.484 213.967 494.038 214.47C489.629 219.827 468.872 244.773 465.692 267.04ZM511.558 336.465C509.549 328.373 507.429 320.449 505.42 314.31C503.133 307.445 501.124 302.869 499.841 303.316C498.78 303.65 499.45 306.943 501.068 311.798C503.188 318.384 507.317 327.536 511.558 336.465ZM425.127 347.739C423.62 357.896 422.337 367.104 421.667 372.573C422.951 369.057 424.234 363.867 425.461 357.84C427.749 346.734 429.758 332.838 431.041 320.839C432.157 310.403 432.659 301.474 432.325 297.233C431.432 301.641 430.204 311.017 428.809 321.174C428.028 326.811 427.247 332.671 426.522 337.916C426.075 341.265 425.629 344.558 425.127 347.739ZM432.269 295.223C432.157 295.223 432.157 295.279 432.213 295.447C432.269 295.279 432.325 295.223 432.269 295.223ZM377.084 328.82C376.192 326.308 375.076 324.578 373.569 324.076C372.397 323.685 371.728 323.574 371.505 323.741H371.56C371.616 324.02 371.784 324.355 372.007 324.746C372.955 326.085 374.908 327.815 377.084 328.82ZM371.505 323.685C371.449 323.741 371.505 323.741 371.505 323.685V323.685ZM380.265 329.378C380.823 329.266 381.381 329.043 381.939 328.764C383.166 328.094 384.282 326.978 384.952 325.695C385.677 324.355 385.956 323.462 385.956 322.96C385.622 323.016 385.175 323.295 384.617 323.741C383.278 324.802 381.716 326.699 380.265 329.378ZM314.088 289.587C314.2 290.368 314.311 291.261 314.423 292.154C315.316 299.186 316.543 308.45 312.191 313.194C311.131 314.366 308.62 315.649 305.774 316.988C305.439 317.379 305.105 317.714 304.77 318.049C302.426 320.281 301.087 323.072 300.362 325.918C301.645 326.197 302.817 326.978 303.654 328.876C304.882 331.61 305.607 335.07 305.719 338.698C305.83 342.046 305.384 345.506 304.268 348.576C303.319 351.199 301.534 353.431 299.971 355.384C298.018 357.84 296.456 359.849 297.851 361.132C298.018 361.3 298.353 361.3 298.799 361.132C299.692 360.853 300.752 360.072 301.98 359.012C302.873 357.114 303.877 355.049 304.993 353.096C307.783 348.018 311.019 343.33 312.526 342.437C313.307 341.99 313.865 342.102 314.311 342.828C315.093 344.223 312.637 348.855 309.345 353.319C307.727 355.44 305.942 357.561 304.212 359.235C303.933 359.514 303.654 359.793 303.319 360.072C302.147 362.583 301.422 364.76 301.422 365.876C301.422 365.932 301.087 365.988 301.255 365.988C303.208 365.988 308.62 361.412 313.251 355.998C316.99 351.645 320.114 346.79 320.338 343.497C320.617 339.479 321.23 333.731 321.844 328.373C322.458 323.183 323.128 318.272 323.685 315.37C324.299 312.022 320.951 302.367 317.492 295.335C316.432 293.214 315.372 291.373 314.423 290.033C314.256 289.81 314.2 289.698 314.088 289.587ZM312.749 292.321C312.526 290.647 312.358 289.14 312.247 287.801C311.466 288.192 311.41 291.038 311.354 294.889C311.298 300.581 311.187 308.171 307.839 314.086C309.29 313.305 310.461 312.635 310.964 312.022C314.814 307.892 313.642 299.018 312.749 292.321ZM301.868 318.886C298.409 320.56 295.228 322.29 294.447 323.741C294.168 324.243 294.447 324.746 295.452 325.304C296.065 325.639 296.958 325.639 297.907 325.639C298.186 325.639 298.465 325.639 298.688 325.639C299.302 323.351 300.25 321.007 301.868 318.886ZM305.942 354.77C306.611 353.933 307.337 353.096 307.95 352.203C310.406 348.911 312.414 345.73 312.805 344.223C311.354 345.618 308.787 349.524 306.444 353.766C306.276 354.157 306.109 354.491 305.942 354.77ZM275.811 259.562C276.257 272.565 277.54 291.205 278.656 303.427C279.828 296.284 279.717 284.62 279.047 273.514C278.266 261.348 276.871 249.963 275.643 246.336C275.699 246.894 275.755 247.787 275.699 248.903C275.643 251.582 275.643 255.265 275.811 259.562ZM265.655 148.895C266.213 150.346 266.771 151.797 267.05 153.193C271.458 154.978 276.703 157.043 281.669 157.825C282.116 157.88 282.506 157.992 282.897 158.159C283.957 156.095 285.017 154.644 285.854 154.476C288.03 154.03 290.541 157.378 293.108 160.671C294.782 162.792 296.4 164.968 297.684 165.805C298.465 166.363 298.855 166.307 299.023 166.028C299.302 165.582 299.525 164.801 299.748 163.852C300.027 162.792 300.362 161.62 300.92 160.503C302.371 157.657 305.607 159.052 309.736 160.894C311.8 161.787 314.144 162.847 316.488 163.405C317.157 163.573 317.827 163.573 318.552 163.405C317.38 162.68 315.706 162.01 313.809 161.285C311.243 160.28 308.285 159.108 305.495 157.378C302.315 155.425 299.358 153.025 297.07 150.737C294.559 148.226 292.829 145.826 292.494 144.207C291.936 141.585 292.829 138.124 294.67 134.385C296.623 130.423 299.692 126.126 303.096 122.387C304.658 120.657 305.439 119.206 305.663 118.034C305.83 117.141 305.663 116.415 305.328 115.857C304.993 115.243 304.379 114.797 303.766 114.462C302.873 114.015 301.813 113.848 300.976 113.96C302.092 114.015 303.096 114.406 304.1 115.355C304.658 115.913 304.882 116.583 304.882 117.364C304.882 118.48 304.379 119.764 303.542 121.047C302.761 122.275 301.701 123.559 300.641 124.675C298.576 126.74 296.177 128.358 294.782 128.358C294.057 128.358 293.443 128.135 293.052 127.688C292.606 127.242 292.327 126.628 292.271 125.903C292.215 125.289 292.327 124.619 292.55 123.893C292.996 122.498 294.057 121.047 295.563 120.21C296.679 119.596 297.07 118.089 297.349 116.638C297.405 116.415 297.46 116.136 297.516 115.913C295.842 116.136 294.001 116.304 291.992 115.578C288.142 114.127 290.486 108.1 292.327 103.412C292.55 102.854 292.773 102.296 292.941 101.794C291.713 101.235 290.43 100.622 289.091 100.008C284.348 97.7754 279.326 95.4873 274.639 94.2595C273.411 93.9247 272.295 93.7572 271.291 93.7014C268.11 93.534 265.767 94.4827 264.093 95.8779C262.419 97.2731 261.47 99.1148 261.08 100.733C260.968 101.235 260.857 101.738 260.857 102.184C260.689 104.696 260.076 108.1 259.35 111.839C257.341 122.331 254.831 135.781 261.247 139.241C261.694 139.52 262.252 139.687 262.81 139.855C263.368 137.622 264.595 133.66 267.831 130.702C270.9 127.912 275.029 125.512 278.489 124.563C279.884 124.173 281.223 123.949 282.395 124.061C283.678 124.173 284.738 124.563 285.464 125.4C285.854 125.791 286.133 126.349 286.301 126.963C286.747 128.526 286.468 130.088 285.631 131.651C284.571 133.66 282.506 135.613 279.995 137.176C277.54 138.738 274.583 140.078 271.682 140.915C269.003 141.696 266.325 142.031 264.037 141.864C263.758 143.761 264.707 146.384 265.655 148.895ZM268.947 131.986C266.102 134.553 264.986 138.069 264.484 140.134C266.492 140.245 268.836 139.91 271.235 139.241C273.969 138.459 276.759 137.232 279.103 135.725C281.39 134.274 283.232 132.544 284.18 130.814C284.794 129.697 285.017 128.526 284.683 127.409C284.571 127.075 284.404 126.795 284.236 126.516C283.79 126.07 283.12 125.791 282.283 125.735C281.335 125.679 280.219 125.847 278.935 126.182C275.699 127.13 271.849 129.363 268.947 131.986ZM295.005 100.956C298.911 102.631 302.426 103.914 305.161 103.914C309.122 103.914 312.47 108.1 314.144 112.453C314.535 111.448 314.814 110.332 314.981 109.104C315.093 108.491 315.26 107.319 315.427 106.202C316.934 96.6592 318.161 89.1252 313.419 81.8702C311.131 78.2985 307.169 74.2803 302.036 71.8248C298.13 69.9273 293.499 68.9228 288.421 69.7041C278.433 71.2667 275.364 76.122 272.909 80.0285C271.458 82.3724 270.175 84.3815 267.831 85.3303C264.818 86.6138 260.968 86.1674 257.788 85.7767C256.17 85.5535 254.719 85.3861 253.826 85.4977C253.38 85.5535 253.157 85.7209 253.212 86.1116C253.324 86.7255 253.491 87.3393 253.826 87.9532C254.496 89.2368 255.556 90.4646 256.728 91.3017C257.844 92.1388 259.127 92.5853 260.187 92.4179C260.466 92.3621 260.745 92.3062 260.968 92.1946C261.582 91.8598 262.252 91.4133 262.921 90.911C265.823 88.8462 269.505 86.1116 279.493 88.1765C284.571 89.2368 288.086 90.7436 290.486 92.362C294.057 94.706 295.173 97.3289 295.284 99.059C295.34 99.5613 295.228 100.175 295.005 100.956ZM313.419 119.261C313.586 118.703 313.586 118.034 313.586 117.308C312.861 118.368 312.135 119.261 311.577 119.987C311.019 120.657 310.629 121.103 310.685 121.159C310.685 121.382 311.019 120.824 311.912 120.768C312.693 120.712 313.195 120.099 313.419 119.261ZM302.873 116.527C301.924 115.578 300.697 115.522 299.302 115.69C299.19 116.136 299.078 116.583 298.967 117.029C298.576 118.815 298.13 120.712 296.344 121.717C295.228 122.331 294.503 123.391 294.112 124.452C293.945 124.954 293.889 125.4 293.945 125.791C293.945 126.126 294.057 126.349 294.224 126.516C294.336 126.628 294.559 126.684 294.782 126.684C295.731 126.684 297.628 125.289 299.469 123.503C300.529 122.442 301.478 121.326 302.147 120.21C302.817 119.15 303.208 118.145 303.208 117.42C303.152 117.029 303.096 116.75 302.873 116.527ZM321.286 164.131C321.565 165.805 320.282 168.093 318.496 170.549C317.548 171.832 316.488 173.172 315.427 174.455C312.916 177.525 310.573 180.427 310.964 181.264C311.075 181.543 311.577 181.822 312.358 182.101C314.535 182.938 318.329 183.44 322.123 183.496C325.917 183.552 329.712 183.161 331.832 182.213C332.557 181.878 333.06 181.487 333.227 181.041C333.339 180.706 333.45 180.371 333.562 179.98C333.394 179.478 333.227 178.92 333.115 178.362C332.613 175.906 332.669 172.949 332.948 170.381C333.227 167.758 333.785 165.526 334.343 164.689C334.566 164.298 334.901 164.075 335.236 163.963C335.347 163.963 335.515 163.963 335.626 163.963C336.296 164.075 336.631 164.856 336.798 165.973C336.91 166.754 336.91 167.87 336.854 169.154C336.686 172.446 336.129 176.911 335.347 179.924C335.682 180.762 336.129 181.376 336.742 181.766C338.751 183.05 343.884 182.603 348.906 181.376C354.04 180.092 358.95 177.971 360.233 175.906C360.624 175.237 361.07 174.232 361.461 172.893C361.294 172.893 361.182 172.837 361.015 172.781C357.778 171.832 353.091 166.028 350.524 161.061C349.743 159.555 349.185 158.159 348.851 156.932C348.516 155.592 348.516 154.42 349.018 153.695C349.353 153.193 349.855 152.914 350.524 152.802C352.868 152.523 354.933 153.025 356.272 153.36C356.383 153.416 356.495 153.416 356.606 153.416C356.383 152.969 356.104 152.523 355.825 152.132C355.044 150.96 354.43 149.956 354.877 148.895C352.087 149.342 348.962 149.732 346.116 150.123C342.49 150.57 339.197 151.016 337.356 151.407C334.957 151.965 332.055 154.811 329.098 157.713C326.531 160.113 323.909 162.68 321.286 164.131ZM334.51 175.627C334.845 173.395 335.124 170.995 335.18 169.042C335.236 168.316 335.236 167.703 335.18 167.145C334.957 168.037 334.734 169.209 334.622 170.549C334.455 172.167 334.399 173.953 334.51 175.627ZM367.655 146.719C366.706 153.751 365.255 164.41 363.581 171.163C366.594 170.884 371.505 169.433 376.638 167.535C384.84 164.522 393.433 160.503 395.386 158.55C397.618 156.318 398.009 151.574 398.399 147.5C398.567 145.435 398.734 143.538 399.125 142.087C399.404 141.082 400.185 140.413 401.245 140.078C400.687 139.631 400.185 139.185 399.627 138.683C397.395 136.673 395.609 134.385 394.214 132.544C392.875 130.814 391.927 129.586 391.704 129.642C384.338 131.26 380.655 126.349 377.921 122.61C377.308 121.773 376.75 120.991 376.192 120.433C375.355 121.94 374.239 122.61 373.29 122.721C372.565 122.833 371.951 122.666 371.505 122.275C371.002 121.884 370.723 121.27 370.835 120.545C370.947 119.708 371.672 118.759 373.179 117.978C373.96 117.587 374.685 117.531 375.299 117.755C375.522 115.132 373.792 110.946 372.23 107.151C370.612 103.133 369.105 99.5054 369.942 97.608C371.058 95.1524 374.239 95.6547 378.591 96.436C381.102 96.8825 384.115 97.3848 387.24 97.3848C389.248 97.3848 391.257 96.8825 392.987 96.436C396.056 95.6547 398.511 94.985 400.241 97.1615C401.58 98.8916 402.528 101.235 403.198 103.858C403.812 102.352 404.258 100.789 404.481 99.2822C404.481 99.1706 404.481 99.059 404.537 98.9474C402.752 97.5522 401.468 95.9896 400.241 94.5944C396.614 90.2972 393.991 87.2277 380.042 93.6456C377.084 94.985 371.393 94.3153 365.702 93.6456C360.178 92.9759 354.765 92.362 352.645 93.5898C351.64 94.2037 351.529 95.4315 352.924 97.8312C354.486 100.566 351.752 103.579 349.353 106.258C348.237 107.486 347.177 108.658 346.842 109.495C346.674 109.942 346.786 110.109 346.953 110.165C347.4 110.332 348.125 110.388 348.851 110.444C349.799 110.5 350.748 110.555 351.473 110.946C353.035 111.727 352.98 113.29 352.924 114.797C352.924 115.466 352.868 116.08 353.035 116.415C353.147 116.638 354.263 116.862 355.323 117.029C357.053 117.308 358.671 117.587 358.671 118.982C358.671 120.043 357.443 120.712 356.048 121.55C354.542 122.442 352.812 123.447 353.259 124.228C353.928 125.4 353.705 126.74 353.482 128.079C353.203 129.809 352.868 131.651 355.602 132.488C357.388 133.046 359.173 133.158 360.847 133.269C361.74 133.325 362.633 133.381 363.414 133.492C366.929 133.995 369.161 135.557 368.213 142.422C368.045 143.705 367.878 145.1 367.655 146.719ZM406.323 98.2219C407.55 99.1148 409.057 99.9519 410.898 100.566C411.121 100.622 411.345 100.733 411.512 100.789C412.014 99.7287 412.349 98.4451 412.572 96.7709C413.8 86.558 410.452 78.0194 404.872 71.7132C402.026 68.5321 398.623 65.9091 394.996 63.9559C391.369 62.0584 387.463 60.7748 383.613 60.3284C377.196 59.5471 371.002 60.9422 366.539 64.9046C363.972 67.1927 361.573 70.4854 359.62 73.8339C356.16 79.6937 353.872 85.7209 353.314 87.2835V87.3393C355.546 87.5626 357.834 87.8416 360.122 88.1765C368.324 89.2368 376.415 90.2972 380.488 88.2881C384.338 86.3906 388.802 84.9954 393.043 85.1628C396.558 85.2745 399.962 86.5022 402.752 89.2926C405.542 92.0272 406.49 95.0966 406.323 98.2219ZM412.572 103.747C412.516 103.524 412.405 103.356 412.126 103.133C410.563 105.365 408.555 106.035 407.271 106.481C407.104 106.537 406.992 106.593 406.881 106.593C407.383 106.872 408.666 106.649 409.894 106.147C410.731 105.812 411.456 105.365 412.014 104.863C412.461 104.472 412.684 104.082 412.572 103.747ZM345.949 89.46C346.451 89.1252 347.121 88.8462 347.846 88.6229C342.545 88.3997 338.305 89.0694 336.687 91.6924C336.631 91.804 336.575 91.9156 336.575 92.083C336.575 92.3062 336.686 92.5853 336.91 92.8085C337.189 93.1434 337.635 93.4782 338.193 93.813C340.369 95.0966 343.829 96.0454 346.061 96.0454C347.177 96.0454 347.567 96.2128 347.567 96.157C347.567 95.9896 347.121 95.3757 346.507 94.4827C346.172 94.0363 345.782 93.4782 345.335 92.8643C344.331 91.3017 344.777 90.2413 345.949 89.46ZM402.473 109.383L402.361 109.607C400.352 113.234 399.627 120.768 399.962 125.121C400.017 126.07 400.129 126.851 400.352 127.354L400.408 127.298C401.915 124.898 402.975 118.201 402.696 111.448C402.584 110.779 402.528 110.109 402.473 109.383ZM400.185 127.577C400.129 127.633 400.073 127.688 400.129 127.633C400.129 127.633 400.185 127.633 400.185 127.577ZM373.011 121.103C373.569 120.991 374.239 120.545 374.797 119.429C374.518 119.317 374.183 119.373 373.904 119.485C372.9 119.987 372.509 120.433 372.453 120.824C372.453 120.88 372.453 120.991 372.509 120.991C372.676 121.103 372.844 121.159 373.011 121.103ZM405.932 141.64C408.108 143.203 410.173 144.542 411.958 145.435C413.018 145.938 413.911 146.272 414.581 146.384C414.971 146.44 415.25 146.44 415.25 146.384C415.25 146.384 415.25 146.328 415.306 146.272C415.418 145.379 413.688 144.208 411.456 143.259C410.117 142.701 408.61 142.198 407.16 141.919C406.713 141.808 406.323 141.696 405.932 141.64ZM360.066 145.435C359.675 145.714 359.341 145.993 359.006 146.328C360.736 145.938 362.075 145.491 362.688 145.045C362.744 144.989 362.856 145.1 362.856 145.045C362.744 144.877 362.577 144.71 362.409 144.654C362.186 144.542 361.852 144.542 361.517 144.654C361.015 144.766 360.512 145.045 360.066 145.435ZM283.343 160.782C282.227 163.461 281.111 166.865 280.33 169.712C279.94 171.107 279.661 172.335 279.493 173.339C279.438 173.618 279.438 173.841 279.382 174.065C280.163 173.06 281.39 170.716 282.395 168.205C282.897 166.921 283.288 165.582 283.511 164.354C283.734 163.182 283.734 162.066 283.511 161.229C283.455 161.061 283.399 160.95 283.343 160.782ZM143.569 130.814C143.68 130.814 143.736 130.814 143.848 130.758C143.067 127.856 144.35 124.452 146.08 121.326C146.973 119.708 147.977 118.201 148.814 116.862C150.153 114.797 151.213 113.178 151.102 112.732C150.823 111.448 135.98 105.254 123.258 99.8961C115.391 96.6034 108.304 93.6456 105.793 92.2504C103.004 90.6878 100.604 89.5717 98.4281 88.8462C99.7114 90.0739 100.716 91.2459 101.33 92.4179C102.222 94.0921 102.278 95.7105 101.33 97.1057C100.772 97.9428 99.823 98.7241 98.4281 99.338C89.8351 103.077 84.7575 98.6125 81.6886 95.8779C81.019 95.2641 80.4052 94.7618 80.0147 94.5386C79.2335 94.0921 77.1132 94.3711 74.8254 94.6502C76.1088 95.2083 77.5595 96.1012 79.0103 97.3848C81.7444 99.8403 84.3669 101.403 87.4358 102.463C90.5605 103.524 94.1316 104.082 98.7071 104.472C104.064 104.975 116.005 113.178 126.383 120.378C134.474 125.903 141.616 130.814 143.569 130.814ZM68.7992 95.6547C68.7992 95.4873 68.855 95.3757 68.9108 95.2641C67.4043 95.2082 66.2325 94.8734 65.7303 93.9247C65.2281 92.9759 64.9491 92.1388 64.9491 91.3017C64.9491 90.8552 65.1165 90.4088 65.3397 90.0739C65.5629 89.6833 65.8977 89.4042 66.3441 89.1252C67.2927 88.6229 68.7434 88.3439 70.9753 88.4555C75.495 88.6787 78.9545 87.8416 82.1908 87.0603C85.2039 86.3348 88.0496 85.6093 91.4533 85.7209C86.822 82.8747 81.0748 80.3076 76.053 78.9124C73.4305 78.1869 71.2543 77.4055 69.5804 76.68C67.2927 75.6755 65.7861 74.7826 65.2281 74.2245C63.7216 72.7177 61.657 71.8806 59.7599 71.6573C58.6997 71.4899 57.6396 71.4899 56.8026 71.6573C56.0772 71.769 55.5192 71.9922 55.2402 72.2712C55.1844 72.327 55.1844 72.327 55.1844 72.3828C55.0171 73.5548 61.0433 76.401 65.8977 78.6891L67.2927 79.3588C70.529 80.8656 71.4775 82.3166 70.6406 83.7676C69.971 84.9396 67.9064 85.8883 64.9491 86.7813C64.2238 87.0045 63.6658 87.3951 63.2752 87.8974C62.773 88.5113 62.5498 89.3484 62.494 90.2972C62.4382 91.3017 62.6056 92.4179 62.9404 93.5898C63.7216 96.2128 65.3955 98.8358 67.4601 100.454C68.855 101.515 69.8036 101.849 70.3616 101.738C70.529 101.682 70.6406 101.626 70.7522 101.515C70.8637 101.347 70.9195 101.18 70.9753 100.901C71.0311 100.064 70.6406 98.9474 69.7478 98.0544C68.9666 97.2173 68.6318 96.3802 68.7992 95.6547ZM96.2519 89.0694C95.7498 88.6229 95.1918 88.1765 94.578 87.7858C89.8351 86.8929 86.3199 87.7858 82.6372 88.6787C79.2335 89.5158 75.6624 90.4088 70.9195 90.1297C69.0782 90.0181 67.9064 90.1855 67.2369 90.5762C67.0137 90.6878 66.9021 90.7994 66.7905 90.9669C66.7347 91.0785 66.6789 91.2459 66.6789 91.4133C66.6789 91.8598 66.8463 92.4737 67.2369 93.1433C67.739 94.0363 70.8637 93.5898 73.9326 93.1433C76.7784 92.7527 79.5125 92.362 80.9074 93.0875C81.4654 93.4224 82.135 93.9805 82.8604 94.6502C85.5945 97.1057 90.1699 101.124 97.8143 97.8312C98.9303 97.3848 99.5998 96.8267 99.9904 96.2128C100.548 95.3757 100.437 94.3711 99.8788 93.255C99.2092 91.9156 97.9259 90.5204 96.2519 89.0694ZM209.69 165.024C212.089 163.796 214.042 162.233 215.437 160.671C216.386 159.61 217.111 158.606 217.501 157.713C217.836 156.932 217.948 156.374 217.836 155.983C217.78 155.871 217.725 155.816 217.557 155.76C217.501 155.76 217.501 155.76 217.446 155.76C216.441 155.704 214.767 157.322 212.982 159.778C211.866 161.229 210.75 163.071 209.69 165.024ZM212.591 323.909C212.703 324.188 212.87 324.411 213.038 324.523C213.707 324.913 215.549 325.471 217.892 325.862C220.905 326.364 224.699 326.643 228.103 326.197C231.395 325.75 234.297 324.634 235.636 322.346C236.026 321.732 236.25 321.062 236.417 320.225C236.696 318.719 236.027 317.491 234.911 316.486C233.906 315.649 232.567 314.979 231.06 314.421C229.498 313.863 227.713 313.417 225.927 313.138C220.738 312.245 215.716 312.245 215.381 312.635C214.488 313.584 213.54 317.881 212.591 323.909ZM263.312 341.209C264.372 338.251 265.321 335.573 265.879 333.34C266.66 330.382 266.883 328.485 266.213 328.262C266.158 328.262 266.158 328.262 266.102 328.262C265.488 328.318 264.93 329.768 264.428 332.001C263.926 334.401 263.535 337.582 263.312 341.209ZM311.521 374.415C311.633 374.415 311.745 374.359 311.856 374.359C312.247 372.35 311.801 369.783 311.187 367.997C311.131 367.829 311.075 367.662 311.019 367.495C311.075 368.22 311.187 369.225 311.298 370.285C311.41 371.624 311.466 373.075 311.521 374.415Z" fill="#019CA5"/>
</g>
<defs>
<clipPath id="clip0_531_7705">
<rect width="792" height="381" fill="white"/>
</clipPath>
</defs>
</svg>
