<svg width="1053" height="385" viewBox="0 0 1053 385" fill="none" xmlns="http://www.w3.org/2000/svg">
<g opacity="0.2" clip-path="url(#clip0_531_2205)">
<path d="M1052.27 383.743H940.841V294.795L1052.27 299.275V221.089L940.841 214.807V125.859L1052.27 143.835V63.8457L940.841 39.5873L857.274 59.3664V138.454L930.951 126.761L931.853 132.142L857.274 143.835V218.413L935.46 211.229V218.413L857.274 225.598V304.685L931.853 299.304V304.685L857.274 310.066V383.743H773.708V307.361L849.188 305.557V223.794L773.708 231.88V159.105L848.286 146.54L845.581 68.3542L769.199 87.2316V383.743H702.736V312.771L762.945 310.066V238.163L702.736 244.446V301.049V170.769L765.621 159.978L763.818 104.276L719.781 115.068V162.683L717.076 110.559L753.027 102.473L750.322 69.2268L1000.15 0.959961V47.6734L1052.27 56.6613V10.8495L1007.33 5.46842L746.744 78.2437L377.021 33.2755L379.115 86.0099L709.92 119.576L713.527 161.81L291.215 138.454V196.86L696.453 215.737L695.551 266.058L245.345 259.746V319.054L699.129 316.349V368.472L245.345 378.362V192.351L286.677 195.958L284.874 136.65L333.391 137.552L331.587 81.8505L372.92 86.3299L370.215 31.5302L255.235 95.2886L257.038 117.744L248.952 121.35V96.1903L165.385 139.326V159.105L163.582 160.909V141.13L108.782 171.671V187.843L102.499 192.322V172.543L106.106 173.445H98.0201L60.2944 194.998V211.171L38.6829 221.991V236.36L11.7194 248.925V270.508L-13.4408 278.594V335.197L20.7072 333.394V299.246L-11.6374 305.557L-10.7357 280.397L23.4123 267.832L24.314 296.599L71.9291 287.611L71.0275 253.463L26.0883 266.028L45.8673 257.942V236.389H52.1501V254.365L53.9535 234.586L103.372 213.905V250.758L72.8308 251.66L103.372 253.463L101.569 291.189H74.6051L72.8018 328.914L31.2076 332.143L30.364 367.309L-11.4919 368.152L-13.4408 340.607L-15.2441 368.589L30.5967 369.374V335.226L69.2241 331.619L67.4207 351.398L52.1501 352.3C52.1501 352.3 52.1501 356.779 53.0518 355.907C53.9535 355.005 71.0275 355.005 71.0275 355.005V351.398L142.901 348.693L143.803 355.878C143.803 355.878 124.925 355.878 117.741 356.779C110.556 357.681 113.262 366.669 113.262 366.669L106.979 362.19L105.175 363.091V365.796L97.4965 366.262L79.4336 367.396L76.4085 367.571L75.5068 358.583H103.372L102.47 354.976C102.47 354.976 76.4085 354.074 71.9291 356.779C67.4498 359.484 66.5481 376.558 71.0275 374.755C75.5068 372.952 75.5068 364.866 74.6342 362.19C73.7325 359.484 69.2532 361.288 70.1549 365.796C71.0566 370.276 72.8599 368.501 72.8599 364.895C72.8599 361.288 71.9582 357.71 65.6755 357.71C59.3927 357.71 59.3927 369.403 62.9704 372.079C66.5772 374.784 67.4498 366.698 66.5772 362.19C65.6755 357.71 62.0978 365.796 62.9704 367.571C63.8721 369.374 65.6755 364.866 65.6755 364.866C64.5411 362.539 56.8913 372.137 62.6795 375.686C66.5772 378.071 78.0374 377.489 79.8408 375.686C81.6442 373.882 81.8478 368.443 81.8478 368.443L90.8356 367.542C90.8356 367.542 90.8356 372.923 92.639 373.824C94.4424 374.726 98.0201 374.726 98.0201 372.021C98.0201 369.316 99.0963 369.81 99.0963 369.81C99.0963 369.81 98.66 372.195 98.6891 373.999C98.7472 376.675 109.713 377.431 110.615 372.923C111.516 368.414 110.615 366.64 110.615 366.64C110.615 366.64 113.96 371.41 113.32 372.021C111.109 374.086 111.633 379.409 117.799 376.5C119.428 375.744 115.908 372.283 120.504 369.316C129.318 363.615 124.722 359.746 118.701 359.426C115.152 359.252 111.487 369.374 115.996 371.992C118.788 373.621 119.603 372.894 119.603 370.188C119.603 367.483 120.504 359.397 118.701 363.004C116.897 366.611 116.897 377.373 120.504 377.373C124.111 377.373 124.984 379.176 124.984 373.766C124.984 368.385 121.173 373.592 123.384 376.442C125.943 379.758 131.557 377.577 131.761 376.849C132.226 375.104 131.877 369.607 130.074 365.127C128.27 360.648 129.114 363.149 130.917 361.346C132.721 359.543 135.397 363.149 137.2 361.346C139.003 359.543 136.298 360.968 137.2 366.378C138.102 371.759 136.676 371.061 133.971 371.061C131.266 371.061 140.109 373.824 140.109 369.316C140.109 364.836 142.407 357.914 149.242 358.466C158.724 359.252 158.114 384.761 146.391 379.758C141.563 377.722 141.796 373.475 141.796 373.475C141.796 373.475 143.105 376.035 148.486 375.162C153.867 374.261 151.045 364.749 148.34 363.848C145.635 362.946 144.704 366.785 144.704 366.785C144.704 366.785 143.832 354.86 147.439 353.958C151.045 353.056 148.34 357.565 153.721 358.437C159.102 359.339 157.328 340.462 157.328 340.462C157.328 340.462 143.861 338.658 144.763 335.081C145.664 331.474 145.664 325.191 150.144 324.289C154.623 323.388 160.033 325.191 160.033 326.093C160.033 326.994 157.328 341.363 161.837 341.363C166.316 341.363 198.69 344.97 200.464 338.658C202.267 332.376 200.406 325.307 200.406 325.307C200.406 325.307 163.64 327.867 162.738 325.191C161.837 322.486 158.783 320.654 161.488 321.555C164.193 322.457 198.69 321.613 199.591 321.613C200.493 321.613 204.972 326.093 204.071 332.405C203.169 338.687 204.071 344.098 204.972 347.675C205.874 351.282 199.591 353.958 199.591 356.663C199.591 359.368 199.591 364.749 199.591 365.651C199.591 366.553 186.124 369.258 177.136 368.356C170.243 367.658 167.596 362.742 166.316 358.466C165.938 357.158 165.676 355.907 165.472 354.86C164.571 350.38 160.091 345.872 166.374 345.872C172.657 345.872 200.522 344.068 201.424 345.872C202.326 347.675 200.522 358.437 202.326 357.565C203.983 356.75 204.1 357.448 204.827 361.055C204.885 361.375 204.943 361.695 205.031 362.044C205.932 366.523 201.802 367.6 200.9 367.6C199.999 367.6 200.551 360.241 200.551 360.241C200.551 360.241 205.031 358.437 205.932 361.142C206.834 363.848 207.881 368.938 204.129 372.835C198.748 378.42 161.895 380.485 158.288 371.934C156.543 367.803 158.288 358.466 158.288 358.466H164.571L165.269 361.084L167.247 368.356C167.247 368.356 160.964 369.258 160.062 367.454C159.161 365.651 156.456 361.172 160.062 361.172C163.669 361.172 163.669 355.79 160.964 355.79C158.259 355.79 159.161 344.098 160.062 342.323C160.964 340.52 152.878 341.422 148.369 339.618C143.89 337.815 142.988 336.913 142.988 343.225C142.988 349.508 129.521 349.508 131.295 346.832C133.099 344.127 132.197 327.053 132.197 327.053L74.6342 330.718C74.6342 330.718 101.598 326.238 102.499 326.238C103.401 326.238 105.205 290.287 105.205 290.287L144.734 283.102V323.533C144.734 323.533 148.34 320.828 152.82 319.054C154.914 318.21 156.397 318.152 157.415 318.327C159.597 318.705 161.778 318.908 163.989 318.821C170.097 318.559 180.307 318.152 185.164 318.152C192.349 318.152 200.435 319.955 200.435 319.955L229.202 318.152L243.571 317.25L242.669 257.942L145.635 276.82L143.832 227.401L241.767 197.762C241.767 197.762 180.656 214.836 181.558 213.032C182.459 211.229 181.558 179.786 181.558 179.786L280.395 140.228L217.509 162.683L218.411 134.818L328.039 83.5957L135.746 175.277L136.647 198.634L175.275 182.462L172.57 216.61L142.93 225.598L143.017 241.741L106.077 248.954V209.425L133.041 199.536V177.983L83.6221 201.339L81.8187 220.217L77.3393 222.02L76.4376 202.241L80.917 203.143L74.6342 202.241" stroke="#019CA5" stroke-width="1.45434" stroke-miterlimit="10"/>
</g>
<defs>
<clipPath id="clip0_531_2205">
<rect width="1069" height="384.47" fill="white" transform="translate(-16)"/>
</clipPath>
</defs>
</svg>
