<svg width="24" height="24" viewBox="0 0 24 24" fill="none" xmlns="http://www.w3.org/2000/svg">
<path d="M3 6C3 5.44772 3.44772 5 4 5H20C20.5523 5 21 5.44772 21 6C21 6.55228 20.5523 7 20 7H4C3.44772 7 3 6.55228 3 6Z" fill="white"/>
<path d="M6 12C6 11.4477 6.44772 11 7 11H17C17.5523 11 18 11.4477 18 12C18 12.5523 17.5523 13 17 13H7C6.44772 13 6 12.5523 6 12Z" fill="white"/>
<path d="M10 17C9.44772 17 9 17.4477 9 18C9 18.5523 9.44772 19 10 19H14C14.5523 19 15 18.5523 15 18C15 17.4477 14.5523 17 14 17H10Z" fill="white"/>
</svg>
