<svg width="620" height="156" viewBox="0 0 620 156" fill="none" xmlns="http://www.w3.org/2000/svg">
<g clip-path="url(#clip0_222_636)">
<path d="M241.138 63.2014C237.067 63.2014 233.316 62.5675 229.883 61.2993C226.499 59.9825 223.532 58.129 220.982 55.7394C218.481 53.3498 216.52 50.5453 215.098 47.3264C213.725 44.1075 213.038 40.5715 213.038 36.7186C213.038 32.8657 213.725 29.3298 215.098 26.1109C216.52 22.892 218.506 20.0876 221.056 17.6978C223.606 15.3081 226.598 13.4791 230.03 12.2111C233.463 10.8943 237.239 10.2358 241.358 10.2358C245.919 10.2358 250.014 10.9918 253.643 12.5037C257.321 14.0156 260.41 16.2103 262.911 19.0878L255.261 26.1109C253.397 24.16 251.362 22.7213 249.156 21.7946C246.949 20.8192 244.546 20.3315 241.947 20.3315C239.446 20.3315 237.166 20.7217 235.106 21.502C233.046 22.2823 231.256 23.4041 229.736 24.8672C228.265 26.3303 227.113 28.0617 226.279 30.0613C225.494 32.061 225.102 34.28 225.102 36.7186C225.102 39.1084 225.494 41.3031 226.279 43.3027C227.113 45.3025 228.265 47.0583 229.736 48.57C231.256 50.0332 233.022 51.1551 235.032 51.9352C237.092 52.7154 239.348 53.1058 241.8 53.1058C244.154 53.1058 246.434 52.74 248.641 52.0084C250.896 51.2282 253.079 49.9355 255.188 48.1311L261.955 56.6904C259.16 58.7874 255.898 60.3969 252.172 61.5188C248.494 62.6407 244.816 63.2014 241.138 63.2014ZM251.068 55.1542V35.9139H261.955V56.6904L251.068 55.1542ZM283.985 31.744H308.774V40.9617H283.985V31.744ZM284.868 52.8131H312.894V62.3235H273.025V11.1137H311.938V20.6241H284.868V52.8131ZM347.386 63.2014C343.315 63.2014 339.539 62.543 336.058 61.2262C332.625 59.9093 329.633 58.0559 327.083 55.6662C324.582 53.2766 322.62 50.4721 321.199 47.2532C319.825 44.0343 319.139 40.5228 319.139 36.7186C319.139 32.9145 319.825 29.4029 321.199 26.184C322.62 22.9651 324.607 20.1608 327.157 17.771C329.707 15.3812 332.698 13.5279 336.131 12.2111C339.564 10.8943 343.291 10.2358 347.312 10.2358C351.382 10.2358 355.109 10.8943 358.493 12.2111C361.926 13.5279 364.893 15.3812 367.394 17.771C369.944 20.1608 371.93 22.9651 373.352 26.184C374.774 29.3542 375.485 32.8657 375.485 36.7186C375.485 40.5228 374.774 44.0589 373.352 47.3264C371.93 50.5453 369.944 53.3498 367.394 55.7394C364.893 58.0804 361.926 59.9093 358.493 61.2262C355.109 62.543 351.407 63.2014 347.386 63.2014ZM347.312 53.1058C349.617 53.1058 351.726 52.7154 353.638 51.9352C355.6 51.1551 357.316 50.0332 358.787 48.57C360.259 47.1069 361.386 45.3757 362.171 43.3759C363.005 41.3763 363.422 39.1572 363.422 36.7186C363.422 34.28 363.005 32.061 362.171 30.0613C361.386 28.0617 360.259 26.3303 358.787 24.8672C357.365 23.4041 355.673 22.2823 353.712 21.502C351.75 20.7217 349.617 20.3315 347.312 20.3315C345.007 20.3315 342.874 20.7217 340.913 21.502C339 22.2823 337.308 23.4041 335.837 24.8672C334.366 26.3303 333.213 28.0617 332.38 30.0613C331.595 32.061 331.203 34.28 331.203 36.7186C331.203 39.1084 331.595 41.3275 332.38 43.3759C333.213 45.3757 334.341 47.1069 335.763 48.57C337.235 50.0332 338.951 51.1551 340.913 51.9352C342.874 52.7154 345.007 53.1058 347.312 53.1058ZM216.275 151.157V99.9471H238.563C243.173 99.9471 247.145 100.703 250.48 102.215C253.815 103.678 256.389 105.8 258.203 108.58C260.018 111.36 260.925 114.676 260.925 118.529C260.925 122.333 260.018 125.625 258.203 128.405C256.389 131.185 253.815 133.331 250.48 134.843C247.145 136.306 243.173 137.038 238.563 137.038H222.895L228.191 131.697V151.157H216.275ZM228.191 133.014L222.895 127.381H237.901C241.579 127.381 244.325 126.601 246.14 125.04C247.954 123.479 248.861 121.309 248.861 118.529C248.861 115.7 247.954 113.506 246.14 111.945C244.325 110.384 241.579 109.604 237.901 109.604H222.895L228.191 103.971V133.014ZM269.433 151.157V99.9471H281.349V141.5H307.169V151.157H269.433ZM307.347 151.157L330.297 99.9471H342.067L365.091 151.157H352.586L333.755 105.946H338.462L319.558 151.157H307.347ZM318.822 140.183L321.985 131.185H348.467L351.703 140.183H318.822ZM378.513 151.157V109.604H362.036V99.9471H406.907V109.604H390.43V151.157H378.513ZM413.319 151.157V99.9471H425.236V151.157H413.319ZM437.455 151.157V99.9471H447.312L477.692 136.818H472.911V99.9471H484.681V151.157H474.897L444.444 114.286H449.225V151.157H437.455ZM519.74 152.035C512.433 152.035 506.72 150.011 502.601 145.963C498.481 141.915 496.422 136.135 496.422 128.625V99.9471H508.338V128.186C508.338 133.063 509.344 136.574 511.354 138.72C513.365 140.866 516.185 141.939 519.814 141.939C523.443 141.939 526.264 140.866 528.271 138.72C530.284 136.574 531.287 133.063 531.287 128.186V99.9471H543.057V128.625C543.057 136.135 540.997 141.915 536.878 145.963C532.758 150.011 527.047 152.035 519.74 152.035ZM554.837 151.157V99.9471H564.694L586.614 136.087H581.392L602.944 99.9471H612.728L612.875 151.157H601.694L601.62 116.993H603.68L586.467 145.743H581.097L563.517 116.993H566.018V151.157H554.837Z" fill="white" fill-opacity="0.34"/>
<path d="M157.627 -0.382446H79.9727L157.627 77.9999V-0.382446Z" fill="white" fill-opacity="0.34"/>
<path d="M0 -0.382446H39.4068L157.627 116.038V156.382H118.22L0 38.8087V-0.382446Z" fill="white" fill-opacity="0.34"/>
<path d="M0 156.382V78L79.9726 156.382H0Z" fill="white" fill-opacity="0.34"/>
</g>
<defs>
<clipPath id="clip0_222_636">
<rect width="620" height="156" fill="white"/>
</clipPath>
</defs>
</svg>
