<svg width="131" height="43" viewBox="0 0 131 43" fill="none" xmlns="http://www.w3.org/2000/svg">
<g clip-path="url(#clip0_86_1777)">
<mask id="mask0_86_1777" style="mask-type:luminance" maskUnits="userSpaceOnUse" x="0" y="0" width="131" height="43">
<path d="M131 0H0V42.5H131V0Z" fill="white"/>
</mask>
<g mask="url(#mask0_86_1777)">
<path d="M37.3 38.4999V32.8999L34.5 32.9999V33.5999C35.3 33.5999 35.5 33.8999 35.5 34.2999V38.4999C35.5 38.7999 35.3 38.9999 34.5 38.9999V39.5999H38.3V38.9999C37.4 38.9999 37.3 38.7999 37.3 38.4999ZM30.8 32.7999C29.9 32.7999 29.3 33.0999 28.7 33.5999V29.4999L26 29.6999V30.2999C26.9 30.2999 27.1 30.5999 27.1 30.9999V38.4999V39.7999H27.5L28.2 38.9999C28.8 39.3999 29.6 39.6999 30.3 39.6999C32.4 39.6999 33.6 38.0999 33.6 36.0999C33.5 34.1999 32.6 32.7999 30.8 32.7999ZM30.1 38.9999C29.5 38.9999 29 38.6999 28.7 37.9999V34.1999C29.1 33.8999 29.5 33.6999 30 33.6999C31 33.6999 31.6 34.5999 31.6 36.0999C31.6 38.0999 31.2 38.9999 30.1 38.9999ZM41.7 38.4999V29.5999L38.9 29.6999V30.2999C39.7 30.2999 40 30.5999 40 30.9999V38.4999C40 38.7999 39.8 38.9999 39 38.9999V39.5999H42.7V38.9999C41.9 38.9999 41.7 38.7999 41.7 38.4999ZM1.4 34.4999C0.6 34.4999 0 35.1999 0 35.9999C0 36.7999 0.6 37.3999 1.4 37.3999C2.2 37.3999 2.8 36.7999 2.8 35.9999C2.9 35.1999 2.2 34.4999 1.4 34.4999ZM22 32.7999C19.9 32.7999 18.6 34.1999 18.6 36.1999C18.6 38.2999 19.8 39.5999 22 39.5999C24.1 39.5999 25.4 38.1999 25.4 36.0999C25.4 34.0999 24.2 32.7999 22 32.7999ZM22.1 39.0999C21 39.0999 20.5 38.1999 20.5 36.1999C20.5 34.1999 20.9 33.3999 22 33.3999C23.1 33.3999 23.6 34.2999 23.6 36.1999C23.5 38.1999 23.1 39.0999 22.1 39.0999ZM45.3 31.5999C45.9 31.5999 46.3 31.1999 46.3 30.4999C46.3 29.8999 45.9 29.3999 45.3 29.3999C44.7 29.3999 44.2 29.8999 44.2 30.4999C44.3 31.1999 44.7 31.5999 45.3 31.5999ZM36.4 31.5999C37 31.5999 37.4 31.1999 37.4 30.4999C37.4 29.8999 37 29.3999 36.4 29.3999C35.8 29.3999 35.3 29.8999 35.3 30.4999C35.3 31.1999 35.7 31.5999 36.4 31.5999ZM46.2 38.4999V32.8999L43.5 32.9999V33.5999C44.3 33.5999 44.5 33.8999 44.5 34.2999V38.4999C44.5 38.7999 44.3 38.9999 43.5 38.9999V39.5999H47.3V38.9999C46.4 38.9999 46.2 38.7999 46.2 38.4999ZM16.9 38.4999V34.8999C16.9 33.5999 16.3 32.7999 15.2 32.7999C14.3 32.7999 13.4 33.3999 12.7 34.0999C12.5 33.2999 11.9 32.7999 11.1 32.7999C10.2 32.7999 9.4 33.2999 8.7 33.8999V32.7999L6 32.9999V33.5999C6.8 33.5999 7 33.8999 7 34.2999V38.4999C7 38.7999 6.8 38.9999 6 38.9999V39.5999H9.4V38.9999C8.8 38.9999 8.7 38.7999 8.7 38.4999V34.4999C9.1 34.1999 9.4 33.9999 10 33.9999C10.7 33.9999 11.1 34.3999 11.1 35.2999V38.3999C11.1 38.6999 11 38.8999 10.4 38.8999V39.4999H13.6V38.9999C12.9 38.9999 12.8 38.7999 12.8 38.4999V34.9999C12.8 34.8999 12.8 34.7999 12.8 34.5999C13.3 34.2999 13.7 33.9999 14.1 33.9999C14.9 33.9999 15.2 34.3999 15.2 35.2999V38.3999C15.2 38.6999 15.1 38.8999 14.5 38.8999V39.4999H18V38.9999C17.1 38.9999 16.9 38.7999 16.9 38.4999ZM129.6 34.4999C128.8 34.4999 128.2 35.0999 128.2 35.8999C128.2 36.6999 128.8 37.2999 129.6 37.2999C130.4 37.2999 131 36.6999 131 35.8999C131 35.1999 130.4 34.4999 129.6 34.4999ZM51.6 38.6999C51.1 38.6999 50.8 38.2999 50.8 37.5999V33.6999H52.9V32.9999H50.8V30.5999L49.1 31.1999V32.9999L47.9 33.2999V33.8999H49V37.8999C49 39.2999 49.8 39.7999 50.8 39.7999C51.8 39.7999 52.5 39.2999 53 38.2999L52.6 37.9999C52.3 38.3999 52 38.6999 51.6 38.6999ZM101.7 38.6999C101.2 38.6999 100.9 38.2999 100.9 37.5999V33.6999H103V32.9999H100.9V30.5999L99.2 31.1999V32.9999L98 33.1999V33.7999H99.2V37.7999C99.2 39.1999 100 39.6999 101 39.6999C102 39.6999 102.7 39.1999 103.2 38.1999L102.8 37.8999C102.5 38.3999 102.1 38.6999 101.7 38.6999ZM110.5 38.3999V32.8999L107.8 32.9999V33.5999C108.6 33.5999 108.8 33.7999 108.8 34.1999V38.1999C108.4 38.3999 108.1 38.5999 107.5 38.5999C106.7 38.5999 106.3 38.1999 106.3 37.1999V32.9999L103.6 33.0999V33.6999C104.4 33.6999 104.6 33.8999 104.6 34.2999V37.6999C104.6 38.9999 105.3 39.7999 106.5 39.7999C107.4 39.7999 108.2 39.2999 108.8 38.6999V39.5999H111.5V38.9999C110.7 38.8999 110.5 38.7999 110.5 38.3999ZM122.6 38.7999C121.3 38.7999 120.6 37.6999 120.6 36.1999V36.0999H124.9C125 34.2999 124.1 32.6999 122.1 32.6999C120.1 32.6999 118.8 34.0999 118.8 36.1999C118.8 38.1999 120 39.5999 122.1 39.5999C123.5 39.5999 124.4 38.8999 125 37.8999L124.6 37.5999C124 38.3999 123.3 38.7999 122.6 38.7999ZM121.9 33.3999C122.8 33.3999 123.2 34.3999 123.1 35.5999H120.6C120.7 34.0999 121.2 33.3999 121.9 33.3999ZM116.9 32.8999C116.1 32.8999 115.5 33.4999 115 34.0999V32.8999L112.3 32.9999V33.5999C113.1 33.5999 113.3 33.8999 113.3 34.2999V38.4999C113.3 38.7999 113.1 38.9999 112.3 38.9999V39.5999H116.3V38.9999C115.3 38.9999 115 38.7999 115 38.4999V34.5999C115.3 34.2999 115.7 33.8999 116.2 33.8999C116.2 33.9999 116.2 34.0999 116.2 34.1999C116.2 34.6999 116.6 35.0999 117.2 35.0999C117.7 35.0999 118.1 34.5999 118.1 33.9999C118.1 33.3999 117.7 32.8999 116.9 32.8999ZM96.7 38.0999V35.1999C96.7 33.6999 95.9 32.8999 94.2 32.8999C92.4 32.8999 91.3 33.4999 91.3 34.3999C91.3 34.8999 91.6 35.2999 92.2 35.2999C92.8 35.2999 93.2 34.8999 93.2 34.3999C93.2 34.0999 93.1 33.8999 93 33.6999C93.2 33.5999 93.4 33.4999 93.8 33.4999C94.6 33.4999 95 33.8999 95 35.0999V35.6999C94.6 35.8999 93 35.9999 91.9 36.4999C91.3 36.7999 91 37.4999 91 37.9999C91 38.7999 91.6 39.5999 92.9 39.5999C93.7 39.5999 94.5 39.1999 95 38.5999H95.1C95.3 39.2999 95.5 39.5999 96.3 39.5999C96.8 39.5999 97.3 39.3999 97.8 39.1999L97.7 38.7999C96.8 38.8999 96.7 38.7999 96.7 38.0999ZM95 37.9999C94.7 38.3999 94.3 38.6999 93.8 38.6999C93.2 38.6999 92.8 38.2999 92.8 37.6999C92.8 36.7999 93.3 36.4999 94.9 36.2999V37.9999H95ZM68.3 32.7999C67.4 32.7999 66.8 33.0999 66.2 33.5999V29.4999L63.4 29.5999V30.1999C64.3 30.1999 64.5 30.4999 64.5 30.8999V38.3999V39.6999H64.9L65.6 38.8999C66.2 39.2999 67 39.5999 67.7 39.5999C69.8 39.5999 71 37.9999 71 35.9999C70.9 34.1999 70 32.7999 68.3 32.7999ZM67.6 38.9999C67 38.9999 66.5 38.6999 66.2 37.9999V34.1999C66.6 33.8999 67 33.6999 67.5 33.6999C68.5 33.6999 69.1 34.5999 69.1 36.0999C69.1 38.0999 68.6 38.9999 67.6 38.9999ZM57.9 33.4999C58.8 33.5999 58.9 33.9999 58.6 34.7999L57.4 37.6999L56 34.1999C55.8 33.7999 56 33.5999 56.8 33.4999V32.9999H53.1V33.4999C53.7 33.5999 54 33.7999 54.2 34.3999L56.6 39.4999L56.5 39.5999C55.9 41.0999 55.6 41.4999 55.2 41.5999C55.2 41.4999 55.3 41.3999 55.3 41.2999C55.3 40.7999 55 40.3999 54.4 40.3999C53.8 40.3999 53.4 40.8999 53.4 41.3999C53.4 41.9999 53.9 42.4999 54.8 42.4999C55.7 42.4999 56.4 41.9999 57.2 40.1999L59.7 34.5999C60 33.8999 60.4 33.5999 60.9 33.4999V32.9999H58.1V33.4999H57.9ZM76.3 33.4999C77.2 33.5999 77.3 33.9999 77 34.7999L75.8 37.6999L74.4 34.1999C74.2 33.7999 74.4 33.5999 75.2 33.4999V32.9999H71.5V33.4999C72.1 33.5999 72.4 33.7999 72.6 34.3999L75 39.4999L74.9 39.5999C74.3 41.0999 74 41.4999 73.6 41.5999C73.6 41.4999 73.7 41.3999 73.7 41.2999C73.7 40.7999 73.4 40.3999 72.8 40.3999C72.2 40.3999 71.8 40.8999 71.8 41.3999C71.8 41.9999 72.3 42.4999 73.2 42.4999C74.1 42.4999 74.8 41.9999 75.6 40.1999L78.1 34.5999C78.4 33.8999 78.8 33.5999 79.3 33.4999V32.9999H76.5V33.4999H76.3ZM89.2 38.4999V34.8999C89.2 33.5999 88.6 32.7999 87.5 32.7999C86.6 32.7999 85.7 33.2999 85 33.8999V32.7999L82.3 32.9999V33.5999C83.1 33.5999 83.3 33.8999 83.3 34.2999V38.4999C83.3 38.7999 83.1 38.9999 82.3 38.9999V39.5999H85.8V38.9999C85.2 38.9999 85 38.7999 85 38.4999V34.4999C85.4 34.2999 85.8 33.9999 86.4 33.9999C87.1 33.9999 87.5 34.3999 87.5 35.2999V38.3999C87.5 38.6999 87.3 38.8999 86.7 38.8999V39.4999H90.2V38.9999C89.3 38.9999 89.2 38.7999 89.2 38.4999Z" fill="#F2F3F6"/>
</g>
<mask id="mask1_86_1777" style="mask-type:luminance" maskUnits="userSpaceOnUse" x="0" y="0" width="131" height="43">
<path d="M131 0H0V42.5H131V0Z" fill="white"/>
</mask>
<g mask="url(#mask1_86_1777)">
<path d="M105.2 6.20009L103.9 7.60009C106 10.9001 106.3 15.1001 104.3 18.6001H105C107.5 14.6001 107.5 9.90009 105.2 6.20009ZM99.5999 7.00009L100.3 6.30009C96.7999 3.00009 90.8999 3.10009 87.5999 6.50009C85.5999 8.60009 84.5999 11.3001 85.0999 14.0001H85.7999C85.7999 10.4001 88.7999 7.40009 92.5999 7.30009C96.3999 7.20009 99.5999 10.1001 99.6999 13.9001C99.7999 17.7001 96.7999 20.8001 92.8999 20.9001C90.9999 20.9001 89.1999 20.2001 87.8999 19.1001L86.8999 20.1001C82.4999 15.9001 82.2999 9.00009 86.4999 4.70009C89.8999 1.20009 95.0999 0.40009 99.2999 2.40009L99.3999 2.50009L99.8999 1.90009C94.4999 -1.29991 87.4999 -0.39991 82.9999 4.20009C77.6999 9.60009 77.8999 18.3001 83.4999 23.4001L84.4999 22.4001C86.6999 24.4001 89.2999 25.4001 92.2999 25.4001C98.2999 25.2001 103.1 20.3001 103 14.5001C102.9 11.5001 101.6 8.80009 99.5999 7.00009Z" fill="#E42313"/>
</g>
<mask id="mask2_86_1777" style="mask-type:luminance" maskUnits="userSpaceOnUse" x="0" y="0" width="131" height="43">
<path d="M131 0H0V42.5H131V0Z" fill="white"/>
</mask>
<g mask="url(#mask2_86_1777)">
<path d="M30.5 2.3H25.4V22.9H39.8V18.9H30.5V2.3ZM7.9 2.3L0 22.9H4.9C5.8 19.8 9.7 17.5 13.3 17.2L12.6 15.3C11.1 15.1 8.8 15.3 7.5 15.9L10.8 7.2L17.2 22.8H22.1L13.7 2.3H7.9ZM59.1 6.3H65.9V22.9H71.1V6.3H77.9V2.3H59.1V6.3ZM126.5 2.3L120.5 10.1L114.6 2.3H110V22.9H115.2V10.4L120.1 17.1H120.8L125.7 10.4V23H130.9V2.3H126.5ZM46.6 7.6C46.6 5.9 50.4 4.5 56.2 6.6L56.5 2.5C55.6 2.2 53 1.5 51 1.5C46.7 1.5 41.9 3.1 41.9 8.2C41.9 15.9 53.4 13.3 53 17.4C52.9 19 50.4 19.4 48.4 19.4C46.1 19.4 44 18.9 42.6 18.3L42.1 22.7C44 23.3 46.4 23.6 48.4 23.6C53.1 23.6 57.7 22.1 57.8 16.6C57.8 9.3 46.6 11.4 46.6 7.6Z" fill="#F2F3F6"/>
</g>
</g>
<defs>
<clipPath id="clip0_86_1777">
<rect width="131" height="43" fill="white"/>
</clipPath>
</defs>
</svg>
