<svg width="317" height="87" viewBox="0 0 317 87" fill="none" xmlns="http://www.w3.org/2000/svg">
<path fill-rule="evenodd" clip-rule="evenodd" d="M0 78.245H13.1773V53.5376H41.179L41.2028 53.5366C50.6667 53.1251 60.5334 52.6961 60.9449 31.301C61.1111 22.655 58.9683 10.2174 44.4733 9.88796H14.0009C2.88255 9.88792 0 10.7114 0 22.2416V78.245ZM37.8847 43.2429H12.7655V26.3595C12.3756 19.7306 15.3088 19.748 18.768 19.7685C18.9619 19.7697 19.1574 19.7709 19.3541 19.7709H34.5903H40.7672C48.1794 20.1826 48.1794 29.6538 48.1794 31.7127C48.1794 34.1834 48.5912 37.066 45.7086 40.7721C43.787 43.2429 40.3554 43.2429 37.8847 43.2429Z" fill="white"/>
<path d="M67.1217 78.245H78.24V46.9489C78.24 44.89 78.8989 40.1956 81.5343 37.8895C84.8286 35.007 88.5348 35.007 95.1234 35.007V26.3594C89.3583 26.3594 79.0636 25.0469 72.8867 30.0655C67.6158 34.3482 66.8472 43.1055 67.1217 46.9489V78.245Z" fill="white"/>
<path d="M161.421 78.245V35.007H154.421V25.9477H161.421C161.284 22.6533 162.41 15.2411 168.01 11.9468C173.61 8.6525 182.972 8.37797 186.952 8.6525V17.3C183.658 17.0255 176.658 17.053 175.011 19.359C174.324 20.0453 172.952 22.3239 172.952 25.9477H186.952V35.007H172.952L172.54 78.245H161.421Z" fill="white"/>
<path d="M191.894 78.245H203.012V25.9477H191.894V78.245Z" fill="white"/>
<path d="M191.894 17.3V8.6525H203.012V17.3H191.894Z" fill="white"/>
<path fill-rule="evenodd" clip-rule="evenodd" d="M150.715 45.3015C150.715 34.3851 141.865 25.5356 130.949 25.5356H116.124C105.208 25.5356 96.3585 34.3851 96.3585 45.3015V58.4788C96.3585 69.3952 105.208 78.2447 116.124 78.2447H130.949C141.865 78.2447 150.715 69.3952 150.715 58.4788V45.3015ZM126.831 33.7714H120.242C113.42 33.7714 107.889 39.3024 107.889 46.1251V57.6552C107.889 64.478 113.42 70.0089 120.242 70.0089H126.831C133.654 70.0089 139.185 64.478 139.185 57.6552V46.1251C139.185 39.3024 133.654 33.7714 126.831 33.7714Z" fill="white"/>
<path d="M211.582 10.8592C211.582 8.69085 213.263 6.89402 215.427 6.75035L312.609 0.296832C314.986 0.139024 317 2.02405 317 4.40568V77.8235C317 80.256 314.903 82.1583 312.482 81.9219L215.299 72.4315C213.19 72.2255 211.582 70.4523 211.582 68.3331V10.8592Z" fill="white"/>
<path d="M217.347 11.7907L311.235 6.18213V76.5981L217.347 67.7446V11.7907Z" fill="#AC262F"/>
<path fill-rule="evenodd" clip-rule="evenodd" d="M234.878 63.3863C235.991 63.2113 240.752 62.349 242.878 60.127C247.383 55.4177 249.08 47.3856 249.055 39.5375C249.029 31.6024 247.228 23.2934 242.466 19.3598C238.329 15.9423 234.536 16.0194 233.909 16.0584L233.874 16.0606C233.825 16.0638 233.776 16.0669 233.726 16.0686L223.853 16.3976C222.522 16.442 221.465 17.5345 221.465 18.867V60.2765C221.465 61.5812 222.479 62.661 223.781 62.7424L234.402 63.4063C234.562 63.4163 234.72 63.4112 234.878 63.3863ZM233.726 55.5972C235.373 55.5972 237.157 54.5467 238.76 52.7147C241.643 49.4204 241.643 43.2435 241.643 39.9492C241.643 35.4195 241.04 28.6154 237.629 25.9484C234.384 23.4112 234.23 23.8894 231.348 23.6978H228.053V55.5972H233.726Z" fill="white"/>
<path d="M277.057 67.127C278.566 67.5388 281.669 67.7035 281.998 65.0681L293.94 21.8302V28.007V28.4188V66.835C293.94 67.6965 294.604 68.4125 295.463 68.4774L301.228 68.9134C302.184 68.9857 302.999 68.2295 302.999 67.2709V67.127V28.4188V16.0651C302.67 14.0886 300.94 13.3199 300.117 13.1826H293.116C290.481 13.1826 288.724 15.3788 288.175 16.4769L277.88 51.8908L268.409 18.5359C267.585 15.2416 265.938 14.8298 263.879 14.8298H257.702C256.055 14.8298 255.232 16.4769 255.232 18.1241V22.6538V23.0656V63.8327C255.232 64.7424 255.969 65.4799 256.879 65.4799H260.997C261.906 65.4799 262.232 64.7424 262.232 63.8327V23.0656L272.939 64.2445C272.939 66.5505 275.684 67.127 277.057 67.127Z" fill="white"/>
<path d="M263.879 79.4807L252.349 78.2454V83.1868C252.349 85.4929 254.718 85.4757 257.291 86.0694C263.056 87.3998 263.879 86.0694 263.879 84.4222V79.4807Z" fill="white"/>
</svg>
