<svg width="128" height="28" viewBox="0 0 128 28" fill="none" xmlns="http://www.w3.org/2000/svg">
<path d="M30.8417 14.9434V18.8475H38.1937V22.27H27.0643V4.52381H37.9655V7.94629H30.8417V11.5716H37.5345V14.9434H30.8417Z" fill="white" fill-opacity="0.5"/>
<path d="M51.7412 14.487V18.0109C51.7412 19.1518 52.0961 19.4813 53.313 19.3799V22.27C51.3609 22.6756 49.3074 22.3461 48.8765 20.6475C48.0906 21.8137 46.5441 22.5235 44.6934 22.5235C42.0315 22.5235 40.3329 20.9771 40.3329 18.6954C40.3329 16.0335 42.4118 14.7406 45.2005 14.7406C46.2399 14.7406 47.2286 14.8673 48.2173 15.1969V14.6138C48.2173 13.1434 47.0258 12.6617 45.4033 12.6617C44.2624 12.6617 42.9695 12.9406 41.7526 13.4983L41.0681 10.8364C42.7667 10.1265 44.4399 9.79697 45.9103 9.79697C49.1807 9.79697 51.7412 11.2927 51.7412 14.487ZM45.53 19.7856C47.0258 19.7856 48.2173 18.8475 48.2173 17.4785V17.3011C47.4314 17.0729 46.6709 16.9715 45.9103 16.9715C44.6174 16.9715 43.7808 17.4025 43.7808 18.3912C43.7808 19.2785 44.3892 19.7856 45.53 19.7856Z" fill="white" fill-opacity="0.5"/>
<path d="M60.3935 22.5235C56.9203 22.5235 55.0443 21.1799 54.8161 18.4419H58.34C58.5175 19.4053 59.278 19.8109 60.3428 19.8109C61.5343 19.8109 62.3202 19.4813 62.3202 18.7461C62.3202 18.0109 61.6357 17.7321 60.216 17.5292C57.909 17.2504 55.0696 16.5405 55.0696 13.6251C55.0696 11.1153 57.3259 9.79697 60.3174 9.79697C63.1822 9.79697 65.261 11.1406 65.5906 13.7518H62.2949C62.1174 12.9406 61.4836 12.5096 60.3935 12.5096C59.1005 12.5096 58.5935 12.9659 58.5935 13.5237C58.5935 14.2842 59.3034 14.5124 60.647 14.7152C63.3343 15.1208 65.8948 15.856 65.8948 18.6447C65.8948 21.0785 63.7399 22.5235 60.3935 22.5235Z" fill="white" fill-opacity="0.5"/>
<path d="M74.8687 14.5377L76.5926 10.0505H80.2686V10.2279L75.2236 23.1573C73.88 26.6052 72.6378 27.7206 69.8744 27.7206C68.9871 27.7206 68.1505 27.4925 67.4407 27.2136L68.0998 24.4503C68.6068 24.6277 69.0632 24.7291 69.5195 24.7291C70.6096 24.7291 71.1167 24.2728 71.7251 22.701L72.0293 21.9404L66.7308 10.2279V10.0505H70.5082L72.3843 14.5124L73.6518 17.9095L74.8687 14.5377Z" fill="white" fill-opacity="0.5"/>
<path d="M86.5709 14.9434V18.8475H93.9229V22.27H82.7935V4.52381H93.6948V7.94629L86.5709 7.94629V11.5716H93.2638V14.9434H86.5709Z" fill="white" fill-opacity="0.5"/>
<path d="M108.556 10.5322V4.52381H112.308V22.3207H110.863L101.002 11.9012L101.103 16.1603V22.27H97.351V4.44775H98.796L108.658 14.7152L108.556 10.5322Z" fill="white" fill-opacity="0.5"/>
<path d="M114.792 4.52381H128V7.94629H123.31V22.27H119.507V7.94629H114.792V4.52381Z" fill="white" fill-opacity="0.5"/>
<path d="M20.0271 15.2268C20.1764 15.2189 20.3399 15.2383 20.5037 15.3025C20.8746 15.446 21.1798 15.7721 21.2793 16.1329C21.3802 16.4916 21.2723 16.8054 21.032 16.9978L18.0126 19.4188C17.7819 19.5834 17.4603 19.6285 17.1323 19.5077C16.7842 19.3804 16.5206 19.0845 16.4336 18.7476C16.347 18.4161 16.4468 18.0821 16.6799 17.8964L20.0271 15.2268ZM19.052 12.6426C19.4854 12.8031 19.8326 13.1773 19.9435 13.5965C20.0551 14.017 19.9266 14.4054 19.6344 14.6408L16.2785 17.3226C15.9841 17.557 15.552 17.619 15.1197 17.4561C14.68 17.2924 14.3586 16.9478 14.2463 16.522C14.1398 16.1284 14.2304 15.7036 14.5071 15.4832L17.89 12.7772C18.214 12.5197 18.7268 12.5225 19.052 12.6426ZM16.8283 10.2666C17.2606 10.4295 17.6079 10.7995 17.7199 11.2205C17.8316 11.6412 17.7022 12.0279 17.4078 12.2623L14.0517 14.9438C13.7595 15.1791 13.3272 15.2408 12.8941 15.0764C12.4547 14.9133 12.1343 14.5705 12.0223 14.1454C11.9089 13.7262 12.037 13.3416 12.3313 13.1008L15.6675 10.3987C15.9758 10.1487 16.4792 10.1492 16.8283 10.2666ZM2.75326 7.77008C3.25997 7.51314 4.24198 7.4887 4.79471 7.77914C6.32129 8.58201 7.14509 9.9006 8.47646 11.9689C8.59407 12.1488 8.86007 12.1888 9.03297 12.0504L18.4007 4.52367C18.7156 4.27064 19.0044 4.20437 19.2611 4.22662C19.5176 4.24932 19.7563 4.37151 19.9285 4.55794C20.2755 4.93036 20.3749 5.49053 19.7709 6.00357L11.8473 12.5913C11.3341 13.0066 11.1333 13.6676 11.3045 14.3078C11.4738 14.9429 11.9599 15.4636 12.6148 15.7102C12.9092 15.8207 13.2209 15.8621 13.519 15.8409C13.4541 16.112 13.4527 16.4019 13.5294 16.6871C13.6979 17.3206 14.1848 17.8429 14.8417 18.0885C15.1233 18.1942 15.4176 18.2359 15.7034 18.2201C15.656 18.4418 15.6573 18.676 15.7162 18.9076C15.8591 19.4565 16.2905 19.9329 16.8585 20.1432C16.9186 20.165 16.9804 20.1808 17.0423 20.1966L16.3081 20.7835C14.9576 21.8693 14.2322 22.3956 13.6996 22.6399C13.1672 22.8845 12.7956 22.8858 11.9769 22.9017C10.3179 22.9316 8.77206 21.9898 7.57606 20.5956C6.37953 19.2035 5.56056 17.376 5.35068 15.785L4.89644 12.3506C4.72742 11.077 4.03438 10.0266 2.87509 9.002C2.45368 8.62965 2.362 8.35723 2.37632 8.19728C2.38882 8.03776 2.49852 7.89823 2.75326 7.77008ZM2.39859 7.17079C2.00476 7.37072 1.67431 7.70636 1.63782 8.1455C1.60328 8.5868 1.85554 9.03911 2.36543 9.49208C3.4518 10.4548 4.01953 11.3349 4.16633 12.435L4.61682 15.8669C4.84629 17.6061 5.71248 19.5221 6.99959 21.0214C8.28884 22.5217 10.0235 23.6193 11.9889 23.5816C12.8055 23.5662 13.3613 23.5535 14.0263 23.2498C14.6917 22.946 15.4314 22.3899 16.7905 21.3002L21.5172 17.5121C22.6685 16.5901 21.7814 14.6834 20.5608 14.6023C21.2486 13.0491 19.5779 11.6865 18.4443 11.8893C18.8301 10.7884 17.7367 9.64923 16.6908 9.53932L20.2711 6.50513C21.1308 5.77689 21.0614 4.73322 20.4882 4.11501C20.2031 3.80752 19.7972 3.58967 19.3339 3.54696C18.8707 3.50455 18.3633 3.65098 17.9198 4.00742L8.8729 11.2777C7.67981 9.41934 6.77768 8.03714 5.16134 7.1879C4.31533 6.74299 3.18621 6.77474 2.39859 7.17079Z" fill="white" fill-opacity="0.5"/>
<path d="M10.1471 0.991558C9.98048 1.07144 9.88346 1.23312 9.89686 1.4056L10.1326 4.99847C10.147 5.23459 10.3661 5.41363 10.6213 5.40086C10.8772 5.38734 11.0721 5.18321 11.0581 4.94786L10.8211 1.35268C10.8059 1.04242 10.4478 0.8492 10.1471 0.991558Z" fill="#BCBF33"/>
<path d="M5.8643 2.29464C5.63639 2.39961 5.54348 2.65629 5.65722 2.86737L7.30581 6.01796C7.40549 6.24435 7.69429 6.34565 7.93334 6.24137C8.17202 6.13442 8.26531 5.86475 8.13965 5.64953L6.48985 2.49663C6.38033 2.27892 6.09698 2.188 5.8643 2.29464Z" fill="#5491E7"/>
<path d="M14.5764 1.84248C14.4705 1.89515 14.3889 1.98058 14.3514 2.08715L13.1245 5.38883C13.0407 5.61199 13.1685 5.85571 13.4115 5.93241C13.6529 6.00986 13.9162 5.88905 13.9989 5.66397L15.2272 2.36497C15.3646 1.99913 14.9493 1.66636 14.5764 1.84248Z" fill="#F91818"/>
</svg>
