<svg width="70" height="61" viewBox="0 0 70 61" fill="none" xmlns="http://www.w3.org/2000/svg">
<g clip-path="url(#clip0_1080_7320)">
<path d="M1 27.0691C17.5339 20.6669 35.0093 31.7809 35.0093 31.7809C35.0093 31.7809 52.4836 20.6715 69.0186 27.0691M1.00157 21.9644L10.585 11.7916C13.6797 11.6884 16.7749 11.9783 19.7969 12.6546C23.8984 13.5974 27.5541 15.9192 30.1555 19.2339C33.1268 22.9929 34.6875 26.1383 34.9123 26.6061C33.4937 25.7396 16.8199 15.8402 1.00157 21.9644ZM68.8205 21.9644L59.2371 11.7916C56.1428 11.6883 53.0479 11.9783 50.0263 12.6546C45.9244 13.597 42.2682 15.919 39.6665 19.2339C36.6953 22.9975 35.1323 26.1429 34.9098 26.6164C36.3283 25.7396 53.0033 15.8402 68.8205 21.9644ZM46.6309 3L60.2865 5.61101C43.0576 9.38962 35.0108 26.6715 35.0108 26.6715C34.2345 10.7216 46.6309 3 46.6309 3ZM23.3237 3L9.66587 5.61101C26.8947 9.38962 34.9426 26.6715 34.9426 26.6715C35.719 10.7216 23.3237 3 23.3237 3Z" stroke="white" stroke-width="2" stroke-linecap="round" stroke-linejoin="round"/>
<path d="M9.41335 46.9091V60H7.43821V46.9091H9.41335ZM14.0898 60V46.9091H18.8838C19.8128 46.9091 20.582 47.0625 21.1913 47.3693C21.8007 47.6719 22.2567 48.0831 22.5592 48.603C22.8618 49.1186 23.0131 49.7003 23.0131 50.348C23.0131 50.8935 22.9129 51.3537 22.7126 51.7287C22.5124 52.0994 22.2439 52.3977 21.9072 52.6236C21.5749 52.8452 21.2084 53.0071 20.8078 53.1094V53.2372C21.2425 53.2585 21.6665 53.3991 22.0798 53.6591C22.4974 53.9148 22.8426 54.2791 23.1153 54.7521C23.3881 55.2251 23.5244 55.8004 23.5244 56.478C23.5244 57.147 23.3668 57.7479 23.0514 58.2805C22.7403 58.8089 22.2588 59.2287 21.6068 59.5398C20.9548 59.8466 20.1217 60 19.1075 60H14.0898ZM16.0649 58.3061H18.9158C19.8618 58.3061 20.5393 58.1229 20.9484 57.7564C21.3575 57.3899 21.5621 56.9318 21.5621 56.3821C21.5621 55.9687 21.4577 55.5895 21.2489 55.2443C21.0401 54.8991 20.7418 54.6243 20.354 54.4197C19.9705 54.2152 19.5145 54.1129 18.9861 54.1129H16.0649V58.3061ZM16.0649 52.5724H18.7112C19.1544 52.5724 19.5528 52.4872 19.9065 52.3168C20.2645 52.1463 20.5479 51.9077 20.7567 51.6009C20.9697 51.2898 21.0763 50.9233 21.0763 50.5014C21.0763 49.9602 20.8866 49.5064 20.5074 49.1399C20.1281 48.7734 19.5464 48.5902 18.7624 48.5902H16.0649V52.5724ZM28.7729 60H26.6763L31.3873 46.9091H33.6692L38.3802 60H36.2836L32.5826 49.2869H32.4803L28.7729 60ZM29.1245 54.8736H35.9256V56.5355H29.1245V54.8736ZM42.0706 60V46.9091H44.0458V58.2997H49.9776V60H42.0706ZM55.8046 60H53.708L58.4189 46.9091H60.7009L65.4118 60H63.3152L59.6142 49.2869H59.512L55.8046 60ZM56.1561 54.8736H62.9573V56.5355H56.1561V54.8736Z" fill="white"/>
</g>
<defs>
<clipPath id="clip0_1080_7320">
<rect width="70" height="61" fill="white" transform="matrix(-1 0 0 1 70 0)"/>
</clipPath>
</defs>
</svg>
