<svg width="30" height="30" viewBox="0 0 30 30" fill="none" xmlns="http://www.w3.org/2000/svg">
<g clip-path="url(#clip0_22_1764)">
<path d="M15.03 29.67C7.01998 29.67 0.47998 23.13 0.47998 15.12C0.47998 7.11001 7.01998 0.570007 15.03 0.570007C17.7 0.570007 20.28 1.29001 22.56 2.67001C22.77 2.79001 22.83 3.09001 22.71 3.30001C22.59 3.51001 22.29 3.57001 22.08 3.45001C19.95 2.16001 17.52 1.50001 15.03 1.50001C7.49998 1.47001 1.37998 7.59001 1.37998 15.12C1.37998 22.65 7.49998 28.77 15.03 28.77C22.56 28.77 28.68 22.65 28.68 15.12C28.68 14.16 28.59 13.2 28.38 12.27C28.32 12.03 28.47 11.79 28.74 11.73C28.98 11.67 29.22 11.82 29.28 12.09C29.49 13.08 29.61 14.1 29.61 15.12C29.58 23.13 23.07 29.67 15.03 29.67Z" fill="black"/>
<path d="M15.0302 19.17C14.9102 19.17 14.7902 19.11 14.7002 19.05L7.44018 11.76C7.26018 11.58 7.26018 11.31 7.44018 11.13C7.62018 10.95 7.89018 10.95 8.07018 11.13L15.0302 18.09L29.0702 3.68999C29.2502 3.50999 29.5202 3.50999 29.7002 3.68999C29.8802 3.86999 29.8802 4.13999 29.7002 4.31999L15.3602 19.02C15.2702 19.11 15.1502 19.17 15.0302 19.17Z" fill="black"/>
</g>
<defs>
<clipPath id="clip0_22_1764">
<rect width="30" height="30" fill="white"/>
</clipPath>
</defs>
</svg>
