<svg width="64" height="64" viewBox="0 0 64 64" fill="none" xmlns="http://www.w3.org/2000/svg">
<path d="M60.7412 18.3531C60.7292 18.2699 60.673 17.9902 60.4519 17.8874L34.9029 5.98862C34.1886 5.65587 33.1306 5.477 32.4436 5.80112L6.4246 18.0711C6.40885 18.0785 6.34785 18.1721 6.34948 18.355C6.35148 18.5765 6.4536 18.8456 6.6446 18.9314L9.87823 20.3852C9.72823 23.8586 9.95498 30.0327 9.94461 33.4939C8.30198 33.8374 7.06423 35.2966 7.06423 37.0397C7.06423 38.5874 8.0401 39.9109 9.40861 40.4287C9.41073 40.5407 9.4121 40.6531 9.41573 40.7641C9.4096 40.8049 9.4061 40.8466 9.40535 40.889C9.3136 46.4301 7.13498 51.0924 3.71973 53.0565C3.1351 53.3929 3.08635 54.2202 3.62885 54.6224L8.43573 58.1854C8.80136 58.4562 9.30211 58.4234 9.62973 58.1212C13.5226 54.5301 12.7984 50.5974 12.0316 46.4336C11.6931 44.596 11.3447 42.7035 11.2866 40.6116C12.9995 40.3249 14.3094 38.8326 14.3094 37.0396C14.3094 35.4375 13.2636 34.0759 11.8191 33.5992C11.8331 30.3437 11.6334 24.7157 11.7255 21.2157C33.5487 31.467 32.1484 30.8091 32.2074 30.8369C33.0366 31.2234 34.0705 31.3022 34.6631 31.0231L60.6829 18.7529C60.7089 18.7289 60.7729 18.5726 60.7412 18.3531Z" fill="#1195D1"/>
<path d="M31.4128 32.5353L16.9781 25.7521V36.0724C16.9781 40.2891 24.6971 43.8516 33.834 43.8516C42.9712 43.8516 50.6906 40.2891 50.6906 36.0724V25.5383L35.4626 32.7193C34.2542 33.2886 32.6321 33.1036 31.4128 32.5353Z" fill="#1195D1"/>
</svg>
