<svg width="48" height="48" viewBox="0 0 48 48" fill="none" xmlns="http://www.w3.org/2000/svg">
<g clip-path="url(#clip0_346_1012)">
<path d="M24 8C21.794 8 20 6.206 20 4C20 1.794 21.794 0 24 0C26.206 0 28 1.794 28 4C28 6.206 26.206 8 24 8Z" fill="white"/>
<path d="M30.5 16H17.5C16.672 16 16 15.328 16 14.5C16 12.018 18.02 10 20.5 10H27.5C29.98 10 32 12.018 32 14.5C32 15.328 31.328 16 30.5 16Z" fill="white"/>
<path d="M40 40C41.6569 40 43 38.6569 43 37C43 35.3431 41.6569 34 40 34C38.3431 34 37 35.3431 37 37C37 38.6569 38.3431 40 40 40Z" fill="white"/>
<path d="M44.5 48H35.5C34.672 48 34 47.328 34 46.5C34 44.018 36.02 42 38.5 42H41.5C43.98 42 46 44.018 46 46.5C46 47.328 45.328 48 44.5 48Z" fill="white"/>
<path d="M24 40C25.6569 40 27 38.6569 27 37C27 35.3431 25.6569 34 24 34C22.3431 34 21 35.3431 21 37C21 38.6569 22.3431 40 24 40Z" fill="white"/>
<path d="M28.5 48H19.5C18.672 48 18 47.328 18 46.5C18 44.018 20.02 42 22.5 42H25.5C27.98 42 30 44.018 30 46.5C30 47.328 29.328 48 28.5 48Z" fill="white"/>
<path d="M8 40C9.65685 40 11 38.6569 11 37C11 35.3431 9.65685 34 8 34C6.34315 34 5 35.3431 5 37C5 38.6569 6.34315 40 8 40Z" fill="white"/>
<path d="M12.5 48H3.5C2.672 48 2 47.328 2 46.5C2 44.018 4.02 42 6.5 42H9.5C11.98 42 14 44.018 14 46.5C14 47.328 13.328 48 12.5 48Z" fill="white"/>
<path d="M36 18H12C10.894 18 10 18.896 10 20C10 21.104 10.894 22 12 22H13.21L14.52 34.22C14.658 35.594 15.726 36 17.102 36C17.592 32.616 20.484 30 24 30C27.516 30 30.408 32.616 30.898 36C32.274 36 33.342 35.594 33.48 34.22L34.79 22H36C37.106 22 38 21.104 38 20C38 18.896 37.106 18 36 18Z" fill="white"/>
</g>
<defs>
<clipPath id="clip0_346_1012">
<rect width="48" height="48" fill="white"/>
</clipPath>
</defs>
</svg>
