<svg width="48" height="48" viewBox="0 0 48 48" fill="none" xmlns="http://www.w3.org/2000/svg">
<path d="M26.265 27.03H25.38V26.145C25.38 25.38 24.75 24.75 23.985 24.75C23.22 24.75 22.59 25.38 22.59 26.145V27.03H21.705C20.94 27.03 20.31 27.66 20.31 28.425C20.31 29.19 20.94 29.82 21.705 29.82H22.59V30.705C22.59 31.47 23.22 32.1 23.985 32.1C24.75 32.1 25.38 31.47 25.38 30.705V29.82H26.265C27.03 29.82 27.66 29.19 27.66 28.425C27.66 27.66 27.03 27.03 26.265 27.03ZM26.265 27.03H25.38V26.145C25.38 25.38 24.75 24.75 23.985 24.75C23.22 24.75 22.59 25.38 22.59 26.145V27.03H21.705C20.94 27.03 20.31 27.66 20.31 28.425C20.31 29.19 20.94 29.82 21.705 29.82H22.59V30.705C22.59 31.47 23.22 32.1 23.985 32.1C24.75 32.1 25.38 31.47 25.38 30.705V29.82H26.265C27.03 29.82 27.66 29.19 27.66 28.425C27.66 27.66 27.03 27.03 26.265 27.03ZM26.265 27.03H25.38V26.145C25.38 25.38 24.75 24.75 23.985 24.75C23.22 24.75 22.59 25.38 22.59 26.145V27.03H21.705C20.94 27.03 20.31 27.66 20.31 28.425C20.31 29.19 20.94 29.82 21.705 29.82H22.59V30.705C22.59 31.47 23.22 32.1 23.985 32.1C24.75 32.1 25.38 31.47 25.38 30.705V29.82H26.265C27.03 29.82 27.66 29.19 27.66 28.425C27.66 27.66 27.03 27.03 26.265 27.03ZM26.265 27.03H25.38V26.145C25.38 25.38 24.75 24.75 23.985 24.75C23.22 24.75 22.59 25.38 22.59 26.145V27.03H21.705C20.94 27.03 20.31 27.66 20.31 28.425C20.31 29.19 20.94 29.82 21.705 29.82H22.59V30.705C22.59 31.47 23.22 32.1 23.985 32.1C24.75 32.1 25.38 31.47 25.38 30.705V29.82H26.265C27.03 29.82 27.66 29.19 27.66 28.425C27.66 27.66 27.03 27.03 26.265 27.03ZM26.265 27.03H25.38V26.145C25.38 25.38 24.75 24.75 23.985 24.75C23.22 24.75 22.59 25.38 22.59 26.145V27.03H21.705C20.94 27.03 20.31 27.66 20.31 28.425C20.31 29.19 20.94 29.82 21.705 29.82H22.59V30.705C22.59 31.47 23.22 32.1 23.985 32.1C24.75 32.1 25.38 31.47 25.38 30.705V29.82H26.265C27.03 29.82 27.66 29.19 27.66 28.425C27.66 27.66 27.03 27.03 26.265 27.03ZM26.265 27.03H25.38V26.145C25.38 25.38 24.75 24.75 23.985 24.75C23.22 24.75 22.59 25.38 22.59 26.145V27.03H21.705C20.94 27.03 20.31 27.66 20.31 28.425C20.31 29.19 20.94 29.82 21.705 29.82H22.59V30.705C22.59 31.47 23.22 32.1 23.985 32.1C24.75 32.1 25.38 31.47 25.38 30.705V29.82H26.265C27.03 29.82 27.66 29.19 27.66 28.425C27.66 27.66 27.03 27.03 26.265 27.03ZM26.265 27.03H25.38V26.145C25.38 25.38 24.75 24.75 23.985 24.75C23.22 24.75 22.59 25.38 22.59 26.145V27.03H21.705C20.94 27.03 20.31 27.66 20.31 28.425C20.31 29.19 20.94 29.82 21.705 29.82H22.59V30.705C22.59 31.47 23.22 32.1 23.985 32.1C24.75 32.1 25.38 31.47 25.38 30.705V29.82H26.265C27.03 29.82 27.66 29.19 27.66 28.425C27.66 27.66 27.03 27.03 26.265 27.03ZM26.265 27.03H25.38V26.145C25.38 25.38 24.75 24.75 23.985 24.75C23.22 24.75 22.59 25.38 22.59 26.145V27.03H21.705C20.94 27.03 20.31 27.66 20.31 28.425C20.31 29.19 20.94 29.82 21.705 29.82H22.59V30.705C22.59 31.47 23.22 32.1 23.985 32.1C24.75 32.1 25.38 31.47 25.38 30.705V29.82H26.265C27.03 29.82 27.66 29.19 27.66 28.425C27.66 27.66 27.03 27.03 26.265 27.03ZM26.265 27.03H25.38V26.145C25.38 25.38 24.75 24.75 23.985 24.75C23.22 24.75 22.59 25.38 22.59 26.145V27.03H21.705C20.94 27.03 20.31 27.66 20.31 28.425C20.31 29.19 20.94 29.82 21.705 29.82H22.59V30.705C22.59 31.47 23.22 32.1 23.985 32.1C24.75 32.1 25.38 31.47 25.38 30.705V29.82H26.265C27.03 29.82 27.66 29.19 27.66 28.425C27.66 27.66 27.03 27.03 26.265 27.03ZM26.265 27.03H25.38V26.145C25.38 25.38 24.75 24.75 23.985 24.75C23.22 24.75 22.59 25.38 22.59 26.145V27.03H21.705C20.94 27.03 20.31 27.66 20.31 28.425C20.31 29.19 20.94 29.82 21.705 29.82H22.59V30.705C22.59 31.47 23.22 32.1 23.985 32.1C24.75 32.1 25.38 31.47 25.38 30.705V29.82H26.265C27.03 29.82 27.66 29.19 27.66 28.425C27.66 27.66 27.03 27.03 26.265 27.03ZM26.265 27.03H25.38V26.145C25.38 25.38 24.75 24.75 23.985 24.75C23.22 24.75 22.59 25.38 22.59 26.145V27.03H21.705C20.94 27.03 20.31 27.66 20.31 28.425C20.31 29.19 20.94 29.82 21.705 29.82H22.59V30.705C22.59 31.47 23.22 32.1 23.985 32.1C24.75 32.1 25.38 31.47 25.38 30.705V29.82H26.265C27.03 29.82 27.66 29.19 27.66 28.425C27.66 27.66 27.03 27.03 26.265 27.03ZM39.375 14.535H33.45C33.45 9.66 29.46 5.685 24.585 5.685H23.385C18.51 5.685 14.52 9.66 14.52 14.535V14.55H8.625C6.36 14.535 4.5 16.395 4.5 18.66V38.19C4.5 40.47 6.36 42.315 8.625 42.315H39.375C41.64 42.315 43.5 40.47 43.5 38.19V18.66C43.5 16.395 41.64 14.535 39.375 14.535ZM24 34.425C20.7 34.425 18.015 31.74 18.015 28.44C18.015 25.14 20.7 22.455 24 22.455C27.3 22.455 29.985 25.14 29.985 28.44C29.985 31.74 27.3 34.425 24 34.425ZM17.325 14.535C17.325 11.175 20.055 8.46 23.4 8.46H24.6C27.945 8.46 30.675 11.175 30.675 14.52L17.325 14.535Z" fill="#1195D1"/>
</svg>
