<svg width="40" height="41" viewBox="0 0 40 41" fill="none" xmlns="http://www.w3.org/2000/svg">
<path fill-rule="evenodd" clip-rule="evenodd" d="M18.2695 0.499878H21.7277V13.5808H18.2695V0.499878Z" fill="#0D6688"/>
<path fill-rule="evenodd" clip-rule="evenodd" d="M18.2694 27.4189H21.7276V40.5H18.2694V27.4189Z" fill="#0D6688"/>
<path fill-rule="evenodd" clip-rule="evenodd" d="M13.7029 5.25674H17.1611V18.3377H13.7029V5.25674Z" fill="#0D6688"/>
<path fill-rule="evenodd" clip-rule="evenodd" d="M22.8379 5.25671H26.2961V18.3377H22.8379V5.25671Z" fill="#0D6688"/>
<path fill-rule="evenodd" clip-rule="evenodd" d="M13.7029 22.662H17.1611V35.7431H13.7029V22.662Z" fill="#0D6688"/>
<path fill-rule="evenodd" clip-rule="evenodd" d="M22.8396 22.662H26.2978V35.7431H22.8396V22.662Z" fill="#0D6688"/>
<path fill-rule="evenodd" clip-rule="evenodd" d="M27.4062 9.55322H30.8644V17.3642H27.4062V9.55322Z" fill="#0D6688"/>
<path fill-rule="evenodd" clip-rule="evenodd" d="M27.406 18.3376H30.8642V30.4729H27.406V18.3376Z" fill="#0D6688"/>
<path fill-rule="evenodd" clip-rule="evenodd" d="M9.13672 9.55322H12.5949V17.3642H9.13672V9.55322Z" fill="#0D6688"/>
<path fill-rule="evenodd" clip-rule="evenodd" d="M9.13696 18.3376H12.5952V30.4729H9.13696V18.3376Z" fill="#0D6688"/>
<path fill-rule="evenodd" clip-rule="evenodd" d="M31.9728 13.5809H35.431V26.662H31.9728V13.5809Z" fill="#0D6688"/>
<path fill-rule="evenodd" clip-rule="evenodd" d="M4.56836 13.5809H8.02654V26.6621H4.56836V13.5809Z" fill="#0D6688"/>
<path fill-rule="evenodd" clip-rule="evenodd" d="M36.541 18.3376H39.9992V21.9052H36.541V18.3376Z" fill="#0D6688"/>
<path fill-rule="evenodd" clip-rule="evenodd" d="M0 18.3376H3.4582V21.9052H0V18.3376Z" fill="#0D6688"/>
<path fill-rule="evenodd" clip-rule="evenodd" d="M18.2695 14.7704H21.7277V18.3378H18.2695V14.7704Z" fill="#373435"/>
<path fill-rule="evenodd" clip-rule="evenodd" d="M18.2695 22.6215H21.7277V26.189H18.2695V22.6215Z" fill="#373435"/>
<path fill-rule="evenodd" clip-rule="evenodd" d="M22.8379 19.0121H26.2961V21.9874H22.8379V19.0121Z" fill="#373435"/>
<path fill-rule="evenodd" clip-rule="evenodd" d="M13.7029 19.0121H17.1611V21.9874H13.7029V19.0121Z" fill="#373435"/>
</svg>
