<svg width="64" height="64" viewBox="0 0 64 64" fill="none" xmlns="http://www.w3.org/2000/svg">
<path d="M35.02 36.04H33.84V34.86C33.84 33.84 33 33 31.98 33C30.96 33 30.12 33.84 30.12 34.86V36.04H28.94C27.92 36.04 27.08 36.88 27.08 37.9C27.08 38.92 27.92 39.76 28.94 39.76H30.12V40.94C30.12 41.96 30.96 42.8 31.98 42.8C33 42.8 33.84 41.96 33.84 40.94V39.76H35.02C36.04 39.76 36.88 38.92 36.88 37.9C36.88 36.88 36.04 36.04 35.02 36.04ZM35.02 36.04H33.84V34.86C33.84 33.84 33 33 31.98 33C30.96 33 30.12 33.84 30.12 34.86V36.04H28.94C27.92 36.04 27.08 36.88 27.08 37.9C27.08 38.92 27.92 39.76 28.94 39.76H30.12V40.94C30.12 41.96 30.96 42.8 31.98 42.8C33 42.8 33.84 41.96 33.84 40.94V39.76H35.02C36.04 39.76 36.88 38.92 36.88 37.9C36.88 36.88 36.04 36.04 35.02 36.04ZM35.02 36.04H33.84V34.86C33.84 33.84 33 33 31.98 33C30.96 33 30.12 33.84 30.12 34.86V36.04H28.94C27.92 36.04 27.08 36.88 27.08 37.9C27.08 38.92 27.92 39.76 28.94 39.76H30.12V40.94C30.12 41.96 30.96 42.8 31.98 42.8C33 42.8 33.84 41.96 33.84 40.94V39.76H35.02C36.04 39.76 36.88 38.92 36.88 37.9C36.88 36.88 36.04 36.04 35.02 36.04ZM35.02 36.04H33.84V34.86C33.84 33.84 33 33 31.98 33C30.96 33 30.12 33.84 30.12 34.86V36.04H28.94C27.92 36.04 27.08 36.88 27.08 37.9C27.08 38.92 27.92 39.76 28.94 39.76H30.12V40.94C30.12 41.96 30.96 42.8 31.98 42.8C33 42.8 33.84 41.96 33.84 40.94V39.76H35.02C36.04 39.76 36.88 38.92 36.88 37.9C36.88 36.88 36.04 36.04 35.02 36.04ZM35.02 36.04H33.84V34.86C33.84 33.84 33 33 31.98 33C30.96 33 30.12 33.84 30.12 34.86V36.04H28.94C27.92 36.04 27.08 36.88 27.08 37.9C27.08 38.92 27.92 39.76 28.94 39.76H30.12V40.94C30.12 41.96 30.96 42.8 31.98 42.8C33 42.8 33.84 41.96 33.84 40.94V39.76H35.02C36.04 39.76 36.88 38.92 36.88 37.9C36.88 36.88 36.04 36.04 35.02 36.04ZM35.02 36.04H33.84V34.86C33.84 33.84 33 33 31.98 33C30.96 33 30.12 33.84 30.12 34.86V36.04H28.94C27.92 36.04 27.08 36.88 27.08 37.9C27.08 38.92 27.92 39.76 28.94 39.76H30.12V40.94C30.12 41.96 30.96 42.8 31.98 42.8C33 42.8 33.84 41.96 33.84 40.94V39.76H35.02C36.04 39.76 36.88 38.92 36.88 37.9C36.88 36.88 36.04 36.04 35.02 36.04ZM35.02 36.04H33.84V34.86C33.84 33.84 33 33 31.98 33C30.96 33 30.12 33.84 30.12 34.86V36.04H28.94C27.92 36.04 27.08 36.88 27.08 37.9C27.08 38.92 27.92 39.76 28.94 39.76H30.12V40.94C30.12 41.96 30.96 42.8 31.98 42.8C33 42.8 33.84 41.96 33.84 40.94V39.76H35.02C36.04 39.76 36.88 38.92 36.88 37.9C36.88 36.88 36.04 36.04 35.02 36.04ZM35.02 36.04H33.84V34.86C33.84 33.84 33 33 31.98 33C30.96 33 30.12 33.84 30.12 34.86V36.04H28.94C27.92 36.04 27.08 36.88 27.08 37.9C27.08 38.92 27.92 39.76 28.94 39.76H30.12V40.94C30.12 41.96 30.96 42.8 31.98 42.8C33 42.8 33.84 41.96 33.84 40.94V39.76H35.02C36.04 39.76 36.88 38.92 36.88 37.9C36.88 36.88 36.04 36.04 35.02 36.04ZM35.02 36.04H33.84V34.86C33.84 33.84 33 33 31.98 33C30.96 33 30.12 33.84 30.12 34.86V36.04H28.94C27.92 36.04 27.08 36.88 27.08 37.9C27.08 38.92 27.92 39.76 28.94 39.76H30.12V40.94C30.12 41.96 30.96 42.8 31.98 42.8C33 42.8 33.84 41.96 33.84 40.94V39.76H35.02C36.04 39.76 36.88 38.92 36.88 37.9C36.88 36.88 36.04 36.04 35.02 36.04ZM35.02 36.04H33.84V34.86C33.84 33.84 33 33 31.98 33C30.96 33 30.12 33.84 30.12 34.86V36.04H28.94C27.92 36.04 27.08 36.88 27.08 37.9C27.08 38.92 27.92 39.76 28.94 39.76H30.12V40.94C30.12 41.96 30.96 42.8 31.98 42.8C33 42.8 33.84 41.96 33.84 40.94V39.76H35.02C36.04 39.76 36.88 38.92 36.88 37.9C36.88 36.88 36.04 36.04 35.02 36.04ZM35.02 36.04H33.84V34.86C33.84 33.84 33 33 31.98 33C30.96 33 30.12 33.84 30.12 34.86V36.04H28.94C27.92 36.04 27.08 36.88 27.08 37.9C27.08 38.92 27.92 39.76 28.94 39.76H30.12V40.94C30.12 41.96 30.96 42.8 31.98 42.8C33 42.8 33.84 41.96 33.84 40.94V39.76H35.02C36.04 39.76 36.88 38.92 36.88 37.9C36.88 36.88 36.04 36.04 35.02 36.04ZM52.5 19.38H44.6C44.6 12.88 39.28 7.57999 32.78 7.57999H31.18C24.68 7.57999 19.36 12.88 19.36 19.38V19.4H11.5C8.48 19.38 6 21.86 6 24.88V50.92C6 53.96 8.48 56.42 11.5 56.42H52.5C55.52 56.42 58 53.96 58 50.92V24.88C58 21.86 55.52 19.38 52.5 19.38ZM32 45.9C27.6 45.9 24.02 42.32 24.02 37.92C24.02 33.52 27.6 29.94 32 29.94C36.4 29.94 39.98 33.52 39.98 37.92C39.98 42.32 36.4 45.9 32 45.9ZM23.1 19.38C23.1 14.9 26.74 11.28 31.2 11.28H32.8C37.26 11.28 40.9 14.9 40.9 19.36L23.1 19.38Z" fill="white"/>
</svg>
