<svg width="48" height="48" viewBox="0 0 48 48" fill="none" xmlns="http://www.w3.org/2000/svg">
<path d="M45.5559 13.7648C45.5469 13.7024 45.5047 13.4927 45.3389 13.4155L26.1771 4.49146C25.6415 4.2419 24.848 4.10775 24.3327 4.35084L4.81845 13.5533C4.80664 13.5589 4.76089 13.6291 4.76211 13.7662C4.76361 13.9324 4.8402 14.1342 4.98345 14.1985L7.40867 15.2889C7.29617 17.894 7.46624 22.5246 7.45845 25.1204C6.22649 25.378 5.29817 26.4725 5.29817 27.7798C5.29817 28.9405 6.03008 29.9331 7.05645 30.3216C7.05805 30.4056 7.05908 30.4898 7.0618 30.5731C7.0572 30.6036 7.05458 30.635 7.05402 30.6667C6.9852 34.8226 5.35124 38.3193 2.7898 39.7924C2.35133 40.0446 2.31477 40.6652 2.72164 40.9668L6.3268 43.639C6.60102 43.8422 6.97658 43.8175 7.2223 43.5909C10.142 40.8976 9.59877 37.948 9.0237 34.8252C8.76983 33.447 8.50855 32.0276 8.46495 30.4587C9.74961 30.2436 10.732 29.1245 10.732 27.7797C10.732 26.5781 9.9477 25.5569 8.86433 25.1994C8.87483 22.7578 8.72502 18.5368 8.79411 15.9118C25.1616 23.6002 24.1113 23.1068 24.1555 23.1277C24.7775 23.4175 25.5529 23.4767 25.9973 23.2673L45.5122 14.0647C45.5317 14.0467 45.5797 13.9295 45.5559 13.7648Z" fill="white"/>
<path d="M23.5596 24.4014L12.7336 19.3141V27.0543C12.7336 30.2168 18.5228 32.8887 25.3755 32.8887C32.2284 32.8887 38.018 30.2168 38.018 27.0543V19.1537L26.597 24.5394C25.6907 24.9665 24.4741 24.8277 23.5596 24.4014Z" fill="white"/>
</svg>
