<svg width="16" height="17" viewBox="0 0 16 17" fill="none" xmlns="http://www.w3.org/2000/svg">
<path d="M7.998 5.8322C6.52901 5.8322 5.3302 7.03101 5.3302 8.5C5.3302 9.96899 6.52901 11.1678 7.998 11.1678C9.46699 11.1678 10.6658 9.96899 10.6658 8.5C10.6658 7.03101 9.46699 5.8322 7.998 5.8322ZM15.9994 8.5C15.9994 7.39525 16.0094 6.30051 15.9474 5.19777C15.8853 3.9169 15.5931 2.78014 14.6565 1.8435C13.7179 0.904868 12.5831 0.614672 11.3022 0.55263C10.1975 0.490589 9.10275 0.500595 8 0.500595C6.89525 0.500595 5.80051 0.490589 4.69777 0.55263C3.4169 0.614672 2.28014 0.90687 1.3435 1.8435C0.404868 2.78214 0.114672 3.9169 0.0526304 5.19777C-0.0094115 6.30252 0.000595291 7.39725 0.000595291 8.5C0.000595291 9.60275 -0.0094115 10.6995 0.0526304 11.8022C0.114672 13.0831 0.40687 14.2199 1.3435 15.1565C2.28214 16.0951 3.4169 16.3853 4.69777 16.4474C5.80252 16.5094 6.89725 16.4994 8 16.4994C9.10475 16.4994 10.1995 16.5094 11.3022 16.4474C12.5831 16.3853 13.7199 16.0931 14.6565 15.1565C15.5951 14.2179 15.8853 13.0831 15.9474 11.8022C16.0114 10.6995 15.9994 9.60475 15.9994 8.5ZM7.998 12.6048C5.72646 12.6048 3.89323 10.7715 3.89323 8.5C3.89323 6.22847 5.72646 4.39523 7.998 4.39523C10.2695 4.39523 12.1028 6.22847 12.1028 8.5C12.1028 10.7715 10.2695 12.6048 7.998 12.6048ZM12.2709 5.18576C11.7405 5.18576 11.3122 4.75747 11.3122 4.22711C11.3122 3.69675 11.7405 3.26847 12.2709 3.26847C12.8012 3.26847 13.2295 3.69675 13.2295 4.22711C13.2297 4.35305 13.205 4.47778 13.1569 4.59416C13.1088 4.71054 13.0382 4.81628 12.9491 4.90533C12.8601 4.99438 12.7543 5.06499 12.6379 5.11311C12.5216 5.16123 12.3968 5.18592 12.2709 5.18576Z" fill="url(#paint0_radial_58_5338)"/>
<path d="M7.998 5.8322C6.52901 5.8322 5.3302 7.03101 5.3302 8.5C5.3302 9.96899 6.52901 11.1678 7.998 11.1678C9.46699 11.1678 10.6658 9.96899 10.6658 8.5C10.6658 7.03101 9.46699 5.8322 7.998 5.8322ZM15.9994 8.5C15.9994 7.39525 16.0094 6.30051 15.9474 5.19777C15.8853 3.9169 15.5931 2.78014 14.6565 1.8435C13.7179 0.904868 12.5831 0.614672 11.3022 0.55263C10.1975 0.490589 9.10275 0.500595 8 0.500595C6.89525 0.500595 5.80051 0.490589 4.69777 0.55263C3.4169 0.614672 2.28014 0.90687 1.3435 1.8435C0.404868 2.78214 0.114672 3.9169 0.0526304 5.19777C-0.0094115 6.30252 0.000595291 7.39725 0.000595291 8.5C0.000595291 9.60275 -0.0094115 10.6995 0.0526304 11.8022C0.114672 13.0831 0.40687 14.2199 1.3435 15.1565C2.28214 16.0951 3.4169 16.3853 4.69777 16.4474C5.80252 16.5094 6.89725 16.4994 8 16.4994C9.10475 16.4994 10.1995 16.5094 11.3022 16.4474C12.5831 16.3853 13.7199 16.0931 14.6565 15.1565C15.5951 14.2179 15.8853 13.0831 15.9474 11.8022C16.0114 10.6995 15.9994 9.60475 15.9994 8.5ZM7.998 12.6048C5.72646 12.6048 3.89323 10.7715 3.89323 8.5C3.89323 6.22847 5.72646 4.39523 7.998 4.39523C10.2695 4.39523 12.1028 6.22847 12.1028 8.5C12.1028 10.7715 10.2695 12.6048 7.998 12.6048ZM12.2709 5.18576C11.7405 5.18576 11.3122 4.75747 11.3122 4.22711C11.3122 3.69675 11.7405 3.26847 12.2709 3.26847C12.8012 3.26847 13.2295 3.69675 13.2295 4.22711C13.2297 4.35305 13.205 4.47778 13.1569 4.59416C13.1088 4.71054 13.0382 4.81628 12.9491 4.90533C12.8601 4.99438 12.7543 5.06499 12.6379 5.11311C12.5216 5.16123 12.3968 5.18592 12.2709 5.18576Z" fill="url(#paint1_radial_58_5338)"/>
<defs>
<radialGradient id="paint0_radial_58_5338" cx="0" cy="0" r="1" gradientUnits="userSpaceOnUse" gradientTransform="translate(4.25008 17.7323) rotate(-90) scale(15.8572 14.7487)">
<stop stop-color="#FFDD55"/>
<stop offset="0.1" stop-color="#FFDD55"/>
<stop offset="0.5" stop-color="#FF543E"/>
<stop offset="1" stop-color="#C837AB"/>
</radialGradient>
<radialGradient id="paint1_radial_58_5338" cx="0" cy="0" r="1" gradientUnits="userSpaceOnUse" gradientTransform="translate(-2.68011 1.65256) rotate(78.6808) scale(7.08826 29.2185)">
<stop stop-color="#3771C8"/>
<stop offset="0.128" stop-color="#3771C8"/>
<stop offset="1" stop-color="#6600FF" stop-opacity="0"/>
</radialGradient>
</defs>
</svg>
