<svg width="26" height="26" viewBox="0 0 26 26" fill="none" xmlns="http://www.w3.org/2000/svg">
<mask id="mask0_233_169" style="mask-type:luminance" maskUnits="userSpaceOnUse" x="2" y="2" width="22" height="22">
<path d="M24 2H2V24H24V2Z" fill="white"/>
</mask>
<g mask="url(#mask0_233_169)">
<path d="M13.2164 23.9993H12.9995C11.2722 24.0032 9.6802 23.9593 8.13011 23.8652C6.70957 23.7789 5.41278 23.2881 4.37992 22.4473C3.38316 21.6345 2.70415 20.5356 2.35707 19.1814C2.05607 18.0004 2.04028 16.8431 2.02481 15.7239C2.01386 14.9182 2.00226 13.9646 2 13.0011V12.9972C2.00226 12.0336 2.01386 11.0801 2.02481 10.2747C2.04028 9.15549 2.05704 7.99792 2.35707 6.81908C2.70254 5.46557 3.38316 4.366 4.37992 3.55325C5.41278 2.71086 6.70957 2.22005 8.13011 2.13529C9.67923 2.03926 11.2725 1.99575 12.9995 1.9993C14.7272 1.99511 16.3188 2.03894 17.8689 2.13336C19.2898 2.21973 20.5866 2.71053 21.6194 3.55293C22.6162 4.36568 23.2968 5.4646 23.6423 6.81876C23.943 7.9976 23.9591 9.15485 23.9742 10.2741C23.9852 11.0772 23.9968 12.0285 23.999 12.9969V13.0011C23.9968 13.9679 23.9852 14.9205 23.9742 15.7236C23.9591 16.8431 23.942 18.0004 23.6423 19.1792C23.2968 20.5327 22.6162 21.6323 21.6194 22.445C20.5882 23.2874 19.2898 23.7782 17.8689 23.863C16.3849 23.9551 14.8606 23.9993 13.2164 23.9993ZM12.9995 22.2803H13.0018C14.6933 22.2849 16.2515 22.2413 17.7648 22.1495C18.8389 22.085 19.7703 21.7354 20.5334 21.1134C21.2385 20.5382 21.7242 19.7444 21.9768 18.7544C22.2272 17.7732 22.2417 16.7194 22.2559 15.7004C22.2665 14.9028 22.2781 13.9582 22.2804 12.9991C22.2827 12.0401 22.2665 11.0955 22.2559 10.2979C22.2417 9.27892 22.2272 8.22512 21.9768 7.24382C21.7245 6.25318 21.2388 5.46041 20.5334 4.88517C19.7703 4.2632 18.8389 3.91451 17.7648 3.84909C16.2502 3.75725 14.6937 3.71406 13.0018 3.71825H12.9976C11.306 3.71439 9.74787 3.75725 8.23452 3.84909C7.16042 3.91355 6.22907 4.2632 5.46595 4.88517C4.76051 5.46041 4.27357 6.25415 4.02221 7.24382C3.77181 8.22544 3.75731 9.27892 3.74345 10.2979C3.73249 11.0984 3.72121 12.0449 3.71896 12.9991C3.7167 13.9534 3.73249 14.9005 3.74345 15.7004C3.75731 16.7194 3.77181 17.7732 4.02221 18.7544C4.27486 19.7444 4.76051 20.5382 5.46595 21.1134C6.22907 21.7354 7.16042 22.0841 8.23452 22.1495C9.74916 22.2413 11.3057 22.2849 12.9976 22.2803H12.9995Z" fill="white"/>
<path d="M12.9571 18.3709C9.99551 18.3709 7.58594 15.9614 7.58594 12.9998C7.58594 10.0382 9.99551 7.62891 12.9571 7.62891C15.9187 7.62891 18.3283 10.0382 18.3283 12.9998C18.3283 15.9614 15.9187 18.3709 12.9571 18.3709ZM12.9571 9.34754C12.2347 9.34748 11.5285 9.56165 10.9277 9.96297C10.327 10.3643 9.85884 10.9347 9.58234 11.6022C9.30585 12.2696 9.23349 13.004 9.37442 13.7126C9.51534 14.4211 9.86322 15.072 10.3741 15.5828C10.8849 16.0937 11.5357 16.4415 12.2443 16.5825C12.9528 16.7234 13.6873 16.651 14.3547 16.3745C15.0221 16.098 15.5926 15.6298 15.9939 15.0291C16.3952 14.4284 16.6094 13.7222 16.6093 12.9998C16.6082 12.0315 16.2231 11.1032 15.5384 10.4185C14.8537 9.73379 13.9254 9.34865 12.9571 9.34754Z" fill="white"/>
<path d="M20.2187 7.19848C20.2187 7.45343 20.1431 7.70266 20.0015 7.91464C19.8599 8.12663 19.6585 8.29185 19.423 8.38941C19.1874 8.48698 18.9283 8.51251 18.6782 8.46277C18.4281 8.41303 18.1985 8.29026 18.0182 8.10998C17.8379 7.9297 17.7151 7.70001 17.6654 7.44996C17.6157 7.19991 17.6412 6.94072 17.7387 6.70518C17.8363 6.46964 18.0015 6.26831 18.2135 6.12667C18.4255 5.98503 18.6747 5.90942 18.9297 5.90942C19.2716 5.90942 19.5994 6.04523 19.8412 6.28698C20.0829 6.52872 20.2187 6.8566 20.2187 7.19848Z" fill="white"/>
</g>
</svg>
