<svg width="24" height="26" viewBox="0 0 24 26" fill="none" xmlns="http://www.w3.org/2000/svg">
<g clip-path="url(#clip0_1_21838)">
<path d="M2.01562 16.4961H5.92969C5.83594 15.9336 5.76562 15.3555 5.71875 14.7617C5.67188 14.168 5.64844 13.5664 5.64844 12.957C5.64844 12.3477 5.67188 11.7461 5.71875 11.1523C5.76562 10.5586 5.83594 9.98047 5.92969 9.41797H2.01562C1.8125 9.98047 1.66016 10.5547 1.55859 11.1406C1.45703 11.7266 1.40625 12.332 1.40625 12.957C1.40625 13.582 1.45703 14.1875 1.55859 14.7734C1.66016 15.3594 1.8125 15.9336 2.01562 16.4961ZM2.625 17.9023C2.9375 18.4805 3.29688 19.0273 3.70312 19.543C4.125 20.0586 4.58203 20.5312 5.07422 20.9609C5.56641 21.3906 6.10156 21.7773 6.67969 22.1211C7.24219 22.4492 7.84375 22.7227 8.48438 22.9414C7.98438 22.3164 7.54297 21.5781 7.16016 20.7266C6.77734 19.875 6.46094 18.9336 6.21094 17.9023H2.625ZM21.9844 16.4961C22.1875 15.9336 22.3398 15.3594 22.4414 14.7734C22.543 14.1875 22.5938 13.582 22.5938 12.957C22.5938 12.332 22.543 11.7266 22.4414 11.1406C22.3398 10.5547 22.1875 9.98047 21.9844 9.41797H18.0703C18.1641 9.98047 18.2344 10.5586 18.2812 11.1523C18.3281 11.7461 18.3516 12.3477 18.3516 12.957C18.3516 13.5664 18.3281 14.168 18.2812 14.7617C18.2344 15.3555 18.1641 15.9336 18.0703 16.4961H21.9844ZM21.375 17.9023H17.7891C17.5391 18.9336 17.2227 19.875 16.8398 20.7266C16.457 21.5781 16.0156 22.3164 15.5156 22.9414C16.1562 22.7227 16.7578 22.4492 17.3203 22.1211C17.8984 21.7773 18.4336 21.3906 18.9258 20.9609C19.418 20.5312 19.875 20.0586 20.2969 19.543C20.7031 19.0273 21.0625 18.4805 21.375 17.9023ZM7.35938 16.4961H16.6406C16.7344 15.9336 16.8086 15.3594 16.8633 14.7734C16.918 14.1875 16.9453 13.582 16.9453 12.957C16.9453 12.332 16.918 11.7266 16.8633 11.1406C16.8086 10.5547 16.7344 9.98047 16.6406 9.41797H7.35938C7.26562 9.98047 7.19141 10.5547 7.13672 11.1406C7.08203 11.7266 7.05469 12.332 7.05469 12.957C7.05469 13.582 7.08203 14.1875 7.13672 14.7734C7.19141 15.3594 7.26562 15.9336 7.35938 16.4961ZM7.66406 17.9023C7.88281 18.7461 8.14844 19.5117 8.46094 20.1992C8.78906 20.9023 9.14062 21.5 9.51562 21.9922C9.89062 22.4844 10.2891 22.8633 10.7109 23.1289C11.1328 23.4102 11.5625 23.5508 12 23.5508C12.4375 23.5508 12.8672 23.4102 13.2891 23.1289C13.7109 22.8633 14.1094 22.4844 14.4844 21.9922C14.8594 21.5 15.2109 20.9023 15.5391 20.1992C15.8516 19.5117 16.1172 18.7461 16.3359 17.9023H7.66406ZM2.625 8.01172H6.21094C6.46094 6.98047 6.77734 6.03906 7.16016 5.1875C7.54297 4.33594 7.98438 3.59766 8.48438 2.97266C7.84375 3.19141 7.24219 3.46484 6.67969 3.79297C6.10156 4.13672 5.56641 4.52344 5.07422 4.95312C4.58203 5.38281 4.125 5.85547 3.70312 6.37109C3.29688 6.88672 2.9375 7.43359 2.625 8.01172ZM21.375 8.01172C21.0625 7.43359 20.7031 6.88672 20.2969 6.37109C19.875 5.85547 19.418 5.38281 18.9258 4.95312C18.4336 4.52344 17.8984 4.13672 17.3203 3.79297C16.7578 3.46484 16.1562 3.19141 15.5156 2.97266C16.0156 3.59766 16.457 4.33594 16.8398 5.1875C17.2227 6.03906 17.5391 6.98047 17.7891 8.01172H21.375ZM7.66406 8.01172H16.3359C16.1172 7.16797 15.8516 6.40234 15.5391 5.71484C15.2109 5.01172 14.8594 4.41406 14.4844 3.92188C14.1094 3.42969 13.7109 3.05078 13.2891 2.78516C12.8672 2.50391 12.4375 2.36328 12 2.36328C11.5625 2.36328 11.1328 2.50391 10.7109 2.78516C10.2891 3.05078 9.89062 3.42969 9.51562 3.92188C9.14062 4.41406 8.78906 5.01172 8.46094 5.71484C8.14844 6.40234 7.88281 7.16797 7.66406 8.01172ZM12 24.957C10.3438 24.957 8.78906 24.6445 7.33594 24.0195C5.86719 23.3945 4.58984 22.5391 3.50391 21.4531C2.41797 20.3672 1.5625 19.0898 0.9375 17.6211C0.3125 16.168 0 14.6133 0 12.957C0 11.3008 0.3125 9.74609 0.9375 8.29297C1.5625 6.82422 2.41797 5.54688 3.50391 4.46094C4.58984 3.375 5.86719 2.51953 7.33594 1.89453C8.78906 1.26953 10.3438 0.957031 12 0.957031C13.6562 0.957031 15.2109 1.26953 16.6641 1.89453C18.1328 2.51953 19.4102 3.375 20.4961 4.46094C21.582 5.54688 22.4375 6.82422 23.0625 8.29297C23.6875 9.74609 24 11.3008 24 12.957C24 14.6133 23.6875 16.168 23.0625 17.6211C22.4375 19.0898 21.582 20.3672 20.4961 21.4531C19.4102 22.5391 18.1328 23.3945 16.6641 24.0195C15.2109 24.6445 13.6562 24.957 12 24.957Z" fill="#F4D93D"/>
</g>
<defs>
<clipPath id="clip0_1_21838">
<rect width="24" height="25" fill="white" transform="matrix(1 0 0 -1 0 25.457)"/>
</clipPath>
</defs>
</svg>
