<svg width="14" height="20" viewBox="0 0 14 20" fill="none" xmlns="http://www.w3.org/2000/svg">
<g clip-path="url(#clip0_63_228)">
<path d="M13.0241 13.5629C13.6631 12.4843 14.0002 11.2537 14.0002 10C14.0002 8.74632 13.6631 7.51571 13.0241 6.43711C13.0102 6.40976 12.9947 6.38327 12.9776 6.35781C11.7444 4.34531 9.52679 3 7.00023 3C4.47366 3 2.25609 4.34531 1.02562 6.35781C1.00605 6.38313 0.98953 6.41066 0.976398 6.43984C0.337412 7.51796 0.000244141 8.74812 0.000244141 10.0014C0.000244141 11.2546 0.337412 12.4848 0.976398 13.5629C0.990178 13.5909 1.00666 13.6174 1.02562 13.6422C2.25609 15.6547 4.47366 17 7.00023 17C9.52679 17 11.7444 15.6547 12.9748 13.6422C12.9938 13.6174 13.0103 13.5909 13.0241 13.5629V13.5629ZM12.4881 12.7207C11.9959 12.3789 11.4053 12.0891 10.7436 11.8621C10.8353 11.2466 10.881 10.6251 10.8803 10.0027C10.881 9.38041 10.8353 8.7589 10.7436 8.14336C11.4053 7.91641 11.9932 7.62656 12.4881 7.28477C12.9072 8.12952 13.1252 9.05974 13.1252 10.0027C13.1252 10.9457 12.9072 11.8759 12.4881 12.7207V12.7207ZM3.99515 10C3.99507 9.46038 4.03161 8.92139 4.10452 8.38672C4.91035 8.58133 5.73412 8.69221 6.56273 8.71758V11.2824C5.73401 11.3064 4.9101 11.4173 4.10452 11.6133C4.03161 11.0786 3.99507 10.5396 3.99515 10V10ZM7.43773 3.94609C8.02288 4.1375 8.59163 4.70352 9.04554 5.56484C9.34358 6.13633 9.57874 6.79805 9.74007 7.51992C8.98589 7.70661 8.21423 7.81383 7.43773 7.83984V3.94609ZM6.56273 3.94609V7.83984C5.78622 7.81383 5.01456 7.70661 4.26038 7.51992C4.42171 6.79805 4.65687 6.13633 4.95491 5.56484C5.40882 4.70625 5.97757 4.1375 6.56273 3.94609ZM6.56273 12.1574V16.0512C5.97757 15.8598 5.40882 15.2938 4.95491 14.4324C4.65687 13.8609 4.42171 13.1992 4.26038 12.4773C5.01456 12.2907 5.78622 12.1834 6.56273 12.1574V12.1574ZM7.43773 16.0539V12.1574C8.21423 12.1834 8.98589 12.2907 9.74007 12.4773C9.57874 13.1992 9.34358 13.8609 9.04554 14.4324C8.59163 15.2938 8.02288 15.8625 7.43773 16.0539V16.0539ZM7.43773 11.2824V8.71758C8.26644 8.69356 9.09035 8.58267 9.89593 8.38672C9.96884 8.92139 10.0054 9.46038 10.0053 10C10.0054 10.5396 9.96884 11.0786 9.89593 11.6133C9.09035 11.4173 8.26644 11.3064 7.43773 11.2824V11.2824ZM12.0397 6.52461C11.635 6.81445 11.1373 7.06602 10.5768 7.26836C10.3991 6.49453 10.142 5.78086 9.81663 5.16289C9.66312 4.86814 9.4857 4.58647 9.28616 4.3207C10.4001 4.76976 11.3575 5.53611 12.0397 6.52461V6.52461ZM4.71155 4.31797C4.51141 4.58332 4.33396 4.86504 4.18109 5.16016C3.85569 5.78086 3.6014 6.49453 3.42093 7.26562C2.86038 7.06328 2.36546 6.81172 1.95804 6.52188C2.64302 5.53603 3.59961 4.77038 4.71155 4.31797V4.31797ZM1.51234 7.2793C2.00452 7.62109 2.59515 7.91094 3.25687 8.13789C3.07457 9.37077 3.07457 10.6238 3.25687 11.8566C2.59788 12.0891 2.00726 12.3789 1.51234 12.7207C1.09326 11.875 0.875221 10.9439 0.875221 10C0.875221 9.05613 1.09326 8.12503 1.51234 7.2793V7.2793ZM1.96077 13.4754C2.36546 13.1855 2.86312 12.934 3.42366 12.7316C3.6014 13.5055 3.85843 14.2191 4.18382 14.8371C4.33733 15.1319 4.51475 15.4135 4.71429 15.6793C3.60038 15.2302 2.64291 14.4639 1.96077 13.4754V13.4754ZM9.2889 15.682C9.48904 15.4167 9.66649 15.135 9.81937 14.8398C10.1448 14.2191 10.3991 13.5055 10.5795 12.7344C11.1401 12.9367 11.635 13.1883 12.0424 13.4781C11.3574 14.464 10.4008 15.2296 9.2889 15.682V15.682Z" fill="#118A3B"/>
</g>
<defs>
<clipPath id="clip0_63_228">
<rect width="14" height="14" fill="white" transform="translate(0 3)"/>
</clipPath>
</defs>
</svg>
