<svg width="16" height="14" viewBox="0 0 16 14" fill="none" xmlns="http://www.w3.org/2000/svg">
<path d="M14.7145 1.30492C12.9744 -0.434738 10.1436 -0.434738 8.40393 1.30492L7.99986 1.70875L7.59603 1.30492C5.85637 -0.434973 3.02531 -0.434973 1.28565 1.30492C-0.418689 3.00926 -0.429756 5.71081 1.25998 7.58916C2.80114 9.30174 7.34643 13.0017 7.53928 13.1583C7.6702 13.2647 7.82773 13.3165 7.98432 13.3165C7.9895 13.3165 7.99468 13.3165 7.99963 13.3163C8.16163 13.3238 8.32481 13.2682 8.45997 13.1583C8.65282 13.0017 13.1986 9.30174 14.7402 7.58893C16.4297 5.71081 16.4186 3.00926 14.7145 1.30492ZM13.69 6.64398C12.4884 7.97887 9.18546 10.732 7.99963 11.709C6.8138 10.7322 3.51155 7.97934 2.31018 6.64422C1.13142 5.33406 1.12035 3.46819 2.28452 2.30402C2.87908 1.70969 3.6599 1.41229 4.44072 1.41229C5.22154 1.41229 6.00236 1.70946 6.59693 2.30402L7.48512 3.19222C7.59085 3.29794 7.72412 3.36105 7.86399 3.38318C8.09099 3.43193 8.33729 3.36859 8.51389 3.19245L9.40256 2.30402C10.5919 1.11513 12.5266 1.11537 13.7152 2.30402C14.8794 3.46819 14.8683 5.33406 13.69 6.64398Z" fill="#111111"/>
</svg>
