<svg width="49" height="21" viewBox="0 0 49 21" fill="none" xmlns="http://www.w3.org/2000/svg">
<path fill-rule="evenodd" clip-rule="evenodd" d="M8.46724 11.9597C8.38037 11.8717 8.10144 11.8416 7.53296 11.9828C6.05374 12.3565 0.942573 12.6769 0.3709 10.8121C0.332772 10.6674 0.328554 10.5305 0.331754 10.3613C0.523414 9.2158 1.94544 8.62506 2.96135 8.24685C4.16905 7.81077 5.64534 7.60635 7.50302 7.76152L7.76372 7.78375C9.65621 7.94595 10.1607 7.98919 7.96965 6.50933C7.77369 6.37546 7.57668 6.2461 7.39906 6.12947C7.10087 5.93365 6.85731 5.77372 6.76501 5.68859C5.65889 5.06047 5.8306 4.62412 6.73738 4.25479C8.59622 3.62852 10.4094 3.97739 12.2142 5.14001C12.3509 5.22962 12.501 5.34467 12.6603 5.46681C13.1524 5.84404 13.7326 6.28886 14.2789 6.26039C14.7906 6.24382 14.1583 5.58279 13.8175 5.22652C13.7267 5.13162 13.6566 5.05835 13.6343 5.02463C13.2069 4.55252 12.821 4.05594 12.4422 3.52705C12.4063 3.47525 12.369 3.42198 12.3308 3.36743C11.7131 2.48517 10.86 1.26666 11.7157 0.471156C12.0837 0.113922 12.7995 0.108532 13.9159 0.535132C15.5076 1.07098 16.7135 2.19788 17.6903 3.544C18.1252 4.14909 18.473 4.70675 18.8169 5.25811C19.3291 6.07939 19.8326 6.8867 20.6023 7.81604C20.9916 8.14345 21.2557 8.23815 21.4327 8.24484C22.1677 8.1948 21.4684 7.00841 21.2137 6.57629C21.1918 6.53905 21.1731 6.5074 21.159 6.48258C21.0924 6.38196 21.0344 6.28333 20.9764 6.1847C20.9189 6.08683 20.8613 5.98897 20.7954 5.88917C20.6939 5.71677 20.5878 5.54982 20.4844 5.38717C20.1164 4.80827 19.783 4.28383 19.8195 3.76158C19.8768 2.89109 20.8311 2.15882 22.6349 3.01533C23.2531 3.31428 23.6354 3.71979 24.0438 4.15299C24.1664 4.2831 24.2914 4.4157 24.4259 4.54866C25.6848 5.75571 26.7071 7.21422 27.6733 8.76183C27.8357 9.02171 27.9914 9.2946 28.1488 9.57052C28.4722 10.1375 28.8029 10.7172 29.2152 11.2235C29.7676 11.9283 30.4666 12.4628 30.018 11.3061C29.9817 11.1686 29.9152 11.0378 29.8665 10.942C29.8383 10.8865 29.8161 10.8428 29.8091 10.8162C29.4219 10.0135 29.0348 9.2108 28.6139 8.40032C28.5251 8.21834 28.4259 8.03968 28.3287 7.86444C27.894 7.0811 27.4971 6.36599 28.2278 5.72853C28.4493 5.54154 28.7314 5.40247 29.0591 5.37585C30.1926 5.26256 30.9519 5.84497 31.5648 6.59762C32.2206 7.40052 32.8824 8.29595 33.5392 9.18467C33.9436 9.73177 34.3461 10.2763 34.7441 10.7952C35.4028 11.6603 36.1696 12.2105 36.9806 12.5669C37.3997 12.7652 37.9498 12.8576 38.5416 12.9257L40.2107 12.9696L40.6136 12.9262C42.7307 12.93 44.7671 12.4508 45.5459 12.2036C45.5536 12.2013 45.5614 12.1988 45.5691 12.1961C46.0695 12.0393 46.5847 11.8179 47.149 11.5397C47.9612 11.1147 48.7693 11.6404 48.835 12.1313C48.922 13.3068 46.638 14.0732 45.2869 14.5104L43.9627 14.9877C43.7691 15.0217 43.5956 15.0717 43.4256 15.1207C43.3013 15.1566 43.1788 15.1919 43.0517 15.2201C42.4983 15.3601 41.4791 15.6031 40.9719 15.6783C40.8766 15.677 40.7827 15.6831 40.6914 15.6971C40.0378 15.8016 39.453 15.8695 38.9165 15.9317C38.0219 16.0355 37.2619 16.1236 36.542 16.3405C35.8279 16.5663 35.1826 17.099 34.527 17.6402C34.4396 17.7122 34.3521 17.7845 34.2643 17.8561C33.5654 18.4092 32.0575 19.2181 30.7291 19.5585C29.8933 19.7742 29.0684 19.7885 28.4298 19.3018C27.7989 18.7829 28.4957 17.6176 30.188 16.7831C32.0458 15.8507 31.3034 14.7284 29.2845 15.8956C28.5386 16.3372 27.9514 16.72 27.4073 17.0748C26.1415 17.9001 25.1087 18.5735 22.8511 19.4807C19.8227 20.6878 16.3764 20.9151 15.6169 19.2451C15.1061 18.1769 17.4679 17.0503 19.3298 16.1622C19.9305 15.8756 20.4792 15.6139 20.8625 15.387C22.8814 14.2197 21.2602 12.7255 19.8828 14.2101C18.7863 15.2496 15.6317 17.0054 14.0728 17.2588C11.987 17.6289 10.3191 16.8037 11.6699 15.2789C12.0213 14.9876 12.3644 14.6943 12.7074 14.401L12.7081 14.4004C13.0541 14.1047 13.4001 13.8089 13.7546 13.515C13.7899 13.4832 13.8383 13.4417 13.8956 13.3926C14.2771 13.0658 15.049 12.4043 14.9134 12.0481C14.6212 11.3727 13.158 12.3058 12.646 12.6323C12.5859 12.6707 12.5388 12.7007 12.5084 12.7187C11.8882 13.086 11.1247 13.4542 10.3761 13.758C9.04416 14.2675 7.81739 14.6312 7.09934 14.0243C6.58921 13.6011 6.84806 13.2528 7.26901 12.9757C7.58504 12.8444 8.7472 12.2959 8.46724 11.9597ZM10.4915 12.3231C11.6124 11.799 12.7067 11.2349 13.782 10.5984C14.3626 10.2811 14.6501 10.2625 15.265 10.2227L15.3703 10.2159C16.4212 10.1516 17.5782 10.2476 18.5697 10.4416L18.585 10.4446C19.0257 10.5302 19.2299 10.5699 19.2637 10.6682C19.2929 10.7531 19.1953 10.8816 19.0134 11.121C18.9561 11.1964 18.8904 11.2828 18.8178 11.3823C17.5731 13.0674 15.8032 14.3938 14.1872 15.5177C12.9996 16.3323 12.9773 16.4292 14.3199 15.7182C15.8617 14.9171 17.4957 13.5594 19.3195 11.5316C19.4396 11.3998 19.5313 11.291 19.6057 11.2028C19.7557 11.0249 19.835 10.931 19.9336 10.9011C20.0438 10.8677 20.1783 10.9143 20.4631 11.0129C20.5507 11.0432 20.6525 11.0785 20.7722 11.1178C21.7716 11.4326 22.6966 11.7217 23.6216 12.0108C24.5465 12.2999 25.4715 12.589 26.4709 12.9037C27.5562 13.2455 27.4744 13.319 26.6784 14.034C26.5948 14.1092 26.5032 14.1915 26.4043 14.2819C24.8158 15.752 22.7184 17.1051 19.8818 18.2543C18.1853 18.9519 18.4982 18.9899 19.9393 18.4715C22.8137 17.4669 25.537 16.1897 27.6259 14.5627C27.9169 14.3346 28.1111 14.1583 28.2556 14.027C28.4396 13.8599 28.5431 13.7658 28.6638 13.7309C28.8191 13.686 29.0028 13.739 29.4228 13.8602C29.5715 13.9031 29.7499 13.9546 29.9671 14.0134C31.385 14.3733 32.825 14.6364 33.9895 14.7001C34.1575 14.7046 34.3047 14.7043 34.4298 14.7041C34.7289 14.7035 34.9019 14.7031 34.9332 14.7695C34.9762 14.8605 34.7535 15.0768 34.2259 15.5894C34.1773 15.6366 34.1261 15.6864 34.0722 15.7388C33.0586 16.7293 31.8517 17.4714 30.5242 18.1179C29.5274 18.5685 29.7236 18.6476 30.8222 18.2204C32.12 17.7031 33.3979 16.8073 34.7806 15.7657C34.8645 15.7028 34.9423 15.6443 35.0147 15.5899C35.5245 15.2063 35.7679 15.0231 36.042 14.9285C36.2924 14.842 36.5684 14.8295 37.0966 14.8055C37.3001 14.7963 37.541 14.7854 37.8323 14.7679C40.6574 14.6016 41.6552 14.4572 43.3824 13.9366C46.0625 13.15 45.6246 13.2266 44.3873 13.4429C43.8558 13.5358 43.1769 13.6545 42.5343 13.7416C40.2183 14.0249 38.3158 14.0633 36.8991 14.0096C35.8304 13.9747 35.7264 13.8947 34.9961 13.3327C34.9024 13.2606 34.7984 13.1806 34.6808 13.0917C32.5314 11.4952 31.6215 9.97927 30.7577 8.54012C30.6895 8.4264 30.6215 8.31315 30.5533 8.20039C29.5416 6.54036 29.4134 6.47692 30.3201 8.28274C31.0105 9.63102 32.0784 11.202 34.0519 13.1851L34.0547 13.1878C34.482 13.614 34.6936 13.8251 34.6511 13.9117C34.6095 13.9967 34.3234 13.9621 33.7567 13.8934C33.6479 13.8802 33.5287 13.8657 33.3988 13.8506C31.6914 13.662 29.8517 13.2731 27.9236 12.49C27.8551 12.4636 27.791 12.439 27.7309 12.416C27.2137 12.2179 27.0001 12.1361 26.8626 11.9851C26.7659 11.8789 26.7069 11.7385 26.6063 11.4993C26.5486 11.3623 26.4774 11.1929 26.3776 10.979C25.348 8.78675 23.8318 6.7661 22.4318 4.90033L22.4308 4.89897C22.2983 4.72236 22.1668 4.54713 22.0369 4.37328C22.2606 4.73831 22.5025 5.11608 22.7519 5.50561C23.7189 7.0159 24.7992 8.70312 25.3775 10.5112C25.829 11.9304 25.7538 11.9027 24.8516 11.5707C24.6349 11.4909 24.3705 11.3936 24.0542 11.2946L23.1602 10.9871C22.8734 10.885 22.6407 10.8061 22.4468 10.7403C21.5469 10.4348 21.4819 10.4128 20.7107 9.67624C19.3769 8.40481 18.2915 7.03173 17.284 5.7573C16.0557 4.20348 14.9433 2.79629 13.6382 1.89874C15.2738 3.56902 16.3564 5.00385 17.412 6.40295C18.1305 7.35521 18.8365 8.29091 19.6959 9.27302C19.876 9.48006 20.0302 9.64653 20.1516 9.77753C20.362 10.0046 20.4737 10.1251 20.4498 10.1655C20.4228 10.2112 20.2226 10.1546 19.7963 10.034C19.6566 9.99455 19.4926 9.94818 19.3025 9.89629C19.1283 9.85626 18.9562 9.80774 18.7885 9.76049C18.6295 9.71566 18.4745 9.67199 18.3258 9.63781L18.2693 9.62196C17.6483 9.4479 17.5354 9.41623 16.9524 9.08415C13.2569 6.97707 10.6046 5.92555 8.36079 5.27374C11.1635 6.29192 13.7183 7.45701 15.7734 9.08499C15.8246 9.12685 15.8719 9.1653 15.9154 9.20062C16.178 9.4139 16.3001 9.51312 16.2826 9.55989C16.2673 9.60057 16.1463 9.60157 15.92 9.60342C15.8169 9.60427 15.692 9.6053 15.5452 9.61034C11.1723 9.82858 6.85957 10.0946 2.80026 10.6569C2.7796 10.6691 2.75232 10.6713 2.72503 10.6736C2.69775 10.6758 2.67046 10.678 2.6498 10.6903C2.5404 10.6991 2.53298 10.7314 2.67629 10.7303C2.69324 10.7342 2.72053 10.732 2.74781 10.7298C2.7751 10.7276 2.80238 10.7253 2.81933 10.7292C6.17875 10.4139 9.7461 10.2824 12.7715 10.3321C13.2008 10.3289 13.3026 10.3523 13.0588 10.6361C12.4882 11.2526 11.4842 11.7356 10.5212 12.1939C9.216 12.7436 9.93495 12.569 10.4915 12.3231Z" fill="#3B2720"/>
</svg>
