<svg width="49" height="21" viewBox="0 0 49 21" fill="none" xmlns="http://www.w3.org/2000/svg">
<path fill-rule="evenodd" clip-rule="evenodd" d="M40.8658 11.9597C40.9526 11.8717 41.2316 11.8416 41.8 11.9828C43.2793 12.3565 48.3904 12.6769 48.9621 10.8121C49.0002 10.6674 49.0045 10.5305 49.0013 10.3613C48.8096 9.2158 47.3876 8.62506 46.3717 8.24685C45.164 7.81077 43.6877 7.60635 41.83 7.76152L41.5693 7.78375C39.6768 7.94595 39.1723 7.98919 41.3634 6.50933C41.5593 6.37546 41.7563 6.2461 41.9339 6.12947C42.2321 5.93365 42.4757 5.77372 42.568 5.68859C43.6741 5.06047 43.5024 4.62412 42.5956 4.25479C40.7368 3.62852 38.9236 3.97739 37.1188 5.14001C36.9821 5.22962 36.832 5.34467 36.6727 5.46681C36.1806 5.84404 35.6004 6.28886 35.0541 6.26039C34.5424 6.24382 35.1747 5.58279 35.5155 5.22652C35.6063 5.13162 35.6764 5.05835 35.6987 5.02463C36.1261 4.55252 36.512 4.05594 36.8908 3.52705C36.9267 3.47525 36.964 3.42198 37.0022 3.36743C37.6199 2.48517 38.473 1.26666 37.6173 0.471156C37.2493 0.113922 36.5335 0.108532 35.4171 0.535132C33.8254 1.07098 32.6195 2.19788 31.6427 3.544C31.2078 4.14909 30.86 4.70675 30.5161 5.25811C30.0039 6.07939 29.5004 6.8867 28.7307 7.81604C28.3414 8.14345 28.0773 8.23815 27.9003 8.24484C27.1653 8.1948 27.8646 7.00841 28.1193 6.57629C28.1412 6.53905 28.1599 6.5074 28.174 6.48258C28.2406 6.38196 28.2986 6.28333 28.3566 6.1847C28.4141 6.08683 28.4717 5.98897 28.5376 5.88917C28.6391 5.71677 28.7452 5.54982 28.8486 5.38717C29.2166 4.80827 29.55 4.28383 29.5135 3.76158C29.4562 2.89109 28.5019 2.15882 26.6981 3.01533C26.0799 3.31428 25.6976 3.71979 25.2892 4.15299C25.1666 4.2831 25.0416 4.4157 24.9071 4.54866C23.6482 5.75571 22.6259 7.21422 21.6598 8.76183C21.4973 9.02171 21.3416 9.2946 21.1842 9.57052C20.8608 10.1375 20.5301 10.7172 20.1178 11.2235C19.5654 11.9283 18.8664 12.4628 19.315 11.3061C19.3514 11.1686 19.4178 11.0378 19.4665 10.942C19.4947 10.8865 19.5169 10.8428 19.5239 10.8162C19.9111 10.0135 20.2983 9.2108 20.7191 8.40032C20.8079 8.21834 20.9071 8.03968 21.0043 7.86444C21.439 7.0811 21.8359 6.36599 21.1052 5.72853C20.8837 5.54154 20.6016 5.40247 20.2739 5.37585C19.1404 5.26256 18.3811 5.84497 17.7682 6.59762C17.1125 7.40052 16.4506 8.29595 15.7938 9.18467C15.3894 9.73177 14.9869 10.2763 14.5889 10.7952C13.9302 11.6603 13.1634 12.2105 12.3524 12.5669C11.9333 12.7652 11.3832 12.8576 10.7914 12.9257L9.12231 12.9696L8.71939 12.9262C6.60232 12.93 4.56588 12.4508 3.78716 12.2036C3.77936 12.2013 3.77161 12.1988 3.76393 12.1961C3.26353 12.0393 2.74829 11.8179 2.18403 11.5397C1.37181 11.1147 0.56368 11.6404 0.498049 12.1313C0.411046 13.3068 2.69506 14.0732 4.04607 14.5104L5.37034 14.9877C5.56394 15.0217 5.73739 15.0717 5.90743 15.1207C6.0317 15.1566 6.15416 15.1919 6.28134 15.2201C6.83471 15.3601 7.85394 15.6031 8.36112 15.6783C8.45637 15.677 8.55034 15.6831 8.6416 15.6971C9.29516 15.8016 9.88003 15.8695 10.4165 15.9317C11.3111 16.0355 12.0712 16.1236 12.791 16.3405C13.5051 16.5663 14.1505 17.099 14.806 17.6402C14.8934 17.7122 14.9809 17.7845 15.0687 17.8561C15.7676 18.4092 17.2755 19.2181 18.6039 19.5585C19.4397 19.7742 20.2646 19.7885 20.9032 19.3018C21.5341 18.7829 20.8373 17.6176 19.1451 16.7831C17.2872 15.8507 18.0296 14.7284 20.0485 15.8956C20.7945 16.3372 21.3816 16.72 21.9257 17.0748C23.1915 17.9001 24.2244 18.5735 26.4819 19.4807C29.5103 20.6878 32.9566 20.9151 33.7161 19.2451C34.2269 18.1769 31.8651 17.0503 30.0033 16.1622C29.4025 15.8756 28.8538 15.6139 28.4705 15.387C26.4516 14.2197 28.0728 12.7255 29.4502 14.2101C30.5467 15.2496 33.7013 17.0054 35.2602 17.2588C37.346 17.6289 39.014 16.8037 37.6631 15.2789C37.3117 14.9876 36.9687 14.6943 36.6256 14.401L36.6249 14.4004C36.2789 14.1047 35.9329 13.8089 35.5784 13.515C35.5431 13.4832 35.4947 13.4417 35.4374 13.3926C35.0559 13.0658 34.284 12.4043 34.4196 12.0481C34.7118 11.3727 36.175 12.3058 36.687 12.6323C36.7471 12.6707 36.7942 12.7007 36.8246 12.7187C37.4448 13.086 38.2083 13.4542 38.9569 13.758C40.2888 14.2675 41.5156 14.6312 42.2337 14.0243C42.7438 13.6011 42.485 13.2528 42.064 12.9757C41.748 12.8444 40.5858 12.2959 40.8658 11.9597ZM38.8415 12.3231C37.7207 11.799 36.6263 11.2349 35.551 10.5984C34.9705 10.2811 34.6829 10.2625 34.068 10.2227L33.9627 10.2159C32.9118 10.1516 31.7548 10.2476 30.7633 10.4416L30.748 10.4446C30.3073 10.5302 30.1032 10.5699 30.0693 10.6682C30.0401 10.7531 30.1377 10.8816 30.3196 11.121C30.3769 11.1964 30.4426 11.2828 30.5152 11.3823C31.7599 13.0674 33.5298 14.3938 35.1458 15.5177C36.3334 16.3323 36.3557 16.4292 35.0131 15.7182C33.4713 14.9171 31.8373 13.5594 30.0135 11.5316C29.8934 11.3998 29.8017 11.291 29.7273 11.2028C29.5773 11.0249 29.4981 10.931 29.3994 10.9011C29.2892 10.8677 29.1547 10.9143 28.8699 11.0129C28.7823 11.0432 28.6805 11.0785 28.5608 11.1178C27.5614 11.4326 26.6364 11.7217 25.7114 12.0108C24.7865 12.2999 23.8615 12.589 22.8621 12.9037C21.7768 13.2455 21.8586 13.319 22.6546 14.034C22.7383 14.1092 22.8298 14.1915 22.9287 14.2819C24.5172 15.752 26.6146 17.1051 29.4512 18.2543C31.1477 18.9519 30.8348 18.9899 29.3937 18.4715C26.5193 17.4669 23.796 16.1897 21.7071 14.5627C21.4161 14.3346 21.222 14.1583 21.0774 14.027C20.8934 13.8599 20.7899 13.7658 20.6692 13.7309C20.5139 13.686 20.3303 13.739 19.9102 13.8602C19.7615 13.9031 19.5831 13.9546 19.3659 14.0134C17.948 14.3733 16.508 14.6364 15.3436 14.7001C15.1755 14.7046 15.0283 14.7043 14.9033 14.7041C14.6041 14.7035 14.4311 14.7031 14.3998 14.7695C14.3569 14.8605 14.5795 15.0768 15.1071 15.5894C15.1557 15.6366 15.2069 15.6864 15.2608 15.7388C16.2744 16.7293 17.4813 17.4714 18.8088 18.1179C19.8057 18.5685 19.6094 18.6476 18.5108 18.2204C17.213 17.7031 15.9351 16.8073 14.5525 15.7657C14.4685 15.7028 14.3907 15.6443 14.3183 15.5899C13.8085 15.2063 13.5651 15.0231 13.291 14.9285C13.0406 14.842 12.7646 14.8295 12.2364 14.8055C12.0329 14.7963 11.792 14.7854 11.5008 14.7679C8.67563 14.6016 7.67776 14.4572 5.95059 13.9366C3.27048 13.15 3.70844 13.2266 4.94572 13.4429C5.47718 13.5358 6.1561 13.6545 6.79875 13.7416C9.11476 14.0249 11.0172 14.0633 12.4339 14.0096C13.5026 13.9747 13.6066 13.8947 14.3369 13.3327C14.4306 13.2606 14.5346 13.1806 14.6523 13.0917C16.8016 11.4952 17.7115 9.97927 18.5753 8.54012C18.6435 8.4264 18.7115 8.31315 18.7798 8.20039C19.7914 6.54036 19.9197 6.47692 19.0129 8.28274C18.3225 9.63102 17.2546 11.202 15.2811 13.1851L15.2784 13.1878C14.8511 13.614 14.6395 13.8251 14.6819 13.9117C14.7235 13.9967 15.0096 13.9621 15.5763 13.8934C15.6851 13.8802 15.8043 13.8657 15.9342 13.8506C17.6417 13.662 19.4813 13.2731 21.4094 12.49C21.4779 12.4636 21.542 12.439 21.6021 12.416C22.1193 12.2179 22.3329 12.1361 22.4704 11.9851C22.5671 11.8789 22.6261 11.7385 22.7268 11.4993C22.7844 11.3623 22.8556 11.1929 22.9554 10.979C23.985 8.78675 25.5012 6.7661 26.9012 4.90033L26.9022 4.89897C27.0348 4.72236 27.1662 4.54713 27.2962 4.37328C27.0724 4.73831 26.8305 5.11608 26.5811 5.50561C25.6141 7.0159 24.5338 8.70312 23.9555 10.5112C23.504 11.9304 23.5792 11.9027 24.4814 11.5707C24.6981 11.4909 24.9625 11.3936 25.2788 11.2946L26.1728 10.9871C26.4596 10.885 26.6923 10.8061 26.8862 10.7403C27.7862 10.4348 27.8512 10.4128 28.6223 9.67624C29.9561 8.40481 31.0415 7.03173 32.049 5.7573C33.2773 4.20348 34.3897 2.79629 35.6949 1.89874C34.0592 3.56902 32.9766 5.00385 31.921 6.40295C31.2025 7.35521 30.4965 8.29091 29.6371 9.27302C29.457 9.48006 29.3028 9.64653 29.1814 9.77753C28.971 10.0046 28.8593 10.1251 28.8832 10.1655C28.9102 10.2112 29.1104 10.1546 29.5367 10.034C29.6764 9.99455 29.8404 9.94818 30.0305 9.89629C30.2047 9.85626 30.3768 9.80774 30.5445 9.76049C30.7035 9.71566 30.8585 9.67199 31.0072 9.63781L31.0637 9.62196C31.6847 9.4479 31.7976 9.41623 32.3806 9.08415C36.0761 6.97707 38.7284 5.92555 40.9722 5.27374C38.1695 6.29192 35.6147 7.45701 33.5596 9.08499C33.5084 9.12685 33.4611 9.1653 33.4176 9.20062C33.155 9.4139 33.0329 9.51312 33.0505 9.55989C33.0657 9.60057 33.1867 9.60157 33.413 9.60342C33.5161 9.60427 33.641 9.6053 33.7878 9.61034C38.1607 9.82858 42.4734 10.0946 46.5328 10.6569C46.5534 10.6691 46.5807 10.6713 46.608 10.6736C46.6353 10.6758 46.6625 10.678 46.6832 10.6903C46.7926 10.6991 46.8 10.7314 46.6567 10.7303C46.6398 10.7342 46.6125 10.732 46.5852 10.7298C46.5579 10.7276 46.5306 10.7253 46.5137 10.7292C43.1543 10.4139 39.5869 10.2824 36.5616 10.3321C36.1322 10.3289 36.0305 10.3523 36.2742 10.6361C36.8449 11.2526 37.8489 11.7356 38.8118 12.1939C40.117 12.7436 39.3981 12.569 38.8415 12.3231Z" fill="#3B2720"/>
</svg>
