<svg width="93" height="29" viewBox="0 0 93 29" fill="none" xmlns="http://www.w3.org/2000/svg">
<path fill-rule="evenodd" clip-rule="evenodd" d="M9.46749 13.9596C9.38061 13.8716 9.10168 13.8415 8.5332 13.9827C7.05398 14.3564 1.94282 14.6768 1.37114 12.8121C1.33302 12.6673 1.3288 12.5304 1.332 12.3612C1.52366 11.2157 2.94568 10.625 3.9616 10.2468C5.1693 9.81071 6.64559 9.60629 8.50327 9.76146L8.76396 9.78369C10.6565 9.94589 11.1609 9.98913 8.9699 8.50927C8.77393 8.3754 8.57692 8.24604 8.3993 8.1294C8.10111 7.93359 7.85755 7.77366 7.76526 7.68853C6.65913 7.0604 6.83084 6.62406 7.73763 6.25472C9.59646 5.62846 11.4096 5.97733 13.2145 7.13995C13.3512 7.22956 13.5012 7.34461 13.6606 7.46675C14.1526 7.84398 14.7329 8.2888 15.2792 8.26033C15.7908 8.24376 15.1585 7.58273 14.8177 7.22646C14.727 7.13156 14.6569 7.05829 14.6346 7.02457C14.2071 6.55245 13.8212 6.05588 13.4425 5.52699C13.4065 5.47519 13.3692 5.42192 13.3311 5.36736C12.7133 4.48511 11.8602 3.2666 12.716 2.47109C13.084 2.11386 13.7997 2.10847 14.9162 2.53507C16.5079 3.07092 17.7138 4.19782 18.6906 5.54394C19.1255 6.14903 19.4733 6.70669 19.8171 7.25805C20.3293 8.07933 20.8329 8.88664 21.6025 9.81598C21.9919 10.1434 22.256 10.2381 22.4329 10.2448C23.168 10.1947 22.4687 9.00835 22.214 8.57623C22.192 8.53899 22.1734 8.50734 22.1592 8.48252C22.0926 8.3819 22.0346 8.28327 21.9767 8.18464C21.9191 8.08677 21.8616 7.98891 21.7956 7.88911C21.6942 7.7167 21.5881 7.54975 21.4847 7.3871C21.1167 6.80821 20.7833 6.28377 20.8197 5.76152C20.8771 4.89103 21.8313 4.15876 23.6351 5.01527C24.2534 5.31422 24.6356 5.71973 25.044 6.15293C25.1667 6.28304 25.2917 6.41564 25.4262 6.5486C26.685 7.75565 27.7074 9.21416 28.6735 10.7618C28.836 11.0217 28.9916 11.2945 29.149 11.5705C29.4724 12.1374 29.8032 12.7172 30.2154 13.2234C30.7679 13.9282 31.4669 14.4628 31.0183 13.306C30.9819 13.1685 30.9154 13.0377 30.8668 12.9419C30.8386 12.8865 30.8163 12.8427 30.8094 12.8162C30.4222 12.0135 30.035 11.2107 29.6142 10.4003C29.5253 10.2183 29.4262 10.0396 29.3289 9.86438C28.8942 9.08104 28.4974 8.36593 29.228 7.72846C29.4495 7.54148 29.7316 7.40241 30.0593 7.37579C31.1928 7.2625 31.9522 7.84491 32.5651 8.59756C33.2208 9.40046 33.8826 10.2959 34.5395 11.1846C34.9438 11.7317 35.3463 12.2763 35.7443 12.7951C36.403 13.6603 37.1698 14.2104 37.9809 14.5668C38.3999 14.7651 38.9501 14.8576 39.5418 14.9257L41.2109 14.9695L41.6139 14.9261C43.7309 14.93 45.7674 14.4508 46.5461 14.2035C46.5539 14.2013 46.5616 14.1988 46.5693 14.1961C47.0697 14.0392 47.585 13.8178 48.1492 13.5397C48.9614 13.1146 49.7696 13.6403 49.8352 14.1312C49.9222 15.3068 47.6382 16.0732 46.2872 16.5103L44.9629 16.9876C44.7693 17.0216 44.5959 17.0716 44.4258 17.1207C44.3015 17.1565 44.1791 17.1918 44.0519 17.22C43.4985 17.36 42.4793 17.603 41.9721 17.6783C41.8769 17.6769 41.7829 17.6831 41.6917 17.697C41.0381 17.8016 40.4532 17.8694 39.9167 17.9316C39.0222 18.0354 38.2621 18.1236 37.5423 18.3405C36.8281 18.5662 36.1828 19.0989 35.5272 19.6401C35.4399 19.7122 35.3524 19.7844 35.2645 19.8561C34.5657 20.4091 33.0578 21.218 31.7293 21.5584C30.8935 21.7741 30.0686 21.7884 29.4301 21.3017C28.7991 20.7828 29.496 19.6175 31.1882 18.783C33.046 17.8506 32.3037 16.7283 30.2848 17.8956C29.5388 18.3371 28.9516 18.72 28.4075 19.0747C27.1417 19.9001 26.1089 20.5735 23.8514 21.4807C20.8229 22.6877 17.3766 22.9151 16.6171 21.245C16.1064 20.1769 18.4682 19.0503 20.33 18.1621C20.9307 17.8756 21.4794 17.6138 21.8628 17.3869C23.8817 16.2197 22.2604 14.7254 20.8831 16.2101C19.7866 17.2495 16.632 19.0053 15.073 19.2587C12.9872 19.6289 11.3193 18.8036 12.6702 17.2789C13.0216 16.9875 13.3646 16.6942 13.7076 16.401L13.7083 16.4004C14.0543 16.1046 14.4003 15.8088 14.7548 15.515C14.7901 15.4832 14.8386 15.4416 14.8959 15.3925C15.2773 15.0657 16.0493 14.4043 15.9137 14.0481C15.6215 13.3726 14.1583 14.3058 13.6463 14.6323C13.5861 14.6707 13.5391 14.7007 13.5086 14.7187C12.8885 15.0859 12.125 15.4542 11.3764 15.7579C10.0444 16.2674 8.81764 16.6311 8.09958 16.0242C7.58946 15.601 7.8483 15.2527 8.26925 14.9756C8.58529 14.8444 9.74744 14.2959 9.46749 13.9596ZM11.4918 14.323C12.6126 13.799 13.7069 13.2349 14.7822 12.5984C15.3628 12.281 15.6504 12.2624 16.2653 12.2227L16.3706 12.2158C17.4214 12.1515 18.5785 12.2476 19.5699 12.4415L19.5853 12.4445C20.0259 12.5302 20.2301 12.5698 20.2639 12.6682C20.2931 12.753 20.1955 12.8815 20.0136 13.1209C19.9563 13.1963 19.8907 13.2827 19.818 13.3822C18.5733 15.0673 16.8034 16.3938 15.1874 17.5177C13.9998 18.3322 13.9775 18.4291 15.3201 17.7181C16.8619 16.917 18.4959 15.5593 20.3197 13.5315C20.4398 13.3997 20.5316 13.2909 20.6059 13.2028C20.756 13.0249 20.8352 12.9309 20.9338 12.901C21.0441 12.8676 21.1785 12.9142 21.4634 13.0128C21.551 13.0432 21.6528 13.0784 21.7725 13.1178C22.7719 13.4325 23.6968 13.7216 24.6218 14.0107C25.5468 14.2998 26.4718 14.5889 27.4712 14.9037C28.5565 15.2454 28.4747 15.3189 27.6787 16.034C27.595 16.1091 27.5034 16.1914 27.4045 16.2818C25.816 17.7519 23.7187 19.1051 20.8821 20.2543C19.1856 20.9518 19.4984 20.9898 20.9395 20.4714C23.814 19.4669 26.5373 18.1896 28.6262 16.5627C28.9172 16.3345 29.1113 16.1582 29.2558 16.027C29.4398 15.8598 29.5434 15.7658 29.664 15.7309C29.8193 15.6859 30.003 15.7389 30.423 15.8602C30.5718 15.9031 30.7501 15.9546 30.9674 16.0133C32.3853 16.3733 33.8252 16.6363 34.9897 16.7001C35.1578 16.7046 35.3049 16.7043 35.43 16.704C35.7292 16.7034 35.9021 16.703 35.9335 16.7695C35.9764 16.8605 35.7538 17.0768 35.2262 17.5893C35.1775 17.6365 35.1263 17.6863 35.0725 17.7387C34.0589 18.7292 32.8519 19.4714 31.5245 20.1178C30.5276 20.5684 30.7239 20.6475 31.8225 20.2203C33.1202 19.703 34.3982 18.8072 35.7808 17.7656C35.8648 17.7027 35.9425 17.6442 36.0149 17.5898C36.5247 17.2062 36.7682 17.0231 37.0422 16.9285C37.2927 16.842 37.5687 16.8295 38.0969 16.8055C38.3003 16.7963 38.5412 16.7853 38.8325 16.7678C41.6576 16.6016 42.6555 16.4571 44.3827 15.9365C47.0628 15.1499 46.6248 15.2265 45.3875 15.4428C44.8561 15.5357 44.1771 15.6544 43.5345 15.7416C41.2185 16.0248 39.316 16.0633 37.8994 16.0095C36.8307 15.9747 36.7267 15.8946 35.9964 15.3327C35.9027 15.2606 35.7987 15.1806 35.681 15.0917C33.5316 13.4951 32.6218 11.9792 31.758 10.5401C31.6897 10.4263 31.6218 10.3131 31.5535 10.2003C30.5418 8.5403 30.4136 8.47686 31.3204 10.2827C32.0108 11.631 33.0786 13.2019 35.0521 15.185L35.0549 15.1878C35.4822 15.614 35.6938 15.825 35.6514 15.9117C35.6097 15.9967 35.3237 15.962 34.757 15.8933C34.6481 15.8801 34.5289 15.8657 34.3991 15.8506C32.6916 15.662 30.852 15.273 28.9239 14.4899C28.8553 14.4635 28.7912 14.439 28.7312 14.416C28.2139 14.2179 28.0004 14.1361 27.8629 13.985C27.7662 13.8788 27.7071 13.7384 27.6065 13.4992C27.5489 13.3622 27.4776 13.1928 27.3779 12.979C26.3482 10.7867 24.832 8.76604 23.432 6.90027L23.431 6.89891C23.2985 6.7223 23.167 6.54707 23.0371 6.37322C23.2609 6.73825 23.5028 7.11602 23.7522 7.50555C24.7192 9.01583 25.7995 10.7031 26.3777 12.5111C26.8293 13.9303 26.754 13.9026 25.8518 13.5706C25.6351 13.4909 25.3707 13.3935 25.0545 13.2945L24.1605 12.987C23.8736 12.885 23.641 12.806 23.4471 12.7402C22.5471 12.4348 22.4821 12.4127 21.7109 11.6762C20.3772 10.4047 19.2917 9.03167 18.2843 7.75724C17.056 6.20342 15.9436 4.79623 14.6384 3.89868C16.2741 5.56896 17.3567 7.00379 18.4123 8.40289C19.1308 9.35514 19.8368 10.2908 20.6961 11.273C20.8762 11.48 21.0305 11.6465 21.1519 11.7775C21.3623 12.0046 21.4739 12.125 21.45 12.1655C21.423 12.2112 21.2229 12.1546 20.7965 12.034C20.6568 11.9945 20.4928 11.9481 20.3027 11.8962C20.1286 11.8562 19.9564 11.8077 19.7888 11.7604C19.6297 11.7156 19.4748 11.6719 19.3261 11.6377L19.2696 11.6219C18.6486 11.4478 18.5356 11.4162 17.9527 11.0841C14.2571 8.97701 11.6049 7.92549 9.36103 7.27368C12.1638 8.29186 14.7185 9.45694 16.7736 11.0849C16.8248 11.1268 16.8722 11.1652 16.9156 11.2006C17.1782 11.4138 17.3004 11.5131 17.2828 11.5598C17.2675 11.6005 17.1465 11.6015 16.9203 11.6034C16.8172 11.6042 16.6922 11.6052 16.5455 11.6103C12.1726 11.8285 7.85981 12.0946 3.8005 12.6568C3.77984 12.6691 3.75256 12.6713 3.72528 12.6735C3.69799 12.6757 3.6707 12.678 3.65005 12.6902C3.54064 12.699 3.53323 12.7313 3.67654 12.7303C3.69349 12.7342 3.72077 12.732 3.74806 12.7297C3.77534 12.7275 3.80263 12.7253 3.81958 12.7292C7.179 12.4139 10.7463 12.2823 13.7717 12.3321C14.2011 12.3288 14.3028 12.3522 14.0591 12.6361C13.4884 13.2526 12.4844 13.7355 11.5214 14.1939C10.2162 14.7435 10.9352 14.5689 11.4918 14.323Z" fill="white"/>
<path fill-rule="evenodd" clip-rule="evenodd" d="M82.866 13.9596C82.9529 13.8716 83.2318 13.8415 83.8003 13.9827C85.2795 14.3564 90.3907 14.6768 90.9624 12.8121C91.0005 12.6673 91.0047 12.5304 91.0015 12.3612C90.8098 11.2157 89.3878 10.625 88.3719 10.2468C87.1642 9.81071 85.6879 9.60629 83.8302 9.76146L83.5695 9.78369C81.677 9.94589 81.1726 9.98913 83.3636 8.50927C83.5596 8.3754 83.7566 8.24604 83.9342 8.1294C84.2324 7.93359 84.4759 7.77366 84.5682 7.68853C85.6744 7.0604 85.5027 6.62406 84.5959 6.25472C82.737 5.62846 80.9239 5.97733 79.119 7.13995C78.9823 7.22956 78.8323 7.34461 78.6729 7.46675C78.1809 7.84398 77.6006 8.2888 77.0543 8.26033C76.5427 8.24376 77.175 7.58273 77.5158 7.22646C77.6065 7.13156 77.6766 7.05829 77.6989 7.02457C78.1264 6.55245 78.5123 6.05588 78.891 5.52699C78.927 5.47519 78.9642 5.42192 79.0024 5.36736C79.6202 4.48511 80.4733 3.2666 79.6175 2.47109C79.2495 2.11386 78.5338 2.10847 77.4173 2.53507C75.8256 3.07092 74.6197 4.19782 73.6429 5.54394C73.208 6.14903 72.8602 6.70669 72.5164 7.25805C72.0041 8.07933 71.5006 8.88664 70.731 9.81598C70.3416 10.1434 70.0775 10.2381 69.9006 10.2448C69.1655 10.1947 69.8648 9.00835 70.1195 8.57623C70.1415 8.53899 70.1601 8.50734 70.1743 8.48252C70.2409 8.3819 70.2989 8.28327 70.3568 8.18464C70.4144 8.08677 70.4719 7.98891 70.5379 7.88911C70.6393 7.7167 70.7454 7.54975 70.8488 7.3871C71.2168 6.80821 71.5502 6.28377 71.5138 5.76152C71.4564 4.89103 70.5022 4.15876 68.6984 5.01527C68.0801 5.31422 67.6978 5.71973 67.2895 6.15293C67.1668 6.28304 67.0418 6.41564 66.9073 6.5486C65.6485 7.75565 64.6261 9.21416 63.66 10.7618C63.4975 11.0217 63.3419 11.2945 63.1845 11.5705C62.8611 12.1374 62.5303 12.7172 62.1181 13.2234C61.5656 13.9282 60.8666 14.4628 61.3152 13.306C61.3516 13.1685 61.4181 13.0377 61.4667 12.9419C61.4949 12.8865 61.5172 12.8427 61.5241 12.8162C61.9113 12.0135 62.2985 11.2107 62.7193 10.4003C62.8082 10.2183 62.9073 10.0396 63.0046 9.86438C63.4393 9.08104 63.8361 8.36593 63.1055 7.72846C62.884 7.54148 62.6019 7.40241 62.2742 7.37579C61.1407 7.2625 60.3813 7.84491 59.7684 8.59756C59.1127 9.40046 58.4509 10.2959 57.794 11.1846C57.3897 11.7317 56.9872 12.2763 56.5892 12.7951C55.9305 13.6603 55.1637 14.2104 54.3526 14.5668C53.9336 14.7651 53.3834 14.8576 52.7916 14.9257L51.1226 14.9695L50.7196 14.9261C48.6026 14.93 46.5661 14.4508 45.7874 14.2035C45.7796 14.2013 45.7719 14.1988 45.7642 14.1961C45.2638 14.0392 44.7485 13.8178 44.1843 13.5397C43.3721 13.1146 42.5639 13.6403 42.4983 14.1312C42.4113 15.3068 44.6953 16.0732 46.0463 16.5103L47.3706 16.9876C47.5642 17.0216 47.7376 17.0716 47.9077 17.1207C48.0319 17.1565 48.1544 17.1918 48.2816 17.22C48.835 17.36 49.8542 17.603 50.3614 17.6783C50.4566 17.6769 50.5506 17.6831 50.6418 17.697C51.2954 17.8016 51.8803 17.8694 52.4168 17.9316C53.3113 18.0354 54.0714 18.1236 54.7912 18.3405C55.5054 18.5662 56.1507 19.0989 56.8063 19.6401C56.8936 19.7122 56.9811 19.7844 57.069 19.8561C57.7678 20.4091 59.2757 21.218 60.6042 21.5584C61.44 21.7741 62.2648 21.7884 62.9034 21.3017C63.5344 20.7828 62.8375 19.6175 61.1453 18.783C59.2875 17.8506 60.0298 16.7283 62.0487 17.8956C62.7947 18.3371 63.3818 18.72 63.9259 19.0747C65.1918 19.9001 66.2246 20.5735 68.4821 21.4807C71.5105 22.6877 74.9569 22.9151 75.7164 21.245C76.2271 20.1769 73.8653 19.0503 72.0035 18.1621C71.4028 17.8756 70.8541 17.6138 70.4707 17.3869C68.4518 16.2197 70.073 14.7254 71.4504 16.2101C72.5469 17.2495 75.7015 19.0053 77.2604 19.2587C79.3463 19.6289 81.0142 18.8036 79.6633 17.2789C79.3119 16.9875 78.9689 16.6942 78.6259 16.401L78.6252 16.4004C78.2792 16.1046 77.9332 15.8088 77.5787 15.515C77.5434 15.4832 77.4949 15.4416 77.4376 15.3925C77.0562 15.0657 76.2842 14.4043 76.4198 14.0481C76.712 13.3726 78.1752 14.3058 78.6872 14.6323C78.7474 14.6707 78.7944 14.7007 78.8249 14.7187C79.445 15.0859 80.2085 15.4542 80.9571 15.7579C82.2891 16.2674 83.5159 16.6311 84.2339 16.0242C84.744 15.601 84.4852 15.2527 84.0642 14.9756C83.7482 14.8444 82.5861 14.2959 82.866 13.9596ZM80.8417 14.323C79.7209 13.799 78.6266 13.2349 77.5513 12.5984C76.9707 12.281 76.6831 12.2624 76.0682 12.2227L75.9629 12.2158C74.9121 12.1515 73.755 12.2476 72.7636 12.4415L72.7482 12.4445C72.3075 12.5302 72.1034 12.5698 72.0696 12.6682C72.0403 12.753 72.138 12.8815 72.3199 13.1209C72.3772 13.1963 72.4428 13.2827 72.5155 13.3822C73.7601 15.0673 75.5301 16.3938 77.1461 17.5177C78.3337 18.3322 78.3559 18.4291 77.0134 17.7181C75.4716 16.917 73.8376 15.5593 72.0138 13.5315C71.8937 13.3997 71.8019 13.2909 71.7276 13.2028C71.5775 13.0249 71.4983 12.9309 71.3997 12.901C71.2894 12.8676 71.155 12.9142 70.8701 13.0128C70.7825 13.0432 70.6807 13.0784 70.561 13.1178C69.5616 13.4325 68.6367 13.7216 67.7117 14.0107C66.7867 14.2998 65.8617 14.5889 64.8623 14.9037C63.777 15.2454 63.8588 15.3189 64.6548 16.034C64.7385 16.1091 64.8301 16.1914 64.929 16.2818C66.5175 17.7519 68.6148 19.1051 71.4514 20.2543C73.1479 20.9518 72.8351 20.9898 71.394 20.4714C68.5195 19.4669 65.7962 18.1896 63.7073 16.5627C63.4163 16.3345 63.2222 16.1582 63.0777 16.027C62.8937 15.8598 62.7901 15.7658 62.6695 15.7309C62.5142 15.6859 62.3305 15.7389 61.9105 15.8602C61.7617 15.9031 61.5834 15.9546 61.3661 16.0133C59.9482 16.3733 58.5083 16.6363 57.3438 16.7001C57.1757 16.7046 57.0286 16.7043 56.9035 16.704C56.6043 16.7034 56.4314 16.703 56.4 16.7695C56.3571 16.8605 56.5797 17.0768 57.1073 17.5893C57.1559 17.6365 57.2072 17.6863 57.261 17.7387C58.2746 18.7292 59.4816 19.4714 60.809 20.1178C61.8059 20.5684 61.6096 20.6475 60.511 20.2203C59.2133 19.703 57.9353 18.8072 56.5527 17.7656C56.4687 17.7027 56.391 17.6442 56.3186 17.5898C55.8088 17.2062 55.5653 17.0231 55.2913 16.9285C55.0408 16.842 54.7648 16.8295 54.2366 16.8055C54.0332 16.7963 53.7923 16.7853 53.501 16.7678C50.6759 16.6016 49.678 16.4571 47.9508 15.9365C45.2707 15.1499 45.7087 15.2265 46.946 15.4428C47.4774 15.5357 48.1563 15.6544 48.799 15.7416C51.115 16.0248 53.0175 16.0633 54.4341 16.0095C55.5028 15.9747 55.6068 15.8946 56.3371 15.3327C56.4308 15.2606 56.5348 15.1806 56.6525 15.0917C58.8018 13.4951 59.7117 11.9792 60.5755 10.5401C60.6438 10.4263 60.7117 10.3131 60.78 10.2003C61.7917 8.5403 61.9199 8.47686 61.0131 10.2827C60.3227 11.631 59.2548 13.2019 57.2814 15.185L57.2786 15.1878C56.8513 15.614 56.6397 15.825 56.6821 15.9117C56.7238 15.9967 57.0098 15.962 57.5765 15.8933C57.6854 15.8801 57.8046 15.8657 57.9344 15.8506C59.6419 15.662 61.4815 15.273 63.4096 14.4899C63.4782 14.4635 63.5423 14.439 63.6023 14.416C64.1196 14.2179 64.3331 14.1361 64.4706 13.985C64.5673 13.8788 64.6264 13.7384 64.727 13.4992C64.7846 13.3622 64.8559 13.1928 64.9556 12.979C65.9852 10.7867 67.5015 8.76604 68.9015 6.90027L68.9025 6.89891C69.035 6.7223 69.1665 6.54707 69.2964 6.37322C69.0726 6.73825 68.8307 7.11602 68.5813 7.50555C67.6143 9.01583 66.534 10.7031 65.9558 12.5111C65.5042 13.9303 65.5795 13.9026 66.4817 13.5706C66.6984 13.4909 66.9628 13.3935 67.279 13.2945L68.173 12.987C68.4599 12.885 68.6925 12.806 68.8864 12.7402C69.7864 12.4348 69.8514 12.4127 70.6226 11.6762C71.9563 10.4047 73.0418 9.03167 74.0492 7.75724C75.2775 6.20342 76.3899 4.79623 77.6951 3.89868C76.0594 5.56896 74.9768 7.00379 73.9212 8.40289C73.2027 9.35514 72.4967 10.2908 71.6373 11.273C71.4573 11.48 71.303 11.6465 71.1816 11.7775C70.9712 12.0046 70.8596 12.125 70.8835 12.1655C70.9105 12.2112 71.1106 12.1546 71.537 12.034C71.6767 11.9945 71.8407 11.9481 72.0308 11.8962C72.2049 11.8562 72.3771 11.8077 72.5447 11.7604C72.7038 11.7156 72.8587 11.6719 73.0074 11.6377L73.0639 11.6219C73.6849 11.4478 73.7979 11.4162 74.3808 11.0841C78.0764 8.97701 80.7286 7.92549 82.9725 7.27368C80.1697 8.29186 77.615 9.45694 75.5599 11.0849C75.5087 11.1268 75.4613 11.1652 75.4179 11.2006C75.1553 11.4138 75.0331 11.5131 75.0507 11.5598C75.066 11.6005 75.187 11.6015 75.4132 11.6034C75.5163 11.6042 75.6413 11.6052 75.788 11.6103C80.1609 11.8285 84.4737 12.0946 88.533 12.6568C88.5537 12.6691 88.5809 12.6713 88.6082 12.6735C88.6355 12.6757 88.6628 12.678 88.6834 12.6902C88.7929 12.699 88.8003 12.7313 88.657 12.7303C88.64 12.7342 88.6127 12.732 88.5854 12.7297C88.5582 12.7275 88.5309 12.7253 88.5139 12.7292C85.1545 12.4139 81.5872 12.2823 78.5618 12.3321C78.1324 12.3288 78.0307 12.3522 78.2744 12.6361C78.8451 13.2526 79.8491 13.7355 80.812 14.1939C82.1172 14.7435 81.3983 14.5689 80.8417 14.323Z" fill="white"/>
</svg>
