<svg width="148" height="27" viewBox="0 0 148 27" fill="none" xmlns="http://www.w3.org/2000/svg">
<g clip-path="url(#clip0_241_2477)">
<path fill-rule="evenodd" clip-rule="evenodd" d="M98.85 18.719H102.548V8.28126H98.85V18.719ZM78.4276 8.28126H73.0362L71.3467 10.9231L68.5682 14.8744L65.7897 10.9231L64.1002 8.28126H58.7089V18.719H62.4064V11.8895L66.982 18.675H70.1522L74.7279 11.8895V18.719H78.4254L78.4276 8.28126ZM97.2617 13.3265C97.2617 12.5672 97.1433 11.923 96.9432 11.3707C96.0306 8.48207 93.3769 8.14111 91.9694 8.14111C90.9449 8.14111 89.5782 8.14111 88.642 8.14111H88.6399C87.7015 8.14111 86.337 8.14111 85.3125 8.14111C83.905 8.14111 81.2513 8.48207 80.3387 11.3707C80.1386 11.923 80.0202 12.5672 80.0202 13.3265C80.0202 13.3851 80.0224 13.4415 80.0245 13.5001C80.0245 13.5587 80.0202 13.6131 80.0202 13.6716C80.0202 14.4309 80.1386 15.0752 80.3387 15.6274C81.2513 18.5161 83.905 18.857 85.3125 18.857C86.337 18.857 87.7037 18.857 88.6399 18.857H88.642C89.5804 18.857 90.9449 18.857 91.9694 18.857C93.3769 18.857 96.0306 18.5161 96.9432 15.6274C97.1433 15.0752 97.2617 14.4309 97.2617 13.6716C97.2617 13.6131 97.2595 13.5566 97.2574 13.5001C97.2574 13.4415 97.2617 13.3851 97.2617 13.3265ZM93.1122 15.2634C92.8044 15.6295 92.417 15.8512 92.0662 15.9328C92.0016 15.9433 91.9371 15.96 91.8747 15.96C91.3452 15.96 90.2002 15.9955 89.264 16.0102C89.2597 16.0102 89.2576 16.0123 89.2533 16.0123C89.1155 16.0186 88.9003 16.0186 88.642 16.0186C88.642 16.0186 88.642 16.0186 88.6399 16.0186C88.6399 16.0186 88.6399 16.0186 88.6377 16.0186C88.3816 16.0206 88.1642 16.0186 88.0265 16.0123C88.0222 16.0123 88.0179 16.0102 88.0157 16.0102C87.0795 15.9935 85.9345 15.96 85.4051 15.96C85.3427 15.96 85.2781 15.9433 85.2135 15.9328C84.8606 15.8512 84.4753 15.6295 84.1654 15.2634C83.8253 14.8346 83.5886 14.2322 83.5843 13.5001C83.5864 12.768 83.8253 12.1635 84.1654 11.7368C84.4753 11.3686 84.8606 11.149 85.2135 11.0674C85.2781 11.057 85.3427 11.0402 85.4051 11.0402C85.9345 11.0402 87.0795 11.0047 88.0157 10.99C88.02 10.99 88.0222 10.988 88.0265 10.988C88.1642 10.9817 88.3795 10.9796 88.6377 10.9817C88.6377 10.9817 88.6377 10.9817 88.6399 10.9817C88.6399 10.9817 88.6399 10.9817 88.642 10.9817C88.8981 10.9796 89.1155 10.9817 89.2533 10.988C89.2576 10.988 89.2619 10.99 89.264 10.99C90.2002 11.0068 91.3452 11.0402 91.8747 11.0402C91.9371 11.0402 92.0038 11.057 92.0662 11.0674C92.4192 11.149 92.8044 11.3707 93.1122 11.7368C93.4523 12.1635 93.6911 12.768 93.6933 13.5001C93.689 14.2301 93.4523 14.8346 93.1122 15.2634ZM56.7202 13.3265C56.7202 12.5672 56.6018 11.923 56.4017 11.3707C55.4891 8.48207 52.8354 8.14111 51.4279 8.14111C50.4034 8.14111 49.0368 8.14111 48.0984 8.14111H48.0962C47.1579 8.14111 45.7933 8.14111 44.7689 8.14111C43.3613 8.14111 40.7076 8.48207 39.7951 11.3707C39.5949 11.923 39.4766 12.5672 39.4766 13.3265C39.4766 13.3851 39.4787 13.4415 39.4809 13.5001C39.4809 13.5587 39.4766 13.6131 39.4766 13.6716C39.4766 14.4309 39.5949 15.0752 39.7951 15.6274C40.7076 18.5161 43.3613 18.857 44.7689 18.857C45.7933 18.857 47.1579 18.857 48.0962 18.857H48.0984C49.0368 18.857 50.4034 18.857 51.4279 18.857C52.8354 18.857 55.4891 18.5161 56.4017 15.6274C56.6018 15.0752 56.7202 14.4309 56.7202 13.6716C56.7202 13.6131 56.718 13.5566 56.7159 13.5001C56.7159 13.4415 56.7202 13.3851 56.7202 13.3265ZM52.5707 15.2634C52.2629 15.6295 51.8755 15.8512 51.5247 15.9328C51.4602 15.9433 51.3956 15.96 51.3332 15.96C50.8037 15.96 49.6587 15.9955 48.7225 16.0102C48.7182 16.0102 48.7161 16.0123 48.7118 16.0123C48.574 16.0186 48.3588 16.0186 48.1005 16.0186C48.1005 16.0186 48.1005 16.0186 48.0984 16.0186C48.0984 16.0186 48.0984 16.0186 48.0962 16.0186C47.8401 16.0206 47.6227 16.0186 47.485 16.0123C47.4807 16.0123 47.4764 16.0102 47.4742 16.0102C46.538 15.9935 45.393 15.96 44.8636 15.96C44.8012 15.96 44.7366 15.9433 44.672 15.9328C44.3191 15.8512 43.9338 15.6295 43.6261 15.2634C43.286 14.8346 43.0471 14.2322 43.045 13.5001C43.0471 12.768 43.286 12.1635 43.6261 11.7368C43.9338 11.3686 44.3212 11.149 44.672 11.0674C44.7366 11.057 44.8012 11.0402 44.8636 11.0402C45.393 11.0402 46.538 11.0047 47.4742 10.99C47.4785 10.99 47.4807 10.988 47.485 10.988C47.6227 10.9817 47.838 10.9796 48.0962 10.9817C48.0962 10.9817 48.0962 10.9817 48.0984 10.9817C48.0984 10.9817 48.0984 10.9817 48.1005 10.9817C48.3567 10.9796 48.574 10.9817 48.7118 10.988C48.7161 10.988 48.7204 10.99 48.7225 10.99C49.6587 11.0068 50.8037 11.0402 51.3332 11.0402C51.3956 11.0402 51.4602 11.057 51.5247 11.0674C51.8777 11.149 52.2629 11.3707 52.5707 11.7368C52.9108 12.1635 53.1497 12.768 53.1518 13.5001C53.1497 14.2301 52.9108 14.8346 52.5707 15.2634ZM120.045 8.27917H114.137L108.387 11.764V8.28335H104.689V18.7211H108.387V14.5167L114.77 18.6165H120.786L112.372 13.0023L120.045 8.27917ZM142.594 17.5643C142.542 16.8636 142.891 14.774 140.715 13.7239C140.715 13.7239 142.273 13.5106 142.273 10.921C142.273 8.33146 139.415 8.28126 138.733 8.28126C138.132 8.28126 132.328 8.28126 130.953 8.28126V8.27917H127.255V18.7169H130.953V15.5019H137.586C137.586 15.5019 138.718 15.3262 138.899 16.4285C139.079 17.5288 139.028 18.3801 139.529 18.7043H143.25C143.25 18.7043 142.646 18.2651 142.594 17.5643ZM137.663 12.9123C137.117 12.9123 132.601 12.9123 130.953 12.9123V11.0361C132.362 11.0382 137.229 11.0465 137.625 11.0465C138.087 11.0465 138.679 11.2348 138.679 11.8853C138.681 12.5358 138.333 12.9123 137.663 12.9123ZM144.305 8.28126V18.719H148.003V8.28126C148 8.28126 144.305 8.28126 144.305 8.28126ZM121.416 18.719H125.114V8.28126H121.416V18.719Z" fill="white"/>
<path fill-rule="evenodd" clip-rule="evenodd" d="M26.6941 16.2234C25.7858 14.0878 25.2671 12.7742 24.318 10.6134C23.3926 12.7177 22.8545 13.9769 21.9312 16.2234C21.2188 17.9575 22.4305 19.7668 24.318 19.7668C26.1517 19.7668 27.4517 18.0056 26.6941 16.2234ZM24.318 22.7517C20.3299 22.7517 17.39 18.7335 19.1957 14.9266C21.0811 10.9502 22.2497 8.4673 24.318 4.24829C26.3885 8.4673 27.5571 10.9502 29.4403 14.9266C31.246 18.7335 28.3061 22.7517 24.318 22.7517Z" fill="white"/>
<path fill-rule="evenodd" clip-rule="evenodd" d="M11.5662 22.7517C7.57809 22.7517 4.63814 18.7335 6.44171 14.9266C8.32706 10.9502 9.49572 8.4673 11.5662 4.24829C13.6366 8.4673 14.8053 10.9502 16.6885 14.9266C18.4942 18.7335 15.5542 22.7517 11.5662 22.7517Z" fill="white"/>
<path fill-rule="evenodd" clip-rule="evenodd" d="M8.25164 27H27.6346C32.1844 27 35.8862 23.4022 35.8862 18.9803V8.01968C35.8841 3.59777 32.1822 0 27.6324 0H8.25164C3.70183 0 0 3.59777 0 8.01968V18.9824C0 23.4022 3.70183 27 8.25164 27ZM27.6324 1.68802C31.2245 1.68802 34.1472 4.52859 34.1472 8.01968V18.9824C34.1472 22.4735 31.2245 25.3141 27.6324 25.3141H8.25164C4.65957 25.3141 1.73685 22.4735 1.73685 18.9824V8.01968C1.73685 4.52859 4.65957 1.68802 8.25164 1.68802H27.6324Z" fill="white"/>
</g>
<defs>
<clipPath id="clip0_241_2477">
<rect width="148" height="27" fill="white"/>
</clipPath>
</defs>
</svg>
