<svg width="139" height="40" viewBox="0 0 139 40" fill="none" xmlns="http://www.w3.org/2000/svg">
<path d="M54.0616 16.6681C53.149 16.6681 52.308 16.5254 51.5384 16.2399C50.7798 15.9434 50.1146 15.5261 49.5429 14.9881C48.9822 14.4501 48.5425 13.8187 48.2236 13.094C47.9158 12.3693 47.7618 11.5732 47.7618 10.7058C47.7618 9.83831 47.9158 9.04223 48.2236 8.31753C48.5425 7.59282 48.9877 6.96144 49.5594 6.42341C50.1311 5.88537 50.8018 5.47361 51.5714 5.18811C52.3409 4.89164 53.1876 4.74341 54.1111 4.74341C55.1336 4.74341 56.0515 4.91361 56.8652 5.254C57.6897 5.59438 58.3824 6.0885 58.9431 6.73635L57.228 8.31753C56.8102 7.87831 56.3539 7.55438 55.8592 7.34576C55.3644 7.12615 54.8257 7.01635 54.243 7.01635C53.6823 7.01635 53.1711 7.1042 52.7093 7.27988C52.2475 7.45556 51.8462 7.70811 51.5054 8.03753C51.1756 8.36694 50.9173 8.75674 50.7303 9.20694C50.5544 9.65714 50.4664 10.1567 50.4664 10.7058C50.4664 11.2438 50.5544 11.7379 50.7303 12.1881C50.9173 12.6383 51.1756 13.0336 51.5054 13.374C51.8462 13.7034 52.242 13.956 52.6928 14.1316C53.1546 14.3073 53.6603 14.3952 54.21 14.3952C54.7378 14.3952 55.249 14.3128 55.7437 14.1481C56.2494 13.9725 56.7388 13.6814 57.2115 13.2752L58.7287 15.2022C58.102 15.6743 57.3709 16.0367 56.5353 16.2893C55.7108 16.5419 54.8862 16.6681 54.0616 16.6681ZM56.288 14.8563V10.5246H58.7287V15.2022L56.288 14.8563ZM63.6677 9.58576H69.2253V11.6611H63.6677V9.58576ZM63.8656 14.3293H70.1488V16.4705H61.2104V4.94105H69.9345V7.08223H63.8656V14.3293ZM77.8817 16.6681C76.9692 16.6681 76.1226 16.5199 75.342 16.2234C74.5723 15.9269 73.9017 15.5096 73.3301 14.9716C72.7694 14.4336 72.3295 13.8022 72.0107 13.0775C71.7028 12.3528 71.549 11.5622 71.549 10.7058C71.549 9.84929 71.7028 9.0587 72.0107 8.334C72.3295 7.60929 72.7748 6.97791 73.3466 6.43988C73.9182 5.90184 74.5888 5.48458 75.3585 5.18811C76.1281 4.89164 76.9636 4.74341 77.8652 4.74341C78.7777 4.74341 79.6133 4.89164 80.3719 5.18811C81.1415 5.48458 81.8067 5.90184 82.3674 6.43988C82.9391 6.97791 83.3844 7.60929 83.7032 8.334C84.022 9.04773 84.1815 9.83831 84.1815 10.7058C84.1815 11.5622 84.022 12.3583 83.7032 13.094C83.3844 13.8187 82.9391 14.4501 82.3674 14.9881C81.8067 15.5152 81.1415 15.9269 80.3719 16.2234C79.6133 16.5199 78.7832 16.6681 77.8817 16.6681ZM77.8652 14.3952C78.3819 14.3952 78.8547 14.3073 79.2835 14.1316C79.7232 13.956 80.1081 13.7034 80.4379 13.374C80.7677 13.0446 81.0205 12.6548 81.1965 12.2046C81.3833 11.7544 81.4769 11.2548 81.4769 10.7058C81.4769 10.1567 81.3833 9.65714 81.1965 9.20694C81.0205 8.75674 80.7677 8.36694 80.4379 8.03753C80.119 7.70811 79.7397 7.45556 79.3 7.27988C78.8601 7.1042 78.3819 7.01635 77.8652 7.01635C77.3485 7.01635 76.8702 7.1042 76.4305 7.27988C76.0017 7.45556 75.6224 7.70811 75.2926 8.03753C74.9627 8.36694 74.7043 8.75674 74.5175 9.20694C74.3415 9.65714 74.2536 10.1567 74.2536 10.7058C74.2536 11.2438 74.3415 11.7434 74.5175 12.2046C74.7043 12.6548 74.9572 13.0446 75.2761 13.374C75.6059 13.7034 75.9906 13.956 76.4305 14.1316C76.8702 14.3073 77.3485 14.3952 77.8652 14.3952ZM48.4875 36.4705V24.9411H53.4844C54.5178 24.9411 55.4084 25.1113 56.156 25.4516C56.9037 25.7811 57.4809 26.2587 57.8876 26.8846C58.2944 27.5105 58.4978 28.2572 58.4978 29.1246C58.4978 29.9811 58.2944 30.7222 57.8876 31.3481C57.4809 31.974 56.9037 32.4572 56.156 32.7975C55.4084 33.1269 54.5178 33.2916 53.4844 33.2916H49.9717L51.1591 32.0893V36.4705H48.4875ZM51.1591 32.3858L49.9717 31.1175H53.336C54.1606 31.1175 54.7763 30.9419 55.183 30.5905C55.5898 30.2391 55.7932 29.7505 55.7932 29.1246C55.7932 28.4878 55.5898 27.9936 55.183 27.6422C54.7763 27.2908 54.1606 27.1152 53.336 27.1152H49.9717L51.1591 25.8469V32.3858ZM60.4052 36.4705V24.9411H63.0768V34.2963H68.8653V36.4705H60.4052ZM68.9053 36.4705L74.0506 24.9411H76.6893L81.8511 36.4705H79.0476L74.8257 26.2916H75.8812L71.6429 36.4705H68.9053ZM71.4779 33.9999L72.1871 31.974H78.124L78.8497 33.9999H71.4779ZM84.8604 36.4705V27.1152H81.1663V24.9411H91.2261V27.1152H87.532V36.4705H84.8604ZM92.6636 36.4705V24.9411H95.3352V36.4705H92.6636ZM98.0748 36.4705V24.9411H100.285L107.096 33.2422H106.024V24.9411H108.662V36.4705H106.469L99.6415 28.1693H100.713V36.4705H98.0748ZM116.522 36.6681C114.884 36.6681 113.603 36.2125 112.68 35.3011C111.756 34.3896 111.295 33.0885 111.295 31.3975V24.9411H113.966V31.2987C113.966 32.3967 114.192 33.1873 114.642 33.6705C115.093 34.1536 115.725 34.3952 116.539 34.3952C117.353 34.3952 117.985 34.1536 118.435 33.6705C118.886 33.1873 119.111 32.3967 119.111 31.2987V24.9411H121.75V31.3975C121.75 33.0885 121.288 34.3896 120.365 35.3011C119.441 36.2125 118.161 36.6681 116.522 36.6681ZM124.391 36.4705V24.9411H126.601L131.515 33.0775H130.344L135.176 24.9411H137.37L137.403 36.4705H134.896L134.879 28.7787H135.341L131.482 35.2516H130.278L126.337 28.7787H126.898V36.4705H124.391Z" fill="#79A382"/>
<path d="M35.339 2.35303H17.9293L35.339 20.0001V2.35303Z" fill="#79A382"/>
<path d="M0 2.35303H8.83475L35.339 28.5641V37.6471H26.5042L0 11.1766V2.35303Z" fill="#79A382"/>
<path d="M0 37.6471V20L17.9294 37.6471H0Z" fill="#79A382"/>
</svg>
