<svg width="454" height="43" viewBox="0 0 454 43" fill="none" xmlns="http://www.w3.org/2000/svg">
<mask id="path-1-inside-1_2001_2644" fill="white">
<path fill-rule="evenodd" clip-rule="evenodd" d="M248.379 42.446H263.847V0.562367H248.379V42.446ZM162.945 0.562367H140.391L133.323 11.1634L121.7 27.0187L110.076 11.1634L103.009 0.562367H80.455V42.446H95.923V15.0412L115.064 42.2698H128.326L147.468 15.0412V42.446H162.936L162.945 0.562367ZM241.734 20.8075C241.734 17.7607 241.239 15.1755 240.402 12.9596C236.584 1.36815 225.483 0 219.595 0C215.309 0 209.592 0 205.675 0H205.666C201.741 0 196.033 0 191.747 0C185.859 0 174.757 1.36815 170.94 12.9596C170.103 15.1755 169.607 17.7607 169.607 20.8075C169.607 21.0426 169.616 21.2692 169.625 21.5042C169.625 21.7392 169.607 21.9574 169.607 22.1925C169.607 25.2393 170.103 27.8245 170.94 30.0404C174.757 41.6319 185.859 43 191.747 43C196.033 43 201.75 43 205.666 43H205.675C209.601 43 215.309 43 219.595 43C225.483 43 236.584 41.6319 240.402 30.0404C241.239 27.8245 241.734 25.2393 241.734 22.1925C241.734 21.9574 241.725 21.7308 241.716 21.5042C241.716 21.2692 241.734 21.0426 241.734 20.8075ZM224.375 28.5799C223.088 30.0488 221.467 30.9385 220 31.2659C219.73 31.3078 219.46 31.375 219.199 31.375C216.984 31.375 212.194 31.5177 208.277 31.5764C208.259 31.5764 208.25 31.5848 208.232 31.5848C207.656 31.61 206.756 31.61 205.675 31.61C205.675 31.61 205.675 31.61 205.666 31.61C205.666 31.61 205.666 31.61 205.657 31.61C204.586 31.6184 203.677 31.61 203.1 31.5848C203.082 31.5848 203.064 31.5764 203.055 31.5764C199.139 31.5093 194.349 31.375 192.134 31.375C191.873 31.375 191.603 31.3078 191.333 31.2659C189.856 30.9385 188.245 30.0488 186.948 28.5799C185.526 26.8593 184.535 24.4419 184.517 21.5042C184.526 18.5665 185.526 16.1407 186.948 14.4285C188.245 12.9512 189.856 12.0699 191.333 11.7425C191.603 11.7006 191.873 11.6334 192.134 11.6334C194.349 11.6334 199.139 11.4907 203.055 11.432C203.073 11.432 203.082 11.4236 203.1 11.4236C203.677 11.3984 204.577 11.39 205.657 11.3984C205.657 11.3984 205.657 11.3984 205.666 11.3984C205.666 11.3984 205.666 11.3984 205.675 11.3984C206.747 11.39 207.656 11.3984 208.232 11.4236C208.25 11.4236 208.268 11.432 208.277 11.432C212.194 11.4991 216.984 11.6334 219.199 11.6334C219.46 11.6334 219.739 11.7006 220 11.7425C221.476 12.0699 223.088 12.9596 224.375 14.4285C225.798 16.1407 226.797 18.5665 226.806 21.5042C226.788 24.4335 225.798 26.8593 224.375 28.5799ZM72.1358 20.8075C72.1358 17.7607 71.6406 15.1755 70.8033 12.9596C66.9858 1.36815 55.8845 0 49.9963 0C45.7106 0 39.9934 0 36.0679 0H36.0589C32.1334 0 26.4252 0 22.1395 0C16.2513 0 5.14998 1.36815 1.33251 12.9596C0.495187 15.1755 0 17.7607 0 20.8075C0 21.0426 0.00900732 21.2692 0.0180108 21.5042C0.0180108 21.7392 0 21.9574 0 22.1925C0 25.2393 0.495187 27.8245 1.33251 30.0404C5.14998 41.6319 16.2513 43 22.1395 43C26.4252 43 32.1334 43 36.0589 43H36.0679C39.9934 43 45.7106 43 49.9963 43C55.8845 43 66.9858 41.6319 70.8033 30.0404C71.6406 27.8245 72.1358 25.2393 72.1358 22.1925C72.1358 21.9574 72.1268 21.7308 72.1178 21.5042C72.1178 21.2692 72.1358 21.0426 72.1358 20.8075ZM54.7771 28.5799C53.4896 30.0488 51.869 30.9385 50.4014 31.2659C50.1313 31.3078 49.8612 31.375 49.6001 31.375C47.3853 31.375 42.5954 31.5177 38.6789 31.5764C38.6609 31.5764 38.6519 31.5848 38.6339 31.5848C38.0577 31.61 37.1573 31.61 36.0769 31.61C36.0769 31.61 36.0769 31.61 36.0679 31.61C36.0679 31.61 36.0679 31.61 36.0589 31.61C34.9875 31.6184 34.0781 31.61 33.5019 31.5848C33.4839 31.5848 33.4659 31.5764 33.4569 31.5764C29.5404 31.5093 24.7505 31.375 22.5357 31.375C22.2746 31.375 22.0045 31.3078 21.7344 31.2659C20.2578 30.9385 18.6462 30.0488 17.3587 28.5799C15.9361 26.8593 14.9368 24.4419 14.9278 21.5042C14.9368 18.5665 15.9361 16.1407 17.3587 14.4285C18.6462 12.9512 20.2668 12.0699 21.7344 11.7425C22.0045 11.7006 22.2746 11.6334 22.5357 11.6334C24.7505 11.6334 29.5404 11.4907 33.4569 11.432C33.4749 11.432 33.4839 11.4236 33.5019 11.4236C34.0781 11.3984 34.9785 11.39 36.0589 11.3984C36.0589 11.3984 36.0589 11.3984 36.0679 11.3984C36.0679 11.3984 36.0679 11.3984 36.0769 11.3984C37.1483 11.39 38.0577 11.3984 38.6339 11.4236C38.6519 11.4236 38.6699 11.432 38.6789 11.432C42.5954 11.4991 47.3853 11.6334 49.6001 11.6334C49.8612 11.6334 50.1313 11.7006 50.4014 11.7425C51.878 12.0699 53.4896 12.9596 54.7771 14.4285C56.1997 16.1407 57.1991 18.5665 57.2081 21.5042C57.1991 24.4335 56.1997 26.8593 54.7771 28.5799ZM337.045 0.553975H312.33L288.273 14.5376V0.57076H272.805V42.4544H288.273V25.5834L314.977 42.0347H340.142L304.948 19.5065L337.045 0.553975ZM431.374 37.8128C431.158 35.001 432.617 26.6159 423.514 22.4023C423.514 22.4023 430.033 21.5462 430.033 11.155C430.033 0.763811 418.076 0.562367 415.222 0.562367C412.71 0.562367 388.428 0.562367 382.675 0.562367V0.553975H367.207V42.4376H382.675V29.5368H410.423C410.423 29.5368 415.159 28.8317 415.915 33.2551C416.672 37.6701 416.456 41.0863 418.553 42.3873H434.12C434.12 42.3873 431.59 40.6246 431.374 37.8128ZM410.747 19.1456C408.46 19.1456 389.571 19.1456 382.675 19.1456V11.6166C388.572 11.625 408.929 11.6586 410.585 11.6586C412.521 11.6586 414.997 12.414 414.997 15.0244C415.006 17.6348 413.547 19.1456 410.747 19.1456ZM438.532 0.562367V42.446H454V0.562367C453.991 0.562367 438.532 0.562367 438.532 0.562367ZM342.78 42.446H358.248V0.562367H342.78V42.446Z"/>
</mask>
<path fill-rule="evenodd" clip-rule="evenodd" d="M248.379 42.446H263.847V0.562367H248.379V42.446ZM162.945 0.562367H140.391L133.323 11.1634L121.7 27.0187L110.076 11.1634L103.009 0.562367H80.455V42.446H95.923V15.0412L115.064 42.2698H128.326L147.468 15.0412V42.446H162.936L162.945 0.562367ZM241.734 20.8075C241.734 17.7607 241.239 15.1755 240.402 12.9596C236.584 1.36815 225.483 0 219.595 0C215.309 0 209.592 0 205.675 0H205.666C201.741 0 196.033 0 191.747 0C185.859 0 174.757 1.36815 170.94 12.9596C170.103 15.1755 169.607 17.7607 169.607 20.8075C169.607 21.0426 169.616 21.2692 169.625 21.5042C169.625 21.7392 169.607 21.9574 169.607 22.1925C169.607 25.2393 170.103 27.8245 170.94 30.0404C174.757 41.6319 185.859 43 191.747 43C196.033 43 201.75 43 205.666 43H205.675C209.601 43 215.309 43 219.595 43C225.483 43 236.584 41.6319 240.402 30.0404C241.239 27.8245 241.734 25.2393 241.734 22.1925C241.734 21.9574 241.725 21.7308 241.716 21.5042C241.716 21.2692 241.734 21.0426 241.734 20.8075ZM224.375 28.5799C223.088 30.0488 221.467 30.9385 220 31.2659C219.73 31.3078 219.46 31.375 219.199 31.375C216.984 31.375 212.194 31.5177 208.277 31.5764C208.259 31.5764 208.25 31.5848 208.232 31.5848C207.656 31.61 206.756 31.61 205.675 31.61C205.675 31.61 205.675 31.61 205.666 31.61C205.666 31.61 205.666 31.61 205.657 31.61C204.586 31.6184 203.677 31.61 203.1 31.5848C203.082 31.5848 203.064 31.5764 203.055 31.5764C199.139 31.5093 194.349 31.375 192.134 31.375C191.873 31.375 191.603 31.3078 191.333 31.2659C189.856 30.9385 188.245 30.0488 186.948 28.5799C185.526 26.8593 184.535 24.4419 184.517 21.5042C184.526 18.5665 185.526 16.1407 186.948 14.4285C188.245 12.9512 189.856 12.0699 191.333 11.7425C191.603 11.7006 191.873 11.6334 192.134 11.6334C194.349 11.6334 199.139 11.4907 203.055 11.432C203.073 11.432 203.082 11.4236 203.1 11.4236C203.677 11.3984 204.577 11.39 205.657 11.3984C205.657 11.3984 205.657 11.3984 205.666 11.3984C205.666 11.3984 205.666 11.3984 205.675 11.3984C206.747 11.39 207.656 11.3984 208.232 11.4236C208.25 11.4236 208.268 11.432 208.277 11.432C212.194 11.4991 216.984 11.6334 219.199 11.6334C219.46 11.6334 219.739 11.7006 220 11.7425C221.476 12.0699 223.088 12.9596 224.375 14.4285C225.798 16.1407 226.797 18.5665 226.806 21.5042C226.788 24.4335 225.798 26.8593 224.375 28.5799ZM72.1358 20.8075C72.1358 17.7607 71.6406 15.1755 70.8033 12.9596C66.9858 1.36815 55.8845 0 49.9963 0C45.7106 0 39.9934 0 36.0679 0H36.0589C32.1334 0 26.4252 0 22.1395 0C16.2513 0 5.14998 1.36815 1.33251 12.9596C0.495187 15.1755 0 17.7607 0 20.8075C0 21.0426 0.00900732 21.2692 0.0180108 21.5042C0.0180108 21.7392 0 21.9574 0 22.1925C0 25.2393 0.495187 27.8245 1.33251 30.0404C5.14998 41.6319 16.2513 43 22.1395 43C26.4252 43 32.1334 43 36.0589 43H36.0679C39.9934 43 45.7106 43 49.9963 43C55.8845 43 66.9858 41.6319 70.8033 30.0404C71.6406 27.8245 72.1358 25.2393 72.1358 22.1925C72.1358 21.9574 72.1268 21.7308 72.1178 21.5042C72.1178 21.2692 72.1358 21.0426 72.1358 20.8075ZM54.7771 28.5799C53.4896 30.0488 51.869 30.9385 50.4014 31.2659C50.1313 31.3078 49.8612 31.375 49.6001 31.375C47.3853 31.375 42.5954 31.5177 38.6789 31.5764C38.6609 31.5764 38.6519 31.5848 38.6339 31.5848C38.0577 31.61 37.1573 31.61 36.0769 31.61C36.0769 31.61 36.0769 31.61 36.0679 31.61C36.0679 31.61 36.0679 31.61 36.0589 31.61C34.9875 31.6184 34.0781 31.61 33.5019 31.5848C33.4839 31.5848 33.4659 31.5764 33.4569 31.5764C29.5404 31.5093 24.7505 31.375 22.5357 31.375C22.2746 31.375 22.0045 31.3078 21.7344 31.2659C20.2578 30.9385 18.6462 30.0488 17.3587 28.5799C15.9361 26.8593 14.9368 24.4419 14.9278 21.5042C14.9368 18.5665 15.9361 16.1407 17.3587 14.4285C18.6462 12.9512 20.2668 12.0699 21.7344 11.7425C22.0045 11.7006 22.2746 11.6334 22.5357 11.6334C24.7505 11.6334 29.5404 11.4907 33.4569 11.432C33.4749 11.432 33.4839 11.4236 33.5019 11.4236C34.0781 11.3984 34.9785 11.39 36.0589 11.3984C36.0589 11.3984 36.0589 11.3984 36.0679 11.3984C36.0679 11.3984 36.0679 11.3984 36.0769 11.3984C37.1483 11.39 38.0577 11.3984 38.6339 11.4236C38.6519 11.4236 38.6699 11.432 38.6789 11.432C42.5954 11.4991 47.3853 11.6334 49.6001 11.6334C49.8612 11.6334 50.1313 11.7006 50.4014 11.7425C51.878 12.0699 53.4896 12.9596 54.7771 14.4285C56.1997 16.1407 57.1991 18.5665 57.2081 21.5042C57.1991 24.4335 56.1997 26.8593 54.7771 28.5799ZM337.045 0.553975H312.33L288.273 14.5376V0.57076H272.805V42.4544H288.273V25.5834L314.977 42.0347H340.142L304.948 19.5065L337.045 0.553975ZM431.374 37.8128C431.158 35.001 432.617 26.6159 423.514 22.4023C423.514 22.4023 430.033 21.5462 430.033 11.155C430.033 0.763811 418.076 0.562367 415.222 0.562367C412.71 0.562367 388.428 0.562367 382.675 0.562367V0.553975H367.207V42.4376H382.675V29.5368H410.423C410.423 29.5368 415.159 28.8317 415.915 33.2551C416.672 37.6701 416.456 41.0863 418.553 42.3873H434.12C434.12 42.3873 431.59 40.6246 431.374 37.8128ZM410.747 19.1456C408.46 19.1456 389.571 19.1456 382.675 19.1456V11.6166C388.572 11.625 408.929 11.6586 410.585 11.6586C412.521 11.6586 414.997 12.414 414.997 15.0244C415.006 17.6348 413.547 19.1456 410.747 19.1456ZM438.532 0.562367V42.446H454V0.562367C453.991 0.562367 438.532 0.562367 438.532 0.562367ZM342.78 42.446H358.248V0.562367H342.78V42.446Z" fill="white" stroke="black" stroke-width="2" mask="url(#path-1-inside-1_2001_2644)"/>
</svg>
