<svg width="96" height="48" viewBox="0 0 96 48" fill="none" xmlns="http://www.w3.org/2000/svg">
<path d="M0.0841064 24.158C0.0841064 21.973 0.500978 19.903 1.33472 17.9481C2.16846 15.9931 3.31846 14.2681 4.78469 12.7731C6.27968 11.2494 8.00467 10.0563 9.95965 9.19376C11.9146 8.33126 14.0134 7.90002 16.2558 7.90002C18.4696 7.90002 20.5539 8.33126 22.5089 9.19376C24.4639 10.0563 26.1889 11.2494 27.6839 12.7731C29.2076 14.2681 30.3864 15.9931 31.2201 17.9481C32.0826 19.903 32.5138 21.973 32.5138 24.158C32.5138 26.4005 32.0826 28.4992 31.2201 30.4542C30.3864 32.4092 29.2076 34.1342 27.6839 35.6292C26.1889 37.0954 24.4639 38.2454 22.5089 39.0791C20.5539 39.9129 18.4696 40.3298 16.2558 40.3298C14.0134 40.3298 11.9146 39.9129 9.95965 39.0791C8.00467 38.2454 6.27968 37.0954 4.78469 35.6292C3.31846 34.1342 2.16846 32.4092 1.33472 30.4542C0.500978 28.4992 0.0841064 26.4005 0.0841064 24.158ZM6.5528 24.158C6.5528 25.5667 6.79718 26.8892 7.28592 28.1255C7.80342 29.333 8.50779 30.4111 9.39903 31.3598C10.319 32.2798 11.3684 32.9986 12.5471 33.5161C13.7546 34.0336 15.0627 34.2923 16.4715 34.2923C17.8227 34.2923 19.0733 34.0336 20.2233 33.5161C21.4021 32.9986 22.4227 32.2798 23.2852 31.3598C24.1477 30.4111 24.8233 29.333 25.312 28.1255C25.8008 26.8892 26.0451 25.5667 26.0451 24.158C26.0451 22.7205 25.7864 21.3837 25.2689 20.1474C24.7802 18.9112 24.0902 17.8331 23.1989 16.9131C22.3364 15.9643 21.3158 15.2312 20.1371 14.7137C18.9583 14.1962 17.679 13.9375 16.299 13.9375C14.919 13.9375 13.6396 14.1962 12.4609 14.7137C11.2821 15.2312 10.2471 15.9643 9.35591 16.9131C8.46466 17.8331 7.77467 18.9112 7.28592 20.1474C6.79718 21.3837 6.5528 22.7205 6.5528 24.158ZM8.62279 3.58755C8.62279 2.66756 8.93903 1.92007 9.57153 1.34507C10.2328 0.741326 10.9515 0.439453 11.7278 0.439453C12.4465 0.439453 13.1221 0.741326 13.7546 1.34507C14.4159 1.92007 14.7465 2.66756 14.7465 3.58755C14.7465 4.50755 14.4159 5.25504 13.7546 5.83003C13.1221 6.40503 12.4465 6.69253 11.7278 6.69253C10.9515 6.69253 10.2328 6.40503 9.57153 5.83003C8.93903 5.25504 8.62279 4.50755 8.62279 3.58755ZM17.2477 3.58755C17.2477 2.66756 17.564 1.92007 18.1965 1.34507C18.8577 0.741326 19.5764 0.439453 20.3527 0.439453C21.0714 0.439453 21.7471 0.741326 22.3795 1.34507C23.0408 1.92007 23.3714 2.66756 23.3714 3.58755C23.3714 4.50755 23.0408 5.25504 22.3795 5.83003C21.7471 6.40503 21.0714 6.69253 20.3527 6.69253C19.5764 6.69253 18.8577 6.40503 18.1965 5.83003C17.564 5.25504 17.2477 4.50755 17.2477 3.58755Z" fill="#111111"/>
<path d="M38.1012 26.0555C37.0662 26.0555 36.1606 25.6817 35.3843 24.9343C34.6081 24.1868 34.22 23.1805 34.22 21.9155V19.3281H38.748V19.9318C38.748 20.5355 38.8487 20.8949 39.0499 21.0099C39.2799 21.0962 39.668 21.1393 40.2143 21.1393H52.1598L41.7236 36.3192L40.6024 35.0685H52.0304V39.9848H32.9262L43.6643 24.3305L44.5699 26.0555H38.1012Z" fill="#111111"/>
<path d="M55.1122 21.1393H61.1496V39.9848H55.1122V21.1393ZM54.9828 14.455C54.9828 13.5637 55.3278 12.8306 56.0178 12.2556C56.7365 11.6806 57.4984 11.3931 58.3034 11.3931C59.1084 11.3931 59.8415 11.6806 60.5027 12.2556C61.1927 12.8306 61.5377 13.5637 61.5377 14.455C61.5377 15.3462 61.1927 16.0793 60.5027 16.6543C59.8415 17.2006 59.1084 17.4737 58.3034 17.4737C57.4984 17.4737 56.7365 17.2006 56.0178 16.6543C55.3278 16.0793 54.9828 15.3462 54.9828 14.455Z" fill="#111111"/>
<path d="M70.2567 21.1393L70.731 24.4599L70.6448 24.2011C71.3923 22.9361 72.3266 21.9587 73.4479 21.2687C74.5691 20.5499 75.9204 20.1905 77.5016 20.1905C78.5366 20.1905 79.4422 20.3343 80.2185 20.6218C81.0235 20.9093 81.6991 21.3405 82.2453 21.9155C82.7916 22.4618 83.1653 23.1805 83.3666 24.0718L83.1509 24.1149C83.9559 22.9361 84.919 21.9874 86.0403 21.2687C87.1903 20.5499 88.3834 20.1905 89.6196 20.1905C91.4884 20.1905 92.969 20.7224 94.0615 21.7862C95.1827 22.8211 95.7577 24.1724 95.7865 25.8399V39.9848H89.7921V28.3411C89.7634 27.5074 89.634 26.8317 89.404 26.3142C89.174 25.768 88.6421 25.4661 87.8084 25.4086C86.8309 25.4086 85.9972 25.7536 85.3072 26.4436C84.6459 27.1049 84.1428 27.9674 83.7978 29.0311C83.4816 30.0661 83.3234 31.1442 83.3234 32.2654V39.9848H77.286V28.3411C77.2572 27.5074 77.0991 26.8317 76.8116 26.3142C76.5529 25.768 76.0066 25.4661 75.1729 25.4086C74.2241 25.4086 73.4191 25.7536 72.7579 26.4436C72.1254 27.1049 71.6367 27.953 71.2917 28.988C70.9754 30.023 70.8173 31.0867 70.8173 32.1792V39.9848H64.7798V21.1393H70.2567Z" fill="#111111"/>
<path d="M7.85909 47.6161H7.38517V46.5911H4.94397V43.6374H5.4289V46.1833H6.95535V43.6374H7.44028V46.1888H7.85909V47.6161Z" fill="#111111"/>
<path d="M9.56647 43.5823C9.81996 43.5823 10.0367 43.6374 10.2167 43.7476C10.4004 43.8578 10.54 44.014 10.6355 44.216C10.7347 44.4144 10.7843 44.6477 10.7843 44.9159V45.2079H8.76192C8.76927 45.5423 8.85377 45.7976 9.01541 45.9739C9.18073 46.1466 9.41034 46.2329 9.70424 46.2329C9.8916 46.2329 10.0569 46.2164 10.2002 46.1833C10.3471 46.1466 10.4978 46.0952 10.6521 46.029V46.4533C10.5014 46.5195 10.3527 46.5672 10.2057 46.5966C10.0588 46.6297 9.88425 46.6462 9.6822 46.6462C9.40299 46.6462 9.15502 46.5893 8.93826 46.4754C8.72519 46.3615 8.55803 46.1925 8.4368 45.9684C8.31924 45.7406 8.26046 45.4633 8.26046 45.1363C8.26046 44.813 8.31373 44.5357 8.42027 44.3042C8.53048 44.0728 8.68294 43.8946 8.87765 43.7697C9.07603 43.6448 9.30564 43.5823 9.56647 43.5823ZM9.56096 43.9791C9.32952 43.9791 9.14583 44.0544 9.0099 44.205C8.87765 44.352 8.79866 44.5577 8.77295 44.8222H10.2773C10.2773 44.6532 10.2516 44.5063 10.2002 44.3814C10.1488 44.2564 10.0698 44.1591 9.96324 44.0893C9.86037 44.0158 9.72628 43.9791 9.56096 43.9791Z" fill="#111111"/>
<path d="M12.0212 43.6374V44.8663H13.6248V43.6374H14.1097V46.5911H13.6248V45.2741H12.0212V46.5911H11.5363V43.6374H12.0212Z" fill="#111111"/>
<path d="M17.0839 44.0452H16.1195V46.5911H15.6401V44.0452H14.6868V43.6374H17.0839V44.0452Z" fill="#111111"/>
<path d="M19.071 43.5823C19.4347 43.5823 19.7267 43.7091 19.9471 43.9625C20.1712 44.216 20.2833 44.5981 20.2833 45.1088C20.2833 45.4431 20.2319 45.7259 20.129 45.9574C20.0298 46.1852 19.8884 46.3578 19.7047 46.4754C19.5247 46.5893 19.3116 46.6462 19.0654 46.6462C18.9148 46.6462 18.7807 46.626 18.6632 46.5856C18.5456 46.5452 18.4446 46.4938 18.3601 46.4313C18.2793 46.3652 18.2095 46.2935 18.1507 46.2164H18.1176C18.125 46.2788 18.1323 46.3578 18.1397 46.4533C18.147 46.5489 18.1507 46.6315 18.1507 46.7013V47.9137H17.6658V43.6374H18.0625L18.1286 44.0397H18.1507C18.2095 43.9552 18.2793 43.8781 18.3601 43.8082C18.4446 43.7384 18.5438 43.6833 18.6577 43.6429C18.7752 43.6025 18.913 43.5823 19.071 43.5823ZM18.9828 43.9901C18.7844 43.9901 18.6246 44.0287 18.5034 44.1058C18.3821 44.1793 18.294 44.2913 18.2389 44.442C18.1837 44.5926 18.1544 44.7836 18.1507 45.0151V45.1088C18.1507 45.3512 18.1764 45.557 18.2278 45.7259C18.2793 45.8949 18.3656 46.0235 18.4868 46.1117C18.6117 46.1999 18.7807 46.2439 18.9938 46.2439C19.1738 46.2439 19.3208 46.1943 19.4347 46.0952C19.5522 45.996 19.6386 45.8619 19.6937 45.6929C19.7524 45.5202 19.7818 45.3237 19.7818 45.1032C19.7818 44.7653 19.7157 44.4952 19.5834 44.2932C19.4549 44.0911 19.2546 43.9901 18.9828 43.9901Z" fill="#111111"/>
<path d="M24.2156 43.5823C24.5793 43.5823 24.8714 43.7091 25.0918 43.9625C25.3159 44.216 25.428 44.5981 25.428 45.1088C25.428 45.4431 25.3765 45.7259 25.2737 45.9574C25.1745 46.1852 25.033 46.3578 24.8494 46.4754C24.6693 46.5893 24.4563 46.6462 24.2101 46.6462C24.0595 46.6462 23.9254 46.626 23.8079 46.5856C23.6903 46.5452 23.5893 46.4938 23.5048 46.4313C23.4239 46.3652 23.3541 46.2935 23.2954 46.2164H23.2623C23.2696 46.2788 23.277 46.3578 23.2843 46.4533C23.2917 46.5489 23.2954 46.6315 23.2954 46.7013V47.9137H22.8104V43.6374H23.2072L23.2733 44.0397H23.2954C23.3541 43.9552 23.4239 43.8781 23.5048 43.8082C23.5893 43.7384 23.6885 43.6833 23.8023 43.6429C23.9199 43.6025 24.0577 43.5823 24.2156 43.5823ZM24.1275 43.9901C23.9291 43.9901 23.7693 44.0287 23.648 44.1058C23.5268 44.1793 23.4386 44.2913 23.3835 44.442C23.3284 44.5926 23.299 44.7836 23.2954 45.0151V45.1088C23.2954 45.3512 23.3211 45.557 23.3725 45.7259C23.4239 45.8949 23.5103 46.0235 23.6315 46.1117C23.7564 46.1999 23.9254 46.2439 24.1385 46.2439C24.3185 46.2439 24.4655 46.1943 24.5793 46.0952C24.6969 45.996 24.7832 45.8619 24.8383 45.6929C24.8971 45.5202 24.9265 45.3237 24.9265 45.1032C24.9265 44.7653 24.8604 44.4952 24.7281 44.2932C24.5995 44.0911 24.3993 43.9901 24.1275 43.9901Z" fill="#111111"/>
<path d="M27.3194 43.5878C27.6794 43.5878 27.9458 43.6668 28.1184 43.8248C28.2911 43.9828 28.3774 44.2344 28.3774 44.5797V46.5911H28.0248L27.9311 46.1723H27.909C27.8245 46.2788 27.7364 46.3689 27.6445 46.4423C27.5564 46.5121 27.4535 46.5636 27.3359 46.5966C27.2221 46.6297 27.0825 46.6462 26.9171 46.6462C26.7408 46.6462 26.581 46.615 26.4377 46.5525C26.2981 46.4901 26.1879 46.3946 26.1071 46.266C26.0262 46.1337 25.9858 45.9684 25.9858 45.77C25.9858 45.4761 26.1016 45.2502 26.333 45.0922C26.5645 44.9306 26.9208 44.8424 27.4021 44.8277L27.9035 44.8112V44.6348C27.9035 44.3887 27.8503 44.2179 27.7437 44.1224C27.6372 44.0268 27.4866 43.9791 27.2919 43.9791C27.1376 43.9791 26.9906 44.003 26.851 44.0507C26.7114 44.0948 26.581 44.1462 26.4598 44.205L26.311 43.8413C26.4395 43.7715 26.592 43.7127 26.7683 43.665C26.9447 43.6135 27.1284 43.5878 27.3194 43.5878ZM27.4627 45.1639C27.0953 45.1786 26.84 45.2373 26.6967 45.3402C26.5571 45.4431 26.4873 45.5882 26.4873 45.7755C26.4873 45.9409 26.5369 46.0621 26.6361 46.1392C26.739 46.2164 26.8694 46.255 27.0273 46.255C27.2772 46.255 27.4847 46.187 27.65 46.0511C27.8154 45.9115 27.898 45.6984 27.898 45.4118V45.1473L27.4627 45.1639Z" fill="#111111"/>
<path d="M30.0667 43.5823C30.2908 43.5823 30.4855 43.6135 30.6508 43.676C30.8162 43.7348 30.9447 43.8229 31.0366 43.9405C31.1284 44.0544 31.1743 44.194 31.1743 44.3593C31.1743 44.5393 31.1248 44.6826 31.0256 44.7891C30.9264 44.892 30.7904 44.9673 30.6178 45.0151V45.0371C30.7353 45.0702 30.8437 45.1161 30.9429 45.1749C31.0421 45.2337 31.1211 45.3108 31.1799 45.4063C31.2423 45.5018 31.2735 45.6249 31.2735 45.7755C31.2735 45.9372 31.2276 46.0841 31.1358 46.2164C31.0476 46.3486 30.9098 46.4533 30.7225 46.5305C30.5388 46.6076 30.3018 46.6462 30.0116 46.6462C29.872 46.6462 29.7379 46.6389 29.6093 46.6242C29.4844 46.6095 29.3705 46.5874 29.2677 46.558C29.1685 46.5287 29.0803 46.4938 29.0032 46.4533V46.018C29.1281 46.0768 29.275 46.1301 29.444 46.1778C29.6167 46.2256 29.804 46.2495 30.0061 46.2495C30.153 46.2495 30.2853 46.2329 30.4029 46.1999C30.5241 46.1668 30.6196 46.1154 30.6894 46.0456C30.7592 45.9721 30.7941 45.8729 30.7941 45.748C30.7941 45.6341 30.7629 45.5423 30.7004 45.4725C30.638 45.399 30.5443 45.3439 30.4194 45.3071C30.2982 45.2704 30.142 45.252 29.951 45.252H29.5542V44.8553H29.8738C30.1273 44.8553 30.3294 44.8222 30.48 44.7561C30.6343 44.6863 30.7115 44.5687 30.7115 44.4034C30.7115 44.2638 30.6527 44.1591 30.5351 44.0893C30.4212 44.0195 30.2559 43.9846 30.0392 43.9846C29.8775 43.9846 29.7342 44.0011 29.6093 44.0342C29.4881 44.0636 29.354 44.1095 29.2071 44.172L29.0362 43.7862C29.1942 43.7164 29.3595 43.665 29.5322 43.6319C29.7048 43.5988 29.883 43.5823 30.0667 43.5823Z" fill="#111111"/>
<path d="M34.3663 44.3814C34.3663 44.565 34.3112 44.7083 34.201 44.8112C34.0908 44.914 33.9493 44.9838 33.7766 45.0206V45.0426C33.9603 45.0683 34.1201 45.1345 34.2561 45.241C34.392 45.3439 34.46 45.5055 34.46 45.7259C34.46 45.8509 34.4361 45.9666 34.3883 46.0731C34.3442 46.1797 34.2744 46.2715 34.1789 46.3486C34.0834 46.4258 33.9603 46.4864 33.8097 46.5305C33.6591 46.5709 33.4772 46.5911 33.2642 46.5911H31.9912V43.6374H33.2586C33.4681 43.6374 33.6554 43.6613 33.8207 43.7091C33.9897 43.7531 34.122 43.8303 34.2175 43.9405C34.3167 44.047 34.3663 44.194 34.3663 44.3814ZM33.9585 45.7259C33.9585 45.557 33.8942 45.4357 33.7656 45.3622C33.637 45.2888 33.4478 45.252 33.198 45.252H32.4761V46.1999H33.2091C33.4515 46.1999 33.637 46.165 33.7656 46.0952C33.8942 46.0217 33.9585 45.8986 33.9585 45.7259ZM33.8758 44.442C33.8758 44.3024 33.8244 44.2013 33.7215 44.1389C33.6223 44.0728 33.4589 44.0397 33.2311 44.0397H32.4761V44.8498H33.1429C33.3817 44.8498 33.5636 44.8167 33.6885 44.7506C33.8134 44.6844 33.8758 44.5816 33.8758 44.442Z" fill="#111111"/>
<path d="M35.6237 45.4394C35.6237 45.4725 35.6218 45.5202 35.6181 45.5827C35.6181 45.6414 35.6163 45.7057 35.6126 45.7755C35.609 45.8417 35.6053 45.906 35.6016 45.9684C35.5979 46.0272 35.5943 46.075 35.5906 46.1117L37.1721 43.6374H37.7673V46.5911H37.3154V44.8498C37.3154 44.791 37.3154 44.7138 37.3154 44.6183C37.3191 44.5228 37.3228 44.4291 37.3264 44.3373C37.3301 44.2418 37.3338 44.1701 37.3375 44.1224L35.7669 46.5911H35.1663V43.6374H35.6237V45.4394Z" fill="#111111"/>
<path d="M40.7462 44.0452H39.7818V46.5911H39.3024V44.0452H38.3491V43.6374H40.7462V44.0452Z" fill="#111111"/>
<path d="M41.7854 45.4394C41.7854 45.4725 41.7836 45.5202 41.7799 45.5827C41.7799 45.6414 41.7781 45.7057 41.7744 45.7755C41.7707 45.8417 41.7671 45.906 41.7634 45.9684C41.7597 46.0272 41.756 46.075 41.7524 46.1117L43.3339 43.6374H43.9291V46.5911H43.4772V44.8498C43.4772 44.791 43.4772 44.7138 43.4772 44.6183C43.4809 44.5228 43.4845 44.4291 43.4882 44.3373C43.4919 44.2418 43.4956 44.1701 43.4992 44.1224L41.9287 46.5911H41.328V43.6374H41.7854V45.4394Z" fill="#111111"/>
<path d="M45.0509 46.5911H44.4888L45.3319 45.3512C45.2181 45.3218 45.1078 45.2759 45.0013 45.2135C44.8948 45.1473 44.8084 45.0573 44.7423 44.9434C44.6762 44.8259 44.6431 44.6808 44.6431 44.5081C44.6431 44.2252 44.7386 44.0103 44.9297 43.8634C45.1207 43.7127 45.3742 43.6374 45.6901 43.6374H47.0127V46.5911H46.5277V45.4174H45.8114L45.0509 46.5911ZM45.1115 44.5136C45.1115 44.6826 45.174 44.8093 45.2989 44.8938C45.4275 44.9747 45.6056 45.0151 45.8334 45.0151H46.5277V44.0397H45.7397C45.5156 44.0397 45.354 44.0838 45.2548 44.172C45.1593 44.2601 45.1115 44.374 45.1115 44.5136Z" fill="#111111"/>
<path d="M52.2696 45.1088C52.2696 45.3549 52.2365 45.5735 52.1704 45.7645C52.1079 45.9519 52.0161 46.1117 51.8948 46.2439C51.7773 46.3762 51.6322 46.4772 51.4595 46.547C51.2905 46.6132 51.1013 46.6462 50.8919 46.6462C50.6972 46.6462 50.5172 46.6132 50.3519 46.547C50.1865 46.4772 50.0433 46.3762 49.922 46.2439C49.8008 46.1117 49.7053 45.9519 49.6355 45.7645C49.5693 45.5735 49.5363 45.3549 49.5363 45.1088C49.5363 44.7818 49.5914 44.5063 49.7016 44.2822C49.8118 44.0544 49.9698 43.8817 50.1755 43.7642C50.3812 43.6429 50.6256 43.5823 50.9084 43.5823C51.1766 43.5823 51.4117 43.6429 51.6138 43.7642C51.8195 43.8817 51.9793 44.0544 52.0932 44.2822C52.2108 44.5063 52.2696 44.7818 52.2696 45.1088ZM50.0378 45.1088C50.0378 45.3402 50.0671 45.5423 50.1259 45.7149C50.1884 45.8839 50.2839 46.0143 50.4125 46.1062C50.5411 46.198 50.7045 46.2439 50.9029 46.2439C51.1013 46.2439 51.2648 46.198 51.3934 46.1062C51.5219 46.0143 51.6156 45.8839 51.6744 45.7149C51.7369 45.5423 51.7681 45.3402 51.7681 45.1088C51.7681 44.8736 51.7369 44.6734 51.6744 44.5081C51.612 44.3428 51.5164 44.216 51.3879 44.1279C51.2629 44.036 51.0995 43.9901 50.8974 43.9901C50.5962 43.9901 50.3776 44.0893 50.2416 44.2877C50.1057 44.4861 50.0378 44.7597 50.0378 45.1088Z" fill="#111111"/>
<path d="M54.2229 46.6462C53.9621 46.6462 53.7288 46.5929 53.523 46.4864C53.321 46.3799 53.1612 46.2146 53.0436 45.9905C52.9297 45.7664 52.8728 45.4798 52.8728 45.1308C52.8728 44.7671 52.9334 44.4714 53.0546 44.2436C53.1759 44.0158 53.3394 43.8487 53.5451 43.7421C53.7545 43.6356 53.9915 43.5823 54.256 43.5823C54.4066 43.5823 54.5517 43.5988 54.6913 43.6319C54.8309 43.6613 54.9448 43.698 55.033 43.7421L54.8842 44.1444C54.796 44.1113 54.6931 44.0801 54.5756 44.0507C54.458 44.0213 54.3478 44.0066 54.2449 44.0066C54.0466 44.0066 53.8831 44.0489 53.7545 44.1334C53.6259 44.2179 53.5304 44.3428 53.4679 44.5081C53.4055 44.6734 53.3743 44.8791 53.3743 45.1253C53.3743 45.3604 53.4055 45.5606 53.4679 45.7259C53.5304 45.8913 53.6241 46.0162 53.749 46.1007C53.8739 46.1852 54.03 46.2274 54.2174 46.2274C54.379 46.2274 54.5205 46.2109 54.6417 46.1778C54.7666 46.1448 54.8805 46.1043 54.9834 46.0566V46.4864C54.8842 46.5378 54.774 46.5764 54.6527 46.6021C54.5352 46.6315 54.3919 46.6462 54.2229 46.6462Z" fill="#111111"/>
<path d="M58.2537 45.1088C58.2537 45.3549 58.2207 45.5735 58.1545 45.7645C58.0921 45.9519 58.0003 46.1117 57.879 46.2439C57.7615 46.3762 57.6163 46.4772 57.4437 46.547C57.2747 46.6132 57.0855 46.6462 56.8761 46.6462C56.6814 46.6462 56.5014 46.6132 56.336 46.547C56.1707 46.4772 56.0275 46.3762 55.9062 46.2439C55.785 46.1117 55.6895 45.9519 55.6197 45.7645C55.5535 45.5735 55.5205 45.3549 55.5205 45.1088C55.5205 44.7818 55.5756 44.5063 55.6858 44.2822C55.796 44.0544 55.954 43.8817 56.1597 43.7642C56.3654 43.6429 56.6097 43.5823 56.8926 43.5823C57.1608 43.5823 57.3959 43.6429 57.598 43.7642C57.8037 43.8817 57.9635 44.0544 58.0774 44.2822C58.195 44.5063 58.2537 44.7818 58.2537 45.1088ZM56.0219 45.1088C56.0219 45.3402 56.0513 45.5423 56.1101 45.7149C56.1726 45.8839 56.2681 46.0143 56.3967 46.1062C56.5252 46.198 56.6887 46.2439 56.8871 46.2439C57.0855 46.2439 57.249 46.198 57.3776 46.1062C57.5061 46.0143 57.5998 45.8839 57.6586 45.7149C57.721 45.5423 57.7523 45.3402 57.7523 45.1088C57.7523 44.8736 57.721 44.6734 57.6586 44.5081C57.5961 44.3428 57.5006 44.216 57.372 44.1279C57.2471 44.036 57.0837 43.9901 56.8816 43.9901C56.5803 43.9901 56.3618 44.0893 56.2258 44.2877C56.0899 44.4861 56.0219 44.7597 56.0219 45.1088Z" fill="#111111"/>
<path d="M58.868 44.8167C58.868 44.3869 58.9102 44.0213 58.9947 43.7201C59.0829 43.4152 59.217 43.1727 59.397 42.9927C59.5807 42.809 59.8158 42.6859 60.1024 42.6235C60.3412 42.572 60.5745 42.5261 60.8022 42.4857C61.03 42.4453 61.2431 42.4086 61.4415 42.3755L61.5241 42.7998C61.4286 42.8145 61.3221 42.8329 61.2045 42.8549C61.0869 42.8733 60.9675 42.8935 60.8463 42.9155C60.7251 42.9339 60.6075 42.9541 60.4936 42.9761C60.3834 42.9945 60.2861 43.0129 60.2016 43.0313C60.0803 43.057 59.972 43.1011 59.8764 43.1635C59.7809 43.2223 59.6983 43.3031 59.6285 43.406C59.5623 43.5088 59.5091 43.6356 59.4687 43.7862C59.4282 43.9368 59.4044 44.115 59.397 44.3207H59.4301C59.4815 44.2509 59.5513 44.1793 59.6395 44.1058C59.7313 44.0323 59.8397 43.9699 59.9646 43.9185C60.0932 43.867 60.2383 43.8413 60.4 43.8413C60.6571 43.8413 60.8702 43.8983 61.0392 44.0121C61.2119 44.1224 61.3404 44.2767 61.4249 44.475C61.5131 44.6734 61.5572 44.9049 61.5572 45.1694C61.5572 45.4963 61.5002 45.77 61.3864 45.9905C61.2725 46.2109 61.1145 46.3762 60.9124 46.4864C60.7104 46.5929 60.4753 46.6462 60.2071 46.6462C60.005 46.6462 59.8213 46.6076 59.656 46.5305C59.4907 46.4497 59.3493 46.3321 59.2317 46.1778C59.1141 46.0235 59.0241 45.8325 58.9617 45.6047C58.8992 45.3769 58.868 45.1143 58.868 44.8167ZM60.2457 46.2439C60.4073 46.2439 60.5469 46.2109 60.6645 46.1448C60.7857 46.0786 60.8794 45.9702 60.9455 45.8196C61.0116 45.669 61.0447 45.4688 61.0447 45.219C61.0447 44.9177 60.9878 44.6808 60.8739 44.5081C60.7637 44.3318 60.58 44.2436 60.3228 44.2436C60.1612 44.2436 60.0142 44.2803 59.882 44.3538C59.7497 44.4236 59.6395 44.5044 59.5513 44.5963C59.4632 44.6881 59.4007 44.7653 59.364 44.8277C59.364 45.0077 59.3768 45.1822 59.4025 45.3512C59.4282 45.5202 59.4723 45.6727 59.5348 45.8086C59.6009 45.9409 59.6909 46.0474 59.8048 46.1282C59.9224 46.2054 60.0693 46.2439 60.2457 46.2439Z" fill="#111111"/>
<path d="M63.4618 43.5823C63.7153 43.5823 63.9321 43.6374 64.1121 43.7476C64.2958 43.8578 64.4354 44.014 64.5309 44.216C64.6301 44.4144 64.6797 44.6477 64.6797 44.9159V45.2079H62.6573C62.6646 45.5423 62.7491 45.7976 62.9108 45.9739C63.0761 46.1466 63.3057 46.2329 63.5996 46.2329C63.787 46.2329 63.9523 46.2164 64.0956 46.1833C64.2425 46.1466 64.3931 46.0952 64.5474 46.029V46.4533C64.3968 46.5195 64.248 46.5672 64.1011 46.5966C63.9541 46.6297 63.7796 46.6462 63.5776 46.6462C63.2984 46.6462 63.0504 46.5893 62.8336 46.4754C62.6205 46.3615 62.4534 46.1925 62.3322 45.9684C62.2146 45.7406 62.1558 45.4633 62.1558 45.1363C62.1558 44.813 62.2091 44.5357 62.3156 44.3042C62.4258 44.0728 62.5783 43.8946 62.773 43.7697C62.9714 43.6448 63.201 43.5823 63.4618 43.5823ZM63.4563 43.9791C63.2249 43.9791 63.0412 44.0544 62.9053 44.205C62.773 44.352 62.694 44.5577 62.6683 44.8222H64.1727C64.1727 44.6532 64.147 44.5063 64.0956 44.3814C64.0441 44.2564 63.9651 44.1591 63.8586 44.0893C63.7557 44.0158 63.6216 43.9791 63.4563 43.9791Z" fill="#111111"/>
<path d="M65.9166 43.6374V44.8663H67.5201V43.6374H68.0051V46.5911H67.5201V45.2741H65.9166V46.5911H65.4316V43.6374H65.9166Z" fill="#111111"/>
<path d="M69.4253 43.6374V44.8663H71.0289V43.6374H71.5138V46.5911H71.0289V45.2741H69.4253V46.5911H68.9403V43.6374H69.4253Z" fill="#111111"/>
<path d="M72.4491 46.5911V43.6374H72.934V44.8498H73.7C73.9571 44.8498 74.1684 44.881 74.3337 44.9434C74.499 45.0059 74.6221 45.0996 74.7029 45.2245C74.7837 45.3457 74.8241 45.5 74.8241 45.6874C74.8241 45.8711 74.7837 46.0309 74.7029 46.1668C74.6257 46.3027 74.5027 46.4074 74.3337 46.4809C74.1684 46.5544 73.9498 46.5911 73.6779 46.5911H72.4491ZM73.6338 46.1999C73.8432 46.1999 74.0141 46.165 74.1463 46.0952C74.2786 46.0217 74.3447 45.8949 74.3447 45.7149C74.3447 45.5349 74.2841 45.4137 74.1629 45.3512C74.0416 45.2851 73.8671 45.252 73.6394 45.252H72.934V46.1999H73.6338ZM75.3146 46.5911V43.6374H75.7995V46.5911H75.3146Z" fill="#111111"/>
<path d="M77.4379 45.0812L76.4185 43.6374H76.9695L77.73 44.7506L78.4849 43.6374H79.0305L78.011 45.0812L79.0856 46.5911H78.5345L77.73 45.4118L76.9144 46.5911H76.3689L77.4379 45.0812Z" fill="#111111"/>
<path d="M83.6024 43.6374V46.1833H84.0322V47.6161H83.5638V46.5911H81.5084V47.6161H81.0455V46.1833H81.2824C81.4514 45.9482 81.591 45.6929 81.7013 45.4174C81.8151 45.1381 81.8996 44.8479 81.9547 44.5467C82.0135 44.2418 82.0447 43.9387 82.0484 43.6374H83.6024ZM82.4782 44.0177C82.4636 44.2675 82.425 44.5265 82.3625 44.7947C82.3001 45.0592 82.2193 45.3126 82.1201 45.5551C82.0245 45.7976 81.9125 46.007 81.7839 46.1833H83.134V44.0177H82.4782Z" fill="#111111"/>
<path d="M85.7519 43.5823C86.0053 43.5823 86.2221 43.6374 86.4021 43.7476C86.5858 43.8578 86.7254 44.014 86.8209 44.216C86.9201 44.4144 86.9697 44.6477 86.9697 44.9159V45.2079H84.9473C84.9547 45.5423 85.0392 45.7976 85.2008 45.9739C85.3661 46.1466 85.5957 46.2329 85.8896 46.2329C86.077 46.2329 86.2423 46.2164 86.3856 46.1833C86.5325 46.1466 86.6832 46.0952 86.8374 46.029V46.4533C86.6868 46.5195 86.538 46.5672 86.3911 46.5966C86.2441 46.6297 86.0696 46.6462 85.8676 46.6462C85.5884 46.6462 85.3404 46.5893 85.1236 46.4754C84.9106 46.3615 84.7434 46.1925 84.6222 45.9684C84.5046 45.7406 84.4458 45.4633 84.4458 45.1363C84.4458 44.813 84.4991 44.5357 84.6057 44.3042C84.7159 44.0728 84.8683 43.8946 85.063 43.7697C85.2614 43.6448 85.491 43.5823 85.7519 43.5823ZM85.7463 43.9791C85.5149 43.9791 85.3312 44.0544 85.1953 44.205C85.063 44.352 84.984 44.5577 84.9583 44.8222H86.4627C86.4627 44.6532 86.437 44.5063 86.3856 44.3814C86.3341 44.2564 86.2552 44.1591 86.1486 44.0893C86.0458 44.0158 85.9117 43.9791 85.7463 43.9791Z" fill="#111111"/>
<path d="M89.7606 44.0452H88.7962V46.5911H88.3168V44.0452H87.3635V43.6374H89.7606V44.0452Z" fill="#111111"/>
<path d="M91.4293 43.5823C91.6828 43.5823 91.8995 43.6374 92.0796 43.7476C92.2632 43.8578 92.4028 44.014 92.4984 44.216C92.5976 44.4144 92.6471 44.6477 92.6471 44.9159V45.2079H90.6248C90.6321 45.5423 90.7166 45.7976 90.8782 45.9739C91.0436 46.1466 91.2732 46.2329 91.5671 46.2329C91.7544 46.2329 91.9197 46.2164 92.063 46.1833C92.21 46.1466 92.3606 46.0952 92.5149 46.029V46.4533C92.3643 46.5195 92.2155 46.5672 92.0685 46.5966C91.9216 46.6297 91.7471 46.6462 91.545 46.6462C91.2658 46.6462 91.0178 46.5893 90.8011 46.4754C90.588 46.3615 90.4209 46.1925 90.2996 45.9684C90.1821 45.7406 90.1233 45.4633 90.1233 45.1363C90.1233 44.813 90.1766 44.5357 90.2831 44.3042C90.3933 44.0728 90.5458 43.8946 90.7405 43.7697C90.9389 43.6448 91.1685 43.5823 91.4293 43.5823ZM91.4238 43.9791C91.1923 43.9791 91.0087 44.0544 90.8727 44.205C90.7405 44.352 90.6615 44.5577 90.6358 44.8222H92.1402C92.1402 44.6532 92.1145 44.5063 92.063 44.3814C92.0116 44.2564 91.9326 44.1591 91.8261 44.0893C91.7232 44.0158 91.5891 43.9791 91.4238 43.9791Z" fill="#111111"/>
<path d="M95.7907 42.4141C95.776 42.5978 95.7301 42.752 95.6529 42.877C95.5795 43.0019 95.4693 43.0955 95.3223 43.158C95.1754 43.2205 94.9843 43.2517 94.7492 43.2517C94.5104 43.2517 94.3175 43.2205 94.1706 43.158C94.0273 43.0955 93.9226 43.0037 93.8565 42.8825C93.7904 42.7576 93.7499 42.6014 93.7352 42.4141H94.1871C94.2055 42.6124 94.2569 42.7465 94.3414 42.8163C94.4296 42.8825 94.5692 42.9155 94.7602 42.9155C94.9292 42.9155 95.0615 42.8806 95.157 42.8108C95.2562 42.7374 95.315 42.6051 95.3333 42.4141H95.7907ZM93.8565 45.4394C93.8565 45.4725 93.8546 45.5202 93.851 45.5827C93.851 45.6414 93.8491 45.7057 93.8455 45.7755C93.8418 45.8417 93.8381 45.906 93.8344 45.9684C93.8308 46.0272 93.8271 46.075 93.8234 46.1117L95.405 43.6374H96.0001V46.5911H95.5482V44.8498C95.5482 44.791 95.5482 44.7138 95.5482 44.6183C95.5519 44.5228 95.5556 44.4291 95.5593 44.3373C95.5629 44.2418 95.5666 44.1701 95.5703 44.1224L93.9997 46.5911H93.3991V43.6374H93.8565V45.4394Z" fill="#111111"/>
</svg>
