<svg width="64" height="36" viewBox="0 0 64 36" fill="none" xmlns="http://www.w3.org/2000/svg">
<mask id="mask0_3778_47805" style="mask-type:alpha" maskUnits="userSpaceOnUse" x="0" y="0" width="31" height="36">
<path d="M20.6512 9.12166C20.6512 4.15941 24.6739 0.136719 29.6362 0.136719C29.9061 0.136719 30.1249 0.355527 30.1249 0.62544V22.7586C30.1249 25.4484 29.4888 27.7762 28.2165 29.7418C26.9557 31.6959 25.195 33.2075 22.9345 34.2765C20.674 35.334 18.05 35.8628 15.0625 35.8628C12.0522 35.8628 9.41687 35.334 7.15637 34.2765C4.89587 33.2075 3.13517 31.6959 1.87429 29.7418C0.624762 27.7762 0 25.4484 0 22.7586V0.700628C0 0.38919 0.252471 0.136719 0.563909 0.136719C5.48463 0.136719 9.47367 4.12575 9.47367 9.04648V21.931C9.47367 23.023 9.71221 24.0001 10.1893 24.8622C10.6664 25.7128 11.3252 26.3795 12.1658 26.8623C13.0178 27.3451 13.9833 27.5865 15.0625 27.5865C16.1529 27.5865 17.1185 27.3451 17.9591 26.8623C18.7997 26.3795 19.4585 25.7128 19.9356 24.8622C20.4127 24.0001 20.6512 23.023 20.6512 21.931V9.12166Z" fill="#1C58A8"/>
</mask>
<g mask="url(#mask0_3778_47805)">
<path d="M20.7665 9.29353C20.7665 4.33129 24.7892 0.308594 29.7514 0.308594C30.0213 0.308594 30.2401 0.527402 30.2401 0.797315V22.9305C30.2401 25.6203 29.604 27.948 28.3318 29.9137C27.0709 31.8678 25.3102 33.3794 23.0497 34.4484C20.7892 35.5059 18.1652 36.0347 15.1777 36.0347C12.1675 36.0347 9.53211 35.5059 7.2716 34.4484C5.0111 33.3794 3.25041 31.8678 1.98952 29.9137C0.739997 27.948 0.115234 25.6203 0.115234 22.9305V0.872503C0.115234 0.561065 0.367705 0.308594 0.679143 0.308594C5.59987 0.308594 9.5889 4.29763 9.5889 9.21835V22.1029C9.5889 23.1949 9.82745 24.172 10.3045 25.0341C10.7816 25.8847 11.4405 26.5514 12.2811 27.0342C13.133 27.517 14.0986 27.7584 15.1777 27.7584C16.2682 27.7584 17.2337 27.517 18.0743 27.0342C18.9149 26.5514 19.5737 25.8847 20.0508 25.0341C20.5279 24.172 20.7665 23.1949 20.7665 22.1029V9.29353Z" fill="#1C58A8"/>
<path d="M1.08587 4.61364C1.02569 4.77299 1.02569 4.99211 1.10593 5.11163C1.28647 5.3905 2.00865 4.99211 2.00865 4.61364C2.00865 4.23516 1.22629 4.23516 1.08587 4.61364Z" fill="white"/>
<path d="M2.75047 4.65322C2.46963 4.93209 2.61005 5.50977 2.97114 5.50977C3.39241 5.50977 3.81368 5.15121 3.81368 4.77274C3.81368 4.51378 2.9912 4.41418 2.75047 4.65322Z" fill="white"/>
<path d="M4.4758 5.01159C4.41562 5.19087 4.41562 5.37014 4.4758 5.4299C4.61622 5.58926 5.41865 5.13111 5.41865 4.91199C5.41865 4.59328 4.61622 4.69288 4.4758 5.01159Z" fill="white"/>
<path d="M-0.74002 5.41207C-0.800202 5.59135 -0.800202 5.77062 -0.74002 5.8503C-0.539415 6.0495 0.00221992 5.73078 0.00221992 5.41207C0.00221992 5.01367 -0.579536 5.01367 -0.74002 5.41207Z" fill="white"/>
<path d="M1.26644 6.64538C0.865231 6.80474 0.965533 7.30273 1.3868 7.30273C1.76795 7.30273 2.08892 6.84458 1.86826 6.62546C1.72783 6.48603 1.60747 6.48603 1.26644 6.64538Z" fill="white"/>
<path d="M-0.338938 7.00463C-0.399119 7.18391 -0.399119 7.38311 -0.318877 7.44287C-0.178453 7.5823 0.403302 7.12415 0.403302 6.88511C0.403302 6.58632 -0.198514 6.68592 -0.338938 7.00463Z" fill="white"/>
<path d="M2.61076 6.90454C2.39009 7.04398 2.37003 7.14358 2.55058 7.32286C2.81137 7.58181 3.21258 7.40254 3.21258 6.98422C3.21258 6.66551 3.03203 6.62567 2.61076 6.90454Z" fill="white"/>
<path d="M3.47287 7.4023C3.41269 7.58158 3.41269 7.76086 3.47287 7.84054C3.67348 8.03973 4.21511 7.72102 4.21511 7.4023C4.21511 7.00391 3.63335 7.00391 3.47287 7.4023Z" fill="white"/>
<path d="M4.61634 7.40242C4.37562 7.6813 4.49598 8.09961 4.81695 8.09961C5.0978 8.09961 5.63943 7.4821 5.51907 7.2829C5.33852 7.00403 4.89719 7.06379 4.61634 7.40242Z" fill="white"/>
<path d="M0.40404 7.78101C-1.54183 8.33876 -1.70232 8.45828 -2.14365 9.6933C-2.5248 10.769 -2.46462 11.5259 -1.82268 12.9203C-1.38135 13.8964 -1.1005 14.2748 -0.578926 14.5338C0.0630109 14.8525 0.0830715 14.8724 -0.3382 14.9919C-0.598987 15.0716 -0.799592 15.1911 -0.799592 15.2708C-0.799592 15.5895 -1.88286 16.705 -2.64516 17.1831C-3.3874 17.6413 -3.66825 18.2588 -3.14668 18.2588C-3.00625 18.2588 -2.30413 17.8604 -1.56189 17.3624C-0.819653 16.8644 -0.157655 16.466 -0.0974734 16.466C0.123193 16.466 0.604645 17.8405 0.604645 18.3982C0.604645 18.697 0.464222 19.3145 0.323798 19.7527C0.103132 20.3503 0.0830715 20.9479 0.203435 22.1431C0.303737 23.0196 0.38398 24.2347 0.38398 24.8522C0.40404 25.7884 0.484282 26.0275 0.965735 26.4856C1.26664 26.7844 1.62773 27.0234 1.76816 27.0234C2.16937 27.0234 2.049 26.386 1.52743 25.8482C1.0861 25.3502 1.06604 25.2506 1.1864 23.1391C1.2867 21.7248 1.38701 21.0674 1.48731 21.3065C1.58761 21.5057 1.60767 22.4419 1.54749 23.3981C1.46725 24.9119 1.48731 25.1709 1.86846 25.6689C2.08912 25.9677 2.34991 26.2266 2.45021 26.2266C2.69094 26.2266 2.65082 25.2705 2.39003 25.1111C2.20949 25.0115 2.18943 24.2944 2.28973 22.5813C2.36997 21.0077 2.32985 19.932 2.18943 19.434C2.00888 18.8364 2.00888 18.458 2.20949 17.7409C2.45021 16.9242 2.5104 16.8445 2.69094 17.1632C2.8113 17.3624 3.35294 17.9799 3.87451 18.5177C4.65687 19.3344 4.87754 19.4739 5.03802 19.2348C5.13833 19.0954 5.21857 18.9161 5.19851 18.8564C5.19851 18.5775 4.65687 17.8405 4.15536 17.462C3.85445 17.2229 3.45324 16.6851 3.29276 16.2867C3.11221 15.8086 2.8113 15.47 2.47027 15.3505C2.02894 15.2111 2.10919 15.1712 3.05203 15.1712C4.035 15.1712 4.1353 15.2111 3.93469 15.5099C3.83439 15.6891 3.79427 15.9082 3.87451 15.9879C4.07512 16.1871 4.65687 15.6493 4.53651 15.3505C4.47633 15.1911 4.65687 15.0517 5.01796 14.972C6.10123 14.733 7.02402 13.3585 7.02402 11.9442C7.02402 11.7052 6.84347 11.008 6.60275 10.3905C6.14135 9.17539 5.84045 8.95627 3.31282 8.00013C1.78822 7.44238 1.66785 7.42245 0.40404 7.78101ZM3.93469 9.17539C5.33893 9.83274 6.18147 10.6494 6.26172 11.4064C6.34196 12.4223 6.18147 12.9402 5.53954 13.6175C4.87754 14.3346 4.7973 14.3744 3.33288 14.4342C2.30979 14.4939 1.80828 14.4541 1.80828 14.2948C1.80828 14.1752 2.14931 14.0756 2.59064 14.0756C4.81736 14.0756 6.18147 12.5219 5.33893 10.9283C4.91766 10.1315 4.45627 9.7929 2.99185 9.33475C1.00586 8.6774 0.504343 8.73716 -0.418442 9.73314C-0.859774 10.2112 -1.26098 10.7889 -1.32117 11.008C-1.50171 11.6853 -0.478624 13.478 0.223495 13.737C0.885493 13.996 0.985795 14.2748 0.424101 14.2748C-0.71935 14.2748 -1.74244 12.3625 -1.50171 10.5897C-1.32117 9.05587 -0.598987 8.53796 1.40707 8.51804C2.26967 8.49812 2.83136 8.63756 3.93469 9.17539ZM3.51342 10.1714C5.13833 10.8885 5.37905 11.9243 4.19548 13C3.53348 13.5776 2.77118 13.6772 1.44719 13.3386C0.0830715 13 -0.378321 12.6016 -0.538805 11.6255C-0.639108 11.008 -0.558866 10.8287 -0.0372918 10.2909C0.745069 9.51402 1.90858 9.47418 3.51342 10.1714ZM0.865432 15.0119C0.725008 15.0517 0.484282 15.0517 0.363919 15.0119C0.223495 14.9521 0.323798 14.9123 0.604645 14.9123C0.885493 14.9123 0.985795 14.9521 0.865432 15.0119Z" fill="white"/>
<path d="M1.00586 10.4894C1.00586 10.7484 1.10616 10.8878 1.26665 10.8281C1.38701 10.7882 1.50737 10.6289 1.50737 10.4894C1.50737 10.35 1.38701 10.1906 1.26665 10.1309C1.10616 10.091 1.00586 10.2305 1.00586 10.4894Z" fill="white"/>
<path d="M2.08908 10.3902C2.0289 10.5496 2.0289 10.7687 2.08908 10.8683C2.28969 11.187 2.81126 10.8882 2.81126 10.4699C2.81126 10.0317 2.24957 9.95201 2.08908 10.3902Z" fill="white"/>
<path d="M0.0429611 10.8286C0.143264 11.3266 0.604656 11.3864 0.604656 10.9083C0.604656 10.6692 0.484293 10.49 0.283688 10.49C0.103143 10.49 0.00284003 10.6294 0.0429611 10.8286Z" fill="white"/>
<path d="M3.0918 10.9095C2.93131 11.1884 3.31246 11.5669 3.59331 11.4075C3.71367 11.3278 3.81398 11.1286 3.81398 10.9693C3.81398 10.6505 3.2924 10.5908 3.0918 10.9095Z" fill="white"/>
<path d="M3.9536 11.4076C3.67275 11.6865 3.81318 12.1048 4.17426 12.045C4.35481 12.0052 4.51529 11.8458 4.51529 11.7064C4.51529 11.3877 4.1542 11.2084 3.9536 11.4076Z" fill="white"/>
<path d="M-0.398438 11.6856C-0.398438 11.7852 -0.258014 11.8848 -0.0975294 11.8848C0.0629549 11.8848 0.203379 11.7852 0.203379 11.6856C0.203379 11.5661 0.0629549 11.4864 -0.0975294 11.4864C-0.258014 11.4864 -0.398438 11.5661 -0.398438 11.6856Z" fill="white"/>
<path d="M0.40356 11.7834C0.0625306 12.2017 0.343378 12.8192 0.925134 12.9587C1.50689 13.118 2.0084 12.7993 2.0084 12.3013C2.0084 11.5444 0.905073 11.1858 0.40356 11.7834ZM1.54701 12.0025C1.70749 12.4208 1.28622 12.8391 0.985315 12.5403C0.724528 12.2814 0.885013 11.6838 1.20598 11.6838C1.32634 11.6838 1.46677 11.8232 1.54701 12.0025Z" fill="white"/>
<path d="M1.00586 12.3024C1.00586 12.402 1.10616 12.4418 1.20646 12.3821C1.32683 12.3223 1.40707 12.2227 1.40707 12.163C1.40707 12.1231 1.32683 12.0833 1.20646 12.0833C1.10616 12.0833 1.00586 12.1829 1.00586 12.3024Z" fill="white"/>
<path d="M3.29199 12.5033C3.13151 12.7821 3.51266 13.1606 3.79351 13.0012C3.91387 12.9216 4.01417 12.7224 4.01417 12.563C4.01417 12.2443 3.4926 12.1845 3.29199 12.5033Z" fill="white"/>
<path d="M2.3298 12.6608C2.24955 12.7604 2.28967 12.8998 2.38998 12.9596C2.49028 13.0392 2.6307 12.9994 2.69089 12.8998C2.77113 12.8002 2.73101 12.6608 2.6307 12.601C2.5304 12.5213 2.38998 12.5612 2.3298 12.6608Z" fill="white"/>
<path d="M6.08113 8.22017C5.90059 8.67832 6.3018 8.97712 6.60271 8.61856C6.86349 8.29985 6.74313 7.90146 6.4021 7.90146C6.3018 7.90146 6.16138 8.04089 6.08113 8.22017Z" fill="white"/>
<path d="M7.02448 9.59452C6.82387 9.83356 6.82387 9.95308 7.02448 10.212C7.2652 10.471 7.32539 10.471 7.58617 10.212C7.88708 9.91324 7.78678 9.29573 7.46581 9.29573C7.36551 9.29573 7.1649 9.43516 7.02448 9.59452Z" fill="white"/>
<path d="M7.42531 11.2064C7.24476 11.4056 7.2247 11.565 7.38519 11.7243C7.62591 11.9634 8.02712 11.7642 8.02712 11.3857C8.02712 10.9674 7.70616 10.8678 7.42531 11.2064Z" fill="white"/>
<path d="M7.42542 12.9806C7.22481 13.2197 7.22481 13.3591 7.3853 13.5185C7.68621 13.8173 8.3482 13.2396 8.1476 12.901C7.94699 12.6022 7.72633 12.6221 7.42542 12.9806Z" fill="white"/>
<path d="M6.6623 14.5145C6.34133 14.8333 6.36139 15.2715 6.70242 15.2715C7.06351 15.2715 7.48478 14.7337 7.32429 14.4747C7.16381 14.2157 6.9632 14.2157 6.6623 14.5145Z" fill="white"/>
<path d="M4.95735 15.3914C4.63638 15.7102 4.83699 16.0886 5.27832 16.0289C5.51905 15.989 5.71965 15.8297 5.71965 15.6703C5.71965 15.3516 5.19808 15.1723 4.95735 15.3914Z" fill="white"/>
<path d="M5.45853 16.7041C5.07738 17.0826 5.17769 17.3017 5.65914 17.222C5.91993 17.1822 6.14059 17.0029 6.18071 16.8037C6.26096 16.4053 5.81962 16.3455 5.45853 16.7041Z" fill="white"/>
</g>
<mask id="mask1_3778_47805" style="mask-type:alpha" maskUnits="userSpaceOnUse" x="33" y="0" width="31" height="36">
<path fill-rule="evenodd" clip-rule="evenodd" d="M33.1182 0.885047C33.1182 0.471758 33.4532 0.136719 33.8665 0.136719H48.2045C56.5736 0.136719 63.3581 6.92123 63.3581 15.2903V20.6077C63.3581 28.9768 56.5736 35.7614 48.2045 35.7614H33.8665C33.4532 35.7614 33.1182 35.4263 33.1182 35.013V26.0772C34.2874 30.5667 40.3657 32.662 43.014 24.1243L44.3972 25.2636L44.9552 24.5791L44.2537 22.1645L48.6163 17.7425L52.0377 23.624L53.171 21.9851L52.5471 19.7558C52.6814 19.631 52.8068 19.497 52.9227 19.3548C53.611 18.5117 53.8425 17.5593 53.4398 17.2276C53.1287 16.9715 52.5306 17.1606 51.9573 17.648L51.1448 14.7447L53.0686 11.7189C53.0686 11.7189 54.2182 10.0434 53.4089 9.34201L53.3923 9.32832C52.549 8.66864 51.1385 10.1292 51.1385 10.1292L48.5614 12.6169L45.5678 12.3855C45.9313 11.7253 45.9988 11.0991 45.6878 10.843C45.2851 10.5113 44.4006 10.9259 43.7123 11.769C43.5962 11.911 43.49 12.0608 43.3944 12.2175L41.0958 12.0398L39.7178 13.4771L46.1301 15.6948L42.6677 20.8583L40.1731 20.6404L39.6141 21.3242L41.8585 23.1727C38.2221 29.2048 33.9169 25.6952 33.1182 13.5174V0.885047Z" fill="white"/>
</mask>
<g mask="url(#mask1_3778_47805)">
<path fill-rule="evenodd" clip-rule="evenodd" d="M33.8665 0.136719C33.4532 0.136719 33.1182 0.471758 33.1182 0.885047V13.5174C33.61 21.0155 35.4311 25.2274 37.607 25.9492C35.4304 25.2255 33.6089 21.0087 33.1187 13.503V9.33716C33.6552 16.3427 36.0876 25.8187 41.1553 22.5935L39.6141 21.3242L40.1731 20.6404L42.6677 20.8583L46.1301 15.6948L39.7178 13.4771L41.0958 12.0398L43.3944 12.2175C43.49 12.0608 43.5962 11.911 43.7123 11.769C44.4006 10.9259 45.2851 10.5113 45.6878 10.843C45.9988 11.0991 45.9313 11.7253 45.5678 12.3855L48.5614 12.6169L51.1385 10.1292C51.1385 10.1292 52.549 8.66864 53.3923 9.32832L53.4089 9.34201C54.2182 10.0434 53.0686 11.7189 53.0686 11.7189L51.1448 14.7447L51.9573 17.648C52.5306 17.1606 53.1287 16.9715 53.4398 17.2276C53.8425 17.5593 53.611 18.5117 52.9227 19.3548C52.8068 19.497 52.6814 19.631 52.5471 19.7558L53.171 21.9851L52.0377 23.624L48.6163 17.7425L44.2537 22.1645L44.9552 24.5791L44.3972 25.2636L43.014 24.1243C40.3657 32.662 34.2874 30.5667 33.1182 26.0772V35.013C33.1182 35.4263 33.4532 35.7614 33.8665 35.7614H48.2045C56.5736 35.7614 63.3581 28.9768 63.3581 20.6077V15.2903C63.3581 6.92123 56.5736 0.136719 48.2045 0.136719H33.8665Z" fill="#1C58A8"/>
<path fill-rule="evenodd" clip-rule="evenodd" d="M42.0778 23.3749C38.3833 29.1274 34.0669 25.5547 33.2617 13.5023V9.08008C33.7813 15.9233 36.049 24.972 41.0166 22.2619L42.0778 23.3749Z" fill="#1C58A8" fill-opacity="0.4"/>
</g>
</svg>
