<svg width="148" height="118" viewBox="0 0 148 118" fill="none" xmlns="http://www.w3.org/2000/svg">
<path d="M78.7056 51.3185L75.406 54.5455L102.615 81.8174L96.7096 87.593L69.5004 60.3211L66.2007 63.5482L62.7809 60.0332L75.2858 47.8035L78.7056 51.3185Z" fill="white"/>
<path d="M92.5528 30.9167L102.615 52.8791L116.902 67.1345L110.997 72.9101L96.9107 58.8614C95.8717 58.0191 93.555 56.6533 89.9607 54.764C86.9058 53.1785 82.2267 50.6506 75.9232 47.1801L81.5664 41.6612L93.5189 48.6063L87.2471 36.1056L92.5528 30.9167Z" fill="white"/>
<path d="M134.64 50.1216L123.56 60.9577L93.3964 30.0916L99.3021 24.316L126.101 51.7235L131.275 46.663L134.64 50.1216Z" fill="white"/>
<path d="M147.211 37.1526L135.662 48.4472L105.414 18.3387L116.888 7.11752L120.271 10.5949L114.703 16.0405L121.78 23.3148L126.805 18.4009L129.987 21.6716L124.962 26.5854L138.203 39.213L143.846 33.694L147.211 37.1526Z" fill="white"/>
<path fill-rule="evenodd" clip-rule="evenodd" d="M85.7228 103.239L90.3345 107.863C91.4323 108.964 92.335 109.159 93.0431 108.45C93.7264 107.764 93.5193 106.871 92.4329 105.782L86.7497 100.084C85.0116 98.3415 82.3422 96.9134 78.7594 95.8053C72.0159 93.8531 67.5994 92.411 65.527 91.5079C63.4432 90.5932 61.515 89.2477 59.7197 87.4474L54.3337 82.0478C48.1131 75.8108 47.1817 70.5078 51.5323 66.1459C55.4311 62.2366 60.7173 62.6652 65.8863 68.8146L71.7568 75.7989C71.0015 76.1777 70.5415 76.1812 69.7862 76.56L65.7629 78.8048L60.2684 73.4607C59.3056 72.5239 58.552 72.3156 57.9786 72.8904C57.3074 73.5631 57.875 74.8057 59.6817 76.617L62.9134 79.6368C64.6974 81.4252 67.4015 82.8641 71.0381 83.9647C77.6131 85.8336 82.0532 87.2749 84.3633 88.3062C86.685 89.3492 88.8892 90.9228 91.0162 93.0551L97.134 99.1887C103.515 105.586 104.527 110.969 100.163 115.343C95.9588 119.559 90.9489 118.758 85.1401 112.934L78.6964 106.473C79.9245 105.908 81.4432 105.619 82.6713 105.054L85.7228 103.239Z" fill="white"/>
<path fill-rule="evenodd" clip-rule="evenodd" d="M75.8555 75.335C84.4735 75.335 91.4595 82.3391 91.4595 90.9794C91.4595 99.6197 84.4735 106.624 75.8555 106.624C67.2375 106.624 60.2515 99.6197 60.2515 90.9794C60.2515 82.3391 67.2375 75.335 75.8555 75.335Z" fill="#0073B2" stroke="#3E3E3E" stroke-width="0.273472"/>
<path d="M62.0151 84.1617C65.3725 85.9559 70.324 87.0891 75.8558 87.0806C81.4648 87.0721 86.4838 85.9026 89.8451 84.0684" stroke="#3E3E3E" stroke-width="0.632658"/>
<path d="M66.3892 78.6721C69.6733 79.8331 73.4189 80.303 75.8559 80.303C79.5253 80.303 82.9116 79.6691 85.6339 78.5996" stroke="#3E3E3E" stroke-width="0.632658"/>
<path d="M60.4138 92.2617C64.4419 93.752 69.9427 94.6703 76.0075 94.6703C81.8802 94.6703 87.2241 93.8094 91.2143 92.4016" stroke="#3E3E3E" stroke-width="0.632658"/>
<path d="M63.8398 100.792C67.5089 101.795 72.0088 102.385 76.8713 102.385C80.7295 102.385 84.3596 102.013 87.5271 101.359" stroke="#3E3E3E" stroke-width="0.632658"/>
<path d="M75.8567 75.334V106.623" stroke="#3E3E3E" stroke-width="0.632658"/>
<path fill-rule="evenodd" clip-rule="evenodd" d="M63.955 80.457C66.3691 82.6839 71.8562 84.2137 77.4716 85.7151C83.2087 87.1561 87.9329 89.7124 91.3156 93.1043C90.8202 96.9094 89.5497 99.4333 87.7583 101.094C86.9006 100.34 85.7205 98.7676 83.9076 97.8732C80.0715 95.9798 76.0931 94.8022 71.9934 93.67C66.9979 92.2905 63.1819 90.439 60.4373 88.1347C61.0914 85.3745 62.1468 82.7899 63.955 80.457Z" fill="white"/>
<path d="M12.9898 54.6117L7.60562 49.1969L35.841 21.5601C36.9114 20.5123 37.1381 19.6781 36.521 19.0575C35.9038 18.4368 35.0803 18.6306 34.0502 19.6388L5.75423 47.335L0.370081 41.9202L35.5431 7.49274L40.9273 12.9075L39.7458 14.064C41.4129 13.8569 42.9958 14.5069 44.4946 16.0142C45.4644 16.9895 45.9344 18.3039 45.9048 19.9575C45.8752 21.6111 45.0424 23.2386 43.4064 24.8398L12.9898 54.6117Z" fill="white"/>
<path d="M41.6861 53.8918L34.4506 46.6151L26.2405 54.6511C25.0489 55.8175 24.7679 56.7173 25.3977 57.3506C26.0148 57.9713 26.9192 57.6984 28.1108 56.532L35.1999 49.5932L40.5652 54.989L33.4155 61.9871C28.6692 66.6328 24.1864 66.8341 19.9673 62.5909C15.7859 58.3857 16.1694 53.8614 21.1176 49.0181L42.173 28.4091C47.1212 23.5657 51.686 23.2466 55.8674 27.4518C60.0866 31.695 59.823 36.1394 55.0767 40.7851L41.6861 53.8918ZM41.5923 43.3363L49.6509 35.4486C50.8021 34.3217 51.0692 33.448 50.452 32.8274C49.8223 32.1941 48.9318 32.4408 47.7806 33.5676L39.722 41.4554L41.5923 43.3363Z" fill="white"/>
<path d="M38.6637 80.4318L35.2631 77.0119C32.8324 74.5673 31.9635 72.5311 32.6563 70.9032C33.3491 69.2753 35.3618 66.8304 38.6943 63.5685L60.1435 42.574L57.7442 40.1611L62.9551 35.0607L65.3543 37.4736L72.4434 30.5348L77.8276 35.9496L70.7385 42.8884L73.6478 45.8143L68.437 50.9147L65.5276 47.9888L44.139 68.924C43.109 69.9322 42.6011 70.8042 42.6154 71.5401C42.6625 72.2688 43.3346 73.2854 44.6319 74.5901L38.6637 80.4318Z" fill="white"/>
<path d="M75.8989 75.5767C88.5108 78.2515 95.5444 96.4888 75.8989 106.459" stroke="#3E3E3E" stroke-width="0.63"/>
<path d="M75.2854 75.5762C62.6735 78.251 55.64 96.4883 75.2854 106.458" stroke="#3E3E3E" stroke-width="0.63"/>
<path d="M75.8989 75.5767C82.3631 78.2304 85.9681 96.5673 75.8989 106.459" stroke="#3E3E3E" stroke-width="0.63"/>
<path d="M75.6228 75.5762C69.1586 78.2299 65.5536 96.5668 75.6228 106.458" stroke="#3E3E3E" stroke-width="0.63"/>
</svg>
