<svg width="111" height="31" viewBox="0 0 111 31" fill="none" xmlns="http://www.w3.org/2000/svg">
<path fill-rule="evenodd" clip-rule="evenodd" d="M0 27.2908H4.61299V18.6415H14.4156L14.4239 18.6411C17.737 18.497 21.191 18.3469 21.3351 10.857C21.3933 7.83032 20.6431 3.47627 15.5688 3.36094H4.90131C1.0091 3.36093 0 3.64922 0 7.68562V27.2908ZM13.2623 15.0375H4.46884V9.12716C4.33233 6.80658 5.35917 6.81267 6.57014 6.81986C6.63802 6.82026 6.70647 6.82066 6.77533 6.82066H12.1091H14.2714C16.8662 6.96482 16.8662 10.2804 16.8662 11.0012C16.8662 11.8661 17.0104 12.8752 16.0013 14.1726C15.3286 15.0375 14.1273 15.0375 13.2623 15.0375Z" fill="white"/>
<path d="M23.4974 27.2908H27.3896V16.3349C27.3896 15.6142 27.6203 13.9708 28.5429 13.1635C29.6961 12.1544 30.9935 12.1544 33.3 12.1544V9.12714C31.2818 9.12714 27.6779 8.66764 25.5156 10.4245C23.6704 11.9238 23.4013 14.9895 23.4974 16.3349V27.2908Z" fill="white"/>
<path d="M56.5091 27.2908V12.1544H54.0584V8.98299H56.5091C56.461 7.82974 56.8551 5.23493 58.8156 4.08169C60.7761 2.92844 64.0532 2.83234 65.4468 2.92844V5.9557C64.2935 5.85959 61.8429 5.8692 61.2662 6.67648C61.026 6.91675 60.5455 7.71443 60.5455 8.98299H65.4468V12.1544H60.5455L60.4013 27.2908H56.5091Z" fill="white"/>
<path d="M67.1766 27.2908H71.0688V8.98299H67.1766V27.2908Z" fill="white"/>
<path d="M67.1766 5.9557V2.92844H71.0688V5.9557H67.1766Z" fill="white"/>
<path fill-rule="evenodd" clip-rule="evenodd" d="M52.761 15.7582C52.761 11.9367 49.663 8.83875 45.8415 8.83875H40.6519C36.8304 8.83875 33.7324 11.9367 33.7324 15.7582V20.3712C33.7324 24.1927 36.8304 27.2907 40.6519 27.2907H45.8415C49.663 27.2907 52.761 24.1927 52.761 20.3712V15.7582ZM44.4 11.7219H42.0935C39.705 11.7219 37.7688 13.6581 37.7688 16.0465V20.0829C37.7688 22.4714 39.705 24.4076 42.0935 24.4076H44.4C46.7884 24.4076 48.7246 22.4714 48.7246 20.0829V16.0465C48.7246 13.6581 46.7884 11.7219 44.4 11.7219Z" fill="white"/>
<path d="M74.0688 3.70081C74.0688 2.94174 74.6575 2.31272 75.4149 2.26242L109.436 0.00323258C110.268 -0.0520114 110.973 0.607881 110.973 1.44162V27.1431C110.973 27.9947 110.239 28.6606 109.391 28.5779L75.3703 25.2555C74.6319 25.1834 74.0688 24.5627 74.0688 23.8208V3.70081Z" fill="white"/>
<path d="M76.087 4.02688L108.955 2.06348V26.7141L76.087 23.6148V4.02688Z" fill="#AC262F"/>
<path fill-rule="evenodd" clip-rule="evenodd" d="M82.2241 22.089C82.6136 22.0277 84.2806 21.7258 85.0247 20.948C86.6016 19.2994 87.196 16.4876 87.187 13.7402C87.1779 10.9623 86.5474 8.05359 84.8805 6.67655C83.4323 5.48015 82.1042 5.50715 81.8849 5.52082L81.8727 5.52159C81.8554 5.5227 81.8383 5.52379 81.8208 5.52438L78.3647 5.63956C77.8985 5.65509 77.5286 6.03753 77.5286 6.50401V21.0003C77.5286 21.4571 77.8837 21.8351 78.3395 21.8636L82.0576 22.096C82.1134 22.0995 82.1688 22.0977 82.2241 22.089ZM81.8208 19.3622C82.3974 19.3622 83.0219 18.9945 83.5831 18.3531C84.5922 17.1999 84.5922 15.0376 84.5922 13.8843C84.5922 12.2986 84.3814 9.91666 83.1872 8.983C82.0511 8.09483 81.9974 8.26222 80.9883 8.19515H79.8351V19.3622H81.8208Z" fill="white"/>
<path d="M96.9899 23.3986C97.5184 23.5427 98.6044 23.6004 98.7197 22.6778L102.9 7.54143V9.70377V9.84793V23.2963C102.9 23.5979 103.133 23.8486 103.433 23.8713L105.452 24.0239C105.786 24.0492 106.072 23.7845 106.072 23.4489V23.3986V9.84793V5.52325C105.956 4.8313 105.351 4.56221 105.063 4.51416H102.612C101.689 4.51416 101.074 5.28299 100.882 5.66741L97.2782 18.0648L93.9626 6.38819C93.6743 5.23494 93.0977 5.09078 92.3769 5.09078H90.2145C89.6379 5.09078 89.3496 5.66741 89.3496 6.24403V7.82974V7.9739V22.2453C89.3496 22.5638 89.6078 22.822 89.9262 22.822H91.3678C91.6863 22.822 91.8003 22.5638 91.8003 22.2453V7.9739L95.5483 22.3895C95.5483 23.1968 96.5093 23.3986 96.9899 23.3986Z" fill="white"/>
<path d="M92.3767 27.7232L88.3403 27.2908V29.0206C88.3403 29.8279 89.1696 29.8219 90.0702 30.0297C92.0884 30.4955 92.3767 30.0297 92.3767 29.4531V27.7232Z" fill="white"/>
</svg>
