<svg width="100" height="25" viewBox="0 0 100 25" fill="none" xmlns="http://www.w3.org/2000/svg">
<path d="M89.5637 17.3307C89.6896 17.249 90.0256 17.2899 90.6555 17.6168C92.293 18.475 98.2133 20.2731 99.389 18.1889C99.4729 18.0255 99.5148 17.862 99.5568 17.6577C99.641 16.2273 98.1294 15.1239 97.0376 14.3883C95.7361 13.5301 94.0563 12.8762 91.8312 12.5493C89.3117 12.1815 88.5139 12.1407 91.6211 10.9147C92.3349 10.6286 93.0488 10.3834 93.2586 10.2608C94.7282 9.81127 94.6443 9.23913 93.6784 8.54437C91.663 7.27751 89.4379 7.1958 87.0026 8.09486C86.2468 8.38091 85.1131 9.11651 84.2734 8.8713C83.5176 8.66696 85.197 7.72703 85.3648 7.56356C85.9948 7.11405 86.5824 6.62363 87.1704 6.09237C88.136 5.19331 89.6896 3.88557 88.8499 2.6187C88.5139 2.08743 87.6742 1.8831 86.2468 2.08743C84.2314 2.29177 82.5097 3.31343 80.9981 4.66204C79.3187 6.17411 78.3531 7.48185 76.4216 8.99392C75.8756 9.27997 75.5396 9.32085 75.3299 9.27997C74.4062 8.99392 75.8336 7.56356 76.1276 7.23664C76.3377 7.0323 76.5055 6.82797 76.7153 6.62363C77.4711 5.80632 78.3111 5.15243 78.437 4.33512C78.6048 3.27256 77.6812 2.12829 75.3299 2.65955C74.28 2.90476 73.6504 3.4769 72.8107 4.00819C71.0051 5.11159 69.4096 6.58275 67.856 8.17657C67.0582 8.99392 66.3024 9.97473 65.3788 10.7103C64.5391 11.4051 63.5732 11.8546 64.4129 10.5877C64.5391 10.3425 64.7488 10.1382 64.7908 10.0564C65.4627 9.19826 66.1346 8.34007 66.8481 7.48185C67.6882 6.41932 68.8638 5.5611 68.0238 4.37596C67.814 4.08991 67.52 3.8447 67.1421 3.72211C65.8406 3.27256 64.7908 3.76295 63.8672 4.49855C62.2716 5.76544 60.5922 7.31839 58.9967 8.66696C57.9888 9.52518 56.939 9.97473 55.8895 10.1791C55.3435 10.3017 54.6719 10.2608 53.958 10.1791C53.9161 10.1791 53.9161 10.1791 53.958 10.1791C55.4274 9.27997 57.9049 7.68615 57.485 6.33758C57.3169 5.76544 56.1832 5.35677 55.3435 6.09237C55.0075 6.37845 54.7138 6.62363 54.4198 6.82797C54.0419 7.11405 53.4962 6.86884 53.4962 6.41929C53.4539 4.98897 53.0341 4.2125 52.5723 3.31343C52.3206 2.78217 52.3206 2.1283 52.5723 1.59703C52.7824 1.14749 52.9082 0.657082 52.9082 0.207549C52.9082 0.125816 52.7824 0.0440871 52.6985 0.0849537C52.4884 0.207554 52.0685 0.411901 51.5228 0.534503C49.4232 0.94317 48.0377 -0.405432 45.6864 0.125836C42.7051 0.779704 42.8732 3.88557 43.8808 4.98897C43.9227 5.07068 44.0489 5.02984 44.0909 4.94809C44.7624 3.92644 46.1482 3.76298 47.1557 3.8447C47.4917 3.88557 47.7857 4.2125 47.7437 4.53945C47.6598 5.11159 47.4497 6.05153 46.6939 7.1958C46.5261 7.44098 46.1482 7.52269 45.8962 7.35923C45.3504 7.0323 44.8047 6.62363 44.2167 6.13324C43.377 5.39764 42.2852 5.80632 42.0755 6.37845C41.6556 7.76793 44.1328 9.32085 45.6025 10.2199C44.9306 10.3017 44.2587 10.3425 43.671 10.2199C42.6212 10.0156 41.5714 9.56606 40.5639 8.70787C38.9683 7.35926 37.2886 5.80631 35.693 4.53945C34.7694 3.80386 33.7196 3.31343 32.4181 3.76295C32.0402 3.88557 31.7462 4.13078 31.5364 4.41683C30.7386 5.64285 31.8724 6.46017 32.7121 7.52272C33.384 8.38091 34.0556 9.2391 34.7694 10.0973C34.8533 10.2199 35.0215 10.4242 35.1473 10.6286C35.9451 11.8954 35.0215 11.4051 34.1817 10.7512C33.2997 10.0156 32.5439 9.07567 31.7042 8.21745C30.1506 6.62366 28.5132 5.15243 26.7498 4.04903C25.9101 3.51777 25.2802 2.94564 24.2303 2.70044C21.879 2.16917 20.9554 3.31343 21.1232 4.37596C21.2494 5.19331 22.0891 5.80632 22.8449 6.66454C23.0547 6.86884 23.2228 7.07318 23.4326 7.27751C23.7266 7.60447 25.1543 9.03479 24.2303 9.32085C24.0206 9.40259 23.6846 9.32085 23.1389 9.03479C21.2074 7.52272 20.2415 6.21496 18.5621 4.70288C17.0085 3.31343 15.3291 2.33263 13.3137 2.12829C11.886 1.92396 11.0463 2.12829 10.7103 2.65955C9.87059 3.92641 11.3822 5.23415 12.3897 6.13324C12.9777 6.6645 13.5654 7.15492 14.1954 7.60444C14.4051 7.72706 16.0429 8.70787 15.2871 8.9122C14.4471 9.15738 13.3556 8.42178 12.5579 8.1357C10.1226 7.23664 7.89712 7.31835 5.8817 8.58525C4.91596 9.27997 4.83199 9.85211 6.30156 10.3017C6.51149 10.3834 7.22531 10.6695 7.93911 10.9555C11.0463 12.1815 10.2485 12.2224 7.72918 12.5902C5.5038 12.9171 3.86625 13.571 2.52264 14.4292C1.43097 15.1648 -0.0806196 16.2682 0.00335213 17.6985C0.00335213 17.9029 0.0453733 18.0663 0.171331 18.2298C1.347 20.314 7.2673 18.5159 8.90481 17.6577C9.53463 17.3716 9.82864 17.2899 9.99645 17.3716C10.4163 17.6985 9.19875 18.6793 8.98879 18.8837C8.56893 19.3332 8.31698 19.8236 9.07279 20.1914C10.0804 20.6818 11.4661 19.9462 12.8515 18.9654C13.6493 18.3933 14.4471 17.7394 15.077 17.1264C15.371 16.8403 17.1344 14.8379 17.7224 15.6552C18.0164 16.0639 17.0505 17.3716 16.7565 17.7394C16.0849 18.6385 15.4549 19.5375 14.783 20.4366C13.5654 22.6434 15.7909 23.1747 18.1422 22.153C19.8636 21.3765 23.1389 18.4341 24.1464 16.8812C25.3641 14.7562 27.7154 16.0639 25.6161 18.0255C23.9786 19.5784 19.3179 22.5617 20.4936 24.1146C21.879 25.9128 25.8259 24.6868 29.0592 22.3982C32.502 19.9871 33.09 18.7611 35.6511 16.3091C37.7088 14.3475 38.8841 15.5326 36.9529 17.1264C35.2312 18.5976 34.6855 20.1914 35.5672 20.6409C36.4069 21.0496 37.3728 20.8453 38.3384 20.314C39.808 19.5375 41.3616 18.1481 42.0332 17.2899C42.789 16.3499 43.4609 15.3691 44.3006 14.8379C45.5602 14.1023 47.0299 13.7345 49.0033 12.9171C49.5494 12.7128 50.179 12.7128 50.6827 12.9171C52.6562 13.7345 54.1258 14.1023 55.3854 14.8379C56.2674 15.3691 56.939 16.3499 57.6529 17.2899C58.3248 18.1481 59.8783 19.5375 61.3477 20.314C62.2716 20.8044 63.2372 21.0496 64.1192 20.6409C65.0009 20.1914 64.4968 18.5976 62.7334 17.1264C60.802 15.4917 61.9776 14.3475 64.035 16.3091C66.5545 18.7611 67.1841 19.9462 70.6272 22.3982C73.8602 24.6868 77.849 25.9128 79.1928 24.1146C80.3685 22.6025 75.6658 19.5784 74.0703 18.0255C72.0129 16.0639 74.322 14.7153 75.5396 16.8812C76.5475 18.4341 79.7805 21.4174 81.5442 22.153C83.8955 23.1747 86.0787 22.6434 84.903 20.4366C84.2314 19.5375 83.6015 18.6385 82.9296 17.7394C82.6779 17.3716 81.67 16.1048 81.964 15.6552C82.5517 14.8379 84.3153 16.8403 84.6093 17.1264C85.239 17.7394 86.0367 18.3933 86.8345 18.9654C88.2622 19.9462 89.6057 20.7227 90.6136 20.1914C91.3274 19.8236 91.1173 19.3332 90.6975 18.8837C90.3615 18.6385 89.1439 17.6577 89.5637 17.3307ZM46.316 1.51529L45.9801 1.06577C47.6179 0.779697 47.9538 0.943157 46.316 1.51529ZM51.5228 9.6069C53.37 8.83042 54.6719 8.17657 51.9846 9.77039L51.5228 9.6069ZM48.0377 11.6911C47.24 11.9772 46.316 12.2633 45.0984 12.6311C42.8313 13.3258 43.1669 12.9989 41.7815 14.6744C40.4377 16.3091 39.1781 17.7394 37.7927 18.7202C36.617 19.5375 36.4069 19.5375 37.4148 18.6793C38.8002 17.5351 40.0598 16.3091 40.9418 14.8379C42.0755 13.0397 41.9493 13.3258 40.5639 13.6119C39.1781 13.8979 37.4148 13.9796 35.6511 13.8979C33.5518 13.8571 34.3076 13.6118 33.048 15.2057C31.0326 17.7394 28.1772 19.9871 25.0701 22.0304C23.5165 23.0521 23.1389 23.0929 24.9442 21.7852C27.9674 19.5784 30.0667 17.3716 31.5364 15.2057C32.502 13.7753 32.754 13.6527 31.2424 13.5301C28.7233 13.3258 26.5817 13.1623 24.0625 12.958C22.7187 12.8354 23.0966 12.7128 22.467 13.8571C20.8295 16.7995 19.2759 18.8837 17.7224 20.2731C16.3366 21.4992 16.3366 21.4174 17.5123 20.0688C19.1498 18.2298 20.8295 16.1865 21.837 13.8162C22.2989 12.7128 22.467 12.7128 21.2913 12.7537C20.0737 12.7945 18.6879 12.9989 17.4703 13.3667C16.6726 13.6118 16.3366 13.6936 15.707 14.2657C14.6152 15.2874 13.5235 16.3091 12.3058 17.249C11.7601 17.6985 10.9204 18.1072 12.18 17.0855C13.1875 16.2682 14.2373 15.4508 14.7411 14.5109C14.9512 14.1023 14.8673 14.1023 14.3212 14.2249C10.7523 15.0013 6.59549 16.1456 2.7326 17.4533C2.69061 17.4533 2.60661 17.4942 2.56462 17.4942C2.39668 17.5351 2.39668 17.4942 2.52264 17.4533C2.56462 17.4125 2.64863 17.4125 2.69061 17.3716C7.30929 15.5735 12.3058 14.0206 17.3864 12.5902C18.4362 12.3041 18.5621 12.3859 17.5123 11.8955C14.6991 10.506 11.3403 9.81127 7.77113 9.36172C10.5844 9.52518 13.9853 10.0565 18.898 11.5685C19.6958 11.8137 19.8217 11.8546 20.6614 11.8546C21.0393 11.8546 21.4591 11.8955 21.879 11.8955C23.8524 11.9772 23.6007 12.0998 22.173 11.0373C19.0239 8.66696 17.0505 6.41932 13.0616 3.8447C16.2947 5.15243 19.2759 8.66696 23.4745 11.2416C24.8183 12.0589 24.6082 11.9363 26.7079 12.1407C27.0858 12.1815 27.4637 12.2224 27.8413 12.2632C29.9409 12.4676 30.3188 12.958 29.1851 10.9555C27.7154 8.42178 25.406 6.33758 23.6007 4.49855C25.9101 6.50104 28.5132 8.66696 30.4866 11.2416C31.4525 12.5085 31.0326 12.3859 32.7121 12.6311C35.1893 12.9989 37.4567 12.958 39.514 12.7537C41.3197 12.5493 41.4036 12.6311 40.102 11.7729C37.2466 9.97473 35.5672 8.34004 34.3915 6.90971C32.796 4.98897 33.0061 5.02984 34.6436 6.74622C36.1552 8.34004 37.6665 10.0156 40.8156 11.4868C42.2013 12.0998 42.2433 12.2633 43.671 11.9772C44.6366 11.7729 45.7703 11.5277 47.0299 11.1599C47.4078 11.3233 47.7018 11.5277 48.0377 11.6911ZM87.0865 17.2082C85.9109 16.2682 84.7772 15.2874 83.6854 14.2249C83.0558 13.6528 82.7198 13.571 81.9221 13.3258C80.7044 12.958 79.3187 12.7537 78.1011 12.7128C76.9254 12.6719 77.0932 12.6719 77.5553 13.7753C78.5629 16.1456 80.2846 18.2298 81.8801 20.0279C83.0558 21.3357 83.0558 21.4583 81.67 20.2323C80.0745 18.8428 78.5209 16.7586 76.9254 13.8162C76.2954 12.6719 76.6314 12.7945 75.3299 12.9171C72.8107 13.1215 70.6691 13.2849 68.15 13.4893C66.6384 13.6118 66.8904 13.7345 67.856 15.1648C69.3256 17.3716 71.4249 19.5784 74.4482 21.7443C76.2535 23.0521 75.8756 23.0112 74.322 21.9896C71.2152 19.9871 68.3597 17.6985 66.3444 15.1648C65.0848 13.571 65.8406 13.7753 63.7413 13.8571C61.9776 13.8979 60.2143 13.8162 58.8285 13.571C57.4431 13.2849 57.3169 12.9989 58.4506 14.797C59.3742 16.2682 60.5922 17.4942 61.9776 18.6385C63.0274 19.4558 62.7754 19.4967 61.5997 18.6793C60.2143 17.6985 58.9544 16.2682 57.6109 14.6335C56.2251 12.958 56.603 13.2849 54.294 12.5902C51.0187 11.6094 49.885 11.1599 47.9958 10.0564C43.7969 7.64531 46.61 9.11651 49.0453 10.0564C51.6906 11.0373 53.9161 11.6094 55.5955 11.9363C57.0232 12.2224 57.0232 12.0998 58.4506 11.4459C61.6417 10.0156 63.1113 8.2992 64.623 6.70538C66.2605 4.98897 66.4283 4.94813 64.8747 6.86884C63.699 8.29919 62.0196 9.89298 59.1645 11.732C57.821 12.5902 57.9469 12.5084 59.7521 12.7128C61.8098 12.958 64.0769 12.9989 66.5544 12.5902C68.2339 12.345 67.814 12.4676 68.7796 11.2007C70.753 8.62612 73.3564 6.46017 75.6658 4.45771C73.9021 6.2967 71.5508 8.38091 70.0815 10.9147C68.9477 12.8762 69.3676 12.3859 71.4249 12.2224C71.8028 12.1815 72.1807 12.1407 72.5587 12.0998C74.616 11.8546 74.4482 12.0181 75.7917 11.2007C80.0325 8.62612 82.9715 5.11159 86.2049 3.80386C82.2157 6.41932 80.2423 8.66699 77.0932 10.9964C75.6658 12.0589 75.4138 11.9363 77.3872 11.8546C77.807 11.8546 78.2269 11.8137 78.6048 11.8137C79.4445 11.7729 79.5707 11.7729 80.3685 11.5276C85.2809 10.0156 88.6821 9.48434 91.4952 9.32085C87.9263 9.77039 84.609 10.4651 81.7539 11.8546C80.7044 12.3859 80.8303 12.2632 81.8801 12.5493C86.9604 14.0205 91.957 15.5326 96.5758 17.3307C96.6178 17.3716 96.7017 17.3716 96.7436 17.4125C96.8698 17.4533 96.8698 17.4942 96.7017 17.4533C96.6597 17.4533 96.5758 17.4125 96.5339 17.4125C92.6709 16.1047 88.5139 14.9605 84.945 14.184C84.4412 14.0614 84.3154 14.0614 84.5251 14.4701C85.0292 15.3691 86.0787 16.2273 87.0865 17.0447C88.472 18.0663 87.6742 17.6577 87.0865 17.2082Z" fill="#29221C"/>
</svg>
