<svg width="90" height="72" viewBox="0 0 90 72" fill="none" xmlns="http://www.w3.org/2000/svg">
<path d="M47.8615 31.313L45.855 33.282L62.4011 49.9225L58.8098 53.4466L42.2637 36.8061L40.2571 38.7752L38.1775 36.6304L45.7819 29.1683L47.8615 31.313Z" fill="white"/>
<path d="M56.2821 18.8644L62.4011 32.2652L71.0892 40.9634L67.4979 44.4875L58.9322 35.9155C58.3003 35.4015 56.8915 34.5681 54.7058 33.4153C52.8481 32.4479 50.0027 30.9054 46.1695 28.7879L49.6012 25.4204L56.8696 29.6581L53.0556 22.0306L56.2821 18.8644Z" fill="white"/>
<path d="M81.8757 30.5827L75.1378 37.1946L56.7951 18.361L60.3864 14.8369L76.6828 31.5601L79.8295 28.4723L81.8757 30.5827Z" fill="white"/>
<path d="M89.5202 22.6694L82.4973 29.561L64.103 11.1897L71.0804 4.34288L73.1377 6.46468L69.7517 9.78741L74.0555 14.226L77.111 11.2277L79.046 13.2233L75.9906 16.2216L84.0423 23.9266L87.474 20.5591L89.5202 22.6694Z" fill="white"/>
<path fill-rule="evenodd" clip-rule="evenodd" d="M52.1287 62.9937L54.9331 65.815C55.6007 66.4866 56.1496 66.6059 56.5802 66.1729C56.9958 65.7547 56.8698 65.2099 56.2091 64.5453L52.7532 61.0686C51.6962 60.0053 50.0729 59.1339 47.8942 58.4577C43.7934 57.2666 41.1077 56.3866 39.8474 55.8356C38.5803 55.2775 37.4077 54.4565 36.316 53.358L33.0407 50.0633C29.2579 46.2577 28.6915 43.0219 31.3372 40.3604C33.7081 37.9751 36.9226 38.2366 40.0659 41.9888L43.6358 46.2504C43.1765 46.4816 42.8968 46.4837 42.4375 46.7148L39.9909 48.0845L36.6497 44.8237C36.0641 44.2521 35.6059 44.125 35.2572 44.4758C34.8491 44.8862 35.1942 45.6444 36.2929 46.7496L38.2581 48.5922C39.343 49.6834 40.9874 50.5614 43.1988 51.233C47.1971 52.3733 49.8972 53.2527 51.3019 53.882C52.7138 54.5184 54.0542 55.4786 55.3476 56.7796L59.068 60.5222C62.9481 64.4258 63.5634 67.7102 60.9102 70.3793C58.3533 72.9515 55.3067 72.4627 51.7743 68.909L47.8559 64.967C48.6027 64.6221 49.5262 64.4459 50.273 64.1009L52.1287 62.9937Z" fill="white"/>
<path fill-rule="evenodd" clip-rule="evenodd" d="M46.1283 45.967C51.369 45.967 55.6173 50.2408 55.6173 55.5128C55.6173 60.7849 51.369 65.0586 46.1283 65.0586C40.8877 65.0586 36.6394 60.7849 36.6394 55.5128C36.6394 50.2408 40.8877 45.967 46.1283 45.967Z" fill="#0073B2" stroke="white" stroke-width="0.273472"/>
<path d="M37.7119 51.3533C39.7536 52.4481 42.7646 53.1395 46.1286 53.1343C49.5394 53.1292 52.5915 52.4156 54.6355 51.2964" stroke="white" stroke-width="0.632658"/>
<path d="M40.3718 48.0037C42.3689 48.7121 44.6467 48.9988 46.1286 48.9988C48.36 48.9988 50.4193 48.612 52.0747 47.9595" stroke="white" stroke-width="0.632658"/>
<path d="M36.7383 56.2957C39.1878 57.205 42.5329 57.7653 46.2209 57.7653C49.7921 57.7653 53.0418 57.24 55.4683 56.381" stroke="white" stroke-width="0.632658"/>
<path d="M38.8215 61.5007C41.0527 62.1122 43.7891 62.4723 46.746 62.4723C49.0923 62.4723 51.2998 62.2455 53.2259 61.8466" stroke="white" stroke-width="0.632658"/>
<path d="M46.1292 45.9666V65.0581" stroke="white" stroke-width="0.632658"/>
<path fill-rule="evenodd" clip-rule="evenodd" d="M38.8916 49.0925C40.3596 50.4513 43.6964 51.3848 47.1112 52.3009C50.5999 53.1801 53.4727 54.7399 55.5298 56.8095C55.2285 59.1313 54.456 60.6713 53.3666 61.6844C52.845 61.2247 52.1274 60.2651 51.025 59.7193C48.6922 58.5641 46.2729 57.8455 43.7798 57.1547C40.742 56.313 38.4215 55.1832 36.7524 53.7772C37.1503 52.093 37.7921 50.516 38.8916 49.0925Z" fill="white"/>
<path d="M7.89904 33.3224L4.62489 30.0185L21.7951 13.1553C22.446 12.516 22.5838 12.007 22.2086 11.6283C21.8333 11.2496 21.3324 11.3678 20.7061 11.983L3.49905 28.8824L0.224902 25.5784L21.6139 4.57185L24.8881 7.8758L24.1696 8.58144C25.1834 8.45504 26.146 8.85169 27.0574 9.77138C27.6471 10.3665 27.933 11.1685 27.9149 12.1775C27.8969 13.1865 27.3905 14.1795 26.3957 15.1565L7.89904 33.3224Z" fill="white"/>
<path d="M25.3495 32.8832L20.9495 28.4431L15.9569 33.3465C15.2323 34.0581 15.0614 34.6072 15.4444 34.9936C15.8197 35.3723 16.3696 35.2058 17.0943 34.4942L21.4052 30.2603L24.6679 33.5526L20.3201 37.8227C17.4338 40.6573 14.7078 40.7801 12.1421 38.1911C9.5994 35.6252 9.83257 32.8646 12.8416 29.9094L25.6456 17.3344C28.6547 14.3791 31.4306 14.1844 33.9733 16.7503C36.539 19.3393 36.3787 22.0512 33.4925 24.8858L25.3495 32.8832ZM25.2925 26.4425L30.193 21.6296C30.893 20.9421 31.0554 20.409 30.6801 20.0303C30.2972 19.6438 29.7557 19.7944 29.0556 20.482L24.1551 25.2948L25.2925 26.4425Z" fill="white"/>
<path d="M23.5115 49.0771L21.4437 46.9904C19.9655 45.4987 19.4371 44.2563 19.8584 43.263C20.2797 42.2697 21.5036 40.7779 23.5302 38.7876L36.5736 25.9774L35.1146 24.5051L38.2833 21.393L39.7423 22.8653L44.0533 18.6314L47.3275 21.9354L43.0165 26.1692L44.7857 27.9545L41.6169 31.0666L39.8477 29.2813L26.8412 42.0554C26.2148 42.6705 25.9059 43.2026 25.9146 43.6516C25.9433 44.0962 26.352 44.7166 27.1409 45.5126L23.5115 49.0771Z" fill="white"/>
<path d="M46.1548 46.1147C53.8242 47.7468 58.1013 58.8747 46.1548 64.9579" stroke="white" stroke-width="0.63"/>
<path d="M45.7817 46.1145C38.1123 47.7466 33.8352 58.8745 45.7817 64.9577" stroke="white" stroke-width="0.63"/>
<path d="M46.1548 46.1147C50.0857 47.734 52.2779 58.9226 46.1548 64.9579" stroke="white" stroke-width="0.63"/>
<path d="M45.9868 46.1145C42.0559 47.7337 39.8637 58.9224 45.9868 64.9577" stroke="white" stroke-width="0.63"/>
</svg>
