<svg width="52" height="30" viewBox="0 0 52 30" fill="none" xmlns="http://www.w3.org/2000/svg">
<mask id="mask0_3236_64196" style="mask-type:alpha" maskUnits="userSpaceOnUse" x="0" y="0" width="25" height="30">
<path d="M17.1777 7.89695C17.1777 3.92715 20.3959 0.708984 24.3657 0.708984C24.5816 0.708984 24.7567 0.884031 24.7567 1.09996V18.8065C24.7567 20.9584 24.2478 22.8205 23.23 24.393C22.2213 25.9563 20.8127 27.1656 19.0043 28.0208C17.1959 28.8668 15.0967 29.2899 12.7067 29.2899C10.2985 29.2899 8.19024 28.8668 6.38183 28.0208C4.57343 27.1656 3.16488 25.9563 2.15617 24.393C1.15655 22.8205 0.656738 20.9584 0.656738 18.8065V1.16011C0.656738 0.91096 0.858715 0.708984 1.10787 0.708984C5.04444 0.708984 8.23567 3.90021 8.23567 7.83679V18.1444C8.23567 19.018 8.42651 19.7997 8.80818 20.4894C9.18986 21.1699 9.71693 21.7032 10.3894 22.0895C11.071 22.4757 11.8434 22.6688 12.7067 22.6688C13.5791 22.6688 14.3515 22.4757 15.024 22.0895C15.6965 21.7032 16.2235 21.1699 16.6052 20.4894C16.9869 19.7997 17.1777 19.018 17.1777 18.1444V7.89695Z" fill="#1C58A8"/>
</mask>
<g mask="url(#mask0_3236_64196)">
<path d="M17.27 8.03562C17.27 4.06582 20.4882 0.847656 24.458 0.847656C24.6739 0.847656 24.8489 1.0227 24.8489 1.23863V18.9452C24.8489 21.097 24.34 22.9592 23.3223 24.5317C22.3135 26.095 20.905 27.3043 19.0966 28.1595C17.2882 29.0055 15.189 29.4285 12.799 29.4285C10.3908 29.4285 8.28252 29.0055 6.47412 28.1595C4.66572 27.3043 3.25716 26.095 2.24845 24.5317C1.24883 22.9592 0.749023 21.097 0.749023 18.9452V1.29878C0.749023 1.04963 0.951 0.847656 1.20015 0.847656C5.13673 0.847656 8.32796 4.03889 8.32796 7.97546V18.2831C8.32796 19.1567 8.5188 19.9384 8.90047 20.628C9.28214 21.3085 9.80921 21.8419 10.4817 22.2281C11.1632 22.6144 11.9357 22.8075 12.799 22.8075C13.6714 22.8075 14.4438 22.6144 15.1163 22.2281C15.7888 21.8419 16.3158 21.3085 16.6975 20.628C17.0792 19.9384 17.27 19.1567 17.27 18.2831V8.03562Z" fill="#2569D7"/>
<path d="M1.52553 4.29052C1.47738 4.418 1.47738 4.5933 1.54158 4.68891C1.68601 4.91201 2.26376 4.5933 2.26376 4.29052C2.26376 3.98774 1.63787 3.98774 1.52553 4.29052Z" fill="white"/>
<path d="M2.85692 4.32257C2.63224 4.54568 2.74458 5.00781 3.03345 5.00781C3.37047 5.00781 3.70749 4.72097 3.70749 4.41819C3.70749 4.21102 3.0495 4.13135 2.85692 4.32257Z" fill="white"/>
<path d="M4.23728 4.60966C4.18914 4.75308 4.18914 4.89651 4.23728 4.94431C4.34962 5.0718 4.99156 4.70528 4.99156 4.52998C4.99156 4.27501 4.34962 4.35469 4.23728 4.60966Z" fill="white"/>
<path d="M0.0649176 4.92809C0.0167723 5.07151 0.0167723 5.21494 0.0649176 5.27868C0.225402 5.43804 0.65871 5.18306 0.65871 4.92809C0.65871 4.60938 0.193305 4.60938 0.0649176 4.92809Z" fill="white"/>
<path d="M1.66979 5.91553C1.34883 6.04301 1.42907 6.44141 1.76608 6.44141C2.071 6.44141 2.32778 6.07488 2.15125 5.89959C2.03891 5.78804 1.94262 5.78804 1.66979 5.91553Z" fill="white"/>
<path d="M0.385393 6.20292C0.337248 6.34635 0.337248 6.5057 0.401441 6.55351C0.51378 6.66506 0.979185 6.29854 0.979185 6.10731C0.979185 5.86827 0.497732 5.94795 0.385393 6.20292Z" fill="white"/>
<path d="M2.74525 6.12363C2.56872 6.23519 2.55267 6.31486 2.6971 6.45829C2.90573 6.66545 3.2267 6.52203 3.2267 6.18738C3.2267 5.93241 3.08227 5.90053 2.74525 6.12363Z" fill="white"/>
<path d="M3.43455 6.52184C3.3864 6.66526 3.3864 6.80869 3.43455 6.87243C3.59503 7.03179 4.02834 6.77681 4.02834 6.52184C4.02834 6.20313 3.56293 6.20313 3.43455 6.52184Z" fill="white"/>
<path d="M4.34972 6.52233C4.15713 6.74543 4.25343 7.08008 4.5102 7.08008C4.73488 7.08008 5.16819 6.58607 5.0719 6.42671C4.92746 6.20361 4.57439 6.25142 4.34972 6.52233Z" fill="white"/>
<path d="M0.979775 6.82481C-0.576923 7.27101 -0.70531 7.36662 -1.05838 8.35464C-1.3633 9.21517 -1.31515 9.82073 -0.801601 10.9362C-0.448535 11.7171 -0.223857 12.0199 0.193402 12.227C0.706952 12.482 0.723 12.4979 0.385983 12.5936C0.177353 12.6573 0.0168691 12.7529 0.0168691 12.8167C0.0168691 13.0716 -0.849746 13.964 -1.45959 14.3465C-2.05338 14.713 -2.27806 15.207 -1.8608 15.207C-1.74846 15.207 -1.18676 14.8883 -0.592971 14.4899C0.000820637 14.0915 0.530419 13.7728 0.578564 13.7728C0.755097 13.7728 1.14026 14.8724 1.14026 15.3186C1.14026 15.5576 1.02792 16.0516 0.915581 16.4022C0.739048 16.8803 0.723 17.3583 0.819291 18.3145C0.899533 19.0157 0.963727 19.9877 0.963727 20.4818C0.979775 21.2307 1.04397 21.422 1.42913 21.7885C1.66986 22.0275 1.95873 22.2188 2.07107 22.2188C2.39204 22.2188 2.29575 21.7088 1.87849 21.2785C1.52542 20.8801 1.50937 20.8005 1.60566 19.1113C1.68591 17.9798 1.76615 17.454 1.84639 17.6452C1.92663 17.8045 1.94268 18.5535 1.89454 19.3184C1.83034 20.5296 1.84639 20.7367 2.15131 21.1351C2.32784 21.3742 2.53647 21.5813 2.61671 21.5813C2.8093 21.5813 2.7772 20.8164 2.56857 20.6889C2.42413 20.6092 2.40808 20.0356 2.48833 18.6651C2.55252 17.4062 2.52042 16.5456 2.40808 16.1472C2.26365 15.6692 2.26365 15.3664 2.42413 14.7927C2.61671 14.1393 2.66486 14.0756 2.8093 14.3305C2.90559 14.4899 3.33889 14.9839 3.75615 15.4142C4.38204 16.0675 4.55857 16.1791 4.68696 15.9879C4.7672 15.8763 4.8314 15.7329 4.81535 15.6851C4.81535 15.462 4.38204 14.8724 3.98083 14.5696C3.7401 14.3784 3.41914 13.9481 3.29075 13.6294C3.14631 13.2469 2.90559 12.976 2.63276 12.8804C2.2797 12.7688 2.34389 12.737 3.09817 12.737C3.88454 12.737 3.96478 12.7688 3.8043 13.0079C3.72406 13.1513 3.69196 13.3266 3.75615 13.3903C3.91664 13.5497 4.38204 13.1194 4.28575 12.8804C4.23761 12.7529 4.38204 12.6414 4.67091 12.5776C5.53753 12.3864 6.27576 11.2868 6.27576 10.1554C6.27576 9.96415 6.13132 9.4064 5.93874 8.91239C5.56963 7.94031 5.3289 7.76502 3.3068 7.0001C2.08712 6.5539 1.99083 6.53796 0.979775 6.82481ZM3.8043 7.94031C4.92769 8.46619 5.60172 9.11956 5.66592 9.72512C5.73011 10.5378 5.60172 10.9522 5.08817 11.494C4.55857 12.0677 4.49438 12.0995 3.32285 12.1474C2.50438 12.1952 2.10316 12.1633 2.10316 12.0358C2.10316 11.9402 2.37599 11.8605 2.72905 11.8605C4.51043 11.8605 5.60172 10.6175 4.92769 9.34266C4.59067 8.70523 4.22156 8.43432 3.05002 8.0678C1.46123 7.54192 1.06002 7.58972 0.321789 8.38651C-0.0312762 8.76897 -0.352245 9.23111 -0.40039 9.4064C-0.544826 9.94822 0.273644 11.3824 0.835339 11.5896C1.36494 11.7968 1.44518 12.0199 0.995823 12.0199C0.0810628 12.0199 -0.737407 10.49 -0.544826 9.07175C-0.40039 7.8447 0.177353 7.43037 1.7822 7.41443C2.47228 7.39849 2.92163 7.51005 3.8043 7.94031ZM3.46728 8.7371C4.7672 9.31079 4.95978 10.1394 4.01293 11C3.48333 11.4621 2.87349 11.5418 1.81429 11.2709C0.723 11 0.353886 10.6813 0.225499 9.90041C0.145257 9.4064 0.20945 9.26298 0.626709 8.83271C1.2526 8.21122 2.18341 8.17935 3.46728 8.7371ZM1.34889 12.6095C1.23655 12.6414 1.04397 12.6414 0.947678 12.6095C0.835339 12.5617 0.915581 12.5298 1.14026 12.5298C1.36494 12.5298 1.44518 12.5617 1.34889 12.6095Z" fill="white"/>
<path d="M1.46094 8.99155C1.46094 9.19871 1.54118 9.31026 1.66957 9.26246C1.76586 9.23058 1.86215 9.1031 1.86215 8.99155C1.86215 8.88 1.76586 8.75251 1.66957 8.7047C1.54118 8.67283 1.46094 8.78438 1.46094 8.99155Z" fill="white"/>
<path d="M2.32761 8.91297C2.27947 9.04046 2.27947 9.21575 2.32761 9.29543C2.4881 9.5504 2.90536 9.31137 2.90536 8.97672C2.90536 8.62613 2.456 8.56239 2.32761 8.91297Z" fill="white"/>
<path d="M0.690619 9.26366C0.770861 9.66206 1.13997 9.70986 1.13997 9.32741C1.13997 9.13618 1.04368 8.99275 0.8832 8.99275C0.738764 8.99275 0.658522 9.1043 0.690619 9.26366Z" fill="white"/>
<path d="M3.13008 9.32721C3.00169 9.55031 3.30661 9.85309 3.53129 9.7256C3.62758 9.66186 3.70782 9.5025 3.70782 9.37502C3.70782 9.12005 3.29056 9.07224 3.13008 9.32721Z" fill="white"/>
<path d="M3.81981 9.72568C3.59513 9.94878 3.70747 10.2834 3.99635 10.2356C4.14078 10.2038 4.26917 10.0763 4.26917 9.96472C4.26917 9.70974 3.9803 9.56632 3.81981 9.72568Z" fill="white"/>
<path d="M0.337891 9.94806C0.337891 10.0277 0.45023 10.1074 0.578617 10.1074C0.707005 10.1074 0.819344 10.0277 0.819344 9.94806C0.819344 9.85245 0.707005 9.78871 0.578617 9.78871C0.45023 9.78871 0.337891 9.85245 0.337891 9.94806Z" fill="white"/>
<path d="M0.979488 10.0267C0.706665 10.3614 0.931343 10.8554 1.39675 10.9669C1.86215 11.0944 2.26336 10.8394 2.26336 10.441C2.26336 9.83549 1.3807 9.54864 0.979488 10.0267ZM1.89425 10.202C2.02264 10.5367 1.68562 10.8713 1.44489 10.6323C1.23626 10.4251 1.36465 9.94704 1.62143 9.94704C1.71772 9.94704 1.83006 10.0586 1.89425 10.202Z" fill="white"/>
<path d="M1.46094 10.4411C1.46094 10.5208 1.54118 10.5527 1.62142 10.5049C1.71771 10.4571 1.78191 10.3774 1.78191 10.3296C1.78191 10.2977 1.71771 10.2658 1.62142 10.2658C1.54118 10.2658 1.46094 10.3455 1.46094 10.4411Z" fill="white"/>
<path d="M3.29023 10.6026C3.16185 10.8257 3.46677 11.1285 3.69145 11.001C3.78774 10.9373 3.86798 10.7779 3.86798 10.6504C3.86798 10.3954 3.45072 10.3476 3.29023 10.6026Z" fill="white"/>
<path d="M2.52048 10.729C2.45628 10.8087 2.48838 10.9202 2.56862 10.968C2.64886 11.0318 2.7612 10.9999 2.80935 10.9202C2.87354 10.8406 2.84145 10.729 2.7612 10.6812C2.68096 10.6175 2.56862 10.6493 2.52048 10.729Z" fill="white"/>
<path d="M5.52135 7.17535C5.37692 7.54188 5.69788 7.78091 5.93861 7.49407C6.14724 7.2391 6.05095 6.92038 5.77813 6.92038C5.69788 6.92038 5.58555 7.03193 5.52135 7.17535Z" fill="white"/>
<path d="M6.27612 8.27445C6.11564 8.46567 6.11564 8.56129 6.27612 8.76845C6.46871 8.97562 6.51685 8.97562 6.72548 8.76845C6.96621 8.52942 6.88597 8.03541 6.62919 8.03541C6.54895 8.03541 6.38846 8.14696 6.27612 8.27445Z" fill="white"/>
<path d="M6.59669 9.56513C6.45226 9.72449 6.43621 9.85197 6.56459 9.97946C6.75718 10.1707 7.07814 10.0113 7.07814 9.70855C7.07814 9.3739 6.82137 9.29422 6.59669 9.56513Z" fill="white"/>
<path d="M6.59639 10.9837C6.43591 11.175 6.43591 11.2865 6.56429 11.414C6.80502 11.653 7.33462 11.1909 7.17413 10.92C7.01365 10.681 6.83712 10.6969 6.59639 10.9837Z" fill="white"/>
<path d="M5.98667 12.2108C5.7299 12.4658 5.74595 12.8164 6.01877 12.8164C6.30764 12.8164 6.64466 12.3861 6.51627 12.179C6.38788 11.9718 6.2274 11.9718 5.98667 12.2108Z" fill="white"/>
<path d="M4.62213 12.9128C4.36536 13.1677 4.52584 13.4705 4.87891 13.4227C5.07149 13.3908 5.23197 13.2634 5.23197 13.1359C5.23197 12.8809 4.81471 12.7375 4.62213 12.9128Z" fill="white"/>
<path d="M5.02327 13.9633C4.71835 14.266 4.7986 14.4413 5.18376 14.3776C5.39239 14.3457 5.56892 14.2023 5.60102 14.0429C5.66521 13.7242 5.31214 13.6764 5.02327 13.9633Z" fill="white"/>
</g>
<mask id="mask1_3236_64196" style="mask-type:alpha" maskUnits="userSpaceOnUse" x="27" y="0" width="25" height="30">
<path fill-rule="evenodd" clip-rule="evenodd" d="M27.1514 1.30765C27.1514 0.977014 27.4194 0.708984 27.75 0.708984H39.2204C45.9157 0.708984 51.3433 6.13659 51.3433 12.8319V17.0858C51.3433 23.7811 45.9157 29.2087 39.2204 29.2087H27.75C27.4194 29.2087 27.1514 28.9407 27.1514 28.61V21.4605C28.0863 25.0527 32.9496 26.7296 35.0683 19.8986L36.1747 20.8098L36.6211 20.2622L36.0599 18.3305L39.55 14.7929L42.2871 19.4981L43.1937 18.187L42.6946 16.4036C42.802 16.3037 42.9024 16.1965 42.9951 16.0828C43.5457 15.4083 43.7309 14.6464 43.4088 14.381C43.1599 14.1761 42.6814 14.3274 42.2228 14.7174L41.5728 12.3947L43.1118 9.97403C43.1118 9.97403 44.0315 8.63362 43.384 8.07253L43.3708 8.06158C42.6961 7.53383 41.5677 8.7023 41.5677 8.7023L39.5061 10.6925L37.1111 10.5073C37.402 9.97917 37.4559 9.4782 37.2072 9.27331C36.885 9.00793 36.1774 9.33964 35.6268 10.0141C35.5339 10.1277 35.4489 10.2476 35.3724 10.3729L33.5335 10.2308L32.4312 11.3806L37.561 13.1548L34.7911 17.2856L32.7954 17.1113L32.3482 17.6583L34.1441 19.1374C31.2346 23.964 27.7899 21.1553 27.1514 11.4105V1.30765Z" fill="white"/>
</mask>
<g mask="url(#mask1_3236_64196)">
<path fill-rule="evenodd" clip-rule="evenodd" d="M27.75 0.708984C27.4194 0.708984 27.1514 0.977014 27.1514 1.30765V11.4105C27.4718 16.3001 28.4987 19.4435 29.81 20.7521C28.4985 19.4422 27.4716 16.2967 27.1519 11.404V8.06802C27.5809 13.6728 29.5269 21.2552 33.5816 18.6741L32.3482 17.6583L32.7954 17.1113L34.7911 17.2856L37.561 13.1548L32.4312 11.3806L33.5335 10.2308L35.3724 10.3729C35.4489 10.2476 35.5339 10.1277 35.6268 10.0141C36.1774 9.33964 36.885 9.00793 37.2072 9.27331C37.4559 9.4782 37.402 9.97917 37.1111 10.5073L39.5061 10.6925L41.5677 8.7023C41.5677 8.7023 42.6961 7.53383 43.3708 8.06158L43.384 8.07253C44.0315 8.63362 43.1118 9.97403 43.1118 9.97403L41.5728 12.3947L42.2228 14.7174C42.6814 14.3274 43.1599 14.1761 43.4088 14.381C43.7309 14.6464 43.5457 15.4083 42.9951 16.0828C42.9024 16.1965 42.802 16.3037 42.6946 16.4036L43.1937 18.187L42.2871 19.4981L39.55 14.7929L36.0599 18.3305L36.6211 20.2622L36.1747 20.8098L35.0683 19.8986C32.9496 26.7296 28.0863 25.0527 27.1514 21.4605V28.61C27.1514 28.9407 27.4194 29.2087 27.75 29.2087H39.2204C45.9157 29.2087 51.3433 23.7811 51.3433 17.0858V12.8319C51.3433 6.13659 45.9157 0.708984 39.2204 0.708984H27.75Z" fill="#2569D7"/>
<path fill-rule="evenodd" clip-rule="evenodd" d="M34.3197 19.2985C31.3644 23.8998 27.9117 21.0427 27.2671 11.4032V7.86523C27.6831 13.3395 29.4973 20.5758 33.4708 18.4081L34.3197 19.2985Z" fill="#1C58A8" fill-opacity="0.4"/>
</g>
</svg>
