<svg width="246" height="55" viewBox="0 0 246 55" fill="none" xmlns="http://www.w3.org/2000/svg">
<path d="M0 44.0825H40.3587V47.0002H0V44.0825Z" fill="#09B6C7"/>
<path d="M35.7387 42.7299H33.6385H31.0295H27.9763H25.3672V39.3679V33.3337H26.7201C27.1306 33.3337 27.4655 32.9989 27.4655 32.5884V31.0403H28.8149V39.3679H30.1908V30.4842C30.2066 30.4237 30.2152 30.3603 30.2152 30.2949V28.1775H32.2197C32.6302 28.1775 32.965 27.8427 32.965 27.4323V25.2853C32.965 24.8749 32.6302 24.5401 32.2197 24.5401H30.2152V22.4227C30.2152 22.3573 30.2066 22.2939 30.1908 22.2334V9.74414C31.3225 9.9931 32.4768 10.2991 33.6385 10.6745V39.3679H35.7387V42.7299ZM25.3672 19.2537V10.6745C26.5291 10.2991 27.6831 9.9931 28.8149 9.74414V21.6774H27.4655V19.999C27.4655 19.5885 27.1306 19.2537 26.7201 19.2537H25.3672Z" fill="#09B6C7"/>
<path d="M4.62061 42.7299H6.72108H9.33022H12.3833H14.9924V39.3679V33.3337H13.6392C13.2287 33.3337 12.8938 32.9989 12.8938 32.5884V31.0403H11.5447V39.3679H10.1688V30.4857C10.1527 30.4249 10.1441 30.3608 10.1441 30.2949V28.1775H8.13962C7.7291 28.1775 7.39428 27.8427 7.39428 27.4323V25.2853C7.39428 24.8749 7.7291 24.5401 8.13962 24.5401H10.1441V22.4227C10.1441 22.3569 10.1527 22.2926 10.1688 22.2319V9.74414C9.03711 9.9931 7.88303 10.2991 6.72108 10.6745V39.3679H4.62061V42.7299ZM14.9924 19.2537V10.6745C13.8305 10.2991 12.6766 9.9931 11.5447 9.74414V21.6774H12.8938V19.999C12.8938 19.5885 13.2287 19.2537 13.6392 19.2537H14.9924Z" fill="#09B6C7"/>
<path d="M24.3152 42.7301H21.7063H18.6529H16.0439V39.3681V36.4206C16.1472 36.4749 16.2646 36.5056 16.3888 36.5056H18.3934V38.6228C18.3934 39.0333 18.7282 39.3681 19.1386 39.3681H19.4916H20.8675H21.2205C21.6309 39.3681 21.9657 39.0333 21.9657 38.6228V36.5056H23.9703C24.0945 36.5056 24.2119 36.4749 24.3152 36.4206V39.3681V42.7301ZM16.0439 16.753V7.93046C17.2057 7.55469 18.3599 7.24885 19.4916 7V13.8056H19.1386C18.7282 13.8056 18.3934 14.1404 18.3934 14.5508V16.6681H16.3888C16.2646 16.6681 16.1472 16.6987 16.0439 16.753ZM20.8675 13.8056V7C21.9992 7.24885 23.1535 7.55469 24.3152 7.93046V16.753C24.2119 16.6987 24.0945 16.6681 23.9703 16.6681H21.9657V14.5508C21.9657 14.1404 21.6309 13.8056 21.2205 13.8056H20.8675Z" fill="#09B6C7"/>
<path d="M57.6348 37.4305V20.8203H67.8636V24.2456H61.4823V27.2486H66.9487V30.6504H61.4823V33.9348H67.9575V37.4305H57.6348ZM69.4335 32.7384C70.4541 33.364 71.3221 33.798 72.0377 34.0521C72.7493 34.3024 73.4454 34.4276 74.1257 34.4276C74.8099 34.4276 75.3613 34.2751 75.7797 33.974C76.1942 33.6729 76.4014 33.2858 76.4014 32.8126C76.4014 32.1362 75.6624 31.3698 74.1804 30.5252C73.9419 30.3884 73.7582 30.2789 73.6291 30.2046L72.507 29.5712C71.416 28.9533 70.6065 28.2535 70.0826 27.4754C69.5548 26.6973 69.2928 25.8135 69.2928 24.8282C69.2928 23.491 69.7972 22.3961 70.806 21.5398C71.8109 20.6834 73.113 20.2573 74.7084 20.2573C75.2987 20.2573 75.936 20.3277 76.6204 20.4646C77.3085 20.6013 78.071 20.8164 78.9116 21.1058V24.9964C78.1101 24.4959 77.3516 24.1087 76.6321 23.8351C75.9126 23.5613 75.3027 23.4245 74.7982 23.4245C74.2391 23.4245 73.8011 23.5457 73.4806 23.7842C73.1599 24.0228 72.9996 24.3512 72.9996 24.7617C72.9996 25.051 73.0934 25.3209 73.2851 25.5711C73.4766 25.8253 73.7621 26.0521 74.1453 26.2593L76.0925 27.3346C77.723 28.2379 78.8178 29.0706 79.3809 29.8331C79.9439 30.5995 80.2255 31.5027 80.2255 32.5507C80.2255 34.1695 79.6741 35.4794 78.5715 36.4765C77.4649 37.4735 76.0025 37.9701 74.1766 37.9701C73.5587 37.9701 72.8862 37.9036 72.1589 37.7746C71.4355 37.6456 70.634 37.4422 69.7659 37.1685L69.4335 32.7384ZM82.3115 37.4305V20.8203H86.2294V26.9201H92.6342V20.8203H96.5286V37.4305H92.6342V30.4627H86.2294V37.4305H82.3115ZM106.156 37.4305V20.8203H110.121V37.4305H106.156ZM113.196 37.4305V20.2808H113.576L123.918 29.9739V20.8203H127.578V38.064H127.234L116.856 28.3708V37.4305H113.196ZM136.229 38.064H135.955L128.115 20.8203H132.311L136.229 29.9035L140.182 20.8203H144.069L136.229 38.064ZM144.606 37.4305V20.8203H154.835V24.2456H148.454V27.2486H153.92V30.6504H148.454V33.9348H154.929V37.4305H144.606ZM156.405 32.7384C157.426 33.364 158.294 33.798 159.009 34.0521C159.721 34.3024 160.417 34.4276 161.097 34.4276C161.781 34.4276 162.333 34.2751 162.751 33.974C163.166 33.6729 163.373 33.2858 163.373 32.8126C163.373 32.1362 162.634 31.3698 161.152 30.5252C160.913 30.3884 160.73 30.2789 160.601 30.2046L159.478 29.5712C158.387 28.9533 157.578 28.2535 157.054 27.4754C156.526 26.6973 156.264 25.8135 156.264 24.8282C156.264 23.491 156.769 22.3961 157.778 21.5398C158.782 20.6834 160.085 20.2573 161.68 20.2573C162.27 20.2573 162.908 20.3277 163.592 20.4646C164.28 20.6013 165.043 20.8164 165.883 21.1058V24.9964C165.082 24.4959 164.323 24.1087 163.604 23.8351C162.884 23.5613 162.274 23.4245 161.77 23.4245C161.211 23.4245 160.773 23.5457 160.452 23.7842C160.131 24.0228 159.971 24.3512 159.971 24.7617C159.971 25.051 160.065 25.3209 160.257 25.5711C160.448 25.8253 160.734 26.0521 161.117 26.2593L163.064 27.3346C164.695 28.2379 165.789 29.0706 166.352 29.8331C166.915 30.5995 167.197 31.5027 167.197 32.5507C167.197 34.1695 166.646 35.4794 165.543 36.4765C164.436 37.4735 162.974 37.9701 161.148 37.9701C160.53 37.9701 159.858 37.9036 159.13 37.7746C158.407 37.6456 157.605 37.4422 156.737 37.1685L156.405 32.7384ZM172.661 37.4305V24.2925H167.383V20.8203H181.881V24.2925H176.626V37.4305H172.661ZM181.629 37.4305L185.078 20.2808H185.363L191.631 31.0961L197.543 20.2808H197.841L201.313 37.4305H197.543L196.136 29.8449L191.678 38.0405H191.412L186.626 29.7314L185.168 37.4305H181.629ZM202.93 37.4305V20.8203H213.158V24.2456H206.777V27.2486H212.243V30.6504H206.777V33.9348H213.252V37.4305H202.93ZM215.479 37.4305V20.2808H215.858L226.201 29.9739V20.8203H229.86V38.064H229.516L219.139 28.3708V37.4305H215.479ZM236.24 37.4305V24.2925H230.961V20.8203H245.46V24.2925H240.205V37.4305H236.24Z" fill="#0D6688"/>
<path fill-rule="evenodd" clip-rule="evenodd" d="M19.1382 14.5508H21.2201V22.4229H19.1382V14.5508Z" fill="#0D6688"/>
<path fill-rule="evenodd" clip-rule="evenodd" d="M19.1382 30.7505H21.2201V38.6227H19.1382V30.7505Z" fill="#0D6688"/>
<path fill-rule="evenodd" clip-rule="evenodd" d="M16.3887 17.4136H18.4706V25.2857H16.3887V17.4136Z" fill="#0D6688"/>
<path fill-rule="evenodd" clip-rule="evenodd" d="M21.8887 17.4136H23.9706V25.2857H21.8887V17.4136Z" fill="#0D6688"/>
<path fill-rule="evenodd" clip-rule="evenodd" d="M16.3887 27.8882H18.4706V35.7604H16.3887V27.8882Z" fill="#0D6688"/>
<path fill-rule="evenodd" clip-rule="evenodd" d="M21.8887 27.8882H23.9706V35.7604H21.8887V27.8882Z" fill="#0D6688"/>
<path fill-rule="evenodd" clip-rule="evenodd" d="M24.6382 19.999H26.7201V24.6997H24.6382V19.999Z" fill="#0D6688"/>
<path fill-rule="evenodd" clip-rule="evenodd" d="M24.6382 25.2856H26.7201V32.5887H24.6382V25.2856Z" fill="#0D6688"/>
<path fill-rule="evenodd" clip-rule="evenodd" d="M13.6392 19.999H15.7211V24.6997H13.6392V19.999Z" fill="#0D6688"/>
<path fill-rule="evenodd" clip-rule="evenodd" d="M13.6392 25.2856H15.7211V32.5887H13.6392V25.2856Z" fill="#0D6688"/>
<path fill-rule="evenodd" clip-rule="evenodd" d="M27.3877 22.4229H29.4696V30.2951H27.3877V22.4229Z" fill="#0D6688"/>
<path fill-rule="evenodd" clip-rule="evenodd" d="M10.8892 22.4229H12.971V30.2951H10.8892V22.4229Z" fill="#0D6688"/>
<path fill-rule="evenodd" clip-rule="evenodd" d="M30.1382 25.2856H32.2201V27.4326H30.1382V25.2856Z" fill="#0D6688"/>
<path fill-rule="evenodd" clip-rule="evenodd" d="M8.13916 25.2856H10.2211V27.4326H8.13916V25.2856Z" fill="#0D6688"/>
<path fill-rule="evenodd" clip-rule="evenodd" d="M19.1382 23.1387H21.2201V25.2855H19.1382V23.1387Z" fill="#373435"/>
<path fill-rule="evenodd" clip-rule="evenodd" d="M19.1382 27.8633H21.2201V30.0102H19.1382V27.8633Z" fill="#373435"/>
<path fill-rule="evenodd" clip-rule="evenodd" d="M21.8887 25.6914H23.9706V27.482H21.8887V25.6914Z" fill="#373435"/>
<path fill-rule="evenodd" clip-rule="evenodd" d="M16.3887 25.6914H18.4706V27.482H16.3887V25.6914Z" fill="#373435"/>
</svg>
