<svg width="140" height="31" viewBox="0 0 140 31" fill="none" xmlns="http://www.w3.org/2000/svg">
<path d="M33.7331 16.3443V20.6145H41.7743V24.3579H29.6015V4.94793H41.5248V8.69127H33.7331V12.6564H41.0534V16.3443H33.7331Z" fill="white" fill-opacity="0.5"/>
<path d="M56.5919 15.8452V19.6995C56.5919 20.9473 56.9801 21.3077 58.3111 21.1968V24.3579C56.176 24.8015 53.93 24.441 53.4586 22.5832C52.599 23.8587 50.9076 24.6351 48.8834 24.6351C45.9719 24.6351 44.1141 22.9437 44.1141 20.4481C44.1141 17.5367 46.3879 16.1225 49.438 16.1225C50.5749 16.1225 51.6563 16.2611 52.7377 16.6216V15.9839C52.7377 14.3756 51.4344 13.8488 49.6598 13.8488C48.412 13.8488 46.9979 14.1538 45.6669 14.7638L44.9183 11.8523C46.7761 11.0759 48.6061 10.7155 50.2144 10.7155C53.7914 10.7155 56.5919 12.3514 56.5919 15.8452ZM49.7985 21.6405C51.4344 21.6405 52.7377 20.6145 52.7377 19.1172V18.9231C51.8781 18.6735 51.0462 18.5626 50.2144 18.5626C48.8002 18.5626 47.8852 19.034 47.8852 20.1154C47.8852 21.0859 48.5507 21.6405 49.7985 21.6405Z" fill="white" fill-opacity="0.5"/>
<path d="M66.0554 24.6351C62.2566 24.6351 60.2046 23.1655 59.9551 20.1709H63.8093C64.0034 21.2245 64.8353 21.6682 65.9999 21.6682C67.3031 21.6682 68.1627 21.3077 68.1627 20.5036C68.1627 19.6995 67.414 19.3945 65.8613 19.1726C63.338 18.8676 60.2324 18.0912 60.2324 14.9024C60.2324 12.1573 62.7002 10.7155 65.9722 10.7155C69.1055 10.7155 71.3792 12.1851 71.7397 15.0411H68.135C67.9409 14.1538 67.2477 13.6824 66.0554 13.6824C64.6412 13.6824 64.0866 14.1815 64.0866 14.7915C64.0866 15.6234 64.863 15.8729 66.3326 16.0948C69.2719 16.5384 72.0724 17.3426 72.0724 20.3927C72.0724 23.0546 69.7155 24.6351 66.0554 24.6351Z" fill="white" fill-opacity="0.5"/>
<path d="M81.8877 15.9007L83.7732 10.9927H87.7938V11.1868L82.2758 25.3283C80.8062 29.0994 79.4475 30.3195 76.4251 30.3195C75.4546 30.3195 74.5396 30.0699 73.7632 29.7649L74.4842 26.7425C75.0387 26.9366 75.5378 27.0475 76.0369 27.0475C77.2293 27.0475 77.7838 26.5484 78.4493 24.8292L78.7821 23.9974L72.9868 11.1868V10.9927H77.1184L79.1703 15.8729L80.5567 19.5886L81.8877 15.9007Z" fill="white" fill-opacity="0.5"/>
<path d="M94.6869 16.3443V20.6145H102.728V24.3579H90.5554V4.94793H102.479V8.69127H94.6869V12.6564H102.007V16.3443H94.6869Z" fill="white" fill-opacity="0.5"/>
<path d="M118.734 11.5196V4.94793H122.837V24.4133H121.257L110.47 13.0169L110.581 17.6753V24.3579H106.478V4.86475H108.058L118.844 16.0948L118.734 11.5196Z" fill="white" fill-opacity="0.5"/>
<path d="M125.553 4.94793H140V8.69127H134.87V24.3579L130.711 24.3579V8.69127H125.553V4.94793Z" fill="white" fill-opacity="0.5"/>
<path d="M21.9046 16.6542C22.0679 16.6456 22.2468 16.6668 22.4259 16.7371C22.8316 16.894 23.1654 17.2507 23.2743 17.6453C23.3846 18.0376 23.2666 18.3809 23.0038 18.5913L19.7013 21.2392C19.449 21.4193 19.0972 21.4686 18.7385 21.3365C18.3577 21.1973 18.0694 20.8736 17.9743 20.5051C17.8795 20.1426 17.9887 19.7773 18.2436 19.5741L21.9046 16.6542ZM20.8381 13.8278C21.3122 14.0033 21.6919 14.4126 21.8132 14.8711C21.9353 15.331 21.7947 15.7559 21.4751 16.0133L17.8046 18.9465C17.4826 19.2029 17.0099 19.2707 16.5371 19.0926C16.0562 18.9135 15.7048 18.5366 15.5819 18.0709C15.4654 17.6404 15.5645 17.1758 15.8672 16.9347L19.5672 13.975C19.9216 13.6933 20.4824 13.6964 20.8381 13.8278ZM18.4059 11.229C18.8788 11.4072 19.2587 11.8118 19.3811 12.2724C19.5033 12.7325 19.3617 13.1554 19.0398 13.4118L15.3691 16.3447C15.0494 16.6021 14.5766 16.6696 14.1029 16.4898C13.6224 16.3113 13.2719 15.9365 13.1494 15.4714C13.0253 15.0129 13.1655 14.5923 13.4873 14.329L17.1364 11.3735C17.4735 11.1 18.0241 11.1006 18.4059 11.229ZM3.01138 8.49845C3.56559 8.21743 4.63967 8.19069 5.24421 8.50837C6.91391 9.3865 7.81494 10.8287 9.27113 13.0909C9.39976 13.2877 9.6907 13.3314 9.87981 13.1801L20.1258 4.9477C20.4701 4.67094 20.786 4.59846 21.0668 4.6228C21.3474 4.64763 21.6085 4.78128 21.7968 4.98518C22.1763 5.39252 22.285 6.00519 21.6244 6.56634L12.958 13.7716C12.3966 14.2259 12.177 14.9488 12.3643 15.6491C12.5495 16.3437 13.0811 16.9133 13.7974 17.183C14.1194 17.3038 14.4604 17.3491 14.7864 17.3259C14.7155 17.6224 14.7139 17.9395 14.7978 18.2514C14.9821 18.9444 15.5147 19.5156 16.2331 19.7843C16.5411 19.8998 16.863 19.9454 17.1756 19.9282C17.1238 20.1706 17.1252 20.4268 17.1895 20.6801C17.3459 21.2805 17.8177 21.8016 18.4389 22.0316C18.5047 22.0554 18.5724 22.0727 18.64 22.0899L17.837 22.7319C16.3599 23.9195 15.5664 24.4951 14.984 24.7623C14.4017 25.0299 13.9952 25.0312 13.0997 25.0487C11.2852 25.0813 9.59444 24.0513 8.28631 22.5264C6.97761 21.0038 6.08186 19.0049 5.85231 17.2647L5.35548 13.5084C5.17062 12.1154 4.4126 10.9665 3.14463 9.84587C2.68371 9.43861 2.58343 9.14065 2.5991 8.96571C2.61277 8.79123 2.73275 8.63862 3.01138 8.49845ZM2.62346 7.84298C2.19271 8.06165 1.83128 8.42877 1.79137 8.90908C1.75359 9.39174 2.02949 9.88646 2.58719 10.3819C3.7754 11.4348 4.39636 12.3974 4.55692 13.6007L5.04965 17.3543C5.30062 19.2566 6.24802 21.3522 7.65581 22.9921C9.06592 24.6331 10.9632 25.8336 13.1128 25.7923C14.006 25.7755 14.6139 25.7616 15.3413 25.4294C16.069 25.0971 16.8781 24.4889 18.3646 23.297L23.5345 19.1538C24.7936 18.1454 23.8234 16.0599 22.4884 15.9712C23.2407 14.2724 21.4133 12.7821 20.1735 13.0038C20.5955 11.7997 19.3996 10.5538 18.2556 10.4336L22.1715 7.11492C23.1118 6.3184 23.0359 5.17689 22.409 4.50072C22.0971 4.1644 21.6532 3.92613 21.1464 3.87942C20.6398 3.83304 20.0849 3.99319 19.5998 4.38304L9.70474 12.3349C8.3998 10.3023 7.41309 8.79056 5.64521 7.8617C4.71989 7.37507 3.48491 7.4098 2.62346 7.84298Z" fill="white" fill-opacity="0.5"/>
<path d="M11.0988 1.08453C10.9166 1.1719 10.8105 1.34873 10.8252 1.53739L11.083 5.46709C11.0987 5.72535 11.3384 5.92117 11.6176 5.9072C11.8974 5.89241 12.1106 5.66915 12.0952 5.41173L11.8361 1.47951C11.8194 1.14016 11.4278 0.928824 11.0988 1.08453Z" fill="#BCBF33"/>
<path d="M6.41485 2.50978C6.16558 2.6246 6.06395 2.90535 6.18835 3.13621L7.9915 6.58216C8.10053 6.82978 8.4164 6.94057 8.67787 6.82652C8.93892 6.70954 9.04096 6.41459 8.90351 6.17919L7.09904 2.73071C6.97926 2.49259 6.66934 2.39315 6.41485 2.50978Z" fill="#5491E7"/>
<path d="M15.9427 2.01514C15.8268 2.07275 15.7377 2.16619 15.6966 2.28275L14.3547 5.89397C14.263 6.13805 14.4028 6.40461 14.6686 6.48851C14.9326 6.57322 15.2206 6.44108 15.3111 6.1949L16.6545 2.58662C16.8047 2.18648 16.3505 1.82251 15.9427 2.01514Z" fill="#F91818"/>
</svg>
