<svg width="160" height="50" viewBox="0 0 160 50" fill="none" xmlns="http://www.w3.org/2000/svg">
<g clip-path="url(#clip0_2001_3568)">
<mask id="mask0_2001_3568" style="mask-type:luminance" maskUnits="userSpaceOnUse" x="0" y="0" width="160" height="50">
<path d="M160 0H0V50H160V0Z" fill="white"/>
</mask>
<g mask="url(#mask0_2001_3568)">
<path d="M95.2811 46.1741L94.7785 45.8261C94.6415 45.7392 94.5958 45.6089 94.5958 45.4786V37.9572C94.5958 37.8268 94.6871 37.6965 94.7785 37.6096L95.2811 37.2617C95.3724 37.1748 95.4641 37.0444 95.4641 36.9137C95.4641 36.653 95.2355 36.4792 95.0068 36.4792H92.6762C92.4018 36.4792 92.2192 36.653 92.2192 36.9137V37.9572C92.2192 38.0441 92.1735 38.1313 92.1279 38.2182L88.7459 42.6961C88.6546 42.783 88.5629 42.8699 88.4259 42.8699C88.1976 42.8699 88.0146 42.6961 88.0146 42.4786V36.9137C88.0146 36.653 87.7863 36.4792 87.5576 36.4792H85.227C84.9527 36.4792 84.77 36.6965 84.77 36.9137C84.77 37.0879 84.8613 37.2182 84.9983 37.3051L85.5466 37.653C85.6383 37.7399 85.7297 37.8703 85.7297 38.0006V47.2175C85.7297 47.4348 85.9123 47.6089 86.141 47.6089C86.278 47.6089 86.415 47.5655 86.461 47.4348L91.5335 40.6961C91.6252 40.6092 91.7165 40.5224 91.8535 40.5224C92.0822 40.5224 92.2648 40.6961 92.2648 40.9137V45.4786C92.2648 45.6089 92.1735 45.7392 92.0822 45.8261L91.5335 46.2175C91.4422 46.3044 91.3509 46.4351 91.3509 46.5655C91.3509 46.8261 91.5792 47.0003 91.8079 47.0003H95.0985C95.3268 47.0003 95.5555 46.7827 95.5555 46.5655C95.5098 46.3913 95.4181 46.261 95.2811 46.1741Z" fill="#3B2720"/>
<path d="M82.6234 45.7827C82.5778 45.7393 82.5321 45.6958 82.4864 45.6089L79.4242 40.0007C79.3785 39.9572 79.3785 39.87 79.3785 39.7831C79.3785 39.6962 79.3785 39.6527 79.4242 39.5658C79.8815 38.6527 80.2925 38.0007 80.9781 38.0007C81.4351 38.0007 81.8008 38.2182 82.2578 38.9572C82.3491 39.0876 82.4404 39.131 82.6234 39.131C82.8518 39.131 83.0348 38.9572 83.0348 38.7396V36.8269C83.0348 36.6531 82.9434 36.5224 82.8061 36.4355C82.3948 36.2182 81.9834 36.1313 81.4808 36.1313C80.4298 36.1313 79.6528 36.6965 78.5558 39.0876L77.9162 40.4789C77.8249 40.6527 77.6875 40.7396 77.5049 40.7396H77.0479C76.7735 40.7396 76.5909 40.5224 76.5909 40.3048V37.9572C76.5909 37.8269 76.6366 37.74 76.7279 37.6531L77.2762 37.0879C77.3679 37.0007 77.4136 36.9138 77.4136 36.7834C77.4136 36.5224 77.1849 36.3486 76.9566 36.3486H73.7573C73.4833 36.3486 73.3003 36.5662 73.3003 36.7834C73.3003 36.9138 73.3916 37.0441 73.4833 37.1313L74.1229 37.6093C74.2143 37.6965 74.306 37.8269 74.306 37.9572V45.3913C74.306 45.522 74.2143 45.6524 74.1229 45.7393L73.5746 46.1307C73.4376 46.2176 73.3916 46.3479 73.3916 46.4782C73.3916 46.7393 73.6203 46.9131 73.8486 46.9131H76.9566C77.2305 46.9131 77.4136 46.6958 77.4136 46.4782C77.4136 46.3479 77.3679 46.2176 77.2762 46.1307L76.8192 45.7393C76.7279 45.6524 76.6822 45.522 76.6822 45.3913V42.131C76.6822 41.87 76.9109 41.6962 77.1392 41.6962H77.6875C77.8705 41.6962 78.0532 41.7831 78.0989 41.9569L79.8355 45.3913C79.8815 45.4351 79.8815 45.522 79.8815 45.5655C79.8815 45.6524 79.8355 45.7393 79.7898 45.8262L79.4702 46.2176C79.4242 46.3045 79.3785 46.3914 79.3785 46.4782C79.3785 46.7393 79.6072 46.9131 79.8355 46.9131H82.8978C83.1718 46.9131 83.3548 46.6958 83.3548 46.4782C83.3548 46.3479 83.3091 46.261 83.2174 46.1741C82.9434 46.0872 82.8061 45.9131 82.6234 45.7827Z" fill="#3B2720"/>
<path d="M135.087 46.3045L134.356 45.7828C134.264 45.6959 134.173 45.5655 134.173 45.4352V38.2183C134.173 37.0445 133.716 36.1314 131.659 36.1314C131.156 36.1314 130.608 36.2183 130.151 36.3921C130.105 36.3921 130.06 36.4355 130.014 36.4355C129.922 36.4355 129.831 36.3921 129.74 36.3486L129.191 35.9576C129.1 35.9142 129.008 35.8704 128.917 35.8704C128.734 35.8704 128.551 36.001 128.46 36.1748L127.866 38.0442C127.866 38.0876 127.866 38.1314 127.866 38.1314C127.866 38.3052 128.049 38.479 128.232 38.479C128.323 38.479 128.414 38.4355 128.46 38.3921C129.648 37.3921 130.517 36.9573 130.974 36.9573C131.613 36.9573 131.796 37.3486 131.796 38.4355V39.6528C131.796 39.9138 131.568 40.0876 131.339 40.0876C131.294 40.0876 131.294 40.0876 131.248 40.0876C130.745 39.9573 130.197 39.9138 129.648 39.9138C127.317 39.9138 125.626 41.6093 125.626 43.8266C125.626 45.9569 126.86 47.2611 128.826 47.2611C130.014 47.2611 130.882 46.8262 131.522 46.0873C131.568 46.0438 131.613 46.0438 131.659 46.0438C131.751 46.0438 131.842 46.1307 131.842 46.2176V46.5221V46.5655C131.842 46.8262 132.07 47.0004 132.299 47.0004H134.858C135.087 47.0004 135.27 46.8262 135.27 46.609C135.27 46.4786 135.178 46.3914 135.087 46.3045ZM131.796 43.2614V44.8266C131.796 45.0438 131.613 45.2176 131.385 45.2611C131.111 45.3045 130.837 45.3045 130.608 45.3045C128.551 45.3045 127.592 44.1307 127.592 42.6962C127.592 41.5659 128.46 40.7831 129.42 40.7831C130.38 40.7831 131.202 41.3048 131.613 42.1311C131.842 42.5659 131.796 42.7831 131.796 43.2614Z" fill="#3B2720"/>
<path d="M119.78 36.3925C118.226 36.3925 117.083 37.1315 116.398 38.2184C116.352 38.3053 116.261 38.3487 116.169 38.3487C116.032 38.3487 115.895 38.2184 115.895 38.088C115.621 34.3491 116.535 33.9143 119.003 33.9143H122.796C123.024 33.9143 123.162 33.7839 123.253 33.61L123.71 32.0883C123.71 32.0449 123.71 32.0449 123.71 32.0014C123.71 31.7405 123.481 31.5667 123.253 31.5667C123.162 31.5667 123.116 31.5666 123.07 31.6101C122.978 31.6536 122.887 31.6971 122.75 31.7405C122.339 31.9144 122.339 31.9144 121.882 31.9144H121.059C116.626 31.9144 113.93 34.5663 113.93 39.6532C113.93 43.0008 115.666 47.3915 119.962 47.3915C122.842 47.3915 124.487 45.3049 124.487 42.3918C124.395 38.5663 122.476 36.3925 119.78 36.3925ZM120.557 46.1308C117.952 46.1308 116.718 43.3484 116.123 39.8704C116.123 39.827 116.123 39.827 116.123 39.7835C116.123 39.6094 116.215 39.4791 116.352 39.3922C116.855 39.088 117.586 38.827 118.5 38.827C120.968 38.827 122.75 40.6963 122.75 43.3484C122.796 45.1742 121.836 46.1308 120.557 46.1308Z" fill="#3B2720"/>
<path d="M22.3449 36.1748C21.1567 36.1748 20.2884 36.6965 19.6943 37.2617C19.6486 37.3051 19.5572 37.3486 19.4658 37.3486C19.2829 37.3486 19.1458 37.2183 19.1458 37.0441V36.8269C19.1458 36.6096 18.963 36.392 18.6889 36.392H16.4038C16.1296 36.392 15.9468 36.6096 15.9468 36.8269C15.9468 36.9572 16.0382 37.0876 16.1296 37.1748L16.678 37.5658C16.7694 37.6527 16.8608 37.7834 16.8608 37.9138V47.261V48.9565C16.8608 49.0869 16.7694 49.2172 16.678 49.3041L16.1296 49.6955C16.0839 49.7389 16.0382 49.7389 16.0382 49.7824C16.0382 49.8258 16.0839 49.8258 16.0839 49.8693C16.1296 49.9127 16.1753 49.9131 16.221 49.9565C16.221 49.9565 16.221 49.9565 16.2667 49.9565C16.3124 49.9565 16.3581 50 16.4038 50C16.4038 50 16.4038 50 16.4495 50H18.7803H19.74C19.9685 50 20.197 49.7824 20.197 49.5652C20.197 49.4348 20.1056 49.2607 20.0142 49.2172L19.5115 48.8696C19.3744 48.7824 19.3286 48.652 19.3286 48.5217V47C19.3286 46.7393 19.5572 46.5652 19.7857 46.5652C19.8314 46.5652 19.8771 46.5652 19.9228 46.5652C20.4255 46.7393 21.0196 46.8262 21.6137 46.8262C24.3558 46.8262 26.3667 44.6958 26.3667 41.0876C26.2752 38.6093 24.8585 36.1748 22.3449 36.1748ZM22.1621 46.0438C20.9282 46.0438 19.9228 45.4786 19.3286 44.6958C19.2829 44.6089 19.2372 44.522 19.2372 44.4352V38.7831C19.2372 38.5658 19.4201 38.3486 19.6486 38.3486C19.8314 38.3052 20.1056 38.3052 20.3341 38.3052C22.8476 38.3052 24.63 40.2614 24.63 43.0003C24.63 45.0003 23.6246 46.0438 22.1621 46.0438Z" fill="#3B2720"/>
<path d="M147.294 36.3921H143.684C143.456 36.3921 143.273 36.5659 143.273 36.7835C143.273 36.9138 143.318 37.0007 143.41 37.0442L144.095 37.6093C144.186 37.6962 144.233 37.7835 144.233 37.9138V40.2614C144.233 40.479 144.004 40.6962 143.776 40.6962H140.622C140.348 40.6962 140.165 40.479 140.165 40.2614V37.9138C140.165 37.7835 140.211 37.6962 140.302 37.6093L140.988 37.0876C141.079 37.0007 141.125 36.9138 141.125 36.7835C141.125 36.5659 140.942 36.3921 140.713 36.3921H137.057C136.829 36.3921 136.646 36.5659 136.646 36.7835C136.646 36.9138 136.692 37.0442 136.829 37.0876L137.56 37.6093C137.651 37.6962 137.743 37.8269 137.743 37.9573V45.4786C137.743 45.609 137.651 45.7828 137.56 45.8262L136.829 46.3479C136.737 46.4348 136.646 46.5217 136.646 46.6524C136.646 46.8697 136.829 47.0435 137.057 47.0435H140.668C140.896 47.0435 141.079 46.8697 141.079 46.6524C141.079 46.5217 141.033 46.4348 140.942 46.3479L140.256 45.8262C140.165 45.7393 140.074 45.609 140.074 45.4786V42.0873C140.074 41.8266 140.256 41.6528 140.531 41.6528H143.776C144.004 41.6528 144.233 41.8266 144.233 42.0873V45.5221C144.233 45.6524 144.186 45.7393 144.095 45.8262L143.41 46.3479C143.318 46.4348 143.273 46.5217 143.273 46.6524C143.273 46.8697 143.456 47.0435 143.684 47.0435H147.294C147.523 47.0435 147.706 46.8697 147.706 46.6524C147.706 46.5217 147.66 46.4348 147.568 46.3479L146.837 45.8262C146.746 45.7393 146.654 45.609 146.654 45.4786V37.9573C146.654 37.8269 146.746 37.6962 146.837 37.6093L147.568 37.0876C147.66 37.0007 147.751 36.9138 147.751 36.7835C147.66 36.5659 147.477 36.3921 147.294 36.3921Z" fill="#3B2720"/>
<path d="M159.722 46.1741L159.219 45.8261C159.082 45.7392 159.036 45.6089 159.036 45.4786V37.9572C159.036 37.8268 159.128 37.6965 159.219 37.6096L159.722 37.2617C159.813 37.1748 159.905 37.0444 159.905 36.9137C159.905 36.653 159.676 36.4792 159.448 36.4792H157.117C156.843 36.4792 156.66 36.653 156.66 36.9137V37.9572C156.66 38.0441 156.614 38.1313 156.568 38.2182L153.186 42.6961C153.095 42.783 153.004 42.8699 152.867 42.8699C152.638 42.8699 152.455 42.6961 152.455 42.4786V36.9137C152.455 36.653 152.227 36.4792 151.998 36.4792H149.667C149.393 36.4792 149.21 36.6965 149.21 36.9137C149.21 37.0879 149.302 37.2182 149.439 37.3051L149.987 37.653C150.079 37.7399 150.17 37.8703 150.17 38.0006V47.2175C150.17 47.4348 150.353 47.6089 150.581 47.6089C150.719 47.6089 150.856 47.5655 150.901 47.4348L155.974 40.6961C156.066 40.6092 156.157 40.5224 156.294 40.5224C156.523 40.5224 156.706 40.6961 156.706 40.9137V45.4786C156.706 45.6089 156.614 45.7392 156.523 45.8261L155.974 46.2175C155.883 46.3044 155.792 46.4351 155.792 46.5655C155.792 46.8261 156.02 47.0003 156.249 47.0003H159.539C159.768 47.0003 159.996 46.7827 159.996 46.5655C159.95 46.3913 159.859 46.261 159.722 46.1741Z" fill="#3B2720"/>
<path d="M7.03799 31.3489C2.51357 31.3489 0 34.6095 0 39.2178C0 44.0437 2.97058 47.3044 7.63211 47.3044C12.1565 47.3044 14.6244 43.5654 14.6244 39.3047C14.5787 34.7399 11.5167 31.3489 7.03799 31.3489ZM9.18594 45.4347C5.94114 45.4347 2.55927 41.5219 2.55927 36.8702C2.55927 34.1313 3.88462 32.5662 5.89544 32.5662C9.41444 32.5662 12.5221 36.8268 12.5221 41.2613C12.5221 43.8264 11.1511 45.4347 9.18594 45.4347Z" fill="#3B2720"/>
<path d="M37.6162 46.1741L37.0679 45.7827C36.9766 45.6958 36.8849 45.5654 36.8849 45.4351V37.9137C36.8849 37.7399 36.9766 37.6096 37.0679 37.5661L37.5706 37.2182C37.7076 37.1313 37.7532 37.001 37.7532 36.8703C37.7532 36.6096 37.5249 36.4358 37.2962 36.4358H30.5783C30.3041 36.4358 30.1213 36.653 30.1213 36.8703C30.1213 37.001 30.2127 37.1313 30.3041 37.2182H30.3498L30.8525 37.5661C30.9439 37.653 31.0353 37.7834 31.0353 37.9137C31.0353 37.9572 31.0353 37.9572 31.0353 38.0006L30.3498 41.9568C30.0299 43.6527 29.4814 45.3048 28.7045 45.3048C28.2932 45.3048 28.0647 45.0437 27.8362 44.4351C27.7905 44.3048 27.6534 44.1744 27.4706 44.1744C27.2878 44.1744 27.105 44.3048 27.105 44.4786L26.8765 46.4785V46.522C26.8765 46.6523 26.9222 46.7827 27.0136 46.8261C27.3335 47.1306 27.8362 47.3044 28.3846 47.3044C30.2584 47.3044 30.9896 45.6089 31.5837 42.2179L32.4063 37.653V37.6096C32.452 37.392 32.6348 37.2182 32.8633 37.2182H33.8688C34.3715 37.2182 34.5543 37.3485 34.5543 37.8268V45.4351C34.5543 45.5654 34.4629 45.6958 34.3715 45.7827L33.8231 46.1741C33.7317 46.261 33.6403 46.3913 33.6403 46.522C33.6403 46.7827 33.8688 46.9565 34.0972 46.9565H37.3419C37.6162 46.9565 37.7989 46.7392 37.7989 46.522C37.7989 46.3913 37.7532 46.261 37.6162 46.1741Z" fill="#3B2720"/>
<path d="M44.6042 36.1313C41.451 36.1313 39.166 38.4355 39.166 41.7396C39.166 44.9569 41.5423 47.3045 44.5586 47.3045C47.7578 47.3045 49.9515 44.9569 49.9515 41.87C49.9971 38.3051 47.5748 36.1313 44.6042 36.1313ZM45.9755 45.4348C43.5076 45.4348 41.314 42.8265 41.314 39.8265C41.314 38.0876 42.3193 37.2617 43.7816 37.2617C46.1125 37.2617 48.4431 40.0007 48.4431 42.87C48.4431 44.6089 47.4378 45.4348 45.9755 45.4348Z" fill="#3B2720"/>
<path d="M71.4253 44.609C71.3796 44.609 71.2883 44.609 71.2427 44.6524C70.4657 45.0004 69.643 45.1307 68.729 45.1307C65.8954 45.1307 63.7018 43.3483 63.7018 40.6962C63.7018 38.7397 64.8901 37.3487 67.0837 37.3487C68.4547 37.3487 69.78 37.7835 71.151 39.0876C71.2427 39.1745 71.334 39.218 71.4253 39.218C71.654 39.218 71.8366 39.0442 71.8366 38.8269C71.8366 38.7835 71.8366 38.7831 71.8366 38.7397L71.1053 36.2618C71.0596 36.088 70.877 35.9573 70.6483 35.9573C70.557 35.9573 70.42 36.0007 70.3743 36.0445L69.963 36.3921C69.8713 36.479 69.78 36.5224 69.643 36.5224C69.5974 36.5224 69.5517 36.5224 69.506 36.479C68.9117 36.2618 68.272 36.1749 67.6777 36.1749C64.2501 36.1749 62.1938 38.3921 62.1938 41.6962C62.1938 44.8697 64.1131 47.3045 67.5864 47.3045C69.4143 47.3045 70.8313 46.609 71.8366 45.2611C71.8823 45.1742 71.928 45.0873 71.928 45.0004C71.8366 44.7828 71.654 44.609 71.4253 44.609Z" fill="#3B2720"/>
<path d="M58.04 40.8266C57.9026 40.7831 57.8113 40.6528 57.8113 40.479C57.8113 40.3483 57.9026 40.2179 57.9943 40.1745C58.9996 39.6528 59.8223 39.0007 59.8223 38.1311C59.8223 36.8704 58.5426 36.3921 55.9377 36.3921H51.8701C51.5961 36.3921 51.4131 36.6097 51.4131 36.8269C51.4131 36.9573 51.5044 37.0876 51.5961 37.1748L52.1444 37.5224C52.2814 37.6093 52.3271 37.74 52.3271 37.8704V45.3914C52.3271 45.5221 52.2357 45.6524 52.1444 45.7393L51.5961 46.1307C51.4587 46.2176 51.4131 46.348 51.4131 46.4783C51.4131 46.7393 51.6418 46.9131 51.8701 46.9131H56.349C58.8166 46.9131 60.8276 45.9566 60.8276 43.8266C60.8276 42.5655 59.6849 41.4786 58.04 40.8266ZM54.7037 37.5659C54.7037 37.1748 55.115 37.0442 55.709 37.0442C56.7603 37.0442 57.4 37.3052 57.4 38.0876C57.4 38.9573 56.7147 39.8266 55.4807 40.9135C55.389 41.0004 55.2977 41.0442 55.1607 41.0442C54.8863 41.0442 54.7037 40.8266 54.7037 40.6093V37.5659ZM56.943 46.3045C56.2116 46.3045 55.5263 46.1742 54.932 45.8697C54.795 45.7828 54.7037 45.6524 54.7037 45.4786V42.3917C54.7037 42.1307 54.932 41.9569 55.1607 41.9569C55.2063 41.9569 55.252 41.9569 55.2977 41.9569C57.4456 42.4786 58.8166 43.5221 58.8166 44.7393C58.8166 45.8262 58.04 46.3045 56.943 46.3045Z" fill="#3B2720"/>
<path d="M102.597 36.1313C98.9859 36.1313 97.1123 38.6962 97.1123 41.8265C97.1123 44.9134 99.1689 47.3045 102.597 47.3045C104.424 47.3045 105.795 46.6524 106.755 45.3479C106.801 45.261 106.846 45.1741 106.846 45.0872C106.846 44.8262 106.618 44.6524 106.389 44.6524C106.344 44.6524 106.252 44.6524 106.207 44.6958C105.475 45.0003 104.698 45.1307 103.693 45.1307C101.5 45.1307 99.7172 44.0003 98.9859 42.1745C98.9859 42.131 98.9403 42.0872 98.9403 42.0438C98.9403 41.7831 99.1689 41.6093 99.3973 41.6093H107.166C107.395 41.6093 107.578 41.4351 107.623 41.1745C107.623 41.131 107.623 41.131 107.623 41.0876C107.715 38.4789 106.024 36.1313 102.597 36.1313ZM105.475 40.5658H99.2603C98.9859 40.5658 98.8033 40.3482 98.8033 40.131C98.8033 40.131 98.8033 40.131 98.8033 40.0876C98.9859 38.6527 100.129 37.5224 101.865 37.5224C103.602 37.5224 104.927 38.4789 105.887 39.87C105.932 39.9572 105.978 40.0441 105.978 40.131C105.978 40.3482 105.75 40.5658 105.475 40.5658Z" fill="#3B2720"/>
<path d="M123.347 18.437C123.484 18.35 123.849 18.3935 124.535 18.7413C126.317 19.6543 132.761 21.5672 134.041 19.3499C134.132 19.176 134.178 19.0021 134.223 18.7848C134.315 17.2631 132.67 16.0893 131.481 15.3067C130.065 14.3938 128.237 13.6981 125.815 13.3503C123.072 12.9591 122.204 12.9156 125.586 11.6113C126.363 11.307 127.14 11.0462 127.368 10.9157C128.968 10.4375 128.877 9.82886 127.825 9.08976C125.632 7.74203 123.21 7.6551 120.559 8.61155C119.736 8.91586 118.502 9.69841 117.588 9.43755C116.766 9.22017 118.594 8.22024 118.776 8.04634C119.462 7.56814 120.102 7.04641 120.742 6.48124C121.793 5.52479 123.484 4.13359 122.57 2.78585C122.204 2.22067 121.29 2.0033 119.736 2.22068C117.543 2.43805 115.669 3.52493 114.024 4.95962C112.196 6.56821 111.145 7.95941 109.042 9.568C108.448 9.87231 108.082 9.91579 107.854 9.87231C106.849 9.568 108.402 8.04634 108.722 7.69855C108.951 7.48117 109.134 7.26379 109.362 7.04641C110.185 6.17693 111.099 5.48131 111.236 4.61183C111.419 3.48145 110.413 2.26413 107.854 2.82931C106.711 3.09017 106.026 3.69883 105.112 4.26403C103.147 5.43786 101.41 7.00293 99.7192 8.69848C98.8508 9.568 98.0282 10.6114 97.0229 11.394C96.1089 12.133 95.0576 12.6113 95.9716 11.2635C96.1089 11.0027 96.3372 10.7853 96.3829 10.6983C97.1142 9.78538 97.8455 8.87241 98.6222 7.95941C99.5365 6.82907 100.816 5.91607 99.9018 4.65528C99.6735 4.35097 99.3535 4.0901 98.9422 3.95969C97.5255 3.48145 96.3829 4.00314 95.3776 4.78569C93.641 6.13345 91.813 7.78552 90.0764 9.22017C88.9794 10.1332 87.8367 10.6114 86.6944 10.8288C86.1001 10.9592 85.3691 10.9157 84.5921 10.8288C84.5465 10.8288 84.5465 10.8288 84.5921 10.8288C86.1914 9.87231 88.8881 8.17676 88.4311 6.7421C88.2481 6.13345 87.0141 5.69869 86.1001 6.48124C85.7344 6.78559 85.4148 7.04641 85.0948 7.26379C84.6835 7.56814 84.0895 7.30728 84.0895 6.82903C84.0435 5.30741 83.5865 4.48138 83.0838 3.52493C82.8098 2.95975 82.8098 2.26414 83.0838 1.69897C83.3125 1.22074 83.4495 0.699024 83.4495 0.220797C83.4495 0.133846 83.3125 0.0469011 83.2212 0.0903763C82.9925 0.220802 82.5355 0.438193 81.9415 0.56862C79.6562 1.00337 78.1483 -0.431311 75.589 0.133868C72.3441 0.829472 72.5271 4.13359 73.6237 5.30741C73.6694 5.39434 73.8067 5.3509 73.8524 5.26393C74.5833 4.17707 76.0916 4.00317 77.1883 4.0901C77.5539 4.13359 77.8739 4.48138 77.8283 4.82921C77.737 5.43786 77.5083 6.43779 76.6856 7.6551C76.503 7.91593 76.0916 8.00286 75.8173 7.82897C75.2233 7.48117 74.6294 7.04641 73.9894 6.52472C73.0754 5.74217 71.8871 6.17693 71.6587 6.78559C71.2018 8.26376 73.898 9.91579 75.4977 10.8722C74.7663 10.9592 74.035 11.0027 73.3954 10.8722C72.2527 10.6549 71.1101 10.1767 70.0134 9.26369C68.2768 7.829 66.4485 6.17693 64.7119 4.82921C63.7066 4.04665 62.5639 3.52493 61.1473 4.00314C60.736 4.13359 60.416 4.39445 60.1876 4.69876C59.3193 6.00303 60.5533 6.87252 61.4673 8.0029C62.1986 8.91586 62.9296 9.82883 63.7066 10.7418C63.7979 10.8722 63.9809 11.0896 64.1179 11.307C64.9862 12.6547 63.9809 12.133 63.0669 11.4374C62.1069 10.6549 61.2843 9.65496 60.3703 8.74197C58.6793 7.04645 56.897 5.48131 54.9778 4.30748C54.0638 3.74231 53.3781 3.13366 52.2355 2.87281C49.6762 2.30763 48.6709 3.52493 48.8535 4.65528C48.9909 5.52479 49.9049 6.17693 50.7275 7.08993C50.9558 7.30728 51.1388 7.52465 51.3672 7.74203C51.6872 8.08986 53.2411 9.61148 52.2355 9.91579C52.0071 10.0028 51.6415 9.91579 51.0475 9.61148C48.9452 8.0029 47.8939 6.61165 46.0659 5.00307C44.375 3.52493 42.547 2.48152 40.3534 2.26414C38.7994 2.04677 37.8854 2.26413 37.5198 2.82931C36.6058 4.17703 38.2511 5.56824 39.3477 6.52472C39.9877 7.0899 40.6274 7.61162 41.313 8.08983C41.5414 8.22028 43.324 9.26369 42.5014 9.48107C41.587 9.7419 40.3991 8.95934 39.5307 8.655C36.8801 7.69855 34.4578 7.78548 32.2642 9.13324C31.213 9.87231 31.1216 10.481 32.7211 10.9592C32.9496 11.0461 33.7266 11.3505 34.5035 11.6548C37.8854 12.9591 37.0171 13.0026 34.275 13.3938C31.8528 13.7416 30.0705 14.4372 28.608 15.3502C27.4198 16.1328 25.7746 17.3066 25.866 18.8282C25.866 19.0456 25.9117 19.2195 26.0488 19.3934C27.3284 21.6107 33.7723 19.6977 35.5546 18.7848C36.2401 18.4804 36.5601 18.3935 36.7428 18.4804C37.1998 18.8282 35.8745 19.8716 35.646 20.089C35.189 20.5672 34.9148 21.0889 35.7375 21.4802C36.8341 22.0019 38.3424 21.2194 39.8504 20.176C40.7187 19.5673 41.587 18.8717 42.2727 18.2196C42.5927 17.9152 44.512 15.785 45.152 16.6545C45.472 17.0892 44.4206 18.4804 44.1006 18.8717C43.3697 19.8282 42.684 20.7846 41.9527 21.7411C40.6274 24.0887 43.0497 24.6539 45.6089 23.567C47.4826 22.741 51.0475 19.6108 52.1441 17.9587C53.4694 15.698 56.0287 17.0892 53.7438 19.176C51.9615 20.8281 46.8886 24.0018 48.1682 25.6538C49.6762 27.5668 53.9721 26.2625 57.4914 23.8279C61.2386 21.2629 61.8786 19.9586 64.6662 17.3501C66.9058 15.2633 68.1851 16.524 66.0832 18.2196C64.2092 19.7847 63.6152 21.4802 64.5749 21.9584C65.4889 22.3932 66.5402 22.1758 67.5912 21.6107C69.1908 20.7846 70.8818 19.3065 71.6127 18.3935C72.4354 17.3936 73.1667 16.3501 74.0807 15.785C75.4516 15.0024 77.0513 14.6111 79.1992 13.7416C79.7936 13.5242 80.4789 13.5242 81.0272 13.7416C83.1752 14.6111 84.7748 15.0024 86.1458 15.785C87.1058 16.3501 87.8367 17.3936 88.6137 18.3935C89.345 19.3065 91.036 20.7846 92.6353 21.6107C93.641 22.1323 94.6919 22.3932 95.6519 21.9584C96.6116 21.4802 96.0629 19.7847 94.1436 18.2196C92.0413 16.4806 93.321 15.2633 95.5602 17.3501C98.3025 19.9586 98.9878 21.2194 102.735 23.8279C106.254 26.2625 110.596 27.5668 112.059 25.6538C113.338 24.0452 108.22 20.8281 106.483 19.176C104.244 17.0892 106.757 15.6546 108.082 17.9587C109.179 19.6108 112.698 22.7845 114.618 23.567C117.177 24.6539 119.553 24.0887 118.274 21.7411C117.543 20.7846 116.857 19.8282 116.126 18.8717C115.852 18.4804 114.755 17.1327 115.075 16.6545C115.714 15.785 117.634 17.9152 117.954 18.2196C118.639 18.8717 119.508 19.5673 120.376 20.176C121.93 21.2194 123.392 22.0454 124.489 21.4802C125.266 21.0889 125.038 20.5672 124.581 20.089C124.215 19.8282 122.89 18.7848 123.347 18.437ZM76.2743 1.61201L75.9086 1.13379C77.6913 0.829465 78.0569 1.00336 76.2743 1.61201ZM81.9415 10.2201C83.9521 9.39407 85.3691 8.69848 82.4442 10.394L81.9415 10.2201ZM78.1483 12.4374C77.28 12.7417 76.2743 13.046 74.949 13.4373C72.4814 14.1764 72.8467 13.8286 71.3387 15.6111C69.8761 17.3501 68.5051 18.8717 66.9972 19.9151C65.7175 20.7846 65.4889 20.7846 66.5858 19.8716C68.0938 18.6543 69.4648 17.3501 70.4248 15.785C71.6587 13.8721 71.5214 14.1764 70.0134 14.4807C68.5051 14.785 66.5858 14.872 64.6662 14.785C62.3813 14.7416 63.2039 14.4807 61.833 16.1762C59.6393 18.8717 56.5314 21.2629 53.1494 23.4366C51.4585 24.5235 51.0475 24.567 53.0125 23.1758C56.3031 20.8281 58.588 18.4804 60.1876 16.1762C61.2386 14.6546 61.513 14.5242 59.8676 14.3938C57.1257 14.1764 54.7947 14.0025 52.0528 13.7851C50.5902 13.6547 51.0015 13.5242 50.3162 14.7416C48.5339 17.8718 46.8429 20.089 45.152 21.5672C43.6436 22.8714 43.6436 22.7845 44.9233 21.3498C46.7056 19.3934 48.5339 17.2197 49.6305 14.6981C50.1332 13.5242 50.3162 13.5242 49.0365 13.5677C47.7112 13.6112 46.2029 13.8286 44.8776 14.2199C44.0093 14.4807 43.6436 14.5677 42.9583 15.1763C41.77 16.2632 40.5817 17.3501 39.2564 18.35C38.6624 18.8282 37.7485 19.263 39.1194 18.1761C40.2161 17.3066 41.3587 16.4371 41.907 15.4371C42.1357 15.0024 42.0444 15.0024 41.45 15.1328C37.5654 15.9589 33.0411 17.1762 28.8366 18.5674C28.7909 18.5674 28.6994 18.6109 28.6537 18.6109C28.4709 18.6543 28.4709 18.6109 28.608 18.5674C28.6537 18.5239 28.7452 18.5239 28.7909 18.4804C33.818 16.5675 39.2564 14.9155 44.7863 13.3938C45.9289 13.0895 46.0659 13.1764 44.9233 12.6548C41.8614 11.1766 38.2054 10.4375 34.3207 9.95928C37.3828 10.1332 41.0844 10.6984 46.4316 12.307C47.2999 12.5678 47.4369 12.6112 48.3509 12.6112C48.7622 12.6112 49.2192 12.6548 49.6762 12.6548C51.8241 12.7417 51.5502 12.8721 49.9962 11.7418C46.5686 9.22017 44.4206 6.82907 40.0791 4.0901C43.598 5.48131 46.8429 9.22017 51.4128 11.9591C52.8755 12.8286 52.6468 12.6982 54.9321 12.9156C55.3434 12.9591 55.7547 13.0025 56.1657 13.046C58.451 13.2634 58.8623 13.7851 57.6284 11.6548C56.0287 8.95934 53.5151 6.7421 51.5502 4.78569C54.0638 6.916 56.897 9.22017 59.045 11.9591C60.0963 13.3069 59.6393 13.1764 61.4673 13.4373C64.1636 13.8286 66.6315 13.7851 68.8708 13.5677C70.8361 13.3503 70.9274 13.4373 69.5108 12.5243C66.4028 10.6114 64.5749 8.87238 63.2952 7.35076C61.5586 5.30741 61.7873 5.3509 63.5696 7.17683C65.2149 8.87238 66.8598 10.6549 70.2874 12.22C71.7957 12.8721 71.8414 13.046 73.3954 12.7417C74.4463 12.5243 75.6803 12.2635 77.0513 11.8722C77.4626 12.0461 77.7826 12.2635 78.1483 12.4374ZM120.65 18.3066C119.371 17.3066 118.137 16.2632 116.948 15.1328C116.263 14.5242 115.897 14.4372 115.029 14.1764C113.704 13.7851 112.196 13.5677 110.87 13.5242C109.591 13.4808 109.773 13.4808 110.276 14.6546C111.373 17.1762 113.247 19.3934 114.984 21.3063C116.263 22.6975 116.263 22.828 114.755 21.5237C113.018 20.0455 111.327 17.8283 109.591 14.6981C108.905 13.4808 109.271 13.6112 107.854 13.7416C105.112 13.959 102.781 14.1329 100.039 14.3503C98.3939 14.4807 98.6682 14.6111 99.7192 16.1328C101.319 18.4804 103.604 20.8281 106.894 23.1323C108.859 24.5235 108.448 24.48 106.757 23.3931C103.375 21.2629 100.267 18.8282 98.0739 16.1328C96.7029 14.4372 97.5255 14.6546 95.2406 14.7416C93.321 14.785 91.4017 14.6981 89.8934 14.4372C88.3854 14.1329 88.2481 13.8286 89.482 15.7415C90.4873 17.3066 91.813 18.6109 93.321 19.8282C94.4636 20.6977 94.1893 20.7411 92.9096 19.8716C91.4017 18.8282 90.0303 17.3066 88.5681 15.5676C87.0597 13.7851 87.4711 14.1329 84.9578 13.3938C81.3929 12.3504 80.1589 11.8722 78.1026 10.6983C73.5324 8.13331 76.5943 9.69841 79.2449 10.6983C82.1242 11.7418 84.5465 12.3504 86.3744 12.6982C87.9284 13.0026 87.9284 12.8721 89.482 12.1765C92.9553 10.6549 94.5549 8.82893 96.2002 7.13338C97.9825 5.30741 98.1652 5.26396 96.4742 7.30728C95.1946 8.82893 93.3666 10.5244 90.259 12.4808C88.7967 13.3938 88.9337 13.3069 90.8987 13.5242C93.1383 13.7851 95.6059 13.8286 98.3025 13.3938C100.13 13.133 99.6735 13.2634 100.724 11.9157C102.872 9.17672 105.706 6.87252 108.22 4.74224C106.3 6.69862 103.741 8.91586 102.141 11.6113C100.907 13.6981 101.364 13.1764 103.604 13.0026C104.015 12.9591 104.426 12.9156 104.838 12.8721C107.077 12.6113 106.894 12.7852 108.357 11.9157C112.973 9.17672 116.171 5.43786 119.691 4.04665C115.349 6.82907 113.201 9.22021 109.773 11.6983C108.22 12.8287 107.945 12.6982 110.093 12.6112C110.55 12.6112 111.007 12.5678 111.419 12.5678C112.333 12.5243 112.47 12.5243 113.338 12.2634C118.685 10.6549 122.387 10.0897 125.449 9.91579C121.564 10.394 117.954 11.1331 114.846 12.6112C113.704 13.1764 113.841 13.046 114.984 13.3503C120.513 14.9154 125.952 16.524 130.979 18.437C131.024 18.4804 131.116 18.4804 131.161 18.5239C131.299 18.5674 131.299 18.6109 131.116 18.5674C131.07 18.5674 130.979 18.5239 130.933 18.5239C126.729 17.1327 122.204 15.9154 118.319 15.0893C117.771 14.9589 117.634 14.9589 117.862 15.3937C118.411 16.3501 119.553 17.2631 120.65 18.1326C122.158 19.2195 121.29 18.7848 120.65 18.3066Z" fill="#3B2720"/>
<path d="M86.1012 26.6971C86.2839 26.1755 86.0095 25.5668 85.8269 24.8277C85.7812 24.6538 85.7356 24.4799 85.6899 24.2626C85.6899 24.1756 85.5525 23.8713 85.4612 23.5235C85.8269 23.8713 86.2382 24.1321 86.6952 24.3495C87.5635 24.8277 88.1575 24.8712 88.5232 24.6104C88.9345 24.306 88.9801 23.9147 88.8888 23.48C88.7062 22.5235 87.9292 21.5671 87.4265 20.741C86.7865 19.7411 84.3186 16.6109 84.3186 16.6109C84.3186 16.6109 83.9076 16.4805 83.6333 16.35C83.4963 16.3066 83.3589 16.2196 83.2219 16.1761L82.7193 15.9588C82.7193 15.9588 82.8106 16.1761 83.085 16.5674C84.3646 18.4369 84.8672 19.9585 86.1926 21.9149C86.6952 22.654 87.0152 22.9583 87.0609 23.0452C87.0609 23.1322 86.6952 22.9148 86.0556 22.0018C85.0499 20.6106 84.1359 18.8281 82.9019 17.0891C82.445 16.4805 82.1706 16.0457 81.8053 15.7414C81.6223 15.5675 81.3483 15.7414 81.394 15.9588C81.4853 16.4805 81.6223 17.1761 81.7136 17.3065C82.0336 17.6978 82.3536 18.263 82.628 18.8281C83.0389 19.6542 83.2676 20.5237 83.4046 21.4367C83.5419 22.567 83.9076 23.5669 84.2729 24.6104C84.7299 25.7407 84.4559 25.6102 84.1359 24.7842C83.4503 23.0887 82.4906 21.3062 82.2166 19.4368C82.0793 18.4368 81.8053 18.089 81.5766 18.0021C81.4397 17.9586 80.48 17.6978 80.434 18.1325C80.16 20.5237 80.1143 24.6538 80.0687 27.3058C80.0687 28.0884 79.977 29.0014 79.9313 29.0014C79.8857 28.9579 79.7943 28.0449 79.7943 27.3058C79.7487 24.6538 79.703 20.5237 79.4287 18.1325C79.4287 17.6978 78.4234 17.9586 78.286 18.0021C78.0577 18.089 77.7834 18.4368 77.6464 19.4368C77.3721 21.3062 76.3668 23.0887 75.7268 24.7842C75.4071 25.6102 75.1784 25.6972 75.5898 24.6104C76.0011 23.5669 76.3211 22.567 76.4581 21.4367C76.5951 20.5237 76.8237 19.6542 77.2351 18.8281C77.5094 18.263 77.829 17.6978 78.149 17.3065C78.2404 17.1761 78.3777 16.4805 78.469 15.9588C78.5147 15.7414 78.2404 15.5675 78.0577 15.7414C77.6921 16.0892 77.4177 16.4805 76.9607 17.0891C75.7268 18.8281 74.8128 20.6106 73.8075 22.0018C73.1218 22.9148 72.7565 23.1322 72.8022 23.0452C72.8022 22.9583 73.1678 22.654 73.6705 21.9149C74.9958 19.9585 75.4984 18.4369 76.7781 16.5674C77.0524 16.1761 77.1437 15.9588 77.1437 15.9588L76.6411 16.1761C76.5494 16.2196 76.4124 16.2631 76.2298 16.35C75.9098 16.4805 75.5441 16.6109 75.5441 16.6109C75.5441 16.6109 73.0761 19.7411 72.4365 20.741C71.9339 21.5671 71.1569 22.5235 70.9739 23.48C70.8825 23.9147 70.9739 24.3495 71.3395 24.6104C71.7052 24.8712 72.2535 24.8277 73.1675 24.3495C73.6248 24.1321 74.0361 23.8713 74.4014 23.5235C74.3101 23.8713 74.2188 24.1756 74.1731 24.2626C74.1275 24.4365 74.0818 24.6104 74.0361 24.8277C73.8531 25.5668 73.5788 26.1755 73.7618 26.6971C73.9445 27.1319 74.3558 27.4363 74.9501 27.3493C76.5951 27.1319 77.6464 24.6973 78.149 23.4365C78.149 23.6539 78.1034 23.9147 78.1034 24.1321C78.0121 25.5668 78.1034 30.1317 79.8857 30.6969C81.668 30.1317 81.7597 25.5668 81.668 24.1321C81.668 23.9147 81.6223 23.6974 81.6223 23.4365C82.125 24.6973 83.1763 27.1319 84.8216 27.3493C85.5069 27.4363 85.9182 27.1319 86.1012 26.6971Z" fill="#3B2720"/>
</g>
</g>
<defs>
<clipPath id="clip0_2001_3568">
<rect width="160" height="50" fill="white"/>
</clipPath>
</defs>
</svg>
