<svg width="204" height="55" viewBox="0 0 204 55" fill="none" xmlns="http://www.w3.org/2000/svg">
<path d="M99.037 32.6673C100.039 31.4946 101.985 28.3168 105.847 22.3771H100.039C98.2371 25.296 96.2687 28.1072 94.1436 30.7962H91.6375V22.3474H86.3757V45.3334H91.6375V36.0678H94.7183C96.0891 37.5526 97.4452 40.1512 99.9657 45.3185H105.98C101.675 35.8897 100.629 34.9244 99.052 32.6376" fill="#1B1A1B"/>
<path d="M65.2827 33.5881C65.2827 43.0466 61.4798 45.7791 54.1835 45.7791C46.8872 45.7791 43.099 43.0618 43.099 33.5881C43.099 24.1143 46.8577 21.7833 54.1982 21.7833C61.5388 21.7833 65.2975 24.2631 65.2975 33.5881M59.667 33.5881C59.667 27.3218 58.8123 26.5944 54.1986 26.5944C49.5849 26.5944 48.7302 27.3218 48.7302 33.5881C48.7302 39.8543 49.5849 40.8789 54.1986 40.8789C58.8123 40.8789 59.667 39.9582 59.667 33.5881Z" fill="#1B1A1B"/>
<path d="M67.774 45.3334V22.3474H83.7964V26.9952H73.0361V45.3334H67.774Z" fill="#1B1A1B"/>
<path d="M116.622 45.3334V22.3474H132.644V26.9952H121.884V45.3334H116.622Z" fill="#1B1A1B"/>
<path d="M133.396 29.1778C135.848 28.3821 138.41 27.9813 140.987 27.9899C146.676 27.9899 149.197 30.0095 149.197 36.8992C149.197 43.7889 146.249 45.8085 142.092 45.8085C140.829 45.823 139.578 45.5648 138.422 45.0514V49.9364H133.396V29.1778ZM138.437 40.3587C138.437 41.1158 139.542 41.6506 141.016 41.6506C143.404 41.6506 144.155 40.5962 144.155 37.0324C144.155 32.9491 143.374 32.2213 140.987 32.2213C140.121 32.2196 139.26 32.3549 138.437 32.6222V40.3587Z" fill="#1B1A1B"/>
<path d="M150.082 28.4798H155.152C156.579 32.3226 157.804 36.2381 158.822 40.2103C160.205 36.3628 161.396 32.4475 162.389 28.4798H167.401C165.64 34.5462 163.509 40.4972 161.019 46.2984C160.267 48.0805 160.149 48.2435 159.324 49.8622H153.796C154.563 48.6588 155.248 47.4035 155.845 46.1055C154.209 40.1658 152.042 33.6769 150.082 28.4353" fill="#1B1A1B"/>
<path d="M174.785 45.3333H169.759V28.4503H185.162V45.3333H180.121V32.8009H174.785V45.3333Z" fill="#1B1A1B"/>
<path d="M188.582 28.4503V45.3185H193.623V32.8009H198.959V45.3185H204V28.4503H188.582Z" fill="#1B1A1B"/>
<path d="M28.7721 0L0 25.8369V45.3184H28.7721V0Z" fill="#9CC44F"/>
<path d="M0 12.2501V25.8369L9.03552 17.7292L0 12.2501Z" fill="#B0CF61"/>
<path d="M9.03552 17.7292L0 25.8369V45.3333H28.7721V29.6828L9.03552 17.7292Z" fill="#40A652"/>
<path d="M28.7721 50.4117H0V55.0002H28.7721V50.4117Z" fill="#1B1A1B"/>
</svg>
