<svg width="119" height="22" viewBox="0 0 119 22" fill="none" xmlns="http://www.w3.org/2000/svg">
<g clip-path="url(#clip0_422_7883)">
<path fill-rule="evenodd" clip-rule="evenodd" d="M79.4808 15.059H82.4538V6.94079H79.4808V15.059ZM63.06 6.94079H58.7251L57.3667 8.99556L55.1326 12.0688L52.8985 8.99556L51.5401 6.94079H47.2051V15.059H50.1781V9.74719L53.8572 15.0248H56.4062L60.0853 9.74719V15.059H63.0583L63.06 6.94079ZM78.2037 10.8649C78.2037 10.2743 78.1085 9.77322 77.9476 9.34372C77.2138 7.09697 75.0801 6.83179 73.9484 6.83179C73.1247 6.83179 72.0258 6.83179 71.273 6.83179H71.2713C70.5168 6.83179 69.4196 6.83179 68.5959 6.83179C67.4642 6.83179 65.3305 7.09697 64.5967 9.34372C64.4358 9.77322 64.3406 10.2743 64.3406 10.8649C64.3406 10.9104 64.3423 10.9543 64.3441 10.9999C64.3441 11.0455 64.3406 11.0878 64.3406 11.1333C64.3406 11.7239 64.4358 12.225 64.5967 12.6545C65.3305 14.9012 67.4642 15.1664 68.5959 15.1664C69.4196 15.1664 70.5185 15.1664 71.2713 15.1664H71.273C72.0275 15.1664 73.1247 15.1664 73.9484 15.1664C75.0801 15.1664 77.2138 14.9012 77.9476 12.6545C78.1085 12.225 78.2037 11.7239 78.2037 11.1333C78.2037 11.0878 78.202 11.0438 78.2002 10.9999C78.2002 10.9543 78.2037 10.9104 78.2037 10.8649ZM74.8673 12.3714C74.6198 12.6561 74.3083 12.8285 74.0263 12.892C73.9743 12.9001 73.9224 12.9131 73.8722 12.9131C73.4465 12.9131 72.5259 12.9408 71.7731 12.9522C71.7697 12.9522 71.7679 12.9538 71.7645 12.9538C71.6537 12.9587 71.4807 12.9587 71.273 12.9587C71.273 12.9587 71.273 12.9587 71.2713 12.9587C71.2713 12.9587 71.2713 12.9587 71.2696 12.9587C71.0636 12.9603 70.8888 12.9587 70.7781 12.9538C70.7746 12.9538 70.7712 12.9522 70.7694 12.9522C70.0167 12.9392 69.096 12.9131 68.6703 12.9131C68.6202 12.9131 68.5682 12.9001 68.5163 12.892C68.2325 12.8285 67.9228 12.6561 67.6736 12.3714C67.4001 12.0379 67.2098 11.5693 67.2063 10.9999C67.2081 10.4305 67.4001 9.96031 67.6736 9.62842C67.9228 9.34209 68.2325 9.17127 68.5163 9.10782C68.5682 9.09968 68.6202 9.08667 68.6703 9.08667C69.096 9.08667 70.0167 9.05901 70.7694 9.04762C70.7729 9.04762 70.7746 9.046 70.7781 9.046C70.8888 9.04111 71.0619 9.03949 71.2696 9.04111C71.2696 9.04111 71.2696 9.04111 71.2713 9.04111C71.2713 9.04111 71.2713 9.04111 71.273 9.04111C71.4789 9.03949 71.6537 9.04111 71.7645 9.046C71.7679 9.046 71.7714 9.04762 71.7731 9.04762C72.5259 9.06064 73.4465 9.08667 73.8722 9.08667C73.9224 9.08667 73.9761 9.09968 74.0263 9.10782C74.3101 9.17127 74.6198 9.34372 74.8673 9.62842C75.1407 9.96031 75.3328 10.4305 75.3345 10.9999C75.3311 11.5677 75.1407 12.0379 74.8673 12.3714ZM45.6062 10.8649C45.6062 10.2743 45.511 9.77322 45.35 9.34372C44.6163 7.09697 42.4826 6.83179 41.3508 6.83179C40.5271 6.83179 39.4282 6.83179 38.6737 6.83179H38.672C37.9175 6.83179 36.8204 6.83179 35.9966 6.83179C34.8649 6.83179 32.7312 7.09697 31.9974 9.34372C31.8365 9.77322 31.7413 10.2743 31.7413 10.8649C31.7413 10.9104 31.7431 10.9543 31.7448 10.9999C31.7448 11.0455 31.7413 11.0878 31.7413 11.1333C31.7413 11.7239 31.8365 12.225 31.9974 12.6545C32.7312 14.9012 34.8649 15.1664 35.9966 15.1664C36.8204 15.1664 37.9175 15.1664 38.672 15.1664H38.6737C39.4282 15.1664 40.5271 15.1664 41.3508 15.1664C42.4826 15.1664 44.6163 14.9012 45.35 12.6545C45.511 12.225 45.6062 11.7239 45.6062 11.1333C45.6062 11.0878 45.6044 11.0438 45.6027 10.9999C45.6027 10.9543 45.6062 10.9104 45.6062 10.8649ZM42.2697 12.3714C42.0223 12.6561 41.7108 12.8285 41.4287 12.892C41.3768 12.9001 41.3249 12.9131 41.2747 12.9131C40.849 12.9131 39.9284 12.9408 39.1756 12.9522C39.1721 12.9522 39.1704 12.9538 39.1669 12.9538C39.0562 12.9587 38.8831 12.9587 38.6755 12.9587C38.6755 12.9587 38.6755 12.9587 38.6737 12.9587C38.6737 12.9587 38.6737 12.9587 38.672 12.9587C38.4661 12.9603 38.2913 12.9587 38.1805 12.9538C38.1771 12.9538 38.1736 12.9522 38.1719 12.9522C37.4191 12.9392 36.4985 12.9131 36.0728 12.9131C36.0226 12.9131 35.9707 12.9001 35.9188 12.892C35.635 12.8285 35.3252 12.6561 35.0777 12.3714C34.8043 12.0379 34.6122 11.5693 34.6105 10.9999C34.6122 10.4305 34.8043 9.96031 35.0777 9.62842C35.3252 9.34209 35.6367 9.17127 35.9188 9.10782C35.9707 9.09968 36.0226 9.08667 36.0728 9.08667C36.4985 9.08667 37.4191 9.05901 38.1719 9.04762C38.1754 9.04762 38.1771 9.046 38.1805 9.046C38.2913 9.04111 38.4644 9.03949 38.672 9.04111C38.672 9.04111 38.672 9.04111 38.6737 9.04111C38.6737 9.04111 38.6737 9.04111 38.6755 9.04111C38.8814 9.03949 39.0562 9.04111 39.1669 9.046C39.1704 9.046 39.1739 9.04762 39.1756 9.04762C39.9284 9.06064 40.849 9.08667 41.2747 9.08667C41.3249 9.08667 41.3768 9.09968 41.4287 9.10782C41.7125 9.17127 42.0223 9.34372 42.2697 9.62842C42.5432 9.96031 42.7352 10.4305 42.737 10.9999C42.7352 11.5677 42.5432 12.0379 42.2697 12.3714ZM96.5228 6.93916H91.7726L87.1487 9.64957V6.94242H84.1757V15.0606H87.1487V11.7906L92.2814 14.9793H97.1181L90.3536 10.6127L96.5228 6.93916ZM114.653 14.161C114.612 13.616 114.892 11.9907 113.143 11.174C113.143 11.174 114.396 11.008 114.396 8.99393C114.396 6.97983 112.097 6.94079 111.549 6.94079C111.066 6.94079 106.399 6.94079 105.293 6.94079V6.93916H102.32V15.0574H105.293V12.5568H110.626C110.626 12.5568 111.537 12.4202 111.682 13.2776C111.827 14.1333 111.786 14.7955 112.189 15.0476H115.181C115.181 15.0476 114.695 14.706 114.653 14.161ZM110.689 10.5427C110.249 10.5427 106.619 10.5427 105.293 10.5427V9.08341C106.427 9.08504 110.339 9.09155 110.658 9.09155C111.03 9.09155 111.506 9.23797 111.506 9.74393C111.507 10.2499 111.227 10.5427 110.689 10.5427ZM116.029 6.94079V15.059H119.002V6.94079C119 6.94079 116.029 6.94079 116.029 6.94079ZM97.6252 15.059H100.598V6.94079H97.6252V15.059Z" fill="#221E1F"/>
<path fill-rule="evenodd" clip-rule="evenodd" d="M21.4635 13.1182C20.7332 11.4571 20.3162 10.4354 19.553 8.75485C18.8089 10.3915 18.3763 11.3709 17.6339 13.1182C17.0611 14.4669 18.0354 15.8742 19.553 15.8742C21.0274 15.8742 22.0727 14.5043 21.4635 13.1182ZM19.553 18.1957C16.3464 18.1957 13.9825 15.0705 15.4344 12.1095C16.9504 9.01678 17.89 7.08565 19.553 3.8042C21.2178 7.08565 22.1575 9.01678 23.6716 12.1095C25.1235 15.0705 22.7597 18.1957 19.553 18.1957Z" fill="#221E1F"/>
<path fill-rule="evenodd" clip-rule="evenodd" d="M9.29976 18.1957C6.09313 18.1957 3.72926 15.0705 5.17942 12.1095C6.69535 9.01678 7.63501 7.08565 9.29976 3.8042C10.9645 7.08565 11.9042 9.01678 13.4184 12.1095C14.8703 15.0705 12.5064 18.1957 9.29976 18.1957Z" fill="#221E1F"/>
<path fill-rule="evenodd" clip-rule="evenodd" d="M6.63476 21.5H22.2197C25.878 21.5 28.8545 18.7017 28.8545 15.2625V6.73753C28.8527 3.29826 25.8763 0.5 22.218 0.5H6.63476C2.97647 0.5 0 3.29826 0 6.73753V15.2641C0 18.7017 2.97647 21.5 6.63476 21.5ZM22.218 1.81291C25.1062 1.81291 27.4562 4.02223 27.4562 6.73753V15.2641C27.4562 17.9794 25.1062 20.1887 22.218 20.1887H6.63476C3.74655 20.1887 1.39652 17.9794 1.39652 15.2641V6.73753C1.39652 4.02223 3.74655 1.81291 6.63476 1.81291H22.218Z" fill="#221E1F"/>
</g>
<defs>
<clipPath id="clip0_422_7883">
<rect width="119" height="21" fill="white" transform="translate(0 0.5)"/>
</clipPath>
</defs>
</svg>
