<svg width="124" height="40" viewBox="0 0 124 40" fill="none" xmlns="http://www.w3.org/2000/svg">
<g clip-path="url(#clip0_54_1739)">
<mask id="mask0_54_1739" style="mask-type:luminance" maskUnits="userSpaceOnUse" x="0" y="0" width="124" height="40">
<path d="M124 0H0V40H124V0Z" fill="white"/>
</mask>
<g mask="url(#mask0_54_1739)">
<path d="M35.3069 36.2354V30.9648L32.6565 31.0589V31.6236C33.4137 31.6236 33.6031 31.9059 33.6031 32.2824V36.2354C33.6031 36.5177 33.4137 36.7059 32.6565 36.7059V37.2707H36.2534V36.7059C35.4015 36.7059 35.3069 36.5177 35.3069 36.2354ZM29.1542 30.8707C28.3023 30.8707 27.7344 31.153 27.1664 31.6236V27.7648L24.6107 27.953V28.5177C25.4626 28.5177 25.6519 28.8001 25.6519 29.1765V36.2354V37.4589H26.0305L26.6931 36.7059C27.2611 37.0824 28.0183 37.3648 28.6809 37.3648C30.6687 37.3648 31.8046 35.8589 31.8046 33.9765C31.7099 32.1883 30.858 30.8707 29.1542 30.8707ZM28.4916 36.7059C27.9237 36.7059 27.4504 36.4236 27.1664 35.7648V32.1883C27.545 31.9059 27.9237 31.7177 28.3969 31.7177C29.3435 31.7177 29.9115 32.5648 29.9115 33.9765C29.9115 35.8589 29.5328 36.7059 28.4916 36.7059ZM39.4718 36.2354V27.8589L36.8214 27.953V28.5177C37.5786 28.5177 37.8626 28.8001 37.8626 29.1765V36.2354C37.8626 36.5177 37.6733 36.7059 36.916 36.7059V37.2707H40.4183V36.7059C39.6611 36.7059 39.4718 36.5177 39.4718 36.2354ZM1.32519 32.4707C0.567939 32.4707 0 33.1295 0 33.8824C0 34.6354 0.567939 35.2001 1.32519 35.2001C2.08244 35.2001 2.65038 34.6354 2.65038 33.8824C2.74504 33.1295 2.08244 32.4707 1.32519 32.4707ZM20.8244 30.8707C18.8366 30.8707 17.6061 32.1883 17.6061 34.0707C17.6061 36.0471 18.742 37.2707 20.8244 37.2707C22.8122 37.2707 24.0427 35.953 24.0427 33.9765C24.0427 32.0942 22.9069 30.8707 20.8244 30.8707ZM20.9191 36.8001C19.8779 36.8001 19.4046 35.953 19.4046 34.0707C19.4046 32.1883 19.7832 31.4354 20.8244 31.4354C21.8657 31.4354 22.3389 32.2824 22.3389 34.0707C22.2443 35.953 21.8657 36.8001 20.9191 36.8001ZM42.8794 29.7412C43.4473 29.7412 43.826 29.3648 43.826 28.7059C43.826 28.1412 43.4473 27.6707 42.8794 27.6707C42.3115 27.6707 41.8382 28.1412 41.8382 28.7059C41.9328 29.3648 42.3115 29.7412 42.8794 29.7412ZM34.455 29.7412C35.0229 29.7412 35.4015 29.3648 35.4015 28.7059C35.4015 28.1412 35.0229 27.6707 34.455 27.6707C33.887 27.6707 33.4137 28.1412 33.4137 28.7059C33.4137 29.3648 33.7924 29.7412 34.455 29.7412ZM43.7313 36.2354V30.9648L41.1756 31.0589V31.6236C41.9328 31.6236 42.1221 31.9059 42.1221 32.2824V36.2354C42.1221 36.5177 41.9328 36.7059 41.1756 36.7059V37.2707H44.7725V36.7059C43.9206 36.7059 43.7313 36.5177 43.7313 36.2354ZM15.9969 36.2354V32.8471C15.9969 31.6236 15.429 30.8707 14.3878 30.8707C13.5359 30.8707 12.684 31.4354 12.0214 32.0942C11.8321 31.3412 11.2641 30.8707 10.5069 30.8707C9.65496 30.8707 8.89771 31.3412 8.23511 31.906V30.8707L5.67939 31.0589V31.6236C6.43664 31.6236 6.62595 31.9059 6.62595 32.2824V36.2354C6.62595 36.5177 6.43664 36.7059 5.67939 36.7059V37.2707H8.89771V36.7059C8.32977 36.7059 8.23511 36.5177 8.23511 36.2354V32.4707C8.61374 32.1883 8.89771 32.0001 9.46565 32.0001C10.1282 32.0001 10.5069 32.3765 10.5069 33.2236V36.1412C10.5069 36.4236 10.4122 36.6118 9.84427 36.6118V37.1765H12.8733V36.7059C12.2107 36.7059 12.116 36.5177 12.116 36.2354V32.9412C12.116 32.8471 12.116 32.753 12.116 32.5648C12.5893 32.2824 12.9679 32.0001 13.3466 32.0001C14.1038 32.0001 14.3878 32.3765 14.3878 33.2236V36.1412C14.3878 36.4236 14.2931 36.6118 13.7252 36.6118V37.1765H17.0382V36.7059C16.1863 36.7059 15.9969 36.5177 15.9969 36.2354ZM122.675 32.4707C121.918 32.4707 121.35 33.0354 121.35 33.7883C121.35 34.5412 121.918 35.1059 122.675 35.1059C123.432 35.1059 124 34.5412 124 33.7883C124 33.1295 123.432 32.4707 122.675 32.4707ZM48.8427 36.4236C48.3695 36.4236 48.0855 36.0471 48.0855 35.3883V31.7177H50.0733V31.0589H48.0855V28.8001L46.4763 29.3648V31.0589L45.3405 31.3412V31.906H46.3817V35.6707C46.3817 36.9883 47.1389 37.4589 48.0855 37.4589C49.0321 37.4589 49.6947 36.9883 50.1679 36.0471L49.7893 35.7648C49.5053 36.1412 49.2214 36.4236 48.8427 36.4236ZM96.2656 36.4236C95.7924 36.4236 95.5084 36.0471 95.5084 35.3883V31.7177H97.4962V31.0589H95.5084V28.8001L93.8992 29.3648V31.0589L92.7634 31.2471V31.8118H93.8992V35.5765C93.8992 36.8942 94.6565 37.3648 95.6031 37.3648C96.5496 37.3648 97.2122 36.8942 97.6855 35.953L97.3069 35.6707C97.0229 36.1412 96.6443 36.4236 96.2656 36.4236ZM104.595 36.1412V30.9648L102.04 31.0589V31.6236C102.797 31.6236 102.986 31.8118 102.986 32.1883V35.953C102.608 36.1412 102.324 36.3295 101.756 36.3295C100.998 36.3295 100.62 35.953 100.62 35.0118V31.0589L98.0641 31.153V31.7177C98.8214 31.7177 99.0107 31.9059 99.0107 32.2824V35.4824C99.0107 36.7059 99.6733 37.4589 100.809 37.4589C101.661 37.4589 102.418 36.9883 102.986 36.4236V37.2707H105.542V36.7059C104.785 36.6118 104.595 36.5177 104.595 36.1412ZM116.049 36.5177C114.818 36.5177 114.156 35.4824 114.156 34.0707V33.9765H118.226C118.321 32.2824 117.469 30.7765 115.576 30.7765C113.682 30.7765 112.452 32.0942 112.452 34.0707C112.452 35.953 113.588 37.2707 115.576 37.2707C116.901 37.2707 117.753 36.6118 118.321 35.6707L117.942 35.3883C117.374 36.1412 116.711 36.5177 116.049 36.5177ZM115.386 31.4354C116.238 31.4354 116.617 32.3765 116.522 33.5059H114.156C114.25 32.0942 114.724 31.4354 115.386 31.4354ZM110.653 30.9648C109.896 30.9648 109.328 31.5295 108.855 32.0942V30.9648L106.299 31.0589V31.6236C107.056 31.6236 107.246 31.9059 107.246 32.2824V36.2354C107.246 36.5177 107.056 36.7059 106.299 36.7059V37.2707H110.086V36.7059C109.139 36.7059 108.855 36.5177 108.855 36.2354V32.5648C109.139 32.2824 109.518 31.906 109.991 31.906C109.991 32.0001 109.991 32.0942 109.991 32.1883C109.991 32.6589 110.369 33.0354 110.937 33.0354C111.411 33.0354 111.789 32.5648 111.789 32.0001C111.789 31.4354 111.411 30.9648 110.653 30.9648ZM91.5328 35.8589V33.1295C91.5328 31.7177 90.7756 30.9648 89.1664 30.9648C87.4626 30.9648 86.4214 31.5295 86.4214 32.3765C86.4214 32.8471 86.7053 33.2236 87.2733 33.2236C87.8412 33.2236 88.2198 32.8471 88.2198 32.3765C88.2198 32.0942 88.1252 31.9059 88.0305 31.7177C88.2198 31.6236 88.4092 31.5295 88.7878 31.5295C89.545 31.5295 89.9237 31.9059 89.9237 33.0354V33.6001C89.545 33.7883 88.0305 33.8824 86.9893 34.353C86.4214 34.6354 86.1374 35.2942 86.1374 35.7648C86.1374 36.5177 86.7053 37.2707 87.9359 37.2707C88.6931 37.2707 89.4504 36.8942 89.9237 36.3295H90.0183C90.2076 36.9883 90.3969 37.2707 91.1542 37.2707C91.6275 37.2707 92.1008 37.0824 92.5741 36.8942L92.4794 36.5177C91.6275 36.6118 91.5328 36.5177 91.5328 35.8589ZM89.9237 35.7648C89.6397 36.1412 89.2611 36.4236 88.7878 36.4236C88.2199 36.4236 87.8412 36.0471 87.8412 35.4824C87.8412 34.6354 88.3145 34.353 89.829 34.1648V35.7648H89.9237ZM64.6504 30.8707C63.7985 30.8707 63.2305 31.153 62.6626 31.6236V27.7648L60.0122 27.8589V28.4236C60.8641 28.4236 61.0534 28.7059 61.0534 29.0824V36.1412V37.3648H61.4321L62.0947 36.6118C62.6626 36.9883 63.4198 37.2707 64.0824 37.2707C66.0702 37.2707 67.2061 35.7648 67.2061 33.8824C67.1115 32.1883 66.2595 30.8707 64.6504 30.8707ZM63.9878 36.7059C63.4198 36.7059 62.9466 36.4236 62.6626 35.7648V32.1883C63.0412 31.9059 63.4198 31.7177 63.8931 31.7177C64.8397 31.7177 65.4076 32.5648 65.4076 33.9765C65.4076 35.8589 64.9343 36.7059 63.9878 36.7059ZM54.8061 31.5295C55.658 31.6236 55.7527 32.0001 55.4687 32.753L54.3328 35.4824L53.0076 32.1883C52.8183 31.8118 53.0076 31.6236 53.7649 31.5295V31.0589H50.2626V31.5295C50.8305 31.6236 51.1145 31.8118 51.3038 32.3765L53.5756 37.1765L53.4809 37.2707C52.913 38.6824 52.629 39.0589 52.2504 39.153C52.2504 39.0589 52.345 38.9648 52.345 38.8707C52.345 38.4001 52.0611 38.0236 51.4931 38.0236C50.9252 38.0236 50.5466 38.4942 50.5466 38.9648C50.5466 39.5295 51.0198 40.0001 51.8718 40.0001C52.7237 40.0001 53.3863 39.5295 54.1435 37.8354L56.5099 32.5648C56.7939 31.9059 57.1725 31.6236 57.6458 31.5295V31.0589H54.9954V31.5295H54.8061ZM72.2229 31.5295C73.0748 31.6236 73.1695 32.0001 72.8855 32.753L71.7496 35.4824L70.4244 32.1883C70.2351 31.8118 70.4244 31.6236 71.1817 31.5295V31.0589H67.6794V31.5295C68.2473 31.6236 68.5313 31.8118 68.7206 32.3765L70.9924 37.1765L70.8977 37.2707C70.3298 38.6824 70.0458 39.0589 69.6672 39.153C69.6672 39.0589 69.7618 38.9648 69.7618 38.8707C69.7618 38.4001 69.4779 38.0236 68.9099 38.0236C68.342 38.0236 67.9634 38.4942 67.9634 38.9648C67.9634 39.5295 68.4366 40.0001 69.2886 40.0001C70.1405 40.0001 70.8031 39.5295 71.5603 37.8354L73.9267 32.5648C74.2107 31.9059 74.5893 31.6236 75.0626 31.5295V31.0589H72.4122V31.5295H72.2229ZM84.4336 36.2354V32.8471C84.4336 31.6236 83.8657 30.8707 82.8244 30.8707C81.9725 30.8707 81.1206 31.3412 80.458 31.906V30.8707L77.9023 31.0589V31.6236C78.6595 31.6236 78.8489 31.9059 78.8489 32.2824V36.2354C78.8489 36.5177 78.6595 36.7059 77.9023 36.7059V37.2707H81.2153V36.7059C80.6473 36.7059 80.458 36.5177 80.458 36.2354V32.4707C80.8366 32.2824 81.2153 32.0001 81.7832 32.0001C82.4458 32.0001 82.8244 32.3765 82.8244 33.2236V36.1412C82.8244 36.4236 82.6351 36.6118 82.0672 36.6118V37.1765H85.3801V36.7059C84.5282 36.7059 84.4336 36.5177 84.4336 36.2354Z" fill="#002A45"/>
</g>
<mask id="mask1_54_1739" style="mask-type:luminance" maskUnits="userSpaceOnUse" x="0" y="0" width="124" height="40">
<path d="M124 0H0V40H124V0Z" fill="white"/>
</mask>
<g mask="url(#mask1_54_1739)">
<path d="M99.5786 5.83528L98.3481 7.15293C100.336 10.2588 100.62 14.2117 98.7267 17.5059H99.3893C101.756 13.7412 101.756 9.31763 99.5786 5.83528ZM94.2779 6.58822L94.9405 5.9294C91.6275 2.82351 86.0428 2.91763 82.9191 6.11763C81.026 8.0941 80.0794 10.6353 80.5527 13.1765H81.2153C81.2153 9.78822 84.055 6.96469 87.6519 6.87057C91.2489 6.77645 94.2779 9.50587 94.3725 13.0823C94.4672 16.6588 91.6275 19.5765 87.9359 19.6706C86.1374 19.6706 84.4336 19.0117 83.2031 17.9765L82.2565 18.9176C78.0916 14.9647 77.9023 8.47057 81.8779 4.42351C85.0962 1.1294 90.0183 0.376455 93.9939 2.25881L94.0886 2.35293L94.5618 1.78822C89.4504 -1.22355 82.8244 -0.376486 78.5649 3.95293C73.5481 9.03528 73.7374 17.2235 79.0382 22.0235L79.9847 21.0823C82.0672 22.9647 84.5283 23.9059 87.368 23.9059C93.0473 23.7176 97.5909 19.1059 97.4962 13.647C97.4015 10.8235 96.171 8.28234 94.2779 6.58822Z" fill="#E42313"/>
</g>
<mask id="mask2_54_1739" style="mask-type:luminance" maskUnits="userSpaceOnUse" x="0" y="0" width="124" height="40">
<path d="M124 0H0V40H124V0Z" fill="white"/>
</mask>
<g mask="url(#mask2_54_1739)">
<path d="M28.8702 2.16481H24.0427V21.553H37.6733V17.7883H28.8702V2.16481ZM7.47786 2.16481L0 21.553H4.63817C5.49008 18.6354 9.18168 16.4707 12.5893 16.1883L11.9267 14.4001C10.5069 14.2119 8.32977 14.4001 7.09924 14.9648L10.2229 6.77657L16.2809 21.4589H20.9191L12.9679 2.16481H7.47786ZM55.942 5.92951H62.3786V21.553H67.3008V5.92951H73.7374V2.16481H55.942V5.92951ZM119.74 2.16481L114.061 9.50598L108.476 2.16481H104.122V21.553H109.044V9.78834L113.682 16.0942H114.345L118.983 9.78834V21.6472H123.905V2.16481H119.74ZM44.1099 7.15304C44.1099 5.55304 47.7069 4.23539 53.1969 6.21187L53.4809 2.35304C52.629 2.07069 50.1679 1.41187 48.2748 1.41187C44.2046 1.41187 39.6611 2.91775 39.6611 7.71775C39.6611 14.9648 50.5466 12.5177 50.1679 16.3766C50.0733 17.8825 47.7069 18.2589 45.8137 18.2589C43.6366 18.2589 41.6489 17.7883 40.3237 17.2236L39.8504 21.3648C41.6489 21.9295 43.9206 22.2119 45.8137 22.2119C50.2626 22.2119 54.6168 20.8001 54.7114 15.6236C54.7114 8.75304 44.1099 10.7295 44.1099 7.15304Z" fill="#002A45"/>
</g>
</g>
<defs>
<clipPath id="clip0_54_1739">
<rect width="124" height="40" fill="white"/>
</clipPath>
</defs>
</svg>
