<svg width="168" height="60" viewBox="0 0 168 60" fill="none" xmlns="http://www.w3.org/2000/svg">
<path fill-rule="evenodd" clip-rule="evenodd" d="M29.9242 0C46.45 0 59.8483 13.4323 59.8483 30C59.8483 46.5677 46.45 60 29.9242 60C13.3983 60 0 46.5677 0 30C0 13.4323 13.3983 0 29.9242 0ZM13.9968 34.8774V32.6032C14.4601 32.8839 14.9235 33.0871 15.3772 33.2226C15.8308 33.3581 16.2652 33.4258 16.6803 33.4258C17.1726 33.4258 17.5684 33.3581 17.858 33.2226C18.1475 33.0871 18.2923 32.8839 18.2923 32.6032C18.2923 32.4194 18.2248 32.2742 18.0993 32.1581C17.9738 32.0419 17.8 31.9355 17.5973 31.8484C17.3946 31.7613 17.1726 31.6742 16.9313 31.6065C16.69 31.529 16.4583 31.4516 16.2266 31.3645C15.8695 31.229 15.5509 31.0742 15.271 30.9194C14.991 30.7645 14.769 30.5806 14.576 30.3677C14.3926 30.1645 14.2478 29.9226 14.1512 29.6516C14.0547 29.3806 14.0064 29.0516 14.0064 28.6839C14.0064 28.171 14.1223 27.7355 14.3443 27.3677C14.5663 27 14.8655 26.7 15.2324 26.4677C15.5992 26.2355 16.0239 26.0613 16.5065 25.9548C16.9795 25.8484 17.4815 25.7903 17.9931 25.7903C18.3985 25.7903 18.804 25.8194 19.219 25.8871C19.6341 25.9452 20.0395 26.0419 20.445 26.1581V28.3258C20.0878 28.1129 19.7113 27.9581 19.3059 27.8613C18.9005 27.7548 18.5047 27.7064 18.1089 27.7064C17.9255 27.7064 17.7518 27.7258 17.5877 27.7548C17.4236 27.7839 17.2788 27.8323 17.1533 27.9C17.0278 27.9581 16.9313 28.0355 16.8637 28.1419C16.7865 28.2387 16.7575 28.3548 16.7575 28.4806C16.7575 28.6452 16.8058 28.7903 16.912 28.9065C17.0182 29.0226 17.1533 29.129 17.327 29.2161C17.5008 29.3032 17.6939 29.3806 17.8966 29.4484C18.1089 29.5161 18.3116 29.5839 18.524 29.6613C18.9005 29.7871 19.2287 29.9323 19.5376 30.0871C19.8368 30.2419 20.0974 30.4258 20.3098 30.629C20.5222 30.8323 20.6959 31.0742 20.8021 31.3548C20.9179 31.6355 20.9759 31.9645 20.9759 32.3516C20.9759 32.8935 20.86 33.3581 20.6284 33.7355C20.3967 34.1226 20.0878 34.4323 19.7017 34.6645C19.3156 34.9065 18.8619 35.0806 18.3599 35.1871C17.858 35.2935 17.327 35.3516 16.7865 35.3516C15.7826 35.3516 14.8655 35.1968 14.0064 34.8871L13.9968 34.8774ZM31.3238 35.1194H28.5245V29.9419C28.5245 28.6065 28.0418 27.9387 27.0669 27.9387C26.5746 27.9387 26.1692 28.1226 25.8603 28.5C25.5514 28.8774 25.3969 29.3516 25.3969 29.9226V35.1194H22.5976V21.629H25.3969V27.3581H25.4355C26.1209 26.3129 27.0572 25.7806 28.2349 25.7806C30.291 25.7806 31.3238 27.029 31.3238 29.5161V35.1194ZM41.1023 35.1194H38.4477V33.8129H38.4091C37.801 34.829 36.8936 35.3419 35.6966 35.3419C34.8182 35.3419 34.1232 35.0903 33.6116 34.5871C33.1096 34.0839 32.8587 33.4161 32.8587 32.5839C32.8587 30.8129 33.9012 29.7968 35.9959 29.5258L38.467 29.1968C38.467 28.2 37.9264 27.7064 36.8453 27.7064C35.7642 27.7064 34.7313 28.0258 33.7564 28.6742V26.5548C34.1425 26.3516 34.6831 26.1774 35.3588 26.0226C36.0345 25.8677 36.6523 25.7903 37.2121 25.7903C39.7991 25.7903 41.1023 27.0871 41.1023 29.6806V35.129V35.1194ZM38.467 31.4129V30.8032L36.8164 31.0161C35.909 31.1323 35.4456 31.5484 35.4456 32.2548C35.4456 32.5742 35.5518 32.8355 35.7738 33.0387C35.9959 33.2419 36.2951 33.3484 36.6812 33.3484C37.2121 33.3484 37.6369 33.1645 37.9651 32.7968C38.2933 32.429 38.4574 31.9742 38.4574 31.4129H38.467ZM57.7536 35.1194H54.9543V29.9226C54.9543 28.5968 54.4716 27.9387 53.4967 27.9387C53.0333 27.9387 52.6569 28.1323 52.3673 28.5387C52.0777 28.9355 51.9329 29.429 51.9329 30.029V35.129H49.1335V29.8742C49.1335 28.5871 48.6509 27.9484 47.7049 27.9484C47.2222 27.9484 46.8458 28.1323 46.5562 28.5194C46.2666 28.8968 46.1218 29.4194 46.1218 30.0677V35.129H43.3224V26.0129H46.1218V27.4355H46.1604C46.45 26.9516 46.8554 26.5548 47.3863 26.2452C47.9076 25.9355 48.4868 25.7903 49.1046 25.7903C50.3884 25.7903 51.2668 26.3516 51.7398 27.4839C52.4348 26.3516 53.4484 25.7903 54.7902 25.7903C56.769 25.7903 57.7536 27.0097 57.7536 29.4581V35.129V35.1194Z" fill="#A60505"/>
<path d="M68.9993 31.2194H63.0724C63.1689 32.5452 63.9991 33.2032 65.5629 33.2032C66.5668 33.2032 67.4452 32.971 68.1981 32.4968V34.529C67.3583 34.9742 66.2675 35.2065 64.9258 35.2065C63.4585 35.2065 62.3195 34.8 61.5086 33.9774C60.6978 33.1645 60.2923 32.0226 60.2923 30.5613C60.2923 29.0516 60.7267 27.8516 61.6051 26.9613C62.4836 26.0806 63.555 25.6355 64.8389 25.6355C66.1613 25.6355 67.1942 26.0323 67.9182 26.8161C68.6421 27.6097 69.009 28.6742 69.009 30.029V31.2097L68.9993 31.2194ZM66.4027 29.4871C66.4027 28.1806 65.8717 27.5323 64.8196 27.5323C64.3755 27.5323 63.9798 27.7161 63.6516 28.0935C63.3234 28.471 63.1207 28.9355 63.0531 29.4871H66.4027ZM73.4783 34.9742H70.6789V21.4839H73.4783V34.9742Z" fill="black"/>
<path d="M87.7357 34.6452C87.0986 35.0129 86.1912 35.1968 84.9942 35.1968C83.5946 35.1968 82.4652 34.771 81.6061 33.9194C80.7469 33.0677 80.3126 31.9742 80.3126 30.6387C80.3126 29.0903 80.7759 27.871 81.7026 26.9806C82.6293 26.0903 83.8648 25.6452 85.419 25.6452C86.4904 25.6452 87.2627 25.7903 87.7453 26.071V28.4613C87.1565 28.0161 86.5098 27.8032 85.7858 27.8032C84.9749 27.8032 84.3475 28.0355 83.8745 28.5097C83.4015 28.9839 83.1698 29.6323 83.1698 30.4645C83.1698 31.2677 83.4015 31.9064 83.8455 32.3613C84.2896 32.8258 84.917 33.0484 85.6989 33.0484C86.4036 33.0484 87.0793 32.8258 87.755 32.3903V34.6548L87.7357 34.6452ZM93.9039 35.1968C92.3884 35.1968 91.2011 34.771 90.3323 33.9194C89.4636 33.0677 89.0292 31.9161 89.0292 30.4548C89.0292 28.9452 89.4732 27.7645 90.3806 26.9129C91.2783 26.0613 92.4946 25.6355 94.0294 25.6355C95.5353 25.6355 96.7226 26.0613 97.5817 26.9129C98.4408 27.7645 98.8655 28.8871 98.8655 30.2903C98.8655 31.8 98.4215 33 97.5431 33.8806C96.655 34.7613 95.4484 35.1968 93.9039 35.1968ZM93.9811 27.7935C93.3151 27.7935 92.8035 28.0258 92.4367 28.4806C92.0699 28.9355 91.8864 29.5839 91.8864 30.4258C91.8864 32.1774 92.5911 33.0484 94.0004 33.0484C95.3422 33.0484 96.0179 32.1484 96.0179 30.3581C96.0179 28.6548 95.3422 27.8032 93.9811 27.8032V27.7935ZM109.474 34.9742H106.675V29.9129C106.675 28.5 106.173 27.7935 105.169 27.7935C104.686 27.7935 104.281 27.9774 103.972 28.3548C103.653 28.7323 103.499 29.2064 103.499 29.7774V34.9742H100.7V25.8581H103.499V27.3H103.538C104.204 26.1871 105.179 25.6355 106.462 25.6355C108.47 25.6355 109.484 26.8839 109.484 29.3903V34.9742H109.474ZM111.096 34.7323V32.4581C111.559 32.7387 112.023 32.9419 112.476 33.0774C112.93 33.2129 113.364 33.2806 113.779 33.2806C114.272 33.2806 114.667 33.2129 114.957 33.0774C115.247 32.9419 115.391 32.7387 115.391 32.4581C115.391 32.2742 115.324 32.129 115.198 32.0129C115.073 31.8968 114.899 31.7903 114.696 31.7032C114.494 31.6161 114.272 31.529 114.03 31.4613C113.789 31.3839 113.557 31.3064 113.326 31.2194C112.968 31.0839 112.65 30.929 112.37 30.7742C112.09 30.6194 111.868 30.4355 111.675 30.2226C111.492 30.0194 111.347 29.7774 111.25 29.5064C111.154 29.2355 111.105 28.9064 111.105 28.5387C111.105 28.0258 111.221 27.5903 111.443 27.2226C111.665 26.8548 111.965 26.5548 112.331 26.3226C112.698 26.0903 113.123 25.9161 113.606 25.8097C114.079 25.7032 114.581 25.6452 115.092 25.6452C115.498 25.6452 115.903 25.6742 116.318 25.7419C116.733 25.8 117.139 25.8968 117.544 26.0129V28.1806C117.187 27.9677 116.81 27.8129 116.405 27.7161C116 27.6097 115.604 27.5613 115.208 27.5613C115.025 27.5613 114.851 27.5806 114.687 27.6097C114.523 27.6387 114.378 27.6871 114.252 27.7548C114.127 27.8129 114.03 27.8903 113.963 27.9968C113.886 28.0935 113.857 28.2097 113.857 28.3355C113.857 28.5 113.905 28.6452 114.011 28.7613C114.117 28.8774 114.252 28.9839 114.426 29.071C114.6 29.1581 114.793 29.2355 114.996 29.3032C115.208 29.371 115.411 29.4387 115.623 29.5161C116 29.6419 116.328 29.7871 116.637 29.9419C116.936 30.0968 117.196 30.2806 117.409 30.4839C117.621 30.6871 117.795 30.929 117.901 31.2097C118.017 31.4903 118.075 31.8194 118.075 32.2064C118.075 32.7484 117.959 33.2129 117.727 33.5903C117.496 33.9774 117.187 34.2871 116.801 34.5194C116.415 34.7613 115.961 34.9355 115.459 35.0419C114.957 35.1484 114.426 35.2064 113.886 35.2064C112.882 35.2064 111.965 35.0516 111.105 34.7419L111.096 34.7323ZM128.326 34.9742H125.527V33.5903H125.488C124.793 34.6645 123.867 35.1968 122.708 35.1968C120.604 35.1968 119.552 33.9194 119.552 31.3645V25.8677H122.351V31.1129C122.351 32.4 122.863 33.0484 123.876 33.0484C124.378 33.0484 124.784 32.8742 125.083 32.5161C125.382 32.1677 125.537 31.6839 125.537 31.0839V25.8677H128.336V34.9839L128.326 34.9742ZM133.491 34.9742H130.691V21.4839H133.491V34.9742ZM141.348 34.8677C140.933 35.0903 140.306 35.1968 139.476 35.1968C137.497 35.1968 136.512 34.171 136.512 32.1097V27.9387H135.035V25.8677H136.512V23.9032L139.311 23.1V25.8677H141.358V27.9387H139.311V31.6258C139.311 32.5742 139.688 33.0484 140.441 33.0484C140.74 33.0484 141.039 32.9613 141.358 32.7871V34.8677H141.348ZM144.35 24.4161C143.877 24.4161 143.491 24.2806 143.192 23.9903C142.893 23.7097 142.738 23.3613 142.738 22.9548C142.738 22.529 142.893 22.1903 143.192 21.9194C143.491 21.6484 143.877 21.5226 144.35 21.5226C144.833 21.5226 145.219 21.6581 145.518 21.9194C145.817 22.1903 145.962 22.529 145.962 22.9548C145.962 23.3806 145.808 23.729 145.518 24.0097C145.219 24.2806 144.833 24.4161 144.35 24.4161ZM145.731 34.9742H142.931V25.8581H145.731V34.9742ZM156.87 34.9742H154.071V29.9129C154.071 28.5 153.569 27.7935 152.565 27.7935C152.082 27.7935 151.677 27.9774 151.368 28.3548C151.049 28.7323 150.895 29.2064 150.895 29.7774V34.9742H148.096V25.8581H150.895V27.3H150.934C151.6 26.1871 152.575 25.6355 153.858 25.6355C155.866 25.6355 156.88 26.8839 156.88 29.3903V34.9742H156.87ZM168 33.929C168 35.6226 167.508 36.929 166.533 37.8581C165.558 38.7871 164.139 39.2516 162.285 39.2516C161.06 39.2516 160.094 39.0774 159.37 38.729V36.3581C160.307 36.9097 161.253 37.1806 162.208 37.1806C163.154 37.1806 163.888 36.929 164.409 36.4258C164.93 35.9226 165.191 35.2452 165.191 34.3839V33.6581H165.162C164.525 34.6742 163.579 35.1871 162.324 35.1871C161.166 35.1871 160.249 34.7806 159.563 33.9581C158.878 33.1355 158.54 32.0419 158.54 30.6677C158.54 29.129 158.917 27.9 159.679 26.9903C160.432 26.0806 161.436 25.6258 162.672 25.6258C163.782 25.6258 164.612 26.0516 165.162 26.9032H165.191V25.8387H168V33.9097V33.929ZM165.23 30.5903V29.8645C165.23 29.2935 165.056 28.8 164.718 28.3935C164.38 27.9871 163.936 27.7839 163.396 27.7839C162.768 27.7839 162.285 28.0258 161.928 28.5097C161.571 28.9935 161.397 29.6806 161.397 30.571C161.397 31.3258 161.571 31.9258 161.899 32.371C162.237 32.8161 162.701 33.029 163.28 33.029C163.859 33.029 164.332 32.8064 164.689 32.3613C165.046 31.9161 165.23 31.3258 165.23 30.5903Z" fill="#A60505"/>
</svg>
