<svg width="132" height="18" viewBox="0 0 132 18" fill="none" xmlns="http://www.w3.org/2000/svg">
<path d="M0.824 0.991999H5.48C6.472 0.991999 7.28 1.08 7.904 1.256C8.544 1.416 9.144 1.736 9.704 2.216C10.792 3.176 11.336 4.464 11.336 6.08C11.336 7.584 10.896 8.776 10.016 9.656C9.072 10.6 7.72 11.072 5.96 11.072H3.944V17H0.824V0.991999ZM3.944 3.68V8.384H5.216C6.128 8.384 6.808 8.216 7.256 7.88C7.832 7.432 8.12 6.808 8.12 6.008C8.12 5.224 7.824 4.616 7.232 4.184C6.752 3.848 6.016 3.68 5.024 3.68H3.944ZM13.2123 17V6.608H16.1403V8.168C16.4923 7.496 16.9243 7.016 17.4363 6.728C17.9163 6.424 18.4923 6.272 19.1643 6.272C19.5483 6.272 19.9643 6.352 20.4123 6.512L20.0283 9.248C19.6603 8.992 19.2043 8.864 18.6603 8.864C17.8123 8.864 17.1643 9.144 16.7163 9.704C16.3323 10.184 16.1403 10.952 16.1403 12.008V17H13.2123ZM21.8608 6.608H24.7888V17H21.8608V6.608ZM22.0768 3.464C21.7408 3.112 21.5728 2.696 21.5728 2.216C21.5728 1.736 21.7408 1.328 22.0768 0.991999C22.4288 0.639999 22.8448 0.464 23.3248 0.464C23.8048 0.464 24.2128 0.639999 24.5488 0.991999C24.9008 1.328 25.0768 1.736 25.0768 2.216C25.0768 2.696 24.9008 3.112 24.5488 3.464C24.2128 3.8 23.8048 3.968 23.3248 3.968C22.8448 3.968 22.4288 3.8 22.0768 3.464ZM27.5795 17V6.608H30.5075V7.784C31.3075 6.776 32.3395 6.272 33.6035 6.272C35.1555 6.272 36.2515 6.904 36.8915 8.168C37.6755 6.904 38.7875 6.272 40.2275 6.272C41.4435 6.272 42.3795 6.696 43.0355 7.544C43.3395 7.944 43.5315 8.36 43.6115 8.792C43.7075 9.224 43.7555 9.784 43.7555 10.472V17H40.8275V11.336C40.8275 10.36 40.6675 9.68 40.3475 9.296C40.0595 8.944 39.6595 8.768 39.1475 8.768C38.4115 8.768 37.8755 9.072 37.5395 9.68C37.2675 10.128 37.1315 10.8 37.1315 11.696V17H34.2035V11.336C34.2035 10.36 34.0435 9.68 33.7235 9.296C33.4355 8.944 33.0355 8.768 32.5235 8.768C31.7875 8.768 31.2515 9.072 30.9155 9.68C30.6435 10.128 30.5075 10.8 30.5075 11.696V17H27.5795ZM54.0524 13.664L56.7404 14.096C56.6284 14.384 56.4764 14.672 56.2844 14.96C56.1084 15.232 55.8284 15.576 55.4444 15.992C55.0604 16.392 54.5404 16.72 53.8844 16.976C53.2284 17.216 52.4764 17.336 51.6284 17.336C49.9964 17.336 48.6684 16.848 47.6444 15.872C46.5564 14.848 46.0124 13.496 46.0124 11.816C46.0124 10.152 46.5404 8.792 47.5964 7.736C48.5884 6.76 49.8924 6.272 51.5084 6.272C53.2684 6.272 54.6204 6.84 55.5644 7.976C56.3964 8.968 56.8124 10.328 56.8124 12.056V12.296H49.0364C49.0364 13 49.2044 13.584 49.5404 14.048C50.0204 14.704 50.7164 15.032 51.6284 15.032C52.7164 15.032 53.5244 14.576 54.0524 13.664ZM49.1324 10.424H54.0524C53.9404 9.752 53.6444 9.24 53.1644 8.888C52.7004 8.52 52.1724 8.336 51.5804 8.336C51.0044 8.336 50.4764 8.52 49.9964 8.888C49.5324 9.256 49.2444 9.768 49.1324 10.424ZM74.6171 2.504L72.9851 4.64C72.2971 3.728 71.4251 3.272 70.3691 3.272C69.6011 3.272 69.0411 3.464 68.6891 3.848C68.3371 4.216 68.1611 4.648 68.1611 5.144C68.1611 5.576 68.3291 5.936 68.6651 6.224C68.9211 6.464 69.5611 6.768 70.5851 7.136C72.1691 7.68 73.2491 8.216 73.8251 8.744C74.7371 9.56 75.1931 10.68 75.1931 12.104C75.1931 13.672 74.6731 14.944 73.6331 15.92C72.6091 16.88 71.2731 17.36 69.6251 17.36C67.3211 17.36 65.4811 16.352 64.1051 14.336L66.1451 12.392C66.4971 13.112 66.9851 13.648 67.6091 14C68.2331 14.352 68.8651 14.528 69.5051 14.528C70.2251 14.528 70.8171 14.328 71.2811 13.928C71.7451 13.512 71.9771 12.976 71.9771 12.32C71.9771 11.76 71.7691 11.28 71.3531 10.88C70.9691 10.528 70.1451 10.136 68.8811 9.704C67.6971 9.304 66.8091 8.84 66.2171 8.312C65.3691 7.576 64.9451 6.584 64.9451 5.336C64.9451 4.04 65.3851 2.936 66.2651 2.024C67.1451 1.096 68.4171 0.631999 70.0811 0.631999C71.8891 0.631999 73.4011 1.256 74.6171 2.504ZM85.0134 13.664L87.7014 14.096C87.5894 14.384 87.4374 14.672 87.2454 14.96C87.0694 15.232 86.7894 15.576 86.4054 15.992C86.0214 16.392 85.5014 16.72 84.8454 16.976C84.1894 17.216 83.4374 17.336 82.5894 17.336C80.9574 17.336 79.6294 16.848 78.6054 15.872C77.5174 14.848 76.9734 13.496 76.9734 11.816C76.9734 10.152 77.5014 8.792 78.5574 7.736C79.5494 6.76 80.8534 6.272 82.4694 6.272C84.2294 6.272 85.5814 6.84 86.5254 7.976C87.3574 8.968 87.7734 10.328 87.7734 12.056V12.296H79.9974C79.9974 13 80.1654 13.584 80.5014 14.048C80.9814 14.704 81.6774 15.032 82.5894 15.032C83.6774 15.032 84.4854 14.576 85.0134 13.664ZM80.0934 10.424H85.0134C84.9014 9.752 84.6054 9.24 84.1254 8.888C83.6614 8.52 83.1334 8.336 82.5414 8.336C81.9654 8.336 81.4374 8.52 80.9574 8.888C80.4934 9.256 80.2054 9.768 80.0934 10.424ZM90.0404 17V6.608H92.9684V8.168C93.3204 7.496 93.7524 7.016 94.2644 6.728C94.7444 6.424 95.3204 6.272 95.9924 6.272C96.3764 6.272 96.7924 6.352 97.2404 6.512L96.8564 9.248C96.4884 8.992 96.0324 8.864 95.4884 8.864C94.6404 8.864 93.9924 9.144 93.5444 9.704C93.1604 10.184 92.9684 10.952 92.9684 12.008V17H90.0404ZM98.0949 6.608H101.359L104.095 12.464L106.831 6.608H110.095L104.863 17H103.327L98.0949 6.608ZM118.81 13.664L121.498 14.096C121.386 14.384 121.234 14.672 121.042 14.96C120.866 15.232 120.586 15.576 120.202 15.992C119.818 16.392 119.298 16.72 118.642 16.976C117.986 17.216 117.234 17.336 116.386 17.336C114.754 17.336 113.426 16.848 112.402 15.872C111.314 14.848 110.77 13.496 110.77 11.816C110.77 10.152 111.298 8.792 112.354 7.736C113.346 6.76 114.65 6.272 116.266 6.272C118.026 6.272 119.378 6.84 120.322 7.976C121.154 8.968 121.57 10.328 121.57 12.056V12.296H113.794C113.794 13 113.962 13.584 114.298 14.048C114.778 14.704 115.474 15.032 116.386 15.032C117.474 15.032 118.282 14.576 118.81 13.664ZM113.89 10.424H118.81C118.698 9.752 118.402 9.24 117.922 8.888C117.458 8.52 116.93 8.336 116.338 8.336C115.762 8.336 115.234 8.52 114.754 8.888C114.29 9.256 114.002 9.768 113.89 10.424ZM123.837 17V6.608H126.765V8.168C127.117 7.496 127.549 7.016 128.061 6.728C128.541 6.424 129.117 6.272 129.789 6.272C130.173 6.272 130.589 6.352 131.037 6.512L130.653 9.248C130.285 8.992 129.829 8.864 129.285 8.864C128.437 8.864 127.789 9.144 127.341 9.704C126.957 10.184 126.765 10.952 126.765 12.008V17H123.837Z" fill="white"/>
</svg>
