<svg width="114" height="60" viewBox="0 0 114 60" fill="none" xmlns="http://www.w3.org/2000/svg">
<path d="M97.601 34.7199C97.6598 34.7683 97.7441 34.8216 97.7886 34.8518L98.6702 35.4295C103.349 38.5393 102.994 45.4196 98.6525 47.9413C96.3605 49.2727 93.2273 49.216 90.1728 49.216L76.9715 49.1333V34.7058C74.3107 34.7003 67.2781 34.7018 65.3421 34.717L65.3287 58.7645C68.0488 59.2454 93.7294 58.8903 97.7348 58.5876C105.311 58.0148 109.776 55.2817 112.542 49.0567C115.004 43.5142 114.025 39.3094 111.994 34.5584C108.54 34.5996 101.249 34.7199 97.601 34.7199ZM36.4918 23.9595H38.1124V29.4343L41.5937 23.9595H43.3226V32.1832H41.7019V26.7963L38.2207 32.1832H36.4918V23.9595ZM45.0131 26.222H46.6576V28.4044H49.0345V26.222H50.6793V32.1832H49.0345V29.6794H46.6576V32.1832H45.0131V26.222ZM54.9169 32.1832V29.6449C54.7028 29.6601 54.553 29.7062 54.4686 29.7828C54.3849 29.8594 54.2368 30.0852 54.0265 30.4622L53.2423 32.1832H51.4716L52.3497 30.5408C52.7962 29.7215 53.2583 29.2506 53.7383 29.1319C53.3802 28.9997 53.1062 28.6611 52.916 28.1115C52.77 27.702 52.64 27.4569 52.5202 27.3766C52.4021 27.2959 52.1237 27.2559 51.6877 27.2559V26.2165C52.0118 26.1972 52.238 26.1877 52.366 26.1877C52.7281 26.1877 53.0382 26.2644 53.2965 26.4176C53.5544 26.5725 53.7965 26.9553 54.0224 27.5661C54.1967 28.0427 54.3386 28.3431 54.4427 28.4695C54.5489 28.5939 54.7068 28.6611 54.9169 28.6685V26.222H56.5614V28.6685C56.7714 28.6685 56.9316 28.6035 57.0378 28.4716C57.1457 28.3414 57.2859 28.0387 57.4558 27.5661C57.68 26.963 57.9162 26.582 58.1681 26.4233C58.4182 26.2664 58.7422 26.1877 59.1366 26.1877C59.2486 26.1877 59.4668 26.1972 59.7908 26.2165V27.2559C59.3586 27.2559 59.0825 27.2959 58.9604 27.3766C58.8405 27.4569 58.7082 27.702 58.5642 28.1115C58.3722 28.6611 58.098 28.9997 57.7399 29.1319C58.2201 29.2506 58.6823 29.7215 59.1285 30.5408L60.0069 32.1832H58.2361L57.4578 30.4622C57.3179 30.156 57.1876 29.9472 57.0678 29.8364C56.9497 29.7232 56.7795 29.6601 56.5614 29.6449V32.1832H54.9169ZM60.7992 26.222H62.3838V29.9685L64.9169 26.222H66.5375V32.1832H64.9526V28.3834L62.3838 32.1832H60.7992V26.222ZM68.1541 26.222H69.7986V28.4044H72.1755V26.222H73.8201V32.1832H72.1755V29.6794H69.7986V32.1832H68.1541V26.222ZM75.4288 26.222H77.0134V29.9685L79.5462 26.222H81.1669V32.1832H79.5823V28.3834L77.0134 32.1832H75.4288V26.222ZM82.8076 26.222H84.3442V27.0969C84.5443 26.7983 84.8122 26.5572 85.1525 26.3715C85.4925 26.1877 85.8707 26.0958 86.2848 26.0958C87.007 26.0958 87.6213 26.3677 88.1257 26.9112C88.6297 27.4529 88.8819 28.2112 88.8819 29.1797C88.8819 30.1771 88.6277 30.9503 88.1196 31.5036C87.6115 32.0568 86.9951 32.3324 86.2709 32.3324C85.9268 32.3324 85.6147 32.2673 85.3346 32.1352C85.0565 32.005 84.7604 31.7812 84.4521 31.4635V34.4457H82.8076V26.222ZM84.4283 29.1109C84.4283 29.7828 84.5664 30.2785 84.8442 30.6001C85.1205 30.9198 85.4585 31.0805 85.8546 31.0805C86.2369 31.0805 86.5551 30.933 86.809 30.6384C87.0632 30.3435 87.1891 29.8611 87.1891 29.1893C87.1891 28.5614 87.0594 28.0963 86.797 27.7919C86.537 27.4875 86.2127 27.3363 85.8267 27.3363C85.4245 27.3363 85.0906 27.4855 84.8262 27.7841C84.5603 28.0827 84.4283 28.5251 84.4283 29.1109ZM90.1404 26.222H91.7251V29.9685L94.2579 26.222H95.8785V32.1832H94.2939V28.3834L91.7251 32.1832H90.1404V26.222ZM97.4951 26.222H99.14V28.4044H101.517V26.222H103.161V32.1832H101.517V29.6794H99.14V32.1832H97.4951V26.222ZM104.746 26.222H108.96V27.4972H106.39V32.1832H104.746V26.222ZM6.12406 29.1742L7.7482 29.6682C7.49866 30.5736 7.08302 31.2455 6.50302 31.6856C5.92306 32.1239 5.18835 32.3442 4.29717 32.3442C3.19335 32.3442 2.28672 31.971 1.57499 31.2245C0.865606 30.4777 0.509865 29.4576 0.509865 28.1616C0.509865 26.7928 0.867631 25.7287 1.58081 24.9706C2.29428 24.2127 3.23379 23.8333 4.39751 23.8333C5.41464 23.8333 6.24009 24.132 6.87417 24.7273C7.25317 25.0798 7.53559 25.5849 7.72495 26.2453L6.06615 26.6359C5.96754 26.2111 5.76249 25.8741 5.45128 25.627C5.13804 25.3802 4.75933 25.2578 4.31461 25.2578C3.698 25.2578 3.19714 25.4758 2.81435 25.9141C2.42956 26.3507 2.23818 27.0589 2.23818 28.039C2.23818 29.0766 2.42779 29.8174 2.80447 30.2577C3.18347 30.6998 3.67471 30.9201 4.27999 30.9201C4.72645 30.9201 5.11098 30.7804 5.43178 30.499C5.75291 30.2174 5.98502 29.7773 6.12406 29.1742ZM8.45762 26.2453H13.8978V27.5203H11.9723V32.2063H10.3831V27.5203H8.45762V26.2453ZM14.8103 26.2453H16.2951V27.1203C16.4882 26.8216 16.7474 26.5806 17.0761 26.3948C17.4047 26.2111 17.7703 26.1189 18.1703 26.1189C18.8683 26.1189 19.4617 26.3911 19.9492 26.9345C20.436 27.4762 20.6798 28.2342 20.6798 29.2031C20.6798 30.2004 20.434 30.9737 19.9434 31.5269C19.4521 32.0802 18.8567 32.3558 18.1566 32.3558C17.8244 32.3558 17.5225 32.2907 17.252 32.1585C16.9833 32.0283 16.6971 31.8045 16.3995 31.4866V34.4691H14.8103V26.2453ZM16.3763 29.134C16.3763 29.8061 16.5095 30.3018 16.7782 30.6235C17.0452 30.9429 17.3719 31.1038 17.7546 31.1038C18.124 31.1038 18.4315 30.9564 18.6769 30.6615C18.9224 30.3668 19.0443 29.8845 19.0443 29.2126C19.0443 28.5844 18.9186 28.1196 18.6653 27.8152C18.414 27.5108 18.1007 27.3596 17.7276 27.3596C17.339 27.3596 17.0161 27.5088 16.761 27.8074C16.5039 28.1061 16.3763 28.5482 16.3763 29.134ZM21.571 29.1532C21.571 28.6288 21.7007 28.1214 21.9616 27.6314C22.2225 27.1393 22.5916 26.766 23.0692 26.5077C23.5468 26.2491 24.0785 26.1189 24.6681 26.1189C25.5788 26.1189 26.3227 26.4121 26.9048 26.9979C27.4868 27.5854 27.7768 28.3241 27.7768 29.2201C27.7768 30.1238 27.483 30.872 26.8972 31.4656C26.3094 32.0591 25.5709 32.3558 24.6797 32.3558C24.1288 32.3558 23.603 32.2313 23.1024 31.9845C22.6033 31.7374 22.2225 31.3757 21.9616 30.8971C21.7007 30.4204 21.571 29.8387 21.571 29.1532ZM23.2065 29.2373C23.2065 29.8289 23.3475 30.2825 23.63 30.5964C23.9142 30.9123 24.262 31.0696 24.6777 31.0696C25.0916 31.0696 25.4394 30.9123 25.7198 30.5964C26.0002 30.2825 26.1413 29.8251 26.1413 29.2261C26.1413 28.642 26.0002 28.1922 25.7198 27.8783C25.4394 27.5624 25.0916 27.4054 24.6777 27.4054C24.262 27.4054 23.9142 27.5624 23.63 27.8783C23.3475 28.1922 23.2065 28.6458 23.2065 29.2373ZM28.9812 26.2453H30.5123V29.9916L32.9599 26.2453H34.5259V32.2063H32.9948V28.4064L30.5123 32.2063H28.9812V26.2453ZM32.7743 23.8449H33.5515C33.507 24.3523 33.3252 24.7524 33.0102 25.0412C32.6952 25.3304 32.2871 25.4758 31.7863 25.4758C31.2837 25.4758 30.8759 25.3304 30.5606 25.0412C30.2456 24.7524 30.0638 24.3523 30.0193 23.8449H30.7968C30.8235 24.1093 30.9163 24.31 31.0789 24.4459C31.2412 24.5822 31.4771 24.649 31.7863 24.649C32.094 24.649 32.3296 24.5822 32.4919 24.4459C32.6545 24.31 32.7472 24.1093 32.7743 23.8449ZM0.37842 22.1028L12.5162 22.0933C15.3713 14.3496 19.0652 10.023 28.0874 10.023C36.7515 10.023 40.3945 14.7062 43.1085 22.0849C43.1336 22.097 54.9192 22.1028 55.2543 22.1028C53.7682 9.56687 44.3729 0.536749 28.6549 0.0212287C13.1893 -0.486233 3.47403 8.13957 0.37842 22.1028ZM65.3287 22.093C67.6236 22.0809 74.3148 22.1088 76.9715 22.1028V10.9113C80.308 10.5795 93.7986 10.5178 96.3744 11.6747C98.4896 12.6245 99.8194 14.6264 99.8194 17.5395C99.8194 19.7098 98.8316 20.7219 98.1635 22.1028L109.585 22.0936C113.537 16.1945 110.397 3.56529 98.779 1.75238C94.6837 1.11358 71.6526 0.996361 65.3287 1.27976V22.093ZM43.6591 34.7199C43.1059 42.6487 37.0886 50.0474 27.8163 50.0267C18.5586 50.0062 12.7885 42.8489 11.9534 34.7199H0C0.179769 42.5059 4.23377 49.3029 8.22812 53.0371C17.9966 62.1689 37.0473 62.4736 47.4008 53.0319C51.2852 49.4893 55.4543 42.4388 55.6329 34.7199H43.6591Z" fill="#333333"/>
</svg>
