<svg width="255" height="26" viewBox="0 0 255 26" fill="none" xmlns="http://www.w3.org/2000/svg">
<path fill-rule="evenodd" clip-rule="evenodd" d="M242.885 20.8372C242.997 21.1198 243.053 21.4024 243.053 21.6662C243.053 22.4952 242.605 23.1546 241.691 23.6821C241.037 24.1343 240.459 24.4923 239.917 24.7561C239.32 25.0387 238.741 25.2648 238.181 25.4343C237.117 25.7358 236.333 25.8865 235.81 25.8865H234C233.253 25.8865 232.152 25.6604 230.677 25.1894C227.839 24.172 225.637 22.1561 224.068 19.1416C223.191 17.3894 222.762 15.6184 222.762 13.8097C222.762 11.7184 223.284 9.68359 224.311 7.72417C224.647 7.10244 225.151 6.40533 225.823 5.63287C226.477 4.91693 226.999 4.44591 227.373 4.20098C228.194 3.54156 228.81 3.20244 229.239 3.20244L229.407 3.18359C230.154 3.18359 230.751 3.56041 231.199 4.31403C231.33 4.63432 231.386 4.91693 231.386 5.19954C231.386 5.972 231.013 6.55606 230.247 6.98939C228.791 8.04447 227.783 9.40098 227.261 11.0778C226.943 12.0763 226.794 12.9807 226.794 13.8285C226.794 15.8256 227.559 17.672 229.071 19.3676C229.781 20.0459 230.341 20.4981 230.751 20.7053C232.096 21.459 233.496 21.8358 234.952 21.8358C236.744 21.8358 238.424 21.1952 239.992 19.9329C240.347 19.7445 240.701 19.6314 241.056 19.6314C241.84 19.6503 242.456 20.0459 242.885 20.8372Z" fill="white"/>
<path fill-rule="evenodd" clip-rule="evenodd" d="M235.417 0.998047C236.107 0.998047 236.686 1.31834 237.172 1.95892C237.414 2.33573 237.545 2.76906 237.545 3.22124C237.545 4.05022 237.153 4.6908 236.369 5.16182C235.995 5.33138 235.678 5.42558 235.379 5.42558C234.521 5.42558 233.849 4.99225 233.382 4.12558C233.251 3.78645 233.195 3.48501 233.195 3.2024C233.195 2.37341 233.587 1.73283 234.371 1.26182C234.707 1.09225 235.025 0.998047 235.323 0.998047H235.417Z" fill="white"/>
<path fill-rule="evenodd" clip-rule="evenodd" d="M33.6014 13.32C35.0574 14.7142 35.7668 16.4475 35.7668 18.5388C35.7668 20.7809 34.8521 22.6838 33.0227 24.2475C32.4253 24.6997 31.8466 25.0388 31.2866 25.2649C30.4092 25.6041 29.7372 25.7736 29.2331 25.7736H20.03C19.7313 25.7736 19.3393 25.5664 18.9099 25.1707C18.5179 24.7374 18.3126 24.2475 18.3126 23.7388V13.2446C18.3126 12.4722 18.7046 11.8693 19.5073 11.4171C19.8246 11.2664 20.1046 11.2099 20.3473 11.2099C20.6647 11.2287 20.8514 11.2287 20.926 11.2287H28.7478C29.2518 11.2287 29.8305 11.0215 30.4839 10.5881C31.2679 9.87217 31.6599 9.02435 31.6599 8.04464C31.6599 7.29102 31.3799 6.57507 30.8012 5.89681C30.2038 5.27507 29.4571 4.95478 28.5611 4.95478H19.3206C18.3686 4.95478 17.7152 4.50261 17.3045 3.59826C17.2298 3.33449 17.1738 3.1084 17.1738 2.92V2.86348C17.1738 2.14754 17.5098 1.56348 18.1632 1.1113C18.4806 0.904056 18.8726 0.791016 19.3019 0.791016H28.5051C30.5959 0.791016 32.4066 1.60116 33.9 3.22145C35.1321 4.63449 35.7668 6.27362 35.7668 8.10116C35.7668 10.1359 35.0388 11.8693 33.6014 13.32ZM32.2013 18.6519C32.2013 17.8606 31.9026 17.1258 31.2679 16.4287C30.6892 15.8258 29.9052 15.5055 28.9158 15.5055H23.0355V21.7417H29.0278C30.5025 21.7417 31.5106 21.007 32.0706 19.5185C32.1639 19.1794 32.2013 18.8968 32.2013 18.6519Z" fill="white"/>
<path fill-rule="evenodd" clip-rule="evenodd" d="M50.2898 1.11137C50.5512 1.01717 50.7752 0.979492 50.9619 0.979492H51.1112C51.8392 0.979492 52.4553 1.33746 52.9406 2.07224C53.09 2.41137 53.1647 2.73167 53.1647 3.03311V23.852C53.1647 24.7375 52.7166 25.378 51.8393 25.7925C51.6339 25.8679 51.4846 25.9056 51.4099 25.9056H50.6445C50.2898 25.9056 49.8791 25.6795 49.3938 25.2462C49.0391 24.8317 48.8711 24.3606 48.8711 23.8143V3.10848C48.8898 2.18529 49.3565 1.52587 50.2898 1.11137Z" fill="white"/>
<path fill-rule="evenodd" clip-rule="evenodd" d="M96.2494 1.67726C96.5668 1.52653 96.9028 1.45117 97.2388 1.45117H97.3135C98.0228 1.45117 98.6202 1.7903 99.1429 2.44972C99.3296 2.71349 101.7 5.72798 106.237 11.5309L107.301 12.8686C110.586 8.68595 113.405 5.10624 115.738 2.11059C116.224 1.67726 116.728 1.45117 117.251 1.45117H117.4C118.147 1.45117 118.763 1.82798 119.229 2.56276C119.435 2.92074 119.547 3.2787 119.547 3.65552C119.547 4.31494 119.248 4.95552 118.669 5.57726L108.869 18.0874C108.402 18.5207 107.879 18.728 107.301 18.728C106.479 18.728 105.826 18.3512 105.341 17.5787L99.5536 10.212V23.57C99.5536 24.6816 99.0496 25.4352 98.0415 25.8309C97.8922 25.8686 97.7988 25.8874 97.7242 25.8874H97.0148C96.6414 25.8874 96.2307 25.6802 95.7641 25.2657C95.3347 24.7946 95.1294 24.2483 95.1294 23.6077V4.27726L95.0547 3.67436C95.0547 2.82653 95.4467 2.14827 96.2494 1.67726Z" fill="white"/>
<path fill-rule="evenodd" clip-rule="evenodd" d="M183.355 3.2966C183.355 2.48645 183.728 1.82704 184.456 1.33718C184.83 1.11109 185.184 0.998047 185.558 0.998047H185.763C186.603 0.998047 187.331 1.52559 187.966 2.56182C188.993 4.10675 189.515 5.78356 189.515 7.61109V7.66762C189.515 9.90965 188.75 11.9256 187.238 13.7154C186.472 14.4879 185.95 14.9589 185.651 15.0908C185.184 15.4111 184.736 15.6749 184.326 15.8821V15.9009C187.275 19.7256 188.899 21.8169 189.161 22.1937C189.366 22.6082 189.478 22.985 189.478 23.3241V23.5879C189.478 24.3792 189.067 25.0575 188.246 25.6415C187.873 25.8299 187.592 25.9241 187.424 25.9241H186.603C186.174 25.8865 185.707 25.6415 185.24 25.227C180.872 19.556 178.632 16.6546 178.557 16.5227C178.371 16.127 178.277 15.7314 178.277 15.3357V15.072C178.277 14.1299 178.707 13.3009 179.565 12.6038C180.125 12.227 180.648 12.0198 181.152 12.0198C181.582 11.9444 181.974 11.8125 182.291 11.6807C183.299 11.1908 184.046 10.456 184.531 9.41979C184.774 8.81689 184.886 8.27051 184.886 7.7995V7.46037C184.886 6.65022 184.606 5.84008 184.046 5.01109L184.064 4.97341C183.616 4.52124 183.392 3.97486 183.392 3.33428V3.2966H183.355Z" fill="white"/>
<path fill-rule="evenodd" clip-rule="evenodd" d="M167.524 0.998328C168.177 0.998328 168.756 1.33746 169.241 2.01572C169.428 2.3737 169.521 2.73166 169.521 3.10848C169.521 3.8621 169.148 4.465 168.42 4.93601C168.102 5.08674 167.804 5.1621 167.542 5.1621H167.374C166.665 5.1621 166.086 4.80413 165.638 4.06935C165.47 3.73022 165.377 3.39109 165.377 3.05196C165.377 2.29833 165.732 1.69543 166.441 1.24326C166.758 1.07369 167.076 0.979492 167.393 0.979492H167.524V0.998328Z" fill="white"/>
<path fill-rule="evenodd" clip-rule="evenodd" d="M207.528 1.11137C207.789 1.01717 208.013 0.979492 208.2 0.979492H208.349C209.078 0.979492 209.694 1.33746 210.179 2.07224C210.328 2.41137 210.403 2.73167 210.403 3.03311V23.852C210.403 24.7375 209.955 25.378 209.078 25.7925C208.872 25.8679 208.723 25.9056 208.648 25.9056H207.883C207.528 25.9056 207.117 25.6795 206.632 25.2462C206.277 24.8317 206.109 24.3606 206.109 23.8143V3.10848C206.147 2.18529 206.613 1.52587 207.528 1.11137Z" fill="white"/>
<path fill-rule="evenodd" clip-rule="evenodd" d="M128.713 0.998047H140.754L140.81 1.01689H140.847C141.575 1.01689 142.172 1.3937 142.62 2.14732C142.77 2.44877 142.844 2.7879 142.844 3.10819C142.844 3.91834 142.452 4.54008 141.668 4.97341C141.388 5.10529 141.108 5.16182 140.847 5.16182H128.564C127.985 5.16182 127.481 4.89805 127.033 4.35167C126.753 3.97486 126.604 3.57921 126.604 3.16471V2.99515C126.604 2.35457 126.921 1.8082 127.556 1.33718C127.91 1.12993 128.246 1.01689 128.582 1.01689H128.62L128.713 0.998047Z" fill="white"/>
<path fill-rule="evenodd" clip-rule="evenodd" d="M128.638 11.4358C128.676 11.4358 128.676 11.4358 128.676 11.417L134.873 11.4358C135.303 11.4358 135.732 11.6431 136.199 12.0764C136.572 12.5097 136.777 12.9996 136.777 13.5083C136.777 14.2242 136.441 14.8271 135.788 15.2793C135.452 15.4866 135.135 15.5808 134.836 15.5808H128.526C127.929 15.5808 127.388 15.2605 126.94 14.6387C126.716 14.2808 126.604 13.9416 126.604 13.6025V13.4141C126.604 12.7547 126.94 12.1895 127.612 11.7184C127.966 11.5489 128.302 11.4735 128.601 11.4735H128.638V11.4358Z" fill="white"/>
<path fill-rule="evenodd" clip-rule="evenodd" d="M148.93 3.07079C148.93 2.35485 149.247 1.75195 149.9 1.28094C150.255 1.07369 150.591 0.979492 150.927 0.979492H159.29C160 0.979492 160.578 1.33746 161.045 2.07224C161.194 2.41137 161.269 2.73166 161.269 3.03311V23.8896C161.269 24.6621 160.877 25.265 160.112 25.7172C159.85 25.8302 159.682 25.8867 159.57 25.8867H158.861C158.525 25.8679 158.152 25.6795 157.722 25.3027C157.33 24.8882 157.125 24.3418 157.125 23.6635V5.1621H150.871C150.218 5.1621 149.658 4.82297 149.191 4.14471C149.023 3.74905 148.93 3.39108 148.93 3.07079Z" fill="white"/>
<path fill-rule="evenodd" clip-rule="evenodd" d="M138.758 13.4901C138.758 12.6988 139.15 12.0771 139.934 11.6249C140.233 11.493 140.513 11.4365 140.755 11.4365H140.867C141.633 11.4365 142.249 11.851 142.678 12.6612C142.809 12.9438 142.865 13.2264 142.865 13.4901C142.865 14.3191 142.473 14.9409 141.67 15.3742C141.371 15.5061 141.129 15.5626 140.905 15.5626H140.699C140.046 15.5626 139.505 15.2235 139.038 14.5264C138.851 14.1684 138.758 13.8293 138.758 13.4901Z" fill="white"/>
<path fill-rule="evenodd" clip-rule="evenodd" d="M141.221 21.8364C141.707 21.9683 142.099 22.1944 142.36 22.5147C142.696 22.9103 142.864 23.3625 142.864 23.8712C142.864 24.6625 142.472 25.2842 141.688 25.7364C141.426 25.8306 141.258 25.8683 141.184 25.8683H128.284C127.948 25.8683 127.538 25.6422 127.09 25.19C126.772 24.7567 126.623 24.3422 126.623 23.9089V23.777C126.623 23.061 126.978 22.477 127.706 22.0248C127.911 21.8929 128.247 21.7987 128.695 21.7422H140.754C140.754 21.7987 140.922 21.8175 141.221 21.8364Z" fill="white"/>
<path fill-rule="evenodd" clip-rule="evenodd" d="M76.4067 0.282769C76.9854 0.358132 77.4521 0.659581 77.8068 1.1306C78.1615 1.62045 78.2921 2.14799 78.1988 2.75089C78.1055 3.33494 77.8068 3.80596 77.3401 4.16393C76.8547 4.5219 76.332 4.65379 75.7533 4.55958C75.3053 4.48422 74.8386 4.44654 74.3719 4.44654C72.0385 4.44654 70.0597 5.27553 68.417 6.91466C66.7929 8.57263 65.9715 10.5697 65.9715 12.9248C65.9715 15.261 66.7929 17.277 68.417 18.9538V18.9349C70.041 20.5741 72.0385 21.4219 74.3719 21.4219C76.7054 21.4031 78.6842 20.5741 80.3269 18.9349V18.9538C81.7457 17.5031 82.5484 15.8074 82.735 13.848V13.8103C82.7724 13.5089 82.791 13.2263 82.791 12.9436C82.7724 12.906 82.7724 12.8494 82.7724 12.7929C82.7164 12.2089 82.8657 11.6813 83.2391 11.2103C83.6124 10.7393 84.0791 10.4755 84.6765 10.4002C85.2552 10.3436 85.7779 10.4944 86.2446 10.8712C86.7113 11.248 86.9726 11.719 87.0473 12.3219C87.0846 12.5291 87.0846 12.7364 87.0846 12.9436C87.0846 13.3958 87.0473 13.848 86.9913 14.3002V14.2625C86.7299 17.2205 85.5165 19.8204 83.3697 22.006C80.8869 24.5118 77.9001 25.7552 74.3719 25.7552C70.8438 25.7552 67.8569 24.5118 65.3741 22.006C62.8913 19.5002 61.6593 16.4668 61.6779 12.9248C61.6593 9.38277 62.8913 6.36828 65.3741 3.88132V3.86248C67.8569 1.35668 70.8438 0.113206 74.3719 0.132047C75.0813 0.132047 75.7533 0.169726 76.4067 0.282769Z" fill="#FFDC00"/>
<path fill-rule="evenodd" clip-rule="evenodd" d="M81.1113 4.97354C81.1113 4.18224 81.5033 3.5605 82.2874 3.10833C82.5861 2.97644 82.8661 2.91992 83.1088 2.91992H83.2208C83.9861 2.91992 84.6022 3.33442 85.0315 4.1634C85.1622 4.44601 85.2182 4.72862 85.2182 4.99239C85.2182 5.82137 84.8262 6.44311 84.0235 6.87644C83.7248 7.00833 83.4821 7.06485 83.2581 7.06485H83.0528C82.3994 7.06485 81.858 6.72572 81.3913 6.02862C81.2047 5.65181 81.1113 5.31267 81.1113 4.97354Z" fill="#FFDC00"/>
</svg>
