<svg width="163" height="50" viewBox="0 0 163 50" fill="none" xmlns="http://www.w3.org/2000/svg">
<path fill-rule="evenodd" clip-rule="evenodd" d="M0 49.24H11.4441L49.2088 11.5199L87.1007 49.24H98.2903L49.2088 0L0 49.24Z" fill="#E49F40"/>
<path fill-rule="evenodd" clip-rule="evenodd" d="M19.6445 49.24H28.8001L49.2084 29.1137L69.4896 49.24H78.5189L49.276 20.1265L19.6445 49.24Z" fill="#E49F40"/>
<path fill-rule="evenodd" clip-rule="evenodd" d="M37.1328 49.1767L49.2763 37.0889L61.2924 49.1767H37.1328Z" fill="#E49F40"/>
<path fill-rule="evenodd" clip-rule="evenodd" d="M114.111 36.1733V21.4121H110.635L110.719 31.0446H110.655L104.708 21.4121H100.625V36.1733H104.1L104.017 26.521H104.08L110.049 36.1733H114.111ZM132.625 28.7303C132.625 23.9982 129.19 21.0161 124.541 21.0161C119.912 21.0161 116.478 23.9982 116.478 28.7303C116.478 33.4011 119.912 36.5703 124.541 36.5703C129.19 36.5703 132.625 33.4011 132.625 28.7303ZM128.793 28.7303C128.793 31.3988 127.033 33.3176 124.541 33.3176C122.049 33.3176 120.31 31.3988 120.31 28.7303C120.31 26.1452 122.028 24.2278 124.541 24.2278C127.054 24.2278 128.793 26.1452 128.793 28.7303ZM147.808 21.4121H143.852L140.437 31.8783H140.353L136.919 21.4121H132.898L138.51 36.1733H142.091L147.808 21.4121ZM162.427 36.1733L156.269 21.4121H152.793L146.573 36.1733H150.469L151.558 33.2762H157.295L158.448 36.1733H162.427ZM156.311 30.4191H152.585L154.469 25.3527L156.311 30.4191Z" fill="#ACABAE"/>
<path fill-rule="evenodd" clip-rule="evenodd" d="M100.934 49.7409H104.335C106.895 49.7409 109.718 48.0418 109.718 44.6418C109.718 41.2426 106.895 39.5429 104.335 39.5429H100.934V49.7409ZM101.976 40.4653H104.045C107.127 40.4653 108.617 42.5398 108.617 44.6418C108.617 46.745 107.127 48.8195 104.045 48.8195H101.976V40.4653ZM112.929 44.9737H114.666L117.5 49.7409H118.774L115.779 44.8863C117.27 44.7278 118.399 43.7778 118.399 42.2652C118.399 40.2781 116.923 39.5429 114.897 39.5429H111.887V49.7409H112.929V44.9737ZM112.929 40.4366H114.781C116.33 40.4366 117.357 40.9256 117.357 42.2652C117.357 43.476 116.403 44.08 114.737 44.08H112.929V40.4366ZM121.596 39.5429H120.554V49.7409H121.596V39.5429ZM125.357 39.5429H124.316V49.7409H130.133V48.8195H125.357V39.5429ZM132.737 39.5429H131.696V49.7409H137.513V48.8195H132.737V39.5429ZM140.117 39.5429H139.075V49.7409H140.117V39.5429ZM144.139 39.5429H142.836V49.7409H143.878V40.9695H143.907L149.868 49.7409H151.171V39.5429H150.129V48.2289H150.1L144.139 39.5429ZM162.383 40.6525C161.516 39.8022 160.301 39.2842 158.68 39.2842C155.627 39.2842 153.341 41.5448 153.341 44.6418C153.341 47.7385 155.583 50.0002 158.68 50.0002C160.068 50.0002 161.385 49.6683 162.5 49.0067V44.4122H159.07V45.3194H161.457V48.4165C160.865 48.8046 159.851 49.0778 158.695 49.0778C156.061 49.0778 154.441 47.0185 154.441 44.6418C154.441 42.2652 156.061 40.1918 158.695 40.1918C159.968 40.1918 160.951 40.6238 161.66 41.3725L162.383 40.6525Z" fill="#ACABAE"/>
</svg>
