<svg width="1440" height="181" viewBox="0 0 1440 181" fill="none" xmlns="http://www.w3.org/2000/svg">
<g clip-path="url(#clip0_241_2514)">
<path fill-rule="evenodd" clip-rule="evenodd" d="M1343.41 27.7002V154.325H1389V27.7002C1388.97 27.7002 1343.41 27.7002 1343.41 27.7002Z" fill="#221E1F"/>
</g>
<g clip-path="url(#clip1_241_2514)">
<path fill-rule="evenodd" clip-rule="evenodd" d="M1322.24 135.997C1322.27 125.166 1322.34 104.737 1299.15 93.7279C1299.15 93.7279 1318.36 91.1396 1318.36 59.7244C1318.36 28.3092 1283.13 27.7002 1274.72 27.7002H1178.79V27.6748H1133.21V154.3H1178.79V115.297H1260.57C1260.57 115.297 1274.53 113.166 1276.76 126.539C1277.31 129.848 1277.69 132.971 1278.04 135.857C1279.09 144.614 1279.88 151.189 1284.53 154.148H1330.41C1330.41 154.148 1322.95 148.819 1322.32 140.318C1322.23 139.164 1322.24 137.699 1322.24 135.997ZM1178.79 83.8821H1261.53C1269.78 83.8821 1274.08 79.3145 1274.05 71.4226C1274.05 63.5307 1266.75 61.2469 1261.05 61.2469C1257.97 61.2469 1232.94 61.2065 1210.53 61.1703C1197.42 61.1491 1185.21 61.1294 1178.79 61.12V83.8821Z" fill="#221E1F"/>
</g>
<g clip-path="url(#clip2_241_2514)">
<path d="M1106.81 154.325H1061.22V27.7002H1106.81V154.325Z" fill="#221E1F"/>
</g>
<g clip-path="url(#clip3_241_2514)">
<path d="M971.48 27.6748H1044.32L949.722 84.9733L1053.45 153.082H979.281L900.58 103.345V154.351H854.994V27.7255H900.58V69.9508L971.48 27.6748Z" fill="#221E1F"/>
</g>
<g clip-path="url(#clip4_241_2514)">
<path d="M828.592 154.325H783.006V27.7002H828.592V154.325Z" fill="#221E1F"/>
</g>
<g clip-path="url(#clip5_241_2514)">
<path fill-rule="evenodd" clip-rule="evenodd" d="M763.424 88.9065C763.424 79.6951 761.964 71.8794 759.496 65.1802C748.246 30.1363 715.529 26 698.175 26H657.153H657.127H616.104C598.751 26 566.034 30.1363 554.783 65.1802C552.315 71.8794 550.856 79.6951 550.856 88.9065C550.856 89.5919 550.881 90.2536 550.906 90.9373L550.909 91.0127C550.909 91.368 550.896 91.7105 550.883 92.0531C550.869 92.3957 550.856 92.7382 550.856 93.0935C550.856 102.305 552.315 110.121 554.783 116.82C566.034 151.864 598.751 156 616.104 156H657.127H657.153H698.175C715.529 156 748.246 151.864 759.496 116.82C761.964 110.121 763.424 102.305 763.424 93.0935C763.424 92.383 763.397 91.6978 763.371 91.0127C763.371 90.6574 763.384 90.3085 763.397 89.9596C763.41 89.6107 763.424 89.2618 763.424 88.9065ZM699.369 120.525C703.694 119.535 708.471 116.845 712.265 112.404C716.458 107.202 719.376 99.8688 719.429 91.0127C719.403 82.1312 716.458 74.7976 712.265 69.6209C708.471 65.1802 703.721 62.4903 699.369 61.5007C699.173 61.4683 698.973 61.4309 698.771 61.3932C698.183 61.2834 697.581 61.1708 697.008 61.1708C692.968 61.1708 686.021 61.0153 678.576 60.8486C673.992 60.746 669.22 60.6391 664.821 60.5618C664.81 60.5618 664.795 60.5574 664.777 60.5523C664.751 60.5451 664.72 60.5364 664.689 60.5364C662.991 60.4603 660.311 60.4349 657.153 60.4603H657.127H657.1C653.916 60.4349 651.262 60.4603 649.564 60.5364C649.538 60.5364 649.518 60.5427 649.498 60.5491C649.478 60.5554 649.458 60.5618 649.432 60.5618C644.472 60.6381 639.037 60.7613 633.934 60.8769C627.159 61.0305 620.968 61.1708 617.245 61.1708C616.689 61.1708 616.12 61.2767 615.546 61.3834C615.326 61.4244 615.105 61.4655 614.884 61.5007C610.532 62.4903 605.782 65.1548 601.961 69.6209C597.769 74.7976 594.824 82.1312 594.797 91.0127C594.85 99.8942 597.769 107.202 601.961 112.404C605.782 116.845 610.532 119.535 614.884 120.525C615.105 120.56 615.326 120.601 615.546 120.642C616.12 120.749 616.689 120.855 617.245 120.855C621.285 120.855 628.232 121.01 635.676 121.177C640.26 121.279 645.033 121.386 649.432 121.464C649.443 121.464 649.458 121.468 649.476 121.473C649.502 121.48 649.533 121.489 649.564 121.489C651.262 121.565 653.942 121.59 657.1 121.565H657.127H657.153C660.337 121.565 662.991 121.565 664.689 121.489C664.715 121.489 664.735 121.483 664.755 121.476C664.775 121.47 664.795 121.464 664.821 121.464C669.781 121.387 675.216 121.264 680.32 121.148C687.094 120.995 693.285 120.855 697.008 120.855C697.564 120.855 698.133 120.749 698.707 120.642C698.927 120.601 699.148 120.56 699.369 120.525Z" fill="#221E1F"/>
</g>
<g clip-path="url(#clip6_241_2514)">
<path d="M464.752 27.7002H531.22L531.194 154.325H485.608V71.4734L429.196 153.792H390.11L333.698 71.4734V154.325H288.112V27.7002H354.581L375.41 59.7498L409.666 107.685L443.922 59.7498L464.752 27.7002Z" fill="#221E1F"/>
</g>
<g clip-path="url(#clip7_241_2514)">
<path fill-rule="evenodd" clip-rule="evenodd" d="M263.594 88.9065C263.594 79.6951 262.135 71.8794 259.667 65.1802C248.416 30.1363 215.699 26 198.346 26H157.297H157.271H116.248C98.8947 26 66.1777 30.1363 54.9271 65.1802C52.4594 71.8794 51 79.6951 51 88.9065C51 89.5931 51.0248 90.2559 51.0504 90.9409L51.0531 91.0127C51.0531 91.368 51.0398 91.7105 51.0265 92.0531C51.0133 92.3957 51 92.7382 51 93.0935C51 102.305 52.4594 110.121 54.9271 116.82C66.1777 151.864 98.8947 156 116.248 156H157.271H157.297H198.346C215.699 156 248.416 151.864 259.667 116.82C262.135 110.121 263.594 102.305 263.594 93.0935C263.594 92.3841 263.568 91.7001 263.541 91.0161L263.541 91.0127C263.541 90.6574 263.554 90.3085 263.568 89.9596C263.581 89.6107 263.594 89.2618 263.594 88.9065ZM199.54 120.525C203.865 119.535 208.641 116.845 212.436 112.404C216.628 107.202 219.573 99.8688 219.6 91.0127C219.573 82.1312 216.628 74.7976 212.436 69.6209C208.641 65.1802 203.892 62.4903 199.54 61.5007C199.319 61.4655 199.098 61.4244 198.877 61.3834C198.304 61.2767 197.734 61.1708 197.178 61.1708C193.138 61.1708 186.191 61.0153 178.747 60.8486C174.163 60.746 169.391 60.6391 164.992 60.5618C164.981 60.5618 164.966 60.5574 164.947 60.5523C164.922 60.5451 164.89 60.5364 164.859 60.5364C163.161 60.4603 160.481 60.4349 157.324 60.4603H157.297H157.271C154.086 60.4349 151.433 60.4603 149.735 60.5364C149.708 60.5364 149.688 60.5427 149.668 60.5491C149.648 60.5554 149.629 60.5618 149.602 60.5618C144.643 60.6381 139.208 60.7613 134.104 60.8769C127.33 61.0305 121.139 61.1708 117.416 61.1708C116.86 61.1708 116.29 61.2767 115.717 61.3834C115.496 61.4244 115.275 61.4655 115.054 61.5007C110.729 62.4903 105.953 65.1548 102.158 69.6209C97.966 74.7976 95.0207 82.1312 94.9941 91.0127C95.0207 99.8942 97.966 107.202 102.158 112.404C105.953 116.845 110.703 119.535 115.054 120.525C115.275 120.56 115.496 120.601 115.717 120.642C116.29 120.749 116.86 120.855 117.416 120.855C121.456 120.855 128.402 121.01 135.847 121.177C140.431 121.279 145.203 121.386 149.602 121.464C149.613 121.464 149.629 121.468 149.647 121.473C149.673 121.48 149.704 121.489 149.735 121.489C151.433 121.565 154.113 121.59 157.271 121.565H157.297H157.324C160.508 121.565 163.161 121.565 164.859 121.489C164.886 121.489 164.906 121.483 164.926 121.476C164.946 121.47 164.966 121.464 164.992 121.464C169.952 121.387 175.386 121.264 180.49 121.148C187.264 120.995 193.456 120.855 197.178 120.855C197.734 120.855 198.304 120.749 198.877 120.642C199.098 120.601 199.319 120.56 199.54 120.525Z" fill="#221E1F"/>
</g>
<defs>
<clipPath id="clip0_241_2514">
<rect width="45.5862" height="126.625" fill="white" transform="translate(1343.41 27.7002)"/>
</clipPath>
<clipPath id="clip1_241_2514">
<rect width="197.204" height="126.625" fill="white" transform="translate(1133.21 27.6748)"/>
</clipPath>
<clipPath id="clip2_241_2514">
<rect width="45.5862" height="126.625" fill="white" transform="translate(1061.22 27.7002)"/>
</clipPath>
<clipPath id="clip3_241_2514">
<rect width="198.451" height="126.676" fill="white" transform="translate(854.994 27.6748)"/>
</clipPath>
<clipPath id="clip4_241_2514">
<rect width="45.5862" height="126.625" fill="white" transform="translate(783.006 27.7002)"/>
</clipPath>
<clipPath id="clip5_241_2514">
<rect width="212.568" height="130" fill="white" transform="translate(550.856 26)"/>
</clipPath>
<clipPath id="clip6_241_2514">
<rect width="243.109" height="126.625" fill="white" transform="translate(288.112 27.7002)"/>
</clipPath>
<clipPath id="clip7_241_2514">
<rect width="212.594" height="130" fill="white" transform="translate(51 26)"/>
</clipPath>
</defs>
</svg>
