<svg width="734" height="546" viewBox="0 0 734 546" fill="none" xmlns="http://www.w3.org/2000/svg">
<path d="M186.431 288.018L112.193 270.715L134.799 176.662L199.827 191.733L215.177 214.06L196.757 295.275M332.259 329.044L269.32 255.644L246.434 217.13L226.898 229.968L198.431 341.882L250.621 392.955M332.259 329.044L370.07 373.14L326.253 425.329L312.578 421.422L296.949 437.609L257.877 398.816M332.259 329.044L391.002 275.459M391.002 275.459L393.234 277.413M391.002 275.459L384.583 267.366M381.792 263.18L367.837 246.155L346.627 216.014L325.974 171.36M320.951 162.15L314.253 127.264L306.996 82.6099M396.304 281.041L421.701 305.88M261.784 190.338L301.973 169.964L297.507 161.033L267.645 174.988M146.521 340.208L157.964 342.999M164.104 344.673L178.058 348.022L188.942 301.973" stroke="#505050" stroke-width="0.558175"/>
<path d="M211.27 55.5384L213.223 66.4228L211.27 71.1673L197.873 73.3891M142.893 97.4015C144.01 90.9825 146.242 86.5171 148.475 84.0053C150.261 81.9959 152.94 80.9354 154.057 80.6563L171.918 77.6939M142.893 97.4015L174.43 91.8633M142.893 97.4015C142.526 99.5157 140.978 106.559 139.019 115.263M130.334 153.219L125.59 164.941M130.334 153.219C131.872 146.581 134.066 137.059 136.195 127.719M130.334 153.219L150.987 158.243M125.59 164.941L99.3772 276.855M125.59 164.941C145.777 170.243 187.38 180.793 192.292 180.57C197.204 180.346 203.827 178.43 206.525 177.5M39.6309 531.941L56.888 458.262M63.0742 329.881C71.6196 331.93 81.9042 334.412 92.9366 337.094M313.695 462.169L251.179 528.592M313.695 462.169C300.732 451.044 283.057 435.91 265.412 420.864M313.695 462.169L437.982 321.788M492.59 260.11L483.101 270.827M492.59 260.11L512.126 274.901M492.59 260.11C479.945 248.948 453.117 221.035 432.806 187.547M82.1854 350.255L92.9366 352.767L87.0757 377.884M82.1854 350.255L75.3872 379.28M82.1854 350.255L99.3772 276.855M75.3872 379.28L87.6339 382.35M75.3872 379.28L72.511 391.56M72.511 391.56L148.475 410.259L147.359 414.445M72.511 391.56L57.9993 453.517M102.984 409.421L85.9594 405.235L75.6331 445.703M57.9993 453.517L68.3769 456.029M57.9993 453.517L56.888 458.262M56.888 458.262L67.2605 460.773M97.1229 467.751L116.101 471.937L115.264 475.286M105.775 512.125L102.146 524.126L82.8894 544.5M99.3772 276.855L107.449 278.726M202.897 300.856L186.152 296.974M202.897 300.856L182.803 359.656M202.897 300.856C209.595 275.738 222.935 224.777 222.712 221.875C222.433 218.246 214.061 204.013 213.223 199.827C212.553 196.478 208.479 183.547 206.525 177.5M186.152 296.974L194.524 260.947M186.152 296.974L133.962 284.873M133.962 284.873L128.939 308.113L167.453 317.322L158.243 353.266M133.962 284.873L107.449 278.726M158.243 353.266C138.472 348.241 114.302 342.29 92.9366 337.094M158.243 353.266C164.533 354.865 170.378 356.37 175.546 357.727M182.803 359.656C191.267 361.939 196.83 363.583 197.873 364.209C199.554 365.217 211.17 374.875 226.964 388.211M182.803 359.656C180.575 359.055 178.146 358.409 175.546 357.727M92.9366 337.094L107.449 278.726M112.752 350.255L173.872 365.584M224.666 393.792L199.548 372.024L173.872 365.584M224.666 393.792L226.964 388.211M224.666 393.792L221.038 401.607M226.964 388.211C232.633 392.997 238.84 398.256 245.318 403.76M221.038 401.607L211.828 406.351L196.478 409.421L118.054 391.122M221.038 401.607V405.235L213.502 411.933M112.752 389.885L118.054 391.122M118.054 391.122L121.403 376.489M175.546 357.727L173.872 365.584M206.525 177.5L311.741 153.219M311.741 153.219C312.059 157.401 312.648 164.234 313.302 169.964M311.741 153.219L297.447 57.2129M294.996 40.7468L297.447 57.2129M197.873 73.3891L200.106 87.3544L174.43 91.8633M197.873 73.3891L171.918 77.6939M171.918 77.6939L174.43 91.8633M139.019 115.263L150.987 117.496M139.019 115.263C138.138 119.178 137.173 123.43 136.195 127.719M136.195 127.719L148.475 130.334M296.67 274.622C300.985 280.17 307.434 288.331 313.695 296.003M313.695 296.003C321.607 305.7 329.218 314.615 331.835 316.485C336.524 319.834 341.976 316.206 344.115 313.973L383.467 276.297C379.018 271.183 371.737 262.754 365.228 255.086M313.695 296.003L365.228 255.086M365.228 255.086C359.894 248.803 355.08 243.032 352.767 240.015C351.148 237.904 348.02 233.271 344.225 227.456M311.741 251.458L344.225 227.456M344.225 227.456C339.248 219.831 333.124 210.173 327.75 201.501M313.302 169.964C313.797 174.303 314.33 178.01 314.811 179.453C315.393 181.199 320.975 190.566 327.75 201.501M313.302 169.964C296.315 179.732 262.008 199.548 260.668 200.664C258.994 202.059 257.04 205.129 260.668 210.711C262.584 213.658 268.089 223.575 273.11 232.759M313.302 169.964L332.952 158.801M279.925 245.318C278.154 242.028 275.696 237.491 273.11 232.759M273.11 232.759L327.75 201.501M332.952 158.801L337.696 155.452M332.952 158.801C329.417 148.568 321.844 126.594 319.835 120.566M332.952 158.801C334.059 161.217 335.468 164.269 337.083 167.732M319.835 120.566L337.696 115.263L334.347 104.379L317.357 108.565M319.835 120.566C319.187 118.624 318.31 114.179 317.357 108.565M317.357 108.565C315.35 96.7508 313.002 79.7628 311.741 70.0509L394.63 56.4387M427.842 301.135C423.525 296.544 417.149 289.668 410.817 282.666M410.817 282.666L425.33 267.366L415.003 258.714L401.417 272.11M410.817 282.666C407.578 279.084 404.351 275.47 401.417 272.11M401.417 272.11C396.488 266.468 392.386 261.546 390.444 258.714C386.165 252.474 379.381 244.526 372.274 234.433M372.274 234.433L386.257 223.828L378.722 214.06L364.594 222.712M372.274 234.433C369.722 230.809 367.128 226.909 364.594 222.712M364.594 222.712C363.137 220.299 361.701 217.789 360.302 215.176C355.227 205.693 348.433 191.742 342.599 179.453M337.083 167.732L350.534 161.592L356.116 172.755L342.599 179.453M337.083 167.732C338.74 171.286 340.614 175.273 342.599 179.453M512.126 103.821L502.079 38.7932L394.63 56.4387M512.126 103.821C486.171 110.519 475.193 126.334 471.1 136.753L441.238 121.403L437.889 128.659M512.126 103.821C521.987 101.681 545.728 101.532 561.803 118.054C581.898 138.706 583.293 165.22 576.037 181.965M255.924 81.7726L253.412 68.3764C253.226 67.7252 253.077 66.0879 253.97 64.7483C254.369 64.1502 260.264 62.9734 267.924 61.6801M297.447 57.2129C293.043 57.8223 287.244 58.6542 281.321 59.5513M297.447 57.2129L366.163 46.0494L372.274 90.9825L377.078 108.565M267.924 61.6801L270.715 79.5399M267.924 61.6801C272.07 60.9802 276.732 60.2462 281.321 59.5513M281.321 59.5513L284.111 77.0281M483.101 270.827L459.523 251.458M483.101 270.827L446.631 312.02M459.523 251.458L449.331 243.085L432.028 225.224L401.417 177.5L388.211 149.312L377.078 108.565M459.523 251.458C458.079 252.388 454.355 254.137 451.006 253.69C446.819 253.132 445.703 252.574 440.959 248.109C436.214 243.643 409.98 216.851 388.211 174.43C366.442 132.008 370.07 123.915 370.349 118.612C370.573 114.37 374.928 110.147 377.078 108.565M213.502 411.933L200.943 458.262L132.288 536.406M213.502 411.933L236.388 414.445M265.412 420.864L248.946 467.751M265.412 420.864C258.619 415.072 251.831 409.293 245.318 403.76M369.233 530.545L374.536 523.847L383.921 502.078M467.751 363.651L421.702 414.445L412.678 435.376M467.751 363.651C474.356 369.14 487.845 381.624 488.962 387.652C490.357 395.188 482.543 398.258 481.705 401.607C480.868 404.956 483.38 406.91 490.078 411.375C495.436 414.947 515.055 419.934 524.194 421.98M467.751 363.651L444.866 343.836V329.044L437.982 321.788M412.678 435.376L475.565 489.798L501.242 500.125L522.719 427.004M412.678 435.376L383.921 502.078M383.921 502.078L415.841 530.545M663.391 135.078C656.135 133.125 648.042 133.962 639.111 137.032C630.18 140.102 626.831 148.475 625.156 152.382C624.394 154.16 617.094 173.122 608.988 194.245M576.765 277.134L591.666 239.457C596.238 227.505 602.844 210.254 608.988 194.245M576.765 277.134L606.457 288.297M576.765 277.134L566.39 303.368M522.719 427.004L549.803 438.167M522.719 427.004L524.194 421.98M524.194 421.98L537.228 377.605M437.982 321.788L415.003 312.02L405.794 303.793M437.982 321.788L446.631 312.02M385.141 360.581L368.954 345.753M368.954 345.753L348.581 327.09L386.257 286.344L405.794 303.793M368.954 345.753L405.794 303.793M446.631 312.02L481.705 339.37M537.228 377.605L537.802 375.652L566.39 303.368M537.228 377.605L512.126 367.837L496.497 354.441M512.126 274.901L537.802 290.251M512.126 274.901L503.195 287.181L545.337 311.183L556.222 298.703M512.126 274.901L553.431 221.316M537.802 290.251L556.222 298.703M537.802 290.251L565.153 233.038V228.573L557.896 221.316H553.431M566.39 303.368L556.222 298.703M553.431 221.316V217.967L546.733 212.106M546.733 212.106L543.105 214.06M546.733 212.106C553.989 210.153 568.781 198.71 576.037 181.965M394.63 56.4387C394.968 66.6116 396.848 84.8868 401.417 105.981M394.63 56.4387L388.211 24.5597M401.417 105.981L437.889 128.659M401.417 105.981C404.486 120.151 408.768 135.594 414.612 150.707M437.889 128.659C437.186 130.626 436.113 136.239 436.109 145.405M432.806 187.547C428.909 181.121 425.252 174.489 421.981 167.732C419.285 162.163 416.835 156.459 414.612 150.707M432.806 187.547L439.284 183.919C438.819 180.756 437.61 170.634 436.493 155.452C436.22 151.73 436.108 148.38 436.109 145.405M414.612 150.707C419.045 148.661 429.551 144.735 436.109 145.405M576.037 181.965L608.988 194.245M245.318 403.76L258.994 388.211" stroke="url(#paint0_radial_276_1691)" stroke-width="2.2327"/>
<path d="M444.587 277.971L452.681 284.39L459.1 275.738C440.959 260.668 410.818 231.364 389.328 193.129C360.454 141.756 351 94.8898 349.139 77.5864L338.813 78.9818C339.706 87.2428 344.209 107.17 346.348 116.1L341.046 117.217L340.488 114.705L330.161 117.217L331.557 121.961L329.045 122.799L330.999 129.497L334.068 128.659L334.348 130.334L343.837 127.822V125.589L349.139 124.752C352.935 139.041 362.815 162.15 367.28 171.918L362.256 174.151L360.861 171.918L351.372 175.825L353.046 179.453L350.814 180.57L353.884 186.71L356.116 185.872L357.791 188.384L366.722 183.919L365.605 181.686L370.629 179.732C375.764 190.896 391.002 213.967 397.98 224.107L393.235 227.177L391.561 225.224L383.467 231.084L385.421 234.154L383.467 235.829L387.374 241.411L389.328 240.015L391.561 243.085L400.212 236.387L398.817 234.154L403.003 231.364C409.478 240.964 429.144 262.342 438.168 271.831L434.819 275.738L432.865 274.064L425.888 281.041L427.842 283.553L426.446 285.227L431.47 290.53L433.424 288.856L435.377 290.53L442.354 283.274L440.959 281.599L444.587 277.971Z" fill="#2B2B2B"/>
<path fill-rule="evenodd" clip-rule="evenodd" d="M337.138 307.833L372.861 277.692L344.952 242.806L307.555 271.552L337.138 307.833ZM339.371 286.344L336.022 288.856L325.695 276.017L329.044 272.948L326.533 269.878L339.371 259.83L342.162 262.342L344.952 259.83L355.837 273.227L352.488 275.738L355 278.808L342.162 289.414L339.371 286.344Z" fill="#2A2A2A"/>
<path fill-rule="evenodd" clip-rule="evenodd" d="M391.219 358.123L421.346 322.857L387.873 293.268L355.953 327.996L391.219 358.123ZM389.833 337.118L386.964 340.167L374.591 329.287L377.364 325.689L374.364 323.095L385.291 310.997L388.47 312.993L390.79 310.041L403.808 321.374L400.939 324.422L403.94 327.017L393.108 339.665L389.833 337.118Z" fill="#2A2A2A"/>
<path fill-rule="evenodd" clip-rule="evenodd" d="M292.113 249.173L332.147 225.049L310.096 186.195L268.629 208.676L292.113 249.173ZM297.71 228.305L294.007 230.257L285.837 215.949L289.629 213.447L287.633 210.019L301.896 202.124L304.256 205.045L307.408 203.006L316.041 217.952L312.337 219.904L314.333 223.332L299.982 231.777L297.71 228.305Z" fill="#2A2A2A"/>
<path d="M289.696 95.1688L297.51 146.8L212.946 160.754C209.876 164.01 201.169 170.522 190.899 170.522C178.061 170.522 158.328 165.278 156.571 140.102C154.896 116.1 174.71 106.611 180.851 105.495C188.945 104.024 200.108 104.379 206.527 108.565L289.696 95.1688Z" fill="#2B2B2B"/>
<path d="M559.849 160.475C559.849 180.051 543.98 195.919 524.405 195.919C516.822 195.919 509.795 193.538 504.031 189.483C502.226 188.212 500.544 186.777 499.008 185.199C492.79 178.814 488.961 170.092 488.961 160.475C488.961 140.9 504.83 125.031 524.405 125.031C543.98 125.031 559.849 140.9 559.849 160.475Z" fill="#2A2A2A"/>
<path d="M492.589 192.291C494.294 193.745 495.979 195.042 497.634 196.198L504.031 189.483C502.226 188.212 500.544 186.777 499.008 185.199L492.589 192.291Z" fill="#2A2A2A"/>
<path d="M474.448 222.433L490.635 204.89C483.284 199.104 475.768 190.152 472.083 177.779L458.54 181.407C456.084 172.699 455.47 163.452 455.47 159.917H465.238V154.056L445.981 153.219C445.516 158.615 445.814 173.257 450.725 188.663C455.637 204.069 468.587 217.595 474.448 222.433Z" fill="#2A2A2A"/>
<path d="M518.544 215.456H522.172V211.548H524.963V209.037H526.916V205.687C524.907 205.687 512.503 206.591 497.634 196.198C495.979 195.042 494.294 193.745 492.589 192.291C478.969 180.681 478.913 159.359 480.588 150.149L471.099 147.916C468.853 159.487 469.593 169.414 472.083 177.779C475.768 190.152 483.284 199.104 490.635 204.89C494.616 208.025 498.549 210.23 501.798 211.548L485.332 231.364L496.217 240.852L518.544 215.456Z" fill="#2A2A2A"/>
<path d="M325.695 409.142L342.441 392.676L336.301 388.49C339.464 383.838 345.12 370.461 342.441 354.162L336.301 355.278C336.022 353.046 334.961 347.91 332.952 345.231L322.346 350.255C322.905 351.185 324.188 353.995 324.858 357.79H327.649C327.928 359.837 328.319 364.711 327.649 367.837L329.603 368.395C329.882 369.605 330.049 372.526 328.486 374.535H325.695L323.463 378.443L308.95 364.209L309.787 360.86L295.833 347.464L280.483 364.209L295.275 377.605L296.949 375.931L312.02 390.443L307.555 392.676L308.113 396.025C307.09 396.583 304.429 397.644 301.973 397.421L300.578 394.909C298.624 395.374 293.824 396.025 290.251 394.909V392.676L283.274 390.443L280.902 395.606L278.914 399.932L278.53 400.77C279.646 401.7 283.107 403.672 288.019 404.119V410.538C293.507 412.212 307.834 413.273 321.23 404.119L325.695 409.142Z" fill="#2B2B2B"/>
<path d="M280.902 395.606L270.994 386.536L267.924 390.443L278.914 399.932L280.902 395.606Z" fill="#2B2B2B"/>
<path d="M267.924 390.443L270.994 386.536L276.855 379.838L258.993 361.418L291.926 326.811L312.02 345.789L322.346 335.184L292.484 305.043L286.065 311.462L280.483 305.043L254.528 307.853L249.466 312.857L275.739 310.345L281.6 316.206L274.901 322.904C272.111 322.904 265.468 323.965 261.226 328.207C255.924 333.509 255.365 339.649 255.924 341.882L237.225 360.86L267.924 390.443Z" fill="#2B2B2B"/>
<path d="M228.573 333.509L249.466 312.857L254.528 307.853L277.134 285.506L263.18 272.389L215.177 320.951L228.573 333.509Z" fill="#2B2B2B"/>
<path d="M507.381 5.58175L121.682 72.5627C121.682 72.5627 91.4329 211.75 70.8882 300.577C50.3435 389.404 16.4662 527.475 16.4662 527.475H9.48897C28.9374 439.888 48.7719 368.766 65.6682 300.019L61.838 299.182C42.3237 378.075 7.21694 522.09 6.13992 527.475H0C18.6058 452.215 56.4315 298.735 58.8875 286.902C61.2281 275.624 76.8009 207.146 86.967 160.475C86.9101 145.684 87.505 121.362 85.9589 112.472C84.8426 106.053 78.9818 96.5643 66.4228 92.3779C56.3757 89.0289 26.8854 89.401 12.838 89.5871L37.9559 86.238C49.3055 85.4938 76.445 87.3839 84.5635 98.5179C94.3316 111.914 91.8096 130.799 91.5255 139.265C92.6573 133.897 93.6114 129.259 94.3316 125.589C100.192 95.727 110.798 35.7232 115.542 3.34905H120.287C113.589 58.7014 90.2415 192.849 63.911 290.809L63.3578 293.042L67.1708 293.879C70.899 278.577 74.4762 263.373 77.8654 248.109C94.3421 173.904 117.217 77.5863 125.868 3.34905H131.45L121.682 64.1901L217.409 47.4449C201.78 47.4449 176.534 49.7469 156.847 35.7232C136.474 21.2106 137.683 9.7088 135.637 3.34905H141.497C143.859 18.1641 155.638 30.7352 169.406 37.3977C191.454 45.0916 217.967 43.2586 236.945 44.5527L498.45 0L507.381 5.58175Z" fill="url(#paint1_linear_276_1691)"/>
<path d="M521.056 527.475L725.069 4.46539H734L528.871 527.475H521.056Z" fill="url(#paint2_linear_276_1691)"/>
<path d="M510.172 527.475L712.789 4.46539H720.883L517.986 527.475H510.172Z" fill="url(#paint3_linear_276_1691)"/>
<path d="M292.205 509.893L302.252 519.382L332.952 484.217L322.067 475.565L292.205 509.893Z" fill="url(#paint4_radial_276_1691)"/>
<path d="M343.278 491.194L327.928 476.96L337.975 465.518L353.604 479.472L343.278 491.194Z" fill="url(#paint5_radial_276_1691)"/>
<path d="M351.93 463.564L341.045 454.354L371.466 420.306L382.35 429.795L351.93 463.564Z" fill="url(#paint6_radial_276_1691)"/>
<path d="M393.514 435.935L378.443 422.818L388.769 410.817L403.84 424.213L393.514 435.935Z" fill="url(#paint7_radial_276_1691)"/>
<path d="M406.073 407.189L396.304 398.816L423.934 368.116L433.702 376.489L406.073 407.189Z" fill="url(#paint8_radial_276_1691)"/>
<path d="M454.634 383.745L435.656 366.721L446.261 355.278L464.96 372.024L454.634 383.745Z" fill="url(#paint9_radial_276_1691)"/>
<path d="M489.52 324.579L478.356 316.206L494.822 295.554L504.869 304.205L503.753 305.687L517.707 316.764L512.963 322.625L499.009 311.984L489.52 324.579Z" fill="url(#paint10_radial_276_1691)"/>
<path d="M522.173 316.206L514.638 325.974L529.15 337.975L516.87 367.558L529.15 372.024L544.779 334.068L522.173 316.206Z" fill="url(#paint11_radial_276_1691)"/>
<path d="M548.407 325.974L541.151 322.625L544.221 316.206L551.477 318.997L548.407 325.974Z" fill="url(#paint12_radial_276_1691)"/>
<path d="M511.568 306.159L502.916 300.298L506.544 294.158L515.475 299.461L511.568 306.159Z" fill="url(#paint13_radial_276_1691)"/>
<path d="M493.985 356.116L480.868 344.952L484.496 339.929L498.171 350.255L493.985 356.116Z" fill="url(#paint14_radial_276_1691)"/>
<path d="M464.96 346.627L458.82 353.046L449.052 343.836L454.634 337.975L464.96 346.627Z" fill="url(#paint15_radial_276_1691)"/>
<path d="M474.728 383.745L471.658 387.094L474.728 389.885L478.077 387.094L474.728 383.745Z" fill="url(#paint16_radial_276_1691)"/>
<path d="M494.543 392.955L488.961 398.816L500.404 409.421L506.265 402.444L494.543 392.955Z" fill="url(#paint17_radial_276_1691)"/>
<path d="M495.66 361.418C495.287 362.069 494.543 363.539 494.543 364.209L498.171 365.884L499.009 362.535L495.66 361.418Z" fill="url(#paint18_radial_276_1691)"/>
<path d="M463.285 412.491L449.052 429.795L447.657 438.446L469.146 457.983L459.099 469.146L429.795 442.354L439.005 421.53L431.749 415.561L444.866 398.816L463.285 412.491Z" fill="url(#paint19_radial_276_1691)"/>
<path d="M487.566 417.236L478.077 428.12L484.496 434.26C483.603 439.172 477.612 448.214 474.728 452.122L485.612 461.332L490.915 455.192L501.799 429.795L487.566 417.236Z" fill="url(#paint20_radial_276_1691)"/>
<path d="M487.566 465.518L474.728 455.192L460.495 471.1L462.448 473.053L460.495 475.007L469.146 482.542L470.542 480.868L473.333 481.984L487.566 465.518Z" fill="url(#paint21_radial_276_1691)"/>
<path d="M447.657 396.304L451.006 399.374L455.75 395.467L480.589 417.236L483.659 413.887L454.634 388.211L447.657 396.304Z" fill="url(#paint22_radial_276_1691)"/>
<path d="M419.748 463.564L423.655 466.634L427.562 461.89L454.076 483.379L456.866 480.03L427.562 455.192L419.748 463.564Z" fill="url(#paint23_radial_276_1691)"/>
<path d="M406.352 484.496L419.748 469.146L435.098 483.379L422.26 499.567L419.748 507.381L442.912 527.754L455.471 502.357L449.61 496.497L460.495 484.496L474.728 497.334L454.076 540.313L426.167 537.522L402.444 511.846L411.096 488.991L406.352 484.496Z" fill="url(#paint24_radial_276_1691)"/>
<path d="M308.113 439.842L305.043 443.191L301.694 439.842L305.043 437.051L308.113 439.842Z" fill="url(#paint25_radial_276_1691)"/>
<path d="M267.366 497.613L258.993 489.24L274.343 471.1L277.413 472.495L279.646 469.425L276.018 465.518L274.343 466.913L262.063 456.029L270.157 447.377L293.6 468.309L267.366 497.613Z" fill="url(#paint26_radial_276_1691)"/>
<path d="M253.691 489.24L249.504 492.868L260.11 502.078L264.017 498.171L253.691 489.24Z" fill="url(#paint27_radial_276_1691)"/>
<path d="M250.9 502.078L235.55 489.24L226.34 499.846L241.132 512.963L250.9 502.078Z" fill="url(#paint28_radial_276_1691)"/>
<path d="M247.272 431.469L239.457 429.237L241.411 424.213L248.667 426.725L247.272 431.469Z" fill="url(#paint29_radial_276_1691)"/>
<path d="M255.365 422.259L253.691 425.329L256.203 426.725L257.877 424.213L255.365 422.259Z" fill="url(#paint30_radial_276_1691)"/>
<path d="M226.34 403.002L225.224 408.305L234.992 411.096L236.387 405.793L226.34 403.002Z" fill="url(#paint31_radial_276_1691)"/>
<path d="M223.27 425.329L211.828 423.097L199.827 472.495L145.963 528.592H164.941L210.711 479.193L223.27 425.329Z" fill="url(#paint32_radial_276_1691)"/>
<path d="M148.754 497.613L135.916 495.659L140.939 473.891L151.266 476.003L155.731 455.192L166.336 457.728L168.011 447.935L164.104 447.377L164.941 441.237L169.406 442.354L172.197 432.586L185.035 435.935L179.174 459.936L168.569 458.262L164.104 478.356L151.266 476.003L153.219 476.402L148.754 497.613Z" fill="url(#paint33_radial_276_1691)"/>
<path d="M153.219 443.47L144.847 441.237L147.079 431.469L155.731 434.26L153.219 443.47Z" fill="url(#paint34_radial_276_1691)"/>
<path d="M215.456 419.748C215.735 419.003 216.293 417.403 216.293 416.957L219.363 417.515L218.247 420.585L215.456 419.748Z" fill="url(#paint35_radial_276_1691)"/>
<path d="M126.706 419.748L121.682 442.354L96.8436 435.935L96.0064 439.126L114.147 443.47L111.635 453.517L96.8436 449.889L97.6809 446.54L92.3782 444.865L93.355 441.795L80.3775 438.725L84.8429 422.818L98.962 426.167L101.867 412.77L126.706 419.748Z" fill="url(#paint36_radial_276_1691)"/>
<path d="M71.7258 444.865L65.5859 466.355L89.3083 473.332L96.0064 447.935L91.541 446.819L90.9828 449.052L71.7258 444.865Z" fill="url(#paint37_radial_276_1691)"/>
<path d="M56.6551 472.216L72.8421 477.24L66.9813 501.241L54.9805 498.729L54.1433 501.241L68.9349 504.869L62.2368 531.103L40.7471 526.359C40.7471 525.912 44.4682 512.405 46.3288 505.706L49.957 506.544L51.3524 503.753L48.5615 503.195L56.6551 472.216Z" fill="url(#paint38_radial_276_1691)"/>
<path d="M64.4695 531.662L69.4931 511.288L91.8201 517.428L87.6338 538.36L64.4695 531.662Z" fill="url(#paint39_radial_276_1691)"/>
<path d="M110.24 389.327L114.147 373.698L179.174 389.327L178.337 394.63L190.338 398.537V403.002L211.828 405.793L213.502 394.072L192.012 384.862L192.85 378.722L110.24 359.465L106.612 371.186L93.355 368.395L89.3083 384.024L110.24 389.327Z" fill="url(#paint40_radial_276_1691)"/>
<path d="M147.358 325.137L143.451 340.487L113.31 332.951L114.147 327.649L99.3554 324.021L108.286 287.739H109.403L110.24 282.995L124.473 286.902L116.659 316.485L147.358 325.137Z" fill="url(#paint41_radial_276_1691)"/>
<path d="M144.289 290.53L141.498 301.135L171.639 308.671L165.778 332.951L175.546 335.742L184.477 301.135L144.289 290.53Z" fill="url(#paint42_radial_276_1691)"/>
<path d="M196.199 295.275L188.384 293.6L190.059 286.065L197.594 288.018L196.199 295.275Z" fill="url(#paint43_radial_276_1691)"/>
<path d="M175.267 250.341L188.384 252.853L196.478 223.549L183.082 220.479L175.267 250.341Z" fill="url(#paint44_radial_276_1691)"/>
<path d="M251.458 200.106L245.597 203.176L240.574 193.966L246.993 190.896L251.458 200.106Z" fill="url(#paint45_radial_276_1691)"/>
<path d="M252.854 186.71L248.946 178.616L266.25 171.36L270.157 179.174L252.854 186.71Z" fill="url(#paint46_radial_276_1691)"/>
<path d="M241.69 180.011L240.574 176.662L244.202 175.825L245.318 179.174L241.69 180.011Z" fill="url(#paint47_radial_276_1691)"/>
<path d="M317.881 99.6342L326.533 98.5179L324.858 84.8426L315.927 86.238L317.881 99.6342Z" fill="url(#paint48_radial_276_1691)"/>
<path d="M471.937 63.3529L468.867 50.7939L483.659 47.4449L486.45 60.562L471.937 63.3529Z" fill="url(#paint49_radial_276_1691)"/>
<path d="M418.352 117.496L415.282 121.682L421.98 125.868L424.771 121.682L418.352 117.496Z" fill="url(#paint50_radial_276_1691)"/>
<path d="M433.423 219.084L423.655 205.129L431.749 199.548L441.796 213.502L433.423 219.084Z" fill="url(#paint51_radial_276_1691)"/>
<path d="M98.962 509.335L78.4239 503.753L79.8193 495.938L75.633 494.822L81.7729 473.891L90.1455 475.286L90.9828 473.332L116.659 478.356L116.101 483.379L128.101 495.659L108.007 514.358L104.658 509.335L101.588 511.846L98.962 509.335Z" fill="url(#paint52_radial_276_1691)"/>
<path d="M115.543 470.262L98.5182 466.076L102.425 454.075L111.635 455.192L113.31 454.075L120.566 445.703L133.125 449.052L131.45 454.633L115.543 470.262Z" fill="url(#paint53_radial_276_1691)"/>
<path d="M429.515 188.663L421.422 193.129C412.044 181.742 405.607 164.01 403.56 156.568L413.607 153.219L429.515 188.663Z" fill="#1A1A1A"/>
<path d="M412.491 150.707L403.56 154.335C399.318 151.21 390.443 124.566 386.536 111.635H383.466L381.512 99.076L398.816 97.9597C398.816 103.988 407.932 135.637 412.491 150.707Z" fill="#1A1A1A"/>
<path d="M378.442 71.7255L381.512 95.4479H397.141L393.234 73.4L378.442 71.7255Z" fill="#1A1A1A"/>
<path d="M392.117 64.4692L377.326 66.1437V69.2137L393.234 70.6091L392.117 64.4692Z" fill="#1A1A1A"/>
<path d="M399.374 75.6327L397.141 60.8411L406.909 60.2829C402.667 64.9716 404.211 70.237 405.514 72.2837L402.723 74.7954L399.374 75.6327Z" fill="#1A1A1A"/>
<path d="M408.025 75.6327L405.514 79.2608C407.746 82.1634 417.793 87.9126 422.538 90.4243L428.12 85.1217L417.793 77.0281C412.435 78.1445 409.049 76.563 408.025 75.6327Z" fill="#1A1A1A"/>
<path d="M443.19 104.379L425.608 93.4943L430.631 87.6335L446.26 99.9133L443.19 104.379Z" fill="#1A1A1A"/>
<path d="M405.514 104.937L400.49 83.1681L402.723 82.0517L444.865 110.519C443.302 111.858 438.632 120.938 436.492 125.31L405.514 104.937Z" fill="#1A1A1A"/>
<path d="M447.377 107.17L445.702 105.774L449.051 101.867L450.447 102.983L447.377 107.17Z" fill="#1A1A1A"/>
<path d="M452.679 105.216C450.223 107.002 445.702 115.263 443.749 119.17L459.098 126.985C459.322 125.199 463.843 118.612 466.076 115.542L452.679 105.216Z" fill="#1A1A1A"/>
<path d="M469.146 118.333C467.583 119.449 464.401 124.566 463.006 126.985L470.541 130.334C470.988 128.324 473.704 124.473 475.006 122.798L469.146 118.333Z" fill="#1A1A1A"/>
<path d="M490.914 108.844C485.779 111.747 479.844 116.938 477.518 119.17L472.215 114.705C474.355 112.379 480.253 106.667 486.728 102.425C493.203 98.183 501.892 95.2619 505.427 94.3316L506.822 102.425C503.659 103.355 496.05 105.942 490.914 108.844Z" fill="#1A1A1A"/>
<path d="M456.866 99.9133L469.146 111.914C472.96 108.751 481.481 101.755 485.054 99.076C488.626 96.3968 499.566 92.1919 504.59 90.4243L502.078 73.9582C497.985 74.7954 487.454 77.8096 478.076 83.1681C468.699 88.5265 460.029 96.5643 456.866 99.9133Z" fill="#1A1A1A"/>
<path d="M437.609 72.2837L432.864 77.5863L423.375 69.7719C423.561 68.7486 423.933 66.367 423.933 65.0274C423.933 63.6878 422.445 61.6783 421.701 60.8411L423.933 58.8875L437.609 72.2837Z" fill="#1A1A1A"/>
<path d="M440.958 75.6327C439.004 77.4003 435.097 80.9912 435.097 81.2145L450.726 94.6106L455.191 89.5871L440.958 75.6327Z" fill="#1A1A1A"/>
<path d="M458.819 93.4943C458.15 93.9408 455.563 96.8434 454.354 98.2388L452.958 96.8434C454.075 95.2805 456.587 93.2152 457.703 92.378L458.819 93.4943Z" fill="#1A1A1A"/>
<path d="M469.146 82.889C466.634 84.2844 461.331 88.7498 461.052 89.308L462.168 90.9825C462.615 89.8662 467.75 86.238 470.262 84.5635L469.146 82.889Z" fill="#1A1A1A"/>
<path d="M471.936 83.1681L470.82 81.7726C474.262 79.819 481.984 75.0745 485.054 73.6791C487.877 72.3956 496.589 69.3998 500.962 68.0973L501.241 69.7719C497.24 70.9812 488.514 73.7907 485.612 75.3536C482.709 76.9165 475.285 81.2145 471.936 83.1681Z" fill="#1A1A1A"/>
<path d="M499.287 57.492C499.752 59.8177 500.682 64.525 500.682 64.7483C494.17 66.888 480.365 71.6138 477.239 73.4C474.113 75.1862 463.099 83.8193 457.982 87.9126L453.796 82.889C457.517 79.3539 466.578 71.3348 473.053 67.5392C479.528 63.7436 493.24 59.2596 499.287 57.492Z" fill="#1A1A1A"/>
<path d="M430.911 51.3521L427.282 53.3057C429.292 55.0919 428.678 57.2129 428.12 58.0502L439.283 68.9346C440.307 68.5625 442.744 68.209 444.307 69.7719C445.87 71.3348 445.702 73.9582 445.423 75.0745L453.238 82.0517L456.866 77.8654L430.911 51.3521Z" fill="#1A1A1A"/>
<path d="M510.73 61.9574L509.613 55.8175C523.456 52.0219 541.615 54.9802 548.965 56.9338L553.151 44.9331H557.895L551.197 64.7483C548.685 63.818 541.318 61.8458 531.94 61.3992C522.563 60.9527 513.893 61.5853 510.73 61.9574Z" fill="#1A1A1A"/>
<path d="M514.916 89.308L512.125 71.4464C515.288 70.8882 523.233 69.7719 529.708 69.7719C536.182 69.7719 544.406 72.4697 548.127 73.4L542.266 91.8198C539.848 90.9825 533.95 89.1405 529.708 88.4707C525.465 87.8009 518.079 88.7498 514.916 89.308Z" fill="#1A1A1A"/>
<path d="M517.149 100.471L516.032 93.2152C518.823 92.657 525.242 92.378 529.149 92.657C532.935 92.9275 538.731 94.3316 541.15 95.1688L538.638 102.425C537.522 101.774 533.95 100.36 528.591 99.9133C523.233 99.4668 518.73 100.099 517.149 100.471Z" fill="#1A1A1A"/>
<path d="M544.778 96.0061L542.266 103.262C544.053 103.262 546.546 104.565 547.569 105.216L552.314 99.076C551.644 98.4062 547.011 96.7503 544.778 96.0061Z" fill="#1A1A1A"/>
<path d="M550.639 94.0525C549.299 93.3827 546.918 93.0292 545.895 92.9361L552.314 73.6791L563.198 77.5863C563.198 80.4888 564.873 83.075 565.71 84.0053L554.546 96.8434C553.802 96.1921 551.979 94.7223 550.639 94.0525Z" fill="#1A1A1A"/>
<path d="M553.709 68.6555L553.151 70.8882C556.277 70.2184 561.896 72.8418 564.314 74.2373V72.8418C561.635 70.3859 556.128 69.0276 553.709 68.6555Z" fill="#1A1A1A"/>
<path d="M550.081 67.5392L549.523 69.2137C544.685 68.2834 536.127 66.7019 530.545 66.7019C523.841 66.7019 516.497 67.1671 511.567 67.5392L511.288 65.8646C514.916 65.3065 525.521 64.7483 530.545 64.7483C537.522 64.7483 545.988 66.6089 550.081 67.5392Z" fill="#1A1A1A"/>
<path d="M560.407 46.3285L554.546 65.3065C556.686 65.7716 561.635 66.981 564.314 68.0973C566.994 69.2137 571.757 72.2837 573.803 73.6791L584.688 61.3992C583.013 58.8875 577.431 54.9802 573.803 52.4684C570.901 50.459 563.663 47.5379 560.407 46.3285Z" fill="#1A1A1A"/>
<path d="M605.898 72.8418L593.898 62.5156L607.294 47.724L619.016 57.7711L605.898 72.8418Z" fill="#1A1A1A"/>
<path d="M609.247 80.9354C609.471 83.1681 605.247 93.4013 603.108 98.2388L605.34 100.471L621.248 89.0289L609.247 80.9354Z" fill="#1A1A1A"/>
<path d="M578.827 121.961L572.408 126.427C577.99 134.018 581.246 143.916 582.176 147.916C582.846 145.46 586.176 141.869 587.758 140.381C587.107 138.148 585.469 133.013 584.13 130.334C582.79 127.655 580.036 123.636 578.827 121.961Z" fill="#1A1A1A"/>
<path d="M593.339 112.472L581.897 119.729C585.916 125.98 589.711 135.171 591.107 138.986C594.019 137.646 599.39 137.869 601.712 138.148L603.945 131.171C603.108 131.357 600.317 130.78 595.851 126.985C591.386 123.189 592.316 115.728 593.339 112.472Z" fill="#1A1A1A"/>
<path d="M583.292 163.266C583.739 166.838 581.618 174.988 580.501 178.616C582.064 179.732 586.176 180.756 588.037 181.128C588.93 179.118 590.083 172.662 590.549 169.685C587.869 168.569 584.595 164.941 583.292 163.266Z" fill="#1A1A1A"/>
<path d="M593.619 170.802L591.107 182.802L604.224 187.826C606.364 181.965 611.536 168.066 615.108 159.359C618.681 150.651 622.737 143.451 624.318 140.939L620.69 133.125C619.797 134.241 615.294 136.939 613.155 138.148L612.596 147.916C612.969 149.219 613.769 152.772 613.992 156.568C614.271 161.313 609.806 166.336 605.34 169.127C601.768 171.36 596.037 171.174 593.619 170.802Z" fill="#1A1A1A"/>
<path d="M609.247 131.729L610.922 134.799C612.969 133.776 616.783 132.567 620.132 127.822C622.786 124.062 623.202 117.217 622.644 114.426L619.574 116.1C619.574 117.775 619.183 121.961 617.62 125.31C616.057 128.659 611.387 130.985 609.247 131.729Z" fill="#1A1A1A"/>
<path d="M632.97 133.962C629.844 135.748 627.946 137.497 627.388 138.148C626.365 136.474 624.262 132.622 624.039 130.613C623.816 128.604 624.876 126.055 625.435 125.031C625.9 125.031 627.053 124.529 627.946 122.519C628.839 120.51 627.388 119.263 626.551 118.891L626.272 113.589C628.504 112.1 633.193 108.9 634.086 108.007C635.203 106.891 634.923 103.821 636.04 100.751C636.933 98.2946 643.482 85.5868 646.645 79.5399L667.019 100.192L660.879 119.729C652.878 123.729 636.096 132.176 632.97 133.962Z" fill="#1A1A1A"/>
<path d="M648.32 75.9118L668.414 96.0061L685.159 44.3749L663.669 43.8167C659.762 49.3985 658.52 51.6667 656.134 56.6548C653.842 61.4483 651.257 69.7695 648.32 75.9118Z" fill="#1A1A1A"/>
<path d="M627.946 67.2601C622.085 72.2837 623.202 84.5635 623.202 85.4008L614.55 78.9818C614.997 76.9723 614.364 75.3536 613.992 74.7954L621.527 63.6319L627.946 67.2601Z" fill="#1A1A1A"/>
<path d="M626.83 60.562L630.737 65.8646C632.97 62.5156 637.807 62.2365 639.947 62.5156L649.715 53.3057L638.552 42.7004L626.272 56.6548L626.83 60.562Z" fill="#1A1A1A"/>
<path d="M616.504 96.5643C612.708 100.36 610.085 107.077 609.247 109.96L614.55 114.426C617.434 113.216 624.151 109.737 627.946 105.495C631.742 101.253 632.877 92.7501 632.97 89.0289C629.063 89.9592 620.299 92.7687 616.504 96.5643Z" fill="#1A1A1A"/>
<path d="M629.621 148.475C627.835 151.154 621.62 168.383 618.736 176.662L639.389 187.826L658.646 137.869C639.389 135.637 631.854 145.125 629.621 148.475Z" fill="#1A1A1A"/>
<path d="M637.435 192.57L617.341 181.128L602.27 217.688L622.085 232.48L637.435 192.57Z" fill="#1A1A1A"/>
<path d="M619.574 236.108L601.433 221.875L579.664 276.297L601.712 284.669L619.574 236.108Z" fill="#1A1A1A"/>
<path d="M416.677 145.684C414.072 136.567 408.863 118.166 408.863 117.496L411.933 114.984L427.282 123.915L423.933 129.217C425.794 130.799 429.236 135.302 428.12 140.66C427.003 146.019 420.026 146.242 416.677 145.684Z" fill="#1A1A1A"/>
<path d="M432.027 179.174C428.492 170.895 421.422 154.112 421.422 153.219C424.101 146.967 430.725 148.94 433.701 150.707L435.376 178.337L432.027 179.174Z" fill="#1A1A1A"/>
<path d="M430.911 191.454L423.096 196.478C429.794 217.688 459.191 246.62 473.053 258.435L478.635 252.853C472.402 245.783 458.54 229.968 452.958 223.27C447.377 216.572 435.934 199.268 430.911 191.454Z" fill="#1A1A1A"/>
<path d="M481.146 253.411L475.006 259.83L476.402 260.947C477.239 260.947 479.751 260.668 481.146 259.272C482.263 258.156 482.542 256.202 482.542 255.365L481.146 253.411Z" fill="#1A1A1A"/>
<path d="M479.193 243.643L472.215 236.945L473.89 234.992L481.146 241.411L479.193 243.643Z" fill="#1A1A1A"/>
<path d="M483.1 238.899L476.123 231.643L493.984 209.595L499.287 212.944L483.1 231.643L486.449 235.55L483.1 238.899Z" fill="#1A1A1A"/>
<path d="M489.519 238.062L486.449 241.132L499.287 252.574L520.219 228.014L517.428 225.503L514.358 229.131L510.45 225.503L495.659 242.806L489.519 238.062Z" fill="#1A1A1A"/>
<path d="M496.775 254.807C496.775 254.36 488.03 246.992 483.937 243.643L481.984 246.155L494.263 258.435C495.101 257.412 496.775 255.253 496.775 254.807Z" fill="#1A1A1A"/>
<path d="M500.682 262.621L497.333 260.11L522.73 229.968L525.8 232.48L500.682 262.621Z" fill="#1A1A1A"/>
<path d="M528.312 234.433L503.752 264.296L507.66 267.366L531.94 237.503L528.312 234.433Z" fill="#1A1A1A"/>
<path d="M530.824 231.364L534.173 234.433L548.965 216.851L546.174 214.339L530.824 231.364Z" fill="#1A1A1A"/>
<path d="M524.963 226.898L528.312 229.41C532.591 224.572 541.206 214.842 541.429 214.618C541.652 214.395 539.476 212.293 538.359 211.269L524.963 226.898Z" fill="#1A1A1A"/>
<path d="M519.66 222.154L522.73 224.665L534.173 212.106L531.661 210.432L519.66 222.154Z" fill="#1A1A1A"/>
<path d="M562.361 216.014L558.454 209.874C562.472 208.757 565.524 204.013 566.547 201.78L570.733 205.967C570.287 207.083 570.175 209.409 570.175 210.432L562.361 216.014Z" fill="#1A1A1A"/>
<path d="M560.128 217.688L553.988 210.432L550.081 212.944L557.895 219.642C559.458 219.865 560.035 218.432 560.128 217.688Z" fill="#1A1A1A"/>
<path d="M570.733 214.339C566.547 217.688 560.965 221.316 560.965 221.875L570.733 229.968L552.593 272.668L569.059 279.087L591.386 221.875L585.804 217.688C585.153 218.712 582.79 220.647 578.548 220.2C574.306 219.753 571.571 216.107 570.733 214.339Z" fill="#1A1A1A"/>
<path d="M567.663 282.716L550.918 276.297L544.22 291.088L561.523 297.786L567.663 282.716Z" fill="#1A1A1A"/>
<path d="M569.338 199.268L573.524 202.617C575.087 201.278 577.525 200.757 578.548 200.664L583.571 191.175L576.594 188.384C576.594 189.724 571.757 196.198 569.338 199.268Z" fill="#1A1A1A"/>
<path d="M586.641 192.291L582.455 200.943C584.316 201.501 588.204 203.287 588.874 205.967C589.544 208.646 589.153 213.223 588.874 215.176L592.223 217.688L600.038 197.873L586.641 192.291Z" fill="#1A1A1A"/>
<path d="M520.777 266.808L515.474 273.785L535.568 285.506L539.755 277.971L520.777 266.808Z" fill="#1A1A1A"/>
<path d="M405.793 353.046L400.769 349.138L414.165 332.672L419.747 337.417L405.793 353.046Z" fill="#1A1A1A"/>
<path d="M441.795 307.275L429.236 296.112L445.144 286.065L452.4 294.437L441.795 307.275Z" fill="#1A1A1A"/>
<path d="M507.939 327.091L497.612 318.718L496.217 317.322L499.566 313.694L510.171 322.904L507.939 327.091Z" fill="#1A1A1A"/>
<path d="M490.356 326.532L495.38 320.671V318.718L488.961 325.695L490.356 326.532Z" fill="#1A1A1A"/>
<path d="M356.115 348.022L340.765 332.672L345.789 329.602L359.743 343.278L356.115 348.022Z" fill="#1A1A1A"/>
<path d="M300.856 265.691L288.297 255.365L304.205 245.876L311.74 255.923L300.856 265.691Z" fill="#1A1A1A"/>
<path d="M324.299 171.918L345.231 212.665L349.138 207.362L329.323 170.522L324.299 171.918Z" fill="#1A1A1A"/>
<path d="M321.229 161.592C319.741 155.545 316.708 142.893 316.485 140.66L321.229 139.823L326.811 159.638L321.229 161.592Z" fill="#1A1A1A"/>
<path d="M386.536 164.103C380.284 152.047 374.256 131.543 372.023 122.798L375.651 118.333C379.279 138.706 388.21 153.219 390.722 161.592C392.731 168.29 404.955 187.64 410.816 196.478L408.025 202.338C403.467 194.617 392.787 176.16 386.536 164.103Z" fill="#1A1A1A"/>
<path d="M356.952 198.989L354.441 195.64L367.837 189.221L370.628 193.129L356.952 198.989Z" fill="#1A1A1A"/>
<path d="M330.718 144.846L328.485 139.823L348.301 135.078L349.975 139.823L330.718 144.846Z" fill="#1A1A1A"/>
<path d="M327.927 100.192C326.997 95.82 325.136 86.852 325.136 85.9589H328.485L332.114 100.192H327.927Z" fill="#1A1A1A"/>
<path d="M340.486 77.5863L339.091 69.7719L354.999 67.5392L356.673 75.6327L340.486 77.5863Z" fill="#1A1A1A"/>
<path d="M326.811 80.0981L315.647 82.0517L314.531 72.2837L325.136 71.1673L326.811 80.0981Z" fill="#1A1A1A"/>
<path d="M421.701 55.2593C420.956 56.1896 419.412 58.0502 419.189 58.0502L412.491 56.6548L419.189 54.143L421.701 55.2593Z" fill="#1A1A1A"/>
<path d="M584.13 54.9802L563.198 44.3749L572.408 25.9551C582.009 27.518 595.944 37.2117 601.712 41.8631L588.874 55.8175L584.13 54.9802Z" fill="#1A1A1A"/>
<path d="M555.104 396.862L544.22 408.305L547.29 392.676L555.104 396.862Z" fill="#1A1A1A"/>
<path d="M479.193 505.706C474.82 511.66 465.908 524.015 465.238 525.801H475.006L488.961 512.125L479.193 505.706Z" fill="#1A1A1A"/>
<path d="M630.737 83.4472L626.83 84.8426C626.272 83.7262 626.272 82.6099 626.272 78.9818C626.272 76.0792 627.946 73.6791 628.784 72.8418L631.295 76.47C629.509 77.1398 630.179 81.4005 630.737 83.4472Z" fill="#1A1A1A"/>
<circle cx="598.084" cy="154.335" r="12.5589" fill="#1A1A1A"/>
<circle cx="606.178" cy="117.775" r="9.48897" fill="#1A1A1A"/>
<circle cx="640.226" cy="80.9354" r="3.34905" fill="#1A1A1A"/>
<circle cx="413.887" cy="67.26" r="4.74449" fill="#1A1A1A"/>
<path d="M589.159 364.374L588.633 365.747L581.953 363.186L584.334 356.976L591.014 359.537L590.487 360.91L585.023 358.815L583.695 362.279L589.159 364.374ZM586.237 351.622C586.594 350.69 587.229 350.038 588.14 349.668C589.046 349.286 589.992 349.284 590.977 349.661C591.962 350.039 592.663 350.673 593.082 351.563C593.503 352.444 593.535 353.351 593.178 354.283C592.797 355.277 592.118 355.926 591.142 356.232L594.749 357.615L594.223 358.987L584.929 355.424L585.455 354.051L586.449 354.432C585.926 353.552 585.856 352.616 586.237 351.622ZM591.815 354.046C592.045 353.444 592.028 352.863 591.764 352.302C591.502 351.732 591.058 351.327 590.43 351.086C589.794 350.842 589.189 350.845 588.613 351.094C588.041 351.334 587.64 351.755 587.409 352.357C587.175 352.967 587.189 353.557 587.45 354.127C587.715 354.688 588.165 355.091 588.802 355.334C589.429 355.575 590.029 355.575 590.601 355.335C591.176 355.085 591.581 354.656 591.815 354.046ZM594.203 348.637C593.28 349.062 592.327 349.087 591.342 348.709C590.357 348.331 589.664 347.676 589.262 346.742C588.852 345.805 588.839 344.835 589.223 343.833C589.607 342.831 590.265 342.119 591.197 341.696C592.12 341.27 593.073 341.246 594.058 341.624C595.043 342.001 595.736 342.657 596.138 343.591C596.54 344.524 596.548 345.492 596.164 346.495C595.78 347.497 595.126 348.211 594.203 348.637ZM590.55 346.081C590.811 346.651 591.256 347.057 591.883 347.297C592.511 347.538 593.112 347.533 593.687 347.284C594.263 347.035 594.666 346.61 594.896 346.008C595.13 345.398 595.115 344.813 594.85 344.252C594.589 343.682 594.144 343.276 593.517 343.036C592.881 342.792 592.275 342.794 591.7 343.044C591.128 343.284 590.725 343.709 590.491 344.319C590.26 344.921 590.28 345.508 590.55 346.081ZM597.287 340.594C596.364 341.02 595.41 341.044 594.425 340.667C593.441 340.289 592.747 339.633 592.346 338.7C591.935 337.763 591.922 336.793 592.306 335.791C592.584 335.068 593.018 334.494 593.61 334.072C594.205 333.64 594.882 333.415 595.639 333.395L595.584 334.828C595.125 334.852 594.717 334.991 594.36 335.244C594.003 335.497 593.741 335.841 593.574 336.277C593.344 336.878 593.363 337.466 593.633 338.039C593.895 338.609 594.339 339.014 594.967 339.255C595.594 339.495 596.195 339.491 596.771 339.242C597.346 338.993 597.749 338.567 597.98 337.966C598.147 337.53 598.186 337.101 598.099 336.677C598.006 336.242 597.791 335.864 597.453 335.545L598.371 334.443C598.921 334.963 599.273 335.583 599.427 336.302C599.585 337.012 599.525 337.729 599.248 338.452C598.863 339.454 598.21 340.168 597.287 340.594ZM601.336 332.613L600.81 333.985L594.13 331.424L596.511 325.215L603.191 327.776L602.665 329.149L597.2 327.054L595.872 330.518L601.336 332.613ZM598.208 320.397C598.619 319.325 599.337 318.6 600.361 318.223C601.385 317.846 602.419 317.928 603.461 318.467L601.341 323.997C601.918 324.108 602.454 324.029 602.947 323.758C603.432 323.484 603.783 323.064 604 322.498C604.167 322.062 604.211 321.634 604.133 321.214C604.048 320.782 603.86 320.4 603.567 320.068L604.518 319.113C604.971 319.626 605.262 320.223 605.392 320.902C605.521 321.581 605.449 322.278 605.175 322.993C604.79 323.995 604.137 324.709 603.214 325.135C602.291 325.561 601.337 325.585 600.352 325.207C599.368 324.83 598.671 324.183 598.263 323.266C597.849 322.338 597.831 321.382 598.208 320.397ZM599.398 320.853C599.204 321.358 599.192 321.859 599.362 322.354C599.527 322.837 599.834 323.234 600.284 323.547L601.858 319.442C601.318 319.365 600.823 319.455 600.375 319.713C599.921 319.959 599.595 320.339 599.398 320.853ZM602.526 309.527L604.84 313.188L609.286 311.879L608.649 313.539L605.085 314.662L604.639 315.825L607.371 316.873L606.845 318.245L600.165 315.684L600.691 314.312L603.423 315.359L603.87 314.196L601.949 311.03L602.526 309.527ZM610.848 307.805L610.322 309.177L604.858 307.082L603.975 309.383L602.76 308.917L605.045 302.956L606.261 303.422L605.384 305.71L610.848 307.805ZM607.34 289.58L610.613 294.418L616.591 292.827L615.919 294.578L610.877 295.959L610.255 297.579L614.19 299.088L613.634 300.539L604.483 297.031L605.039 295.58L608.974 297.088L609.596 295.467L606.723 291.188L607.34 289.58ZM611.101 286.77C611.408 285.968 611.868 285.395 612.48 285.05C613.092 284.705 613.79 284.683 614.575 284.983L618.954 286.662L618.428 288.035L617.434 287.654C617.973 288.49 618.051 289.41 617.666 290.412C617.422 291.048 617.054 291.501 616.56 291.772C616.067 292.042 615.536 292.069 614.97 291.852C614.316 291.601 613.917 291.183 613.772 290.598C613.618 290.009 613.638 289.342 613.834 288.598L614.199 287.253C614.343 286.749 614.218 286.421 613.826 286.271C613.504 286.147 613.198 286.175 612.91 286.354C612.624 286.525 612.405 286.81 612.251 287.211C612.094 287.621 612.065 288.009 612.164 288.377C612.266 288.736 612.503 289.032 612.874 289.264L612.026 290.498C611.445 290.136 611.073 289.618 610.911 288.946C610.74 288.271 610.804 287.546 611.101 286.77ZM616.67 289.685C616.888 289.119 616.884 288.568 616.66 288.032C616.427 287.493 616.057 287.126 615.552 286.932L615.29 286.832C615.352 286.985 615.329 287.267 615.222 287.675L614.893 289.004C614.809 289.351 614.808 289.656 614.888 289.916C614.962 290.165 615.13 290.339 615.392 290.439C615.653 290.54 615.899 290.524 616.129 290.392C616.363 290.252 616.543 290.016 616.67 289.685ZM614.357 279.061C614.704 278.154 615.31 277.527 616.173 277.178C617.031 276.817 617.917 276.812 618.833 277.163C619.809 277.537 620.496 278.181 620.896 279.094C621.287 280.003 621.292 280.955 620.911 281.948C620.524 282.959 619.866 283.672 618.937 284.085C618.004 284.487 616.97 284.471 615.837 284.036C614.399 283.485 613.32 282.871 612.6 282.195C611.883 281.511 611.487 280.719 611.411 279.821C611.363 279.242 611.458 278.459 611.697 277.471C611.931 276.471 612.075 275.692 612.129 275.133L613.384 275.614C613.357 276.023 613.232 276.7 613.01 277.645C612.791 278.58 612.699 279.24 612.732 279.622C612.804 280.45 613.396 281.176 614.505 281.801C614.039 280.933 613.989 280.019 614.357 279.061ZM618.489 282.714C619.031 282.472 619.416 282.055 619.643 281.462C619.87 280.87 619.863 280.302 619.621 279.76C619.371 279.214 618.954 278.829 618.37 278.605C617.777 278.378 617.209 278.385 616.667 278.627C616.116 278.865 615.727 279.281 615.499 279.873C615.272 280.466 615.284 281.035 615.534 281.581C615.776 282.124 616.193 282.509 616.786 282.736C617.37 282.96 617.937 282.952 618.489 282.714ZM616.852 271.77C617.159 270.969 617.619 270.395 618.231 270.05C618.843 269.705 619.541 269.683 620.326 269.984L624.705 271.662L624.179 273.035L623.185 272.654C623.724 273.491 623.801 274.41 623.417 275.412C623.173 276.048 622.805 276.502 622.311 276.772C621.817 277.043 621.287 277.069 620.721 276.852C620.067 276.602 619.668 276.184 619.523 275.598C619.368 275.009 619.389 274.342 619.585 273.598L619.95 272.254C620.094 271.749 619.969 271.421 619.577 271.271C619.255 271.147 618.949 271.175 618.661 271.354C618.375 271.525 618.156 271.81 618.002 272.211C617.845 272.621 617.816 273.01 617.915 273.377C618.017 273.736 618.254 274.032 618.625 274.264L617.776 275.498C617.196 275.136 616.824 274.619 616.662 273.947C616.491 273.271 616.554 272.546 616.852 271.77ZM622.421 274.685C622.639 274.119 622.635 273.568 622.411 273.032C622.177 272.493 621.808 272.126 621.303 271.932L621.041 271.832C621.102 271.986 621.08 272.267 620.973 272.676L620.644 274.004C620.56 274.352 620.558 274.656 620.639 274.916C620.713 275.165 620.881 275.339 621.143 275.44C621.404 275.54 621.65 275.524 621.88 275.393C622.114 275.252 622.294 275.017 622.421 274.685ZM625.799 268.809L625.272 270.182L618.593 267.621L619.119 266.248L621.851 267.296L623.229 263.701L620.497 262.654L621.023 261.281L627.703 263.842L627.177 265.215L624.445 264.167L623.067 267.762L625.799 268.809ZM623.171 256.069C623.519 255.163 624.124 254.536 624.988 254.187C625.846 253.826 626.732 253.821 627.647 254.172C628.623 254.546 629.311 255.19 629.711 256.103C630.102 257.012 630.107 257.964 629.726 258.957C629.338 259.968 628.68 260.68 627.752 261.094C626.818 261.496 625.785 261.48 624.652 261.045C623.214 260.494 622.135 259.88 621.415 259.204C620.698 258.52 620.302 257.728 620.226 256.829C620.178 256.251 620.273 255.468 620.512 254.48C620.746 253.48 620.89 252.701 620.944 252.142L622.199 252.623C622.172 253.032 622.047 253.709 621.825 254.654C621.606 255.589 621.513 256.248 621.547 256.631C621.619 257.458 622.21 258.185 623.32 258.81C622.853 257.942 622.804 257.028 623.171 256.069ZM627.303 259.723C627.846 259.481 628.231 259.064 628.458 258.471C628.685 257.878 628.678 257.311 628.436 256.768C628.186 256.223 627.768 255.838 627.184 255.614C626.592 255.387 626.024 255.394 625.482 255.636C624.931 255.874 624.541 256.29 624.314 256.882C624.087 257.475 624.099 258.044 624.349 258.59C624.591 259.133 625.008 259.517 625.601 259.745C626.185 259.968 626.752 259.961 627.303 259.723ZM625.667 248.779C625.974 247.977 626.434 247.404 627.046 247.059C627.658 246.714 628.356 246.692 629.141 246.992L633.52 248.671L632.993 250.044L632 249.663C632.539 250.499 632.616 251.419 632.232 252.421C631.988 253.057 631.619 253.51 631.126 253.781C630.632 254.052 630.102 254.078 629.536 253.861C628.882 253.61 628.483 253.192 628.337 252.607C628.183 252.018 628.204 251.351 628.4 250.607L628.765 249.262C628.909 248.758 628.784 248.43 628.392 248.28C628.07 248.156 627.764 248.184 627.475 248.363C627.19 248.534 626.971 248.819 626.817 249.22C626.66 249.63 626.631 250.018 626.73 250.386C626.832 250.745 627.069 251.041 627.439 251.273L626.591 252.507C626.011 252.145 625.639 251.627 625.477 250.955C625.306 250.28 625.369 249.555 625.667 248.779ZM631.236 251.694C631.453 251.128 631.45 250.577 631.225 250.041C630.992 249.502 630.623 249.135 630.118 248.941L629.856 248.841C629.917 248.994 629.894 249.276 629.788 249.684L629.458 251.013C629.375 251.36 629.373 251.665 629.453 251.925C629.528 252.174 629.696 252.348 629.957 252.448C630.219 252.549 630.465 252.533 630.695 252.401C630.929 252.261 631.109 252.025 631.236 251.694ZM627.798 239.427C628.029 239.945 628.029 240.505 627.799 241.106C627.568 241.708 627.194 242.124 626.675 242.355C626.148 242.583 625.567 242.575 624.93 242.331L625.361 241.206C625.71 241.34 626.015 241.367 626.275 241.287C626.536 241.207 626.721 241.023 626.831 240.736C626.945 240.439 626.932 240.174 626.791 239.94C626.651 239.707 626.407 239.523 626.058 239.389L626.484 238.278C627.12 238.522 627.558 238.905 627.798 239.427ZM632.64 245.062L629.352 239.558L629.868 238.211L636.548 240.772L636.022 242.145L631.316 240.341L634.599 245.858L634.087 247.191L627.407 244.63L627.934 243.257L632.64 245.062ZM640.062 231.607L638.644 235.306L629.493 231.798L631.769 225.863L633.063 226.359L631.344 230.843L633.723 231.755L634.585 229.507C634.933 228.6 635.47 227.967 636.198 227.606C636.918 227.242 637.674 227.212 638.467 227.516C639.26 227.82 639.811 228.351 640.12 229.11C640.429 229.868 640.41 230.7 640.062 231.607ZM635.004 232.246L637.906 233.359L638.768 231.11C638.949 230.64 638.957 230.213 638.794 229.831C638.625 229.436 638.332 229.159 637.914 228.998C637.495 228.838 637.096 228.85 636.716 229.034C636.33 229.206 636.047 229.527 635.866 229.998L635.004 232.246ZM635.964 221.92C636.272 221.118 636.732 220.545 637.344 220.2C637.956 219.855 638.654 219.832 639.438 220.133L643.818 221.812L643.291 223.185L642.298 222.804C642.837 223.64 642.914 224.559 642.53 225.562C642.286 226.198 641.917 226.651 641.424 226.922C640.93 227.192 640.4 227.219 639.834 227.002C639.18 226.751 638.781 226.333 638.635 225.748C638.481 225.159 638.502 224.492 638.697 223.747L639.063 222.403C639.206 221.898 639.082 221.571 638.69 221.421C638.367 221.297 638.062 221.325 637.773 221.504C637.488 221.674 637.269 221.96 637.115 222.361C636.958 222.771 636.929 223.159 637.028 223.527C637.13 223.886 637.366 224.182 637.737 224.414L636.889 225.648C636.308 225.285 635.937 224.768 635.775 224.096C635.604 223.421 635.667 222.696 635.964 221.92ZM641.534 224.835C641.751 224.269 641.748 223.717 641.523 223.182C641.29 222.642 640.921 222.276 640.415 222.082L640.154 221.982C640.215 222.135 640.192 222.416 640.086 222.825L639.756 224.153C639.673 224.501 639.671 224.805 639.751 225.066C639.826 225.315 639.994 225.489 640.255 225.589C640.517 225.689 640.763 225.674 640.993 225.542C641.227 225.402 641.407 225.166 641.534 224.835ZM645.51 217.397L644.984 218.77L639.52 216.675L638.638 218.976L637.422 218.51L639.707 212.549L640.923 213.015L640.046 215.302L645.51 217.397ZM647.991 210.927L646.793 214.051L640.113 211.49L640.64 210.117L642.744 210.924L643.416 209.173C643.703 208.423 644.147 207.904 644.748 207.614C645.352 207.316 645.99 207.296 646.661 207.553C647.332 207.81 647.792 208.252 648.042 208.877C648.295 209.494 648.278 210.177 647.991 210.927ZM649.72 206.417L649.194 207.789L642.514 205.228L643.04 203.856L649.72 206.417ZM643.96 211.39L646.104 212.212L646.72 210.604C646.861 210.238 646.874 209.904 646.76 209.6C646.647 209.297 646.433 209.085 646.119 208.965C645.806 208.844 645.505 208.859 645.218 209.009C644.93 209.159 644.717 209.416 644.576 209.782L643.96 211.39ZM644.94 198.509C645.298 197.577 645.932 196.926 646.844 196.555C647.75 196.173 648.695 196.171 649.68 196.548C650.665 196.926 651.367 197.56 651.785 198.45C652.207 199.331 652.239 200.238 651.881 201.171C651.5 202.164 650.822 202.814 649.845 203.119L653.453 204.502L652.927 205.875L643.632 202.311L644.159 200.939L645.152 201.32C644.63 200.44 644.559 199.503 644.94 198.509ZM650.518 200.933C650.749 200.332 650.732 199.75 650.467 199.189C650.206 198.619 649.761 198.214 649.134 197.973C648.498 197.729 647.892 197.732 647.317 197.981C646.745 198.222 646.343 198.643 646.113 199.244C645.879 199.854 645.893 200.444 646.154 201.014C646.419 201.575 646.869 201.978 647.505 202.222C648.133 202.462 648.732 202.462 649.304 202.222C649.88 201.973 650.284 201.543 650.518 200.933Z" fill="white"/>
<path d="M55.2594 350.383L54.9486 351.82L47.9563 350.307L49.3624 343.808L56.3547 345.32L56.0438 346.757L50.3242 345.52L49.5397 349.146L55.2594 350.383ZM50.4267 338.226C50.6379 337.25 51.1657 336.509 52.0102 336.005C52.8476 335.489 53.7817 335.342 54.8125 335.565C55.8433 335.788 56.6333 336.308 57.1826 337.124C57.7338 337.93 57.9038 338.822 57.6926 339.798C57.4676 340.838 56.8958 341.583 55.9771 342.034L59.7537 342.851L59.4429 344.287L49.714 342.183L50.0248 340.746L51.0647 340.971C50.4144 340.181 50.2017 339.266 50.4267 338.226ZM56.3091 339.771C56.4453 339.141 56.3398 338.569 55.9927 338.055C55.6476 337.532 55.1466 337.199 54.4898 337.057C53.8239 336.913 53.2256 337.008 52.695 337.342C52.1663 337.666 51.8339 338.144 51.6978 338.773C51.5596 339.412 51.6631 339.993 52.0082 340.516C52.3553 341.031 52.8618 341.36 53.5277 341.504C54.1846 341.646 54.7773 341.554 55.3059 341.23C55.8366 340.896 56.1709 340.409 56.3091 339.771ZM57.8452 334.061C56.998 334.622 56.0589 334.792 55.0281 334.569C53.9973 334.346 53.2122 333.803 52.6728 332.942C52.1244 332.078 51.9636 331.122 52.1905 330.073C52.4175 329.024 52.9591 328.219 53.8155 327.66C54.6627 327.098 55.6017 326.929 56.6326 327.152C57.6634 327.375 58.4485 327.917 58.9878 328.779C59.5272 329.64 59.6834 330.596 59.4565 331.645C59.2295 332.694 58.6924 333.499 57.8452 334.061ZM53.8449 332.092C54.1901 332.616 54.691 332.949 55.3478 333.091C56.0046 333.233 56.5983 333.137 57.129 332.803C57.6596 332.469 57.993 331.987 58.1292 331.358C58.2673 330.719 58.1628 330.143 57.8157 329.628C57.4706 329.105 56.9697 328.772 56.3129 328.63C55.6469 328.486 55.0487 328.581 54.518 328.915C53.9894 329.24 53.656 329.721 53.5178 330.36C53.3817 330.989 53.4907 331.567 53.8449 332.092ZM59.6664 325.642C58.8192 326.204 57.8802 326.373 56.8494 326.15C55.8185 325.927 55.0335 325.385 54.4941 324.523C53.9456 323.66 53.7848 322.703 54.0118 321.654C54.1756 320.897 54.5178 320.265 55.0383 319.756C55.5608 319.239 56.1947 318.913 56.9401 318.778L57.1045 320.203C56.6545 320.297 56.2725 320.496 55.9583 320.801C55.6442 321.105 55.4378 321.485 55.3391 321.941C55.2029 322.571 55.3119 323.148 55.6662 323.674C56.0113 324.197 56.5123 324.53 57.1691 324.672C57.8259 324.814 58.4196 324.718 58.9502 324.384C59.4808 324.05 59.8142 323.569 59.9504 322.939C60.0491 322.483 60.0229 322.052 59.8718 321.647C59.7135 321.231 59.4434 320.891 59.0612 320.627L59.7999 319.397C60.4229 319.828 60.8654 320.387 61.1274 321.074C61.3914 321.752 61.4415 322.469 61.2777 323.226C61.0508 324.275 60.5137 325.081 59.6664 325.642ZM62.4519 317.137L62.141 318.573L55.1488 317.061L56.5549 310.561L63.5472 312.074L63.2363 313.511L57.5167 312.273L56.7322 315.899L62.4519 317.137ZM57.4978 305.54C57.7406 304.418 58.3393 303.593 59.294 303.064C60.2488 302.536 61.2824 302.458 62.3951 302.833L61.1429 308.621C61.7302 308.643 62.2471 308.483 62.6937 308.14C63.1311 307.795 63.414 307.326 63.5422 306.734C63.6409 306.277 63.6193 305.848 63.4773 305.445C63.3282 305.03 63.0838 304.682 62.744 304.398L63.5382 303.309C64.0641 303.748 64.4427 304.293 64.6741 304.944C64.9056 305.596 64.9404 306.296 64.7786 307.044C64.5516 308.093 64.0145 308.898 63.1673 309.46C62.3201 310.021 61.381 310.191 60.3502 309.968C59.3194 309.745 58.5323 309.212 57.989 308.368C57.4386 307.514 57.2748 306.571 57.4978 305.54ZM58.743 305.81C58.6286 306.339 58.6931 306.835 58.9367 307.298C59.173 307.751 59.5374 308.097 60.0298 308.337L60.9593 304.04C60.4136 304.047 59.9388 304.211 59.5346 304.534C59.1233 304.846 58.8595 305.272 58.743 305.81ZM60.1075 294.14L62.9534 297.405L67.1471 295.433L66.7712 297.171L63.4199 298.824L63.1565 300.042L66.0163 300.66L65.7055 302.097L58.7132 300.584L59.0241 299.148L61.8839 299.766L62.1474 298.549L59.7671 295.713L60.1075 294.14ZM68.0698 291.168L67.759 292.605L62.0393 291.368L61.5183 293.776L60.2457 293.501L61.5956 287.261L62.8682 287.536L62.3501 289.931L68.0698 291.168ZM70.5647 279.636L70.2391 281.141L62.0153 279.362L61.3463 282.454L59.9917 282.161L61.6553 274.471L63.01 274.764L62.341 277.857L70.5647 279.636ZM70.493 273.015L65.4023 269.665L65.7191 268.201L74.5836 274.301L74.2669 275.765L71.936 274.158L64.1324 275.535L64.4698 273.975L70.493 273.015ZM66.604 263.448C66.8152 262.472 67.343 261.731 68.1876 261.227C69.0249 260.711 69.959 260.564 70.9898 260.787C72.0206 261.01 72.8107 261.53 73.3599 262.346C73.9111 263.152 74.0811 264.044 73.87 265.02C73.645 266.06 73.0731 266.805 72.1544 267.256L75.931 268.073L75.6202 269.51L65.8913 267.405L66.2021 265.968L67.2421 266.193C66.5917 265.403 66.3791 264.488 66.604 263.448ZM72.4864 264.993C72.6226 264.363 72.5171 263.791 72.17 263.277C71.8249 262.754 71.324 262.421 70.6672 262.279C70.0012 262.135 69.403 262.23 68.8723 262.564C68.3437 262.889 68.0113 263.366 67.8751 263.995C67.737 264.634 67.8404 265.215 68.1856 265.738C68.5326 266.253 69.0391 266.582 69.7051 266.726C70.3619 266.868 70.9546 266.777 71.4833 266.452C72.0139 266.118 72.3483 265.631 72.4864 264.993ZM68.261 255.789C68.4425 254.95 68.8095 254.313 69.3618 253.879C69.9141 253.444 70.6008 253.316 71.4218 253.494L76.0058 254.485L75.6949 255.922L74.655 255.697C75.3152 256.441 75.5318 257.338 75.3049 258.387C75.1608 259.053 74.8655 259.558 74.4189 259.9C73.9724 260.243 73.4526 260.35 72.8597 260.222C72.1755 260.074 71.717 259.721 71.484 259.165C71.242 258.607 71.1608 257.944 71.2405 257.179L71.3968 255.794C71.4617 255.274 71.2889 254.969 70.8784 254.88C70.5408 254.807 70.2431 254.881 69.9852 255.102C69.7292 255.314 69.5559 255.63 69.4651 256.05C69.3723 256.478 69.4029 256.867 69.5567 257.215C69.7125 257.555 69.9913 257.811 70.3932 257.984L69.7432 259.333C69.114 259.063 68.6681 258.608 68.4053 257.969C68.1334 257.328 68.0853 256.601 68.261 255.789ZM74.2098 257.821C74.3381 257.228 74.2505 256.684 73.9471 256.188C73.6345 255.691 73.2137 255.385 72.6846 255.271L72.4109 255.212C72.4947 255.354 72.515 255.635 72.4718 256.056L72.3489 257.418C72.3195 257.775 72.3642 258.076 72.483 258.321C72.5947 258.555 72.7874 258.702 73.061 258.761C73.3347 258.821 73.5753 258.768 73.783 258.602C73.9926 258.428 74.1348 258.168 74.2098 257.821ZM76.6518 251.499L76.341 252.936L69.3488 251.423L69.6596 249.986L72.5194 250.605L73.3335 246.842L70.4737 246.223L70.7845 244.786L77.7767 246.299L77.4659 247.736L74.6061 247.117L73.792 250.88L76.6518 251.499Z" fill="white"/>
<path d="M232.79 53.4205L223.405 54.9318L222.268 47.8687L223.719 47.635L224.65 53.4126L227.165 53.0075L226.235 47.23L227.686 46.9963L228.616 52.7738L231.132 52.3688L230.202 46.5912L231.653 46.3575L232.79 53.4205ZM235.074 52.1168C234.243 51.5322 233.743 50.7193 233.576 49.6781C233.408 48.6368 233.627 47.7082 234.233 46.8921C234.838 46.0669 235.67 45.5689 236.729 45.3983C237.789 45.2276 238.735 45.4392 239.568 46.033C240.4 46.6176 240.899 47.4305 241.067 48.4717C241.235 49.513 241.016 50.4416 240.41 51.2577C239.804 52.0737 238.971 52.5671 237.911 52.7377C236.852 52.9084 235.906 52.7014 235.074 52.1168ZM235.451 47.6745C235.089 48.1865 234.962 48.7742 235.068 49.4377C235.175 50.1011 235.481 50.6192 235.985 50.9917C236.489 51.3643 237.06 51.4994 237.695 51.397C238.34 51.2931 238.839 50.9859 239.192 50.4754C239.554 49.9633 239.681 49.3756 239.574 48.7121C239.466 48.0394 239.16 47.5168 238.655 47.1443C238.16 46.7702 237.59 46.6351 236.945 46.739C236.309 46.8414 235.811 47.1532 235.451 47.6745ZM243.578 50.7475C242.747 50.1629 242.247 49.35 242.079 48.3087C241.912 47.2675 242.131 46.3388 242.737 45.5228C243.341 44.6975 244.173 44.1996 245.233 44.0289C245.998 43.9058 246.712 43.9941 247.374 44.2939C248.046 44.5922 248.581 45.0639 248.978 45.709L247.711 46.381C247.459 45.996 247.135 45.7127 246.737 45.531C246.339 45.3492 245.91 45.2955 245.449 45.3697C244.813 45.4721 244.315 45.7839 243.955 46.3051C243.593 46.8172 243.465 47.4049 243.572 48.0684C243.679 48.7318 243.985 49.2498 244.489 49.6224C244.993 49.995 245.563 50.13 246.199 50.0277C246.66 49.9535 247.051 49.7723 247.374 49.484C247.704 49.1851 247.922 48.8096 248.029 48.3575L249.443 48.5978C249.269 49.3349 248.909 49.9505 248.365 50.4447C247.83 50.9373 247.18 51.2452 246.415 51.3684C245.355 51.539 244.41 51.3321 243.578 50.7475ZM251.65 49.4477C250.818 48.8631 250.319 48.0502 250.151 47.009C249.984 45.9677 250.203 45.0391 250.809 44.223C251.413 43.3978 252.245 42.8998 253.305 42.7292C254.07 42.606 254.784 42.6943 255.446 42.9941C256.118 43.2924 256.653 43.7641 257.05 44.4092L255.782 45.0812C255.531 44.6962 255.207 44.4129 254.809 44.2312C254.411 44.0495 253.982 43.9957 253.521 44.0699C252.885 44.1723 252.387 44.4841 252.027 45.0054C251.665 45.5174 251.537 46.1051 251.644 46.7686C251.751 47.4321 252.056 47.9501 252.561 48.3226C253.065 48.6952 253.635 48.8303 254.271 48.7279C254.732 48.6537 255.123 48.4725 255.445 48.1843C255.775 47.8853 255.994 47.5098 256.101 47.0578L257.515 47.298C257.34 48.0351 256.981 48.6507 256.437 49.1449C255.902 49.6376 255.252 49.9455 254.487 50.0686C253.427 50.2393 252.481 50.0323 251.65 49.4477ZM261.308 41.4405C262.441 41.258 263.428 41.5151 264.268 42.2117C265.108 42.9084 265.556 43.843 265.613 45.0156L259.766 45.957C259.959 46.512 260.297 46.9351 260.779 47.2262C261.259 47.5081 261.799 47.6008 262.397 47.5044C262.858 47.4302 263.25 47.2536 263.574 46.9746C263.906 46.6848 264.142 46.3302 264.282 45.9105L265.585 46.2537C265.368 46.9031 264.999 47.4542 264.476 47.9071C263.953 48.3599 263.314 48.6472 262.559 48.7689C261.499 48.9395 260.553 48.7325 259.722 48.1479C258.89 47.5634 258.391 46.7505 258.223 45.7092C258.055 44.6679 258.265 43.7408 258.853 42.9277C259.448 42.1039 260.266 41.6082 261.308 41.4405ZM261.51 42.6983C260.976 42.7844 260.537 43.0252 260.194 43.4207C259.859 43.8055 259.669 44.271 259.625 44.817L263.965 44.1181C263.761 43.6122 263.434 43.2298 262.986 42.9711C262.546 42.7017 262.054 42.6108 261.51 42.6983ZM277.968 36.2195L275.425 41.4786L279.802 45.8504L277.95 46.1486L274.225 42.4801L272.511 42.7561L273.181 46.9165L271.647 47.1636L270.089 37.4882L271.623 37.2411L272.293 41.4015L274.007 41.1256L276.268 36.4933L277.968 36.2195ZM280.914 44.7355C280.082 44.1509 279.583 43.338 279.415 42.2968C279.247 41.2555 279.466 40.3269 280.072 39.5108C280.677 38.6855 281.509 38.1876 282.569 38.017C283.628 37.8463 284.575 38.0579 285.408 38.6517C286.239 39.2363 286.739 40.0492 286.906 41.0904C287.074 42.1317 286.855 43.0603 286.249 43.8764C285.643 44.6924 284.81 45.1858 283.75 45.3564C282.691 45.527 281.745 45.3201 280.914 44.7355ZM281.29 40.2931C280.928 40.8052 280.801 41.3929 280.908 42.0564C281.014 42.7198 281.32 43.2378 281.824 43.6104C282.329 43.983 282.899 44.1181 283.535 44.0157C284.18 43.9118 284.678 43.6046 285.031 43.094C285.393 42.582 285.52 41.9943 285.414 41.3308C285.305 40.6581 284.999 40.1355 284.495 39.763C284 39.3889 283.429 39.2538 282.784 39.3577C282.149 39.4601 281.651 39.7719 281.29 40.2931ZM291.637 36.5566C292.623 36.3979 293.505 36.6198 294.283 37.2225C295.068 37.8145 295.545 38.6311 295.713 39.6724C295.88 40.7137 295.684 41.6386 295.124 42.4472C294.574 43.2544 293.805 43.7373 292.819 43.8961C291.769 44.0652 290.866 43.804 290.112 43.1125L290.727 46.9273L289.275 47.161L287.693 37.3336L289.144 37.0999L289.313 38.1504C289.812 37.257 290.587 36.7258 291.637 36.5566ZM292.341 42.5977C292.977 42.4953 293.471 42.1888 293.823 41.6782C294.185 41.1662 294.313 40.5785 294.206 39.915C294.098 39.2423 293.791 38.7197 293.287 38.3472C292.792 37.9731 292.226 37.8373 291.591 37.9397C290.946 38.0435 290.442 38.3515 290.08 38.8635C289.728 39.3741 289.606 39.9657 289.714 40.6384C289.821 41.3018 290.122 41.8206 290.617 42.1946C291.121 42.5672 291.696 42.7015 292.341 42.5977ZM299.082 42.7458L297.631 42.9795L296.493 35.9165L301.594 35.0952L301.801 36.3807L298.152 36.9682L299.082 42.7458ZM305.191 34.3741C306.039 34.2376 306.766 34.3474 307.372 34.7037C307.977 35.0599 308.347 35.6527 308.48 36.482L309.226 41.1124L307.775 41.3461L307.606 40.2956C307.153 41.1815 306.396 41.7098 305.337 41.8805C304.664 41.9888 304.087 41.8974 303.605 41.6063C303.123 41.3152 302.834 40.8701 302.738 40.2712C302.626 39.5801 302.788 39.0247 303.221 38.6051C303.653 38.1764 304.24 37.8597 304.982 37.655L306.328 37.2965C306.837 37.1673 307.058 36.8954 306.991 36.4807C306.936 36.1398 306.759 35.8895 306.459 35.7298C306.168 35.5686 305.811 35.5222 305.387 35.5904C304.954 35.6602 304.603 35.8301 304.335 36.1002C304.076 36.3688 303.939 36.7218 303.924 37.159L302.431 37.0449C302.453 36.3607 302.714 35.7798 303.214 35.3023C303.712 34.8155 304.371 34.5061 305.191 34.3741ZM305.465 40.6544C306.064 40.558 306.539 40.2782 306.89 39.8152C307.239 39.343 307.371 38.8397 307.285 38.3052L307.241 38.0288C307.139 38.1587 306.884 38.28 306.477 38.3929L305.163 38.7746C304.82 38.8771 304.556 39.0283 304.371 39.2283C304.193 39.4176 304.127 39.6505 304.171 39.9269C304.216 40.2033 304.353 40.4082 304.582 40.5414C304.821 40.6731 305.115 40.7108 305.465 40.6544ZM310.381 41.0399L310.27 41.0577L310.061 39.7584L310.241 39.7295C310.581 39.6746 310.832 39.587 310.992 39.4666C311.151 39.3371 311.254 39.0937 311.3 38.7364C311.347 38.3792 311.315 37.8596 311.205 37.1777L310.635 33.6393L316.496 32.6956L317.633 39.7586L316.182 39.9923L315.252 34.2147L312.211 34.7044L312.573 36.9574C312.781 38.2474 312.724 39.2115 312.401 39.8495C312.077 40.4784 311.403 40.8752 310.381 41.0399ZM328.069 30.832L326.492 34.6026L329.427 37.8595L327.686 38.1399L325.313 35.5583L324.263 35.7274L324.728 38.6162L323.276 38.8499L322.811 35.9611L321.747 36.1325L320.277 39.3329L318.577 39.6066L320.344 35.6069L317.661 32.508L319.264 32.2498L321.54 34.847L322.604 34.6757L322.139 31.7869L323.59 31.5532L324.056 34.442L325.106 34.2728L326.479 31.088L328.069 30.832ZM333.667 37.1768L330.363 37.7087L329.226 30.6457L330.677 30.412L331.036 32.6373L332.888 32.3391C333.68 32.2115 334.352 32.3348 334.904 32.7092C335.465 33.0821 335.803 33.6233 335.917 34.3328C336.032 35.0423 335.881 35.6622 335.465 36.1923C335.059 36.721 334.459 37.0492 333.667 37.1768ZM338.435 36.4089L336.984 36.6426L335.847 29.5796L337.298 29.3459L338.435 36.4089ZM331.243 33.9228L331.608 36.1896L333.308 35.9158C333.695 35.8535 333.991 35.6971 334.197 35.4465C334.402 35.196 334.478 34.9049 334.425 34.5732C334.371 34.2415 334.208 33.9889 333.934 33.8156C333.66 33.6422 333.33 33.5867 332.943 33.649L331.243 33.9228ZM341.52 35.9122L340.068 36.1459L338.931 29.0829L340.382 28.8492L340.848 31.738L344.649 31.1259L344.183 28.2371L345.635 28.0035L346.772 35.0665L345.321 35.3002L344.856 32.4114L341.055 33.0234L341.52 35.9122Z" fill="white"/>
<path fill-rule="evenodd" clip-rule="evenodd" d="M300.478 355.197C300.166 354.912 299.688 354.939 299.409 355.257C299.13 355.575 299.157 356.064 299.468 356.348C300.708 357.481 301.486 359.125 301.486 360.956C301.486 364.367 298.781 367.132 295.441 367.137L295.432 367.137L295.424 367.137C293.322 367.134 291.471 366.038 290.387 364.373C290.156 364.018 289.686 363.921 289.338 364.158C288.99 364.394 288.895 364.873 289.127 365.229C290.35 367.107 292.359 368.409 294.676 368.644V369.455H292.405C291.988 369.455 291.649 369.801 291.649 370.227C291.649 370.654 291.988 371 292.405 371H298.459C298.877 371 299.216 370.654 299.216 370.227C299.216 369.801 298.877 369.455 298.459 369.455H296.189V368.644C300.013 368.256 303 364.962 303 360.956C303 358.667 302.025 356.611 300.478 355.197ZM295.432 355.547C292.507 355.547 290.135 357.969 290.135 360.956C290.135 363.943 292.507 366.364 295.432 366.364C298.358 366.364 300.73 363.943 300.73 360.956C300.73 357.969 298.358 355.547 295.432 355.547Z" fill="#B4B4B4"/>
<path d="M522.802 154.547V153.874H525.265C525.492 153.874 525.676 153.691 525.676 153.464C525.676 153.37 525.644 153.28 525.586 153.207L524.97 152.437L525.586 151.667C525.728 151.49 525.699 151.232 525.522 151.09C525.449 151.032 525.359 151 525.265 151H522.391C522.164 151 521.981 151.183 521.981 151.41V154.547C520.784 156.077 518.474 157.606 516.159 158.391H528.623C526.308 157.606 523.998 156.078 522.802 154.547Z" fill="#B4B4B4"/>
<path d="M520.4 167.424H524.38C523.439 166.172 522.762 164.742 522.39 163.22C522.018 164.742 521.341 166.172 520.4 167.424Z" fill="#B4B4B4"/>
<path d="M529.76 166.883C528.994 164.586 528.962 162.295 528.961 159.212H515.821C515.819 162.295 515.787 164.586 515.021 166.883C514.949 167.098 515.065 167.33 515.28 167.402C515.322 167.416 515.366 167.424 515.411 167.423H519.334C520.629 166.064 521.523 163.975 521.986 161.197C522.023 160.974 522.235 160.823 522.458 160.86C522.631 160.889 522.767 161.025 522.796 161.197C523.258 163.975 524.153 166.064 525.447 167.423H529.371C529.597 167.424 529.781 167.24 529.781 167.014C529.781 166.969 529.774 166.925 529.76 166.883Z" fill="#B4B4B4"/>
<path fill-rule="evenodd" clip-rule="evenodd" d="M193.241 133.286C193.241 133.595 192.99 133.846 192.682 133.846C192.373 133.846 192.123 133.595 192.123 133.286V132.168C192.123 131.036 191.205 130.118 190.073 130.118C188.94 130.118 188.022 131.036 188.022 132.168V133.286C188.022 133.595 187.772 133.846 187.463 133.846C187.155 133.846 186.904 133.595 186.904 133.286V132.168C186.904 130.419 188.323 129 190.073 129C191.822 129 193.241 130.419 193.241 132.168V133.286Z" fill="#B4B4B4"/>
<path fill-rule="evenodd" clip-rule="evenodd" d="M195.546 134.293L196.143 143.238C196.173 143.702 196.011 144.157 195.694 144.496C195.376 144.835 194.933 145.028 194.469 145.028H185.677C185.214 145.028 184.77 144.835 184.452 144.496C184.136 144.157 183.973 143.702 184.004 143.238L184.6 134.293C184.659 133.412 185.391 132.727 186.274 132.727H193.873C194.756 132.727 195.488 133.412 195.546 134.293ZM191.926 136.028C191.597 136.721 190.891 137.2 190.073 137.2C189.255 137.2 188.55 136.721 188.22 136.028C188.088 135.749 187.754 135.631 187.475 135.764C187.196 135.896 187.078 136.23 187.21 136.508C187.718 137.579 188.81 138.318 190.073 138.318C191.337 138.318 192.428 137.579 192.937 136.508C193.069 136.23 192.95 135.896 192.671 135.764C192.392 135.631 192.058 135.749 191.926 136.028Z" fill="#B4B4B4"/>
<circle cx="243" cy="129" r="27.5" fill="#2A2A2A" stroke="#131011" stroke-width="3"/>
<path fill-rule="evenodd" clip-rule="evenodd" d="M287.141 281.298L288.712 283.094L292.081 280.147L295.42 283.965L295.423 283.968C296.608 285.209 297.843 286.503 300.809 284.008C302.008 282.999 303.448 281.224 301.764 279.208L298.13 275.054C296.804 273.538 296.348 273.243 294.776 274.618L287.141 281.298ZM296.431 282.288L293.435 278.863L295.737 276.85C296.594 276.006 296.942 276.408 297.351 276.882C297.374 276.909 297.398 276.936 297.421 276.962L299.238 279.04L299.975 279.882C300.803 280.941 299.511 282.071 299.231 282.317C298.894 282.611 298.55 283.011 297.701 283.06C297.135 283.093 296.726 282.625 296.431 282.288Z" fill="white"/>
<path d="M295.146 290.449L296.472 291.964L300.739 288.232C301.019 287.986 301.738 287.516 302.367 287.601C303.153 287.706 303.595 288.211 304.38 289.11L305.559 288.078C304.872 287.292 303.823 285.732 302.402 285.489C301.189 285.281 299.904 286.22 299.413 286.716L295.146 290.449Z" fill="white"/>
<path d="M306.392 303.305L312.287 298.148L311.452 297.194L312.687 296.114L313.522 297.068C313.955 296.656 315.1 295.926 316.217 296.296C317.334 296.667 318.488 297.911 318.925 298.486L317.746 299.517C317.391 299.036 316.552 298.084 316.041 298.135C315.866 298.123 315.391 298.208 314.897 298.64L316.567 300.549L315.332 301.629L313.662 299.72L307.718 304.821L306.392 303.305Z" fill="white"/>
<path d="M310.027 307.46L311.353 308.975L318.483 302.738L317.157 301.222L310.027 307.46Z" fill="white"/>
<path d="M318.335 300.191L319.514 299.16L320.84 300.676L319.661 301.707L318.335 300.191Z" fill="white"/>
<path fill-rule="evenodd" clip-rule="evenodd" d="M309.607 297.916C311.095 296.615 311.247 294.353 309.945 292.864L308.177 290.843C306.875 289.355 304.613 289.204 303.125 290.506L301.328 292.077C299.84 293.379 299.689 295.641 300.991 297.129L302.759 299.151C304.06 300.639 306.322 300.79 307.811 299.488L309.607 297.916ZM308.331 293.285L307.545 292.387C306.731 291.457 305.318 291.362 304.387 292.176L302.815 293.551C301.885 294.365 301.791 295.778 302.604 296.709L303.39 297.607C304.204 298.537 305.618 298.632 306.548 297.818L308.12 296.443C309.05 295.629 309.144 294.215 308.331 293.285Z" fill="white"/>
<path d="M321.562 302.107C321.857 301.848 322.303 301.863 322.58 302.141L335.05 314.621C335.355 314.926 335.339 315.425 335.014 315.71L325.004 324.466C324.673 324.756 324.163 324.697 323.907 324.338L313.611 309.957C313.387 309.645 313.437 309.214 313.726 308.961L321.562 302.107Z" fill="white"/>
<path d="M322.122 303.004L334.084 315.136L324.484 323.534L314.494 309.677L322.122 303.004Z" fill="#AC262F"/>
<path fill-rule="evenodd" clip-rule="evenodd" d="M317.179 311.548C317.336 311.678 318.021 312.225 318.578 312.25C319.757 312.302 321.054 311.576 322.121 310.636C323.2 309.686 324.118 308.45 324.086 307.332C324.059 306.36 323.596 305.852 323.516 305.771L323.512 305.767C323.505 305.76 323.499 305.754 323.493 305.747L322.271 304.441C322.106 304.264 321.831 304.251 321.649 304.409L316.003 309.348C315.826 309.504 315.799 309.771 315.943 309.958L317.12 311.485C317.137 311.508 317.157 311.529 317.179 311.548ZM318.104 310.462C318.3 310.686 318.656 310.804 319.097 310.804C319.89 310.804 320.732 310.068 321.181 309.675C321.799 309.135 322.655 308.241 322.611 307.458C322.57 306.713 322.487 306.749 322.169 306.333L321.776 305.884L317.427 309.688L318.104 310.462Z" fill="white"/>
<path d="M321.7 317.744C321.823 317.999 322.171 318.442 322.57 318.173L329.889 314.644L329.047 315.381L328.99 315.43L323.753 320.011C323.635 320.114 323.617 320.29 323.711 320.415L324.339 321.253C324.443 321.392 324.643 321.413 324.774 321.299L324.794 321.281L330.071 316.665L331.755 315.192C331.985 314.911 331.884 314.583 331.804 314.455L330.969 313.5C330.655 313.141 330.146 313.164 329.931 313.22L323.875 316.04L327.293 310.77C327.644 310.265 327.503 309.992 327.258 309.711L326.521 308.869C326.325 308.644 326.002 308.728 325.777 308.925L325.16 309.465L325.104 309.514L319.546 314.376C319.422 314.485 319.409 314.673 319.518 314.797L320.009 315.358C320.117 315.483 320.257 315.439 320.381 315.33L325.939 310.468L321.601 316.839C321.287 317.114 321.536 317.557 321.7 317.744Z" fill="white"/>
<path d="M318.443 317.421L317.236 315.702L316.563 316.291C316.248 316.566 316.533 316.887 316.759 317.309C317.265 318.253 317.545 318.207 317.769 318.01L318.443 317.421Z" fill="white"/>
<circle cx="314" cy="279" r="3.7" stroke="white"/>
<defs>
<radialGradient id="paint0_radial_276_1691" cx="0" cy="0" r="1" gradientUnits="userSpaceOnUse" gradientTransform="translate(351.511 284.53) rotate(140.964) scale(316.717 379.959)">
<stop stop-color="#2F2F2F"/>
<stop offset="1" stop-color="#151111"/>
</radialGradient>
<linearGradient id="paint1_linear_276_1691" x1="116" y1="2.94997e-06" x2="268.134" y2="432.734" gradientUnits="userSpaceOnUse">
<stop stop-color="#161111"/>
<stop offset="0.493501" stop-color="#2B2B2B"/>
<stop offset="1" stop-color="#151111"/>
</linearGradient>
<linearGradient id="paint2_linear_276_1691" x1="734" y1="4" x2="510" y2="566.5" gradientUnits="userSpaceOnUse">
<stop stop-color="#161111"/>
<stop offset="0.493501" stop-color="#2B2B2B"/>
<stop offset="1" stop-color="#151111"/>
</linearGradient>
<linearGradient id="paint3_linear_276_1691" x1="734" y1="4" x2="510" y2="566.5" gradientUnits="userSpaceOnUse">
<stop stop-color="#161111"/>
<stop offset="0.493501" stop-color="#2B2B2B"/>
<stop offset="1" stop-color="#151111"/>
</linearGradient>
<radialGradient id="paint4_radial_276_1691" cx="0" cy="0" r="1" gradientUnits="userSpaceOnUse" gradientTransform="translate(311.5 315) rotate(93.9408) scale(225.533 233.707)">
<stop stop-color="#151111"/>
<stop offset="0.595722" stop-color="#2A2A2A"/>
<stop offset="1" stop-color="#151111"/>
</radialGradient>
<radialGradient id="paint5_radial_276_1691" cx="0" cy="0" r="1" gradientUnits="userSpaceOnUse" gradientTransform="translate(311.5 315) rotate(93.9408) scale(225.533 233.707)">
<stop stop-color="#151111"/>
<stop offset="0.595722" stop-color="#2A2A2A"/>
<stop offset="1" stop-color="#151111"/>
</radialGradient>
<radialGradient id="paint6_radial_276_1691" cx="0" cy="0" r="1" gradientUnits="userSpaceOnUse" gradientTransform="translate(311.5 315) rotate(93.9408) scale(225.533 233.707)">
<stop stop-color="#151111"/>
<stop offset="0.595722" stop-color="#2A2A2A"/>
<stop offset="1" stop-color="#151111"/>
</radialGradient>
<radialGradient id="paint7_radial_276_1691" cx="0" cy="0" r="1" gradientUnits="userSpaceOnUse" gradientTransform="translate(311.5 315) rotate(93.9408) scale(225.533 233.707)">
<stop stop-color="#151111"/>
<stop offset="0.595722" stop-color="#2A2A2A"/>
<stop offset="1" stop-color="#151111"/>
</radialGradient>
<radialGradient id="paint8_radial_276_1691" cx="0" cy="0" r="1" gradientUnits="userSpaceOnUse" gradientTransform="translate(311.5 315) rotate(93.9408) scale(225.533 233.707)">
<stop stop-color="#151111"/>
<stop offset="0.595722" stop-color="#2A2A2A"/>
<stop offset="1" stop-color="#151111"/>
</radialGradient>
<radialGradient id="paint9_radial_276_1691" cx="0" cy="0" r="1" gradientUnits="userSpaceOnUse" gradientTransform="translate(311.5 315) rotate(93.9408) scale(225.533 233.707)">
<stop stop-color="#151111"/>
<stop offset="0.595722" stop-color="#2A2A2A"/>
<stop offset="1" stop-color="#151111"/>
</radialGradient>
<radialGradient id="paint10_radial_276_1691" cx="0" cy="0" r="1" gradientUnits="userSpaceOnUse" gradientTransform="translate(311.5 315) rotate(93.9408) scale(225.533 233.707)">
<stop stop-color="#151111"/>
<stop offset="0.595722" stop-color="#2A2A2A"/>
<stop offset="1" stop-color="#151111"/>
</radialGradient>
<radialGradient id="paint11_radial_276_1691" cx="0" cy="0" r="1" gradientUnits="userSpaceOnUse" gradientTransform="translate(311.5 315) rotate(93.9408) scale(225.533 233.707)">
<stop stop-color="#151111"/>
<stop offset="0.595722" stop-color="#2A2A2A"/>
<stop offset="1" stop-color="#151111"/>
</radialGradient>
<radialGradient id="paint12_radial_276_1691" cx="0" cy="0" r="1" gradientUnits="userSpaceOnUse" gradientTransform="translate(311.5 315) rotate(93.9408) scale(225.533 233.707)">
<stop stop-color="#151111"/>
<stop offset="0.595722" stop-color="#2A2A2A"/>
<stop offset="1" stop-color="#151111"/>
</radialGradient>
<radialGradient id="paint13_radial_276_1691" cx="0" cy="0" r="1" gradientUnits="userSpaceOnUse" gradientTransform="translate(311.5 315) rotate(93.9408) scale(225.533 233.707)">
<stop stop-color="#151111"/>
<stop offset="0.595722" stop-color="#2A2A2A"/>
<stop offset="1" stop-color="#151111"/>
</radialGradient>
<radialGradient id="paint14_radial_276_1691" cx="0" cy="0" r="1" gradientUnits="userSpaceOnUse" gradientTransform="translate(311.5 315) rotate(93.9408) scale(225.533 233.707)">
<stop stop-color="#151111"/>
<stop offset="0.595722" stop-color="#2A2A2A"/>
<stop offset="1" stop-color="#151111"/>
</radialGradient>
<radialGradient id="paint15_radial_276_1691" cx="0" cy="0" r="1" gradientUnits="userSpaceOnUse" gradientTransform="translate(311.5 315) rotate(93.9408) scale(225.533 233.707)">
<stop stop-color="#151111"/>
<stop offset="0.595722" stop-color="#2A2A2A"/>
<stop offset="1" stop-color="#151111"/>
</radialGradient>
<radialGradient id="paint16_radial_276_1691" cx="0" cy="0" r="1" gradientUnits="userSpaceOnUse" gradientTransform="translate(311.5 315) rotate(93.9408) scale(225.533 233.707)">
<stop stop-color="#151111"/>
<stop offset="0.595722" stop-color="#2A2A2A"/>
<stop offset="1" stop-color="#151111"/>
</radialGradient>
<radialGradient id="paint17_radial_276_1691" cx="0" cy="0" r="1" gradientUnits="userSpaceOnUse" gradientTransform="translate(311.5 315) rotate(93.9408) scale(225.533 233.707)">
<stop stop-color="#151111"/>
<stop offset="0.595722" stop-color="#2A2A2A"/>
<stop offset="1" stop-color="#151111"/>
</radialGradient>
<radialGradient id="paint18_radial_276_1691" cx="0" cy="0" r="1" gradientUnits="userSpaceOnUse" gradientTransform="translate(311.5 315) rotate(93.9408) scale(225.533 233.707)">
<stop stop-color="#151111"/>
<stop offset="0.595722" stop-color="#2A2A2A"/>
<stop offset="1" stop-color="#151111"/>
</radialGradient>
<radialGradient id="paint19_radial_276_1691" cx="0" cy="0" r="1" gradientUnits="userSpaceOnUse" gradientTransform="translate(311.5 315) rotate(93.9408) scale(225.533 233.707)">
<stop stop-color="#151111"/>
<stop offset="0.595722" stop-color="#2A2A2A"/>
<stop offset="1" stop-color="#151111"/>
</radialGradient>
<radialGradient id="paint20_radial_276_1691" cx="0" cy="0" r="1" gradientUnits="userSpaceOnUse" gradientTransform="translate(311.5 315) rotate(93.9408) scale(225.533 233.707)">
<stop stop-color="#151111"/>
<stop offset="0.595722" stop-color="#2A2A2A"/>
<stop offset="1" stop-color="#151111"/>
</radialGradient>
<radialGradient id="paint21_radial_276_1691" cx="0" cy="0" r="1" gradientUnits="userSpaceOnUse" gradientTransform="translate(311.5 315) rotate(93.9408) scale(225.533 233.707)">
<stop stop-color="#151111"/>
<stop offset="0.595722" stop-color="#2A2A2A"/>
<stop offset="1" stop-color="#151111"/>
</radialGradient>
<radialGradient id="paint22_radial_276_1691" cx="0" cy="0" r="1" gradientUnits="userSpaceOnUse" gradientTransform="translate(311.5 315) rotate(93.9408) scale(225.533 233.707)">
<stop stop-color="#151111"/>
<stop offset="0.595722" stop-color="#2A2A2A"/>
<stop offset="1" stop-color="#151111"/>
</radialGradient>
<radialGradient id="paint23_radial_276_1691" cx="0" cy="0" r="1" gradientUnits="userSpaceOnUse" gradientTransform="translate(311.5 315) rotate(93.9408) scale(225.533 233.707)">
<stop stop-color="#151111"/>
<stop offset="0.595722" stop-color="#2A2A2A"/>
<stop offset="1" stop-color="#151111"/>
</radialGradient>
<radialGradient id="paint24_radial_276_1691" cx="0" cy="0" r="1" gradientUnits="userSpaceOnUse" gradientTransform="translate(311.5 315) rotate(93.9408) scale(225.533 233.707)">
<stop stop-color="#151111"/>
<stop offset="0.595722" stop-color="#2A2A2A"/>
<stop offset="1" stop-color="#151111"/>
</radialGradient>
<radialGradient id="paint25_radial_276_1691" cx="0" cy="0" r="1" gradientUnits="userSpaceOnUse" gradientTransform="translate(311.5 315) rotate(93.9408) scale(225.533 233.707)">
<stop stop-color="#151111"/>
<stop offset="0.595722" stop-color="#2A2A2A"/>
<stop offset="1" stop-color="#151111"/>
</radialGradient>
<radialGradient id="paint26_radial_276_1691" cx="0" cy="0" r="1" gradientUnits="userSpaceOnUse" gradientTransform="translate(311.5 315) rotate(93.9408) scale(225.533 233.707)">
<stop stop-color="#151111"/>
<stop offset="0.595722" stop-color="#2A2A2A"/>
<stop offset="1" stop-color="#151111"/>
</radialGradient>
<radialGradient id="paint27_radial_276_1691" cx="0" cy="0" r="1" gradientUnits="userSpaceOnUse" gradientTransform="translate(311.5 315) rotate(93.9408) scale(225.533 233.707)">
<stop stop-color="#151111"/>
<stop offset="0.595722" stop-color="#2A2A2A"/>
<stop offset="1" stop-color="#151111"/>
</radialGradient>
<radialGradient id="paint28_radial_276_1691" cx="0" cy="0" r="1" gradientUnits="userSpaceOnUse" gradientTransform="translate(311.5 315) rotate(93.9408) scale(225.533 233.707)">
<stop stop-color="#151111"/>
<stop offset="0.595722" stop-color="#2A2A2A"/>
<stop offset="1" stop-color="#151111"/>
</radialGradient>
<radialGradient id="paint29_radial_276_1691" cx="0" cy="0" r="1" gradientUnits="userSpaceOnUse" gradientTransform="translate(311.5 315) rotate(93.9408) scale(225.533 233.707)">
<stop stop-color="#151111"/>
<stop offset="0.595722" stop-color="#2A2A2A"/>
<stop offset="1" stop-color="#151111"/>
</radialGradient>
<radialGradient id="paint30_radial_276_1691" cx="0" cy="0" r="1" gradientUnits="userSpaceOnUse" gradientTransform="translate(311.5 315) rotate(93.9408) scale(225.533 233.707)">
<stop stop-color="#151111"/>
<stop offset="0.595722" stop-color="#2A2A2A"/>
<stop offset="1" stop-color="#151111"/>
</radialGradient>
<radialGradient id="paint31_radial_276_1691" cx="0" cy="0" r="1" gradientUnits="userSpaceOnUse" gradientTransform="translate(311.5 315) rotate(93.9408) scale(225.533 233.707)">
<stop stop-color="#151111"/>
<stop offset="0.595722" stop-color="#2A2A2A"/>
<stop offset="1" stop-color="#151111"/>
</radialGradient>
<radialGradient id="paint32_radial_276_1691" cx="0" cy="0" r="1" gradientUnits="userSpaceOnUse" gradientTransform="translate(311.5 315) rotate(93.9408) scale(225.533 233.707)">
<stop stop-color="#151111"/>
<stop offset="0.595722" stop-color="#2A2A2A"/>
<stop offset="1" stop-color="#151111"/>
</radialGradient>
<radialGradient id="paint33_radial_276_1691" cx="0" cy="0" r="1" gradientUnits="userSpaceOnUse" gradientTransform="translate(311.5 315) rotate(93.9408) scale(225.533 233.707)">
<stop stop-color="#151111"/>
<stop offset="0.595722" stop-color="#2A2A2A"/>
<stop offset="1" stop-color="#151111"/>
</radialGradient>
<radialGradient id="paint34_radial_276_1691" cx="0" cy="0" r="1" gradientUnits="userSpaceOnUse" gradientTransform="translate(311.5 315) rotate(93.9408) scale(225.533 233.707)">
<stop stop-color="#151111"/>
<stop offset="0.595722" stop-color="#2A2A2A"/>
<stop offset="1" stop-color="#151111"/>
</radialGradient>
<radialGradient id="paint35_radial_276_1691" cx="0" cy="0" r="1" gradientUnits="userSpaceOnUse" gradientTransform="translate(311.5 315) rotate(93.9408) scale(225.533 233.707)">
<stop stop-color="#151111"/>
<stop offset="0.595722" stop-color="#2A2A2A"/>
<stop offset="1" stop-color="#151111"/>
</radialGradient>
<radialGradient id="paint36_radial_276_1691" cx="0" cy="0" r="1" gradientUnits="userSpaceOnUse" gradientTransform="translate(311.5 315) rotate(93.9408) scale(225.533 233.707)">
<stop stop-color="#151111"/>
<stop offset="0.595722" stop-color="#2A2A2A"/>
<stop offset="1" stop-color="#151111"/>
</radialGradient>
<radialGradient id="paint37_radial_276_1691" cx="0" cy="0" r="1" gradientUnits="userSpaceOnUse" gradientTransform="translate(311.5 315) rotate(93.9408) scale(225.533 233.707)">
<stop stop-color="#151111"/>
<stop offset="0.595722" stop-color="#2A2A2A"/>
<stop offset="1" stop-color="#151111"/>
</radialGradient>
<radialGradient id="paint38_radial_276_1691" cx="0" cy="0" r="1" gradientUnits="userSpaceOnUse" gradientTransform="translate(311.5 315) rotate(93.9408) scale(225.533 233.707)">
<stop stop-color="#151111"/>
<stop offset="0.595722" stop-color="#2A2A2A"/>
<stop offset="1" stop-color="#151111"/>
</radialGradient>
<radialGradient id="paint39_radial_276_1691" cx="0" cy="0" r="1" gradientUnits="userSpaceOnUse" gradientTransform="translate(311.5 315) rotate(93.9408) scale(225.533 233.707)">
<stop stop-color="#151111"/>
<stop offset="0.595722" stop-color="#2A2A2A"/>
<stop offset="1" stop-color="#151111"/>
</radialGradient>
<radialGradient id="paint40_radial_276_1691" cx="0" cy="0" r="1" gradientUnits="userSpaceOnUse" gradientTransform="translate(311.5 315) rotate(93.9408) scale(225.533 233.707)">
<stop stop-color="#151111"/>
<stop offset="0.595722" stop-color="#2A2A2A"/>
<stop offset="1" stop-color="#151111"/>
</radialGradient>
<radialGradient id="paint41_radial_276_1691" cx="0" cy="0" r="1" gradientUnits="userSpaceOnUse" gradientTransform="translate(311.5 315) rotate(93.9408) scale(225.533 233.707)">
<stop stop-color="#151111"/>
<stop offset="0.595722" stop-color="#2A2A2A"/>
<stop offset="1" stop-color="#151111"/>
</radialGradient>
<radialGradient id="paint42_radial_276_1691" cx="0" cy="0" r="1" gradientUnits="userSpaceOnUse" gradientTransform="translate(311.5 315) rotate(93.9408) scale(225.533 233.707)">
<stop stop-color="#151111"/>
<stop offset="0.595722" stop-color="#2A2A2A"/>
<stop offset="1" stop-color="#151111"/>
</radialGradient>
<radialGradient id="paint43_radial_276_1691" cx="0" cy="0" r="1" gradientUnits="userSpaceOnUse" gradientTransform="translate(311.5 315) rotate(93.9408) scale(225.533 233.707)">
<stop stop-color="#151111"/>
<stop offset="0.595722" stop-color="#2A2A2A"/>
<stop offset="1" stop-color="#151111"/>
</radialGradient>
<radialGradient id="paint44_radial_276_1691" cx="0" cy="0" r="1" gradientUnits="userSpaceOnUse" gradientTransform="translate(311.5 315) rotate(93.9408) scale(225.533 233.707)">
<stop stop-color="#151111"/>
<stop offset="0.595722" stop-color="#2A2A2A"/>
<stop offset="1" stop-color="#151111"/>
</radialGradient>
<radialGradient id="paint45_radial_276_1691" cx="0" cy="0" r="1" gradientUnits="userSpaceOnUse" gradientTransform="translate(311.5 315) rotate(93.9408) scale(225.533 233.707)">
<stop stop-color="#151111"/>
<stop offset="0.595722" stop-color="#2A2A2A"/>
<stop offset="1" stop-color="#151111"/>
</radialGradient>
<radialGradient id="paint46_radial_276_1691" cx="0" cy="0" r="1" gradientUnits="userSpaceOnUse" gradientTransform="translate(311.5 315) rotate(93.9408) scale(225.533 233.707)">
<stop stop-color="#151111"/>
<stop offset="0.595722" stop-color="#2A2A2A"/>
<stop offset="1" stop-color="#151111"/>
</radialGradient>
<radialGradient id="paint47_radial_276_1691" cx="0" cy="0" r="1" gradientUnits="userSpaceOnUse" gradientTransform="translate(311.5 315) rotate(93.9408) scale(225.533 233.707)">
<stop stop-color="#151111"/>
<stop offset="0.595722" stop-color="#2A2A2A"/>
<stop offset="1" stop-color="#151111"/>
</radialGradient>
<radialGradient id="paint48_radial_276_1691" cx="0" cy="0" r="1" gradientUnits="userSpaceOnUse" gradientTransform="translate(311.5 315) rotate(93.9408) scale(225.533 233.707)">
<stop stop-color="#151111"/>
<stop offset="0.595722" stop-color="#2A2A2A"/>
<stop offset="1" stop-color="#151111"/>
</radialGradient>
<radialGradient id="paint49_radial_276_1691" cx="0" cy="0" r="1" gradientUnits="userSpaceOnUse" gradientTransform="translate(311.5 315) rotate(93.9408) scale(225.533 233.707)">
<stop stop-color="#151111"/>
<stop offset="0.595722" stop-color="#2A2A2A"/>
<stop offset="1" stop-color="#151111"/>
</radialGradient>
<radialGradient id="paint50_radial_276_1691" cx="0" cy="0" r="1" gradientUnits="userSpaceOnUse" gradientTransform="translate(311.5 315) rotate(93.9408) scale(225.533 233.707)">
<stop stop-color="#151111"/>
<stop offset="0.595722" stop-color="#2A2A2A"/>
<stop offset="1" stop-color="#151111"/>
</radialGradient>
<radialGradient id="paint51_radial_276_1691" cx="0" cy="0" r="1" gradientUnits="userSpaceOnUse" gradientTransform="translate(311.5 315) rotate(93.9408) scale(225.533 233.707)">
<stop stop-color="#151111"/>
<stop offset="0.595722" stop-color="#2A2A2A"/>
<stop offset="1" stop-color="#151111"/>
</radialGradient>
<radialGradient id="paint52_radial_276_1691" cx="0" cy="0" r="1" gradientUnits="userSpaceOnUse" gradientTransform="translate(311.5 315) rotate(93.9408) scale(225.533 233.707)">
<stop stop-color="#151111"/>
<stop offset="0.595722" stop-color="#2A2A2A"/>
<stop offset="1" stop-color="#151111"/>
</radialGradient>
<radialGradient id="paint53_radial_276_1691" cx="0" cy="0" r="1" gradientUnits="userSpaceOnUse" gradientTransform="translate(311.5 315) rotate(93.9408) scale(225.533 233.707)">
<stop stop-color="#151111"/>
<stop offset="0.595722" stop-color="#2A2A2A"/>
<stop offset="1" stop-color="#151111"/>
</radialGradient>
</defs>
</svg>
