<svg width="673" height="706" viewBox="0 0 673 706" fill="none" xmlns="http://www.w3.org/2000/svg">
<path d="M125.068 42.899L149.041 99.1594M184.054 181.329L149.041 99.1594M149.041 99.1594L215.184 68.7657L263.636 184.428M271.711 203.705L263.636 184.428M99.2108 198.232L278.248 121.443L377.624 145.109M288.027 107.705L264.992 103.397L91.5395 179.674L71.6219 188.484L45.7596 179.141M288.027 107.705L298.661 70.123M288.027 107.705L277.462 155.869M277.462 155.869L208.019 182.687M277.462 155.869L330.729 170.113M371.721 206.024L368.053 190.591L354.942 176.587L330.729 170.113M337.173 232.17L368.817 207.529M544.938 430.624L542.728 356.148L502.407 302.957M43.2444 130.825L53.8332 113.634L62.729 109.902L159.807 69.2039M119.994 85.875L166.58 189.799M82.1034 163.982L215.354 103.781M68.5946 134.583L109.197 216.24M109.197 216.24L139.956 201.592M109.197 216.24L128.153 223.963L146.527 215.52M109.197 216.24L96.4077 224.171L91.885 232.582L97.2033 254.96M368.817 207.529L392.895 188.781M368.817 207.529L390.132 234.258M452.435 312.388L515.724 263.107L553.071 310.482M452.435 312.388L390.132 234.258M452.435 312.388L446.041 381.535M423.931 381.12L446.041 381.535M694.164 386.192L692.164 425.798M694.164 386.192L696.453 272.33M694.164 386.192L678.605 385.9M666.285 368.361L666.633 414.746M666.737 428.58L666.633 414.746M666.633 414.746L602.945 413.999M431.267 411.986L602.945 413.999M466.646 331.022L478.489 346.55M487.255 428.028L490.332 362.078L478.489 346.55M602.945 413.999L600.164 512.066L592.44 531.022L566.823 550.154L547.594 582.442L528.517 601.65L492.914 602.774M478.489 346.55L595.457 255.571M595.457 255.571L601.637 236.982M595.457 255.571L627.174 262.109M646.891 266.174L630.522 262.8M646.891 266.174L648.808 250.229M646.891 266.174L645.627 300.306M627.174 262.109L630.953 247.135M627.174 262.109L630.522 262.8M630.522 262.8L626.516 314.224L619.701 312.99L617.585 321.238L614.498 321.971M614.498 321.971L562.352 256.917L607.911 313.754M614.498 321.971L607.911 313.754M617.616 335.089L628.412 349.643M628.412 349.643L644.364 334.439L645.627 300.306M628.412 349.643L620.031 358.972L614.072 375.063L604.743 366.682L613.712 356.398L596.01 340.224L607.911 313.754M651.344 247.18L649.632 212.532L655.002 197.397M387.808 129.645L507.963 168.704M621.05 205.466L564.506 187.085M410.608 170.695L430.914 112.063M467.174 120.566L445.875 181.879M481.143 193.063L501.853 132.705M507.963 168.704L498.188 199.61M507.963 168.704L564.506 187.085M522.912 207.593C522.618 206.358 535.446 166.57 541.896 146.83M564.506 187.085L545.971 242.875M502.407 302.957L569.74 250.27M502.407 302.957L439.57 220.063M519.344 216.593L379.037 322.567L375.82 333.042M375.82 333.042L373.345 363.793M375.82 333.042L340.712 291.656L332.376 280.593L287.787 243.907M306.759 299.725L321.421 296.241L359.131 262.821L376.127 257.152M439.57 220.063L409.722 180.688L400.462 182.889L392.895 188.781M439.57 220.063L393.856 254.569L376.127 257.152M373.893 283.77L476.538 207.991L477.649 198.784M392.895 188.781L398.912 200.377L403.42 226.208L390.132 234.258M390.132 234.258L372.333 236.042L376.127 257.152M252.419 208.289L242.693 184.513M263.636 184.428L277.967 178.576L314.121 179.767M330.729 170.113L338.738 135.848M350.724 158.839L341.709 189.515M241.651 224.725L263.537 244.778M446.041 381.535L678.605 385.9M418.437 340.849L436.521 324.322M303.516 412.998L238.98 412.444M303.097 380.488L217.481 380.295M277.316 597.761L276.789 362.284L276.789 339.324L248.246 298.741L236.142 298.741M236.142 298.741L213.359 285.214M236.142 298.741L228.31 312.662L210.511 307.997M262.349 363.27L263.278 514.683M176.222 515.413L238.868 514.882M321.812 514.051L238.868 514.882M322.773 555.774L321.591 504.493M323.15 457.191L321.591 504.493M321.591 504.493L331.765 514.711L344.104 495.474M238.868 514.882L238.98 412.444M238.98 412.444L217.633 411.805M209.785 471.365L302.83 471.858M175.624 462.322L187.728 462.391M174.912 446.833L187.728 446.833M187.728 446.833L187.728 462.391M187.728 446.833L199.083 446.833M187.728 462.391L199.083 462.391M199.083 462.391L208.375 462.391L208.375 446.833L199.083 446.833M199.083 462.391L199.083 446.833M217.633 411.805L172.716 411.474C161.844 411.624 146.388 410.602 146.972 395.095C147.556 379.588 163.706 381.086 175.19 380.723L217.481 380.295M217.633 411.805L217.481 380.295M212.908 572.764L365.35 570.273M394.607 569.886L365.35 570.273M365.35 570.273L365.35 686.77L356.467 698.668M394.607 698.865L306.236 698.409M304.738 654.832L394.607 654.833L394.607 628.084M393.897 597.773L394.607 628.084M394.607 628.084L304.088 628.084M241.669 597.849L241.669 648.929L214.071 648.929M214.071 674.857L306.236 674.857M24.9994 359.35L24.1612 431.29M137.134 361.234L136.822 404.515M645.627 300.306L676.652 353.668L677.859 365.61L678.605 385.9M53.8126 429.135L66.1841 395.433L69.9695 363.337L59.8831 320.896" stroke="#222222" stroke-width="1.77453" stroke-linejoin="round"/>
<path d="M163.396 204.174L88.2176 36.8854C87.5981 35.5068 87.4348 33.9664 87.7515 32.4886L89.6738 23.5173C90.4827 19.7425 94.1602 17.3062 97.9517 18.0335L138.652 25.8409C140.981 26.2877 142.933 27.8685 143.855 30.0539L203.623 171.787M286.687 239.277L257.211 246.282C255.336 246.727 253.361 246.391 251.738 245.351L238.51 236.867M286.687 239.277L319.363 208.684M286.687 239.277L302.541 281.977L310.561 305.44C311.062 306.905 311.07 308.494 310.584 309.965L302.11 335.585C301.846 336.386 301.726 337.227 301.756 338.069L302.291 352.962M319.363 208.684L356.925 175.885C357.534 175.353 358.047 174.721 358.444 174.017L364.721 162.85M319.363 208.684L421.555 344.381C422.486 345.619 422.988 347.126 422.983 348.675L422.711 430.324M319.363 208.684L306.092 204.209C305.488 204.005 304.86 203.884 304.224 203.848L261.978 201.458C259.551 201.32 257.223 202.434 255.807 204.41L244 220.888M364.721 162.85L277.957 142.15C276.493 141.801 274.957 141.926 273.569 142.507L203.623 171.787M364.721 162.85L635.958 247.87C636.586 248.066 637.238 248.175 637.896 248.192L676.174 249.188C676.788 249.204 677.402 249.14 678 248.998L754.265 230.873M364.721 162.85L386.175 129.064C386.503 128.547 386.764 127.989 386.949 127.405L416.028 35.7079M203.623 171.787L140.911 202.181M203.623 171.787L225.183 222.914M253.009 25.5364L251.103 33.3266M22.7375 168.323L108.722 131.914M140.911 202.181L108.722 131.914M140.911 202.181L164.07 261.895L174.34 305.108M108.722 131.914L224.817 81.4238C225.73 81.0267 226.549 80.4419 227.222 79.7075L243.097 62.3656C243.902 61.4862 244.472 60.4182 244.756 59.2602L251.103 33.3266M174.34 305.108L212.853 285.357M174.34 305.108L79.8655 309.885C78.9498 309.931 78.0517 310.154 77.221 310.542L33.9049 330.767C32.8187 331.274 31.6217 331.498 30.4256 331.417L10.4476 330.074C6.33623 329.797 2.85424 333.068 2.87323 337.189L2.96946 358.064M174.34 305.108L174.712 362.086M238.51 236.867L230.161 231.513C228.954 230.739 228.009 229.617 227.452 228.296L225.183 222.914M238.51 236.867L212.853 285.357M238.51 236.867L244 220.888M212.853 285.357L207.611 362.444M207.611 362.444L208.312 427.472L209.705 486.378L212.738 598.272M207.611 362.444L174.712 362.086M207.611 362.444L295.319 362.771M302.613 374.897L311.762 363.227M302.613 374.897L303.76 487.942M302.613 374.897L295.319 362.771M311.762 363.227L302.291 352.962M311.762 363.227L295.319 362.771M311.762 363.227L477.525 362.923C479.087 362.921 480.604 362.403 481.841 361.45L594.731 274.569C595.823 273.728 596.647 272.588 597.102 271.287L616.306 216.376L621.961 200.541C622.423 199.247 622.5 197.848 622.183 196.512L619.065 183.392C618.783 182.206 618.811 180.967 619.147 179.795L629.413 143.966M302.291 352.962L295.319 362.771M398.043 522.601L421.386 486.743C422.132 485.597 422.531 484.261 422.536 482.894L422.711 430.324M398.043 522.601L394.601 537.28C394.467 537.852 394.405 538.438 394.415 539.025L395.44 597.406M398.043 522.601L339.723 492.436C338.951 492.037 338.113 491.783 337.25 491.686L303.76 487.942M398.043 522.601L470.062 554.251C471.747 554.992 473.078 556.358 473.775 558.062L492.142 602.957M395.44 597.406L448.291 596.121C448.721 596.111 449.15 596.139 449.575 596.207L492.142 602.957M395.44 597.406L176.255 598.445M175.52 485.81L303.76 487.942M175.52 485.81L175.143 428.018M175.52 485.81L176.255 598.445M303.76 487.942L305.827 691.481C305.866 695.401 302.721 698.611 298.801 698.651L184.041 699.812C180.111 699.852 176.897 696.691 176.871 692.761L176.255 598.445M492.142 602.957L504.81 621.958M175.143 428.018L10.4541 430.045C6.51282 430.094 3.28681 426.922 3.26864 422.98L2.96946 358.064M175.143 428.018L174.712 362.086M175.143 428.018L422.711 430.324M2.96946 358.064L174.712 362.086M634.677 125.595L629.413 143.966M225.183 222.914L244 220.888M251.103 33.3266L629.413 143.966" stroke="#AC262F" stroke-linejoin="round"/>
<circle cx="206.738" cy="362.323" r="3.7" stroke="white"/>
<circle cx="175.738" cy="485.323" r="3.7" stroke="white"/>
<circle cx="175.738" cy="558.323" r="3.7" stroke="white"/>
<circle cx="212.738" cy="598.323" r="3.7" stroke="white"/>
<circle cx="304.738" cy="488.323" r="3.7" stroke="white"/>
<circle cx="207.738" cy="428.323" r="3.7" stroke="white"/>
<circle cx="93.7376" cy="428.323" r="3.7" stroke="white"/>
<circle cx="304.738" cy="598.323" r="3.7" stroke="white"/>
<circle cx="304.738" cy="546.323" r="3.7" stroke="white"/>
<circle cx="392.738" cy="595.323" r="3.7" stroke="white"/>
<circle cx="302.738" cy="407.323" r="3.7" stroke="white"/>
<circle cx="277.738" cy="429.323" r="3.7" stroke="white"/>
<circle cx="363.738" cy="429.323" r="3.7" stroke="white"/>
<circle cx="422.738" cy="415.323" r="3.7" stroke="white"/>
<circle cx="373.738" cy="362.323" r="3.7" stroke="white"/>
<circle cx="419.738" cy="342.323" r="3.7" stroke="white"/>
<circle cx="522.738" cy="328.323" r="3.7" stroke="white"/>
<circle cx="429.738" cy="283.323" r="3.7" stroke="white"/>
<circle cx="399.738" cy="245.323" r="3.7" stroke="white"/>
<circle cx="309.738" cy="300.323" r="3.7" stroke="white"/>
<circle cx="245.738" cy="362.323" r="3.7" stroke="white"/>
<circle cx="252.738" cy="485.323" r="3.7" stroke="white"/>
<circle cx="304.738" cy="698.323" r="3.7" stroke="white"/>
<circle cx="255.738" cy="698.323" r="3.7" stroke="white"/>
<circle cx="176.738" cy="644.323" r="3.7" stroke="white"/>
<circle cx="176.738" cy="698.323" r="3.7" stroke="white"/>
<circle cx="174.738" cy="407.323" r="3.7" stroke="white"/>
<circle cx="86.7376" cy="360.323" r="3.7" stroke="white"/>
<circle cx="148.738" cy="361.323" r="3.7" stroke="white"/>
<circle cx="170.738" cy="289.323" r="3.7" stroke="white"/>
<circle cx="221.738" cy="271.323" r="3.7" stroke="white"/>
<circle cx="136.738" cy="147.323" r="3.7" stroke="white"/>
<circle cx="189.738" cy="136.323" r="3.7" stroke="white"/>
<circle cx="128.738" cy="176.323" r="3.7" stroke="white"/>
<circle cx="107.738" cy="130.323" r="3.7" stroke="white"/>
<circle cx="318.738" cy="206.323" r="3.7" stroke="white"/>
<circle cx="228.738" cy="160.323" r="3.7" stroke="white"/>
<circle cx="152.738" cy="234.323" r="3.7" stroke="white"/>
<circle cx="220.738" cy="83.323" r="3.7" stroke="white"/>
<circle cx="174.738" cy="332.323" r="3.7" stroke="white"/>
<circle cx="125.738" cy="307.323" r="3.7" stroke="white"/>
<circle cx="162.738" cy="261.323" r="3.7" stroke="white"/>
<circle cx="139.738" cy="202.323" r="3.7" stroke="white"/>
<circle cx="118.738" cy="155.323" r="3.7" stroke="white"/>
<circle cx="125.738" cy="123.323" r="3.7" stroke="white"/>
<circle cx="148.738" cy="172.323" r="3.7" stroke="white"/>
<circle cx="276.738" cy="141.323" r="3.7" stroke="white"/>
<circle cx="224.738" cy="222.323" r="3.7" stroke="white"/>
<circle cx="289.738" cy="202.323" r="3.7" stroke="white"/>
<circle cx="286.738" cy="238.323" r="3.7" stroke="white"/>
<circle cx="80.7376" cy="144.323" r="3.7" stroke="white"/>
<circle cx="175.738" cy="102.323" r="3.7" stroke="white"/>
<circle cx="116.738" cy="360.323" r="3.7" stroke="white"/>
<circle cx="174.738" cy="362.323" r="3.7" stroke="white"/>
<circle cx="210.738" cy="326.323" r="3.7" stroke="white"/>
<circle cx="193.738" cy="293.323" r="3.7" stroke="white"/>
<circle cx="232.738" cy="249.323" r="3.7" stroke="white"/>
<circle cx="207.738" cy="392.323" r="3.7" stroke="white"/>
<circle cx="49.7376" cy="359.323" r="3.7" stroke="white"/>
<circle cx="175.738" cy="445.323" r="3.7" stroke="white"/>
<circle cx="135.738" cy="427.323" r="3.7" stroke="white"/>
<circle cx="207.738" cy="488.323" r="3.7" stroke="white"/>
<circle cx="176.738" cy="521.323" r="3.7" stroke="white"/>
<circle cx="207.738" cy="455.323" r="3.7" stroke="white"/>
<circle cx="258.738" cy="598.323" r="3.7" stroke="white"/>
<circle cx="213.738" cy="698.323" r="3.7" stroke="white"/>
<circle cx="305.738" cy="644.323" r="3.7" stroke="white"/>
<circle cx="213.738" cy="630.323" r="3.7" stroke="white"/>
<circle cx="392.738" cy="521.323" r="3.7" stroke="white"/>
<circle cx="304.738" cy="572.323" r="3.7" stroke="white"/>
<circle cx="302.738" cy="518.323" r="3.7" stroke="white"/>
<circle cx="304.738" cy="452.323" r="3.7" stroke="white"/>
<circle cx="244.738" cy="429.323" r="3.7" stroke="white"/>
<circle cx="328.738" cy="429.323" r="3.7" stroke="white"/>
<circle cx="422.738" cy="388.323" r="3.7" stroke="white"/>
<circle cx="488.738" cy="356.323" r="3.7" stroke="white"/>
<circle cx="421.738" cy="448.323" r="3.7" stroke="white"/>
<circle cx="301.738" cy="381.323" r="3.7" stroke="white"/>
<circle cx="395.738" cy="362.323" r="3.7" stroke="white"/>
<circle cx="393.738" cy="308.323" r="3.7" stroke="white"/>
<circle cx="502.738" cy="303.323" r="3.7" stroke="white"/>
<circle cx="413.738" cy="263.323" r="3.7" stroke="white"/>
<circle cx="359.738" cy="263.323" r="3.7" stroke="white"/>
<circle cx="176.738" cy="598.323" r="3.7" stroke="white"/>
<g clip-path="url(#clip0_199_4256)">
<path d="M202.039 308.317H201.049C200.899 307.584 200.601 306.815 200.357 306.37C200.721 306.027 200.949 305.542 200.949 305.005V304.378C200.949 304.09 200.715 303.856 200.425 303.856H198.234C197.434 303.246 196.521 302.801 195.536 302.55C195.539 302.484 195.538 302.543 195.538 301.845C195.538 301.557 195.303 301.323 195.013 301.323C194.225 301.323 193.076 301.323 192.288 301.323C191.998 301.323 191.763 301.557 191.763 301.845C191.763 302.544 191.762 302.484 191.765 302.55C190.789 302.798 189.875 303.24 189.068 303.856H186.876C186.587 303.856 186.352 304.09 186.352 304.378V305.005C186.352 305.542 186.58 306.028 186.944 306.37C186.625 306.983 186.392 307.637 186.253 308.317H185.262C184.972 308.317 184.738 308.551 184.738 308.839V309.466C184.738 310.372 185.386 311.131 186.245 311.307C186.36 311.885 186.543 312.444 186.789 312.976C186.541 313.017 186.352 313.231 186.352 313.49V314.117C186.352 315.503 187.818 316.415 189.067 315.805C189.591 316.205 190.16 316.532 190.762 316.78C190.762 316.78 190.762 316.78 190.762 316.78L190.334 318.105H187.121C186.832 318.105 186.597 318.339 186.597 318.627C186.597 318.915 186.832 319.149 187.121 319.149H200.18C200.469 319.149 200.705 318.915 200.705 318.627C200.705 318.339 200.469 318.105 200.18 318.105H196.967L196.539 316.78C197.158 316.525 197.785 316.156 198.235 315.805C199.485 316.415 200.949 315.501 200.949 314.117V313.49C200.949 313.232 200.761 313.018 200.513 312.976C200.721 312.541 200.935 311.92 201.057 311.307C201.916 311.131 202.564 310.372 202.564 309.466V308.839C202.564 308.551 202.329 308.317 202.039 308.317ZM196.215 315.778L194.825 311.477L197.18 313.419C197.173 313.473 197.175 313.424 197.175 314.117C197.175 314.47 197.273 314.801 197.444 315.083C197.07 315.353 196.651 315.591 196.215 315.778ZM192.08 316.112L193.588 311.447C193.609 311.448 193.63 311.448 193.651 311.448C193.672 311.448 193.692 311.448 193.713 311.447L195.22 316.112C194.191 316.366 193.107 316.367 192.08 316.112ZM189.023 312.968H187.966C187.664 312.428 187.437 311.84 187.3 311.22C187.724 311.058 188.075 310.748 188.288 310.353H192.113C192.113 310.353 192.113 310.353 192.113 310.353C192.119 310.371 192.125 310.388 192.132 310.405C192.132 310.405 192.132 310.405 192.132 310.405L189.023 312.968ZM197.175 304.395C197.175 305.038 197.123 305.467 197.467 306.007L194.5 308.453C194.398 308.391 194.29 308.339 194.175 308.3V304.276C194.595 304.155 194.954 303.893 195.198 303.545C195.208 303.547 195.217 303.55 195.226 303.552C195.914 303.723 196.572 304.006 197.175 304.395ZM199.972 308.317H199.314C199.024 308.317 198.789 308.551 198.789 308.839V309.309H195.188C195.182 309.291 195.176 309.274 195.169 309.257L198.263 306.707C198.619 306.873 199.022 306.926 199.42 306.85C199.664 307.317 199.849 307.806 199.972 308.317ZM199.335 312.968H198.279L195.169 310.405C195.169 310.405 195.169 310.405 195.169 310.405C195.176 310.388 195.182 310.371 195.188 310.353C195.188 310.353 195.188 310.353 195.188 310.353H199.013C199.226 310.747 199.577 311.057 200.001 311.22C199.869 311.816 199.655 312.397 199.335 312.968ZM193.126 309.831C193.126 309.543 193.361 309.309 193.651 309.309C193.94 309.309 194.175 309.543 194.175 309.831C194.175 310.119 193.94 310.353 193.651 310.353C193.361 310.353 193.126 310.119 193.126 309.831ZM193.126 304.276V308.3C193.012 308.339 192.903 308.391 192.802 308.453C192.801 308.453 192.801 308.453 192.801 308.453L189.835 306.007C190.178 305.467 190.127 305.038 190.127 304.395C190.725 304.009 191.391 303.719 192.102 303.545C192.347 303.893 192.706 304.155 193.126 304.276ZM187.882 306.849C188.283 306.926 188.685 306.872 189.038 306.707L192.132 309.257C192.132 309.257 192.132 309.257 192.132 309.257C192.125 309.274 192.119 309.291 192.113 309.309H188.512V308.839C188.512 308.551 188.277 308.317 187.987 308.317H187.329C187.454 307.801 187.641 307.309 187.882 306.849ZM191.086 315.778C190.65 315.591 190.238 315.357 189.857 315.084C190.028 314.801 190.127 314.47 190.127 314.117C190.127 313.427 190.129 313.473 190.121 313.419L192.476 311.477L191.086 315.778C191.086 315.778 191.086 315.778 191.086 315.778ZM191.436 318.105L191.758 317.11C192.96 317.418 194.266 317.434 195.543 317.11L195.865 318.105C195.67 318.105 191.631 318.105 191.436 318.105Z" fill="#6D6D6D"/>
</g>
<path d="M154.039 389.337C153.873 389.337 153.733 389.216 153.708 389.052L153.364 386.773C153.305 386.388 153.841 386.231 154 386.587L155.013 388.867C155.111 389.088 154.949 389.337 154.707 389.337H154.039Z" fill="#6D6D6D"/>
<path fill-rule="evenodd" clip-rule="evenodd" d="M155.716 389.816C155.66 389.68 155.532 389.583 155.385 389.583H154.319C154.122 389.583 153.968 389.752 153.985 389.948C154.31 393.738 154.096 396.269 151.468 398.507H167.973C162.187 395.774 156.732 392.279 155.716 389.816ZM169.572 399.188H150.628C150.334 399.415 150.046 399.624 149.771 399.815C149.491 400.009 149.625 400.478 149.966 400.478H170.379C170.789 400.478 170.889 399.65 170.5 399.52C170.184 399.414 169.874 399.304 169.572 399.188Z" fill="#6D6D6D"/>
<path fill-rule="evenodd" clip-rule="evenodd" d="M203.714 555.899C203.858 556.836 203.317 557.849 203.001 558.28C202.981 558.307 202.945 558.323 202.907 558.323H197.009V557.748C197.009 557.564 196.859 557.414 196.675 557.414H196.598C196.414 557.414 196.264 557.564 196.264 557.748V558.323H195.519V557.748C195.519 557.564 195.37 557.414 195.185 557.414H195.108C194.924 557.414 194.774 557.564 194.774 557.748V558.323H194.029V557.748C194.029 557.564 193.88 557.414 193.695 557.414H193.619C193.434 557.414 193.284 557.564 193.284 557.748V558.323H192.539V557.748C192.539 557.564 192.39 557.414 192.205 557.414H192.129C191.944 557.414 191.794 557.564 191.794 557.748V558.323H191.049V557.748C191.049 557.564 190.9 557.414 190.715 557.414H190.639C190.454 557.414 190.305 557.564 190.305 557.748V558.323H189.56V557.748C189.56 557.564 189.41 557.414 189.225 557.414H189.149C188.964 557.414 188.815 557.564 188.815 557.748V558.323H188.07V557.748C188.07 557.564 187.92 557.414 187.735 557.414H187.659C187.474 557.414 187.325 557.564 187.325 557.748V558.323H182.384C182.332 558.323 182.288 558.295 182.273 558.255C182.246 558.183 182.211 558.106 182.172 558.02C181.997 557.636 181.738 557.069 181.738 555.899C181.738 554.535 186.766 553.323 192.353 553.323C197.94 553.323 203.527 554.687 203.714 555.899ZM200.094 555.858C200.463 555.954 200.392 556.448 200.01 556.448H185.327C184.949 556.448 184.871 555.951 185.234 555.846C187.325 555.242 190.173 554.573 192.353 554.573C194.547 554.573 197.765 555.251 200.094 555.858Z" fill="#6D6D6D"/>
<path d="M232.738 665.521C232.979 664.878 233.702 663.736 234.667 663.35C235.632 662.964 237.08 663.189 237.562 663.35L239.251 663.35C240.409 663.35 241.583 663.913 241.905 664.315C242.387 663.993 243.062 663.35 243.834 663.35H250.83L252.278 665.521H253.725L252.278 663.35C254.529 663.27 259.418 663.157 260.962 663.35C262.506 663.543 262.57 664.878 262.41 665.521H253.725H252.278H232.738Z" fill="#6D6D6D"/>
<path fill-rule="evenodd" clip-rule="evenodd" d="M243.352 664.797C247.349 664.797 250.589 661.557 250.589 657.56C250.589 653.563 247.349 650.323 243.352 650.323C239.355 650.323 236.115 653.563 236.115 657.56C236.115 661.557 239.355 664.797 243.352 664.797ZM240.216 654.183C239.058 655.148 238.447 657.319 238.286 658.284C238.045 657.078 238.527 654.665 239.733 653.7C240.698 652.928 242.548 652.735 243.352 652.735C242.789 652.816 241.374 653.218 240.216 654.183Z" fill="#6D6D6D"/>
<path d="M321.38 394.591V397.14H327.864V394.591C327.7 392.955 326.321 392.161 325.416 391.891C325.224 391.834 325.075 391.671 325.061 391.47C325.022 390.926 324.219 390.962 324.18 391.507C324.167 391.689 324.042 391.845 323.87 391.906C321.714 392.669 321.306 393.999 321.38 394.591Z" fill="#6D6D6D"/>
<path d="M314.738 397.14C314.185 397.14 313.738 397.588 313.738 398.14V403.323C313.738 403.875 314.185 404.323 314.738 404.323H316.748V398.762C316.748 398.506 316.955 398.299 317.211 398.299C317.467 398.299 317.674 398.506 317.674 398.762V404.323H320.453V400.152C320.453 399.896 320.661 399.689 320.916 399.689C321.172 399.689 321.38 399.896 321.38 400.152V404.323H322.306V400.152C322.306 399.896 322.513 399.689 322.769 399.689C323.025 399.689 323.232 399.896 323.232 400.152V404.323H324.159V400.152C324.159 399.896 324.366 399.689 324.622 399.689C324.878 399.689 325.085 399.896 325.085 400.152V404.323H326.011V400.152C326.011 399.896 326.219 399.689 326.474 399.689C326.73 399.689 326.938 399.896 326.938 400.152V404.323H327.864V400.152C327.864 399.896 328.071 399.689 328.327 399.689C328.583 399.689 328.79 399.896 328.79 400.152V404.323H331.569V398.762C331.569 398.506 331.776 398.299 332.032 398.299C332.288 398.299 332.495 398.506 332.495 398.762V404.323H334.738C335.29 404.323 335.738 403.875 335.738 403.323V398.14C335.738 397.588 335.29 397.14 334.738 397.14H327.864H321.38H314.738Z" fill="#6D6D6D"/>
<path d="M394.994 400.384L393.595 402.826C393.213 403.493 393.694 404.323 394.463 404.323H397.232L394.994 400.384Z" fill="#6D6D6D"/>
<path d="M395.524 399.457L397.806 403.298L399.091 401.001L396.851 397.14L395.524 399.457Z" fill="#6D6D6D"/>
<path d="M398.415 404.323H401.017L399.703 402.057L398.415 404.323Z" fill="#6D6D6D"/>
<path d="M397.382 396.213L399.642 400.017L401.016 397.56L398.709 393.896L397.382 396.213Z" fill="#6D6D6D"/>
<path d="M399.24 392.969L401.551 396.604L403.154 393.739C401.905 391.615 401.017 390.042 401.017 389.867L399.24 392.969Z" fill="#6D6D6D"/>
<path d="M404.492 386.814C404.103 386.15 403.143 386.155 402.761 386.822L401.496 389.03L403.695 392.773L405.789 389.03L404.492 386.814Z" fill="#6D6D6D"/>
<path d="M408.094 392.969L406.458 390.174L404.348 393.886L405.888 396.508L408.094 392.969Z" fill="#6D6D6D"/>
<path d="M408.636 393.896L406.442 397.45L407.864 399.871L409.992 396.213L408.636 393.896Z" fill="#6D6D6D"/>
<path d="M410.534 397.14L408.434 400.841L409.961 403.44L411.89 399.457L410.534 397.14Z" fill="#6D6D6D"/>
<path d="M410.479 404.323H412.994C413.766 404.323 414.247 403.485 413.857 402.818L412.433 400.384L410.479 404.323Z" fill="#6D6D6D"/>
<path d="M406.458 404.323H409.533C409.066 403.561 408.523 402.67 407.94 401.712L406.458 404.323Z" fill="#6D6D6D"/>
<path d="M404.298 400.925L405.84 403.352L407.354 400.748C406.879 399.963 406.386 399.149 405.896 398.336L404.298 400.925Z" fill="#6D6D6D"/>
<path d="M402.2 404.323H405.275L403.722 401.857L402.2 404.323Z" fill="#6D6D6D"/>
<path d="M400.266 401.067L401.623 403.352L403.135 400.925L401.67 398.598L400.266 401.067Z" fill="#6D6D6D"/>
<path d="M405.333 397.399C404.805 396.52 404.288 395.654 403.805 394.841L402.212 397.644L403.711 400.002L405.333 397.399Z" fill="#6D6D6D"/>
<path d="M239.538 540.323C239.538 538.114 241.418 536.323 243.738 536.323C246.057 536.323 247.938 538.114 247.938 540.323C247.938 540.801 247.85 541.259 247.688 541.684C249.408 541.894 250.738 543.294 250.738 544.99C250.738 546.831 249.171 548.323 247.238 548.323C246.118 548.323 245.371 549.212 245.138 549.656V552.323H242.338V549.656C242.338 548.59 240.938 548.323 240.238 548.323C238.305 548.323 236.738 546.831 236.738 544.99C236.738 543.294 238.067 541.894 239.787 541.684C239.625 541.259 239.538 540.801 239.538 540.323Z" fill="#585758"/>
<path d="M324.538 331.323C324.538 329.114 326.418 327.323 328.738 327.323C331.057 327.323 332.938 329.114 332.938 331.323C332.938 331.801 332.85 332.259 332.688 332.684C334.408 332.894 335.738 334.294 335.738 335.99C335.738 337.831 334.171 339.323 332.238 339.323C331.118 339.323 330.371 340.212 330.138 340.656V343.323H327.338V340.656C327.338 339.59 325.938 339.323 325.238 339.323C323.305 339.323 321.738 337.831 321.738 335.99C321.738 334.294 323.067 332.894 324.787 332.684C324.625 332.259 324.538 331.801 324.538 331.323Z" fill="#585758"/>
<path d="M362.538 463.323C362.538 461.114 364.418 459.323 366.738 459.323C369.057 459.323 370.938 461.114 370.938 463.323C370.938 463.801 370.85 464.259 370.688 464.684C372.408 464.894 373.738 466.294 373.738 467.99C373.738 469.831 372.171 471.323 370.238 471.323C369.118 471.323 368.371 472.212 368.138 472.656V475.323H365.338V472.656C365.338 471.59 363.938 471.323 363.238 471.323C361.305 471.323 359.738 469.831 359.738 467.99C359.738 466.294 361.067 464.894 362.787 464.684C362.625 464.259 362.538 463.801 362.538 463.323Z" fill="#585758"/>
<path d="M187.538 226.323C187.538 224.114 189.418 222.323 191.738 222.323C194.057 222.323 195.938 224.114 195.938 226.323C195.938 226.801 195.85 227.259 195.688 227.684C197.408 227.894 198.738 229.294 198.738 230.99C198.738 232.831 197.171 234.323 195.238 234.323C194.118 234.323 193.371 235.212 193.138 235.656V238.323H190.338V235.656C190.338 234.59 188.938 234.323 188.238 234.323C186.305 234.323 184.738 232.831 184.738 230.99C184.738 229.294 186.067 227.894 187.787 227.684C187.625 227.259 187.538 226.801 187.538 226.323Z" fill="#585758"/>
<defs>
<clipPath id="clip0_199_4256">
<rect width="17.8263" height="17.8263" fill="white" transform="translate(184.738 301.323)"/>
</clipPath>
</defs>
</svg>
