<svg width="33" height="40" viewBox="0 0 33 40" fill="none" xmlns="http://www.w3.org/2000/svg">
<g clip-path="url(#clip0_277_2285)">
<path d="M33.0001 20.1396C33.0003 19.787 32.92 19.4389 32.7649 19.1208C32.6099 18.8027 32.3841 18.5227 32.1042 18.3013L29.9786 16.5678L30.9519 14.0853C31.1773 13.4944 31.1545 12.8401 30.8887 12.2656C30.6229 11.6911 30.1356 11.2434 29.5336 11.0205C29.3852 10.9662 29.2317 10.926 29.0754 10.9006L26.3493 10.4391L25.9257 7.81136C25.8666 7.46461 25.7299 7.13498 25.5256 6.84608C25.3212 6.55719 25.0542 6.3162 24.7437 6.14037C24.4331 5.96454 24.0868 5.85823 23.7294 5.82907C23.372 5.7999 23.0125 5.84859 22.6766 5.97166L20.0802 6.91065L18.3732 4.83765C17.94 4.34989 17.3271 4.05071 16.669 4.00587C16.011 3.96104 15.3617 4.17423 14.864 4.59857C14.7769 4.67238 14.6954 4.75228 14.6201 4.83765L12.8519 6.92149L10.3159 5.96733C9.98005 5.84439 9.6206 5.7958 9.26332 5.82503C8.90604 5.85426 8.55978 5.96059 8.24934 6.13641C7.9389 6.31222 7.67196 6.55317 7.46764 6.842C7.26333 7.13082 7.1267 7.46036 7.06754 7.80703L6.59748 10.4795L3.91861 10.8949C3.5647 10.9526 3.22821 11.0865 2.93329 11.2868C2.63837 11.4871 2.39233 11.7489 2.21281 12.0535C2.0333 12.358 1.92476 12.6978 1.89499 13.0483C1.86521 13.3988 1.91494 13.7515 2.0406 14.0809L2.9984 16.627L0.885361 18.3013C0.388354 18.7027 0.0740832 19.2811 0.0115122 19.9094C-0.0510589 20.5377 0.143181 21.1647 0.551608 21.6528C0.652206 21.7714 0.763948 21.8805 0.885361 21.9786L3.0146 23.7186L2.0406 26.1975C1.81527 26.7885 1.8381 27.4429 2.10409 28.0174C2.37008 28.5918 2.85753 29.0395 3.45961 29.2622C3.60771 29.3169 3.76097 29.3571 3.91714 29.3821L6.64316 29.8444L7.0668 32.4714C7.12594 32.8182 7.26258 33.1478 7.46694 33.4367C7.6713 33.7256 7.93832 33.9666 8.24885 34.1424C8.55938 34.3182 8.90575 34.4245 9.26311 34.4537C9.62048 34.4829 9.98001 34.4342 10.3159 34.3111L12.9123 33.3721L14.6194 35.4401C14.8471 35.7121 15.1335 35.9312 15.458 36.0817C15.7825 36.2321 16.1369 36.3101 16.4959 36.3101C16.8548 36.3101 17.2093 36.2321 17.5338 36.0817C17.8583 35.9312 18.1447 35.7121 18.3724 35.4401L20.1406 33.357L22.6729 34.3104C23.2756 34.5316 23.9431 34.5095 24.5293 34.249C25.1154 33.9885 25.5722 33.5109 25.7997 32.9207C25.8554 32.7749 25.8966 32.6242 25.9228 32.4707L26.3928 29.7982L29.0717 29.3843C29.7069 29.2807 30.2743 28.9343 30.6493 28.4211C31.0243 27.9079 31.1763 27.2698 31.072 26.6468C31.0458 26.4937 31.0046 26.3435 30.949 26.1982L29.9912 23.6521L32.1012 21.9793C32.3809 21.7577 32.6064 21.4775 32.7612 21.1592C32.916 20.841 32.9961 20.4928 32.9957 20.1403L33.0001 20.1396Z" fill="url(#paint0_linear_277_2285)"/>
<path d="M14.279 25.5894C13.5177 25.591 12.7765 25.3497 12.1674 24.9018L9.30511 22.797C9.17743 22.7074 9.06931 22.5937 8.98707 22.4626C8.90484 22.3314 8.85016 22.1855 8.82625 22.0333C8.80234 21.8812 8.80967 21.7259 8.84782 21.5766C8.88596 21.4272 8.95416 21.2869 9.0484 21.1638C9.14263 21.0406 9.26101 20.9372 9.39659 20.8595C9.53216 20.7819 9.6822 20.7315 9.83789 20.7115C9.99357 20.6915 10.1518 20.7021 10.3032 20.7428C10.4546 20.7836 10.5962 20.8535 10.7197 20.9487L13.5813 23.0535C13.8296 23.2331 14.1395 23.311 14.4453 23.2705C14.7512 23.2301 15.029 23.0745 15.2198 22.8368L22.0482 14.2277C22.1432 14.1078 22.2614 14.0075 22.396 13.9324C22.5306 13.8574 22.679 13.809 22.8327 13.7902C22.9863 13.7713 23.1423 13.7824 23.2916 13.8226C23.4409 13.8628 23.5807 13.9315 23.7029 14.0247C23.8252 14.1179 23.9275 14.2338 24.0041 14.3657C24.0806 14.4977 24.1299 14.6432 24.1492 14.7938C24.1684 14.9444 24.1571 15.0973 24.1161 15.2437C24.0751 15.3901 24.005 15.5271 23.91 15.647L17.0809 24.2575C16.7481 24.6735 16.3231 25.0096 15.8379 25.2404C15.3528 25.4712 14.8204 25.5906 14.2812 25.5894H14.279Z" fill="#F5F5F5"/>
</g>
<defs>
<linearGradient id="paint0_linear_277_2285" x1="6.91274" y1="5.12804" x2="26.8158" y2="35.0895" gradientUnits="userSpaceOnUse">
<stop stop-color="#4FBCD5"/>
<stop offset="1" stop-color="#3BABC5"/>
</linearGradient>
<clipPath id="clip0_277_2285">
<rect width="33" height="40" fill="white"/>
</clipPath>
</defs>
</svg>
