<svg width="33" height="40" viewBox="0 0 33 40" fill="none" xmlns="http://www.w3.org/2000/svg">
<g clip-path="url(#clip0_211_1437)">
<path d="M33.0001 20.1396C33.0003 19.787 32.92 19.4389 32.7649 19.1208C32.6099 18.8027 32.3841 18.5227 32.1042 18.3013L29.9786 16.5678L30.9519 14.0853C31.1773 13.4944 31.1545 12.8401 30.8887 12.2656C30.6229 11.6911 30.1356 11.2434 29.5336 11.0205C29.3852 10.9662 29.2317 10.926 29.0754 10.9006L26.3493 10.4391L25.9257 7.81136C25.8666 7.46461 25.7299 7.13498 25.5256 6.84608C25.3212 6.55719 25.0542 6.3162 24.7437 6.14037C24.4331 5.96454 24.0868 5.85823 23.7294 5.82907C23.372 5.7999 23.0125 5.84859 22.6766 5.97166L20.0802 6.91065L18.3732 4.83765C17.94 4.34989 17.3271 4.05071 16.669 4.00587C16.011 3.96104 15.3617 4.17423 14.864 4.59857C14.7769 4.67238 14.6954 4.75228 14.6201 4.83765L12.8519 6.92149L10.3159 5.96733C9.98005 5.84439 9.6206 5.7958 9.26332 5.82503C8.90604 5.85426 8.55978 5.96059 8.24934 6.13641C7.9389 6.31222 7.67196 6.55317 7.46764 6.842C7.26333 7.13082 7.1267 7.46036 7.06754 7.80703L6.59748 10.4795L3.91861 10.8949C3.5647 10.9526 3.22821 11.0865 2.93329 11.2868C2.63837 11.4871 2.39233 11.7489 2.21281 12.0535C2.0333 12.358 1.92476 12.6978 1.89499 13.0483C1.86521 13.3988 1.91494 13.7515 2.0406 14.0809L2.9984 16.627L0.885361 18.3013C0.388354 18.7027 0.0740832 19.2811 0.0115122 19.9094C-0.0510589 20.5377 0.143181 21.1647 0.551608 21.6528C0.652206 21.7714 0.763948 21.8805 0.885361 21.9786L3.0146 23.7186L2.0406 26.1975C1.81527 26.7885 1.8381 27.4429 2.10409 28.0174C2.37008 28.5918 2.85753 29.0395 3.45961 29.2622C3.60771 29.3169 3.76097 29.3571 3.91714 29.3821L6.64316 29.8444L7.0668 32.4714C7.12594 32.8182 7.26258 33.1478 7.46694 33.4367C7.6713 33.7256 7.93832 33.9666 8.24885 34.1424C8.55938 34.3182 8.90575 34.4245 9.26311 34.4537C9.62048 34.4829 9.98001 34.4342 10.3159 34.3111L12.9123 33.3721L14.6194 35.4401C14.8471 35.7121 15.1335 35.9312 15.458 36.0817C15.7825 36.2321 16.1369 36.3101 16.4959 36.3101C16.8548 36.3101 17.2093 36.2321 17.5338 36.0817C17.8583 35.9312 18.1447 35.7121 18.3724 35.4401L20.1406 33.357L22.6729 34.3104C23.2756 34.5316 23.9431 34.5095 24.5293 34.249C25.1154 33.9885 25.5722 33.5109 25.7997 32.9207C25.8554 32.7749 25.8966 32.6242 25.9228 32.4707L26.3928 29.7982L29.0717 29.3843C29.7069 29.2807 30.2743 28.9343 30.6493 28.4211C31.0243 27.9079 31.1763 27.2698 31.072 26.6468C31.0458 26.4937 31.0046 26.3435 30.949 26.1982L29.9912 23.6521L32.1012 21.9793C32.3809 21.7577 32.6064 21.4775 32.7612 21.1592C32.916 20.841 32.9961 20.4928 32.9957 20.1403L33.0001 20.1396Z" fill="#EFA75B"/>
<path d="M14.2795 25.5893C13.5182 25.5909 12.777 25.3495 12.1679 24.9017L9.3056 22.7969C9.17792 22.7073 9.06979 22.5936 8.98756 22.4624C8.90533 22.3313 8.85065 22.1854 8.82674 22.0332C8.80283 21.8811 8.81016 21.7258 8.84831 21.5765C8.88645 21.4271 8.95465 21.2868 9.04888 21.1636C9.14312 21.0405 9.2615 20.9371 9.39708 20.8594C9.53265 20.7817 9.68269 20.7314 9.83837 20.7114C9.99406 20.6913 10.1523 20.702 10.3037 20.7427C10.4551 20.7835 10.5967 20.8534 10.7202 20.9485L13.5818 23.0533C13.8301 23.233 14.14 23.3109 14.4458 23.2704C14.7517 23.23 15.0295 23.0744 15.2203 22.8366L22.0486 14.2275C22.1437 14.1077 22.2619 14.0074 22.3965 13.9323C22.5311 13.8573 22.6795 13.8089 22.8332 13.7901C22.9868 13.7712 23.1428 13.7822 23.2921 13.8225C23.4414 13.8627 23.5812 13.9314 23.7034 14.0246C23.8257 14.1178 23.928 14.2337 24.0046 14.3656C24.0811 14.4976 24.1304 14.643 24.1496 14.7937C24.1689 14.9443 24.1576 15.0972 24.1166 15.2436C24.0756 15.39 24.0055 15.527 23.9104 15.6469L17.0814 24.2574C16.7486 24.6734 16.3235 25.0095 15.8384 25.2403C15.3533 25.4711 14.8209 25.5905 14.2817 25.5893H14.2795Z" fill="#F5F5F5"/>
</g>
<defs>
<clipPath id="clip0_211_1437">
<rect width="33" height="40" fill="white"/>
</clipPath>
</defs>
</svg>
