<svg width="412" height="98" viewBox="0 0 412 98" fill="none" xmlns="http://www.w3.org/2000/svg">
<g clip-path="url(#clip0_322_1549)">
<path d="M142.874 64.5381V21.6198H153.092L164.446 39.7978L175.799 21.6198H185.942V64.5381H176.556V36.5544L164.446 54.8834H164.219L152.184 36.7053V64.5381H142.874Z" fill="#4D66AA"/>
<path d="M196.766 64.5381V21.6198H206.227V64.5381H196.766Z" fill="#4D66AA"/>
<path d="M216.975 64.5381V21.6198H225.68L245.889 48.0194V21.6198H255.275V64.5381H247.251L226.361 37.2333V64.5381H216.975Z" fill="#4D66AA"/>
<path d="M265.568 64.5381V21.6198H282.372C289.108 21.6198 294.558 23.6563 298.872 27.7294C303.111 31.8025 305.306 36.9316 305.306 43.1166C305.306 49.2263 303.187 54.3554 298.872 58.4285C294.558 62.5016 289.108 64.5381 282.447 64.5381H265.568ZM275.03 56.0148H282.372C286.232 56.0148 289.411 54.8079 291.757 52.3942C294.104 49.9806 295.315 46.888 295.315 43.0412C295.315 39.2698 294.104 36.1019 291.682 33.6882C289.26 31.2745 286.156 30.0677 282.296 30.0677H274.954V56.0148H275.03Z" fill="#4D66AA"/>
<path d="M309.999 64.5381L328.467 21.3181H337.172L355.64 64.5381H345.725L341.865 54.9588H323.623L319.687 64.6135H309.999V64.5381ZM327.029 46.5863H338.459L332.706 32.6322L327.029 46.5863Z" fill="#4D66AA"/>
<path d="M362.301 64.5381V21.6198H371.762V55.9393H393.259V64.5381H362.301Z" fill="#4D66AA"/>
<path d="M61.3553 26.2208C59.9172 27.2768 59.1603 28.7854 59.1603 30.5957V47.5669C59.1603 49.9051 60.6741 51.9417 62.8691 52.6205L81.4133 58.8056C81.489 58.8056 81.5647 58.8056 81.6404 58.881H81.7161H81.7918C81.8675 58.881 81.9431 58.881 81.9431 58.881C82.0188 58.881 82.1702 58.881 82.2459 58.881C82.3216 58.881 82.3973 58.881 82.473 58.8056L101.017 52.6205C103.212 51.8663 104.726 49.8297 104.726 47.5669V30.5202C104.726 28.7854 103.893 27.2014 102.531 26.1454C101.093 25.0894 99.352 24.8631 97.6868 25.3911L81.9431 30.6711L66.1995 25.4666C64.5343 24.9386 62.7934 25.1649 61.3553 26.2208ZM83.8354 33.9899L98.8978 29.0117C99.4277 28.8608 99.8818 28.9362 100.336 29.238C100.79 29.5397 101.017 29.9922 101.017 30.5202V47.4915C101.017 48.1703 100.563 48.7737 99.9575 49L83.9111 54.3554V33.9899H83.8354ZM80.0509 54.3554L64.0045 49C63.3233 48.7737 62.9448 48.1703 62.9448 47.4915V30.5202C62.9448 29.9922 63.1719 29.5397 63.626 29.238C64.0802 28.9362 64.5343 28.8608 65.0641 29.0117L80.1266 33.9899V54.3554H80.0509Z" fill="#D14A46"/>
<path d="M16.168 58.4285C9.05309 52.6205 5.04149 43.9463 5.04149 34.8196C5.04149 17.8484 18.8172 4.0451 35.8476 4.0451C47.4282 4.0451 57.8735 10.381 63.2476 20.5638C63.7017 21.4689 64.8371 21.846 65.8211 21.3935C66.7293 20.9409 67.1078 19.8095 66.6536 18.8289C60.5984 7.43934 48.7907 0.273712 35.8476 0.273712C16.7735 0.273712 1.25696 15.8118 1.25696 34.8196C1.25696 45.0778 5.79839 54.8079 13.7459 61.3701C14.1244 61.6718 14.5028 61.8227 14.957 61.8227C15.4868 61.8227 16.0166 61.5964 16.3951 61.1439C17.0763 60.3141 16.9249 59.1073 16.168 58.4285Z" fill="#4D66AA"/>
<path d="M74.5254 76.9082C73.5415 76.4557 72.4818 76.9082 72.0276 77.8888C67.8647 87.1664 58.6304 93.1252 48.4122 93.1252C34.1823 93.1252 22.6017 81.5847 22.6017 67.4043C22.6017 62.4261 24.0398 57.5233 26.7647 53.3748C27.3702 52.4697 27.0674 51.3382 26.2348 50.7348C25.3265 50.1314 24.1912 50.4331 23.5856 51.2628C20.4823 56.0148 18.8171 61.5964 18.8171 67.3289C18.8171 83.6213 32.063 96.8211 48.4122 96.8211C60.0685 96.8211 70.6652 89.9572 75.4337 79.3219C75.8879 78.4922 75.5094 77.3608 74.5254 76.9082Z" fill="#4D66AA"/>
<path d="M83.684 0.273712C77.0232 0.273712 70.4381 2.08398 64.6856 5.47822C63.853 6.00622 63.5503 7.13763 64.0801 8.04276C64.61 8.9479 65.7453 9.24961 66.6536 8.72161C71.8006 5.7045 77.7044 4.0451 83.684 4.0451C102.077 4.0451 117.064 18.9798 117.064 37.3087C117.064 55.6376 102.077 70.5723 83.684 70.5723C77.8558 70.5723 72.0276 69.0638 67.0321 66.1221C66.1238 65.5941 64.9884 65.8958 64.4586 66.8009C63.9287 67.7061 64.2315 68.8375 65.1398 69.3655C70.7409 72.6089 77.1746 74.3437 83.684 74.3437C104.196 74.3437 120.848 57.7496 120.848 37.3087C120.848 16.8678 104.196 0.273712 83.684 0.273712Z" fill="#4D66AA"/>
<path d="M62.9448 57.3725C62.9448 56.3165 62.1122 55.4868 61.0526 55.4868H53.7106C51.2885 55.4868 49.0935 57.0708 48.3366 59.3336L42.5084 76.7574C42.2813 77.5117 41.5244 78.0397 40.6918 78.0397C40.0106 78.0397 39.3294 77.6625 39.0266 76.9837L32.5172 64.6135C32.0631 63.7084 30.9277 63.3313 29.9437 63.7838C29.0354 64.2364 28.657 65.3678 29.1111 66.3484L35.6205 78.7185C36.6045 80.6042 38.5725 81.7356 40.6918 81.7356C43.1139 81.7356 45.3089 80.1516 46.0658 77.8888L51.894 60.465C52.1211 59.7107 52.878 59.1827 53.7106 59.1827H61.0526C62.1122 59.2582 62.9448 58.4285 62.9448 57.3725Z" fill="#5D6AAC"/>
<path d="M151.276 86.1104H144.766V88.5995H142.874V84.5264H143.858C144.615 83.6213 145.069 81.283 145.22 79.1711L145.372 75.9277H152.108V84.6019H153.168V88.675H151.276V86.1104ZM147.264 77.5117L147.113 79.5482C146.961 81.5848 146.583 83.4704 146.053 84.6019H149.989V77.5117H147.264Z" fill="#585551"/>
<path d="M154.152 80.9813C154.152 77.8888 156.347 75.7014 159.602 75.7014C162.932 75.7014 165.127 77.9642 165.127 80.9813C165.127 84.0739 162.932 86.2613 159.677 86.2613C156.423 86.3367 154.152 84.1493 154.152 80.9813ZM156.196 80.9813C156.196 82.867 157.482 84.6773 159.602 84.6773C161.797 84.6773 163.008 82.867 163.008 80.9813C163.008 79.0202 161.797 77.2854 159.602 77.2854C157.407 77.2854 156.196 79.0956 156.196 80.9813Z" fill="#585551"/>
<path d="M173.907 77.5117H168.912V86.1858H166.868V75.9277H175.951V86.1858H173.907V77.5117Z" fill="#585551"/>
<path d="M177.767 80.9813C177.767 77.8888 179.962 75.7014 183.217 75.7014C186.547 75.7014 188.742 77.9642 188.742 80.9813C188.742 84.0739 186.547 86.2613 183.293 86.2613C180.038 86.3367 177.767 84.1493 177.767 80.9813ZM179.887 80.9813C179.887 82.867 181.173 84.6773 183.293 84.6773C185.488 84.6773 186.699 82.867 186.699 80.9813C186.699 79.0202 185.488 77.2854 183.293 77.2854C181.098 77.2854 179.887 79.0956 179.887 80.9813Z" fill="#585551"/>
<path d="M197.144 77.5117H193.814V80.8305C193.814 83.4704 193.36 86.2613 190.938 86.2613C190.483 86.2613 189.954 86.1858 189.499 86.035V84.3756C189.802 84.451 190.181 84.5264 190.408 84.5264C191.694 84.5264 191.77 82.1882 191.77 80.3779V75.9277H199.112V86.1858H197.068V77.5117H197.144Z" fill="#585551"/>
<path d="M208.346 81.5847H203.275V86.1104H201.231V75.9277H203.275V80.0762H208.346V75.9277H210.39V86.1858H208.346V81.5847Z" fill="#585551"/>
<path d="M219.7 78.5676L214.856 86.1104H212.585V75.9277H214.629V83.4704L219.549 75.9277H221.744V86.1858H219.7V78.5676Z" fill="#585551"/>
<path d="M228.329 86.1104H226.361V77.4362H223.03V75.9277H231.735V77.5117H228.329V86.1104Z" fill="#585551"/>
<path d="M233.021 75.9277H239.531V77.5117H234.989V80.0762H239.001V81.6602H234.989V84.5264H239.607V86.1104H232.946V75.9277H233.021Z" fill="#585551"/>
<path d="M247.933 77.5117H244.602V80.8305C244.602 83.4704 244.148 86.2613 241.726 86.2613C241.272 86.2613 240.742 86.1858 240.288 86.035V84.3756C240.591 84.451 240.969 84.5264 241.196 84.5264C242.483 84.5264 242.559 82.1882 242.559 80.3779V75.9277H249.901V86.1858H247.857V77.5117H247.933Z" fill="#585551"/>
<path d="M252.02 86.1104V75.9277H253.988V79.6991H255.653C257.848 79.6991 259.211 80.8305 259.211 82.867C259.211 85.1298 257.848 86.1104 255.275 86.1104H252.02ZM254.064 81.283V84.6019H255.35C256.334 84.6019 257.243 84.1493 257.243 82.9424C257.243 81.6602 256.334 81.283 255.35 81.283H254.064Z" fill="#585551"/>
<path d="M268.066 81.5847H262.995V86.1104H260.951V75.9277H262.995V80.0762H268.066V75.9277H270.11V86.1858H268.066V81.5847Z" fill="#585551"/>
<path d="M271.851 80.9813C271.851 77.8888 274.046 75.7014 277.301 75.7014C280.631 75.7014 282.826 77.9642 282.826 80.9813C282.826 84.0739 280.631 86.2613 277.376 86.2613C274.122 86.3367 271.851 84.1493 271.851 80.9813ZM273.894 80.9813C273.894 82.867 275.181 84.6773 277.301 84.6773C279.496 84.6773 280.707 82.867 280.707 80.9813C280.707 79.0202 279.496 77.2854 277.301 77.2854C275.106 77.2854 273.894 79.0956 273.894 80.9813Z" fill="#585551"/>
<path d="M284.567 75.9277H291.076V77.5117H286.535V80.0762H290.546V81.6602H286.535V84.5264H291.152V86.1104H284.491V75.9277H284.567Z" fill="#585551"/>
<path d="M297.056 80.9813C297.056 77.8888 299.251 75.7014 302.506 75.7014C305.836 75.7014 308.031 77.9642 308.031 80.9813C308.031 84.0739 305.836 86.2613 302.581 86.2613C299.327 86.3367 297.056 84.1493 297.056 80.9813ZM299.099 80.9813C299.099 82.867 300.386 84.6773 302.506 84.6773C304.701 84.6773 305.912 82.867 305.912 80.9813C305.912 79.0202 304.701 77.2854 302.506 77.2854C300.31 77.2854 299.099 79.0956 299.099 80.9813Z" fill="#585551"/>
<path d="M309.772 86.1104V75.9277H316.13V77.5117H311.74V80.0762H313.405C315.373 80.0762 316.962 80.9813 316.962 83.0933C316.962 85.3561 315.222 86.1104 313.254 86.1104H309.772ZM311.74 81.5847V84.6019H312.799C313.783 84.6019 314.843 84.3001 314.843 83.0933C314.843 81.811 313.859 81.5847 312.875 81.5847H311.74Z" fill="#585551"/>
<path d="M320.747 82.2636V86.1104H318.703V75.9277H321.958C324.304 75.9277 325.818 76.8328 325.818 79.0956C325.818 81.2076 324.304 82.2636 322.109 82.2636H320.747ZM320.747 77.4362V80.6796H321.807C322.791 80.6796 323.775 80.3025 323.775 79.0202C323.775 77.8134 322.866 77.3608 321.882 77.3608H320.747V77.4362Z" fill="#585551"/>
<path d="M333.841 83.6967H329.376L328.467 86.1104H326.424L330.511 75.9277H332.857L336.945 86.1858H334.75L333.841 83.6967ZM331.646 77.5871L329.905 82.2636H333.312L331.646 77.5871Z" fill="#585551"/>
<path d="M337.777 85.8841V84.1493C338.383 84.451 339.443 84.7527 340.275 84.7527C341.335 84.7527 342.47 84.3756 342.47 83.1687C342.47 81.811 341.335 81.5847 340.351 81.5847H339.518V80.1516H340.275C341.108 80.1516 342.319 79.6991 342.319 78.6431C342.319 77.5871 341.486 77.2854 340.502 77.2854C339.745 77.2854 338.913 77.4362 338.231 77.8134V76.154C338.837 75.9277 339.897 75.7014 340.805 75.7014C342.622 75.7014 344.362 76.3802 344.362 78.4168C344.362 79.6236 343.606 80.4533 342.394 80.755V80.8305C343.681 81.0568 344.514 81.8865 344.514 83.2442C344.514 85.507 342.47 86.3367 340.351 86.3367C339.518 86.3367 338.534 86.1104 337.777 85.8841Z" fill="#585551"/>
<path d="M346.028 80.9813C346.028 77.8888 348.223 75.7014 351.477 75.7014C354.808 75.7014 357.003 77.9642 357.003 80.9813C357.003 84.0739 354.808 86.2613 351.553 86.2613C348.374 86.3367 346.028 84.1493 346.028 80.9813ZM348.147 80.9813C348.147 82.867 349.434 84.6773 351.553 84.6773C353.748 84.6773 354.959 82.867 354.959 80.9813C354.959 79.0202 353.748 77.2854 351.553 77.2854C349.358 77.2854 348.147 79.0956 348.147 80.9813Z" fill="#585551"/>
<path d="M358.744 86.1104V75.9277H362.301C364.269 75.9277 365.707 76.682 365.707 78.4922C365.707 79.8499 365.026 80.5288 363.739 80.9059V80.9813C365.102 81.2076 365.934 82.0373 365.934 83.3196C365.934 85.6578 363.966 86.1858 361.998 86.1858H358.744V86.1104ZM360.787 77.4362V80.1516H361.696C362.907 80.1516 363.739 79.7745 363.739 78.7185C363.739 77.6625 362.907 77.4362 362.074 77.4362H360.787ZM360.787 81.5847V84.6019H361.771C362.907 84.6019 363.966 84.3756 363.966 83.1687C363.966 81.811 362.831 81.5847 361.696 81.5847H360.787Z" fill="#585551"/>
<path d="M374.26 83.6967H369.794L368.886 86.1104H366.843L370.93 75.8522H373.276L377.364 86.1104H375.168L374.26 83.6967ZM372.065 77.5871L370.324 82.2636H373.73L372.065 77.5871Z" fill="#585551"/>
<path d="M385.614 81.5847H380.543V86.1104H378.499V75.9277H380.543V80.0762H385.614V75.9277H387.657V86.1858H385.614V81.5847Z" fill="#585551"/>
<path d="M396.892 78.5676L392.047 86.1104H389.777V75.9277H391.82V83.4704L396.74 75.9277H398.935V86.1858H396.892V78.5676Z" fill="#585551"/>
<path d="M401.055 75.9277H407.564V77.5117H403.023V80.0762H407.034V81.6602H403.023V84.5264H407.64V86.1104H400.979V75.9277H401.055Z" fill="#585551"/>
<path d="M42.5083 15.661C42.357 15.5855 42.2813 15.5855 42.1299 15.5855L26.5376 17.6221C26.3106 17.6221 26.0835 17.8484 26.0835 18.1501V35.951C25.1752 34.8196 23.7371 34.1407 22.0719 34.1407C19.2713 34.1407 17.0006 36.1773 17.0006 38.6664C17.0006 41.1555 19.2713 43.1921 22.0719 43.1921C24.8724 43.1921 27.1432 41.1555 27.1432 38.6664C27.1432 38.5156 27.1432 38.4401 27.1432 38.2893V38.2138V23.6563L41.7514 21.7706V30.9728C40.8432 29.8414 39.405 29.1625 37.7398 29.1625C34.9393 29.1625 32.6686 31.1991 32.6686 33.6882C32.6686 36.1773 34.9393 38.2138 37.7398 38.2138C40.4647 38.2138 42.7354 36.2527 42.8111 33.7636V16.0381C42.6597 15.9627 42.584 15.8118 42.5083 15.661Z" fill="#5DAE61"/>
<path d="M388.566 20.2621H384.706V28.7854H388.566V20.2621Z" fill="#4D66AA"/>
</g>
<defs>
<clipPath id="clip0_322_1549">
<rect width="411" height="97" fill="white" transform="translate(0.5 0.5)"/>
</clipPath>
</defs>
</svg>
