<svg width="10" height="16" viewBox="0 0 10 16" fill="none" xmlns="http://www.w3.org/2000/svg">
<path d="M9.66454 8.59307C9.44051 8.13702 8.80843 7.75297 7.96833 8.40105C6.82419 9.31316 4.99996 9.31316 4.99996 9.31316C4.99996 9.31316 3.17573 9.31316 2.03159 8.40105C1.19148 7.75297 0.559403 8.13702 0.335375 8.59307C-0.0646747 9.39317 0.383381 9.78522 1.39951 10.4333C2.27162 10.9934 3.46377 11.2014 4.23186 11.2814L3.59178 11.9215C2.67967 12.8256 1.79956 13.6977 1.19948 14.3058C0.839438 14.6738 0.839438 15.2579 1.19948 15.602L1.3115 15.73C1.67154 16.09 2.26362 16.09 2.62366 15.73L4.99996 13.3457C5.92007 14.2498 6.79218 15.1219 7.40026 15.73C7.7603 16.09 8.34438 16.09 8.71242 15.73L8.81644 15.602C9.18448 15.2579 9.18448 14.6738 8.81644 14.3058L6.43214 11.9215L5.80006 11.2734C6.56015 11.2014 7.7363 10.9854 8.60041 10.4333C9.61654 9.78522 10.0646 9.39317 9.66454 8.59307ZM4.99996 2.05626C6.1041 2.05626 7.00021 2.95237 7.00021 4.04851C7.00021 5.15264 6.1041 6.04076 4.99996 6.04076C3.89582 6.04076 2.99971 5.15264 2.99971 4.04851C2.99971 2.95237 3.89582 2.05626 4.99996 2.05626ZM4.99996 8.09701C7.24024 8.09701 9.04846 6.28879 9.04846 4.04851C9.04846 2.97478 8.62193 1.94502 7.86268 1.18578C7.10344 0.426538 6.07369 0 4.99996 0C3.92623 0 2.89647 0.426538 2.13723 1.18578C1.37799 1.94502 0.951452 2.97478 0.951452 4.04851C0.951452 6.28879 2.75968 8.09701 4.99996 8.09701Z" fill="white"/>
</svg>
