<svg width="36" height="24" viewBox="0 0 36 24" fill="none" xmlns="http://www.w3.org/2000/svg">
<g clip-path="url(#clip0_2142_8135)">
<mask id="mask0_2142_8135" style="mask-type:luminance" maskUnits="userSpaceOnUse" x="0" y="0" width="36" height="24">
<path d="M36 0H0V24H36V0Z" fill="white"/>
</mask>
<g mask="url(#mask0_2142_8135)">
<path d="M0 3C0 1.34315 1.34315 0 3 0H33C34.6569 0 36 1.34315 36 3V21C36 22.6569 34.6569 24 33 24H3C1.34315 24 0 22.6569 0 21V3Z" fill="#D8E3F3"/>
<path d="M30.9809 7.53125H29.095C28.5248 7.53125 28.0862 7.70669 27.8231 8.27686L24.2266 16.4786H26.7704C26.7704 16.4786 27.209 15.3821 27.2967 15.119C27.5599 15.119 30.0599 15.119 30.4108 15.119C30.4985 15.426 30.7178 16.4348 30.7178 16.4348H32.9985L30.9809 7.53125ZM27.9985 13.2769C28.2178 12.7505 28.9634 10.7769 28.9634 10.7769C28.9634 10.8207 29.1827 10.2505 29.2704 9.94353L29.4459 10.733C29.4459 10.733 29.9283 12.8821 30.016 13.3207H27.9985V13.2769Z" fill="#3362AB"/>
<path d="M24.4034 13.5388C24.4034 15.3809 22.7368 16.609 20.149 16.609C19.0526 16.609 17.9999 16.3897 17.4297 16.1265L17.7806 14.109L18.0876 14.2405C18.8771 14.5914 19.4034 14.723 20.3683 14.723C21.0701 14.723 21.8157 14.4598 21.8157 13.8458C21.8157 13.4511 21.5087 13.1879 20.5438 12.7493C19.6227 12.3107 18.3947 11.609 18.3947 10.337C18.3947 8.58265 20.1052 7.39844 22.5175 7.39844C23.4385 7.39844 24.228 7.57388 24.7104 7.79317L24.3596 9.723L24.1841 9.54756C23.7455 9.37212 23.1754 9.19668 22.342 9.19668C21.421 9.24054 20.9824 9.63528 20.9824 9.98616C20.9824 10.3809 21.5087 10.6879 22.342 11.0826C23.7455 11.7405 24.4034 12.4862 24.4034 13.5388Z" fill="#3362AB"/>
<path d="M3 7.62075L3.04386 7.44531H6.81579C7.3421 7.44531 7.73684 7.62075 7.86842 8.19093L8.70175 12.1383C7.86842 10.033 5.9386 8.32251 3 7.62075Z" fill="#F9B50B"/>
<path d="M14.0106 7.52823L10.1948 16.4317H7.60704L5.41406 8.9756C6.99301 9.98437 8.3088 11.5633 8.79126 12.6598L9.05441 13.5809L11.4228 7.48438H14.0106V7.52823Z" fill="#3362AB"/>
<path d="M15.0195 7.48438H17.4317L15.8967 16.4317H13.4844L15.0195 7.48438Z" fill="#3362AB"/>
</g>
</g>
<defs>
<clipPath id="clip0_2142_8135">
<rect width="36" height="24" fill="white"/>
</clipPath>
</defs>
</svg>
