<svg width="36" height="24" viewBox="0 0 36 24" fill="none" xmlns="http://www.w3.org/2000/svg">
<g clip-path="url(#clip0_2142_8107)">
<mask id="mask0_2142_8107" style="mask-type:luminance" maskUnits="userSpaceOnUse" x="0" y="0" width="36" height="24">
<path d="M36 0H0V24H36V0Z" fill="white"/>
</mask>
<g mask="url(#mask0_2142_8107)">
<path d="M0 3C0 1.34315 1.34315 0 3 0H33C34.6569 0 36 1.34315 36 3V21C36 22.6569 34.6569 24 33 24H3C1.34315 24 0 22.6569 0 21V3Z" fill="#CCEFFF"/>
<path d="M21.9368 19.0733H14.0625V4.92188H21.9368V19.0733Z" fill="#6C6BBD"/>
<path d="M14.5687 12C14.5687 9.12932 15.9128 6.57219 18.0059 4.92428C16.4753 3.71924 14.5435 3 12.4442 3C7.47411 3 3.44531 7.02937 3.44531 12C3.44531 16.9706 7.47411 21 12.4442 21C14.5435 21 16.4753 20.2808 18.0059 19.0757C15.9128 17.4278 14.5687 14.8707 14.5687 12Z" fill="#EB001B"/>
<path d="M32.5572 12C32.5572 16.9706 28.5284 21 23.5584 21C21.459 21 19.5273 20.2808 17.9961 19.0757C20.0897 17.4278 21.4338 14.8707 21.4338 12C21.4338 9.12932 20.0897 6.57219 17.9961 4.92428C19.5273 3.71924 21.459 3 23.5584 3C28.5284 3 32.5572 7.02937 32.5572 12Z" fill="#0099DF"/>
</g>
</g>
<defs>
<clipPath id="clip0_2142_8107">
<rect width="36" height="24" fill="white"/>
</clipPath>
</defs>
</svg>
