<svg width="36" height="24" viewBox="0 0 36 24" fill="none" xmlns="http://www.w3.org/2000/svg">
<g clip-path="url(#clip0_2142_8125)">
<mask id="mask0_2142_8125" style="mask-type:luminance" maskUnits="userSpaceOnUse" x="0" y="0" width="36" height="24">
<path d="M36 0H0V24H36V0Z" fill="white"/>
</mask>
<g mask="url(#mask0_2142_8125)">
<path d="M0 3C0 1.34315 1.34315 0 3 0H33C34.6569 0 36 1.34315 36 3V21C36 22.6569 34.6569 24 33 24H3C1.34315 24 0 22.6569 0 21V3Z" fill="#DCEFDC"/>
<path d="M29.9163 7.65625H24.1406C24.4771 9.56279 26.3276 11.3572 28.3462 11.3572H32.9444C33.0005 11.189 33.0004 10.9086 33.0004 10.7404C33.0004 9.05812 31.5986 7.65625 29.9163 7.65625Z" fill="url(#paint0_linear_2142_8125)"/>
<path d="M24.6445 11.6953V16.3495H27.4483V13.8822H29.9156C31.2614 13.8822 32.4389 12.929 32.8315 11.6953H24.6445Z" fill="#4FAD50"/>
<path d="M14.7773 7.65625V16.2918H17.2446C17.2446 16.2918 17.8615 16.2918 18.1979 15.6749C19.8802 12.3665 20.3848 11.3572 20.3848 11.3572H20.7213V16.2918H23.525V7.65625H21.0577C21.0577 7.65625 20.4409 7.71233 20.1044 8.27308C18.7026 11.1329 17.9175 12.5908 17.9175 12.5908H17.5811V7.65625H14.7773Z" fill="#4FAD50"/>
<path d="M3 16.3464V7.71094H5.80374C5.80374 7.71094 6.58879 7.71094 7.03739 8.94458C8.15889 12.1969 8.27104 12.6455 8.27104 12.6455C8.27104 12.6455 8.49533 11.8605 9.50468 8.94458C9.95327 7.71094 10.7383 7.71094 10.7383 7.71094H13.5421V16.3464H10.7383V11.6922H10.4019L8.83179 16.3464H7.59814L6.02805 11.6922H5.6916V16.3464H3Z" fill="#4FAD50"/>
</g>
</g>
<defs>
<linearGradient id="paint0_linear_2142_8125" x1="24.1307" y1="9.53324" x2="32.9806" y2="9.53324" gradientUnits="userSpaceOnUse">
<stop stop-color="#27B1E6"/>
<stop offset="1" stop-color="#148ACA"/>
</linearGradient>
<clipPath id="clip0_2142_8125">
<rect width="36" height="24" fill="white"/>
</clipPath>
</defs>
</svg>
