<svg width="36" height="24" viewBox="0 0 36 24" fill="none" xmlns="http://www.w3.org/2000/svg">
<mask id="mask0_2142_8117" style="mask-type:luminance" maskUnits="userSpaceOnUse" x="0" y="0" width="36" height="24">
<path d="M36 0H0V24H36V0Z" fill="white"/>
</mask>
<g mask="url(#mask0_2142_8117)">
<path d="M0 3C0 1.34315 1.34315 0 3 0H33C34.6569 0 36 1.34315 36 3V21C36 22.6569 34.6569 24 33 24H3C1.34315 24 0 22.6569 0 21V3Z" fill="#FDEACE"/>
<path d="M21.7546 4.89551L14.0078 4.92215L14.2426 19.1045L21.9893 19.0779L21.7546 4.89551Z" fill="#FF5F00"/>
<path d="M14.516 12.0473C14.468 9.16269 15.7602 6.59962 17.7842 4.9371C16.2565 3.73826 14.3412 3.01736 12.265 3.02447C7.34628 3.04132 3.43397 7.09336 3.51692 12.085C3.59987 17.0766 7.64641 21.1013 12.5651 21.0845C14.6413 21.0774 16.5324 20.3435 18.0202 19.1343C15.9416 17.5109 14.5639 14.9319 14.516 12.0473Z" fill="#EB001B"/>
<path d="M32.4759 11.9263C32.5589 16.9179 28.6466 20.97 23.7279 20.9868C21.6517 20.9939 19.7364 20.273 18.2086 19.0742C20.2573 17.4116 21.5248 14.8486 21.4769 11.964C21.429 9.07942 20.0517 6.52549 17.9727 4.87702C19.4604 3.66786 21.3515 2.93392 23.4278 2.92681C28.3464 2.90996 32.3934 6.95983 32.4759 11.9263Z" fill="#F79E1B"/>
</g>
</svg>
