<svg width="32" height="32" viewBox="0 0 32 32" fill="none" xmlns="http://www.w3.org/2000/svg">
<path fill-rule="evenodd" clip-rule="evenodd" d="M16 2.66663C8.63616 2.66663 2.66663 8.63616 2.66663 16C2.66663 23.3638 8.63616 29.3333 16 29.3333C23.3638 29.3333 29.3333 23.3638 29.3333 16C29.3333 8.63616 23.3638 2.66663 16 2.66663ZM14.1572 10.2627C13.1812 9.84648 12.0816 10.4787 11.9526 11.5338C11.87 12.2096 11.7149 13.7564 11.7149 15.8476C11.7149 17.9401 11.8702 19.4874 11.9528 20.1626C12.0813 21.2141 13.1769 21.8499 14.1549 21.4342C14.7778 21.1694 16.1825 20.535 18.0094 19.4803C19.8357 18.4259 21.0873 17.5268 21.6283 17.1195C22.4788 16.4794 22.4736 15.2113 21.6266 14.5752C21.0817 14.166 19.8149 13.256 18.01 12.214C16.2056 11.1722 14.7843 10.5301 14.1572 10.2627Z" fill="white"/>
</svg>
