<svg width="24" height="24" viewBox="0 0 24 24" fill="none" xmlns="http://www.w3.org/2000/svg">
<path fill-rule="evenodd" clip-rule="evenodd" d="M11.1125 4C7.18437 4 4 7.18438 4 11.1125C4 15.0407 7.18437 18.225 11.1125 18.225C12.775 18.225 14.3044 17.6546 15.5154 16.6988L18.5716 19.7549C18.8983 20.0817 19.4281 20.0817 19.7549 19.7549C20.0817 19.4281 20.0817 18.8983 19.7549 18.5715L16.6988 15.5154C17.6546 14.3043 18.225 12.775 18.225 11.1125C18.225 7.18438 15.0406 4 11.1125 4ZM5.67353 11.1125C5.67353 8.10865 8.10863 5.67353 11.1125 5.67353C14.1163 5.67353 16.5514 8.10865 16.5514 11.1125C16.5514 14.1164 14.1163 16.5515 11.1125 16.5515C8.10863 16.5515 5.67353 14.1164 5.67353 11.1125Z" fill="#111111"/>
</svg>
