<svg width="32" height="27" viewBox="0 0 32 27" fill="none" xmlns="http://www.w3.org/2000/svg">
<path d="M15.1874 21.8518H1.36735C0.546354 21.8518 -0.000976562 21.3044 -0.000976562 20.4834C-0.000976562 19.6624 0.546354 19.1151 1.36735 19.1151H15.1874C16.0084 19.1151 16.5557 19.6624 16.5557 20.4834C16.5557 21.3044 16.0084 21.8518 15.1874 21.8518ZM11.0824 15.0101H1.36735C0.546354 15.0101 -0.000976562 14.4628 -0.000976562 13.6418C-0.000976562 12.8208 0.546354 12.2735 1.36735 12.2735H11.0824C11.9034 12.2735 12.4507 12.8208 12.4507 13.6418C12.4507 14.4628 11.9034 15.0101 11.0824 15.0101ZM15.1874 8.16848H1.36735C0.546354 8.16848 -0.000976562 7.62115 -0.000976562 6.80015C-0.000976562 5.97915 0.546354 5.43182 1.36735 5.43182H15.1874C16.0084 5.43182 16.5557 5.97915 16.5557 6.80015C16.5557 7.62115 16.0084 8.16848 15.1874 8.16848Z" fill="#2569D7"/>
<path d="M28.5304 10.9725C28.1199 10.9725 27.8463 10.8357 27.5726 10.562L24.4255 7.41485L21.2783 10.562C20.731 11.1093 19.91 11.1093 19.3626 10.562C18.8153 10.0147 18.8153 9.19367 19.3626 8.64634L23.4676 4.54136C24.015 3.99403 24.836 3.99403 25.3833 4.54136L29.4883 8.64634C30.0356 9.19367 30.0356 10.0147 29.4883 10.562C29.2146 10.8357 28.9409 10.9725 28.5304 10.9725Z" fill="#2569D7"/>
<path d="M28.5314 15.8302C28.1209 15.8302 27.8473 15.9671 27.5736 16.2407L24.4264 19.3879L21.2793 16.2407C20.732 15.6934 19.911 15.6934 19.3636 16.2407C18.8163 16.7881 18.8163 17.6091 19.3636 18.1564L23.4686 22.2614C24.0159 22.8087 24.8369 22.8087 25.3843 22.2614L29.4892 18.1564C30.0366 17.6091 30.0366 16.7881 29.4892 16.2407C29.2156 15.9671 28.9419 15.8302 28.5314 15.8302Z" fill="#2569D7"/>
<path d="M23.0557 6.79997V9.67877L23.0681 20.6327C23.0681 20.9958 23.2123 21.3441 23.4691 21.6009C23.7259 21.8577 24.0742 22.0019 24.4373 22.0019C24.8005 22.0019 25.1487 21.8577 25.4055 21.6009C25.6623 21.3441 25.8066 20.9958 25.8066 20.6327L25.7923 9.67877V6.79997C25.7923 5.97897 25.245 5.43164 24.424 5.43164C23.603 5.43164 23.0557 5.97897 23.0557 6.79997Z" fill="#2569D7"/>
</svg>
