<svg width="70" height="71" viewBox="0 0 70 71" fill="none" xmlns="http://www.w3.org/2000/svg">
<g clip-path="url(#clip0_824_4344)">
<path d="M36.1878 57.0677C35.9337 56.812 35.5811 56.6672 35.2216 56.6672C34.8622 56.6672 34.5096 56.8122 34.2554 57.0677C33.9999 57.3218 33.855 57.6732 33.855 58.0339C33.855 58.3933 33.9999 58.7459 34.2554 59.0001C34.5096 59.2541 34.8622 59.4005 35.2216 59.4005C35.5811 59.4005 35.9323 59.2542 36.1878 59.0001C36.442 58.7459 36.5883 58.3933 36.5883 58.0339C36.5883 57.6731 36.442 57.3218 36.1878 57.0677Z" fill="#3B2720"/>
<path d="M37.6377 34.5912C37.1862 33.9863 36.33 33.8618 35.725 34.3131C35.5111 34.4726 35.2562 34.557 34.9878 34.557C34.722 34.557 34.4691 34.4739 34.2561 34.3168C33.6489 33.8685 32.7932 33.9974 32.3449 34.6046C31.8966 35.2117 32.0255 36.0676 32.6327 36.5156C33.319 37.0224 34.1334 37.2903 34.9876 37.2903C35.8497 37.2903 36.6697 37.0182 37.3593 36.5037C37.9646 36.0523 38.089 35.1961 37.6377 34.5912Z" fill="#3B2720"/>
<path d="M29.1824 15.6473C28.9283 15.3917 28.5771 15.2468 28.2163 15.2468C27.8568 15.2468 27.5042 15.3917 27.2501 15.6473C26.9959 15.9014 26.8496 16.2527 26.8496 16.6135C26.8496 16.9729 26.9959 17.3255 27.2501 17.5797C27.5042 17.8338 27.8568 17.9801 28.2163 17.9801C28.5771 17.9801 28.9283 17.8338 29.1824 17.5797C29.438 17.3241 29.5829 16.9729 29.5829 16.6135C29.5829 16.254 29.438 15.9014 29.1824 15.6473Z" fill="#3B2720"/>
<path d="M68.6127 67.919H60.1394V62.9357C60.1394 57.2995 56.5827 52.2129 51.2888 50.2781L42.0205 46.8911C41.6127 46.7389 41.3492 46.4188 41.3492 46.0757V42.2258C41.3492 42.1182 41.3355 42.0143 41.312 41.9138L45.4403 39.5467C45.4651 39.5325 45.4896 39.5173 45.5137 39.5016C47.3024 38.3202 48.4769 36.2195 48.6556 33.882C48.6583 33.8474 48.6596 33.8126 48.6596 33.7778V28.6959C48.6596 28.6502 48.6571 28.6049 48.6527 28.5605C49.4307 28.3299 50.1635 27.9082 50.7763 27.2953L51.3749 26.6968C54.304 23.7677 54.304 19.0018 51.3749 16.0726L42.1478 6.84547C41.4482 4.13898 39.4591 2.00809 36.7958 1.12666C33.6026 0.0698249 30.1414 0.891095 27.7631 3.26945L19.4772 11.5553C14.7335 16.2992 14.7335 24.018 19.4772 28.7619L21.3268 30.6114V33.778C21.3268 33.8127 21.3281 33.8476 21.3307 33.8821C21.5102 36.2292 22.6764 38.3299 24.4506 39.5017C24.4751 39.5178 24.5001 39.5331 24.5256 39.5478L28.6706 41.9174C28.6476 42.0168 28.6342 42.1196 28.6342 42.226V46.0758C28.6342 46.419 28.3706 46.739 27.9714 46.8879L18.6968 50.278C13.4034 52.2127 9.84676 57.2995 9.84676 62.9354V67.9191H1.37348C0.618652 67.9191 0.00683594 68.5311 0.00683594 69.2857C0.00683594 70.0404 0.618652 70.6524 1.37348 70.6524H68.6127C69.3675 70.6524 69.9794 70.0404 69.9794 69.2857C69.9794 68.5311 69.3675 67.919 68.6127 67.919ZM40.0127 14.6872C41.118 13.5819 41.8614 12.2237 42.2015 10.7649L49.4422 18.0054C51.3056 19.8689 51.3056 22.9008 49.4423 24.7641L48.8436 25.3627C47.9437 26.2628 46.4793 26.2627 45.5792 25.3627L37.4581 17.2417L40.0127 14.6872ZM22.73 28.1044C22.7177 28.1041 22.7057 28.1025 22.6933 28.1025C22.69 28.1025 22.687 28.1029 22.6837 28.103L21.41 26.8292C17.732 23.1512 17.732 17.1664 21.41 13.4882L29.6959 5.20252C30.8652 4.03316 32.4133 3.40863 34.004 3.40863C34.5171 3.40863 35.0345 3.47481 35.5451 3.60729C36.0093 5.46557 35.4763 7.42037 34.1112 8.78564L30.6329 12.2639C30.0992 12.7977 30.0992 13.6629 30.6329 14.1967C30.8998 14.4636 31.2495 14.597 31.5993 14.597C31.949 14.597 32.2989 14.4636 32.5656 14.1967L36.0438 10.7184C37.4899 9.27223 38.3137 7.38619 38.4292 5.42182C38.9514 6.05428 39.3322 6.80732 39.5298 7.64022C39.9697 9.49494 39.4276 11.4068 38.0799 12.7546L22.73 28.1044ZM25.9234 37.1984C24.879 36.4913 24.1857 35.1982 24.0599 33.723V30.64L35.5254 19.1745L43.6465 27.2956C44.3015 27.9506 45.0935 28.3861 45.9309 28.6045C45.9289 28.635 45.9263 28.6652 45.9263 28.6961V33.723C45.8022 35.1683 45.0836 36.4927 44.0401 37.1991L36.7027 41.4063C36.6777 41.4205 36.6532 41.4357 36.6293 41.4516C35.605 42.1282 34.3818 42.1283 33.3569 41.4514C33.3324 41.4353 33.3074 41.42 33.282 41.4054L25.9234 37.1984ZM57.406 67.9191H51.6662V67.919V61.6552C51.6662 58.9047 49.4283 56.6669 46.6778 56.6669H40.3457C39.5909 56.6669 38.9791 57.2788 38.9791 58.0335C38.9791 58.7882 39.5909 59.4002 40.3457 59.4002H46.6778C47.9212 59.4002 48.9329 60.4117 48.9329 61.6552V67.919H21.0532V61.6552C21.0532 60.4119 22.0648 59.4002 23.3082 59.4002H29.6177C30.3725 59.4002 30.9843 58.7882 30.9843 58.0335C30.9843 57.2788 30.3725 56.6669 29.6177 56.6669H23.3082C20.5577 56.6669 18.3199 58.9047 18.3199 61.6552V67.919H12.58V62.9353C12.58 58.4424 15.4153 54.3875 19.6351 52.8452L28.9185 49.452C30.4062 48.8967 31.3675 47.5714 31.3675 46.0758V43.4593L31.8898 43.7579C32.849 44.3809 33.921 44.6924 34.9932 44.6924C36.0656 44.6924 37.138 44.3808 38.0974 43.7573L38.6159 43.46V46.0758C38.6159 47.5718 39.5773 48.897 41.0737 49.4552L50.3505 52.8456C54.5706 54.3878 57.406 58.4427 57.406 62.9358V67.9191Z" fill="#3B2720"/>
<path d="M4.45201 40.0194L3.3707 38.6618C2.52646 37.602 2.52509 36.1205 3.36769 35.0591L4.46322 33.679C4.93258 33.0878 4.83359 32.2281 4.24242 31.759C3.65125 31.2898 2.79142 31.3886 2.32234 31.9798L1.22681 33.36C-0.411077 35.4235 -0.408753 38.3042 1.23269 40.3649L2.314 41.7224C3.15824 42.7822 3.15961 44.2639 2.31715 45.3251C1.84779 45.9161 1.94677 46.7759 2.53795 47.2451C2.7891 47.4445 3.08892 47.5413 3.3867 47.5413C3.78933 47.5413 4.18828 47.3642 4.45802 47.0243C6.09605 44.9608 6.09359 42.0803 4.45201 40.0194Z" fill="#3B2720"/>
<path d="M14.3421 34.5955L13.2608 33.2379C12.4165 32.1781 12.4153 30.6965 13.2578 29.6353L14.3533 28.2551C14.8227 27.6639 14.7237 26.8042 14.1325 26.335C13.5415 25.8656 12.6816 25.9646 12.2124 26.5558L11.1169 27.936C9.47901 29.9995 9.48147 32.88 11.1228 34.9408L12.2041 36.2982C13.0483 37.3582 13.0496 38.8397 12.2071 39.9009C11.7377 40.492 11.8367 41.3518 12.4279 41.821C12.679 42.0203 12.9789 42.1171 13.2766 42.1171C13.6793 42.1171 14.0782 41.9401 14.348 41.6002C15.9859 39.5368 15.9834 36.6564 14.3421 34.5955Z" fill="#3B2720"/>
<path d="M58.8772 40.0194L57.7959 38.6618C56.9517 37.602 56.9503 36.1205 57.7929 35.0591L58.8885 33.679C59.3578 33.0878 59.2588 32.2281 58.6677 31.7589C58.0766 31.2897 57.2168 31.3885 56.7476 31.9797L55.6521 33.3599C54.0142 35.4234 54.0166 38.3039 55.6579 40.3647L56.7392 41.7223C57.5835 42.7823 57.5847 44.2639 56.7423 45.3251C56.2729 45.9161 56.3719 46.7759 56.9631 47.2452C57.2142 47.4445 57.514 47.5413 57.8118 47.5413C58.2144 47.5413 58.6134 47.3642 58.8831 47.0244C60.5209 44.9609 60.5186 42.0803 58.8772 40.0194Z" fill="#3B2720"/>
<path d="M68.7674 34.5954L67.686 33.2377C66.8417 32.1778 66.8405 30.6964 67.683 29.635L68.7785 28.2548C69.2479 27.6637 69.1489 26.804 68.5577 26.3348C67.9667 25.8654 67.1068 25.9644 66.6376 26.5556L65.5421 27.9357C63.9043 29.9994 63.9068 32.8799 65.548 34.9405L66.6294 36.2981C67.4736 37.358 67.4749 38.8396 66.6324 39.9008C66.1631 40.492 66.262 41.3517 66.8532 41.8209C67.1045 42.0202 67.4042 42.117 67.702 42.117C68.1046 42.117 68.5036 41.94 68.7733 41.6001C70.4111 39.5366 70.4086 36.6562 68.7674 34.5954Z" fill="#3B2720"/>
</g>
<defs>
<clipPath id="clip0_824_4344">
<rect width="70" height="70" fill="white" transform="translate(0 0.66272)"/>
</clipPath>
</defs>
</svg>
