<svg width="24" height="24" viewBox="0 0 24 24" fill="none" xmlns="http://www.w3.org/2000/svg">
<path fill-rule="evenodd" clip-rule="evenodd" d="M7.68051 3.24181C7.49653 3.08359 7.26129 2.99766 7.01863 3.00005L7.00879 3.00015L3.87905 3.0001C3.75997 3.01461 3.64438 3.05043 3.53783 3.10596C3.42077 3.16697 3.31695 3.25055 3.23235 3.35188C3.14776 3.45321 3.08406 3.57029 3.04493 3.69636C3.00632 3.82078 2.99239 3.95153 3.00392 4.08125C3.31751 7.0135 4.31577 9.83106 5.91827 12.3067L5.9234 12.3146C7.37743 14.6081 9.32078 16.5515 11.6142 18.0055L11.6229 18.011C14.0737 19.6004 16.8611 20.5964 19.7637 20.9201H19.8988C20.164 20.9201 20.4184 20.8147 20.6059 20.6272C20.7934 20.4397 20.8988 20.1853 20.8988 19.9201V16.9201C20.8988 16.9113 20.8989 16.9026 20.8991 16.8938C20.9055 16.6501 20.8227 16.4125 20.6661 16.2255C20.5112 16.0405 20.2945 15.9178 20.0562 15.8799C19.0262 15.7418 18.0147 15.4895 17.0405 15.1275L17.0369 15.1261C16.858 15.0589 16.6635 15.0443 16.4765 15.0842C16.2903 15.1239 16.1193 15.216 15.9836 15.3495L14.7159 16.6172C14.3979 16.9352 13.9067 17.0018 13.5155 16.78C10.8526 15.27 8.64885 13.0663 7.1389 10.4033C6.91853 10.0147 6.9827 9.52703 7.29609 9.20862L8.54609 7.93862L8.54774 7.93696C8.68217 7.80101 8.77481 7.62938 8.81469 7.4424C8.85453 7.25562 8.84004 7.06134 8.77296 6.88254C8.40456 5.90605 8.15117 4.88998 8.01789 3.85487C7.98294 3.61662 7.86318 3.3989 7.68051 3.24181ZM7.00436 1.0001C7.73041 0.99426 8.434 1.25194 8.98459 1.72544C9.53655 2.20013 9.89706 2.85932 9.99895 3.58015L10.0008 3.59295C10.114 4.47644 10.33 5.3437 10.6444 6.17707L10.6448 6.17824C10.8467 6.71512 10.8903 7.29861 10.7707 7.85956C10.6511 8.42014 10.3735 8.93474 9.97062 9.34245C9.97036 9.34271 9.9701 9.34297 9.96984 9.34324L9.26477 10.0596C10.4392 11.908 12.0061 13.4755 13.8539 14.6507L14.5717 13.933L14.5757 13.929C14.9835 13.5258 15.4984 13.2478 16.0593 13.1282C16.6196 13.0087 17.2023 13.0521 17.7387 13.2533C18.576 13.5643 19.4455 13.7808 20.3309 13.8989L20.3484 13.9014C21.0716 14.0108 21.7299 14.3807 22.1995 14.9415C22.666 15.4985 22.9144 16.2058 22.8988 16.9319V19.9201C22.8988 20.7157 22.5827 21.4788 22.0201 22.0414C21.4575 22.604 20.6944 22.9201 19.8988 22.9201H19.7088C19.6727 22.9201 19.6366 22.9181 19.6008 22.9142C16.3698 22.5632 13.2662 21.4595 10.5391 19.6919C7.99963 18.0811 5.84755 15.929 4.23673 13.3895C2.46402 10.6495 1.36022 7.53117 1.01442 4.28606L1.01311 4.27377C0.976016 3.87951 1.01742 3.48179 1.1348 3.10357C1.25218 2.72535 1.44327 2.37412 1.69707 2.07013C1.95086 1.76613 2.26233 1.51539 2.61351 1.33237C2.96469 1.14935 3.34863 1.03767 3.74319 1.00377C3.77166 1.00132 3.80022 1.0001 3.82879 1.0001H7.00436Z" fill="white"/>
</svg>
