<svg width="16" height="15" viewBox="0 0 16 15" fill="none" xmlns="http://www.w3.org/2000/svg">
<path fill-rule="evenodd" clip-rule="evenodd" d="M14.343 0.759282C14.5397 0.676483 14.755 0.647927 14.9665 0.676584C15.178 0.705241 15.378 0.790064 15.5456 0.922225C15.7132 1.05439 15.8423 1.22905 15.9195 1.42804C15.9967 1.62704 16.0191 1.84308 15.9845 2.05369L14.179 13.0052C14.0039 14.0616 12.8448 14.6674 11.876 14.1412C11.0656 13.701 9.86191 13.0227 8.77926 12.315C8.23793 11.9608 6.57972 10.8264 6.78351 10.0191C6.95865 9.32896 9.74489 6.73537 11.337 5.19338C11.9619 4.58757 11.6769 4.2381 10.939 4.79535C9.10565 6.17891 6.16417 8.28292 5.19138 8.8752C4.33322 9.39742 3.88583 9.48658 3.35087 9.39742C2.37489 9.23502 1.46976 8.98346 0.731007 8.67698C-0.267263 8.26302 -0.218703 6.8906 0.730211 6.49097L14.343 0.759282Z" fill="#2D9CDB"/>
</svg>
