<svg width="36" height="36" viewBox="0 0 36 36" fill="none" xmlns="http://www.w3.org/2000/svg">
<path d="M8.95278 2.75352C9.43795 2.36538 9.51661 1.65743 9.12848 1.17226C8.74034 0.68709 8.03239 0.608428 7.54722 0.996564L3.79722 3.99656C3.31205 4.3847 3.23339 5.09265 3.62152 5.57782C4.00966 6.06299 4.71761 6.14165 5.20278 5.75352L8.95278 2.75352Z" fill="#DE9B3D"/>
<path d="M28.4528 0.996564C27.9676 0.608428 27.2597 0.68709 26.8715 1.17226C26.4834 1.65743 26.562 2.36538 27.0472 2.75352L30.7972 5.75352C31.2824 6.14165 31.9903 6.06299 32.3785 5.57782C32.7666 5.09265 32.688 4.3847 32.2028 3.99656L28.4528 0.996564Z" fill="#DE9B3D"/>
<path d="M19.125 12C19.125 11.3787 18.6213 10.875 18 10.875C17.3787 10.875 16.875 11.3787 16.875 12L16.875 16.0882C16.875 16.8889 16.875 17.57 16.9307 18.1352C16.99 18.7373 17.1187 19.2954 17.4277 19.8305C17.7366 20.3655 18.1555 20.7561 18.6473 21.1085C19.109 21.4394 19.6988 21.7799 20.3923 22.1802L21.3347 22.7243C21.8728 23.035 22.5608 22.8506 22.8715 22.3125C23.1822 21.7744 22.9978 21.0864 22.4597 20.7758L21.5625 20.2578C20.8115 19.8242 20.3189 19.5383 19.958 19.2797C19.6173 19.0355 19.4692 18.8666 19.3762 18.7055C19.2832 18.5444 19.2109 18.3317 19.1698 17.9145C19.1263 17.4726 19.125 16.9031 19.125 16.0359L19.125 12Z" fill="#DE9B3D"/>
<path fill-rule="evenodd" clip-rule="evenodd" d="M18 1.87504C9.09441 1.87504 1.875 9.09445 1.875 18C1.875 26.9056 9.09441 34.125 18 34.125C26.9056 34.125 34.125 26.9056 34.125 18C34.125 9.09445 26.9056 1.87504 18 1.87504ZM4.125 18C4.125 10.3371 10.337 4.12504 18 4.12504C25.663 4.12504 31.875 10.3371 31.875 18C31.875 25.663 25.663 31.875 18 31.875C10.337 31.875 4.125 25.663 4.125 18Z" fill="#DE9B3D"/>
</svg>
