<svg width="18" height="12" viewBox="0 0 18 12" fill="none" xmlns="http://www.w3.org/2000/svg">
<path d="M17.2758 11.3458H15.3058C14.5605 11.3458 14.3359 10.7421 12.9998 9.40515C11.8322 8.2798 11.339 8.13989 11.0437 8.13989C10.6351 8.13989 10.5237 8.25216 10.5237 8.81441V10.5866C10.5237 11.066 10.3683 11.3467 9.11596 11.3467C7.90104 11.265 6.72289 10.896 5.67855 10.2698C4.63422 9.64366 3.75358 8.77836 3.10918 7.74519C1.57911 5.84084 0.51449 3.60573 0 1.21763C0 0.922258 0.112276 0.654523 0.675384 0.654523H2.64453C3.15064 0.654523 3.33287 0.879939 3.53152 1.40073C4.48759 4.21454 6.11905 6.66216 6.78148 6.66216C7.03539 6.66216 7.14594 6.54988 7.14594 5.91682V3.01837C7.06217 1.6961 6.36001 1.58469 6.36001 1.10622C6.36889 0.979986 6.42664 0.862189 6.52097 0.777848C6.61531 0.693506 6.73882 0.649266 6.86525 0.654523H9.96062C10.3838 0.654523 10.5237 0.865256 10.5237 1.37136V5.28375C10.5237 5.70609 10.7051 5.846 10.8329 5.846C11.0868 5.846 11.282 5.70608 11.7475 5.24143C12.7454 4.02452 13.5606 2.66873 14.1675 1.21677C14.2296 1.04244 14.3471 0.893217 14.5019 0.79186C14.6568 0.690503 14.8405 0.642575 15.0251 0.655386H16.9951C17.5859 0.655386 17.7111 0.950759 17.5859 1.37223C16.8694 2.97727 15.9828 4.50085 14.9414 5.91682C14.7289 6.24069 14.6443 6.40911 14.9414 6.78912C15.1365 7.08449 15.8275 7.66142 16.2913 8.20984C16.9667 8.8835 17.5272 9.66252 17.9512 10.5158C18.1205 11.0651 17.8381 11.3458 17.2758 11.3458Z" fill="white"/>
</svg>
