<svg width="26" height="26" viewBox="0 0 26 26" fill="none" xmlns="http://www.w3.org/2000/svg">
<path fill-rule="evenodd" clip-rule="evenodd" d="M3.80136 12.12H8.11324C8.33035 9.18865 9.3317 6.37728 11.0009 3.97682C7.1372 4.82898 4.18121 8.09951 3.80136 12.12ZM13 4.23648C11.2045 6.49752 10.1177 9.24114 9.87865 12.12H16.1214C15.8823 9.24114 14.7955 6.49752 13 4.23648ZM16.1214 13.88C15.8823 16.7589 14.7955 19.5025 13 21.7635C11.2045 19.5025 10.1177 16.7589 9.87865 13.88H16.1214ZM8.11324 13.88H3.80136C4.18121 17.9005 7.1372 21.171 11.0009 22.0232C9.3317 19.6227 8.33035 16.8114 8.11324 13.88ZM14.9991 22.0232C16.6683 19.6227 17.6697 16.8114 17.8868 13.88H22.1986C21.8188 17.9005 18.8628 21.171 14.9991 22.0232ZM22.1986 12.12H17.8868C17.6697 9.18865 16.6683 6.37728 14.9991 3.97682C18.8628 4.82898 21.8188 8.09951 22.1986 12.12ZM2 13C2 6.92487 6.92487 2 13 2C19.0751 2 24 6.92487 24 13C24 19.0751 19.0751 24 13 24C6.92487 24 2 19.0751 2 13Z" fill="white"/>
</svg>
