<svg width="15" height="15" viewBox="0 0 15 15" fill="none" xmlns="http://www.w3.org/2000/svg">
<path d="M13.8785 3.46866C11.6347 -0.000114665 7.05357 -1.03137 3.50086 1.12489C0.041641 3.28116 -1.08027 7.9687 1.16355 11.4375L1.35053 11.7187L0.602595 14.5312L3.40737 13.7812L3.68784 13.9687C4.90324 14.625 6.21214 15 7.52103 15C8.92342 15 10.3258 14.625 11.5412 13.875C15.0004 11.625 16.0288 7.03119 13.8785 3.46866ZM11.9152 10.6875C11.5412 11.25 11.0737 11.625 10.4193 11.7187C10.0453 11.7187 9.57786 11.9062 7.70802 11.1562C6.11865 10.4062 4.80975 9.18746 3.87483 7.7812C3.31387 7.12494 3.0334 6.28118 2.9399 5.43743C2.9399 4.68742 3.22038 4.03117 3.68784 3.56241C3.87483 3.37491 4.06181 3.28116 4.2488 3.28116H4.71626C4.90324 3.28116 5.09023 3.28116 5.18372 3.65616C5.37071 4.12492 5.83817 5.24993 5.83817 5.34368C5.93166 5.43743 5.93166 5.62493 5.83817 5.71868C5.93166 5.90618 5.83817 6.09368 5.74468 6.18743C5.65118 6.28118 5.55769 6.46868 5.4642 6.56244C5.27721 6.65619 5.18372 6.84369 5.27721 7.03119C5.65118 7.59369 6.11865 8.1562 6.58611 8.62495C7.14706 9.0937 7.70802 9.46871 8.36246 9.74996C8.54945 9.84371 8.73643 9.84371 8.82992 9.65621C8.92342 9.46871 9.39088 8.99995 9.57786 8.81245C9.76485 8.62495 9.85834 8.62495 10.0453 8.7187L11.5412 9.46871C11.7282 9.56246 11.9152 9.65621 12.0087 9.74996C12.1022 10.0312 12.1022 10.4062 11.9152 10.6875Z" fill="#27AE60"/>
</svg>
