<svg width="16" height="16" viewBox="0 0 16 16" fill="none" xmlns="http://www.w3.org/2000/svg">
<path d="M8.00001 0C12.4184 0 16 3.5816 16 7.99999C16 12.4184 12.4184 16 8.00001 16C6.58623 16.0023 5.19733 15.6281 3.97601 14.916L0.00321125 16L1.08481 12.0256C0.372085 10.8039 -0.0023507 9.41439 1.11042e-05 7.99999C1.11042e-05 3.5816 3.58161 0 8.00001 0ZM5.27361 4.24L5.11361 4.2464C5.01003 4.25271 4.90879 4.27992 4.81601 4.3264C4.72922 4.37554 4.65001 4.43698 4.58081 4.5088C4.48481 4.5992 4.43041 4.6776 4.37201 4.7536C4.07611 5.13832 3.91679 5.61065 3.91921 6.096C3.92081 6.488 4.02321 6.8696 4.18321 7.2264C4.51041 7.94799 5.04881 8.71199 5.75921 9.41999C5.93041 9.59039 6.09841 9.76159 6.27921 9.92079C7.16192 10.698 8.21381 11.2584 9.3512 11.5576L9.8056 11.6272C9.9536 11.6352 10.1016 11.624 10.2504 11.6168C10.4834 11.6048 10.7109 11.5417 10.9168 11.432C11.0216 11.378 11.1238 11.3193 11.2232 11.256C11.2232 11.256 11.2576 11.2336 11.3232 11.184C11.4312 11.104 11.4976 11.0472 11.5872 10.9536C11.6536 10.8848 11.7112 10.804 11.7552 10.712C11.8176 10.5816 11.88 10.3328 11.9056 10.1256C11.9248 9.96719 11.9192 9.88079 11.9168 9.82719C11.9136 9.74159 11.8424 9.65279 11.7648 9.61519L11.2992 9.40639C11.2992 9.40639 10.6032 9.10319 10.1776 8.90959C10.1331 8.89015 10.0853 8.87903 10.0368 8.87679C9.98207 8.87117 9.92676 8.87733 9.87461 8.89486C9.82245 8.91238 9.77464 8.94086 9.7344 8.97839C9.7304 8.97679 9.6768 9.02239 9.0984 9.72319C9.06521 9.7678 9.01948 9.80152 8.96705 9.82004C8.91462 9.83856 8.85786 9.84105 8.804 9.82719C8.75189 9.81322 8.70083 9.79558 8.65121 9.77439C8.552 9.73279 8.51761 9.71679 8.4496 9.68799C7.99046 9.48763 7.56536 9.21691 7.18961 8.88559C7.08881 8.79759 6.99521 8.70159 6.89921 8.60879C6.58448 8.30738 6.31019 7.9664 6.08321 7.5944L6.03601 7.51839C6.00211 7.46733 5.97469 7.41224 5.95441 7.35439C5.92401 7.23679 6.00321 7.1424 6.00321 7.1424C6.00321 7.1424 6.19761 6.92959 6.28801 6.8144C6.37601 6.7024 6.45041 6.5936 6.49841 6.516C6.59281 6.364 6.62241 6.208 6.57281 6.0872C6.34881 5.54 6.11681 4.9952 5.87841 4.4544C5.83121 4.3472 5.69121 4.2704 5.56401 4.2552C5.52081 4.2504 5.47761 4.2456 5.43441 4.2424C5.32697 4.23706 5.21932 4.23813 5.11201 4.2456L5.27281 4.2392L5.27361 4.24Z" fill="white"/>
</svg>
