<svg width="46" height="46" viewBox="0 0 46 46" fill="none" xmlns="http://www.w3.org/2000/svg">
<path d="M30.2833 7.28333L32.9667 10.1583L28.75 14.375C27.9833 15.1417 27.9833 16.2917 28.75 17.0583C29.5167 17.825 30.6667 17.825 31.4333 17.0583L35.65 12.8417L38.525 15.525C39.2917 16.2917 40.25 15.7167 40.25 14.95V6.70833C40.25 6.13333 39.8667 5.75 39.2917 5.75H31.05C30.2833 5.75 29.7083 6.70833 30.2833 7.28333ZM7.28333 15.525L9.96667 12.8417L14.1833 17.0583C14.95 17.825 16.1 17.825 16.8667 17.0583C17.6333 16.2917 17.6333 15.1417 16.8667 14.375L12.8417 10.1583L15.525 7.28333C16.2917 6.70833 15.7167 5.75 14.95 5.75H6.70833C6.13333 5.75 5.75 6.13333 5.75 6.70833V14.95C5.75 15.7167 6.70833 16.2917 7.28333 15.525ZM15.525 38.525L12.65 35.8417L16.8667 31.625C17.6333 30.8583 17.6333 29.7083 16.8667 28.9417C16.1 28.175 14.95 28.175 14.1833 28.9417L9.96667 33.1583L7.09167 30.475C6.70833 29.7083 5.75 30.2833 5.75 31.05V39.2917C5.75 39.8667 6.13333 40.25 6.70833 40.25H14.95C15.7167 40.25 16.2917 39.2917 15.525 38.525ZM38.7167 30.2833L35.8417 32.9667L31.625 28.75C30.8583 27.9833 29.7083 27.9833 28.9417 28.75C28.175 29.5167 28.175 30.6667 28.9417 31.4333L33.1583 35.65L30.475 38.525C29.9 39.1 30.2833 40.25 31.2417 40.25H39.4833C40.0583 40.25 40.4417 39.8667 40.4417 39.2917V31.05C40.25 30.2833 39.2917 29.7083 38.7167 30.2833Z" fill="#092C4D"/>
</svg>
